<?xml version="1.0" encoding="utf-8"?>
<!-- Generator: Adobe Illustrator 21.1.0, SVG Export Plug-In . SVG Version: 6.00 Build 0)  -->
<svg version="1.1" id="Layer_1" xmlns="http://www.w3.org/2000/svg" xmlns:xlink="http://www.w3.org/1999/xlink" x="0px" y="0px"
	 viewBox="0 0 65.3 39" style="enable-background:new 0 0 65.3 39;" xml:space="preserve">
<style type="text/css">
	.st0{fill:#005EB8;}
</style>
<path class="st0" d="M32.6,0C17,0,3.9,9.1,0,19.5C3.9,29.9,17,39,32.6,39s28.7-9.1,32.6-19.5C61.4,9.1,48.3,0,32.6,0z M32.6,33.5
	c-7.7,0-14-6.3-14-14c0-7.7,6.3-14,14-14c7.7,0,14,6.3,14,14C46.6,27.2,40.4,33.5,32.6,33.5z M32.6,10.6c-4.9,0-8.9,4-8.9,8.9
	c0,4.9,4,8.9,8.9,8.9s8.9-4,8.9-8.9C41.6,14.6,37.6,10.6,32.6,10.6z"/>
</svg>
