<?xml version="1.0" encoding="utf-8"?>
<!-- Generator: Adobe Illustrator 21.1.0, SVG Export Plug-In . SVG Version: 6.00 Build 0)  -->
<svg version="1.1"
	 id="Layer_1" xmlns:cc="http://creativecommons.org/ns#" xmlns:dc="http://purl.org/dc/elements/1.1/" xmlns:inkscape="http://www.inkscape.org/namespaces/inkscape" xmlns:rdf="http://www.w3.org/1999/02/22-rdf-syntax-ns#" xmlns:sodipodi="http://sodipodi.sourceforge.net/DTD/sodipodi-0.dtd" xmlns:svg="http://www.w3.org/2000/svg"
	 xmlns="http://www.w3.org/2000/svg" xmlns:xlink="http://www.w3.org/1999/xlink" x="0px" y="0px" viewBox="0 0 92 62"
	 style="enable-background:new 0 0 92 62;" xml:space="preserve">
<style type="text/css">
	.st0{fill:#005EB8;}
</style>
<g transform="translate(0,-952.36218)">
	<path class="st0" d="M36.7,952.4c-0.3,0-0.6,0.1-0.8,0.3l-35,23.2c-0.9,0.6-1.2,1.8-0.6,2.8c0.2,0.2,0.3,0.4,0.6,0.6l35,22.8
		c0.9,0.6,2.2,0.3,2.8-0.6c0.2-0.3,0.3-0.7,0.3-1.1v-10h2.8c11.8,0,33.4,2.2,46.5,23.1c0.6,0.9,1.8,1.2,2.8,0.6
		c0.6-0.4,0.9-1,0.9-1.7c0-18-7.6-30.4-17.9-37.9S50.8,964,39.7,964H39v-9.6c0-1.1-0.9-2-2-2C36.9,952.4,36.8,952.4,36.7,952.4z
		 M35,958.1v7.9c0,1.1,0.9,2,2,2h2.7c10.4,0,22.6,2.8,32,9.7c8.2,6,14.4,14.9,15.9,28.3c-14.2-17.3-34.6-19.5-45.8-19.5H37
		c-1.1,0-2,0.9-2,2v8.3L5.6,977.5L35,958.1z"/>
</g>
</svg>
