<?xml version="1.0" encoding="utf-8"?>
<!-- Generator: Adobe Illustrator 18.1.1, SVG Export Plug-In . SVG Version: 6.00 Build 0)  -->
<svg version="1.1" id="Layer_3" xmlns="http://www.w3.org/2000/svg" xmlns:xlink="http://www.w3.org/1999/xlink" x="0px" y="0px"
	 viewBox="0 0 20 20" enable-background="new 0 0 20 20" xml:space="preserve">
<polygon fill="#0085CA" points="3.5,12.4 1.6,18.8 8,17 15.1,9.8 14.2,8.8 7,16 3.4,17 4.6,13.2 11.5,6.2 10.7,5.4 "/>
<polygon fill="#0085CA" points="12.2,6.9 13.4,8.2 6.4,15.2 6.5,13.8 5.2,14 "/>
<path fill="#0085CA" d="M13.1,3.1l4.3,4.3l0.9-0.9c0,0,0.5-1.1,0-1.6s-2.6-2.6-2.6-2.6s-1-0.7-1.7,0C13.2,3,13.1,3.1,13.1,3.1z"/>
<polygon fill="#0085CA" points="11.4,4.7 12.4,3.7 16.8,8.1 15.8,9.2 "/>
<g>
</g>
<g>
</g>
<g>
</g>
<g>
</g>
<g>
</g>
<g>
</g>
<g>
</g>
<g>
</g>
<g>
</g>
<g>
</g>
<g>
</g>
<g>
</g>
<g>
</g>
<g>
</g>
<g>
</g>
</svg>
