<?xml version="1.0" encoding="utf-8"?>
<!-- Generator: Adobe Illustrator 21.1.0, SVG Export Plug-In . SVG Version: 6.00 Build 0)  -->
<svg version="1.1" id="Layer_1" xmlns="http://www.w3.org/2000/svg" xmlns:xlink="http://www.w3.org/1999/xlink" x="0px" y="0px"
	 viewBox="0 0 56.1 56.1" style="enable-background:new 0 0 56.1 56.1;" xml:space="preserve">
<style type="text/css">
	.st0{fill:#FFFFFF;}
</style>
<g>
	<path class="st0" d="M17.8,9.8c-0.5,0.3-0.9,0.9-0.9,1.5v33.4c0,0.6,0.3,1.2,0.9,1.5c0.3,0.1,0.5,0.2,0.8,0.2
		c0.3,0,0.6-0.1,0.9-0.3L46,29.5c0.5-0.3,0.8-0.9,0.8-1.4c0-0.6-0.3-1.1-0.8-1.4L19.5,9.9C19,9.6,18.4,9.5,17.8,9.8z M20.3,14.4
		L41.9,28L20.3,41.7V14.4z"/>
	<path class="st0" d="M28,0C12.6,0,0,12.6,0,28c0,15.5,12.6,28,28,28c15.5,0,28-12.6,28-28C56.1,12.6,43.5,0,28,0z M28,52.7
		C14.5,52.7,3.4,41.6,3.4,28S14.5,3.4,28,3.4c13.6,0,24.6,11.1,24.6,24.6S41.6,52.7,28,52.7z"/>
</g>
</svg>
