<?xml version="1.0" encoding="utf-8"?>
<!-- Generator: Adobe Illustrator 21.1.0, SVG Export Plug-In . SVG Version: 6.00 Build 0)  -->
<svg version="1.1" id="Layer_1" xmlns="http://www.w3.org/2000/svg" xmlns:xlink="http://www.w3.org/1999/xlink" x="0px" y="0px"
	 viewBox="0 0 18.5 18.5" style="enable-background:new 0 0 18.5 18.5;" xml:space="preserve">
<style type="text/css">
	.st0{fill:#FFFFFF;}
</style>
<path class="st0" d="M9.3,0C4.2,0,0,4.2,0,9.3s4.2,9.3,9.3,9.3s9.3-4.1,9.3-9.3S14.4,0,9.3,0z M7.1,0.9C6.2,1.7,5.4,3,5,4.6
	C3.7,4.2,3,3.7,2.8,3.5C3.9,2.3,5.4,1.3,7.1,0.9z M2.4,4c0.3,0.2,1.1,0.8,2.4,1.2C4.5,6.4,4.3,7.6,4.3,8.9H0.6
	C0.7,7.1,1.3,5.4,2.4,4z M2.4,14.5c-1.1-1.4-1.7-3.1-1.8-4.9h3.7c0,1.3,0.2,2.6,0.5,3.7C3.5,13.7,2.7,14.3,2.4,14.5z M2.8,15
	c0.3-0.2,1-0.7,2.2-1.1c0.5,1.6,1.2,2.9,2.1,3.7C5.4,17.2,3.9,16.2,2.8,15z M8.9,17.9c-1.4-0.2-2.7-1.8-3.4-4.2
	c0.9-0.3,2-0.4,3.4-0.5C8.9,13.2,8.9,17.9,8.9,17.9z M8.9,12.6c-1.4,0-2.6,0.2-3.6,0.5C5.1,12,5,10.8,4.9,9.6h4V12.6z M8.9,8.9h-4
	c0-1.3,0.2-2.4,0.4-3.5c1,0.3,2.1,0.5,3.6,0.5L8.9,8.9L8.9,8.9z M8.9,5.3c-1.4,0-2.5-0.2-3.4-0.5c0.7-2.4,2-4,3.4-4.2
	C8.9,0.6,8.9,5.3,8.9,5.3z M16.1,4c1,1.4,1.7,3.1,1.8,4.9h-3.7c0-1.3-0.2-2.6-0.5-3.7C15,4.8,15.8,4.2,16.1,4z M15.7,3.6
	c-0.3,0.2-1,0.7-2.2,1.1c-0.5-1.6-1.2-3-2.2-3.8C13.1,1.3,14.6,2.3,15.7,3.6z M9.6,0.6C11,0.8,12.3,2.5,13,4.8
	c-0.9,0.3-2,0.4-3.4,0.5V0.6z M9.6,5.9c1.4,0,2.6-0.2,3.6-0.5c0.3,1.1,0.4,2.3,0.4,3.5h-4C9.6,8.9,9.6,5.9,9.6,5.9z M9.6,9.6h4
	c0,1.3-0.2,2.5-0.5,3.5c-1-0.3-2.1-0.5-3.6-0.5C9.6,12.6,9.6,9.6,9.6,9.6z M9.6,17.9v-4.6c1.4,0,2.5,0.2,3.4,0.5
	C12.2,16,11,17.7,9.6,17.9z M11.4,17.6c0.9-0.8,1.7-2.1,2.1-3.7c1.2,0.4,1.9,0.9,2.2,1.1C14.6,16.2,13.1,17.2,11.4,17.6z M16.1,14.5
	c-0.3-0.2-1.1-0.8-2.4-1.2c0.3-1.1,0.5-2.4,0.5-3.7h3.7C17.8,11.4,17.2,13.1,16.1,14.5z"/>
</svg>
