<svg xmlns="http://www.w3.org/2000/svg" viewBox="0 0 279.36386 121.00911"><defs><style>.a{fill:#314fa2;}</style></defs><title>Unilever-Foundry-01@1x</title><path class="a" d="M141.5 19.8v19.8h-2.34V19.8h-6.33v-2.07h15v2.08h-6.34m25.1 19.8v-10h-10.3v10h-2.4V17.7h2.3v9.8h10.3v-9.8h2.4v21.9h-2.35m8.15 0V17.7h13.6v2.1h-11.2v7.7h9.6v2.1h-9.6v7.88h11.25v2.1h-13.6m-32.4 31.6c-4.45 0-7.64-3.04-7.64-7.4V49.13h2.4V63.6c0 3.32 2.1 5.5 5.3 5.5 3.18 0 5.3-2.18 5.3-5.5V49.13h2.3v14.65c0 4.36-3.2 7.4-7.62 7.4m28.3-.18l-11.6-17.54V71h-2.34V49.13h2.2L170.6 66.6V49.18h2.34V71h-2.22m9.3-21.87h2.35V71h-2.33zM189.5 71V49.13h2.34V68.9h11.18V71H189.5m18.38 0V49.13h13.57v2.1h-11.23v7.7h9.57v2.1h-9.6v7.88h11.2V71h-13.6m26.6 0h-1.9l-7.2-21.87h2.5l5.6 17.7 5.67-17.7h2.47l-7 21.87m11.35 0V49.13h13.6v2.1h-11.2v7.7h9.57v2.1h-9.56v7.88h11.23V71h-13.6m30.5 0l-5-9.7h-5.2V71h-2.32V49.13h8.4c3.8 0 6.5 2.3 6.5 6.08a5.67 5.67 0 0 1-4.75 5.9l5.2 9.9zM272 51.22h-5.85v8H272c2.54 0 4.35-1.3 4.35-3.97 0-2.68-1.8-4.03-4.36-4.03m-133.1 33.1v5.6h8.9v3.94h-9v9.2h-4.48v-22.7h14.95v3.97h-10.5m28.3 16.44a8.2 8.2 0 0 1-6.1 2.48 8.3 8.3 0 0 1-6.16-2.48c-2.3-2.3-2.2-5.14-2.2-9.06 0-3.9-.07-6.7 2.23-9a8.3 8.3 0 0 1 6.16-2.5 8.2 8.2 0 0 1 6.1 2.5c2.3 2.3 2.3 5.2 2.3 9.1 0 4 0 6.8-2.3 9.1m-3.26-15.4a3.7 3.7 0 0 0-2.87-1.2 3.76 3.76 0 0 0-2.85 1.2c-.87.96-1.1 2-1.1 6.38s.23 5.44 1.1 6.4A3.7 3.7 0 0 0 161 99.5a3.65 3.65 0 0 0 2.84-1.23c.84-.93 1.1-2 1.1-6.35s-.26-5.4-1.1-6.35m18.9 17.87c-4.67 0-8.37-3.14-8.37-7.96v-15h4.45V95.2c0 2.6 1.54 4.17 3.93 4.17 2.4 0 3.94-1.56 3.94-4.18V80.4h4.4v14.9c0 4.82-3.7 7.97-8.37 7.97m27.5-.2l-9-13.92v13.93h-4.44v-22.7h3.95l9 13.9v-13.9h4.43v22.7h-3.98m24.24-2.16a8.28 8.28 0 0 1-6 2.16h-8.2v-22.7h8.2a8.27 8.27 0 0 1 6 2.16c2.54 2.56 2.3 5.68 2.3 9.1 0 3.4.24 6.72-2.3 9.28m-3.1-15.2a3.97 3.97 0 0 0-3.3-1.38h-3.37V99.1h3.35a3.96 3.96 0 0 0 3.35-1.4c.8-1 .98-2.64.98-6.1 0-3.43-.13-4.87-.95-5.9m22.78 17.36L249.7 94h-3.2v9.06h-4.4v-22.7h8.9c4.6 0 7.36 3.16 7.36 6.95a6.1 6.1 0 0 1-4.16 6l5.1 9.8zm-3.44-18.74h-4.15v6h4.16a3 3 0 1 0 0-6m21.73 9.43v9.3h-4.4v-9.3l-6.8-13.4h4.8l4.23 9.16 4.2-9.1h4.8l-6.8 13.4M28 107.7a13.25 13.25 0 0 1-8.86-3.26l-16-15.26a11.3 11.3 0 0 1-2.12-12.53L38.07 4.28A7.75 7.75 0 0 1 44.97 0a7.93 7.93 0 0 1 4.07 1.14L84.4 22.3a26.42 26.42 0 0 1 9.2 10.56l15.1 35.64a8 8 0 0 1-4.5 10.63L32 106.95a11.15 11.15 0 0 1-4.02.7m17-105a5.1 5.1 0 0 0-4.55 2.84L3.4 77.8A8.58 8.58 0 0 0 5 87.2l15.95 15.2a10.66 10.66 0 0 0 7.03 2.54 8.6 8.6 0 0 0 3.06-.54l72.2-27.82a5.34 5.34 0 0 0 3.02-7.1L91.14 33.9a23.73 23.73 0 0 0-8.1-9.32L47.66 3.42a5.25 5.25 0 0 0-2.7-.76"/><path class="a" d="M63.5 117.92a8 8 0 0 1-6.28-3.05L9.1 54.27a13.2 13.2 0 0 1-1.4-13.05l9.74-19.77a11.36 11.36 0 0 1 9.8-5.9 9.2 9.2 0 0 1 1.52.13l80.12 13.7a7.74 7.74 0 0 1 6.28 9.53L105.54 79a26.4 26.4 0 0 1-7.34 11.9L68.73 116a8.05 8.05 0 0 1-5.2 1.92m-36.3-99.7a8.7 8.7 0 0 0-7.4 4.4L10.1 42.4a10.65 10.65 0 0 0 1.1 10.23l48.1 60.57a5.34 5.34 0 0 0 4.2 2.06 5.4 5.4 0 0 0 3.5-1.3l29.5-25.08a23.68 23.68 0 0 0 6.45-10.52l9.63-40.07a5.08 5.08 0 0 0-4.15-6.3L28.3 18.3a6.5 6.5 0 0 0-1.07-.1"/><path class="a" d="M94.52 120.97a9.85 9.85 0 0 1-3.87-.75l-74.78-31.9a7.74 7.74 0 0 1-3.9-10.7L30.6 40.85a26.4 26.4 0 0 1 9.9-9.9L75 13.37a8 8 0 0 1 10.93 3.76l32.8 70.08a13.2 13.2 0 0 1-1.68 13.1L103 117.2a11.18 11.18 0 0 1-8.48 3.75M78.67 15.17a5.35 5.35 0 0 0-2.46.58L41.7 33.32a23.72 23.72 0 0 0-8.7 8.74L14.34 78.82a5.08 5.08 0 0 0 2.57 7.07l74.8 31.8a7.28 7.28 0 0 0 2.9.5 8.58 8.58 0 0 0 6.4-2.8l14-16.98a10.65 10.65 0 0 0 1.3-10.2L83.5 18.2a5.3 5.3 0 0 0-4.8-3.1"/></svg>