<svg id="Layer_3" data-name="Layer 3" xmlns="http://www.w3.org/2000/svg" viewBox="0 0 84.59 84.59"><defs><style>.cls-1{fill:none;stroke:#ef4334;stroke-linecap:round;stroke-linejoin:round;stroke-width:1.5px;}.cls-2{fill:#ef4234;}</style></defs><title>GooglePlus</title><path class="cls-1" d="M71.7,13.07A40,40,0,0,0,42.33.89,40,40,0,0,0,13,13.07,40,40,0,0,0,.79,42.44,40,40,0,0,0,13,71.81,40,40,0,0,0,42.33,84a40.74,40.74,0,0,0,17.37-3.67,41.71,41.71,0,0,0,12-8.51A40,40,0,0,0,83.88,42.44,40,40,0,0,0,71.7,13.07h0Z" transform="translate(-0.04 -0.14)"/><g id="Layer_2" data-name="Layer 2"><g id="Google_" data-name="Google+"><path class="cls-2" d="M32.64,38.77v6.76h9.21c-1.44,4.38-3.69,6.77-9.21,6.77a10.14,10.14,0,0,1,0-20.27,9.64,9.64,0,0,1,6.61,2.49c1.4-1.4,1.28-1.6,4.85-5A17,17,0,1,0,32.64,59.21c14.06,0,17.5-12.26,16.36-20.44H32.64Z" transform="translate(-0.04 -0.14)"/><polygon class="cls-2" points="63.29 38.96 63.29 33.05 59.07 33.05 59.07 38.96 53 38.96 53 43.19 59.07 43.19 59.07 49.27 63.29 49.27 63.29 43.19 69.19 43.19 69.19 38.96 63.29 38.96"/></g></g></svg>