<svg id="Layer_3" data-name="Layer 3" xmlns="http://www.w3.org/2000/svg" viewBox="0 0 84.59 84.59"><defs><style>.cls-1{fill:none;stroke:#1a7fb9;stroke-linecap:round;stroke-linejoin:round;stroke-width:1.5px;}.cls-2{fill:#1a7fb9;}</style></defs><title>Linkedin</title><path class="cls-1" d="M71.7,13.07A40,40,0,0,0,42.33.89,40,40,0,0,0,13,13.07,40,40,0,0,0,.79,42.44,40,40,0,0,0,13,71.81,40,40,0,0,0,42.33,84a40.74,40.74,0,0,0,17.37-3.67,41.71,41.71,0,0,0,12-8.51A40,40,0,0,0,83.88,42.44,40,40,0,0,0,71.7,13.07h0Z" transform="translate(-0.04 -0.14)"/><g id="LinkedIn"><rect class="cls-2" x="24.78" y="36.28" width="7.19" height="22.78"/><path class="cls-2" d="M51.65,36.21c-4.12,0-6.7,2.23-7.18,3.79V36.43H36.4c0.1,1.9,0,22.78,0,22.78h8.08V46.88A5.19,5.19,0,0,1,44.65,45a4.11,4.11,0,0,1,3.89-2.79c2.8,0,4.08,2.11,4.08,5.19V59.21h8.15V46.54C60.78,39.48,56.76,36.21,51.65,36.21Z" transform="translate(-0.04 -0.14)"/><path class="cls-2" d="M28.28,25.67c-2.65,0-4.39,1.71-4.39,4a4,4,0,0,0,4.29,3.95h0.05c2.7,0,4.39-1.75,4.39-4A4,4,0,0,0,28.28,25.67Z" transform="translate(-0.04 -0.14)"/></g></svg>