<?xml version="1.0" encoding="utf-8"?>
<!-- Generator: Adobe Illustrator 18.1.1, SVG Export Plug-In . SVG Version: 6.00 Build 0)  -->
<!DOCTYPE svg PUBLIC "-//W3C//DTD SVG 1.1//EN" "http://www.w3.org/Graphics/SVG/1.1/DTD/svg11.dtd">
<svg version="1.1" id="Layer_1" xmlns="http://www.w3.org/2000/svg" xmlns:xlink="http://www.w3.org/1999/xlink" x="0px" y="0px"
	 viewBox="0 0 100 100" enable-background="new 0 0 100 100" xml:space="preserve">
<g>
	<g opacity="0.7">
		<rect y="2.2" fill="#1E449F" width="100" height="95.5"/>
	</g>
	<g>
		<path fill="#FFFFFF" d="M96.2,6V94H3.8V6H96.2 M100,2.2H0v95.5h100V2.2L100,2.2z"/>
	</g>
	<g>
		<g>
			<path fill="#FFFFFF" d="M32.6,77.1L32.6,77.1c-1.9,0-3.8-0.7-4.9-1.8l-8.9-8.5c-1.8-1.7-2.3-4.8-1.2-7l20.7-40.4
				c0.8-1.5,2.2-2.4,3.9-2.4c0.8,0,1.6,0.2,2.3,0.6l19.7,11.8c2,1.2,4.2,3.8,5.1,5.9l8.4,19.9c0.5,1.1,0.5,2.4,0,3.5
				c-0.5,1.1-1.4,2-2.5,2.4L34.8,76.7C34.1,77,33.4,77.1,32.6,77.1z M42.1,18.5c-1.1,0-2,0.6-2.5,1.6L18.9,60.5
				c-0.8,1.6-0.4,4,0.9,5.3l8.9,8.5c0.9,0.9,2.4,1.4,3.9,1.4c0.6,0,1.2-0.1,1.7-0.3l40.3-15.5c0.8-0.3,1.4-0.9,1.7-1.6
				c0.3-0.8,0.3-1.6,0-2.3L67.9,36c-0.8-1.8-2.8-4.2-4.5-5.2L43.6,18.9C43.1,18.6,42.6,18.5,42.1,18.5z"/>
		</g>
		<g>
			<path fill="#FFFFFF" d="M52.4,82.8L52.4,82.8c-1.4,0-2.7-0.6-3.5-1.7L22,47.3c-1.5-1.9-1.8-5.1-0.8-7.3l5.4-11
				c0.9-1.9,3.2-3.3,5.5-3.3c0.3,0,0.6,0,0.9,0.1l44.7,7.7c1.2,0.2,2.3,0.9,2.9,1.9s0.9,2.2,0.6,3.4l-5.4,22.4
				c-0.5,2.2-2.4,5.2-4.1,6.6l-16.5,14C54.5,82.5,53.5,82.8,52.4,82.8z M32.2,27.2c-1.6,0-3.4,1.1-4.1,2.5l-5.4,11
				c-0.8,1.6-0.5,4.3,0.6,5.7l26.9,33.8c0.6,0.7,1.4,1.1,2.3,1.1c0.7,0,1.4-0.3,2-0.7l16.5-14c1.5-1.3,3.2-4,3.6-5.9l5.4-22.4
				c0.2-0.8,0.1-1.6-0.4-2.3c-0.4-0.7-1.1-1.1-1.9-1.2l-44.7-7.7C32.6,27.2,32.3,27.2,32.2,27.2z"/>
		</g>
		<g>
			<path fill="#FFFFFF" d="M69.7,84.6L69.7,84.6c-0.8,0-1.5-0.1-2.2-0.4L25.8,66.3c-1.1-0.5-2-1.4-2.4-2.5c-0.4-1.1-0.3-2.4,0.2-3.5
				l10.4-20.5c1-2,3.5-4.5,5.5-5.5l19.3-9.8c0.6-0.3,1.3-0.5,2-0.5c1.7,0,3.3,1,4.1,2.6l18.3,39.1c1,2.2,0.6,5.4-0.9,7.3l-7.8,9.5
				C73.4,83.8,71.6,84.6,69.7,84.6z M60.9,25.5c-0.5,0-0.9,0.1-1.4,0.3l-19.3,9.8c-1.8,0.9-4,3.1-4.9,4.9L24.9,61
				c-0.4,0.7-0.4,1.5-0.2,2.3c0.3,0.8,0.8,1.3,1.6,1.6l41.8,17.8c0.5,0.2,1,0.3,1.6,0.3c1.4,0,2.8-0.6,3.6-1.6l7.8-9.5
				c1.2-1.4,1.5-4,0.7-5.7L63.6,27.2C63.1,26.1,62,25.5,60.9,25.5z"/>
		</g>
	</g>
	<g>
		<path fill="#FFFFFF" d="M37.6,42.7v3.9h-0.5v-3.9h-1.3v-0.4h3v0.4H37.6z"/>
		<path fill="#FFFFFF" d="M42.6,46.6v-2h-2v2h-0.5v-4.3h0.5v1.9h2v-1.9h0.5v4.3H42.6z"/>
		<path fill="#FFFFFF" d="M44.2,46.6v-4.3h2.7v0.4h-2.2v1.5h1.9v0.4h-1.9v1.6h2.2v0.4L44.2,46.6L44.2,46.6z"/>
		<path fill="#FFFFFF" d="M37.8,52.9c-0.9,0-1.5-0.6-1.5-1.5v-2.9h0.5v2.8c0,0.6,0.4,1.1,1,1.1c0.6,0,1.1-0.4,1.1-1.1v-2.8h0.5v2.9
			C39.3,52.3,38.7,52.9,37.8,52.9z"/>
		<path fill="#FFFFFF" d="M43.4,52.8l-2.3-3.5v3.5h-0.5v-4.3h0.4l2.3,3.5v-3.5h0.5v4.3H43.4z"/>
		<path fill="#FFFFFF" d="M45.3,52.8v-4.3h0.5v4.3H45.3z"/>
		<path fill="#FFFFFF" d="M47.1,52.8v-4.3h0.5v3.9h2.2v0.4H47.1z"/>
		<path fill="#FFFFFF" d="M50.7,52.8v-4.3h2.7v0.4h-2.2v1.5h1.9v0.4h-1.9v1.6h2.2v0.4L50.7,52.8L50.7,52.8z"/>
		<path fill="#FFFFFF" d="M56,52.8h-0.4l-1.4-4.3h0.5l1.1,3.5l1.1-3.5h0.5L56,52.8z"/>
		<path fill="#FFFFFF" d="M58.2,52.8v-4.3h2.7v0.4h-2.2v1.5h1.9v0.4h-1.9v1.6h2.2v0.4L58.2,52.8L58.2,52.8z"/>
		<path fill="#FFFFFF" d="M64.3,52.8l-1-1.9h-1v1.9h-0.5v-4.3h1.6c0.8,0,1.3,0.4,1.3,1.2c0,0.6-0.4,1-0.9,1.2l1,2H64.3z M63.4,48.9
			h-1.1v1.6h1.1c0.5,0,0.9-0.3,0.9-0.8C64.3,49.2,63.9,48.9,63.4,48.9z"/>
		<path fill="#FFFFFF" d="M37.1,55.5v1.1h1.8v0.8h-1.8v1.8h-0.9v-4.5h3v0.8L37.1,55.5L37.1,55.5z"/>
		<path fill="#FFFFFF" d="M42.7,58.7c-0.3,0.3-0.7,0.5-1.2,0.5c-0.5,0-0.9-0.2-1.2-0.5c-0.4-0.4-0.4-1-0.4-1.8c0-0.8,0-1.3,0.4-1.8
			c0.3-0.3,0.7-0.5,1.2-0.5c0.5,0,0.9,0.2,1.2,0.5c0.4,0.4,0.4,1,0.4,1.8C43.1,57.7,43.2,58.3,42.7,58.7z M42,55.7
			c-0.1-0.1-0.3-0.3-0.6-0.3c-0.3,0-0.4,0.1-0.6,0.3c-0.2,0.2-0.2,0.4-0.2,1.3c0,0.9,0.1,1.1,0.2,1.3c0.1,0.1,0.3,0.3,0.6,0.3
			c0.3,0,0.4-0.1,0.6-0.3c0.2-0.2,0.2-0.4,0.2-1.3C42.3,56.1,42.2,55.9,42,55.7z"/>
		<path fill="#FFFFFF" d="M45.8,59.2c-0.9,0-1.6-0.6-1.6-1.6v-3H45v2.9c0,0.5,0.3,0.8,0.8,0.8s0.8-0.3,0.8-0.8v-2.9h0.9v3
			C47.4,58.6,46.7,59.2,45.8,59.2z"/>
		<path fill="#FFFFFF" d="M51.2,59.2l-1.8-2.8v2.8h-0.9v-4.5h0.8l1.8,2.7v-2.7H52v4.5H51.2z"/>
		<path fill="#FFFFFF" d="M56,58.8c-0.3,0.3-0.7,0.4-1.2,0.4h-1.6v-4.5h1.6c0.5,0,0.9,0.1,1.2,0.4c0.5,0.5,0.4,1.1,0.4,1.8
			C56.5,57.6,56.5,58.3,56,58.8z M55.4,55.8c-0.1-0.2-0.4-0.3-0.6-0.3h-0.7v2.9h0.7c0.3,0,0.5-0.1,0.6-0.3c0.2-0.2,0.2-0.5,0.2-1.2
			C55.6,56.3,55.6,56,55.4,55.8z"/>
		<path fill="#FFFFFF" d="M59.9,59.2L59,57.4h-0.6v1.8h-0.9v-4.5h1.8c0.9,0,1.5,0.6,1.5,1.4c0,0.6-0.4,1-0.8,1.2l1,1.9L59.9,59.2
			L59.9,59.2z M59.2,55.5h-0.8v1.2h0.8c0.4,0,0.6-0.3,0.6-0.6C59.9,55.8,59.6,55.5,59.2,55.5z"/>
		<path fill="#FFFFFF" d="M63.5,57.4v1.8h-0.9v-1.8l-1.3-2.7h0.9l0.8,1.8l0.8-1.8h0.9L63.5,57.4z"/>
	</g>
</g>
</svg>
