<svg xmlns="http://www.w3.org/2000/svg" viewBox="0 0 24.4784 26.64181"><defs><style>.a{fill:#1e449f;}</style></defs><title>Unilever-Logo-Blue</title><path class="a" d="M3.34316,23.56521a3.982,3.982,0,0,1-.18953-.61189.718.718,0,0,1,.40551-.84189c.25124-.06943.35262.05641.44959.34717a6.00822,6.00822,0,0,1,.097,1.84869c-.0573,1.13264-.6303,2.50831-2.06722,2.47793-1.22975-.026-1.78512-.81151-1.84242-2.01793A5.52682,5.52682,0,0,1,.4473,22.83615c.13664-.434.24683-.59019.63912-.6683.30854-.05641.28209.26038.21157.64226a7.1636,7.1636,0,0,0-.16749,2.16114c.05289,1.00246.52011,1.38868,1.02259,1.38868.75372.013,1.09311-.60755,1.22975-1.5102a2.51568,2.51568,0,0,0-.03967-1.28453M19.5099,24.546c-.53186,0-.48852.85057-.40477,1.06755a.92685.92685,0,0,0,.714-.51642c.07053-.2083-.01322-.55113-.30927-.55113m-5.48613.46868c0-.23434-.12856-.42962-.28283-.42962-.12782,0-.41873.13887-.41873.58151a.86426.86426,0,0,0,.18145.58585.72745.72745,0,0,0,.52011-.73774M9.65941,22.19389a.59685.59685,0,0,1-.51129.6683.41527.41527,0,0,1-.42314-.42095.55563.55563,0,0,1,.49366-.62057.41525.41525,0,0,1,.44077.37321m2.27438.81585c-.022-.39057-.119-.56415-.32617-.55113-.28209.01736-.40992.88529-.35262,1.79661.03526.59019.12782.68132.20716.677a3.02439,3.02439,0,0,0,.47162-1.92246m9.3223,1.45378c.03085-.12585.14178-.38623.36143-.38623.25124,0,.141,1.56661.48925,1.56661.21231,0,.49366-1.95284,1.816-1.95284.44958,0,.7449.24736.7449.56415a.40816.40816,0,0,1-.40992.41227c-.51129,0-.37466-.36887-.595-.36887-.55978,0-.96529,1.05815-1.384,1.99189-.1719.37321-.26887.44264-.40992.44264-.34821,0-.432-.95472-.573-1.37639a2.07451,2.07451,0,0,1-1.78586,1.37639.99563.99563,0,0,1-1.06152-1.11963,1.475,1.475,0,0,1,1.24224-1.61868.86237.86237,0,0,1,.7978.82453c0,.933-1.22975.95906-1.22975,1.15434,0,.17792.3225.24736.50321.24736.78457,0,1.31791-1.05019,1.49421-1.75755M10.02084,26.1256a.98587.98587,0,0,0,.85509-.51642,5.24733,5.24733,0,0,1-.29532-1.34095c-.08375-1.33661.44077-2.60378,1.01377-2.6385.41873-.026.76253.36887.8022,1.00246a4.82958,4.82958,0,0,1-.74931,2.97265.99444.99444,0,0,0,.83306.62925.57656.57656,0,0,0,.35262-.12151,1.2865,1.2865,0,0,1-.0573-.39925c0-.97642.6303-1.78793,1.17686-1.78793.432,0,.68319.56415.68319.93736,0,.4383-.37906.80717-.93884,1.15a.67164.67164,0,0,0,.43636.16925c.79779,0,1.22534-.9634,1.53388-1.83133.0573-.16491.15427-.39925.34747-.39925.33572,0,.47677,2.18718,1.03655,2.18718.24242,0,.43563-.4817.43563-.86359,0-.2734-.09623-.30377-.09623-.703,0-.4383.238-.81151.55978-.81151.20275,0,.27254.19094.27254.42528,0,.88095-.65161,2.53-1.60367,2.53-.714,0-.65675-1.21944-.91166-1.21944-.27842,0-.67952,1.2368-2.06354,1.2368a.89209.89209,0,0,1-.65675-.33415,1.64042,1.64042,0,0,1-.94766.31679c-.52011,0-.7449-.52076-.95207-.52076-.25124,0-.53333.53812-1.3752.53812-.67879,0-.789-.88529-1.027-.88529-.21157,0-.53333.88529-.88154.88529-.59063,0-.714-1.54057-1.23416-1.54057-.41432,0-1.697,1.56227-2.04518,1.52755-.141-.013-.19835-.11717-.18512-.256.022-.19094.18953-.69868.25565-.95038.1146-.42095.216-.88095.27328-1.02416a.37384.37384,0,0,1,.33939-.243c.06171.00434.08375.12151.10138.217.07052.33849.1719.68566.28209.68566.19394,0,.85069-1.22378,1.22975-1.22378.46281,0,.52011,1.93548,1.15041,1.93548.20716,0,.36143-.24736.50248-.55981.01322-.50774.15427-1.23679.573-1.23679.30413,0,.44518.6466.23361,1.21076,0,.68566.44959.85057.7405.85057" transform="translate(-0.18926 -0.14391)"/><polygon class="a" points="9.865 0.755 9.937 0.766 9.995 0.793 10.033 0.835 10.057 0.91 10.067 1.017 10.062 1.124 10.052 1.221 10.028 1.306 10 1.371 9.961 1.408 9.904 1.424 9.822 1.413 9.722 1.376 9.611 1.328 9.501 1.264 9.405 1.194 9.309 1.124 9.237 1.049 9.194 0.98 9.175 0.926 9.189 0.894 9.237 0.857 9.319 0.825 9.424 0.793 9.53 0.771 9.65 0.76 9.77 0.755 9.865 0.755"/><polygon class="a" points="5.305 0.061 5.42 0.07 5.517 0.096 5.592 0.135 5.653 0.178 5.702 0.234 5.75 0.286 5.799 0.343 5.847 0.391 5.913 0.434 5.988 0.46 6.084 0.469 6.182 0.46 6.257 0.434 6.323 0.391 6.38 0.347 6.429 0.295 6.477 0.239 6.535 0.187 6.596 0.148 6.671 0.109 6.768 0.083 6.883 0.074 7.028 0.078 7.156 0.087 7.253 0.1 7.333 0.117 7.381 0.135 7.394 0.148 7.385 0.169 7.355 0.195 7.311 0.217 7.253 0.239 7.192 0.269 7.13 0.308 7.081 0.347 7.046 0.404 7.033 0.477 7.046 0.543 7.095 0.608 7.156 0.664 7.236 0.72 7.324 0.781 7.412 0.833 7.5 0.885 7.579 0.933 7.641 0.981 7.681 1.029 7.694 1.072 7.681 1.102 7.659 1.12 7.619 1.124 7.535 1.115 7.43 1.089 7.319 1.059 7.2 1.033 7.09 1.024 7.002 1.033 6.931 1.072 6.887 1.133 6.87 1.22 6.883 1.315 6.914 1.419 6.958 1.523 7.002 1.632 7.046 1.732 7.077 1.823 7.09 1.892 7.081 1.931 7.055 1.953 7.024 1.966 6.976 1.949 6.923 1.91 6.865 1.849 6.808 1.771 6.746 1.688 6.685 1.606 6.619 1.528 6.548 1.467 6.473 1.419 6.389 1.402 6.319 1.415 6.257 1.458 6.209 1.515 6.173 1.593 6.147 1.68 6.125 1.771 6.103 1.862 6.084 1.953 6.063 2.04 6.041 2.113 6.015 2.166 5.979 2.2 5.94 2.213 5.904 2.2 5.882 2.17 5.865 2.109 5.856 2.04 5.852 1.953 5.847 1.862 5.843 1.766 5.83 1.671 5.812 1.584 5.785 1.51 5.737 1.445 5.671 1.402 5.587 1.389 5.495 1.406 5.402 1.445 5.309 1.51 5.226 1.58 5.146 1.649 5.071 1.71 5.005 1.745 4.952 1.762 4.921 1.758 4.9 1.74 4.891 1.714 4.904 1.666 4.939 1.601 4.988 1.532 5.054 1.45 5.115 1.367 5.182 1.285 5.239 1.202 5.274 1.128 5.287 1.059 5.279 1.007 5.243 0.968 5.195 0.942 5.138 0.933 5.076 0.929 4.957 0.937 4.829 0.955 4.697 0.976 4.578 0.994 4.468 1.003 4.406 0.994 4.362 0.972 4.349 0.942 4.362 0.911 4.41 0.877 4.476 0.842 4.565 0.803 4.661 0.768 4.767 0.729 4.864 0.69 4.957 0.642 5.027 0.586 5.08 0.525 5.098 0.456 5.085 0.382 5.049 0.326 5.001 0.286 4.944 0.252 4.882 0.23 4.829 0.213 4.78 0.195 4.754 0.182 4.745 0.165 4.758 0.148 4.798 0.126 4.869 0.104 4.957 0.087 5.063 0.074 5.182 0.065 5.305 0.061"/><polygon class="a" points="3.017 1.857 3.079 1.868 3.131 1.884 3.164 1.911 3.173 1.938 3.159 1.991 3.126 2.061 3.065 2.146 2.984 2.243 2.895 2.339 2.8 2.436 2.701 2.526 2.602 2.596 2.517 2.66 2.432 2.698 2.371 2.715 2.328 2.698 2.305 2.655 2.286 2.586 2.281 2.511 2.291 2.399 2.309 2.28 2.347 2.168 2.39 2.077 2.437 2.008 2.508 1.954 2.607 1.911 2.72 1.88 2.833 1.857 3.017 1.857"/><path class="a" d="M20.7885,1.46337v.01736l-.01322.19094-.04408.17793-.07052.16491-.09256.15189-.12342.14321-.14913.12585-.1719.10849-.20349.09113-.22406.07377-.25124.05208.00367.026.274.00868L19.965,2.787l.22038-.026.18953-.0434.16676-.05642.14546-.06943.12856-.07811.10138-.08679.0786-.09113.06685-.09981.03894-.09547.02645-.09981.00955-.09981-.01322-.13019-.0404-.11283L21.014,1.5979l-.09256-.08245-.133-.05208ZM20.94792.4045l-.08007.013-.06538.0434L20.75765.526l-.01249.07377V.60412l.01249.07377.04481.06075.06538.0434.08007.013.07861-.013.06612-.0434L21.13745.6779l.01249-.07811L21.13745.526,21.09264.46092l-.06612-.0434-.07861-.013ZM18.40834,2.17941l.03967.013.04481.03472.061.05642.07126.06943.0786.06943.09256.07377.11093.05642.119.03906.13664.013.04848-.00434.06171-.00868.06538-.01736.06612-.03038.0573-.05208.05363-.06943.03085-.08679.01249-.11717V2.21413l-.0169-.09981L19.497,2.02318l-.0742-.08245L19.3347,1.8713l-.11093-.06943-.119-.05642-.12268-.05208L18.85866,1.65l-.12415-.0434-.119-.03472-.10578-.03038-.08815-.03038-.06979-.026-.03967-.0217-.00955-.013.00955-.01736.03967-.026.07493-.03038.09183-.03472.11093-.03038.119-.026.12709-.026.12782-.026L19.1268,1.216l.119-.013.13223-.00434L19.215,1.01639,19.06509.8862,18.91523.77771,18.75655.69092,18.61183.63016l-.141-.05208L18.343.54337,18.22836.513l-.097-.0217-.07052-.0217-.0404-.01736L18.01238.43488l.00808-.01736.04408-.0217.07934-.03038.10138-.026L18.36941.309,18.506.283l.14545-.0217.16235-.01736.16382-.013H19.295l.14472.013.13737.0217.12342.03472L19.81.34808l.08815.05208.06244.07377.04408.08679.01763.09981-.01322.09113L19.9819.85148,19.94663.96,19.907,1.0728l-.02571.13019-.014.13887.00882.08245.022.06943.04481.06509.05289.05208.07861.03038.10138.013.09256-.013.07126-.0434.0573-.06509.03526-.08245.022-.09113.01322-.10849.00367-.10849L20.46307.947,20.4447.78639,20.43662.66488,20.45425.526,20.502.4045l.07493-.09981L20.679.23525l.12782-.04774.141-.01736.08815.00434.07053.013.06612.01736.07052.0217.07493.01736.083.01736.10652.013.09183.00434-.07934.05642-.083.09547L21.388.53035l-.03012.08679L21.349.69526l.00882.09981.01763.09981.02571.09981.03159.10415.03012.11283.03159.13019.02571.13887.01837.16925.00808.19528-.01249.22132-.04481.19962-.07052.1866-.09256.16057-.10946.14755-.141.13019-.15868.11283-.1719.09547-.19835.08679-.20716.06943-.22479.05208-.23361.0434-.24683.03038-.26079.01736-.26373.00434-.573-.0217-.59063-.06509-.0404-.00868-.01249-.013L17.889,3.273l.00808-.01736.03526-.0217.04408-.026.06171-.03038.07126-.03906.07934-.04774.07052-.05642.06171-.06943.05216-.08679.03526-.09981.01322-.12151-.00367-.11283-.01763-.10415-.014-.09113-.0169-.06943-.00514-.05208.014-.03472Z" transform="translate(-0.18926 -0.14391)"/><path class="a" d="M16.19648.50843l-.18586.00868-.16676.03038-.13664.04774-.11534.05642-.08375.06943-.05289.07377L15.43836.873l.00881.05642.03012.03472.04408.026.04848.00868.04481.00434.0742-.00868.097-.01736.10211-.03038.097-.026.09256-.03038L16.148.873l.03894-.00868.0404.00434.02571.013L16.25819.899l-.014.0434-.02645.06075-.03893.06075-.03967.06943-.02718.06509-.01322.06075.022.03906.04848.026.06685.013.08742.013.0977.00434.10064.00434.10138.00434.097.00868.07934.013.06612.013.0404.0217.01249.0217-.01763.03472-.03967.03906-.06612.03472-.0786.03906-.0933.03906-.08742.03472-.07934.03472-.07567.03472-.04408.03472-.022.03472.014.03906.03894.05208.0573.05208.06612.06076.07052.06509.07052.06509.06685.06943.05657.06076.03159.05642.01249.04774-.00441.026-.0169.013-.03085.00868-.11019-.00868-.133-.0217-.141-.0217-.14031-.0217-.133-.00868-.0573.013-.022.05208.014.08245.03085.09547.03894.10415.03085.10415.014.08245-.00955.026-.00882.013-.022.00434-.04848-.00868-.07493-.03038-.08375-.03906-.09256-.0434-.09183-.04774-.09256-.03906-.07934-.03038-.07567-.00868-.06171.013-.04334.0434-.014.06509.01763.06075.04922.06509.0742.06509.10652.06943.12268.05642.14986.0434.1719.03038.18512.013.09256-.00434.10138-.013.10578-.026.11093-.03472.10505-.04774.11534-.06075.10505-.08245.097-.09547.08815-.10849.08375-.13453.06612-.14755.04922-.16925.03085-.19528.01249-.217L17.36893,1.615l-.03967-.22566-.06171-.19528-.08815-.17793L17.06847.86428,16.93624.73844,16.7783.63862,16.6064.56485l-.19835-.0434-.21157-.013ZM13.76269.31749l.04848.00868.06612.0217.07493.03472L14.036.426l.0933.04774.09183.04774L14.31.56991l.08375.04267.0786.03472.06612.0217.05289.00868.0404-.01736.03012-.0434.014-.05642L14.6839.49542l.00955-.06509V.33051l.00367-.08245L14.71476.1873l.02277-.03472.01763-.00868.03453.01736L14.83817.196l.058.06075.061.06075.06171.05642L15.085.4173l.06171.013.0977-.013.11387-.03472.13223-.04774.155-.04774.17117-.04774.18145-.03472.20643-.013.25565.013L16.699.24372,16.923.30447l.20716.08679.18953.10415.16749.13453.1506.15623.12342.17359.09624.19528.07493.217.04408.23.01763.256-.01249.24736-.04408.22566-.06685.2083-.09256.19528-.11019.16925-.13223.15189-.14913.13887-.16382.10849-.1719.09547-.18953.07811-.1932.05208L16.469,3.5592l-.20716.013-.20275-.013-.17631-.03472-.16235-.05208-.14619-.06075-.12709-.06509L15.337,3.2858l-.0977-.05208-.0742-.03472-.06244-.013-.04848.013-.03894.0434-.04481.05208-.04408.06509-.04334.06076-.0404.05208-.03893.03472-.03159.013h-.0169l-.01322-.00868-.00955-.026-.00808-.04774-.00955-.07811-.01249-.08679L14.6839,3.186l-.01763-.07811-.03012-.06943-.0404-.0434-.05216-.0217h-.00514l-.03967.013-.0573.03906-.06979.05642-.07567.06075-.0786.07377-.08448.06943-.0786.06076-.07126.05208-.06171.03472-.04408.013L13.85966,3.442l-.00441-.01736.01322-.05642.036-.08245.04775-.09981.0573-.10415.06171-.11283.058-.10849L14.177,2.765l.036-.08245.01249-.06943L14.213,2.56542l-.04922-.03472-.0573-.0217L14.036,2.496l-.07934-.00868-.0742-.00868L13.82073,2.47l-.058-.01736-.03453-.01736-.00882-.0217.0169-.0434.04481-.05208.06538-.05208.07934-.05642.08375-.05642.08007-.05642.06612-.06075.05216-.06943.01763-.06943L14.20787,1.832l-.04848-.05642L14.094,1.72787l-.08007-.03906-.0786-.03472-.07567-.03472L13.798,1.58466l-.03893-.0434-.01837-.03906.014-.0217.03967-.03472.0573-.03038.06979-.03906.07493-.03906.07493-.03906.06171-.0434.04408-.0434.01763-.05208L14.18142,1.103l-.03526-.06943L14.094.94674,14.02715.85561,13.95663.75579,13.89492.656,13.83321.56051,13.78106.47806l-.036-.07811L13.73257.34353l.00808-.0217.022-.00434Zm1.459,1.93548.03967.00868.06612.01736.07052.026.07052.026.06171.01736.05289.00868.03159-.03472-.014-.05208-.02645-.05642-.03894-.06943-.03967-.06075-.02718-.05208-.01322-.03038.00882-.013.03526-.013.058-.013.061-.00868.07493-.00868.07052-.013.0573-.013.04481-.0217.022-.03038-.02718-.03038L15.8086,1.806l-.06612-.026-.07567-.026-.0786-.026-.06685-.026-.04408-.0217-.01322-.01736.01322-.03472.03526-.05208.0404-.06075.04775-.06075.03526-.06075.01322-.03906L15.636,1.32429l-.02645-.00434-.06171.013-.07052.026-.07934.03038-.0786.026-.058.013-.02645-.013-.02645-.0434-.03085-.05642-.03085-.06943-.03085-.07377-.02645-.06075-.03085-.04774-.03085-.026-.03526.026L14.966,1.116l-.01763.06509-.01763.07377-.022.07377-.0213.06509-.022.0434-.02718.013-.11387-.00868L14.609,1.43278l-.10138-.00868-.03526.00434-.01322.026.01763.05208.04481.04774.05657.04774.06244.05208.05657.04774.03526.04774.01763.03038-.00808.01736-.03526.03472-.04922.04774-.05216.04774-.05363.04774-.04848.0434-.03893.03906-.01837.03472.022.03038.04848.00434.30927.00868.0213.00868.01837.013.00367.0217.014.2951.00882.05642.03893.026.03967-.026.03967-.0434.04408-.05642.04848-.06509.04408-.05642.04481-.03906Z" transform="translate(-0.18926 -0.14391)"/><polygon class="a" points="8.642 2.652 8.699 2.665 8.778 2.699 8.88 2.751 8.99 2.821 9.113 2.899 9.241 2.986 9.369 3.081 9.497 3.177 9.616 3.272 9.722 3.359 9.81 3.441 9.88 3.506 9.92 3.559 9.955 3.628 9.968 3.71 9.96 3.806 9.942 3.897 9.91 3.988 9.871 4.062 9.827 4.123 9.779 4.162 9.722 4.175 9.682 4.162 9.629 4.127 9.558 4.062 9.479 3.98 9.391 3.88 9.298 3.771 9.201 3.65 9.104 3.524 9.012 3.394 8.919 3.263 8.84 3.138 8.769 3.02 8.708 2.912 8.659 2.816 8.628 2.738 8.62 2.686 8.62 2.682 8.628 2.66 8.642 2.652"/><polygon class="a" points="19.141 3.753 19.233 3.773 19.357 3.788 19.466 3.788 19.639 3.768 19.797 3.717 19.956 3.656 20.106 3.591 20.247 3.54 20.371 3.52 20.449 3.535 20.503 3.565 20.537 3.621 20.56 3.677 20.568 3.743 20.551 3.839 20.512 3.93 20.445 4.021 20.361 4.108 20.265 4.178 20.15 4.244 20.036 4.3 19.917 4.351 19.801 4.381 19.701 4.407 19.608 4.412 19.542 4.412 19.476 4.401 19.405 4.371 19.344 4.32 19.291 4.234 19.264 4.153 19.242 4.057 19.225 3.966 19.203 3.869 19.167 3.783 19.141 3.753"/><polygon class="a" points="3.502 3.515 3.639 3.533 3.758 3.571 3.859 3.637 3.943 3.719 4.009 3.823 4.066 3.927 4.106 4.044 4.132 4.166 4.15 4.279 4.155 4.387 4.146 4.544 4.124 4.682 4.093 4.796 3.961 4.791 3.824 4.774 3.683 4.743 3.546 4.7 3.423 4.643 3.308 4.574 3.207 4.487 3.123 4.387 3.061 4.274 3.022 4.144 3.009 3.997 3.026 3.871 3.075 3.754 3.145 3.658 3.247 3.584 3.366 3.533 3.502 3.515"/><polygon class="a" points="3.039 0.009 3.15 0.018 3.273 0.026 3.405 0.035 3.538 0.052 3.674 0.074 3.802 0.096 3.921 0.122 4.031 0.152 4.124 0.187 4.19 0.222 4.23 0.265 4.247 0.304 4.23 0.36 4.194 0.417 4.128 0.473 4.044 0.534 3.952 0.59 3.85 0.651 3.753 0.712 3.661 0.773 3.577 0.833 3.511 0.894 3.467 0.955 3.449 1.02 3.467 1.081 3.515 1.129 3.59 1.159 3.679 1.185 3.789 1.202 3.903 1.215 4.018 1.224 4.137 1.237 4.252 1.25 4.353 1.263 4.441 1.285 4.507 1.311 4.547 1.341 4.565 1.38 4.547 1.445 4.503 1.519 4.441 1.606 4.357 1.697 4.265 1.792 4.163 1.888 4.062 1.983 3.969 2.075 3.886 2.157 3.819 2.235 3.771 2.305 3.753 2.361 3.771 2.391 3.802 2.413 3.837 2.417 3.917 2.404 4.009 2.37 4.115 2.322 4.23 2.266 4.349 2.2 4.468 2.144 4.578 2.096 4.684 2.062 4.763 2.049 4.816 2.062 4.842 2.088 4.864 2.135 4.869 2.2 4.86 2.313 4.838 2.439 4.807 2.578 4.776 2.712 4.754 2.851 4.745 2.964 4.75 3.003 4.758 3.047 4.785 3.081 4.833 3.09 4.886 3.073 4.939 3.025 4.992 2.956 5.049 2.873 5.115 2.782 5.173 2.686 5.239 2.595 5.301 2.513 5.367 2.443 5.428 2.404 5.486 2.387 5.517 2.4 5.539 2.435 5.561 2.504 5.574 2.582 5.583 2.682 5.587 2.791 5.587 2.899 5.592 3.012 5.596 3.12 5.605 3.22 5.618 3.307 5.64 3.376 5.675 3.42 5.724 3.442 5.772 3.42 5.812 3.376 5.847 3.303 5.874 3.22 5.9 3.12 5.926 3.012 5.953 2.903 5.979 2.795 6.01 2.695 6.037 2.613 6.072 2.548 6.103 2.504 6.138 2.491 6.191 2.504 6.235 2.543 6.279 2.604 6.319 2.673 6.363 2.747 6.407 2.83 6.455 2.903 6.499 2.964 6.552 3.012 6.614 3.025 6.663 3.012 6.693 2.969 6.707 2.912 6.715 2.834 6.715 2.396 6.724 2.322 6.738 2.266 6.764 2.239 6.795 2.226 6.852 2.239 6.927 2.283 7.015 2.339 7.108 2.413 7.209 2.5 7.311 2.591 7.412 2.682 7.504 2.769 7.593 2.843 7.668 2.903 7.729 2.951 7.778 2.964 7.822 2.942 7.831 2.903 7.817 2.825 7.787 2.73 7.737 2.613 7.681 2.482 7.619 2.344 7.557 2.2 7.5 2.057 7.452 1.918 7.421 1.788 7.407 1.68 7.416 1.602 7.438 1.545 7.487 1.506 7.557 1.493 7.65 1.502 7.765 1.532 7.888 1.571 8.02 1.619 8.152 1.671 8.285 1.719 8.408 1.758 8.523 1.788 8.62 1.797 8.695 1.784 8.747 1.745 8.765 1.671 8.752 1.593 8.708 1.506 8.637 1.415 8.558 1.319 8.461 1.22 8.36 1.116 8.257 1.016 8.157 0.916 8.06 0.82 7.98 0.729 7.914 0.647 7.875 0.577 7.861 0.517 7.879 0.465 7.923 0.412 8.003 0.365 8.099 0.313 8.227 0.261 8.368 0.217 8.523 0.174 8.69 0.135 8.866 0.1 9.038 0.074 9.215 0.057 9.387 0.044 9.554 0.039 9.607 0.039 9.664 0.044 9.717 0.052 9.77 0.07 9.796 0.091 9.81 0.122 9.792 0.156 9.748 0.204 9.682 0.243 9.585 0.287 9.479 0.33 9.359 0.373 9.237 0.417 9.118 0.465 9.003 0.508 8.897 0.556 8.808 0.612 8.743 0.664 8.708 0.716 8.695 0.764 8.712 0.842 8.756 0.933 8.831 1.024 8.919 1.129 9.021 1.237 9.135 1.35 9.254 1.467 9.378 1.584 9.497 1.706 9.611 1.823 9.713 1.94 9.796 2.053 9.863 2.157 9.902 2.257 9.92 2.344 9.907 2.409 9.867 2.461 9.805 2.496 9.722 2.509 9.603 2.5 9.466 2.474 9.316 2.435 9.157 2.387 8.99 2.335 8.827 2.279 8.668 2.226 8.523 2.179 8.386 2.14 8.267 2.114 8.174 2.105 8.108 2.114 8.069 2.153 8.06 2.213 8.069 2.3 8.099 2.404 8.144 2.526 8.201 2.66 8.267 2.804 8.333 2.956 8.399 3.107 8.465 3.259 8.523 3.402 8.567 3.537 8.598 3.659 8.606 3.763 8.598 3.832 8.576 3.889 8.54 3.923 8.479 3.936 8.399 3.923 8.302 3.88 8.201 3.823 8.091 3.741 7.972 3.65 7.853 3.55 7.734 3.45 7.615 3.35 7.504 3.259 7.399 3.177 7.302 3.112 7.214 3.068 7.143 3.055 7.081 3.068 7.037 3.116 7.006 3.181 6.98 3.255 6.962 3.342 6.945 3.433 6.927 3.524 6.909 3.611 6.887 3.685 6.861 3.741 6.826 3.78 6.786 3.793 6.733 3.78 6.676 3.745 6.619 3.689 6.566 3.624 6.508 3.55 6.451 3.485 6.389 3.429 6.323 3.385 6.257 3.372 6.213 3.394 6.173 3.437 6.138 3.515 6.103 3.611 6.072 3.719 6.037 3.845 6.001 3.975 5.971 4.114 5.931 4.249 5.896 4.379 5.856 4.505 5.812 4.613 5.768 4.709 5.724 4.778 5.675 4.817 5.627 4.835 5.569 4.817 5.525 4.782 5.486 4.717 5.45 4.631 5.424 4.531 5.402 4.418 5.384 4.296 5.367 4.171 5.353 4.045 5.34 3.923 5.327 3.806 5.305 3.702 5.287 3.615 5.261 3.541 5.221 3.502 5.173 3.481 5.102 3.498 5.032 3.541 4.957 3.602 4.882 3.676 4.798 3.754 4.714 3.828 4.631 3.884 4.547 3.923 4.459 3.941 4.384 3.928 4.335 3.893 4.304 3.836 4.282 3.763 4.278 3.667 4.287 3.533 4.304 3.389 4.322 3.242 4.34 3.099 4.349 2.973 4.349 2.912 4.34 2.847 4.322 2.795 4.287 2.756 4.23 2.743 4.15 2.756 4.049 2.791 3.934 2.843 3.802 2.908 3.657 2.982 3.507 3.064 3.352 3.146 3.198 3.229 3.048 3.303 2.903 3.368 2.771 3.42 2.652 3.455 2.559 3.468 2.488 3.455 2.449 3.42 2.431 3.363 2.444 3.294 2.484 3.203 2.55 3.103 2.625 2.99 2.722 2.869 2.828 2.743 2.947 2.617 3.066 2.487 3.18 2.357 3.299 2.231 3.405 2.109 3.502 2.001 3.582 1.897 3.652 1.81 3.692 1.732 3.705 1.671 3.683 1.623 3.634 1.593 3.56 1.571 3.463 1.558 3.352 1.545 3.229 1.541 3.097 1.536 2.96 1.536 2.823 1.532 2.691 1.532 2.568 1.523 2.458 1.515 2.369 1.502 2.295 1.484 2.255 1.458 2.242 1.432 2.255 1.38 2.295 1.324 2.361 1.259 2.444 1.194 2.541 1.124 2.647 1.059 2.757 0.99 2.868 0.925 2.973 0.859 3.07 0.79 3.154 0.734 3.22 0.682 3.268 0.638 3.282 0.59 3.26 0.543 3.216 0.508 3.136 0.473 3.048 0.447 2.942 0.417 2.832 0.391 2.713 0.36 2.603 0.334 2.497 0.304 2.409 0.274 2.339 0.239 2.295 0.204 2.281 0.174 2.295 0.135 2.334 0.096 2.4 0.065 2.497 0.039 2.616 0.022 2.766 0.013 2.942 0.009 3.039 0.009"/><polygon class="a" points="14.636 3.607 14.803 3.615 14.945 3.646 15.064 3.685 15.161 3.732 15.231 3.776 15.289 3.815 15.337 3.85 15.372 3.858 15.434 3.845 15.487 3.824 15.539 3.797 15.583 3.784 15.615 3.797 15.632 3.824 15.645 3.871 15.65 3.928 15.65 3.984 15.645 4.101 15.624 4.231 15.593 4.37 15.544 4.509 15.477 4.648 15.402 4.765 15.301 4.874 15.2 4.947 15.151 4.861 15.068 4.765 14.962 4.678 14.821 4.6 14.781 4.579 14.764 4.544 14.755 4.505 14.769 4.444 14.799 4.383 14.852 4.327 14.926 4.275 14.913 4.266 14.861 4.214 14.777 4.171 14.688 4.14 14.597 4.123 14.522 4.119 14.381 4.132 14.262 4.166 14.156 4.227 14.067 4.297 13.997 4.379 13.944 4.47 13.926 4.518 13.9 4.44 13.886 4.314 13.896 4.205 13.921 4.097 13.966 3.988 14.024 3.889 14.102 3.797 14.204 3.724 14.327 3.659 14.472 3.62 14.636 3.607"/><polygon class="a" points="20.864 3.515 20.948 3.533 21.045 3.577 21.125 3.632 21.178 3.706 21.217 3.788 21.239 3.88 21.248 3.984 21.23 4.127 21.181 4.274 21.102 4.413 21.001 4.552 20.874 4.687 20.723 4.804 20.56 4.904 20.375 4.991 20.181 5.056 19.982 5.1 19.776 5.112 19.639 5.103 19.525 5.082 19.423 5.043 19.352 4.991 19.313 4.921 19.295 4.834 19.304 4.787 19.321 4.73 19.357 4.682 19.418 4.639 19.498 4.604 19.599 4.591 19.802 4.578 20 4.544 20.185 4.483 20.358 4.409 20.516 4.314 20.652 4.209 20.763 4.097 20.85 3.975 20.904 3.854 20.921 3.728 20.912 3.624 20.89 3.554 20.864 3.515"/><polygon class="a" points="2.603 4.014 2.594 4.114 2.607 4.292 2.651 4.448 2.722 4.596 2.823 4.722 2.951 4.826 3.105 4.917 3.255 4.974 3.224 4.991 3.172 5.021 3.097 5.056 3.004 5.086 2.903 5.112 2.792 5.121 2.665 5.108 2.546 5.069 2.444 5.008 2.356 4.921 2.294 4.822 2.25 4.7 2.237 4.57 2.246 4.461 2.277 4.349 2.33 4.249 2.4 4.153 2.502 4.071 2.603 4.014"/><polygon class="a" points="4.885 4.7 4.992 4.716 5.088 4.764 5.163 4.839 5.211 4.935 5.227 5.042 5.211 5.149 5.163 5.246 5.088 5.326 4.992 5.369 4.885 5.39 4.772 5.369 4.681 5.326 4.606 5.246 4.558 5.149 4.542 5.042 4.558 4.935 4.606 4.839 4.681 4.764 4.772 4.716 4.885 4.7"/><path class="a" d="M17.0817,4.47935l-.04408.01736L17.02,4.53142l.01763.07811.05363.08679.0742.07811.10579.08245.13664.06509.15427.05642.18072.03472.19908.013.13591-.00868.12782-.0217.11019-.03472.09256-.03906.06612-.05208.04848-.0434.01322-.04774-.01763-.03472-.05289-.0217-.08742-.00868h-.05363l-.0742-.00434-.0977-.00434-.119-.013L17.889,4.67463l-.16823-.026L17.571,4.61821l-.13223-.03472-.119-.03906-.10064-.03472L17.1434,4.488l-.06171-.00868Zm.48926-.65962.07126.00868.05216.0217.03967.03906.036.04774.02571.04774.036.04774.03893.03906.0573.03038.07493.00868.10211-.013.10064-.026.10652-.03472.09623-.03906.08889-.026.0742-.013.0573.01736.06171.03906.07052.06943.0573.09113.06612.09981.0573.11717.05289.12151.04481.12151.03012.11717.022.10415.00955.09547-.01763.10415-.04922.09547-.06979.08679-.10138.07377-.12342.06943-.14545.05642-.16749.04774-.17264.03472-.1932.01736-.20349.00868-.21965-.013-.20349-.0434-.18953-.06509-.1719-.08679-.15868-.09981-.14031-.12151-.12856-.13019-.10505-.13453-.08448-.13887-.07052-.14755-.05289-.14321-.03085-.13453-.00808-.13019.01249-.03906.01763-.0217.05363-.01736.07052-.00868.10505-.00434.12782-.00868.14986-.01736.17264-.03472.18-.05642.19835-.08245.0977-.03472Z" transform="translate(-0.18926 -0.14391)"/><polygon class="a" points="5.268 5.364 5.375 5.385 5.472 5.428 5.552 5.508 5.595 5.605 5.616 5.712 5.595 5.819 5.552 5.915 5.472 5.99 5.375 6.038 5.268 6.054 5.161 6.038 5.065 5.99 4.99 5.915 4.942 5.819 4.926 5.712 4.942 5.605 4.99 5.508 5.065 5.428 5.161 5.385 5.268 5.364"/><polygon class="a" points="16.334 5.629 16.436 5.645 16.527 5.688 16.602 5.763 16.644 5.854 16.661 5.955 16.644 6.057 16.602 6.148 16.527 6.223 16.436 6.266 16.334 6.282 16.228 6.266 16.141 6.223 16.066 6.148 16.017 6.057 16.002 5.955 16.017 5.854 16.066 5.763 16.141 5.688 16.228 5.645 16.334 5.629"/><polygon class="a" points="13.79 4.83 13.918 4.939 14.059 5.026 14.2 5.073 14.355 5.086 14.443 5.082 14.521 5.069 14.587 5.065 14.64 5.073 14.671 5.099 14.684 5.134 14.671 5.199 14.636 5.277 14.587 5.351 14.508 5.433 14.667 5.477 14.82 5.49 14.953 5.481 15.086 5.455 15.213 5.416 15.34 5.351 15.451 5.269 15.549 5.169 15.637 5.043 15.699 4.904 15.738 4.735 15.747 4.596 15.773 4.635 15.813 4.735 15.839 4.843 15.861 4.934 15.866 5.017 15.853 5.208 15.817 5.373 15.764 5.525 15.689 5.655 15.606 5.768 15.504 5.863 15.39 5.941 15.271 6.006 15.138 6.054 15.002 6.089 14.87 6.106 14.728 6.115 14.566 6.106 14.433 6.084 14.324 6.058 14.244 6.028 14.186 6.006 14.147 5.998 14.085 6.015 14.05 6.058 14.015 6.115 13.992 6.171 13.966 6.223 13.944 6.254 13.918 6.267 13.865 6.241 13.804 6.193 13.749 6.11 13.702 6.015 13.662 5.898 13.631 5.768 13.613 5.633 13.605 5.486 13.618 5.303 13.653 5.13 13.711 4.965 13.79 4.83"/><path class="a" d="M9.42565,5.126l-.0573.01736-.04848.05208-.0573.07811-.04848.09981-.04848.11283-.04848.12585-.03967.13453-.03526.13453-.03085.13453-.01763.13019L8.98929,6.263l.00441.09981.01763.07377.03085.0434.03967.01736h.00441L9.14356,6.48l.05289-.05208.0573-.07377.04848-.09981.04848-.11283.03967-.12585.03526-.13453.03085-.13887L9.483,5.599l.01322-.13887.00441-.12585-.00441-.06943-.00882-.06943-.02645-.04774L9.42565,5.126ZM7.73309,4.38395l-.0573.01736-.04848.05208-.05289.06943-.04848.09981L7.473,4.73546,7.429,4.86565l-.04848.13453-.04408.14321-.03967.14755-.03526.14321-.03085.13453-.02645.12585-.01763.11717-.01322.09113-.00441.06943.00441.0434.00882.03906.03085.03038.04848.00868h.00441l.0573-.01736.04848-.05208.0573-.07811.05289-.10415.04848-.11717.04848-.13019L7.6229,5.4515l.03967-.14321.03967-.14755.03526-.14755.02645-.13453.02645-.12151L7.808,4.64432l.00882-.08245.00441-.06075L7.81243,4.4447,7.78158,4.397l-.04848-.013Zm1.09752.97642L8.78213,5.369l-.05289.03906-.05289.05642L8.61463,5.547l-.07052.11283.01322.14755.01763.10849.02645.07811.03967.05208.04848.013.04848-.013.03526-.04774.04408-.06943.03526-.08245.02645-.09547.01763-.10849.00882-.10849L8.90114,5.4515l-.01322-.05208L8.86147,5.3647l-.03085-.00434Zm-.714-.447-.06612.01736-.06171.05208-.05289.06943L7.89177,5.139l-.03967.09981-.03085.09981-.022.09981-.01763.09981-.00882.07811-.00441.05642.00882.06509.022.05642.03526.03472.03967.01736.0573-.00868.06171-.03906.07493-.06075.08815-.08245.11019-.11717.01322-.15189V5.23451l-.00882-.08679L8.2532,5.05659l-.03085-.07377-.04408-.05208-.06171-.01736Zm-1.8865.2734.03085.013.02645.026.022.04774.01322.06076.01322.06943.00882.07811.01763.07377.022.07377.03967.06509.04408.05208.06612.03472.08815.013.0573-.00868L6.737,5.764l.06612-.0434.06612-.05642L6.93089,5.573l.04848-.10849.06171-.22132.022-.217-.00441-.10849-.022-.09113L6.997,4.75282,6.9353,4.70508l-.07934-.013-.10138.01736-.097.03906-.08815.05208-.01763.013.06171-.14321.09256-.15623.119-.13887.13664-.11283.141-.08245.16308-.06076L7.429,4.08017l.17631-.013.16308.013.14986.0434.13223.06943.1146.08679.10138.10849.07493.12585.06612.14321.04848.15189.02645.16057.00882.16925-.022.24736.022.00868.1146-.16925.12342-.15189.13223-.13453.14545-.10849.14545-.08245.15868-.05642.15868-.01736.14986.013.13223.0434.11019.06509.097.09113.07493.10849.06171.12151.03967.13887.02645.14321.00882.15623-.00441.09113-.00882.09981-.01763.08679-.022.08679-.03085.06943-.02645.0434-.03085.013-.03085-.013-.022-.026L9.959,5.95055,9.95458,5.8898,9.94576,5.816l-.00441-.07811L9.93254,5.6381,9.91491,5.56l-.02645-.04774-.03526-.026-.03967-.00434-.06171.01736-.04408.05208-.04408.07811-.03085.09113-.022.10849-.01322.11283L9.59315,6.059l.00441.08679.00882.08679.01763.07377.02645.06509.04848.04774.06612.013.07934-.013.06612-.03038.022-.0217-.01763.10849L9.862,6.60584l-.07052.11283-.09256.09547-.11019.07377-.13223.04774-.141.01736L9.16119,6.94l-.13664-.0434-.12342-.06943-.11019-.08245-.097-.10415L8.619,6.52339l-.07052-.11717-.06171-.13453L8.43833,6.1415l-.03967-.13019L8.3678,5.88546l-.02645-.13453-.16308.16491-.14986.13453-.14986.12151-.15868.09981-.1719.08245-.18953.06509-.20275.03906-.23361.013-.17631-.013L6.5959,6.42358l-.13223-.05642-.1146-.07377-.097-.09113-.07052-.09981L6.11987,5.994,6.0802,5.87244l-.02645-.11717-.00882-.12585V5.573l.00882-.06943L6.067,5.43414l.01763-.07377.02645-.06943.03085-.05642.03967-.03472Z" transform="translate(-0.18926 -0.14391)"/><polygon class="a" points="14.992 6.332 15.093 6.348 15.184 6.39 15.259 6.465 15.303 6.556 15.318 6.658 15.303 6.76 15.259 6.851 15.184 6.926 15.093 6.968 14.992 6.984 14.879 6.968 14.788 6.926 14.714 6.851 14.665 6.76 14.649 6.658 14.665 6.556 14.714 6.465 14.788 6.39 14.879 6.348 14.992 6.332"/><path class="a" d="M4.11436,5.34742l.16309.00868L4.37,5.36478l.07934.00868.0573.013.03526.01736.022.03472.01763.05642.00882.06509.022.06943.04848.08245L4.7094,5.764l.04848.03906.04408.02531.03526.0311.01763.03906.00882.05208-.00441.0434-.022.07377-.03085.09547-.04848.11283-.06612.12151-.07934.12585-.08815.12585-.1146.11717L4.27745,6.875,4.132,6.96176l-.18072.07811-.16309.05642-.14545.03038-.13223.00868-.16749-.013L3.202,7.092l-.13223-.03472-.119-.03038-.1146-.013-.12782.013-.04408-.013-.04408-.026L2.5937,6.9444,2.58048,6.901l.022-.07811.022-.05208.01763-.06943.01763-.08679.01763-.09547.022-.10849.02645-.11717L2.77,6.17195l.05289-.12585.07052-.11717.097-.12151.119-.11717.14545-.09981.15868-.09113.15427-.06509.14986-.0434.13664-.026.13223-.013.12782-.00434Zm-.78016.54679-.05289.013-.04408.0434L3.19315,6.007l-.03526.07377-.022.07377L3.127,6.2327l.01322.12151.04408.11717.07052.10849.08375.09547.097.07811.11019.04774.1146.01736.08375-.00868.07493-.0217.06612-.03038.03967-.03472.022-.0434-.01322-.026L3.9072,6.632,3.7926,6.5712l-.10579-.07377-.10138-.09981-.08375-.11717-.06612-.13887-.03967-.16491-.01763-.06076-.04408-.0217Zm.74931-.31679-.06171.00434-.0573.00868L3.916,5.62081l-.03085.05208-.00882.07377.00882.09113.02645.09981.04408.09981.06171.09981.07052.08679.07934.06943.09256.05208.097.01736.07052-.013.05289-.0434.03967-.06076.022-.06075.00882-.06943-.01322-.0434-.04408-.03906-.04848-.0434L4.392,5.94629l-.03526-.03906-.00441-.00434L4.31712,5.8378l-.02645-.06943-.022-.06509-.03085-.05642L4.20252,5.6078l-.05289-.0217Z" transform="translate(-0.18926 -0.14391)"/><polygon class="a" points="21.256 4.661 21.314 4.691 21.362 4.752 21.393 4.826 21.415 4.921 21.428 5.026 21.432 5.151 21.432 5.616 21.428 5.802 21.42 5.985 21.406 6.167 21.389 6.34 21.37 6.501 21.349 6.644 21.318 6.774 21.287 6.887 21.252 6.965 21.212 7.017 21.173 7.035 21.116 7.026 21.028 6.996 20.93 6.944 20.819 6.874 20.697 6.787 20.573 6.683 20.446 6.566 20.318 6.44 20.194 6.306 20.079 6.163 19.978 6.015 19.891 5.872 19.815 5.724 19.758 5.577 19.731 5.451 19.903 5.451 20.027 5.434 20.168 5.412 20.318 5.373 20.467 5.321 20.622 5.256 20.776 5.173 20.917 5.069 21.049 4.952 21.164 4.813 21.256 4.661"/><polygon class="a" points="15.91 6.34 16.029 6.358 16.143 6.405 16.236 6.471 16.306 6.566 16.355 6.675 16.372 6.792 16.355 6.909 16.306 7.017 16.236 7.113 16.139 7.182 16.029 7.23 15.91 7.247 15.791 7.23 15.68 7.182 15.583 7.113 15.513 7.017 15.464 6.909 15.447 6.792 15.464 6.675 15.513 6.566 15.583 6.471 15.677 6.405 15.791 6.358 15.91 6.34"/><polygon class="a" points="14.274 6.705 14.386 6.721 14.478 6.769 14.557 6.844 14.605 6.94 14.621 7.047 14.605 7.154 14.557 7.251 14.478 7.331 14.386 7.374 14.274 7.395 14.167 7.374 14.07 7.331 13.995 7.251 13.947 7.154 13.93 7.047 13.947 6.94 13.995 6.844 14.07 6.769 14.167 6.721 14.274 6.705"/><polygon class="a" points="16.79 7.113 16.902 7.134 17.004 7.182 17.084 7.263 17.132 7.364 17.153 7.477 17.132 7.589 17.084 7.691 17.004 7.771 16.902 7.819 16.79 7.841 16.677 7.819 16.581 7.771 16.495 7.691 16.446 7.589 16.426 7.477 16.426 7.471 16.446 7.364 16.495 7.263 16.581 7.182 16.677 7.134 16.79 7.113"/><polygon class="a" points="2.44 7.122 2.519 7.229 2.634 7.336 2.766 7.411 2.898 7.459 3.044 7.48 3.18 7.491 3.326 7.486 3.423 7.469 3.326 7.598 3.207 7.716 3.088 7.796 2.964 7.849 2.854 7.866 2.739 7.844 2.642 7.791 2.554 7.7 2.493 7.576 2.449 7.416 2.435 7.223 2.44 7.122"/><polygon class="a" points="4.882 6.401 5.001 6.44 5.124 6.501 5.248 6.575 5.367 6.67 5.472 6.774 5.556 6.896 5.627 7.026 5.671 7.174 5.688 7.325 5.68 7.443 5.657 7.551 5.613 7.66 5.561 7.746 5.486 7.829 5.397 7.885 5.287 7.924 5.164 7.937 5.032 7.924 4.913 7.881 4.807 7.816 4.719 7.729 4.648 7.625 4.595 7.499 4.564 7.369 4.551 7.226 4.569 7.035 4.622 6.848 4.701 6.67 4.794 6.523 4.882 6.401"/><polygon class="a" points="15.065 7.113 15.179 7.131 15.29 7.175 15.378 7.242 15.444 7.331 15.489 7.443 15.506 7.559 15.489 7.675 15.444 7.786 15.378 7.875 15.29 7.942 15.179 7.987 15.065 8.005 14.94 7.987 14.831 7.942 14.742 7.875 14.676 7.786 14.632 7.675 14.614 7.559 14.632 7.443 14.676 7.331 14.742 7.242 14.831 7.175 14.94 7.131 15.065 7.113"/><polygon class="a" points="4.344 7.013 4.323 7.078 4.301 7.191 4.291 7.326 4.301 7.46 4.339 7.595 4.403 7.725 4.505 7.851 4.622 7.959 4.558 7.99 4.44 8.016 4.296 8.024 4.151 8.011 4.012 7.972 3.905 7.911 3.82 7.825 3.766 7.725 3.745 7.603 3.766 7.477 3.814 7.365 3.889 7.269 3.98 7.187 4.087 7.117 4.189 7.065 4.291 7.026 4.344 7.013"/><polygon class="a" points="16.002 7.638 16.109 7.659 16.206 7.702 16.28 7.782 16.328 7.879 16.344 7.986 16.328 8.093 16.28 8.189 16.206 8.269 16.109 8.318 16.002 8.339 15.895 8.318 15.799 8.269 15.719 8.189 15.675 8.093 15.654 7.986 15.654 7.98 15.675 7.879 15.719 7.782 15.799 7.702 15.895 7.659 16.002 7.638"/><polygon class="a" points="14.125 7.612 14.24 7.626 14.345 7.673 14.442 7.745 14.509 7.835 14.557 7.939 14.571 8.053 14.551 8.172 14.509 8.281 14.442 8.371 14.345 8.442 14.24 8.485 14.125 8.504 14.006 8.485 13.905 8.442 13.809 8.371 13.742 8.276 13.694 8.172 13.679 8.053 13.694 7.939 13.742 7.835 13.809 7.745 13.905 7.673 14.006 7.631 14.125 7.612"/><polygon class="a" points="2.184 7.785 2.273 7.921 2.383 8.051 2.493 8.151 2.612 8.216 2.74 8.252 2.868 8.262 3.079 8.247 3.322 8.201 3.538 8.151 3.392 8.282 3.216 8.422 3.057 8.532 2.907 8.612 2.766 8.662 2.647 8.677 2.546 8.662 2.453 8.622 2.374 8.552 2.308 8.452 2.255 8.322 2.215 8.161 2.193 7.966 2.184 7.785"/><polygon class="a" points="16.86 7.998 16.988 8.02 17.101 8.073 17.192 8.169 17.245 8.282 17.267 8.416 17.245 8.544 17.192 8.656 17.101 8.747 16.988 8.801 16.86 8.822 16.731 8.801 16.62 8.747 16.523 8.656 16.47 8.544 16.448 8.416 16.47 8.282 16.523 8.169 16.62 8.073 16.731 8.02 16.86 7.998"/><polygon class="a" points="15.029 8.233 15.136 8.254 15.232 8.297 15.307 8.377 15.355 8.473 15.372 8.58 15.355 8.688 15.307 8.784 15.232 8.859 15.136 8.907 15.029 8.923 14.917 8.907 14.821 8.859 14.739 8.784 14.691 8.688 14.676 8.58 14.691 8.473 14.739 8.377 14.821 8.297 14.917 8.254 15.029 8.233"/><polygon class="a" points="15.879 8.467 16.011 8.484 16.13 8.536 16.231 8.61 16.306 8.71 16.359 8.827 16.377 8.957 16.359 9.087 16.306 9.204 16.231 9.309 16.13 9.382 16.011 9.434 15.879 9.452 15.747 9.434 15.628 9.382 15.527 9.309 15.451 9.204 15.399 9.087 15.381 8.957 15.399 8.827 15.451 8.71 15.527 8.61 15.628 8.536 15.747 8.484 15.879 8.467"/><polygon class="a" points="16.876 8.988 16.983 9.004 17.074 9.046 17.149 9.121 17.192 9.207 17.208 9.303 17.192 9.416 17.149 9.507 17.074 9.582 16.983 9.625 16.876 9.641 16.775 9.625 16.684 9.582 16.609 9.507 16.561 9.416 16.545 9.303 16.561 9.207 16.609 9.121 16.684 9.046 16.775 9.004 16.876 8.988"/><polygon class="a" points="6.504 7.712 6.755 7.729 7.028 7.764 7.35 7.825 7.205 7.66 7.077 7.538 6.94 7.434 6.79 7.343 6.645 7.278 6.499 7.234 6.354 7.221 6.261 7.226 6.186 7.247 6.116 7.282 6.063 7.334 6.045 7.365 6.041 7.33 6.037 7.243 6.032 7.161 6.041 7.017 6.063 6.896 6.103 6.792 6.16 6.714 6.235 6.657 6.336 6.622 6.46 6.609 6.592 6.627 6.724 6.67 6.843 6.74 6.967 6.826 7.081 6.939 7.187 7.065 7.288 7.204 7.376 7.347 7.46 7.495 7.535 7.647 7.562 7.642 7.562 7.399 7.566 7.187 7.579 7.004 7.597 6.852 7.628 6.722 7.667 6.627 7.72 6.557 7.791 6.518 7.879 6.505 7.954 6.518 8.033 6.562 8.121 6.618 8.21 6.701 8.293 6.796 8.368 6.905 8.43 7.013 8.465 7.113 8.377 7.1 8.276 7.113 8.188 7.156 8.104 7.226 8.029 7.321 7.949 7.438 7.875 7.581 7.8 7.733 7.778 7.781 8.033 7.621 8.236 7.499 8.448 7.391 8.664 7.308 8.88 7.256 9.104 7.239 9.259 7.252 9.408 7.295 9.532 7.36 9.638 7.443 9.713 7.547 9.765 7.677 9.783 7.816 9.77 7.929 9.735 8.05 9.677 8.172 9.629 8.258 9.598 8.154 9.527 8.041 9.439 7.955 9.316 7.881 9.175 7.833 8.999 7.807 8.805 7.798 8.593 7.807 8.364 7.833 8.148 7.881 7.941 7.942 7.941 7.968 8.152 8.007 8.329 8.05 8.478 8.102 8.597 8.163 8.694 8.224 8.769 8.289 8.818 8.363 8.857 8.432 8.88 8.506 8.893 8.58 8.897 8.653 8.88 8.792 8.835 8.922 8.769 9.031 8.681 9.135 8.575 9.222 8.461 9.296 8.351 9.365 8.236 9.426 8.148 9.469 8.183 9.291 8.196 9.074 8.188 8.953 8.165 8.823 8.121 8.697 8.055 8.562 7.954 8.428 7.826 8.293 7.645 8.146 7.597 8.306 7.531 8.436 7.465 8.554 7.403 8.662 7.354 8.775 7.337 8.892 7.346 8.953 7.376 8.992 7.416 9.018 7.443 9.022 7.438 9.079 7.429 9.17 7.416 9.274 7.407 9.378 7.394 9.474 7.385 9.556 7.381 9.612 7.385 9.712 7.403 9.782 7.434 9.829 7.478 9.86 7.526 9.873 7.553 9.981 7.57 10.107 7.588 10.237 7.601 10.363 7.623 10.472 7.654 10.528 7.689 10.567 7.734 10.585 7.769 10.589 7.804 10.676 7.848 10.78 7.901 10.884 7.972 10.979 8.046 11.053 8.086 11.101 8.108 11.17 8.095 11.231 8.055 11.292 7.998 11.348 7.932 11.392 7.861 11.422 7.795 11.435 7.769 11.431 7.734 11.409 7.689 11.361 7.65 11.279 7.615 11.231 7.562 11.179 7.495 11.118 7.425 11.053 7.35 10.988 7.288 10.923 7.244 10.862 7.222 10.819 7.249 10.775 7.257 10.702 7.244 10.619 7.205 10.537 7.156 10.446 7.094 10.355 7.033 10.263 6.984 10.159 6.945 10.051 6.931 9.942 6.962 9.921 6.997 9.864 7.006 9.799 6.997 9.708 6.967 9.604 6.931 9.487 6.887 9.365 6.852 9.244 6.821 9.126 6.812 9.031 6.861 9.027 6.905 9.014 6.936 8.966 6.945 8.892 6.958 8.762 6.98 8.627 7.015 8.48 7.068 8.337 7.138 8.206 7.257 8.068 7.024 8.055 6.883 8.063 6.729 8.085 6.57 8.128 6.407 8.185 6.248 8.258 6.089 8.354 5.944 8.462 5.812 8.588 5.697 8.731 5.627 8.857 5.609 8.658 5.622 8.484 5.657 8.332 5.71 8.193 5.781 8.076 5.856 7.972 5.94 7.885 6.028 7.825 6.107 7.781 6.23 7.742 6.358 7.716 6.504 7.712"/><path class="a" d="M19.70458,7.41308l.07493.00434.08815.013.07934.013.06612.00434.05289-.00868.03526-.026.00882-.03472V7.374l-.01322-.0434-.03085-.0434-.04334-.03472-.058-.03906-.06171-.0434-.06171-.04774-.0573-.06509-.04408-.07377L19.70017,6.888l-.022-.11717-.00882-.0434-.00882-.04774-.022-.05208-.03526-.03472-.04849-.013-.04481.01736-.03012.0434-.01322.05208-.00881.06943-.00441.06509-.00882.06075-.01763.05208-.022.03038-.03085.013-.08375-.01736-.07052-.03472-.07052-.06509-.05289-.07811-.05289-.08245-.04848-.08679-.04334-.08679-.036-.07811-.04408-.06943-.03085-.03906-.04408-.0217-.02718.00434-.02571.0217-.022.03906-.00441.05642.01322.23-.00441.06075-.01837.04774-.02571.026-.04848.013-.06171-.01736-.06171-.03472-.06171-.06076-.06171-.07377L18.325,6.55818l-.0573-.07377L18.206,6.42365l-.06171-.0434-.06171-.01736-.03967.008-.03526.02242L17.99,6.43233l.01763.06509.03526.06943.04922.07377.03453.06943.01763.05208-.01322.03472-.036.03038-.04775.0217-.06612.013-.06685.013-.0742.00868-.07052.013-.05289.01664-.04481.0311-.0169.0434.01249.04774.03526.03472.05436.013.06465.00434.10211-.00868.119-.013.11387-.0217.11093-.013.08815-.00868.04775.00434.04481.00868.04408.01736.02645.026.01322.03906-.01322.0434-.03526.0434-.05216.04774-.058.04774-.05289.05208-.04408.0434-.01322.05208.01322.04774.03893.026.0404.00868.08815-.013.09256-.03906.10652-.05642.10946-.06509.10652-.06509.10946-.05208.10579-.0434.09183-.013.03085.00434.0404.00868.03526.013.02644.0217.01322.026-.01322.03906-.03085.04774-.05289.06076-.05216.06076-.05363.06076-.03967.06943-.01322.06509.00882.0434.02645.03472.04334.01736.05877-.013.061-.0434.06171-.05642.06685-.06076.0742-.06509.0786-.05208.08007-.03906.08815-.013Zm-1.9438.77246.11974.05208.11386.06943.09256.07811.07493.08245.05289.08679.04408.09113.03967.09981.03526.09981.036.10415.04334.10415.05216.10849.07567.11283.08815.11283.07052.06943.08815.07377.10138.07811.11019.08679.119.09981.12342.10849.12782.12585.133.14321.12635.16491.12415.1866.12268.21264.11533.243.10579.27774.02645-.00506.01837-.20324-.01837-.204-.04334-.204-.07567-.19962-.09256-.19528-.1146-.19528-.12782-.1866-.1359-.18227-.14178-.17358-.141-.16925-.141-.15623-.1315-.15189-.12415-.13887-.10579-.12585-.09256-.11717-.0573-.09547L18.56739,8.485l.16309.0217.15427.03038.141.03472.12342.05208.10579.06075.10064.06943.08889.09547.07493.10849.07934.13019.07934.15623.07493.17793.08375.2083.08815.23868.03967.09981.05289.12151.0573.14321.0573.14755.0573.15623.04481.14248.03085.13525.01249.11283.02645.00434.07493-.204.08375-.19528.10138-.19094.1146-.19528.14031-.23434L20.73084,9.865l-.09256-.0434-.10064-.05208-.10138-.06075L20.32606,9.648l-.10138-.07377-.097-.08245L20.044,9.405l-.06171-.09547-.04481-.10415L19.925,9.09686l.01249-.13019.04481-.13019.06171-.11717.0742-.10849.08889-.10415.097-.08679.097-.07811.09256-.05642.08007-.0434.06465-.03038.04481-.00868.03526.013.01763.0434.00882.07377-.00882.14755-.02645.16491-.02644.16925-.03085.16057-.02645.15623-.00882.12585.00882.10415.03085.09547.04408.08679.0573.06509.061.04774.06685.01736.0573-.01736.06538-.04774.07126-.06943.07052-.09113.06979-.11283.06171-.12585.05436-.13453L21.367,8.932l.01249-.14321-.01249-.1866-.04041-.16491-.0573-.14321-.083-.12585L21.09741,8.064l-.097-.08679-.10138-.07811L20.78814,7.847l-.0955-.0434-.0933-.026-.08375-.01736-.06171-.00434-.07052.00868-.07934.026-.08815.03472-.10579.0434-.12782.04774-.141.05208-.16749.0434-.18072.03472-.216.026-.24242.00868-.24242-.013-.22039-.03472-.20716-.06076-.18512-.07377L18.01642,7.808l-.14986-.11283-.13664-.12151-.12415-.13453-.10064-.14321L17.417,7.14837l-.07934-.15189-.06979-.15623L17.21349,6.684l-.04334-.15623-.03526-.15189-.02645-.14321-.01763-.13453L17.082,5.968l-.00441-.11283.00441-.0217V5.82839l.01322.0094.03085.0217.05289.03038.07052.03472.09256.03472.1146.03038.14913.0217.17263.00868.15941-.00868.15721-.013.16823-.0217.18512-.013.21157-.00868.21157.013.19394.03472.17631.06076.16823.07811.14472.09547.14546.11283.13664.13453.12782.14755.13223.16057.12782.16925.12782.18226.13591.19094.08815.05208.0977.05642.10578.06509.1146.06943.11387.07377.119.09547.11093.09981.10505.12151.08889.13019.07493.14321.06171.16925.03967.18226.01249.204-.01249.18226-.04408.16925-.06612.16057-.08375.15189-.097.15189-.11019.15189-.1146.15189-.11534.15189-.11387.15623-.1146.16057-.097.17792-.0786.18226-.06685.217.12415-.03038.09623-.05641.08889-.07377.083-.08679.08375-.09113.08375-.09113.08375-.08245.08815-.06509.09256-.0434.097-.01736.08815.01736.07126.03906.04775.07377.03085.09547.00955.11717-.014.14755-.03085.15623-.0573.16925-.07934.17358-.09623.16057-.11974.16057-.11974.11717.00441-.08245-.00441-.07811L21.1459,11.501l-.0213-.08245-.03159-.08245-.04849-.07377-.0573-.05208-.07567-.0434-.08742-.013-.119.013-.0977.0434-.09183.06509-.07493.07811-.07052.09547-.06612.10415-.06244.11717-.06171.10849-.04775.08245-.07567-.24736-.09183-.26906-.10579-.256-.119-.243-.12782-.23-.15427-.2083-.16309-.19094-.18512-.16491-.11019-.07811-.12342-.06076-.12342-.05207-.12782-.03906-.12782-.03906-.12709-.03038-.12415-.03472-.119-.03472-.10578-.0434-.097-.05208-.08375-.05642-.07567-.07811-.04775-.09113-.03085-.11717-.014-.13453.014-.13019.03526-.14321.036-.15623.03453-.15623.01322-.14321L17.79163,8.255Z" transform="translate(-0.18926 -0.14391)"/><polygon class="a" points="13.905 10.667 13.997 10.684 14.076 10.728 14.156 10.784 14.222 10.854 14.287 10.923 14.354 10.984 14.419 11.031 14.491 11.049 14.566 11.031 14.636 10.984 14.688 10.91 14.707 10.819 14.694 10.71 14.654 10.615 14.588 10.541 14.513 10.472 14.419 10.402 14.314 10.346 14.208 10.289 14.098 10.229 13.997 10.168 13.896 10.103 13.803 10.02 13.728 9.929 13.671 9.825 13.631 9.699 13.617 9.56 13.626 9.426 13.657 9.283 13.711 9.113 13.79 8.931 13.878 8.757 13.896 8.836 13.94 8.931 14.001 9.005 14.072 9.061 14.151 9.113 14.239 9.157 14.327 9.191 14.416 9.23 14.5 9.274 14.579 9.317 14.649 9.374 14.707 9.447 14.755 9.534 14.786 9.643 14.795 9.777 14.786 9.903 14.773 10.046 14.764 10.19 14.764 10.268 14.773 10.341 14.79 10.402 14.821 10.454 14.869 10.489 14.932 10.502 14.998 10.493 15.046 10.459 15.081 10.411 15.094 10.35 15.099 10.281 15.094 10.19 15.086 10.098 15.073 10.012 15.068 9.938 15.077 9.842 15.108 9.773 15.147 9.717 15.196 9.682 15.249 9.656 15.301 9.643 15.355 9.638 15.451 9.651 15.553 9.682 15.654 9.73 15.756 9.782 15.866 9.834 15.989 9.881 16.125 9.912 16.258 9.925 16.227 9.999 16.174 10.068 16.1 10.133 16.011 10.181 15.91 10.229 15.804 10.268 15.694 10.307 15.583 10.35 15.482 10.394 15.386 10.441 15.301 10.502 15.236 10.576 15.196 10.663 15.183 10.767 15.196 10.871 15.244 10.949 15.301 11.01 15.381 11.053 15.464 11.084 15.549 11.097 15.628 11.101 15.729 11.092 15.8 11.07 15.84 11.01 15.848 10.927 15.835 10.723 15.848 10.689 15.879 10.676 15.928 10.689 16.002 10.723 16.091 10.775 16.191 10.836 16.302 10.914 16.412 10.997 16.522 11.088 16.62 11.175 16.708 11.261 16.773 11.34 16.814 11.405 16.831 11.452 16.814 11.487 16.773 11.526 16.703 11.565 16.611 11.604 16.504 11.639 16.386 11.674 16.263 11.704 16.139 11.726 16.02 11.747 15.919 11.765 15.826 11.774 15.751 11.778 15.712 11.769 15.69 11.752 15.681 11.73 15.676 11.708 15.69 11.674 15.72 11.613 15.759 11.548 15.79 11.483 15.804 11.418 15.795 11.379 15.759 11.348 15.702 11.327 15.619 11.309 15.513 11.3 15.301 11.3 15.231 11.309 15.174 11.327 15.139 11.37 15.125 11.431 15.139 11.513 15.178 11.591 15.227 11.678 15.293 11.76 15.355 11.839 15.399 11.912 15.438 11.99 15.451 12.056 15.438 12.129 15.408 12.19 15.35 12.234 15.258 12.268 15.139 12.277 15.051 12.268 14.954 12.238 14.857 12.194 14.773 12.138 14.698 12.064 14.654 11.977 14.636 11.878 14.654 11.782 14.694 11.682 14.746 11.587 14.795 11.496 14.835 11.418 14.851 11.344 14.848 11.309 14.821 11.274 14.781 11.244 14.719 11.235 14.658 11.244 14.6 11.279 14.552 11.327 14.5 11.383 14.442 11.452 14.381 11.526 14.314 11.609 14.23 11.691 14.137 11.769 14.028 11.839 13.905 11.908 13.759 11.964 13.586 12.008 13.437 12.03 13.481 11.986 13.552 11.904 13.617 11.813 13.662 11.708 13.693 11.583 13.702 11.439 13.693 11.292 13.675 11.149 13.667 10.984 13.679 10.871 13.711 10.78 13.759 10.715 13.825 10.68 13.905 10.667"/><polygon class="a" points="6.711 12.446 6.72 12.455 6.728 12.498 6.737 12.568 6.768 12.633 6.821 12.689 6.896 12.733 6.993 12.746 7.085 12.733 7.16 12.694 7.213 12.641 7.253 12.568 7.266 12.485 7.249 12.355 7.204 12.212 7.134 12.06 7.046 11.899 6.94 11.717 6.821 11.53 6.698 11.331 6.57 11.127 6.446 10.906 6.327 10.671 6.222 10.428 6.133 10.177 6.063 9.912 6.019 9.638 6.001 9.352 5.975 9.348 5.935 9.452 5.895 9.569 5.86 9.699 5.838 9.855 5.829 10.029 5.842 10.242 5.882 10.459 5.944 10.671 6.014 10.884 6.089 11.097 6.169 11.309 6.239 11.522 6.301 11.73 6.341 11.93 6.354 12.129 6.336 12.255 6.288 12.377 6.213 12.477 6.116 12.55 6.001 12.607 5.878 12.624 5.759 12.611 5.662 12.572 5.587 12.524 5.534 12.455 5.499 12.385 5.477 12.307 5.468 12.242 5.477 12.173 5.494 12.112 5.512 12.073 5.53 12.064 5.534 12.069 5.543 12.09 5.56 12.134 5.596 12.168 5.649 12.199 5.723 12.212 5.82 12.199 5.895 12.151 5.944 12.073 5.97 11.977 5.979 11.847 5.966 11.626 5.922 11.413 5.864 11.214 5.803 11.014 5.737 10.814 5.679 10.61 5.635 10.398 5.622 10.172 5.626 10.029 5.649 9.881 5.626 9.873 5.538 9.999 5.481 10.129 5.441 10.272 5.419 10.42 5.411 10.567 5.406 10.715 5.406 11.47 5.393 11.648 5.362 11.791 5.305 11.917 5.239 12.017 5.155 12.09 5.062 12.142 4.957 12.177 4.846 12.186 4.749 12.173 4.657 12.138 4.577 12.082 4.516 12.004 4.476 11.899 4.458 11.778 4.463 11.743 4.467 11.704 4.48 11.661 4.498 11.63 4.511 11.622 4.529 11.635 4.56 11.656 4.595 11.695 4.639 11.734 4.705 11.76 4.785 11.774 4.886 11.76 4.97 11.726 5.031 11.665 5.08 11.578 5.111 11.474 5.133 11.34 5.142 11.188 5.15 11.01 5.15 10.81 5.159 10.61 5.181 10.407 5.225 10.207 5.291 9.999 5.375 9.79 5.485 9.591 5.613 9.391 5.776 9.196 5.966 9.005 6.186 8.818 6.393 8.675 6.336 8.797 6.279 8.974 6.244 9.152 6.226 9.313 6.222 9.456 6.239 9.69 6.288 9.925 6.363 10.15 6.46 10.376 6.574 10.597 6.702 10.819 6.847 11.027 6.988 11.235 7.13 11.435 7.271 11.63 7.394 11.821 7.509 12.004 7.606 12.173 7.68 12.338 7.729 12.494 7.747 12.637 7.738 12.754 7.703 12.871 7.65 12.98 7.584 13.08 7.487 13.167 7.381 13.227 7.249 13.271 7.103 13.288 6.975 13.275 6.861 13.24 6.768 13.188 6.689 13.119 6.631 13.036 6.583 12.95 6.557 12.858 6.548 12.772 6.561 12.667 6.596 12.576 6.64 12.507 6.684 12.459 6.711 12.446"/><polygon class="a" points="8.664 11.257 8.778 11.348 8.902 11.435 9.021 11.496 9.126 11.535 9.223 11.548 9.303 11.539 9.36 11.504 9.395 11.452 9.404 11.387 9.386 11.326 9.338 11.261 9.272 11.205 9.184 11.14 9.078 11.075 8.968 11.01 8.849 10.936 8.734 10.866 8.624 10.784 8.518 10.697 8.43 10.606 8.368 10.506 8.324 10.398 8.307 10.285 8.307 10.281 8.324 10.19 8.368 10.103 8.434 10.016 8.527 9.929 8.633 9.847 8.752 9.769 8.871 9.686 8.99 9.599 9.109 9.512 9.215 9.426 9.307 9.326 9.382 9.222 9.426 9.109 9.444 8.987 9.435 8.905 9.417 8.801 9.382 8.697 9.356 8.636 9.479 8.71 9.624 8.822 9.752 8.944 9.854 9.079 9.929 9.204 9.977 9.339 9.995 9.465 9.981 9.604 9.937 9.734 9.88 9.847 9.81 9.955 9.73 10.051 9.655 10.146 9.58 10.237 9.519 10.328 9.475 10.419 9.461 10.515 9.475 10.615 9.51 10.697 9.572 10.771 9.638 10.836 9.713 10.901 9.792 10.966 9.867 11.036 9.933 11.109 9.986 11.192 10.021 11.292 10.034 11.405 10.021 11.513 9.977 11.63 9.915 11.752 9.845 11.869 9.761 11.999 9.682 12.134 9.611 12.264 9.549 12.403 9.505 12.542 9.492 12.689 9.51 12.85 9.554 12.993 9.633 13.127 9.735 13.24 9.858 13.331 10.008 13.396 10.118 13.422 9.99 13.449 9.801 13.462 9.611 13.449 9.43 13.414 9.245 13.357 9.073 13.279 8.91 13.184 8.761 13.071 8.624 12.945 8.509 12.802 8.417 12.65 8.346 12.489 8.302 12.316 8.284 12.142 8.302 11.938 8.355 11.739 8.434 11.556 8.54 11.396 8.664 11.257"/><polygon class="a" points="16.791 9.877 16.822 9.895 16.866 9.929 16.915 9.986 16.963 10.055 17.007 10.12 17.047 10.177 17.087 10.216 17.126 10.237 17.184 10.22 17.245 10.177 17.303 10.12 17.364 10.055 17.422 9.999 17.475 9.964 17.519 9.947 17.541 9.955 17.554 9.973 17.558 10.02 17.544 10.185 17.511 10.355 17.47 10.524 17.435 10.697 17.422 10.862 17.426 10.94 17.439 11.027 17.457 11.101 17.492 11.175 17.541 11.227 17.602 11.266 17.677 11.279 17.761 11.262 17.836 11.201 17.903 11.123 17.946 11.014 17.977 10.897 17.99 10.767 17.986 10.598 17.973 10.45 17.955 10.32 17.942 10.211 17.938 10.129 17.946 10.09 17.959 10.077 17.977 10.068 18.017 10.09 18.062 10.129 18.109 10.19 18.153 10.255 18.202 10.311 18.25 10.359 18.308 10.376 18.374 10.363 18.444 10.329 18.51 10.276 18.576 10.229 18.638 10.181 18.687 10.151 18.726 10.138 18.74 10.146 18.744 10.159 18.731 10.22 18.7 10.298 18.66 10.385 18.615 10.467 18.585 10.541 18.572 10.606 18.59 10.641 18.634 10.663 18.691 10.68 18.762 10.697 18.832 10.715 18.903 10.728 18.96 10.745 18.995 10.763 19.005 10.776 18.991 10.797 18.95 10.819 18.885 10.841 18.806 10.862 18.713 10.88 18.612 10.897 18.515 10.914 18.423 10.936 18.343 10.966 18.224 11.023 18.131 11.088 18.062 11.162 18.012 11.24 18 11.331 18.012 11.396 18.052 11.448 18.109 11.483 18.181 11.505 18.273 11.513 18.369 11.518 18.551 11.505 18.718 11.474 18.867 11.435 19 11.387 19.11 11.335 19.202 11.296 19.277 11.266 19.326 11.253 19.344 11.262 19.352 11.279 19.34 11.314 19.308 11.366 19.255 11.435 19.202 11.505 19.145 11.574 19.11 11.643 19.097 11.704 19.114 11.756 19.158 11.795 19.221 11.843 19.299 11.886 19.375 11.926 19.445 11.965 19.501 11.995 19.542 12.03 19.546 12.043 19.533 12.056 19.476 12.064 19.383 12.06 19.277 12.047 19.114 12.047 19.066 12.056 19.03 12.082 19.013 12.116 19.005 12.169 19.005 12.229 19 12.299 19 12.368 18.991 12.433 18.982 12.481 18.969 12.516 18.947 12.524 18.929 12.516 18.907 12.472 18.867 12.412 18.824 12.338 18.77 12.242 18.713 12.147 18.638 12.047 18.563 11.952 18.48 11.86 18.383 11.782 18.273 11.717 18.157 11.674 18.026 11.661 17.964 11.674 17.915 11.713 17.88 11.769 17.872 11.847 17.889 11.982 17.938 12.108 18.008 12.242 18.105 12.36 18.211 12.472 18.321 12.568 18.44 12.65 18.515 12.689 18.59 12.733 18.66 12.767 18.718 12.798 18.757 12.828 18.766 12.846 18.757 12.859 18.718 12.872 18.66 12.876 18.585 12.885 18.506 12.889 18.426 12.898 18.365 12.915 18.316 12.95 18.294 12.993 18.304 13.106 18.325 13.232 18.347 13.345 18.356 13.444 18.352 13.475 18.343 13.501 18.316 13.51 18.29 13.496 18.25 13.462 18.202 13.41 18.153 13.349 18.1 13.28 18.048 13.219 18 13.167 17.955 13.123 17.907 13.11 17.858 13.123 17.796 13.162 17.739 13.21 17.677 13.258 17.62 13.306 17.575 13.336 17.536 13.349 17.523 13.34 17.513 13.319 17.527 13.249 17.558 13.162 17.602 13.054 17.651 12.941 17.699 12.815 17.743 12.681 17.774 12.537 17.787 12.399 17.787 12.333 17.783 12.255 17.774 12.177 17.761 12.09 17.739 12.012 17.708 11.943 17.663 11.882 17.606 11.843 17.536 11.83 17.457 11.847 17.373 11.895 17.298 11.965 17.228 12.056 17.157 12.164 17.1 12.277 17.055 12.394 17.043 12.459 17.034 12.542 17.024 12.637 17.021 12.741 17.012 12.85 17.003 12.95 16.993 13.041 16.976 13.11 16.96 13.154 16.937 13.167 16.91 13.158 16.893 13.123 16.871 13.067 16.853 13.002 16.84 12.932 16.818 12.867 16.791 12.806 16.756 12.763 16.703 12.75 16.647 12.763 16.58 12.789 16.504 12.828 16.434 12.872 16.373 12.911 16.315 12.937 16.276 12.95 16.262 12.945 16.258 12.941 16.271 12.898 16.302 12.828 16.342 12.759 16.39 12.685 16.43 12.607 16.461 12.55 16.473 12.507 16.452 12.464 16.403 12.433 16.337 12.412 16.262 12.39 16.179 12.368 16.104 12.351 16.038 12.329 15.998 12.312 15.985 12.294 15.994 12.277 16.034 12.26 16.096 12.242 16.17 12.221 16.258 12.208 16.347 12.19 16.466 12.164 16.589 12.129 16.716 12.077 16.84 12.021 16.96 11.947 17.065 11.869 17.153 11.782 17.228 11.683 17.272 11.578 17.29 11.461 17.276 11.322 17.232 11.201 17.166 11.092 17.087 11.001 16.993 10.919 16.898 10.849 16.791 10.78 16.69 10.715 16.592 10.658 16.509 10.606 16.43 10.559 16.359 10.519 16.315 10.48 16.302 10.45 16.311 10.437 16.342 10.424 16.386 10.415 16.442 10.407 16.606 10.407 16.672 10.398 16.73 10.381 16.765 10.35 16.778 10.298 16.76 9.999 16.765 9.929 16.778 9.89 16.791 9.877"/><polygon class="a" points="19.573 12.603 19.739 12.616 19.886 12.65 20.014 12.711 20.124 12.794 20.132 12.785 20.141 12.776 20.052 12.676 19.991 12.564 19.956 12.438 19.943 12.316 19.952 12.203 19.987 12.095 20.04 11.999 20.107 11.913 20.194 11.852 20.309 11.808 20.437 11.795 20.556 11.813 20.666 11.861 20.772 11.934 20.864 12.038 20.943 12.16 21.005 12.303 21.058 12.464 21.089 12.633 21.098 12.815 21.08 13.071 21.031 13.327 20.948 13.583 20.833 13.835 20.688 14.069 20.512 14.291 20.326 14.473 20.318 14.343 20.287 14.208 20.238 14.095 20.168 13.996 20.088 13.913 20.005 13.844 19.908 13.779 19.801 13.727 19.701 13.683 19.599 13.635 19.501 13.592 19.405 13.549 19.321 13.501 19.247 13.444 19.185 13.375 19.141 13.301 19.105 13.206 19.097 13.102 19.114 12.963 19.163 12.837 19.238 12.737 19.335 12.668 19.449 12.62 19.573 12.603"/><path class="a" d="M15.12893,12.67265l.18586.04774.202.07811.177.09981.15794.11283.13737.13453.10505.14321.08448.14755.06612.16057.03453.15623.014.16491-.014.13887-.03012.13019-.05289.12151-.07052.10415-.0933.09113-.10505.0651-.13223.0434-.14178.01736-.13223-.013-.12782-.03472-.11019-.05641L15.187,14.4519l-.07493-.09547-.058-.11283-.03893-.13019-.01322-.14755.01322-.12585.03526-.13453.05216-.13453.05363-.13453.05216-.13453.036-.13887.01322-.13887-.00955-.09547-.0213-.09547-.04922-.09547-.04848-.06509Zm.45914.53811-.03526.013-.01763.03038-.00882.0434v.05208l-.00514.05207-.01249.07377-.02277.07811-.00808.06944v.00434l.01249.07377.03967.06075.06171.0434.07493.013.08448-.01736.06612-.05208.04334-.07377.014-.08679-.014-.08245-.02645-.08245L15.782,13.341l-.0573-.06509-.06612-.04774Z" transform="translate(-0.18926 -0.14391)"/><polygon class="a" points="16.408 13.297 16.579 13.319 16.761 13.375 16.911 13.449 17.042 13.536 17.149 13.648 17.219 13.766 17.268 13.904 17.285 14.043 17.272 14.156 17.236 14.269 17.184 14.36 17.104 14.443 17.017 14.503 16.906 14.542 16.787 14.555 16.659 14.538 16.545 14.495 16.456 14.434 16.391 14.343 16.347 14.243 16.333 14.13 16.347 14.009 16.381 13.883 16.425 13.766 16.46 13.644 16.474 13.518 16.456 13.397 16.408 13.297"/><path class="a" d="M5.33537,13.50579h-.097l-.09256.0217-.07493.05208-.0573.06943-.03085.08245-.00441.09547.02645.09113.05289.07377.07052.05642.08375.03038.09256.00434.09256-.026.07493-.05207.06171-.0651.03085-.08679.00441-.09113v-.00434l-.02645-.08679-.05289-.07811-.07493-.05642-.07934-.03038Zm-.19394-.6683.10138.01736.09256.03906.07934.05642.07052.07377.04848.08245.03967.10415.12342-.06943.13223-.03472.119.00434.1146.03472.10138.06076.08375.09113.0573.10415.03526.12151-.00441.12151-.03526.11283L6.239,13.853l-.08815.07811-.10579.05641-.12782.03906-.07493.013.03085.09547.01763.09113v.13019l-.03526.11283-.06171.09547-.08815.07811-.10578.05641-.12782.03038-.12782.00434-.11019-.026-.09256-.04774-.08375-.07377-.0573-.09113-.04408-.12151-.12342.05208-.13223.026-.13223-.00434-.1146-.03472-.10138-.05642-.08815-.08679-.05289-.10415-.03085-.12151v-.11283l.02645-.09981.04848-.09113.07052-.08245.07934-.05642.08815-.0434.09256-.026.08815-.01736-.04408-.15189.00441-.13019.03526-.11717.05289-.09547.08375-.08679.097-.05641.119-.03472Z" transform="translate(-0.18926 -0.14391)"/><polygon class="a" points="13.948 13.77 14.12 13.783 14.307 13.827 14.462 13.893 14.596 13.986 14.687 14.092 14.747 14.203 14.767 14.317 14.751 14.406 14.714 14.494 14.661 14.56 14.574 14.613 14.479 14.649 14.36 14.662 14.232 14.644 14.13 14.6 14.05 14.525 13.996 14.437 13.98 14.339 13.996 14.216 14.029 14.097 14.045 13.982 14.034 13.898 13.996 13.814 13.948 13.77"/><path class="a" d="M11.16244,13.91791l-.04408.013-.04408.03906-.0573.04774-.07052.05207-.097.05208-.09256.0434L10.67318,14.2l-.07052.03038-.04848.03906-.03967.05208-.022.06509-.00441.09981-.00441.10415-.01322.09981-.00441.08245.00441.06075.01763.05208.04408.03038.06612.00868.097-.01736.10138-.0434.11019-.07377.10138-.09113.09256-.10415.08375-.12585.06171-.12585.04408-.13019.01322-.13453-.00881-.06943-.03085-.05208-.04848-.03038-.05289-.00868Zm-2.627-.50774.06612.013.05289.03906.05289.05641.0573.06509.1719.14321.18512.11283.18953.07811.21157.05207.2292.026.25124.00868.1719-.00868.16308-.026.141-.03472.12342-.05208.10138-.06075L10.779,13.753l.04848-.07377.01763-.07811-.01322-.08245-.04408-.06943-.0573-.05642L10.66,13.34074l-.07934-.05642-.08375-.04774-.08815-.05207-.07934-.06076-.07052-.06943-.05289-.07811-.03967-.09981-.01322-.10849.01322-.10415.04848-.13453.07493-.15189.09256-.13453.03085.14321.0573.14755.08375.12585.10138.10415.12782.08679.15427.06943.18072.07811.14545.08245.12342.08245.097.09547.06612.09981.05289.09981.03967.10849.022.10415.00882.11283.00441.11717-.00882.14321-.022.14321-.03526.15189-.05289.14321-.07052.14321-.08375.13453-.10579.12585-.12342.11717-.14545.10415-.15427.09113-.18512.07377-.20275.05641-.22039.03472-.24683.013-.238-.01736-.22039-.04774-.20716-.07811-.18953-.10415-.17631-.12151L8.83076,14.864l-.13664-.15623-.11019-.17359-.09256-.17358-.06612-.18226L8.38117,13.996,8.368,13.81376l.00441-.09981.01322-.09113L8.412,13.536l.03085-.0651.04408-.0434Z" transform="translate(-0.18926 -0.14391)"/><polygon class="a" points="2.735 8.979 2.779 8.992 2.801 9.022 2.81 9.07 2.806 9.139 2.801 9.23 2.788 9.352 2.784 9.5 2.779 9.677 2.784 9.808 2.797 9.907 2.819 9.973 2.846 10.02 2.876 10.051 2.907 10.059 2.942 10.064 2.947 10.064 2.991 10.046 3.035 10.003 3.066 9.929 3.092 9.842 3.119 9.738 3.145 9.621 3.167 9.487 3.189 9.361 3.216 9.226 3.242 9.096 3.273 8.966 3.308 8.849 3.348 8.744 3.392 8.662 3.441 8.593 3.493 8.558 3.56 8.54 3.612 8.558 3.648 8.597 3.67 8.662 3.674 8.74 3.665 8.896 3.639 9.066 3.608 9.235 3.568 9.408 3.538 9.573 3.511 9.734 3.502 9.864 3.511 9.955 3.529 10.02 3.573 10.055 3.617 10.064 3.661 10.042 3.701 9.994 3.736 9.916 3.78 9.821 3.819 9.703 3.864 9.578 3.912 9.439 3.956 9.291 4.009 9.144 4.058 8.996 4.111 8.857 4.159 8.731 4.212 8.614 4.265 8.523 4.318 8.449 4.37 8.406 4.415 8.389 4.472 8.406 4.512 8.441 4.534 8.497 4.542 8.562 4.534 8.662 4.507 8.783 4.472 8.922 4.423 9.079 4.37 9.239 4.313 9.408 4.26 9.573 4.207 9.73 4.159 9.877 4.124 10.012 4.097 10.12 4.088 10.211 4.093 10.255 4.115 10.294 4.155 10.302 4.207 10.285 4.269 10.237 4.331 10.168 4.397 10.077 4.468 9.973 4.534 9.851 4.595 9.721 4.657 9.591 4.714 9.46 4.767 9.335 4.811 9.213 4.847 9.109 4.9 8.974 4.952 8.879 5.014 8.827 5.067 8.805 5.111 8.818 5.151 8.862 5.182 8.935 5.195 9.04 5.186 9.161 5.16 9.3 5.12 9.46 5.067 9.638 5.005 9.825 4.93 10.02 4.851 10.22 4.767 10.42 4.679 10.615 4.587 10.801 4.498 10.979 4.41 11.149 4.313 11.331 4.221 11.522 4.124 11.713 4.04 11.899 3.961 12.082 3.903 12.255 3.864 12.42 3.85 12.559 3.855 12.641 3.864 12.733 3.89 12.824 3.93 12.915 3.992 13.015 4.071 13.114 4.155 13.193 4.005 13.184 3.85 13.162 3.718 13.127 3.612 13.075 3.515 13.006 3.432 12.902 3.344 12.741 3.247 12.945 3.194 13.11 3.163 13.266 3.154 13.405 3.167 13.535 3.198 13.653 3.242 13.757 3.304 13.861 3.374 13.956 3.454 14.043 3.538 14.126 3.626 14.208 3.714 14.286 3.802 14.364 3.886 14.442 3.965 14.525 4.036 14.612 4.088 14.698 4.137 14.794 4.168 14.898 4.185 15.007 4.181 15.128 4.15 15.258 4.102 15.401 4.031 15.54 4.009 15.514 3.956 15.467 3.89 15.419 3.811 15.367 3.718 15.306 3.621 15.241 3.515 15.163 3.41 15.076 3.308 14.98 3.203 14.868 3.106 14.742 3.022 14.603 2.942 14.442 2.876 14.264 2.828 14.065 2.797 13.848 2.784 13.605 2.797 13.362 2.837 13.136 2.903 12.919 2.982 12.715 3.075 12.52 3.18 12.342 3.291 12.168 3.396 12.008 3.507 11.856 3.612 11.713 3.709 11.578 3.789 11.448 3.855 11.327 3.895 11.214 3.908 11.101 3.895 10.997 3.85 10.897 3.771 10.814 3.679 10.728 3.608 10.65 3.551 10.58 3.502 10.524 3.454 10.48 3.392 10.446 3.313 10.437 3.255 10.45 3.194 10.498 3.145 10.563 3.11 10.645 3.088 10.741 3.084 10.845 3.11 10.953 3.158 11.062 3.216 11.157 3.264 11.231 3.282 11.309 3.273 11.374 3.247 11.461 3.203 11.557 3.15 11.652 3.088 11.752 3.017 11.847 2.942 11.93 2.863 11.99 2.793 12.03 2.726 12.047 2.665 12.03 2.603 11.986 2.55 11.904 2.497 11.8 2.449 11.661 2.409 11.491 2.378 11.305 2.356 11.088 2.339 10.849 2.334 10.584 2.339 10.385 2.347 10.185 2.365 9.99 2.392 9.808 2.422 9.638 2.453 9.478 2.497 9.335 2.541 9.209 2.585 9.109 2.634 9.04 2.687 8.996 2.735 8.979"/><path class="a" d="M8.79542,15.59294l-.07052.013-.06171.03472-.04848.05642-.01763.07884.01322.05569.04848.06582.0573.06.07934.06075.09256.05208.09256.0434.09256.03038.09256.0094h.00441l.07493-.01374.05289-.03038.02645-.0434.00882-.0434-.01322-.07811-.04848-.07811-.06171-.06943-.07493-.06075-.08375-.06076-.09256-.0434-.08375-.03038-.07934-.00868Zm-1.697-1.75755.14986.00868.13664.0217.13223.03906.119.06075.1146.08245.11019.11283.10138.14321.06612.11283.0573.13019.04848.13019.03967.13525.03526.12513.03085.11717.03085.09981.03526.08245.03967.04774.07493.0434.07934.02676.07934.00362.19394-.00868.15427.01808.14545.047.12782.06943.119.08679.10138.10415.08815.10849.06612.11355.04848.10777.03526.10415.00882.08245-.01322.09113-.03526.07377-.05289.05642-.07052.0434-.09256.03038-.10138.01736-.1146.00434-.15868-.013-.16308-.04267-.15868-.06075-.141-.07884L8.434,16.22652l-.10578-.09981-.07052-.10415L8.19157,15.888l-.05289-.16057-.04408-.1866-.03967-.2083-.03085-.13887-.0573-.12513L7.883,14.93765l-.10579-.10849L7.64942,14.725l-.15868-.09475-.18512-.07884-.20716-.06075-.15868-.0434L6.812,14.40822l-.09256-.0434-.06612-.03472L6.60479,14.291l-.022-.03472-.01322-.0434-.00441-.03906.01763-.08245.03967-.06943.07493-.06509.08375-.05208.10138-.03906.10578-.0217Z" transform="translate(-0.18926 -0.14391)"/><polygon class="a" points="13.882 13.327 13.759 13.336 13.635 13.366 13.516 13.427 13.393 13.54 13.477 13.557 13.538 13.588 13.591 13.627 13.626 13.683 13.644 13.757 13.635 13.818 13.609 13.865 13.56 13.909 13.503 13.939 13.428 13.97 13.345 13.996 13.253 14.022 13.155 14.048 13.058 14.082 12.957 14.117 12.86 14.165 12.763 14.226 12.679 14.295 12.604 14.377 12.538 14.486 12.489 14.607 12.459 14.759 12.45 14.929 12.463 15.089 12.507 15.25 12.578 15.402 12.683 15.553 12.802 15.692 12.948 15.818 13.12 15.931 13.309 16.022 13.516 16.092 13.749 16.135 13.992 16.148 14.186 16.139 14.358 16.113 14.504 16.074 14.623 16.022 14.711 15.957 14.768 15.883 14.786 15.805 14.777 15.753 14.737 15.727 14.698 15.71 14.649 15.705 14.605 15.697 14.566 15.688 14.543 15.671 14.535 15.645 14.548 15.606 14.579 15.549 14.61 15.488 14.623 15.419 14.614 15.371 14.579 15.323 14.521 15.306 14.46 15.315 14.388 15.341 14.305 15.376 14.208 15.415 14.089 15.449 13.954 15.484 13.804 15.51 13.621 15.519 13.472 15.51 13.331 15.48 13.199 15.428 13.08 15.367 12.979 15.289 12.904 15.198 12.855 15.102 12.838 14.994 12.846 14.942 12.868 14.92 12.899 14.907 12.97 14.924 13.054 14.937 13.098 14.92 13.115 14.881 13.12 14.811 13.12 14.768 13.124 14.716 13.133 14.66 13.146 14.603 13.168 14.56 13.203 14.529 13.248 14.516 13.279 14.525 13.314 14.547 13.367 14.581 13.424 14.629 13.495 14.681 13.578 14.742 13.68 14.803 13.794 14.859 13.93 14.911 14.081 14.959 14.262 14.994 14.46 15.02 14.684 15.028 14.813 15.024 14.953 15.02 15.112 15.002 15.271 14.981 15.434 14.955 15.588 14.916 15.729 14.868 15.853 14.811 15.927 14.759 15.919 14.898 15.891 15.059 15.848 15.232 15.786 15.402 15.707 15.571 15.61 15.727 15.5 15.883 15.368 16.031 15.218 16.165 15.05 16.283 14.87 16.387 14.667 16.469 14.446 16.534 14.208 16.573 13.948 16.586 13.68 16.573 13.428 16.53 13.195 16.465 12.979 16.374 12.785 16.265 12.6 16.139 12.437 15.992 12.295 15.836 12.172 15.662 12.066 15.484 11.978 15.289 11.908 15.093 11.859 14.894 11.828 14.694 11.819 14.49 11.833 14.252 11.877 14.022 11.943 13.792 12.035 13.575 12.15 13.375 12.287 13.18 12.441 13.006 12.622 12.846 12.816 12.707 13.027 12.585 13.256 12.49 13.498 12.42 13.746 12.377 14.015 12.36 14.151 12.364 14.275 12.386 14.385 12.412 14.477 12.451 14.548 12.494 14.587 12.542 14.605 12.594 14.592 12.633 14.557 12.663 14.508 12.689 14.443 12.702 14.367 12.72 14.292 12.733 14.222 12.754 14.156 12.785 14.111 12.828 14.076 12.906 14.094 12.911 14.222 12.932 14.324 12.963 14.398 12.997 14.451 13.036 14.481 13.076 14.504 13.115 14.508 13.149 14.495 13.214 14.468 13.266 14.419 13.301 14.362 13.332 14.3 13.345 14.23 13.349 14.063 13.34 13.882 13.327"/><polygon class="a" points="16.09 16.243 16.25 16.248 16.395 16.265 16.522 16.295 16.637 16.334 16.725 16.382 16.796 16.434 16.836 16.499 16.849 16.569 16.849 16.738 16.84 16.816 16.818 16.89 16.779 16.946 16.651 17.029 16.509 17.098 16.342 17.146 16.17 17.176 15.985 17.185 15.817 17.176 15.668 17.155 15.531 17.12 15.42 17.077 15.337 17.029 15.284 16.972 15.266 16.92 15.266 16.573 15.279 16.534 15.315 16.486 15.381 16.43 15.473 16.378 15.588 16.326 15.734 16.282 15.896 16.252 16.09 16.243"/><path class="a" d="M18.7877,13.97866l.14986.00868.14986.026.14986.0434.14619.06075.1315.07811.12342.09981.1146.11717.097.13453.07934.15189.06171.17792.03967.19094.01322.217-.01322.17359-.03967.16925-.06171.17793-.08375.17792-.097.17358-.11019.16925-.119.16491-.12782.16057-.13223.14755-.13664.13887-.12782.12585-.12342.10849-.119.09547-.10138.07811-.08375.05208-.06979.03472-.04481.013-.07934-.01736-.07934-.04774-.07493-.07377-.05289-.08245-.04408-.08679-.01322-.08245.00441-.03038.014-.03472.02571-.03472.04848-.03472.07052-.03472.22553-.10415.21083-.13453.17631-.13887.155-.15623.12709-.15623.10578-.16057.07052-.15189.04849-.13453.01322-.12585L19.396,15.567l-.02645-.05208-.04848-.03906-.06612-.013-.03967.0217-.03967.0434-.05289.06509-.06171.08679-.07052.10415-.06979.11283-.08522.11717-.09183.12151-.097.11717-.10138.11283-.11019.10415-.11019.08679-.11019.06075-.119.0434-.119.01736-.13223-.013-.13664-.03472-.12709-.05642-.11534-.06509-.10505-.07377-.08889-.08245-.06538-.07811-.0404-.07377-.014-.06075.01837-.05642.036-.06509.06979-.06943.08448-.07811.10064-.08245.11533-.08679.11827-.08679.119-.08679.119-.09113.1146-.09113.10138-.09113.08375-.09113.07567-.08679.0382-.09113.01837-.08679-.00882-.08245-.02645-.05208-.03526-.026-.03526-.013h-.04848l-.03967.013-.06171.04774-.07493.06075-.08375.08245-.097.09547-.11019.10415-.1146.10849-.12342.11717-.12782.10849-.12782.10415-.13223.09547-.12342.07811-.12782.06076-.12342.0434-.11093.013-.04775-.013L16.5361,15.81l-.0404-.06076L16.456,15.6798l-.02645-.08245-.0213-.08245-.00514-.08245.00882-.05642.02718-.04774.05216-.03906.08375-.03906.12342-.034L16.91,15.159l.18072-.06943.15868-.07811.13737-.09113.11387-.09113.10138-.09547.09256-.09981.08375-.09981.0786-.09547.08081-.09113.083-.08679.09256-.07811.10138-.0651.11019-.06075.13223-.03906.14986-.03038.18072-.00868Zm.2292.29076-.06538.00868-.06244.03906-.05363.05208-.03379.08245-.014.10849.014.10849.03379.09113.05363.07811.0573.06076.06171.04774.0573.03038.0977.03906.12268.01736.10579-.00434.097-.01736.07567-.03038.06538-.04774.04408-.0651.01322-.08245-.01322-.09113-.04408-.09113-.07052-.08679L19.4753,14.443l-.10138-.07377-.1146-.05208-.119-.03472Z" transform="translate(-0.18926 -0.14391)"/><polygon class="a" points="8.685 16.773 8.734 16.777 8.782 16.781 8.831 16.79 8.888 16.799 8.963 16.807 9.06 16.812 9.192 16.816 9.338 16.803 9.457 16.768 9.558 16.712 9.642 16.643 9.708 16.56 9.77 16.465 9.823 16.365 9.871 16.265 9.92 16.161 9.968 16.061 10.021 15.974 10.083 15.892 10.162 15.822 10.246 15.775 10.356 15.74 10.484 15.727 10.554 15.736 10.647 15.762 10.744 15.805 10.828 15.861 10.903 15.953 10.977 15.827 10.995 15.718 10.982 15.627 10.955 15.545 10.929 15.462 10.916 15.384 10.929 15.302 10.964 15.245 11.022 15.206 11.092 15.193 11.167 15.206 11.224 15.241 11.264 15.297 11.295 15.358 11.317 15.453 11.405 15.393 11.489 15.375 11.564 15.388 11.625 15.419 11.674 15.475 11.705 15.536 11.714 15.601 11.7 15.675 11.665 15.736 11.599 15.801 11.687 15.861 11.731 15.922 11.749 16.005 11.731 16.083 11.696 16.143 11.634 16.178 11.555 16.196 11.498 16.183 11.445 16.148 11.392 16.113 11.33 16.078 11.26 16.065 11.189 16.074 11.123 16.1 11.074 16.148 11.123 16.308 11.141 16.452 11.123 16.603 11.07 16.747 10.995 16.881 10.885 17.011 10.757 17.124 10.603 17.224 10.44 17.311 10.255 17.38 10.061 17.432 9.862 17.463 9.655 17.476 9.457 17.463 9.285 17.432 9.131 17.385 9.003 17.324 8.897 17.259 8.804 17.185 8.734 17.103 8.685 17.024 8.646 16.951 8.628 16.881 8.619 16.829 8.628 16.799 8.646 16.781 8.685 16.773"/><polygon class="a" points="4.983 14.985 4.948 15.176 4.926 15.389 4.93 15.597 4.956 15.801 5.001 15.996 5.067 16.183 5.15 16.352 5.261 16.517 5.384 16.66 5.525 16.79 5.689 16.903 5.869 16.99 6.067 17.055 6.288 17.094 6.517 17.107 6.702 17.094 6.874 17.064 7.015 17.007 7.138 16.929 7.24 16.834 7.319 16.716 7.373 16.586 7.407 16.434 7.417 16.27 7.403 16.096 7.367 15.922 7.315 15.757 7.235 15.601 7.129 15.462 7.01 15.341 6.874 15.237 6.715 15.163 6.539 15.115 6.346 15.098 6.178 15.115 6.041 15.159 5.922 15.232 5.834 15.323 5.776 15.436 5.759 15.566 5.776 15.727 5.82 15.866 5.9 15.996 5.997 16.096 6.107 16.183 6.24 16.243 6.376 16.283 6.526 16.296 6.671 16.283 6.786 16.248 6.874 16.187 6.935 16.109 6.953 16.013 6.949 15.961 6.927 15.909 6.847 15.931 6.755 15.94 6.614 15.927 6.482 15.888 6.376 15.831 6.288 15.762 6.235 15.684 6.217 15.601 6.235 15.51 6.279 15.445 6.346 15.406 6.433 15.389 6.574 15.406 6.706 15.449 6.822 15.514 6.922 15.601 7.01 15.705 7.077 15.814 7.129 15.931 7.16 16.048 7.174 16.157 7.16 16.278 7.129 16.395 7.072 16.495 7.002 16.591 6.909 16.664 6.799 16.721 6.667 16.76 6.526 16.773 6.314 16.76 6.129 16.716 5.957 16.651 5.812 16.573 5.679 16.469 5.569 16.356 5.481 16.23 5.406 16.1 5.344 15.966 5.305 15.831 5.283 15.705 5.274 15.58 5.291 15.419 5.335 15.263 5.406 15.133 5.499 15.011 5.613 14.911 5.737 14.833 5.882 14.772 6.032 14.738 6.195 14.725 6.415 14.742 6.623 14.785 6.822 14.863 7.002 14.968 7.169 15.089 7.319 15.245 7.448 15.423 7.561 15.614 7.65 15.836 7.716 16.07 7.76 16.322 7.773 16.591 7.769 16.703 7.755 16.816 7.729 16.933 7.694 17.055 7.645 17.172 7.583 17.285 7.509 17.393 7.417 17.498 7.301 17.589 7.174 17.663 7.02 17.732 6.847 17.78 6.653 17.81 6.433 17.823 6.182 17.81 5.948 17.767 5.728 17.702 5.521 17.615 5.331 17.506 5.155 17.389 4.996 17.255 4.851 17.107 4.727 16.951 4.626 16.79 4.538 16.63 4.467 16.465 4.414 16.304 4.383 16.152 4.375 16.005 4.389 15.814 4.428 15.645 4.485 15.488 4.56 15.354 4.643 15.232 4.736 15.137 4.833 15.059 4.921 15.007 4.983 14.985"/><path class="a" d="M16.91457,17.81078h-.00441l-.02645.00868-.04775.026-.07126.03472-.09256.0434-.119.0434-.14472.03472-.17264.026-.20275.00868h-.11019l.01322.18226-.01322.17793-.03453.17358-.05877.19528.22553-.013.18953-.03472.15868-.05208.13664-.06075.12268-.07811.119-.08679.08889-.09113.07052-.09981.03967-.09113.022-.09113.00882-.08679-.00441-.07377-.014-.0434-.0213-.03038-.03085-.01736-.02645-.00434Zm-1.58678-.26472.02645.00868.04775.01736.07126.0217.08375.026.11534.0217.1359.01736.15868.00868.23728-.013.22112-.03038.19835-.04774L16.8,17.51569l.14986-.06509.13664-.06944.1146-.07377.09256-.06509.06685-.04774.061.00868.07052.0217.06612.03906.06171.05642.05216.07811.04481.09113.03085.10849.00882.13887-.01763.15623-.05289.16925-.08815.16057-.11093.16057-.14913.16057-.1719.14755-.20349.13453-.21965.12585-.24242.10849-.26446.08679-.2865.06943-.29605.0434-.31295.013-.14913-.013-.13664-.03906-.11019-.05642-.0933-.06943-.06979-.08679-.05363-.09547-.03379-.10849-.00955-.10415.01763-.204.04848-.19094.07052-.17792.08815-.16057.08815-.14321.09256-.11717.06685-.0651.061-.05207.058-.03038Z" transform="translate(-0.18926 -0.14391)"/><path class="a" d="M13.4147,17.637l-.097.013-.08815.04774-.06171.06076-.04848.08679-.01322.09547.01322.09547.04848.08679.06171.0651.08815.0434.097.01736.097-.01736.08889-.0434.06538-.0651L13.71,18.0363l.01763-.09547L13.71,17.84535l-.04408-.08679-.06538-.06076-.08889-.04774-.097-.013Zm-6.39558.68566.07493.013.12342.00868.119.00434.216-.013L7.7508,18.301l.16749-.05642.14545-.08245.119-.09981.097-.11717.06612-.13887.03967-.15623.01322-.16925-.01322-.18226.06171.026.08815.05208.10138.07811.10578.09547.10578.11717.097.13887.08815.15189.07052.17792.04848.19528.02645.03472.0573.03472.07493.026.08815.0217.10138.01736.097.013h.18072l.097-.013.09256-.026.09256-.0434.08815-.05641.07052-.07377.06612-.09113.04848-.11283.02645-.12151.25124-.03472.238-.06075.22039-.08245.20275-.10415.18072-.13019.15427-.14321.13223-.15623L11.85,17.0512l.07934-.18227.04848-.18226.12782.04774.13664.07377.13223.07811.12342.09113.10138.08679.08375.08679.0573.07377.21157-.05208.24242-.01736.18512.00868.18953.026.216.0434.24169.06943.014-.06509.00882-.04774.01763-.0434.02645-.03472.03967-.0217.06171-.00868.06612.00868.04848.026.02645.03906.022.05641.01322.06076.01322.06509.01249.06075.02277.06076.036.03472.04334.03472.05216.03472.04922.0434.03159.04774.01249.06075-.01249.06943-.03159.04774-.04408.03472-.04848.01736-.04408.00868-.09256-.01736-.03526.03038-.03085.05641-.02645.07377-.02645.09113-.03085.10415-.03526.10849-.03453.11717-.04922.11283-.05289.11283-.06171.09547-.08007.08245-.08742.06509-.10578.03906-.119.01736-.16749-.01736-.16308-.04774-.15427-.07811-.14545-.09547-.13223-.12585-.119-.14321-.097-.15623-.07934-.16925-.05289-.09981-.06612-.06943-.07934-.04774-.08375-.01736-.07052.00434-.06612.013-.06171.03038-.06612.05208-.07934.07811-.16309.16057-.18512.14755-.20716.13453-.22479.12151-.25124.09981-.26887.07377-.28209.04774-.29972.01736-.14545-.00434-.12782-.00434-.10578-.00434-.07934-.00434H9.48743l-.00882.0217.01763.03472.03526.03472.06171.0434.08815.0434.11019.03906.141.03472.16749.0217.19394.00868.26446-.00868.24242-.03038.21157-.04774.18512-.05641.16308-.06944.14986-.07377.12342-.08245.10579-.07377.09256-.07377.07934-.06943.06612-.05641.06171-.04774.04408-.026.04408-.00868h.02645l.03085.00868.03526.01736.04408.03038.03085.05207.09256.18226.11019.15189.119.13019.12782.10849.13664.09547.14545.06943.141.05208.141.03906.13664.026.13223.013.119.00434h.1146l.08889-.00434.06538-.00434.04408-.00434.03526-.00434.03085-.00434.03085-.00434h.03967l.04848.00868.03085.013.01763.0217.00882.026v.026l-.0169.05641-.04481.06075-.08375.05641-.11019.05642-.14545.04774-.1719.03906-.19835.026-.2292.00868-.14986-.013-.13223-.03472-.119-.05208-.09256-.06075-.07493-.07811-.05289-.08679-.04848-.10415-.21157.12151-.2292.10415-.24683.09547-.26887.07377-.26887.04774-.28209.01736-.29091-.00868-.26005-.026-.23361-.03472-.21157-.05208-.18953-.05641-.1719-.06943-.15427-.06943-.13664-.07811-.12342-.07811-.119-.07377-.10578-.07811-.10138-.06944-.09256-.06943-.10138-.06075-.09256-.04774-.07934-.026L8.51774,18.952l-.09256-.00868L8.3238,18.9346,8.218,18.93026l-.11019-.00868-.1146-.01736-.12342-.026-.13223-.03906-.13664-.06075-.141-.07811L7.31,18.59611l-.15427-.13453Z" transform="translate(-0.18926 -0.14391)"/></svg>