<svg id="Comments" xmlns="http://www.w3.org/2000/svg" viewBox="0 0 79.72 70.83"><defs><style>.cls-1{fill:#0085ca;}</style></defs><title>comments</title><circle class="cls-1" cx="21.51" cy="31.09" r="4.45"/><circle class="cls-1" cx="39.73" cy="31.09" r="4.45"/><circle class="cls-1" cx="57.94" cy="31.09" r="4.45"/><path class="cls-1" d="M64.75,14a12,12,0,0,1,12,12V55.18a12,12,0,0,1-12,12H14.87L14,68,3,78.48V26A12,12,0,0,1,15,14H64.75m0-3H15A15,15,0,0,0,0,26V79.1a2.73,2.73,0,0,0,4.62,2L16.07,70.15H64.75a15,15,0,0,0,15-15V26a15,15,0,0,0-15-15h0Z" transform="translate(0 -11)"/></svg>