<svg id="Layer_1" data-name="Layer 1" xmlns="http://www.w3.org/2000/svg" viewBox="0 0 84.6 84.65"><defs><style>.cls-1{fill:none;stroke:#0085ca;stroke-linecap:round;stroke-linejoin:round;stroke-width:1.5px;isolation:isolate;}.cls-2{fill:#0085ca;}</style></defs><title>website</title><path class="cls-1" d="M42.29.75A40,40,0,0,0,12.92,12.89c-.78.78-1.53,1.57-2.24,2.38a39.83,39.83,0,0,0-9.93,27,39.83,39.83,0,0,0,9.93,27c.71.82,1.46,1.6,2.24,2.39A40,40,0,0,0,42.29,83.89,40,40,0,0,0,71.67,71.67,40,40,0,0,0,83.84,42.29a40,40,0,0,0-12.17-29.4A40,40,0,0,0,42.29.75Z" transform="translate(0.01 0.01)"/><path class="cls-2" d="M42.53,49a7.36,7.36,0,0,1-2.1,6.39L36.32,59.5A7.47,7.47,0,1,1,25.75,48.93l4.12-4.12a7.42,7.42,0,0,1,5.28-2.19,7.57,7.57,0,0,1,1.11.09l1.53-1.53a9.32,9.32,0,0,0-2.63-.38,9.22,9.22,0,0,0-6.56,2.72l-4.12,4.12A9.28,9.28,0,1,0,37.6,60.78l4.12-4.12a9.22,9.22,0,0,0,2.72-6.56,9.36,9.36,0,0,0-.38-2.63ZM60.78,24.47a9.28,9.28,0,0,0-13.13,0l-4.12,4.12a9.22,9.22,0,0,0-2.72,6.57,9.32,9.32,0,0,0,.38,2.63l1.53-1.53a7.57,7.57,0,0,1-.09-1.11,7.42,7.42,0,0,1,2.19-5.28l4.12-4.12A7.47,7.47,0,1,1,59.5,36.32l-4.12,4.12a7.42,7.42,0,0,1-5.28,2.19,7.57,7.57,0,0,1-1.1-.09l-1.53,1.53a9.32,9.32,0,0,0,2.63.38,9.22,9.22,0,0,0,6.57-2.72l4.12-4.12a9.28,9.28,0,0,0,0-13.13ZM36,50.53,50.53,36l-1.28-1.28L34.72,49.24Z" transform="translate(0.01 0.01)"/></svg>