<svg id="Like" xmlns="http://www.w3.org/2000/svg" viewBox="0 0 79.14 88.61"><defs><style>.cls-1{fill:none;stroke:#bababa;stroke-miterlimit:10;stroke-width:3px;}</style></defs><title>Like-Grey</title><rect class="cls-1" x="42.31" y="31.36" width="33.89" height="14.71" rx="7.35" ry="7.35"/><rect class="cls-1" x="38.95" y="46.07" width="38.69" height="13.99" rx="7" ry="7"/><rect class="cls-1" x="38.95" y="60.06" width="38.69" height="14.21" rx="7.11" ry="7.11"/><rect class="cls-1" x="41.85" y="74.27" width="30.84" height="12.83" rx="6.42" ry="6.42"/><path class="cls-1" d="M51,87.54H29.93a27.88,27.88,0,0,1-15.59-51l10.5-8.3L37.91,8.43,37.68,2.66c8-3.16,11.9,5,11.9,5,6,15.34-8.43,27.09-8.43,27.09C42.73,59,24.39,60.49,24.39,60.49" transform="translate(-0.56 -0.43)"/></svg>