<svg xmlns="http://www.w3.org/2000/svg" width="24" height="27" viewBox="0 0 24 27">
    <g fill="#0B3383" fill-rule="nonzero">
        <path d="M.043 25.298h23.512v1H.043zM18.914 5.702c-1.553 0-2.816-1.28-2.816-2.851C16.098 1.279 17.36 0 18.914 0c1.554 0 2.817 1.279 2.817 2.85 0 1.573-1.263 2.852-2.817 2.852zm0-4.871c-1.1 0-1.995.906-1.995 2.02 0 1.114.895 2.02 1.995 2.02 1.101 0 1.996-.906 1.996-2.02 0-1.114-.895-2.02-1.996-2.02zM18.505 17.115h1v7.306h-1zM15.926 14.332h1v10.089h-1zM21.083 14.332h1v10.089h-1z"/>
        <path d="M23.965 16.139h-2.472v-.831h1.652V9.635c0-.586-.226-1.137-.636-1.551a2.14 2.14 0 0 0-1.532-.643h-.25l-1.812 1.835-1.813-1.835h-.25c-.579 0-1.123.229-1.532.643-.41.414-.635.965-.635 1.551v5.673h1.652v.83h-2.473V9.636c0-.808.31-1.567.875-2.139a2.951 2.951 0 0 1 2.113-.886h.59l1.472 1.49 1.472-1.49h.59a2.95 2.95 0 0 1 2.114.886c.565.572.875 1.331.875 2.14v6.503z"/>
        <path d="M18.504 9.983h1v1h-1zM18.504 11.83h1v1h-1z"/>
        <g>
            <path d="M2.278 24.421h-.82v-4.57H4.24v.83H2.278zM5.927 24.421h-.82v-11.19h2.782v.83H5.927zM9.576 24.421h-.82V6.611h4.059v.83H9.576z"/>
            <g>
                <path d="M12.404 17.703h1v6.718h-1z"/>
                <path d="M13.984 19.474l-1.17-1.184-1.169 1.184-.58-.588 1.75-1.771 1.75 1.771z"/>
            </g>
        </g>
    </g>
</svg>
