<svg xmlns="http://www.w3.org/2000/svg" width="24" height="24" viewBox="0 0 24 24">
    <g fill="#0B3383" fill-rule="evenodd">
        <path fill-rule="nonzero" d="M12.116.307c3.261 0 6.214 1.321 8.35 3.459a11.773 11.773 0 0 1 3.46 8.35c0 3.261-1.322 6.214-3.46 8.35a11.773 11.773 0 0 1-8.35 3.46 11.773 11.773 0 0 1-8.35-3.46 11.773 11.773 0 0 1-3.46-8.35c0-3.26 1.322-6.213 3.46-8.35a11.773 11.773 0 0 1 8.35-3.46zM19.8 4.434a10.83 10.83 0 0 0-7.683-3.183c-3 0-5.716 1.216-7.682 3.183a10.83 10.83 0 0 0-3.183 7.682c0 3 1.216 5.717 3.183 7.683a10.83 10.83 0 0 0 7.682 3.182c3 0 5.717-1.216 7.683-3.182a10.83 10.83 0 0 0 3.182-7.683c0-3-1.216-5.716-3.182-7.682z"/>
        <path d="M8.303 8.303a.978.978 0 1 1 0 1.957.978.978 0 0 1 0-1.957zM15.93 8.303a.978.978 0 1 1 0 1.957.978.978 0 0 1 0-1.957z"/>
        <path fill-rule="nonzero" d="M17.828 14.706a.47.47 0 0 0-.86-.38c-.506 1.138-1.401 1.943-2.457 2.412a5.92 5.92 0 0 1-2.395.494 5.92 5.92 0 0 1-2.394-.494c-1.056-.47-1.952-1.274-2.458-2.412a.47.47 0 0 0-.86.38c.609 1.368 1.679 2.332 2.938 2.892a6.86 6.86 0 0 0 2.774.579 6.86 6.86 0 0 0 2.775-.58c1.259-.559 2.329-1.523 2.937-2.891z"/>
    </g>
</svg>
