<svg id="Layer_2" data-name="Layer 2" xmlns="http://www.w3.org/2000/svg" viewBox="0 0 84.46 84.46"><defs><style>.cls-1{fill:#005eb8;}</style></defs><title>Next</title><path class="cls-1" d="M42.36,0.8A41.43,41.43,0,1,1,.93,42.23,41.48,41.48,0,0,1,42.36.8m0-.8A42.23,42.23,0,1,0,84.59,42.23,42.23,42.23,0,0,0,42.36,0h0Z" transform="translate(-0.13)"/><path class="cls-1" d="M32.63,24A1.67,1.67,0,0,1,35,24L52.09,41a1.67,1.67,0,0,1,0,2.41L35,60.49a1.67,1.67,0,0,1-2.41,0,1.67,1.67,0,0,1,0-2.41L48.47,42.23,32.63,26.38A1.67,1.67,0,0,1,32.63,24Z" transform="translate(-0.13)"/></svg>