<svg xmlns="http://www.w3.org/2000/svg" width="32" height="32" viewBox="0 0 32 32">
  <g fill="none" fill-rule="evenodd" transform="translate(1 1)">
    <path stroke="#2FA7DF" stroke-linecap="round" stroke-linejoin="round" d="M15.1,0.27 C11,0.27 7.5,1.72 4.62,4.62 C4.34,4.9 4.07,5.18 3.82,5.47 C1.45,8.2 0.27,11.4 0.27,15.1 C0.27,18.8 1.45,22.02 3.82,24.74 C4.07,25.04 4.34,25.32 4.62,25.6 C7.52,28.5 11.02,29.94 15.12,29.94 C19.2,29.94 22.7,28.49 25.59,25.6 C28.49,22.7 29.93,19.2 29.93,15.1 C29.93,11 28.5,7.53 25.6,4.63 C22.7,1.73 19.2,0.28 15.1,0.28 L15.1,0.27 Z"/>
    <path fill="#2FA7DF" fill-rule="nonzero" d="M22.38,10.77 C22.94,10.2 23.38,9.67 23.71,9.19 C23.21,9.35 22.67,9.49 22.11,9.67 L21.51,9.77 L21.37,9.62 C20.67,8.9 19.82,8.55 18.82,8.56 C17.82,8.56 16.97,8.9 16.27,9.62 C15.57,10.32 15.2,11.17 15.22,12.17 C15.22,12.44 15.24,12.69 15.29,12.95 C12.34,12.99 9.85,11.78 7.82,9.32 C7.04,11.05 7.37,12.65 8.78,14.14 C8.26971079,14.159626 7.76507476,14.0273765 7.33,13.76 L7.3,13.74 C7.32,13.94 7.34,14.16 7.38,14.34 C7.65,15.71 8.58,16.7 10.18,17.32 C9.43,17.65 8.72,17.64 8.05,17.28 C8.75,18.71 10.02,19.58 11.85,19.88 C10.57,20.91 9.11,21.42 7.47,21.38 C8.97,22.32 10.7,22.78 12.59,22.78 L13.09,22.78 C15.64,22.63 17.83,21.66 19.65,19.84 C21.61,17.9 22.59,15.54 22.59,12.77 C22.59,12.47 22.57,12.19 22.56,11.91 C23.18,11.57 23.73,11.03 24.21,10.31 C23.6479996,10.5813772 23.0339771,10.7280603 22.41,10.74"/>
  </g>
</svg>
