<svg xmlns="http://www.w3.org/2000/svg" width="31" height="32" viewBox="0 0 31 32">
    <g fill="none" fill-rule="evenodd">
        <path stroke="#345DB4" stroke-linecap="round" stroke-linejoin="round" d="M26.129 5.616c-2.908-2.899-6.416-4.348-10.523-4.348-3.635 0-6.798 1.131-9.49 3.408a11.92 11.92 0 0 0-1.032.94C2.176 8.516.722 12.012.722 16.106s1.454 7.59 4.362 10.49c.331.343.676.66 1.033.953 2.691 2.264 5.854 3.395 9.489 3.395 2.258 0 4.324-.432 6.224-1.31.51-.241 1.008-.508 1.505-.813a15.657 15.657 0 0 0 2.794-2.225c.28-.28.548-.56.803-.852 2.372-2.721 3.559-5.938 3.559-9.638 0-.254 0-.509-.013-.75l-.038-.585c-.255-3.14-1.429-5.913-3.508-8.303a17.048 17.048 0 0 0-.803-.852z"/>
        <path fill="#345DB4" d="M13.746 22.997h2.509v-6.87h1.882l.372-2.147h-2.254v-1.555c0-.502.325-1.028.79-1.028h1.281V9.25h-1.57c-2.457.099-2.962 1.517-3.006 3.007l-.004 1.723H12.49v2.147h1.255v6.87z"/>
    </g>
</svg>
