<?xml version="1.0" encoding="UTF-8" standalone="no"?>
<svg width="48px" height="23px" viewBox="0 0 48 23" version="1.1" xmlns="http://www.w3.org/2000/svg" xmlns:xlink="http://www.w3.org/1999/xlink">
    <!-- Generator: sketchtool 3.8.3 (29802) - http://www.bohemiancoding.com/sketch -->
    <title>A4245862-772A-4793-AAB1-5C2D2DB848B9</title>
    <desc>Created with sketchtool.</desc>
    <defs></defs>
    <g id="Homepage-v1.04" stroke="none" stroke-width="1" fill="none" fill-rule="evenodd">
        <g id="02-Desktop-Home-Panel-2" transform="translate(-309.000000, -252.000000)" fill="#FFFFFF">
            <g id="Panel-2">
                <g id="Marketing-&amp;-ADTech" transform="translate(288.000000, 0.000000)">
                    <path d="M63.6750913,252.019884 C63.3485653,251.973237 63.0686859,252.159823 62.9753927,252.486349 C62.9287462,252.812875 63.1153325,253.092755 63.4418585,253.186048 L66.7979734,253.207297 L47.5241849,271.850526 L29.511515,263.141355 L21.2084252,273.973775 C20.9751924,274.160362 20.9285458,274.533534 21.1151321,274.813414 C21.2084252,274.953353 21.3950115,275 21.5815978,275 C21.7215375,275 21.8614772,274.953353 21.9547704,274.86006 L29.6048081,264.540752 L47.617478,273.249923 L67.5378221,253.996545 L67.3426566,257.200063 C67.29601,257.526589 67.4825963,257.806468 67.8091223,257.853115 C68.1822949,257.853115 68.4155278,257.666529 68.4621743,257.386649 L69,252.181072 L63.6750913,252.019884 Z" id="Icon-MnA"></path>
                </g>
            </g>
        </g>
    </g>
</svg>