<?xml version="1.0" encoding="UTF-8" standalone="no"?>
<svg width="20px" height="34px" viewBox="0 0 20 34" version="1.1" xmlns="http://www.w3.org/2000/svg" xmlns:xlink="http://www.w3.org/1999/xlink">
    <!-- Generator: sketchtool 3.8.3 (29802) - http://www.bohemiancoding.com/sketch -->
    <title>7370EF75-78FD-4637-814E-4A9000F248F9</title>
    <desc>Created with sketchtool.</desc>
    <defs></defs>
    <g id="Homepage-v1.04" stroke="none" stroke-width="1" fill="none" fill-rule="evenodd">
        <g id="01-Desktop-Home-Panel-1" transform="translate(-710.000000, -679.000000)" stroke-width="0.2" stroke="#FFFFFF" fill="#FFFFFF">
            <g id="Screen-Shot-2016-04-07-at-16.39.15-+-Rectangle-59-Mask">
                <path d="M720.574903,681.980384 L720.57613,680.564076 C720.574903,680.252201 720.317393,679.998778 720.000205,680.000004 C719.684652,680.000004 719.42428,680.251384 719.427141,680.568163 L719.428368,681.982428 C714.733497,682.286945 710.997957,686.20683 711.000001,691.034134 L711.000001,702.825264 C710.997957,707.844679 715.034335,711.92929 719.998979,711.92929 C724.959534,711.92929 728.997956,707.847132 728.999183,702.82322 L729,691.034134 C728.997956,686.208874 725.26446,682.288989 720.574903,681.980384 L720.574903,681.980384 Z M727.853464,702.822403 C727.853464,707.220522 724.332107,710.795834 719.998979,710.795834 C715.66912,710.795016 712.145719,707.220522 712.146537,702.82322 L712.145719,691.034952 C712.146537,686.634789 715.669937,683.057433 719.998161,683.05539 C724.328837,683.056207 727.852647,686.634789 727.852647,691.034952 L727.853464,702.822403 Z M720.000205,685.780916 C719.682608,685.780916 719.428368,686.03393 719.426324,686.349074 L719.426324,690.178626 C719.426324,690.492544 719.682608,690.746785 720.000205,690.746785 C720.317393,690.748011 720.573677,690.492544 720.573677,690.178626 L720.573677,686.349074 C720.57613,686.031886 720.315349,685.780916 720.000205,685.780916 L720.000205,685.780916 Z" id="Icon-Mouse"></path>
            </g>
        </g>
    </g>
</svg>