<?xml version="1.0" encoding="UTF-8" standalone="no"?>
<svg width="74px" height="75px" viewBox="0 0 74 75" version="1.1" xmlns="http://www.w3.org/2000/svg" xmlns:xlink="http://www.w3.org/1999/xlink">
    <!-- Generator: sketchtool 3.8.3 (29802) - http://www.bohemiancoding.com/sketch -->
    <title>7B715A3F-7ED1-4808-92A0-98EC3FB26725</title>
    <desc>Created with sketchtool.</desc>
    <defs></defs>
    <g id="Symbols" stroke="none" stroke-width="1" fill="none" fill-rule="evenodd">
        <g id="Logo-foundry-white" fill="#FFFFFF">
            <g>
                <path d="M27.7243158,1.95 C26.5474075,1.95 25.4747158,2.61975309 24.9246492,3.69814815 L2.0987325,48.3490741 C1.19716583,50.116358 1.6473325,52.7688272 3.0820075,54.1401235 L12.9141408,63.5277778 C13.9091325,64.4768519 15.6108242,65.0901235 17.2493075,65.0901235 C17.9390492,65.0901235 18.5899408,64.979321 19.1322992,64.7700617 L63.6417575,47.6061728 C64.4933742,47.2783951 65.1556742,46.6416667 65.5077908,45.812037 C65.8595992,44.9817901 65.8571325,44.0611111 65.5003908,43.2194444 L56.1831742,21.2240741 C55.3352575,19.2234568 53.0458825,16.5910494 51.1841658,15.4759259 L29.3843825,2.41851852 C28.8728575,2.11203704 28.2987408,1.95 27.7243158,1.95 M17.2493075,66.7314815 L17.2493075,66.7314815 C15.1813158,66.7314815 13.0864992,65.9592593 11.7825575,64.7157407 L1.9498075,55.3277778 C0.00299083333,53.4666667 -0.585309167,50.0009259 0.638465833,47.6018519 L23.4646908,2.95123457 C24.2956492,1.3212963 25.9282742,0.308641975 27.7243158,0.308641975 C28.5953575,0.308641975 29.4605408,0.550925926 30.2267492,1.00987654 L52.0259158,14.067284 C54.1728408,15.3530864 56.7150492,18.2759259 57.6927742,20.5830247 L67.0102992,42.5783951 C67.5418658,43.8333333 67.5443325,45.2098765 67.0170825,46.4530864 C66.4898325,47.6962963 65.5003908,48.6493827 64.2306742,49.1382716 L19.7221408,66.3015432 C18.9836825,66.5867284 18.1517992,66.7314815 17.2493075,66.7314815" id="Fill-1"></path>
                <path d="M16.784495,11.5460494 C14.951145,11.5460494 12.990145,12.7176543 12.2230117,14.2710494 L6.213595,26.4698148 C5.31480333,28.2979012 5.623445,31.188642 6.88822833,32.7812346 L36.5579117,70.1651852 C37.1933867,70.9667284 38.1368867,71.4266049 39.1476033,71.4266049 C39.9286117,71.4266049 40.6914283,71.1432716 41.2948367,70.6281481 L59.4784867,55.1531481 C61.1323867,53.7451235 62.9574117,50.7719753 63.463695,48.6596296 L69.3941783,23.9327778 C69.6063117,23.0482099 69.45677,22.1571605 68.9733033,21.4244444 C68.49107,20.692963 67.7338033,20.2068519 66.8414867,20.055 L17.4501867,11.600679 C17.2371283,11.5645679 17.01297,11.5460494 16.784495,11.5460494 M39.1476033,73.067963 L39.1476033,73.067963 C37.6333783,73.067963 36.22152,72.3818519 35.273395,71.1858642 L5.60432833,33.8025309 C3.93377833,31.6988272 3.555145,28.1590123 4.74253667,25.7441975 L10.75257,13.5445062 C11.79412,11.4352469 14.33047,9.90469136 16.784495,9.90469136 C17.1048533,9.90469136 17.4215117,9.93092593 17.7258367,9.98277778 L67.1168283,18.4367901 C68.4611617,18.6654938 69.60662,19.4053086 70.3416867,20.5198148 C71.0779867,21.6361728 71.3080033,22.984321 70.9888783,24.3158025 L65.0580867,49.042963 C64.4744117,51.4781481 62.4477367,54.7803086 60.5410033,56.4034568 L42.35797,71.8787654 C41.4582533,72.6454321 40.3180367,73.067963 39.1476033,73.067963" id="Fill-4"></path>
                <path d="M48.49294,9.66046296 C47.966615,9.66046296 47.45694,9.7842284 46.9784067,10.0283642 L25.7089567,20.8675617 C23.7753983,21.8533642 21.3121233,24.3231173 20.3297733,26.2607716 L8.84004,48.9410185 C8.42934,49.7521296 8.36829,50.6530556 8.668915,51.4783642 C8.96923167,52.3015123 9.59299,52.9496605 10.4261067,53.3042901 L56.5185483,72.9783642 C57.0303817,73.1968827 57.63379,73.3120062 58.2621733,73.3120062 C59.8013733,73.3120062 61.3547567,72.6376235 62.2205567,71.593179 L70.8896567,61.1191049 C72.18774,59.5490432 72.55589,56.6660185 71.6940983,54.8243519 L51.48069,11.5774383 C50.9287733,10.3947222 49.7839317,9.66046296 48.49294,9.66046296 M58.2624817,74.9536728 L58.2621733,74.9536728 C57.4028483,74.9536728 56.5999483,74.7971914 55.8756733,74.488858 L9.78384833,54.8144753 C8.52924,54.281142 7.58604833,53.2959568 7.12848167,52.0410185 C6.67029833,50.7842284 6.75879,49.4194136 7.37792333,48.1987346 L18.8673483,25.518179 C19.9998567,23.2839198 22.7350817,20.5416358 24.9649483,19.4049074 L46.2343983,8.56540123 C46.9457233,8.20274691 47.7054567,8.0187963 48.49294,8.0187963 C50.3987483,8.0187963 52.1543983,9.14287037 52.9659317,10.8823765 L73.1790317,54.1280556 C74.3177067,56.5610802 73.8672317,60.0919444 72.1528983,62.1660185 L63.4831817,72.6407099 C62.300415,74.0675617 60.3002567,74.9536728 58.2624817,74.9536728" id="Fill-6"></path>
                <polygon id="Fill-8" points="22.81272 28.7447222 22.81272 33.0660185 22.303045 33.0660185 22.303045 28.7447222 20.92202 28.7447222 20.92202 28.2885494 24.193745 28.2885494 24.193745 28.7447222"></polygon>
                <polygon id="Fill-10" points="28.3070042 33.0660494 28.3070042 30.8854938 26.0413708 30.8854938 26.0413708 33.0660494 25.5316958 33.0660494 25.5316958 28.2885802 26.0413708 28.2885802 26.0413708 30.4290123 28.3070042 30.4290123 28.3070042 28.2885802 28.8166792 28.2885802 28.8166792 33.0660494"></polygon>
                <polygon id="Fill-12" points="30.0864267 33.0660494 30.0864267 28.2885802 33.0488933 28.2885802 33.0488933 28.7447531 30.5961017 28.7447531 30.5961017 30.4290123 32.6872183 30.4290123 32.6872183 30.8854938 30.5961017 30.8854938 30.5961017 32.6098765 33.0488933 32.6098765 33.0488933 33.0660494"></polygon>
                <path d="M23.0069392,39.9678395 C22.0421642,39.9678395 21.3447142,39.303642 21.3447142,38.3505556 L21.3447142,35.1499383 L21.8540808,35.1499383 L21.8540808,38.3107407 C21.8540808,39.0354321 22.3097975,39.5116667 23.0069392,39.5116667 C23.7040808,39.5116667 24.1668892,39.0354321 24.1668892,38.3107407 L24.1668892,35.1499383 L24.6762558,35.1499383 L24.6762558,38.3505556 C24.6762558,39.303642 23.9723308,39.9678395 23.0069392,39.9678395" id="Fill-14"></path>
                <polygon id="Fill-16" points="29.2010167 39.9275617 26.6674417 36.0960802 26.6674417 39.9275617 26.1577667 39.9275617 26.1577667 35.1500926 26.6406167 35.1500926 29.1741917 38.9679938 29.1741917 35.1500926 29.684175 35.1500926 29.684175 39.9275617"></polygon>
                <polygon id="Fill-18" points="31.2329333 39.9274691 31.7426083 39.9274691 31.7426083 35.15 31.2329333 35.15"></polygon>
                <polygon id="Fill-20" points="33.290935 39.9275617 33.290935 35.1500926 33.8003017 35.1500926 33.8003017 39.4713889 36.2401433 39.4713889 36.2401433 39.9275617"></polygon>
                <polygon id="Fill-21" points="37.2997308 39.9275617 37.2997308 35.1500926 40.2628142 35.1500926 40.2628142 35.6062654 37.8090975 35.6062654 37.8090975 37.290216 39.9008308 37.290216 39.9008308 37.7470062 37.8090975 37.7470062 37.8090975 39.4713889 40.2628142 39.4713889 40.2628142 39.9275617"></polygon>
                <polygon id="Fill-22" points="43.1163158 39.9275617 42.7006825 39.9275617 41.1318825 35.1500926 41.6680742 35.1500926 42.9084992 39.015216 44.1483075 35.1500926 44.6844992 35.1500926"></polygon>
                <polygon id="Fill-23" points="45.5965183 39.9275617 45.5965183 35.1500926 48.5596017 35.1500926 48.5596017 35.6062654 46.105885 35.6062654 46.105885 37.290216 48.1976183 37.290216 48.1976183 37.7470062 46.105885 37.7470062 46.105885 39.4713889 48.5596017 39.4713889 48.5596017 39.9275617"></polygon>
                <path d="M51.2904175,35.6061728 L50.0166925,35.6061728 L50.0166925,37.357716 L51.2904175,37.357716 C51.8466508,37.357716 52.2422425,37.0691358 52.2422425,36.4851852 C52.2422425,35.9015432 51.8466508,35.6061728 51.2904175,35.6061728 L51.2904175,35.6061728 Z M52.2490258,39.9274691 L51.1630758,37.8067901 L50.0166925,37.8067901 L50.0166925,39.9274691 L49.5073258,39.9274691 L49.5073258,35.15 L51.3372842,35.15 C52.1685508,35.15 52.7519175,35.6527778 52.7519175,36.4787037 C52.7519175,37.1762346 52.3291925,37.632716 51.7128342,37.7595679 L52.8456508,39.9274691 L52.2490258,39.9274691 Z" id="Fill-24"></path>
                <polygon id="Fill-25" points="22.2447083 42.8363272 22.2447083 44.0551543 24.2001583 44.0551543 24.2001583 44.9184259 22.2447083 44.9184259 22.2447083 46.9313889 21.277775 46.9313889 21.277775 41.9721296 24.541175 41.9721296 24.541175 42.8363272"></polygon>
                <path d="M27.7005433,43.0590432 C27.5617933,42.8985494 27.3456517,42.7942284 27.0811017,42.7942284 C26.8171683,42.7942284 26.593935,42.8985494 26.455185,43.0590432 C26.26741,43.2676852 26.2180767,43.4982407 26.2180767,44.4522531 C26.2180767,45.4062654 26.26741,45.6362037 26.455185,45.8451543 C26.593935,46.0056481 26.8171683,46.1096605 27.0811017,46.1096605 C27.3456517,46.1096605 27.5617933,46.0056481 27.7005433,45.8451543 C27.8883183,45.6362037 27.9441267,45.4062654 27.9441267,44.4522531 C27.9441267,43.4982407 27.8883183,43.2676852 27.7005433,43.0590432 M28.4174183,46.4303395 C28.06931,46.7784877 27.644735,46.9735494 27.0811017,46.9735494 C26.5177767,46.9735494 26.0864183,46.7784877 25.73831,46.4303395 C25.2372683,45.9287963 25.2511433,45.3087346 25.2511433,44.4522531 C25.2511433,43.5951543 25.2372683,42.9757099 25.73831,42.473858 C26.0864183,42.1254012 26.5177767,41.9303395 27.0811017,41.9303395 C27.644735,41.9303395 28.06931,42.1254012 28.4174183,42.473858 C28.9181517,42.9757099 28.9113683,43.5951543 28.9113683,44.4522531 C28.9113683,45.3087346 28.9181517,45.9287963 28.4174183,46.4303395" id="Fill-26"></path>
                <path d="M31.82037,46.9735802 C30.80472,46.9735802 29.997195,46.2843827 29.997195,45.2322222 L29.997195,41.972037 L30.9644367,41.972037 L30.9644367,45.1973457 C30.9644367,45.7689506 31.29867,46.1096914 31.82037,46.1096914 C32.34207,46.1096914 32.6830867,45.7689506 32.6830867,45.1973457 L32.6830867,41.972037 L33.643545,41.972037 L33.643545,45.2322222 C33.643545,46.2843827 32.8363283,46.9735802 31.82037,46.9735802" id="Fill-27"></path>
                <polygon id="Fill-28" points="37.8260867 46.9313889 35.863545 43.8878704 35.863545 46.9313889 34.8966117 46.9313889 34.8966117 41.9721296 35.7596367 41.9721296 37.72187 45.0091667 37.72187 41.9721296 38.688495 41.9721296 38.688495 46.9313889"></polygon>
                <path d="M42.4400483,43.1428086 C42.2729317,42.9409568 42.050315,42.8363272 41.7160817,42.8363272 L40.98564,42.8363272 L40.98564,46.0675 L41.7160817,46.0675 C42.050315,46.0675 42.2729317,45.9637963 42.4400483,45.7613272 C42.6207317,45.5387963 42.64879,45.1835494 42.64879,44.4310802 C42.64879,43.6792284 42.6207317,43.3653395 42.4400483,43.1428086 M43.11499,46.4579321 C42.7878483,46.7854012 42.32134,46.9313889 41.8067317,46.9313889 L40.01809,46.9313889 L40.01809,41.9721296 L41.8067317,41.9721296 C42.32134,41.9721296 42.7878483,42.1187346 43.11499,42.4462037 C43.6715317,43.0036111 43.6157233,43.6860185 43.6157233,44.4310802 C43.6157233,45.1764506 43.6715317,45.9005247 43.11499,46.4579321" id="Fill-29"></path>
                <path d="M46.6570308,42.8363272 L45.7452892,42.8363272 L45.7452892,44.1458951 L46.6570308,44.1458951 C47.0812975,44.1458951 47.3597225,43.8736728 47.3597225,43.4912654 C47.3597225,43.1079321 47.0812975,42.8363272 46.6570308,42.8363272 L46.6570308,42.8363272 Z M47.4084392,46.9313889 L46.4411975,44.9536111 L45.7452892,44.9536111 L45.7452892,46.9313889 L44.7780475,46.9313889 L44.7780475,41.9721296 L46.7196225,41.9721296 C47.7284892,41.9721296 48.3269642,42.6619444 48.3269642,43.4912654 C48.3269642,44.1869444 47.9026975,44.6193519 47.4226225,44.7934259 L48.5289225,46.9313889 L47.4084392,46.9313889 Z" id="Fill-30"></path>
                <polygon id="Fill-31" points="51.3958367 44.8983025 51.3958367 46.9313272 50.435995 46.9313272 50.435995 44.8983025 48.946745 41.9720679 49.9972367 41.9720679 50.9228533 43.9714506 51.8342867 41.9720679 52.8847783 41.9720679"></polygon>
            </g>
        </g>
    </g>
</svg>