<svg id="Layer_1" data-name="Layer 1" xmlns="http://www.w3.org/2000/svg" viewBox="0 0 16 16"><title>company-icon</title><path d="M13.45,16H2.55V1.36H13.45V16ZM3.23,15.32h9.53V2H3.23V15.32Z"/><rect x="3.91" y="3.64" width="8.17" height="0.68"/><rect x="3.91" y="5.69" width="8.17" height="0.68"/><rect x="3.91" y="7.73" width="8.17" height="0.68"/><rect x="3.91" y="9.8" width="8.17" height="0.68"/><path d="M9.36,16H6.64V11.91H9.36V16Zm-2-.68H8.68V12.6H7.32v2.72Z"/><polygon points="12.43 1.7 11.74 1.7 11.74 0.68 4.25 0.68 4.25 1.7 3.57 1.7 3.57 0 12.43 0 12.43 1.7"/><rect y="15.32" width="16" height="0.68"/></svg>