<?xml version="1.0" encoding="utf-8"?>
<!-- Generator: Adobe Illustrator 21.0.2, SVG Export Plug-In . SVG Version: 6.00 Build 0)  -->
<svg version="1.1" id="Layer_1" xmlns="http://www.w3.org/2000/svg" xmlns:xlink="http://www.w3.org/1999/xlink" x="0px" y="0px"
	 viewBox="0 0 51 37" style="enable-background:new 0 0 51 37;" xml:space="preserve">
<style type="text/css">
	.st0{fill:#72819B;}
</style>
<title>B284FB5D-9721-4564-81F8-0F4398C10453</title>
<desc>Created with sketchtool.</desc>
<g id="Missing-Screens">
	<g id="_x30_3---Startup-details-About" transform="translate(-280.000000, -1110.000000)">
		<g id="Contact-details" transform="translate(150.000000, 1026.000000)">
			<g id="Icon-Phone" transform="translate(130.000000, 84.000000)">
				<path id="Shape" class="st0" d="M45.7,20h1.9c1.8,0,3.5-1.6,3.5-3.3V13c0-1.8-1.7-3-3.5-3h-3.9c0-0.1,0-0.2-0.1-0.3
					c-0.3-1.1-0.8-2.5-1.7-4.1C39.7,1.9,36.4,0,32.2,0H12.1C7.9,0,4.6,1.9,2.4,5.7c-1.6,2.8-1.9,5.3-2,5.4L0.3,12h7.7l0.2-0.6
					c0,0,0.3-1.3,1-2.4C9.8,8.2,10.6,7,11.6,7h21.1c1,0,1.8,1.3,2.3,2.2c0.6,1.1,1,2.2,1,2.2l0.2,0.7h7.7H44h3.6
					c0.7,0,1.5,0.3,1.5,1v3.7c0,0.7-0.8,1.3-1.4,1.3h-1.9c-1.8,0-3.2,1.2-3.2,3c0,1.8,1.4,3,3.2,3h1.9c0.7,0,1.2,0.8,1.2,1.5
					S48.2,27,47.5,27H46v2h1.5c1.8,0,3.2-1.7,3.2-3.5c0-1.8-1.4-3.5-3.2-3.5h-1.9c-0.7,0-1.2-0.3-1.2-1S45,20,45.7,20L45.7,20z
					 M37.7,10c-0.2,0-0.5-1.3-0.9-2c-1.4-2.4-3-3-4.1-3H11.6c-1.1,0-2.7,0.6-4.1,3c-0.4,0.7-0.7,2-0.9,2H2.7c0.2-1,0.7-2.1,1.5-3.5
					C6,3.3,8.6,2,12.1,2h20.1c3.5,0,6.1,1.3,7.9,4.5c0.8,1.4,1.2,2.5,1.5,3.5H37.7L37.7,10z"/>
				<rect id="Rectangle-path" y="14" class="st0" width="8" height="2"/>
				<rect id="Rectangle-path_1_" x="36" y="14" class="st0" width="8" height="2"/>
				<path id="Shape_1_" class="st0" d="M41.1,24.2c-0.7-2.9-3.7-5.2-6.7-5.2h-1.7c0-0.1,0-0.1,0-0.2c-0.5-5.3-5-9.4-10.4-9.4
					c-5.4,0-9.9,4.1-10.4,9.4c0,0.1,0,0.1,0,0.2c0,0,0,0,0,0c0,0.1,0,0.2,0,0.3c0-0.2,0-0.3,0-0.3c0,0,0,0,0,0h-1.8
					c-3,0-6,2.3-6.7,5.2L1.8,31c-0.4,1.5-0.1,3.1,0.8,4.2C3.5,36.3,4.8,37,6.4,37h31.8c1.5,0,2.9-0.8,3.7-1.8
					c0.9-1.1,1.2-2.7,0.8-4.2L41.1,24.2L41.1,24.2z M33,19.9V20c0,0.1-0.1,0.3-0.1,0.5C32.9,20.3,33,20.1,33,19.9L33,19.9z
					 M32.8,19.6c0,0.1,0,0.2,0,0.3C32.8,19.7,32.8,19.7,32.8,19.6L32.8,19.6z M22.3,11.4c4.6,0,8.4,3.8,8.4,8.4s-3.8,8.4-8.4,8.4
					s-8.4-3.8-8.4-8.4S17.6,11.4,22.3,11.4L22.3,11.4z M40.8,33c-0.1,0.3-0.2,0.7-0.4,0.9c-0.5,0.6-1.3,1.1-2.2,1.1H6.4
					c-0.9,0-1.7-0.5-2.2-1.1C4,33.7,3.9,33.3,3.8,33c-0.1-0.3-0.1-0.5-0.1-0.8c0-0.2,0-0.4,0.1-0.7l1.6-6.8c0.5-2,2.6-3.7,4.7-3.7
					h1.8c0,0,0-0.3,0.1-0.7c0,0.2,0,0.3,0,0.5c0.5,5.3,4.9,9.4,10.3,9.4c5.4,0,9.9-4.1,10.5-9.3h1.6c2.1,0,4.2,1.6,4.7,3.7l1.6,6.8
					c0.1,0.2,0.1,0.5,0.1,0.7C40.9,32.5,40.8,32.7,40.8,33L40.8,33z"/>
				<circle id="Oval" class="st0" cx="22.3" cy="14.1" r="1.3"/>
				<circle id="Oval_1_" class="st0" cx="22.3" cy="25.6" r="1.3"/>
				<circle id="Oval_2_" class="st0" cx="28" cy="19.9" r="1.3"/>
				<circle id="Oval_3_" class="st0" cx="16.5" cy="19.9" r="1.3"/>
				<circle id="Oval_4_" class="st0" cx="26.3" cy="23.9" r="1.3"/>
				<circle id="Oval_5_" class="st0" cx="18.2" cy="15.8" r="1.3"/>
				<circle id="Oval_6_" class="st0" cx="18.2" cy="23.9" r="1.3"/>
				<circle id="Oval_7_" class="st0" cx="26.3" cy="15.8" r="1.3"/>
			</g>
		</g>
	</g>
</g>
</svg>
