<?xml version="1.0" encoding="utf-8"?>
<!-- Generator: Adobe Illustrator 21.0.2, SVG Export Plug-In . SVG Version: 6.00 Build 0)  -->
<svg version="1.1" id="Layer_1" xmlns="http://www.w3.org/2000/svg" xmlns:xlink="http://www.w3.org/1999/xlink" x="0px" y="0px"
	 viewBox="0 0 40 40" style="enable-background:new 0 0 40 40;" xml:space="preserve">
<style type="text/css">
	.st0{fill:none;stroke:#72819B;stroke-width:2;}
	.st1{fill:#005EB8;stroke:#72819B;stroke-width:0.5;}
</style>
<title>F67E329A-16B1-4BB1-9B02-9648787DA4B0</title>
<desc>Created with sketchtool.</desc>
<g id="Missing-Screens">
	<g id="_x30_3---Startup-details-About" transform="translate(-554.000000, -1108.000000)">
		<g id="Contact-details" transform="translate(150.000000, 1026.000000)">
			<g id="Icon-Mail" transform="translate(405.000000, 83.000000)">
				<polyline id="Shape" class="st0" points="38,16.4 38,38 0,38 0,16.4 				"/>
				<polyline id="Shape_1_" class="st0" points="5.9,20.4 5.9,0 32.1,0 32.1,20.4 				"/>
				<polyline id="Shape_2_" class="st0" points="0,16.4 19,29.2 38,16.4 				"/>
				<path id="Shape_3_" class="st0" d="M32.1,12.7l5.9,4.5"/>
				<path id="Shape_4_" class="st0" d="M0,17.3l5.9-4.5"/>
				<path id="Shape_5_" class="st1" d="M22.7,20.1c-1.3,0.7-2.7,1-4.3,1c-4,0-7.4-2.9-7.4-7.6c0-5,3.5-9.3,8.8-9.3c4.2,0,7,3,7,7
					c0,3.6-2.1,5.8-4.3,5.8c-1,0-1.9-0.7-1.8-2.1h-0.1c-0.8,1.4-2,2.1-3.4,2.1s-2.6-1.2-2.6-3.1c0-3,2.4-5.8,5.8-5.8
					c1.1,0,2,0.2,2.6,0.5L22.2,13c-0.3,1.8-0.1,2.7,0.7,2.7c1.2,0,2.6-1.7,2.6-4.5c0-3.5-2.1-5.9-5.9-5.9c-4,0-7.4,3.1-7.4,8
					c0,4,2.6,6.5,6.2,6.5c1.4,0,2.6-0.3,3.6-0.8L22.7,20.1L22.7,20.1z M21.4,9.6c-0.2-0.1-0.7-0.2-1.2-0.2c-2.1,0-3.9,2-3.9,4.4
					c0,1.1,0.5,1.8,1.6,1.8c1.4,0,2.7-1.8,3-3.3L21.4,9.6L21.4,9.6z"/>
			</g>
		</g>
	</g>
</g>
</svg>
