<?xml version="1.0" encoding="utf-8"?>
<!-- Generator: Adobe Illustrator 21.0.2, SVG Export Plug-In . SVG Version: 6.00 Build 0)  -->
<svg version="1.1" id="Layer_1" xmlns="http://www.w3.org/2000/svg" xmlns:xlink="http://www.w3.org/1999/xlink" x="0px" y="0px"
	 viewBox="0 0 42 42" style="enable-background:new 0 0 42 42;" xml:space="preserve">
<style type="text/css">
	.st0{fill:none;stroke:#72819B;stroke-width:2;}
	.st1{fill:#005EB8;stroke:#72819B;}
</style>
<title>E6CC1C08-7366-4F8D-AA06-61309726B1BC</title>
<desc>Created with sketchtool.</desc>
<g id="Missing-Screens">
	<g id="_x30_3---Startup-details-About" transform="translate(-822.000000, -1107.000000)">
		<g id="Contact-details" transform="translate(150.000000, 1026.000000)">
			<g id="icon-website" transform="translate(673.000000, 82.000000)">
				<path id="Shape" class="st0" d="M20.1,0.4c-5.3-0.1-10.3,2-14,5.8C5.8,6.5,5.4,6.9,5.1,7.3C2,10.8,0.3,15.4,0.4,20.1
					C0.3,24.9,2,29.4,5.1,33c0.3,0.4,0.7,0.8,1.1,1.1c3.7,3.8,8.7,5.9,14,5.8c5.3,0.1,10.3-2,14-5.8c3.8-3.7,5.9-8.7,5.8-14
					c0.1-5.3-2-10.3-5.8-14C30.5,2.4,25.4,0.3,20.1,0.4L20.1,0.4z"/>
				<path id="Shape_1_" class="st1" d="M20.3,23.3c0.2,1.1-0.2,2.2-1,3l-2,2c-0.9,0.9-2.2,1.3-3.4,0.9s-2.2-1.3-2.5-2.5
					c-0.3-1.2,0-2.5,0.9-3.4l2-2c0.7-0.7,1.6-1,2.5-1c0.2,0,0.4,0,0.5,0l0.7-0.7c-0.4-0.1-0.8-0.2-1.3-0.2c-1.2,0-2.3,0.5-3.1,1.3
					l-2,2c-1.7,1.7-1.7,4.5,0,6.3c1.7,1.7,4.5,1.7,6.3,0l2-2c0.8-0.8,1.3-2,1.3-3.1c0-0.4-0.1-0.8-0.2-1.3L20.3,23.3z M28.9,11.7
					c-0.8-0.8-2-1.3-3.1-1.3c-1.2,0-2.3,0.5-3.1,1.3l-2,2c-0.8,0.8-1.3,2-1.3,3.1c0,0.4,0.1,0.8,0.2,1.3l0.7-0.7c0-0.2,0-0.4,0-0.5
					c0-0.9,0.4-1.8,1-2.5l2-2c1.4-1.4,3.6-1.4,5,0s1.4,3.6,0,5l-2,2c-0.7,0.7-1.6,1-2.5,1c-0.2,0-0.4,0-0.5,0L22.6,21
					c0.4,0.1,0.8,0.2,1.3,0.2c1.2,0,2.3-0.5,3.1-1.3l2-2c0.8-0.8,1.3-2,1.3-3.1S29.8,12.5,28.9,11.7L28.9,11.7z M17.1,24.1l6.9-6.9
					l-0.6-0.6l-6.9,6.9L17.1,24.1z"/>
			</g>
		</g>
	</g>
</g>
</svg>
