<svg xmlns="http://www.w3.org/2000/svg" width="16" height="16" style=""><rect id="backgroundrect" width="100%" height="100%" x="0" y="0" fill="none" stroke="none"/>
    
<g class="currentLayer" style=""><title>Layer 1</title><path fill="#536270" fill-rule="nonzero" stroke="#536270" d="M10.3 2.596A5.414 5.414 0 0 0 6.449 1a5.413 5.413 0 0 0-3.852 1.596A5.412 5.412 0 0 0 1 6.448c0 1.456.567 2.824 1.596 3.853a5.413 5.413 0 0 0 3.852 1.596 5.414 5.414 0 0 0 3.853-1.596 5.455 5.455 0 0 0 0-7.705zm-.27 7.434a5.033 5.033 0 0 1-3.582 1.483 5.032 5.032 0 0 1-3.581-1.483 5.032 5.032 0 0 1-1.484-3.582c0-1.352.527-2.625 1.484-3.581a5.032 5.032 0 0 1 3.581-1.484c1.353 0 2.625.527 3.582 1.484a5.072 5.072 0 0 1 0 7.163zm5.23 4.96l-4.109-4.11a.191.191 0 1 0-.27.271l4.108 4.11a.191.191 0 0 0 .271 0 .191.191 0 0 0 0-.272z" id="svg_1" class="" fill-opacity="1" stroke-opacity="1"/></g></svg>