<svg xmlns="http://www.w3.org/2000/svg" width="19" height="19" style=""><rect id="backgroundrect" width="100%" height="100%" x="0" y="0" fill="none" stroke="none"/>
  
<g class="currentLayer" style=""><title>Layer 1</title><g fill="#ffffff" fill-rule="evenodd" stroke="#536270" id="svg_1" class="selected" stroke-opacity="1" fill-opacity="1">
    <path d="M8.20982143,1.0000000000000142 L10.79017857,1.0000000000000142 L10.79017857,2.4794343100000003 C10.79628036,2.61466771 10.90379382,2.7386852800000003 11.0368304,2.7639409 C11.7910341,2.93582841 12.5066765,3.2442487300000002 13.1618304,3.65539491 C13.2768408,3.7306203900000003 13.4434627,3.71396351 13.5412946,3.61746069 L14.584821400000001,2.55530273 L16.425223199999998,4.395112060000001 L15.3816964,5.43830292 C15.2851625,5.53610357 15.2685001,5.70267161 15.34375,5.81764505 C15.753214400000001,6.47387658 16.0468202,7.20624967 16.2165179,7.96092808 C16.2506211,8.09319284 16.383525900000002,8.19284208 16.520089300000002,8.188533360000001 L18,8.188533360000001 L18,10.78702695 L16.520089300000002,10.78702695 C16.383525900000002,10.78271762 16.250618,10.88236746 16.2165179,11.0146322 C16.0446545,11.7685823 15.754998800000001,12.503019 15.34375,13.1579153 C15.2685001,13.2728887 15.2851607,13.4394569 15.3816964,13.5372574 L16.425223199999998,14.5804482 L14.584821400000001,16.4202576 L13.5412946,15.3770667 C13.4504995,15.2833468 13.2960666,15.2589705 13.1808036,15.3201654 C12.5243407,15.7294907 11.7916923,16.0419776 11.0368304,16.2116194 C10.90379382,16.2368745 10.79627732,16.3608927 10.79017857,16.496126 L10.79017857,17.9945274 L8.20982143,17.9945274 L8.20982143,16.496126 C8.20372571,16.3608927 8.09620618,16.2368751 7.96316964,16.2116194 C7.20896586,16.0397926 6.49332414,15.7312509 5.83816964,15.3201654 C5.72315918,15.2449397 5.5565375,15.261595 5.45870536,15.3580996 L4.41517857,16.4012905 L2.57477679,14.5804482 L3.61830357,13.5372574 C3.71483752,13.4394569 3.73149971,13.2728887 3.65625,13.1579153 C3.24678539,12.5016837 2.95317966,11.7692499 2.78348214,11.0146322 C2.74938209,10.88236746 2.61647396,10.78271823 2.47991071,10.78702695 L0.9999999999996376,10.78702695 L0.9999999999996376,8.188533360000001 L2.47991071,8.188533360000001 C2.61647396,8.19284268 2.74938209,8.09319284 2.78348214,7.96092808 C2.9553451,7.20691731 3.2450010000000002,6.47260199 3.65625,5.81764505 C3.73149971,5.70267161 3.71483752,5.53610357 3.61830357,5.43830292 L2.57477679,4.395112060000001 L4.41517857,2.55530273 L5.45870536,3.61746069 C5.55391999,3.70517789 5.7077984,3.72137039 5.81919643,3.65539491 C6.47565993,3.24606958 7.20830771,2.9525498100000003 7.96316964,2.78290801 C8.10232739,2.75636438 8.212318,2.62103514 8.20982143,2.4794343100000003 L8.20982143,1.0000000000000142 z" id="svg_2" stroke="#536270" stroke-opacity="1" fill="#ffffff"/>
    <circle cx="9.5" cy="9.5" r="3.5" stroke-width="2" id="svg_3" stroke="#536270" stroke-opacity="1" fill="#ffffff"/>
  </g></g></svg>