<svg xmlns="http://www.w3.org/2000/svg" width="10" height="15" viewBox="0 0 10 15">
  <g fill="#636F7F" fill-rule="evenodd" transform="matrix(-1 0 0 1 10 0)">
    <path d="M4.511267 1.16419542C5.1118285 1.16419542 5.60079367 1.65898514 5.60079367 2.26669854 5.60079367 2.87442965 5.1118285 3.36803764 4.511267 3.36803764 3.91070317 3.36803764 3.4217415 2.87442965 3.4217415 2.26669854 3.42174033 1.65898514 3.91070317 1.16419542 4.511267 1.16419542M4.511267 0C3.27677733 0 2.271239 1.01637806 2.271239 2.26669854 2.271239 3.51589042 3.27677733 4.53223306 4.511267 4.53223306 5.74575667 4.53223306 6.75129617 3.51589042 6.75129617 2.26669854 6.75129617 1.01637806 5.74575667 0 4.511267 0M.5970245 14.1666667C.263562 14.1666667.0229265 13.8276654.021775 13.5075259L.00566683333 9.62490535C.00566683333 7.30350104 2.02710117 5.41632396 4.51103833 5.41632396 6.33113283 5.41632396 8.0074135 6.48740778 8.683911 8.08002562 8.80931483 8.37573236 8.67470483 8.71799312 8.382477 8.84490639 8.0937025 8.969455 7.75315483 8.8355741 7.625448 8.53872104 7.129582 7.3675391 5.877835 6.58051819 4.51103833 6.58051819 2.6621785 6.58051819 1.15616933 7.94496181 1.15616933 9.62257611L1.1722775 13.5028686C1.173429 13.8241722.916666667 14.1666667.5993275 14.1666667L.5970245 14.1666667z"/>
    <path d="M9.3504825,12.1122722 L4.47191883,12.1122722 C4.15438017,12.1122722 3.89666817,11.9221272 3.89666817,11.6007882 C3.89666817,11.2794847 4.15438017,10.9383336 4.47191883,10.9383336 L9.41908133,10.9383336 C9.73662,10.9383336 9.99433317,11.2794847 9.99433317,11.6007882 C9.99433317,11.922126 9.73661883,12.1122722 9.3504825,12.1122722 Z"/>
    <path d="M5.643132,13.8191737 L3.9495905,12.0018572 C3.73905033,11.7783402 3.73905033,11.4278923 3.9495905,11.2043753 L5.643132,9.38705764 C5.85942617,9.1530609 6.22413667,9.14027194 6.4553875,9.36378889 C6.68663483,9.58381375 6.6969925,9.95169021 6.4783965,10.1857224 L5.1587705,11.6025425 L6.4783965,13.0205278 C6.69699367,13.2533783 6.6798355,13.6153413 6.4553875,13.8424613 C6.15772533,14.1436671 5.75473067,13.9402467 5.643132,13.8191737 Z"/>
  </g>
</svg>
