<?xml version="1.0" encoding="iso-8859-1"?>
<!-- Generator: Adobe Illustrator 16.0.0, SVG Export Plug-In . SVG Version: 6.00 Build 0)  -->
<!DOCTYPE svg PUBLIC "-//W3C//DTD SVG 1.1//EN" "http://www.w3.org/Graphics/SVG/1.1/DTD/svg11.dtd">
<svg xmlns="http://www.w3.org/2000/svg" xmlns:xlink="http://www.w3.org/1999/xlink" version="1.1" id="Capa_1" x="0px" y="0px" width="512px" height="512px" viewBox="0 0 104.745 104.745" style="enable-background:new 0 0 104.745 104.745;" xml:space="preserve">
<g>
	<g>
		<rect x="42.5" y="17.812" width="18.745" height="18.745" fill="#f59807"/>
		<rect y="68.188" width="18.745" height="18.745" fill="#f59807"/>
		<rect x="42" y="68.188" width="18.745" height="18.745" fill="#f59807"/>
		<rect x="86" y="68.188" width="18.745" height="18.745" fill="#f59807"/>
		<path d="M98.088,57.084c0.743,0.65,1.062,1.731,0.98,3.306l1.998,0.104c0.117-2.227-0.428-3.834-1.661-4.914    c-2.966-2.597-9.188-1.428-18.61,0.338c-7.848,1.473-17.52,3.252-28.497,3.472V40.812h-2V59.39    c-10.978-0.22-20.648-1.999-28.496-3.472c-9.419-1.767-15.644-2.935-18.61-0.338c-1.234,1.08-1.778,2.688-1.661,4.914l1.998-0.104    c-0.083-1.574,0.237-2.655,0.98-3.306c2.234-1.955,8.716-0.739,16.924,0.801c7.892,1.479,17.604,3.277,28.688,3.511v0.046    c0.399,0,0.782-0.02,1.177-0.023c0.396,0.004,0.779,0.023,1.178,0.023v-0.046c11.084-0.233,20.797-2.031,28.688-3.511    C89.371,56.345,95.854,55.129,98.088,57.084z" fill="#f59807"/>
	</g>
</g>
<g>
</g>
<g>
</g>
<g>
</g>
<g>
</g>
<g>
</g>
<g>
</g>
<g>
</g>
<g>
</g>
<g>
</g>
<g>
</g>
<g>
</g>
<g>
</g>
<g>
</g>
<g>
</g>
<g>
</g>
</svg>
