<?xml version="1.0" encoding="UTF-8" standalone="no"?>
<svg width="27px" height="27px" viewBox="0 0 27 27" version="1.1" xmlns="http://www.w3.org/2000/svg" xmlns:xlink="http://www.w3.org/1999/xlink">
    <!-- Generator: Sketch 3.8.3 (29802) - http://www.bohemiancoding.com/sketch -->
    <title>Icon-Account</title>
    <desc>Created with Sketch.</desc>
    <defs></defs>
    <g id="Process-Builder" stroke="none" stroke-width="1" fill="none" fill-rule="evenodd">
        <g id="24" transform="translate(-511.000000, -382.000000)">
            <g id="Content-/-Basic-Data" transform="translate(0.000000, 49.000000)">
                <g id="Sequence-Details-" transform="translate(473.000000, 133.000000)">
                    <g id="Forms" transform="translate(0.000000, 201.000000)">
                        <g id="Icon-Account" transform="translate(39.000000, 0.000000)">
                            <path d="M12.4545455,24.9090909 C5.59090909,24.9090909 0,19.3181818 0,12.4545455 C0,5.59090909 5.59090909,0 12.4545455,0 C19.3181818,0 24.9090909,5.59090909 24.9090909,12.4545455 C24.9090909,19.3181818 19.3181818,24.9090909 12.4545455,24.9090909" id="Fill-1" stroke="#656565"></path>
                            <path d="M11.1363636,14.8181818 C10.8636364,15.5909091 10.6818182,16.0454545 10.4090909,16.1363636 C10.0909091,16.2272727 9.81818182,16.3181818 9.5,16.4090909 C8.04545455,16.8181818 7,17.1363636 6.59090909,18.6363636" id="Fill-3" stroke="#F59807"></path>
                            <path d="M18.1363636,14.8181818 C17.8636364,15.5909091 17.6818182,16.0454545 17.4090909,16.1363636 C17.0909091,16.2272727 16.8181818,16.3181818 16.5,16.4090909 C15.0454545,16.8181818 14,17.1363636 13.5909091,18.6363636" id="Fill-3" stroke="#F59807" transform="translate(15.863636, 16.727273) scale(-1, 1) translate(-15.863636, -16.727273) "></path>
                            <path d="M12.4545455,15.4090909 L12.4545455,15.4090909 C10.9545455,15.4090909 9.18181818,13.5 8.68181818,11.3181818 C8.36363636,10.0454545 8.59090909,8.72727273 9.31818182,7.81818182 C10,6.90909091 11.0909091,6.40909091 12.4545455,6.36363636 C13.8636364,6.40909091 14.9545455,6.90909091 15.6363636,7.81818182 C16.3181818,8.72727273 16.5454545,10.0454545 16.2727273,11.3181818 C15.7272727,13.5 13.9545455,15.4090909 12.4545455,15.4090909" id="Fill-7" stroke="#F59807"></path>
                        </g>
                    </g>
                </g>
            </g>
        </g>
    </g>
</svg>