<?xml version="1.0" encoding="UTF-8" standalone="no"?>
<svg width="25px" height="24px" viewBox="0 0 25 24" version="1.1" xmlns="http://www.w3.org/2000/svg" xmlns:xlink="http://www.w3.org/1999/xlink">
    <!-- Generator: Sketch 3.8.3 (29802) - http://www.bohemiancoding.com/sketch -->
    <title>Icon-Message</title>
    <desc>Created with Sketch.</desc>
    <defs></defs>
    <g id="Process-Builder" stroke="none" stroke-width="1" fill="none" fill-rule="evenodd">
        <g id="24" transform="translate(-472.000000, -416.000000)">
            <g id="Content-/-Basic-Data" transform="translate(0.000000, 49.000000)">
                <g id="Sequence-Details-" transform="translate(473.000000, 133.000000)">
                    <g id="Forms" transform="translate(0.000000, 201.000000)">
                        <g id="Icon-Message" transform="translate(0.000000, 34.000000)">
                            <path d="M10.8954555,17.513636 L19.8071446,17.513636 C21.790911,17.513636 23.3779241,15.8961034 23.3779241,13.9428564 L23.3779241,4.02402438 C23.3779241,2.04025797 21.7603915,0.453244845 19.8071446,0.453244845 L3.57077954,0.453244845 C1.58701313,0.453244845 0,2.07077746 0,4.02402438 L0,13.9428564 C0,15.9266228 1.61753261,17.513636 3.57077954,17.513636 L4.76103938,17.513636 L4.76103938,22 L10.8954555,17.513636 L10.8954555,17.513636 Z" id="Page-1" stroke="#656565"></path>
                            <path d="M10.6207802,9.33441446 C10.6207802,8.75454428 11.1090919,8.26623255 11.6889621,8.26623255 C12.2688323,8.26623255 12.757144,8.75454428 12.757144,9.33441446 C12.757144,9.91428464 12.2688323,10.4025964 11.6889621,10.4025964 C11.1090919,10.4025964 10.6207802,9.91428464 10.6207802,9.33441446 L10.6207802,9.33441446 Z" id="Path" stroke="#F59807"></path>
                            <path d="M15.3136376,9.33441446 C15.3136376,8.75454428 15.8019494,8.26623255 16.3818195,8.26623255 C16.9616897,8.26623255 17.4500015,8.75454428 17.4500015,9.33441446 C17.4500015,9.91428464 16.9616897,10.4025964 16.3818195,10.4025964 C15.8019494,10.4025964 15.3136376,9.91428464 15.3136376,9.33441446 L15.3136376,9.33441446 Z" id="Path" stroke="#F59807"></path>
                            <path d="M5.92792269,9.33441446 C5.92792269,8.75454428 6.41623442,8.26623255 6.9961046,8.26623255 C7.57597479,8.26623255 8.06428652,8.75454428 8.06428652,9.33441446 C8.06428652,9.91428464 7.57597479,10.4025964 6.9961046,10.4025964 C6.41623442,10.4025964 5.92792269,9.91428464 5.92792269,9.33441446 L5.92792269,9.33441446 Z" id="Path" stroke="#F59807"></path>
                        </g>
                    </g>
                </g>
            </g>
        </g>
    </g>
</svg>