<?xml version="1.0" encoding="UTF-8" standalone="no"?>
<svg width="24px" height="20px" viewBox="0 0 24 20" version="1.1" xmlns="http://www.w3.org/2000/svg" xmlns:xlink="http://www.w3.org/1999/xlink">
    <!-- Generator: Sketch 3.8.3 (29802) - http://www.bohemiancoding.com/sketch -->
    <title>Icon-Email</title>
    <desc>Created with Sketch.</desc>
    <defs></defs>
    <g id="Process-Builder" stroke="none" stroke-width="1" fill="none" fill-rule="evenodd">
        <g id="24" transform="translate(-651.000000, -296.000000)" fill="#656565">
            <g id="Content-/-Basic-Data" transform="translate(0.000000, 49.000000)">
                <g id="Sequence-Details-" transform="translate(473.000000, 133.000000)">
                    <g id="Component---Mail" transform="translate(158.000000, 90.000000)">
                        <g id="Icon-Email" transform="translate(20.000000, 24.000000)">
                            <path d="M16.5338747,9.28308105 L22.9090909,16.6504483 C22.9090909,17.5529277 22.1888182,18.2622872 21.2727273,18.2622872 L2.72727273,18.2622872 C1.87281818,18.2622872 1.18854545,17.64425 1.10045455,16.829064 L7.52020285,9.37683105 L11.6140909,12.613155 C11.8270909,12.8229277 12.1723636,12.8229277 12.3853636,12.613155 L16.5338747,9.28308105 Z M22.9090909,15.131812 L17.3852727,8.69222521 L22.9090909,4.25210124 L22.9090909,15.131812 Z M6.711,8.78623347 L1.09090909,15.3209029 L1.09090909,4.25210124 L6.711,8.78623347 Z M21.2727273,1.07435331 C22.1888182,1.07435331 22.9090909,1.78371281 22.9090909,2.68592355 L22.9090909,2.7321219 L12,11.4759236 L1.09090909,2.7321219 L1.09090909,2.68592355 C1.09090909,1.78371281 1.81118182,1.07435331 2.72727273,1.07435331 L21.2727273,1.07435331 Z M2.72727273,-2.6859504e-05 C1.22590909,-2.6859504e-05 0,1.20730785 0,2.68592355 L0,16.6528657 C0,18.1314814 1.22590909,19.3388161 2.72727273,19.3388161 L21.2727273,19.3388161 C22.7740909,19.3388161 24,18.1314814 24,16.6528657 L24,2.68592355 C24,1.20730785 22.7740909,-2.6859504e-05 21.2727273,-2.6859504e-05 L2.72727273,-2.6859504e-05 L2.72727273,-2.6859504e-05 Z" id="Fill-1"></path>
                        </g>
                    </g>
                </g>
            </g>
        </g>
    </g>
</svg>