<svg xmlns="http://www.w3.org/2000/svg" width="448" height="512" viewBox="0 0 448 512">
  <g fill="#656565" stroke="#656565" stroke-width="7" transform="translate(4 4)">
    <path d="M224.170082 165.30058L224.170082 96.4838013 234.172719 106.483913 240.071995 100.586126 222.963538 83.4708708C221.334426 81.84217 218.693374 81.84217 217.064262 83.4708708L199.944686 100.586126 205.843962 106.483913 215.846598 96.4838013 215.846598 165.295022 224.170082 165.30058 224.170082 165.30058zM215.829918 340.227497L215.829918 409.044276 205.827281 399.044164 199.928005 404.941951 217.047582 422.057206C217.859358 422.868777 218.926899 423.280122 219.99444 423.280122 221.061981 423.280122 222.129522 422.879895 222.941298 422.057206L240.055314 404.941951 234.150478 399.044164 224.147842 409.044276 224.147842 340.227497 215.829918 340.227497 215.829918 340.227497zM364.056872 163.733025L340.58209 157.762975 338.53041 165.845334 352.247199 169.330642 293.070956 204.489457 297.33556 211.654629 356.506243 176.495814 353.020055 190.198024 361.098893 192.254745 367.070451 168.797006C367.348456 167.724176 367.181653 166.5902 366.614522 165.639662 366.052951 164.694682 365.129973 164.005402 364.056872 163.733025zM142.66444 293.873448L83.4937568 329.026704 86.9799454 315.313377 78.9011066 313.262214 72.9351093 336.725512C72.362418 338.943436 73.7190847 341.228064 75.9486885 341.795052L99.4123497 347.765102 101.46403 339.677185 87.7583607 336.191876 146.929044 301.03862 142.66444 293.873448zM101.45847 165.845334L99.4067896 157.762975 75.9431284 163.733025C73.7135246 164.305572 72.3568579 166.573524 72.9295492 168.802565L78.8955464 192.260304 86.9743852 190.203583 83.4881967 176.501373 142.65888 211.660188 146.917923 204.495016 87.7472404 169.336201 101.45847 165.845334zM361.093333 313.267773L353.014495 315.324494 356.500683 329.032263 297.33 293.879007 293.070956 301.044179 352.241639 336.197435 338.53041 339.682743 340.58209 347.770661 364.051311 341.80061C365.124413 341.528234 366.03627 340.833396 366.608962 339.882857 367.181653 338.932318 367.342896 337.798342 367.064891 336.731071L361.093333 313.267773zM220 182.476982C180.667787 182.476982 148.663798 214.467334 148.663798 253.795178 148.663798 293.128581 180.667787 325.113375 220 325.113375 259.332213 325.113375 291.336202 293.128581 291.336202 253.795178 291.341762 214.467334 259.337773 182.476982 220 182.476982zM220 316.775316C185.265997 316.775316 157.003962 288.525973 157.003962 253.795178 157.003962 219.069943 185.265997 190.815041 220 190.815041 254.734003 190.815041 282.996038 219.069943 282.996038 253.795178 283.001598 288.520414 254.739563 316.775316 220 316.775316zM35.3320902 324.840999C16.0829918 324.840999.425724044 340.499873.425724044 359.744113.425724044 378.988353 16.0829918 394.647227 35.3320902 394.647227 54.5867486 394.647227 70.2440164 378.988353 70.2440164 359.744113 70.2440164 340.499873 54.5867486 324.840999 35.3320902 324.840999zM35.3320902 386.309169C20.6812022 386.309169 8.76588798 374.380186 8.76588798 359.744113 8.76588798 345.10804 20.6867623 333.179058 35.3320902 333.179058 49.9885383 333.179058 61.9038525 345.10804 61.9038525 359.744113 61.9038525 374.380186 49.9829781 386.309169 35.3320902 386.309169zM404.66235 175.828769C423.917008 175.828769 439.574276 160.169895 439.574276 140.925655 439.574276 121.681415 423.917008 106.022541 404.66235 106.022541 385.407691 106.022541 369.755984 121.681415 369.755984 140.925655 369.755984 160.169895 385.413251 175.828769 404.66235 175.828769zM404.66235 114.3606C419.318798 114.3606 431.234112 126.278465 431.234112 140.925655 431.234112 155.572845 419.313238 167.490711 404.66235 167.490711 390.011462 167.490711 378.096148 155.572845 378.096148 140.925655 378.096148 126.278465 390.011462 114.3606 404.66235 114.3606zM220 69.9954336C239.254658 69.9954336 254.911926 54.336559 254.911926 35.0923192 254.911926 15.8480793 239.254658.189204779 220 .189204779 200.750902.189204779 185.093634 15.8480793 185.093634 35.0923192 185.088074 54.336559 200.750902 69.9954336 220 69.9954336zM220 8.52726364C234.656448 8.52726364 246.571762 20.4451291 246.571762 35.0923192 246.571762 49.7395092 234.639768 61.6573747 220 61.6573747 205.360232 61.6573747 193.433798 49.7395092 193.433798 35.0923192 193.433798 20.4451291 205.349112 8.52726364 220 8.52726364zM220 434.999008C200.750902 434.999008 185.093634 450.652324 185.093634 469.896563 185.093634 489.151921 200.750902 504.799678 220 504.799678 239.254658 504.799678 254.911926 489.151921 254.911926 469.896563 254.911926 450.663441 239.249098 434.999008 220 434.999008zM220 496.472736C205.349112 496.472736 193.433798 484.549312 193.433798 469.907681 193.433798 455.266049 205.354672 443.342625 220 443.342625 234.656448 443.342625 246.571762 455.271608 246.571762 469.907681 246.571762 484.549312 234.650888 496.472736 220 496.472736zM404.66235 324.840999C385.407691 324.840999 369.755984 340.499873 369.755984 359.744113 369.755984 378.988353 385.407691 394.647227 404.66235 394.647227 423.917008 394.647227 439.574276 378.988353 439.574276 359.744113 439.579836 340.499873 423.917008 324.840999 404.66235 324.840999zM404.66235 386.309169C390.005902 386.309169 378.096148 374.380186 378.096148 359.744113 378.096148 345.10804 390.022582 333.179058 404.66235 333.179058 419.318798 333.179058 431.234112 345.10804 431.234112 359.744113 431.234112 374.380186 419.318798 386.309169 404.66235 386.309169zM35.3320902 106.022541C16.0829918 106.022541.425724044 121.681415.425724044 140.925655.425724044 160.169895 16.0829918 175.828769 35.3320902 175.828769 54.5867486 175.828769 70.2440164 160.169895 70.2440164 140.925655 70.2440164 121.681415 54.5867486 106.022541 35.3320902 106.022541zM35.3320902 167.490711C20.6812022 167.490711 8.76588798 155.572845 8.76588798 140.925655 8.76588798 126.278465 20.6867623 114.3606 35.3320902 114.3606 49.9885383 114.3606 61.9038525 126.278465 61.9038525 140.925655 61.9038525 155.572845 49.9829781 167.490711 35.3320902 167.490711z"/>
  </g>
</svg>
