<?xml version="1.0" encoding="UTF-8" standalone="no"?>
<svg width="38px" height="42px" viewBox="0 0 38 42" version="1.1" xmlns="http://www.w3.org/2000/svg" xmlns:xlink="http://www.w3.org/1999/xlink">
    <!-- Generator: sketchtool 3.8.3 (29802) - http://www.bohemiancoding.com/sketch -->
    <title>0DD8BB66-9507-49E5-B899-B541C713D8C1</title>
    <desc>Created with sketchtool.</desc>
    <defs></defs>
    <g id="Rules" stroke="none" stroke-width="1" fill="none" fill-rule="evenodd">
        <g id="30" transform="translate(-553.000000, -124.000000)">
            <g id="Header-01" transform="translate(0.000000, 49.000000)">
                <g id="Dropdown" transform="translate(500.000000, 46.000000)">
                    <g id="Forms" transform="translate(0.000000, 6.000000)">
                        <g id="Icon-/-Certificates" transform="translate(54.000000, 24.000000)">
                            <path d="M4.93577075,29.0912001 L4.93577075,0 L36.2064744,0 L36.2064744,34.9041331 C36.2064744,37.6613437 33.96881,39.8965046 31.2153783,39.8965046 L30.4610173,39.8965046 C27.7045111,39.8965046 25.4699213,37.6576287 25.4699213,34.905007 L25.4699213,34.0826506 C25.4699213,31.3259227 27.7065544,29.0911531 30.437253,29.0911531 L30.437253,29.0911531 L4.99201038,29.0911531 C2.23499918,29.0911531 -3.4661642e-11,31.3300286 -3.46614752e-11,34.0826499 L-3.46614254e-11,34.9050062 C-3.46612583e-11,37.6617338 2.23812388,39.8965031 4.99201038,39.8965031 L30.437253,39.8965031" id="Path-1867" stroke="#656565"></path>
                            <path d="M14.0578063,7.20218076 L30.8759881,7.20218076" id="Line" stroke="#979797" stroke-linecap="square"></path>
                            <ellipse id="Oval-181" stroke="#F59807" cx="10.5113636" cy="7.23404255" rx="1.26136364" ry="1.27659574"></ellipse>
                            <path d="M14.0578063,13.1596276 L30.8759881,13.1596276" id="Line" stroke="#979797" stroke-linecap="square"></path>
                            <ellipse id="Oval-181" stroke="#F59807" cx="10.5113636" cy="13.1914894" rx="1.26136364" ry="1.27659574"></ellipse>
                            <path d="M14.0578063,19.1170744 L30.8759881,19.1170744" id="Line" stroke="#979797" stroke-linecap="square"></path>
                            <path d="M21.3828828,25.0745212 L30.8759881,25.0745212" id="Line" stroke="#979797" stroke-linecap="square"></path>
                            <ellipse id="Oval-181" stroke="#F59807" cx="10.5113636" cy="19.1489362" rx="1.26136364" ry="1.27659574"></ellipse>
                        </g>
                    </g>
                </g>
            </g>
        </g>
    </g>
</svg>