<?xml version="1.0" encoding="UTF-8" standalone="no"?>
<svg width="26px" height="26px" viewBox="0 0 26 26" version="1.1" xmlns="http://www.w3.org/2000/svg" xmlns:xlink="http://www.w3.org/1999/xlink">
    <!-- Generator: Sketch 3.8.3 (29802) - http://www.bohemiancoding.com/sketch -->
    <title>Icon - Action</title>
    <desc>Created with Sketch.</desc>
    <defs></defs>
    <g id="Process-Builder" stroke="none" stroke-width="1" fill="none" fill-rule="evenodd">
        <g id="24" transform="translate(-908.000000, -291.000000)">
            <g id="Content-/-Basic-Data" transform="translate(0.000000, 49.000000)">
                <g id="Sequence-Details-" transform="translate(473.000000, 133.000000)">
                    <g id="Icons-Actions" transform="translate(414.000000, 90.000000)">
                        <g id="Icon---Action" transform="translate(22.000000, 20.000000)">
                            <path d="M11.9217366,16.1301366 C9.6569561,16.1301366 7.81422439,14.2876976 7.81422439,12.0226244 C7.81422439,9.75755122 9.6569561,7.9151122 11.9217366,7.9151122 C14.1865171,7.9151122 16.0292488,9.7578439 16.0292488,12.0226244 C16.0292488,14.2874049 14.1865171,16.1301366 11.9217366,16.1301366" id="Fill-1" stroke="#F59807"></path>
                            <path d="M22.5692488,18.3636 L20.5544195,17.8634049 C20.3553951,17.8139415 20.1443707,17.872478 19.9992,18.0179415 L17.6946146,20.325161 C17.5497366,20.4703317 17.4912,20.6807707 17.5406634,20.8797951 L18.0194927,22.8115024 C17.0911024,23.3242829 16.0348098,23.7214537 14.8693463,23.9962829 L13.873639,22.3045756 C13.7685659,22.126039 13.5768585,22.0016488 13.369639,22.0013561 L10.1123707,21.9837951 L10.112078,21.9837951 C9.90485854,21.9837951 9.71285854,22.108478 9.60749268,22.2870146 L8.67441951,23.8795024 C7.59061463,23.5733561 6.52466341,23.0956976 5.49529756,22.4476976 L5.9729561,20.6816488 C6.0276878,20.4796976 5.97002927,20.2645756 5.82193171,20.116478 L3.5214439,17.8121854 C3.37305366,17.6637951 3.15676098,17.6061366 2.95422439,17.6608683 L1.32485854,18.1019415 C0.74124878,17.080478 0.31217561,15.9916976 0.0449560976,14.8549171 L1.62515122,13.9841854 C1.80749268,13.8802829 1.98105366,13.6865268 1.98105366,13.4769659 L1.98105366,10.2173561 C1.98105366,10.0075024 1.80749268,9.81403902 1.6254439,9.70955122 L0.157639024,8.88594146 C0.467882927,7.69764878 0.915395122,6.59803902 1.52212683,5.60613659 L3.09676098,6.02145366 C3.29812683,6.07413659 3.50856585,6.01618537 3.65578537,5.86896585 L5.95861463,3.56116098 C6.10554146,3.41394146 6.16232195,3.19999024 6.10963902,2.99891707 L5.70515122,1.45940488 C6.77754146,0.822526829 7.92632195,0.357453659 9.1307122,0.0735512195 L9.96749268,1.4951122 C10.0734439,1.67306341 10.2648585,1.78867317 10.4717854,1.78867317 L13.7313951,1.78867317 C13.938322,1.78867317 14.1297366,1.67306341 14.2351024,1.4951122 L15.0352976,0.139697561 C16.056761,0.405453659 17.0518829,0.810819512 18.0028098,1.35199024 L17.4499317,3.44320976 C17.3966634,3.64457561 17.4546146,3.85823415 17.6015415,4.00574634 L19.9002732,6.31062439 C20.0477854,6.45842927 20.2626146,6.5160878 20.4642732,6.4631122 L22.5756878,5.9058439 C23.0949073,6.81169756 23.4988098,7.80886829 23.780078,8.88038049 L21.8829073,9.96594146 C21.7002732,10.0704293 21.5878829,10.2647707 21.5881756,10.4752098 L21.594322,13.7409659 C21.5946146,13.9505268 21.7070049,14.1439902 21.8890537,14.2478927 L23.7797854,15.3299415 C23.4724683,16.4954049 23.0741268,17.4946244 22.5692488,18.3636" id="Fill-3" stroke="#656565"></path>
                        </g>
                    </g>
                </g>
            </g>
        </g>
    </g>
</svg>