<?xml version="1.0" encoding="UTF-8" standalone="no"?>
<svg width="13px" height="14px" viewBox="0 0 13 14" version="1.1" xmlns="http://www.w3.org/2000/svg" xmlns:xlink="http://www.w3.org/1999/xlink">
    <!-- Generator: sketchtool 3.8.3 (29802) - http://www.bohemiancoding.com/sketch -->
    <title>B4BB22EB-8ECC-448E-99F0-DD3552424044</title>
    <desc>Created with sketchtool.</desc>
    <defs></defs>
    <g id="Rules" stroke="none" stroke-width="1" fill="none" fill-rule="evenodd">
        <g id="29" transform="translate(-1114.000000, -470.000000)" stroke="#788290" stroke-width="0.5">
            <g id="Content-/-Rules-Listing" transform="translate(120.000000, 237.000000)">
                <g id="Product-/-02" transform="translate(0.000000, 210.000000)">
                    <g id="Action-Settings" transform="translate(975.000000, 8.000000)">
                        <path d="M24.231945,28.8757539 L25.810353,28.8757539 L24.231945,28.8757539 Z M26.1736831,15.2397859 C26.4395823,15.2396456 26.6573276,15.4332438 26.6573276,15.6992833 L26.657468,17.3842476 L23.3615253,17.3842476 L23.3616657,15.6994237 C23.3613849,15.4332438 23.5747781,15.2396456 23.8408177,15.2397859 L26.1736831,15.2397859 L26.1736831,15.2397859 Z M26.657468,17.3661372 L26.6573276,18.3289338 L23.3615253,18.3287934 L23.3613849,17.3659968 L26.657468,17.3661372 L26.657468,17.3661372 Z M26.6573276,18.2804991 L26.6573276,26.3956192 L26.6573276,27.0414145 C26.6573276,27.3447979 26.4115042,27.5906213 26.1081208,27.5907617 C25.8050182,27.5906213 25.5590544,27.3446575 25.558914,27.0415549 L25.5590544,26.3956192 L25.5590544,18.280078 L26.6573276,18.2804991 L26.6573276,18.2804991 Z M25.558914,18.2804991 L25.558914,26.3956192 L25.558914,27.0414145 C25.5587736,27.3447979 25.3129502,27.5906213 25.0095668,27.5907617 C24.7064642,27.5906213 24.4605004,27.3446575 24.4605004,27.0415549 L24.4605004,26.3956192 L24.4605004,18.280078 L25.558914,18.2804991 L25.558914,18.2804991 Z M24.4605004,18.2804991 L24.4605004,26.3956192 L24.4605004,27.0414145 C24.46036,27.3447979 24.2145366,27.5906213 23.9111532,27.5907617 C23.6080506,27.5906213 23.3620868,27.3446575 23.3619464,27.0415549 L23.3620868,26.3956192 L23.3620868,18.280078 L24.4605004,18.2804991 L24.4605004,18.2804991 Z M23.0988551,15.6994237 L23.0775157,27.2813415 L25.0097072,29.94988 L26.9281405,27.2974864 L26.9371254,15.6988622 C26.9369851,15.2879398 26.6017331,14.9769753 26.1909511,14.9771157 L23.8402561,14.9771157 C23.4296146,14.9768349 23.0988551,15.2885014 23.0988551,15.6994237 L23.0988551,15.6994237 Z" id="Icon-/-Update" transform="translate(25.007321, 22.463498) rotate(-320.000000) translate(-25.007321, -22.463498) "></path>
                    </g>
                </g>
            </g>
        </g>
    </g>
</svg>