<svg xmlns="http://www.w3.org/2000/svg" width="27" height="30" viewBox="0 0 27 30">
  <g fill="none" fill-rule="evenodd" transform="translate(1 1)">
    <path stroke="#656565" d="M3.46837945,20.1985492 L3.46837945,0 L25.4423874,0 L25.4423874,24.710071 C25.4423874,26.3618429 24.0935632,27.7008685 22.4388815,27.7008685 L20.9012884,27.7008685 C19.2424979,27.7008685 17.8977825,26.3595983 17.8977825,24.6926032 L17.8977825,23.2067819 C17.8977825,21.5453628 19.2373404,20.1985165 20.9029929,20.1985165 L21.3883399,20.1985165 L2.99647775,20.1985165 C1.34156878,20.1985165 -2.54657694e-11,21.5397865 -2.54656671e-11,23.2067814 L-2.5465576e-11,24.6926025 C-2.54654741e-11,26.3540214 1.33793645,27.7008675 2.99647775,27.7008675 L21.3883399,27.7008675"/>
    <g stroke="#F59807" stroke-linecap="round" stroke-linejoin="round" transform="translate(9 5)">
      <circle cx="5.333" cy="5.333" r="5.333"/>
      <path d="M12 12L9.1 9.1M5.33333333 3.33333333L5.33333333 7.33333333M3.33333333 5.33333333L7.33333333 5.33333333"/>
    </g>
  </g>
</svg>
