<svg xmlns="http://www.w3.org/2000/svg" width="28" height="31" viewBox="0 0 28 31">
    <g fill="#0B3383" fill-rule="evenodd">
        <path d="M7.382 6.452v2.792H20.63V6.452H7.382zm.775.775h11.699v1.242H8.157V7.227zM7.382 10.76v2.792H20.63V10.76H7.382zm.775.775h11.699v1.243H8.157v-1.243zM7.382 19.364v2.791H20.63v-2.791H7.382zm.775.774h11.699v1.243H8.157v-1.243zM7.382 15.041v2.792H20.63V15.04H7.382zm.775.775h11.699v1.242H8.157v-1.242z"/>
        <path d="M13.927.125a.387.387 0 0 0-.303.388v1.766H7.506v1.912h-3.09v25.207H.393a.388.388 0 1 0 0 .774h27.214a.388.388 0 1 0 0-.774h-4.01V4.191H20.493V2.28H14.4V.513a.387.387 0 0 0-.4-.388.388.388 0 0 0-.073 0zM8.281 3.054H19.72V4.19H8.28V3.054zm-3.09 1.912h17.63v24.432h-5.889V23.48h-5.864v5.918H5.19V4.966zm6.652 19.289h4.314v5.143h-4.314v-5.143z"/>
    </g>
</svg>
