<svg xmlns="http://www.w3.org/2000/svg" width="25" height="30" viewBox="0 0 25 30">
    <path fill="#0B3383" fill-rule="nonzero" d="M20.31 25.212l1.112-5.417 3.25-.307a.361.361 0 0 0 .303-.49l-3.456-8.8C21.473 4.661 16.558 0 10.748 0 6.23 0 1.944 2.889.554 6.883c-.946 2.05-.48 5.94-.072 9.37.137 1.134.264 2.21.325 3.102.081 1.21.064 2.425-.05 3.633l-.582 6.117a.361.361 0 0 0 .361.393l14.592.166c.2 0 .361-.161.361-.36l-.152-4.1 4.6.308a.361.361 0 0 0 .373-.3zm-11.368-9.75a3.059 3.059 0 1 1 3.059-3.058 3.062 3.062 0 0 1-3.059 3.055v.003zm6.078 8.988l-3.748-.69-.13.722 3.47.643.14 3.831-13.815-.173.545-5.727c.118-1.247.135-2.502.05-3.752-.06-.913-.19-1.993-.328-3.138-.38-3.177-.852-7.135 0-8.995v-.036C2.287 4.062 5.176 1.694 8.556.961v7.676a3.78 3.78 0 0 0 0 7.526v3.546c0 .2.162.36.361.36h3.524a2.437 2.437 0 1 0 0-.721H9.304v-3.185a3.78 3.78 0 0 0 0-7.526V.831c.478-.071.96-.107 1.444-.109 5.442 0 10.05 4.362 10.05 9.544 0 .045.008.089.025.13l3.296 8.432-3.022.289a.361.361 0 0 0-.318.285l-1.112 5.359-4.647-.311zm-1.86-4.741a1.715 1.715 0 1 1 3.43 0 1.715 1.715 0 0 1-3.43 0z"/>
</svg>
