<svg xmlns="http://www.w3.org/2000/svg" width="26" height="26" viewBox="0 0 26 26">
    <g fill="#0B3383" fill-rule="nonzero">
        <path d="M12.675 16.197c-2.05 0-3.695-1.654-3.695-3.655 0-2.028 1.672-3.656 3.695-3.656 2.05 0 3.695 1.654 3.695 3.656 0 2.028-1.645 3.655-3.695 3.655zm0-6.51c-1.591 0-2.886 1.28-2.886 2.855 0 1.574 1.295 2.855 2.886 2.855 1.591 0 2.886-1.281 2.886-2.855 0-1.575-1.295-2.856-2.886-2.856zM12.675 3.682a1.855 1.855 0 0 1-1.86-1.84C10.814.826 11.65 0 12.674 0c1.025 0 1.86.827 1.86 1.841a1.855 1.855 0 0 1-1.86 1.841zm0-2.908c-.593 0-1.052.48-1.052 1.04s.486 1.041 1.052 1.041c.566 0 1.052-.48 1.052-1.04S13.268.774 12.675.774z"/>
        <path d="M12.675 9.686a.413.413 0 0 1-.405-.4V3.282c0-.213.19-.4.405-.4.216 0 .405.187.405.4v6.004c0 .214-.19.4-.405.4zM12.675 25.11a1.855 1.855 0 0 1-1.86-1.841c0-1.014.835-1.842 1.86-1.842 1.025 0 1.86.828 1.86 1.842a1.855 1.855 0 0 1-1.86 1.84zm0-2.909c-.593 0-1.052.48-1.052 1.04 0 .561.486 1.042 1.052 1.042.566 0 1.052-.48 1.052-1.041 0-.56-.459-1.04-1.052-1.04z"/>
        <path d="M12.675 22.201a.413.413 0 0 1-.405-.4v-6.004c0-.213.19-.4.405-.4.216 0 .405.187.405.4v6.004c0 .213-.19.4-.405.4zM23.49 14.383a1.855 1.855 0 0 1-1.862-1.841c0-1.014.836-1.842 1.861-1.842s1.861.828 1.861 1.842a1.838 1.838 0 0 1-1.86 1.84zm0-2.882c-.594 0-1.053.48-1.053 1.04s.486 1.041 1.052 1.041c.567 0 1.052-.48 1.052-1.04s-.458-1.041-1.052-1.041z"/>
        <path d="M22.033 12.942h-6.068a.413.413 0 0 1-.404-.4c0-.214.188-.4.404-.4h6.068c.216 0 .404.186.404.4 0 .213-.188.4-.404.4zM1.86 14.383A1.855 1.855 0 0 1 0 12.542C0 11.528.836 10.7 1.86 10.7c1.026 0 1.862.828 1.862 1.842a1.855 1.855 0 0 1-1.861 1.84zm0-2.882c-.593 0-1.051.48-1.051 1.04s.485 1.041 1.052 1.041c.566 0 1.052-.48 1.052-1.04S2.427 11.5 1.86 11.5z"/>
        <path d="M9.385 12.942H3.317a.413.413 0 0 1-.404-.4c0-.214.188-.4.404-.4h6.068c.216 0 .404.186.404.4 0 .213-.188.4-.404.4z"/>
        <g>
            <path d="M20.334 21.961a1.843 1.843 0 0 1-1.321-3.149c.35-.347.836-.533 1.32-.533.486 0 .972.186 1.322.533.729.72.729 1.895 0 2.615-.35.347-.836.534-1.321.534zm0-2.908c-.297 0-.54.106-.755.32-.405.4-.405 1.067 0 1.494a1.1 1.1 0 0 0 1.51 0c.405-.4.405-1.067 0-1.494-.216-.187-.485-.32-.755-.32z"/>
            <path d="M19.282 19.48a.408.408 0 0 1-.296-.107l-4.261-4.243a.384.384 0 0 1 0-.56.394.394 0 0 1 .566 0l4.288 4.242c.162.16.162.4 0 .56a.408.408 0 0 1-.297.107z"/>
        </g>
        <g>
            <path d="M5.016 6.831c-.512 0-.97-.187-1.321-.534a1.849 1.849 0 0 1-.54-1.307c0-.48.189-.96.54-1.308.35-.346.836-.533 1.321-.533s.97.187 1.321.533c.729.72.729 1.895 0 2.615a1.96 1.96 0 0 1-1.32.534zm0-2.908c-.297 0-.54.106-.755.32a1.065 1.065 0 0 0-.324.747c0 .293.108.534.324.747a1.1 1.1 0 0 0 1.51 0c.405-.4.405-1.067 0-1.494a.984.984 0 0 0-.755-.32z"/>
            <path d="M10.356 10.647a.408.408 0 0 1-.297-.107L5.771 6.27a.384.384 0 0 1 0-.56.394.394 0 0 1 .566 0l4.288 4.243c.162.16.162.4 0 .56a.43.43 0 0 1-.27.134z"/>
        </g>
        <g>
            <path d="M5.016 21.961a1.843 1.843 0 0 1-1.321-3.149c.35-.347.836-.533 1.321-.533s.97.186 1.321.533a1.843 1.843 0 1 1-1.321 3.149zm0-2.908c-.297 0-.54.106-.755.32-.405.4-.405 1.067 0 1.494a1.1 1.1 0 0 0 1.51 0c.405-.4.405-1.067 0-1.494a1.087 1.087 0 0 0-.755-.32z"/>
            <path d="M6.068 19.48a.408.408 0 0 1-.297-.107.384.384 0 0 1 0-.56l4.288-4.243a.394.394 0 0 1 .566 0c.162.16.162.4 0 .56l-4.288 4.243a.389.389 0 0 1-.27.106z"/>
        </g>
        <g>
            <path d="M20.334 6.831a1.843 1.843 0 0 1-1.321-3.149c.35-.346.836-.533 1.32-.533.486 0 .972.187 1.322.533.351.347.54.828.54 1.308 0 .48-.189.96-.54 1.307-.35.32-.836.534-1.321.534zm0-2.908c-.297 0-.54.106-.755.32-.405.4-.405 1.067 0 1.494a1.1 1.1 0 0 0 1.51 0c.189-.187.324-.454.324-.747 0-.294-.108-.534-.324-.747a1.07 1.07 0 0 0-.755-.32z"/>
            <path d="M14.994 10.647a.408.408 0 0 1-.296-.107.384.384 0 0 1 0-.56l4.288-4.243a.394.394 0 0 1 .566 0c.162.16.162.4 0 .56l-4.261 4.217a.435.435 0 0 1-.297.133z"/>
        </g>
    </g>
</svg>
