<?xml version="1.0" encoding="UTF-8" standalone="no"?>
<svg width="22px" height="13px" viewBox="0 0 22 13" version="1.1" xmlns="http://www.w3.org/2000/svg" xmlns:xlink="http://www.w3.org/1999/xlink" xmlns:sketch="http://www.bohemiancoding.com/sketch/ns">
    <!-- Generator: sketchtool 3.5.2 (25235) - http://www.bohemiancoding.com/sketch -->
    <title>Icon Flag / India</title>
    <desc>Created with sketchtool.</desc>
    <defs></defs>
    <g id="Lithan---Header-NEW-(Desktop)" stroke="none" stroke-width="1" fill="none" fill-rule="evenodd" sketch:type="MSPage">
        <g id="Desktop-Menu---Countries---Option-02" sketch:type="MSArtboardGroup" transform="translate(-1047.000000, -219.000000)">
            <g id="Nav-/-Desktop-03" sketch:type="MSLayerGroup">
                <g id="Countries-Sub-Menu" transform="translate(1028.000000, 62.000000)" sketch:type="MSShapeGroup">
                    <g id="Icon-Flag-/-India" transform="translate(19.686279, 156.933105)">
                        <path d="M0,12.1337891 L20.3623181,12.1337891 L20.3623181,0.256022949 L0,0.256022949 L0,12.1337891 Z" id="Fill-1" fill="#FFFFFF"></path>
                        <path d="M0,4.21588501 L20.3623181,4.21588501 L20.3623181,0.256022949 L0,0.256022949 L0,4.21588501 Z" id="Fill-2" fill="#F0953E"></path>
                        <path d="M0,12.1337891 L20.3623181,12.1337891 L20.3623181,8.17635376 L0,8.17635376 L0,12.1337891 Z" id="Fill-3" fill="#3B8916"></path>
                        <g id="Group-10" transform="translate(7.886963, 4.246826)">
                            <path d="M2.29286145,0.341262817 L2.24796643,1.23734314 L2.29650159,1.74635559 L2.34139661,1.23734314 L2.29650159,0.341262817 C2.34382336,0.341262817 2.38871838,0.343689575 2.4336134,0.348543091 C2.4336134,0.350969849 2.43179333,0.350969849 2.43179333,0.353396606 C2.43179333,0.395864868 2.46455457,0.431052856 2.50520276,0.431052856 C2.5428175,0.431052856 2.57375867,0.400718384 2.5773988,0.364923706 C2.62229382,0.374630737 2.66476208,0.381304321 2.70905042,0.395864868 L2.4336134,1.24887024 L2.34625012,1.75363586 L2.52401013,1.27010437 L2.71329724,0.395864868 C2.75637219,0.409818726 2.79884045,0.421952515 2.84130872,0.43833313 C2.83888196,0.445613403 2.83584851,0.454713745 2.83584851,0.464420776 C2.83584851,0.50506897 2.86860974,0.5378302 2.91047131,0.5378302 C2.93837903,0.5378302 2.96689343,0.519022827 2.97781384,0.492935181 C3.01785535,0.511742554 3.05729016,0.532976685 3.09733167,0.556637573 L2.61016003,1.30589905 L2.39478528,1.77487 L2.69206311,1.35564758 L3.1009718,0.559064331 C3.13797986,0.580905151 3.1755946,0.60456604 3.21381604,0.628226929 C3.20289563,0.642180786 3.19682874,0.656741333 3.19682874,0.675548706 C3.19682874,0.71559021 3.23019666,0.74895813 3.27145154,0.74895813 C3.29511243,0.74895813 3.31634656,0.739251099 3.32969373,0.718016968 C3.3654884,0.74895813 3.39824963,0.779899292 3.4291908,0.810233765 L2.76547253,1.41024963 L2.43725354,1.80581116 L2.83220837,1.47880554 L3.43283093,0.812660522 C3.46377209,0.846028442 3.49410657,0.876969604 3.52262097,0.912157593 C3.50502698,0.92671814 3.49653333,0.947952271 3.49653333,0.969186401 C3.49653333,1.00983459 3.52990125,1.04259583 3.56933606,1.04259583 C3.58693005,1.04259583 3.59967053,1.03774231 3.6130177,1.02864197 C3.64031873,1.06625671 3.66397961,1.10447815 3.68521375,1.1420929 L2.88863049,1.54978821 L2.46940808,1.84827942 L2.93534558,1.63533142 L3.6876405,1.14451965 C3.71251477,1.1875946 3.73253552,1.23248962 3.75255627,1.27010437 C3.72768201,1.28223816 3.70766125,1.31075256 3.70766125,1.34108704 C3.70766125,1.38173523 3.74102917,1.41510315 3.7798573,1.41510315 C3.79199109,1.41510315 3.79987805,1.41267639 3.8083717,1.40782288 C3.82232556,1.45029114 3.83567273,1.49093933 3.84659314,1.53340759 L2.97053357,1.71844788 L2.49064221,1.89620789 L2.99540784,1.81066467 L3.84841321,1.53826111 C3.85933362,1.57587585 3.87025403,1.62319763 3.87814099,1.66627258 C3.84173962,1.67051941 3.8144386,1.69903381 3.8144386,1.73968201 C3.8144386,1.77972351 3.84841321,1.81309143 3.8890614,1.81309143 L3.89634167,1.81309143 C3.9005885,1.85555969 3.9005885,1.90288147 3.9005885,1.94595642 L3.00754163,1.90288147 L2.49549573,1.94777649 L3.00754163,1.99752502 L3.9005885,1.95020325 C3.9005885,1.99752502 3.9005885,2.04302673 3.89634167,2.085495 L3.8890614,2.085495 C3.84841321,2.085495 3.8144386,2.12128967 3.8144386,2.15890442 C3.8144386,2.19712585 3.84173962,2.22503357 3.87692761,2.23231384 C3.86904065,2.27720886 3.85933362,2.32028381 3.84841321,2.36275208 L3.54446179,2.26568176 L2.99540784,2.08792175 L2.49064221,2.00237854 L2.49306897,2.00237854 L2.49064221,2.00237854 L2.97053357,2.18013855 L3.84659314,2.36760559 C3.83567273,2.41007385 3.82232556,2.45496887 3.80594495,2.49319031 C3.80351819,2.49319031 3.79866467,2.49076355 3.7968446,2.49076355 L3.7798573,2.49076355 C3.73860242,2.49076355 3.7052345,2.52170471 3.7052345,2.56417297 C3.7052345,2.57630676 3.70766125,2.58298035 3.71251477,2.59268738 C3.71615491,2.60421448 3.72282849,2.61392151 3.73253552,2.62120178 C3.73496228,2.62120178 3.73617566,2.62362854 3.73860242,2.62362854 C3.74102917,2.6260553 3.74345593,2.62848206 3.74588269,2.62848206 C3.74648938,2.62848206 3.74891614,2.63030212 3.75012952,2.63272888 C3.73132214,2.67337708 3.71008801,2.71341858 3.6876405,2.75164001 L2.93655896,2.26568176 L2.93534558,2.26568176 L2.46940808,2.05212708 L2.47183484,2.05212708 L2.715724,2.2232135 L2.88863049,2.34637146 L3.68521375,2.75406677 C3.66155286,2.79410828 3.63789197,2.83414978 3.61180432,2.86994446 C3.59967053,2.86266418 3.5845033,2.85781067 3.56933606,2.85781067 C3.52747449,2.85781067 3.49531995,2.88875183 3.49531995,2.92940002 C3.49531995,2.95306091 3.50502698,2.97429504 3.52262097,2.98582214 C3.49349988,3.01919006 3.46377209,3.05255798 3.43283093,3.08349915 L2.83220837,2.41978088 L2.43846692,2.09277527 L2.76547253,2.48833679 L3.4291908,3.08774597 C3.39824963,3.12111389 3.36730847,3.14720154 3.33333386,3.17571594 C3.31877332,3.16358215 3.30360608,3.15933533 3.28722546,3.15933533 C3.24657727,3.15933533 3.21381604,3.19452332 3.21381604,3.23274475 C3.21381604,3.24669861 3.21563611,3.25640564 3.21927625,3.26550598 C3.18044812,3.28916687 3.13979993,3.31525452 3.1009718,3.34134216 L2.69206311,2.5453656 L2.39478528,2.12371643 L2.60894666,2.59026062 L3.09611829,3.34376892 C3.05729016,3.36500305 3.01785535,3.38684387 2.97781384,3.40565125 C2.96689343,3.37713684 2.94080579,3.36075623 2.91168469,3.36075623 C2.86982312,3.36075623 2.8364552,3.39594421 2.8364552,3.43416565 C2.8364552,3.44326599 2.83888196,3.45297302 2.84130872,3.46268005 C2.79884045,3.47663391 2.75758557,3.49058777 2.71329724,3.5002948 L2.52401013,2.62362854 L2.34625012,2.14737732 L2.34625012,2.14495056 L2.4336134,2.64971619 L2.70905042,3.50272156 C2.66476208,3.51424866 2.62108044,3.52638245 2.5773988,3.53123596 C2.57133191,3.49786804 2.54039075,3.46935364 2.50520276,3.46935364 C2.46212781,3.46935364 2.43179333,3.50272156 2.43179333,3.5403363 L2.43179333,3.55004333 C2.38629163,3.55489685 2.34139661,3.55732361 2.29650159,3.55732361 L2.34139661,2.66367004 L2.29407483,2.15162415 L2.24796643,2.66367004 L2.29286145,3.55732361 C2.24553967,3.55732361 2.20185803,3.55489685 2.15514294,3.55004333 L2.15514294,3.5403363 C2.15514294,3.50272156 2.12238171,3.46935364 2.08052014,3.46935364 C2.04533215,3.46935364 2.01439099,3.49786804 2.0083241,3.53123596 C1.96464246,3.52395569 1.92217419,3.51424866 1.88031262,3.50272156 L2.15514294,2.64971619 L2.24068616,2.14737732 L2.06292615,2.62362854 L1.8760658,3.5002948 C1.83299084,3.49058777 1.79052258,3.47663391 1.74684094,3.46268005 C1.74987439,3.45297302 1.75230115,3.44326599 1.75230115,3.43416565 C1.75230115,3.39594421 1.71953992,3.36075623 1.6801051,3.36075623 C1.64916394,3.36075623 1.62307629,3.3795636 1.61033582,3.40565125 C1.57150769,3.38684387 1.5308595,3.36500305 1.49203137,3.34376892 L1.97859631,2.59026062 L2.192151,2.12371643 L1.89608655,2.54293884 L1.48839124,3.34134216 C1.44895642,3.31525452 1.4101283,3.29159363 1.37312024,3.26550598 C1.38161389,3.25640564 1.38768079,3.24184509 1.38768079,3.22546448 C1.38768079,3.18299622 1.35431287,3.1496283 1.31548474,3.1496283 C1.29061047,3.1496283 1.26998303,3.1611554 1.25845593,3.1781427 C1.22266125,3.14720154 1.18990002,3.12111389 1.15895886,3.08774597 L1.82510388,2.48833679 L2.1521095,2.09277527 L1.75715466,2.41978088 L1.1565321,3.08349915 C1.12316418,3.05255798 1.0934364,3.01676331 1.06431531,2.98582214 C1.08069592,2.97186829 1.09222302,2.95063416 1.09222302,2.92697327 C1.09222302,2.88632507 1.05946179,2.8559906 1.0188136,2.8559906 C1.00243298,2.8559906 0.987265747,2.86023743 0.975131958,2.8675177 C0.949044312,2.83172302 0.925383423,2.79410828 0.902935913,2.75406677 L1.70133923,2.3439447 L2.1175282,2.05212708 L1.6515907,2.26568176 L0.900509155,2.75164001 C0.878061646,2.71341858 0.860467651,2.67580383 0.83984021,2.63272888 C0.868354614,2.62362854 0.887768677,2.59754089 0.887768677,2.56659973 C0.887768677,2.52413147 0.855614136,2.49076355 0.813145874,2.49076355 C0.802225464,2.49076355 0.791305054,2.49319031 0.782204712,2.49804382 C0.767644165,2.45739563 0.753690308,2.41250061 0.74034314,2.36760559 L1.61761609,2.18013855 L2.0999342,2.00237854 L1.59274182,2.08792175 L0.739129761,2.36275208 C0.727602661,2.32028381 0.719109009,2.27720886 0.710008667,2.22988708 C0.746410034,2.22503357 0.77371106,2.19712585 0.77371106,2.15890442 C0.77371106,2.11886292 0.74034314,2.085495 0.700301636,2.085495 L0.691807983,2.085495 C0.689381226,2.04302673 0.686347778,1.99752502 0.686347778,1.95020325 L1.58060803,1.99752502 L2.09144055,1.94777649 L1.58060803,1.90288147 L0.686347778,1.94595642 C0.686347778,1.90288147 0.689381226,1.85555969 0.691807983,1.81309143 L0.705155151,1.81309143 C0.745196655,1.81309143 0.778564575,1.78215027 0.778564575,1.73968201 C0.778564575,1.69903381 0.748836792,1.67051941 0.710008667,1.66627258 C0.719109009,1.62319763 0.727602661,1.57587585 0.739129761,1.53826111 L1.59274182,1.81066467 L2.0999342,1.89620789 L1.61761609,1.71844788 L0.74034314,1.53098083 C0.753690308,1.48608582 0.767644165,1.44301086 0.782204712,1.40296936 C0.788878296,1.40539612 0.801012085,1.40782288 0.809505737,1.40782288 C0.85076062,1.40782288 0.882915161,1.37445496 0.882915161,1.33441345 C0.882915161,1.30347229 0.864107788,1.27738464 0.839233521,1.26767761 C0.858040894,1.22520935 0.878061646,1.18516785 0.900509155,1.14451965 L1.6515907,1.63533142 L2.11995496,1.84827942 L1.70133923,1.54978821 L0.902935913,1.1420929 C0.925383423,1.10447815 0.95025769,1.06625671 0.976345337,1.02621521 C0.987265747,1.03774231 1.00485974,1.04259583 1.02002698,1.04259583 C1.05946179,1.04259583 1.0934364,1.00983459 1.0934364,0.969186401 C1.0934364,0.947952271 1.0819093,0.92671814 1.06674207,0.909730835 C1.0934364,0.876969604 1.12316418,0.846028442 1.15531873,0.812660522 L1.75594128,1.47880554 L2.1521095,1.80581116 L1.82510388,1.41024963 L1.15895886,0.810233765 C1.19232678,0.779899292 1.22387463,0.74895813 1.25845593,0.720443726 C1.26998303,0.736824341 1.29182385,0.74895813 1.31548474,0.74895813 C1.35673962,0.74895813 1.39010754,0.71559021 1.39010754,0.673121948 C1.39010754,0.656741333 1.38282727,0.642180786 1.37433362,0.628226929 C1.41255505,0.606386108 1.44895642,0.580905151 1.48839124,0.559064331 L1.89608655,1.35564758 L2.192151,1.77244324 L1.97859631,1.30589905 L1.49203137,0.556637573 C1.5308595,0.532976685 1.57029431,0.511742554 1.60912244,0.492935181 C1.62125623,0.521449585 1.64734387,0.540256958 1.67767834,0.540256958 C1.71953992,0.540256958 1.75108777,0.506889038 1.75108777,0.469274292 C1.75108777,0.457140503 1.7492677,0.445613403 1.74684094,0.43833313 C1.78809583,0.421952515 1.83299084,0.409818726 1.8760658,0.395864868 L2.06535291,1.27010437 L2.24311292,1.75363586 L2.15635632,1.24887024 L1.881526,0.395864868 C1.92460095,0.381304321 1.96706921,0.374630737 2.01196423,0.364923706 C2.01681775,0.400718384 2.04775891,0.429232788 2.08416028,0.429232788 C2.12602185,0.429232788 2.15878308,0.395864868 2.15878308,0.353396606 L2.15878308,0.346116333 C2.20307141,0.341262817 2.24796643,0.341262817 2.29286145,0.341262817 M2.29407483,0.168356323 C1.31063123,0.168356323 0.511621216,0.964332886 0.511621216,1.94777649 C0.511621216,2.93182678 1.31063123,3.7302301 2.29407483,3.7302301 C3.27751843,3.7302301 4.07592175,2.93182678 4.07592175,1.94777649 C4.07531506,0.964332886 3.27751843,0.168356323 2.29407483,0.168356323" id="Fill-4" fill="#16007E"></path>
                            <path d="M2.29638025,1.6826532 C2.4431991,1.6826532 2.56150354,1.8033844 2.56150354,1.94777649 C2.56150354,2.09520203 2.4431991,2.21593323 2.29638025,2.21593323 C2.14713464,2.21593323 2.0288302,2.09520203 2.0288302,1.94777649 C2.0288302,1.8033844 2.14713464,1.6826532 2.29638025,1.6826532" id="Fill-6" fill="#FFFFFF"></path>
                            <path d="M2.29638025,1.74423218 C2.40922449,1.74423218 2.50144128,1.83402222 2.50144128,1.94807983 C2.50144128,2.06395752 2.40922449,2.15678101 2.29638025,2.15678101 C2.18171594,2.15678101 2.08767908,2.06395752 2.08767908,1.94807983 C2.08767908,1.83402222 2.18171594,1.74423218 2.29638025,1.74423218" id="Fill-8" fill="#16007E"></path>
                        </g>
                    </g>
                </g>
            </g>
        </g>
    </g>
</svg>