<svg xmlns="http://www.w3.org/2000/svg" width="16" height="17" viewBox="0 0 16 17">
    <g fill="#5F7081" fill-rule="nonzero" stroke="#636F80">
        <path stroke-width=".5" d="M14.757 4.875L8.086 1.023a.171.171 0 0 0-.172 0L1.243 4.875a.171.171 0 0 0-.086.148v7.704a.17.17 0 0 0 .086.148l6.671 3.852a.172.172 0 0 0 .172 0l6.67-3.852a.17.17 0 0 0 .087-.148V5.023a.17.17 0 0 0-.086-.148zM1.5 12.6V5.32l6.304 3.64.025.043v7.28l-6.305-3.64L1.5 12.6zM8.025 1.383l6.304 3.64-6.304 3.64h-.05l-6.304-3.64 6.304-3.64h.05zm.146 7.62l.025-.043L14.5 5.32v7.28l-.024.043-6.305 3.64v-7.28z"/>
        <path stroke-width=".2" d="M7.872 7.807h.256v.428h-.256v-.428zm0-3.426h.256v.428h-.256v-.428zm0 2.57h.256v.427h-.256V6.95zm0-1.714h.256v.428h-.256v-.428zm0-3.426h.256v.429h-.256V1.81zm0 .857h.256v.428h-.256v-.428zm0 .856h.256v.429h-.256v-.429zm0 2.57h.256v.428h-.256v-.428zm-2.217 4.282l-.128-.222.37-.214.13.222-.372.214zm-.74.429l-.129-.223.371-.214.128.223-.37.214zm-.743.428l-.128-.222.37-.215.129.222-.371.215zM7.138 9.52l-.128-.223.37-.214.13.223-.372.214zm-.741.427l-.128-.222.37-.214.129.222-.371.214zm-4.45 2.57l-.128-.223.37-.214.129.222-.37.215zm1.483-.858l-.129-.222.371-.214.129.222-.371.214zm-.74.43l-.129-.223.371-.214.128.223-.37.214zm8.397-1.285l-.371-.214.128-.222.371.214-.128.222zm-1.484-.857l-.37-.214.128-.222.37.214-.128.222zm.741.428l-.37-.214.128-.223.37.214-.128.223zm3.34 1.927l.128-.222.371.214-.128.223-.371-.215zM8.862 9.52l-.371-.214.128-.222.371.214-.128.222zm3.707 2.141l-.371-.214.128-.222.371.214-.128.222zm.743.429l-.37-.214.128-.222.37.214-.128.222zm-1.483-.857l-.371-.214.128-.222.371.214-.128.222z"/>
    </g>
</svg>
