<?xml version="1.0" encoding="utf-8"?>
<!-- Generator: Adobe Illustrator 19.2.1, SVG Export Plug-In . SVG Version: 6.00 Build 0)  -->
<svg version="1.1" id="Layer_2" xmlns="http://www.w3.org/2000/svg" xmlns:xlink="http://www.w3.org/1999/xlink" x="0px" y="0px"
	 viewBox="0 0 11 11" style="enable-background:new 0 0 11 11;" xml:space="preserve">
<style type="text/css">
	.st0{fill:#788290;}
</style>
<path class="st0" d="M10.8,10L7.9,7.1c0,0-0.1-0.1-0.1-0.1c0.6-0.8,0.9-1.7,0.9-2.7c0-1.2-0.5-2.3-1.3-3.1S5.5,0,4.4,0
	C3.2,0,2.1,0.5,1.3,1.3c-1.7,1.7-1.7,4.5,0,6.1c0.8,0.8,1.9,1.3,3.1,1.3c1,0,1.9-0.3,2.7-0.9c0,0,0.1,0.1,0.1,0.1l2.9,2.9
	c0.2,0.2,0.5,0.2,0.8,0C11,10.6,11,10.2,10.8,10z M4.4,8C3.4,8,2.4,7.7,1.7,7c-1.4-1.4-1.4-3.8,0-5.2C2.4,1,3.4,0.6,4.4,0.6
	S6.3,1,7,1.7c0.7,0.7,1.1,1.6,1.1,2.6S7.7,6.3,7,7C6.3,7.7,5.4,8,4.4,8z"/>
<path class="st0" d="M2.9,2.9c0.8-0.8,2.2-0.8,3,0C5.9,3,6.1,3,6.2,2.9c0.1-0.1,0.1-0.2,0-0.3c-1-1-2.6-1-3.6,0
	c-0.1,0.1-0.1,0.2,0,0.3C2.6,3,2.8,3,2.9,2.9z"/>
</svg>
