<?xml version="1.0" encoding="UTF-8" standalone="no"?>
<svg width="45px" height="53px" viewBox="0 0 45 53" version="1.1" xmlns="http://www.w3.org/2000/svg" xmlns:xlink="http://www.w3.org/1999/xlink">
    <!-- Generator: Sketch 3.6.1 (26313) - http://www.bohemiancoding.com/sketch -->
    <title>Icon / Outcome</title>
    <desc>Created with Sketch.</desc>
    <defs></defs>
    <g id="Lithan---Product---Create/Edit-(Desktop)" stroke="none" stroke-width="1" fill="none" fill-rule="evenodd">
        <g id="00---Product-(Create)---Intro" transform="translate(-908.000000, -293.000000)">
            <g id="Content-/-Basic-Data" transform="translate(-1.000000, 0.000000)">
                <g id="Dropdown" transform="translate(427.000000, 246.000000)">
                    <g id="Group-3" transform="translate(419.000000, 0.000000)">
                        <g id="Icon-/-Outcome" transform="translate(85.500000, 73.056572) scale(-1, 1) translate(-85.500000, -73.056572) translate(63.000000, 47.000000)">
                            <path d="M5.4,2.69550749 L16.0034925,2.69550749 C17.1061332,2.69550749 18,3.58664506 18,4.68727716 L18,18.6737877 C18,19.7738117 17.1139925,20.6655574 16.0034925,20.6655574 L5.40000003,20.6655574" id="Path-1832" stroke="#656565"></path>
                            <path d="M5.4,0 L5.4,5.39101498 L0,2.69550749 L5.4,0 Z" id="Triangle-2" fill="#F59807"></path>
                            <path d="M5.4,17.9700499 L5.4,23.3610649 L0,20.6655574 L5.4,17.9700499 Z" id="Triangle-2" fill="#F59807"></path>
                            <path d="M5.4,28.7520799 L5.4,34.1430948 L0,31.4475874 L5.4,28.7520799 Z" id="Triangle-2" fill="#F59807"></path>
                            <path d="M5.4,46.7221298 L5.4,52.1131448 L0,49.4176373 L5.4,46.7221298 Z" id="Triangle-2" fill="#F59807"></path>
                            <path d="M5.4,31.4475874 L16.0034925,31.4475874 C17.1061332,31.4475874 18,32.3387249 18,33.439357 L18,47.4258676 C18,48.5258916 17.1139925,49.4176373 16.0034925,49.4176373 L5.40000003,49.4176373" id="Path-1832" stroke="#656565"></path>
                            <path d="M18.9,11.6805324 L30.4080285,11.6805324 C31.508164,11.6805324 32.4,12.5725535 32.4,13.6794954 L32.4,38.4336494 C32.4,39.5376461 31.5063884,40.4326123 30.3904001,40.4326123 L18.7805286,40.4326123" id="Path-1832" stroke="#656565"></path>
                            <path d="M33.3,26.0565724 L44.1,26.0565724" id="Line" stroke="#656565" stroke-linecap="square"></path>
                        </g>
                    </g>
                </g>
            </g>
        </g>
    </g>
</svg>