<?xml version="1.0" encoding="utf-8"?>
<!-- Generator: Adobe Illustrator 19.2.1, SVG Export Plug-In . SVG Version: 6.00 Build 0)  -->
<svg version="1.1" id="Layer_3" xmlns="http://www.w3.org/2000/svg" xmlns:xlink="http://www.w3.org/1999/xlink" x="0px" y="0px"
	 viewBox="0 0 11 11" style="enable-background:new 0 0 11 11;" xml:space="preserve">
<style type="text/css">
	.st0{fill:#788290;}
</style>
<g>
	<g>
		<rect x="3.9" y="1" class="st0" width="3.3" height="1"/>
		<path class="st0" d="M9.5,11H1.5C0.7,11,0,10.3,0,9.5V2.4C0,1.6,0.7,1,1.5,1l1,0l0,1l-1,0C1.2,2,1,2.2,1,2.4v7.1
			C1,9.8,1.2,10,1.5,10h8.1C9.8,10,10,9.8,10,9.5V2.4C10,2.2,9.8,2,9.5,2h-1V1h1C10.3,1,11,1.6,11,2.4v7.1C11,10.3,10.3,11,9.5,11z"
			/>
	</g>
</g>
<path class="st0" d="M7.9,2.8c-0.3,0-0.5-0.2-0.5-0.5V0.7c0-0.3,0.2-0.5,0.5-0.5s0.5,0.2,0.5,0.5v1.6C8.4,2.6,8.1,2.8,7.9,2.8z"/>
<path class="st0" d="M3.1,2.8c-0.3,0-0.5-0.2-0.5-0.5V0.7c0-0.3,0.2-0.5,0.5-0.5s0.5,0.2,0.5,0.5v1.6C3.6,2.6,3.4,2.8,3.1,2.8z"/>
<path class="st0" d="M10.5,4.9H0.5C0.2,4.9,0,4.7,0,4.4s0.2-0.5,0.5-0.5h9.9c0.3,0,0.5,0.2,0.5,0.5S10.7,4.9,10.5,4.9z"/>
</svg>
