<svg xmlns="http://www.w3.org/2000/svg" width="16" height="16" viewBox="0 0 16 16">
    <path fill="#636F80" fill-rule="nonzero" stroke="#636F80" stroke-width=".5" d="M1.875 1.063A.877.877 0 0 0 1 1.938v9.1c0 .482.393.875.875.875H4.15v2.275c0 .482.393.875.875.875h9.1a.877.877 0 0 0 .875-.875v-9.1a.877.877 0 0 0-.875-.875H11.85V1.938a.877.877 0 0 0-.875-.875h-9.1zm0 .35h9.1a.52.52 0 0 1 .525.525v2.275H5.025a.877.877 0 0 0-.875.875v6.475H1.875a.52.52 0 0 1-.525-.525v-9.1a.52.52 0 0 1 .525-.525zm3.15 3.15h9.1a.52.52 0 0 1 .525.525v9.1a.52.52 0 0 1-.525.525h-9.1a.52.52 0 0 1-.525-.525v-9.1a.52.52 0 0 1 .525-.525zm1.542 2.45a.176.176 0 0 0 .033.35h5.95a.175.175 0 1 0 0-.35H6.6a.175.175 0 0 0-.033 0zm0 2.45a.176.176 0 0 0 .033.35h5.95a.175.175 0 1 0 0-.35H6.6a.175.175 0 0 0-.033 0zm0 2.45a.176.176 0 1 0 .033.35h5.95a.175.175 0 1 0 0-.35H6.6a.175.175 0 0 0-.033 0z"/>
</svg>
