<?xml version="1.0" encoding="UTF-8" standalone="no"?>
<svg width="47px" height="53px" viewBox="0 0 47 53" version="1.1" xmlns="http://www.w3.org/2000/svg" xmlns:xlink="http://www.w3.org/1999/xlink">
    <!-- Generator: Sketch 3.6.1 (26313) - http://www.bohemiancoding.com/sketch -->
    <title>Icon / Framework</title>
    <desc>Created with Sketch.</desc>
    <defs></defs>
    <g id="Lithan---Product---Create/Edit-(Desktop)" stroke="none" stroke-width="1" fill="none" fill-rule="evenodd">
        <g id="00---Product-(Create)---Intro" transform="translate(-488.000000, -292.000000)">
            <g id="Content-/-Basic-Data" transform="translate(-1.000000, 0.000000)">
                <g id="Dropdown" transform="translate(427.000000, 246.000000)">
                    <g id="Group">
                        <g id="Icon-/-Framework" transform="translate(63.000000, 47.000000)">
                            <path d="M2.41071429,13.6379843 L22.5,25.6714999 L22.5,48.1340623" id="Line" stroke="#979797" stroke-linecap="square"></path>
                            <path d="M22.5,14.4402187 L42.5892857,25.6714999 L42.5892857,48.1340623" id="Line" stroke="#979797" stroke-linecap="square" transform="translate(32.544643, 31.287140) scale(-1, 1) translate(-32.544643, -31.287140) "></path>
                            <path d="M2.41071429,14.4402187 L2.41071429,37.7050155 L22.5,48.1340623 L42.5892857,36.9027811 L42.5892857,14.4402187 L22.5,3.20893749 L2.41071429,14.4402187 Z" id="Path-1826" stroke="#656565"></path>
                            <ellipse id="Oval-82" stroke="#656565" fill="#F59807" cx="2.61627907" cy="14.1043996" rx="2.61627907" ry="2.61192586"></ellipse>
                            <ellipse id="Oval-82" stroke="#656565" fill="#F59807" cx="42.3837209" cy="14.1043996" rx="2.61627907" ry="2.61192586"></ellipse>
                            <ellipse id="Oval-82" stroke="#656565" fill="#F59807" cx="22.5" cy="2.61192586" rx="2.61627907" ry="2.61192586"></ellipse>
                            <ellipse id="Oval-82" stroke="#656565" fill="#F59807" cx="22.5" cy="25.5968734" rx="2.61627907" ry="2.61192586"></ellipse>
                            <ellipse id="Oval-82" stroke="#656565" fill="#F59807" cx="22.5" cy="48.581821" rx="2.61627907" ry="2.61192586"></ellipse>
                            <ellipse id="Oval-82" stroke="#656565" fill="#F59807" cx="42.3837209" cy="37.0893472" rx="2.61627907" ry="2.61192586"></ellipse>
                            <ellipse id="Oval-82" stroke="#656565" fill="#F59807" cx="2.61627907" cy="37.0893472" rx="2.61627907" ry="2.61192586"></ellipse>
                        </g>
                    </g>
                </g>
            </g>
        </g>
    </g>
</svg>