<?xml version="1.0" encoding="UTF-8" standalone="no"?>
<svg width="45px" height="50px" viewBox="0 0 45 50" version="1.1" xmlns="http://www.w3.org/2000/svg" xmlns:xlink="http://www.w3.org/1999/xlink">
    <!-- Generator: Sketch 3.6.1 (26313) - http://www.bohemiancoding.com/sketch -->
    <title>Icon / Product</title>
    <desc>Created with Sketch.</desc>
    <defs></defs>
    <g id="Lithan---Product---Create/Edit-(Desktop)" stroke="none" stroke-width="1" fill="none" fill-rule="evenodd">
        <g id="00---Product-(Create)---Intro" transform="translate(-908.000000, -502.000000)">
            <g id="Content-/-Basic-Data" transform="translate(-1.000000, 0.000000)">
                <g id="Dropdown" transform="translate(427.000000, 246.000000)">
                    <g id="Group-6" transform="translate(419.000000, 209.767055)">
                        <g id="Icon-/-Product" transform="translate(63.000000, 47.000000)">
                            <path d="M3.46153846,34.5577883 L-4.3537014e-08,36.2856777 L22.5,48.3809036 L45,36.2856777 L41.5384615,34.5577883" id="Path-1874" stroke="#979797"></path>
                            <path d="M3.46153846,31.1020095 L-4.3537014e-08,32.8298989 L22.5,44.9251248 L45,32.8298989 L41.5384615,31.1020095" id="Path-1874" stroke="#656565"></path>
                            <path d="M3.46153846,27.6462306 L-4.3537014e-08,29.3741201 L22.5,41.469346 L45,29.3741201 L41.5384615,27.6462306" id="Path-1874" stroke="#979797"></path>
                            <path d="M3.46153846,24.1904518 L-4.3537014e-08,25.9183412 L22.5,38.0135671 L45,25.9183412 L41.5384615,24.1904518" id="Path-1874" stroke="#656565"></path>
                            <path d="M3.46153846,20.734673 L-4.3537014e-08,22.4625624 L22.5,34.5577883 L45,22.4625624 L41.5384615,20.734673" id="Path-1874" stroke="#979797"></path>
                            <path d="M3.46153846,17.2788942 L-4.3537014e-08,19.0067836 L22.5,31.1020095 L45,19.0067836 L41.5384615,17.2788942" id="Path-1874" stroke="#656565"></path>
                            <path d="M3.46153846,13.8231153 L-4.35362253e-08,15.5510047 L22.5,27.6462306 L45,15.5510047 L41.5384615,13.8231153" id="Path-1874" stroke="#979797"></path>
                            <path d="M22.5,0 L0,12.0952259 L22.5,24.1904518 L45,12.0952259 L22.5,0 Z" id="Path-1872" stroke="#656565" fill="#F59807"></path>
                        </g>
                    </g>
                </g>
            </g>
        </g>
    </g>
</svg>