<?xml version="1.0" encoding="UTF-8" standalone="no"?>
<svg width="15px" height="17px" viewBox="0 0 15 17" version="1.1" xmlns="http://www.w3.org/2000/svg" xmlns:xlink="http://www.w3.org/1999/xlink">
    <!-- Generator: Sketch 3.6.1 (26313) - http://www.bohemiancoding.com/sketch -->
    <title>Icon / UnPublish</title>
    <desc>Created with Sketch.</desc>
    <defs></defs>
    <g id="Lithan---Product---Listing" stroke="none" stroke-width="1" fill="none" fill-rule="evenodd">
        <g id="00---Product-Listing---User-Options" transform="translate(-449.000000, -309.000000)" stroke="#788290" stroke-width="0.5">
            <g id="Content-/-Course" transform="translate(120.000000, 64.000000)">
                <g id="Product-/-01" transform="translate(0.000000, 154.000000)">
                    <g id="Action-Settings" transform="translate(311.000000, 29.000000)">
                        <g id="Icon-/-UnPublish" transform="translate(18.000000, 62.000000)">
                            <path d="M1.26315,0.35001 L1.26315,13.04991 L13.51305,4.04991 L13.51305,2.95011 L10.88805,0.32511 L1.26315,0.35001 L1.26315,0.35001 Z" id="Stroke-1"></path>
                            <path d="M1.26315,15.50001 L1.26315,16.64991 L13.51305,16.64991 L13.51305,6.42501 L1.26315,15.50001 L1.26315,15.50001 Z" id="Stroke-3"></path>
                            <path d="M0.08814,15.10869 L14.73804,4.46769" id="Stroke-5"></path>
                            <path d="M10.8162,3.0219 L13.6539,3.0219 L10.8162,0.1845 L10.8162,3.0219 Z" id="Fill-8"></path>
                            <path d="M5,5 L7,3 L9,5" id="Stroke-9"></path>
                            <path d="M7,9 L7,3" id="Stroke-10"></path>
                        </g>
                    </g>
                </g>
            </g>
        </g>
    </g>
</svg>