<?xml version="1.0" encoding="UTF-8" standalone="no"?>
<svg width="56px" height="47px" viewBox="0 0 56 47" version="1.1" xmlns="http://www.w3.org/2000/svg" xmlns:xlink="http://www.w3.org/1999/xlink">
    <!-- Generator: Sketch 3.7.2 (28276) - http://www.bohemiancoding.com/sketch -->
    <title>Icon / Outline</title>
    <desc>Created with Sketch.</desc>
    <defs></defs>
    <g id="Lithan---Product---Create/Edit-(Desktop)-Satya-Option-02" stroke="none" stroke-width="1" fill="none" fill-rule="evenodd">
        <g id="00---Product-(Create)---Intro" transform="translate(-1007.000000, -231.000000)">
            <g id="Content-/-Basic-Data" transform="translate(-1.000000, 0.000000)">
                <g id="Dropdown" transform="translate(322.000000, 185.000000)">
                    <g id="Group-6" transform="translate(629.000000, 0.000000)">
                        <g id="Icon-/-Outline" transform="translate(58.000000, 47.000000)">
                            <path d="M27,10 L27,4 C27,4 27,2.66453526e-15 23,4.4408921e-15 C19,5.32907052e-15 0,1.62420446e-15 0,1.62420446e-15 L2.51052594e-15,41 L23,41 C23,41 27,41 27,45 C27,49 27,31 27,31" id="Path-1361" stroke="#656565"></path>
                            <path d="M54,10 L54,4 C54,4 54,2.66453526e-15 50,4.4408921e-15 C46,5.32907052e-15 27,1.62420446e-15 27,1.62420446e-15 L27,41 L50,41 C50,41 54,41 54,45 C54,49 54,31 54,31" id="Path-1361" stroke="#656565" transform="translate(40.500000, 22.790000) scale(-1, 1) translate(-40.500000, -22.790000) "></path>
                            <path d="M27.334447,16.2382739 C25.1392752,16.2382739 23.3546572,18.0245575 23.3546572,20.2197293 C23.3546572,22.4136519 25.1392752,24.1999355 27.334447,24.1999355 C29.5300352,24.1999355 31.3146532,22.4136519 31.3146532,20.2197293 C31.3146532,18.0245575 29.5300352,16.2382739 27.334447,16.2382739" id="Path" stroke="#F59807"></path>
                            <path d="M27.3486041,27.4368978 C27.3440238,27.4368978 27.3394436,27.4385633 27.334447,27.4385633 C27.3298668,27.4385633 27.3252866,27.4368978 27.3207064,27.4368978 C23.3467459,27.4289865 20.1160294,24.1953552 20.1160294,20.2197293 C20.1160294,16.2445197 23.3467459,13.0108884 27.3207064,13.0029771 C27.3252866,13.0029771 27.3298668,13.0013116 27.334447,13.0013116 C27.3394436,13.0013116 27.3440238,13.0029771 27.3486041,13.0029771 C31.3225645,13.0108884 34.5549466,16.2445197 34.5549466,20.2197293 C34.5549466,24.1953552 31.3225645,27.4289865 27.3486041,27.4368978" id="Path" stroke="#979797"></path>
                            <path d="M43.6017025,19.7046634 C43.3160637,19.378219 36.7313811,12.0144836 28.2700599,11.4898409 C27.9623528,11.4586122 27.6500654,11.4398749 27.334447,11.4398749 C27.019245,11.4398749 26.7069577,11.4586122 26.3992506,11.4898409 C17.9379293,12.0144836 11.3549122,19.378219 11.0692734,19.7046634 C10.8098668,19.999879 10.8098668,20.4399959 11.0692734,20.733546 C11.3549122,21.0599904 17.9379293,28.4253913 26.3992506,28.9483685 C26.7069577,28.9812628 27.019245,29 27.334447,29 C27.6500654,29 27.9623528,28.9812628 28.2700599,28.9483685 C36.7313811,28.4253913 43.3160637,21.0599904 43.6017025,20.733546 C43.8594437,20.4399959 43.8594437,19.999879 43.6017025,19.7046634" id="Path" stroke="#979797"></path>
                        </g>
                    </g>
                </g>
            </g>
        </g>
    </g>
</svg>