<?xml version="1.0" encoding="UTF-8" standalone="no"?>
<svg width="45px" height="49px" viewBox="0 0 45 49" version="1.1" xmlns="http://www.w3.org/2000/svg" xmlns:xlink="http://www.w3.org/1999/xlink">
    <!-- Generator: Sketch 3.7.2 (28276) - http://www.bohemiancoding.com/sketch -->
    <title>Icon / Certificates</title>
    <desc>Created with Sketch.</desc>
    <defs></defs>
    <g id="Lithan---Product---Create/Edit-(Desktop)-Satya-Option-02" stroke="none" stroke-width="1" fill="none" fill-rule="evenodd">
        <g id="00---Product-(Create)---Intro" transform="translate(-383.000000, -441.000000)">
            <g id="Content-/-Basic-Data" transform="translate(-1.000000, 0.000000)">
                <g id="Dropdown" transform="translate(322.000000, 185.000000)">
                    <g id="Group-5" transform="translate(0.000000, 209.767055)">
                        <g id="Icon-/-Certificates" transform="translate(63.000000, 47.000000)">
                            <path d="M5.86956522,34.1821602 L5.86956522,0 L43.0563479,0 L43.0563479,40.8697328 C43.0563479,44.1882241 40.3798001,46.8783928 37.0649905,46.8783928 L36.2799125,46.8783928 C32.9709771,46.8783928 30.288555,44.1858367 30.288555,40.8834501 L30.288555,40.1770476 C30.288555,36.8661322 32.965569,34.1821049 36.1956522,34.1821049 L36.1956522,34.1821049 L5.99727894,34.1821049 C2.68507324,34.1821049 -4.24121308e-11,36.8746606 -4.24119282e-11,40.1770468 L-4.24118849e-11,40.8834492 C-4.24116818e-11,44.1943642 2.69098579,46.8783911 5.99727894,46.8783911 L36.1956522,46.8783911" id="Path-1867" stroke="#656565"></path>
                            <ellipse id="Oval-100" fill="#F59807" cx="24.4565217" cy="10.7429646" rx="4.89130435" ry="4.88316574"></ellipse>
                            <path d="M12.7173913,22.4625624 L36.2770327,22.4625624" id="Line" stroke="#979797" stroke-linecap="square"></path>
                            <path d="M12.7173913,28.3223613 L36.2770327,28.3223613" id="Line" stroke="#979797" stroke-linecap="square"></path>
                        </g>
                    </g>
                </g>
            </g>
        </g>
    </g>
</svg>