<?xml version="1.0" encoding="utf-8"?>
<!-- Generator: Adobe Illustrator 18.1.1, SVG Export Plug-In . SVG Version: 6.00 Build 0)  -->
<svg version="1.1" id="Layer_2" xmlns="http://www.w3.org/2000/svg" xmlns:xlink="http://www.w3.org/1999/xlink" x="0px" y="0px"
	 viewBox="0 0 20 20" enable-background="new 0 0 20 20" xml:space="preserve">
<path fill="none" stroke="#0085CA" stroke-width="0.3" stroke-linecap="round" stroke-linejoin="round" stroke-miterlimit="10" d="
	M13.4,17.5H6.6c-2.2,0-4-1.8-4-4V6.6c0-2.2,1.8-4,4-4h6.9c2.2,0,4,1.8,4,4v6.9C17.4,15.7,15.6,17.5,13.4,17.5z"/>
<path fill="#0085CA" stroke="#0085CA" stroke-miterlimit="10" d="M14.6,8.1c0,2-1.2,3.7-3,4.4c0,1,0,4.3,0,4.3H8.2c0,0,0-3.3,0-4.2
	c-1.7-0.7-3-2.4-3-4.4c0-2.6,2.1-4.7,4.7-4.7S14.6,5.5,14.6,8.1z"/>
<line fill="none" stroke="#FFFFFF" stroke-width="0.6" stroke-miterlimit="10" x1="8.6" y1="14.6" x2="11.2" y2="14.6"/>
<line fill="none" stroke="#FFFFFF" stroke-width="0.6" stroke-miterlimit="10" x1="8.6" y1="15.9" x2="11.2" y2="15.9"/>
<polyline fill="none" stroke="#FFFFFF" stroke-width="0.3" stroke-linecap="round" stroke-linejoin="round" stroke-miterlimit="10" points="
	9.3,4.2 11,4.2 11,5 7.7,5 7.7,8 6.8,8 6.8,6.6 6.1,6.6 6.1,8.8 8.3,8.8 8.3,5.7 11.7,5.7 11.7,5.1 12.5,5.1 12.5,6.5 13.6,6.5 
	13.6,7.5 11.4,7.5 11.4,6.5 9.2,6.5 9.2,10 10,10 10,7.5 10.8,7.5 10.8,8.2 13.4,8.2 13.4,9 10.7,9 10.7,9.9 12.7,9.9 12.7,10.6 
	8.3,10.6 8.3,9.6 6.6,9.6 6.6,10.2 7.6,10.2 7.6,11.3 9.4,11.3 9.4,12.1 10,12.1 10,11.3 11.3,11.3 11.3,11.9 10.6,11.9 10.6,12.8 
	9.1,12.8 9.1,13.5 10.1,13.5 10.1,14.3 "/>
</svg>
