<?xml version="1.0" encoding="utf-8"?>
<!-- Generator: Adobe Illustrator 18.1.1, SVG Export Plug-In . SVG Version: 6.00 Build 0)  -->
<svg version="1.1" id="Layer_2" xmlns="http://www.w3.org/2000/svg" xmlns:xlink="http://www.w3.org/1999/xlink" x="0px" y="0px"
	 viewBox="0 0 20 20" enable-background="new 0 0 20 20" xml:space="preserve">
<path fill="none" stroke="#0085CA" stroke-width="0.3" stroke-linecap="round" stroke-linejoin="round" stroke-miterlimit="10" d="
	M13.4,17.5H6.6c-2.2,0-4-1.8-4-4V6.6c0-2.2,1.8-4,4-4h6.9c2.2,0,4,1.8,4,4v6.9C17.4,15.7,15.6,17.5,13.4,17.5z"/>
<text transform="matrix(1 0 0 1 6.657 14.1504)" fill="#0085CA" font-family="'DINPro-Bold'" font-size="11.6135">1</text>
<line fill="none" stroke="#0085CA" stroke-width="0.3" stroke-miterlimit="10" x1="3.7" y1="10.1" x2="16.3" y2="10.1"/>
<rect x="15.5" y="9.7" fill="#0085CA" stroke="#0085CA" stroke-width="0.5" stroke-miterlimit="10" width="0.4" height="0.8"/>
<rect x="4.1" y="9.7" fill="#0085CA" stroke="#0085CA" stroke-width="0.5" stroke-miterlimit="10" width="0.4" height="0.8"/>
<polygon fill="#0085CA" stroke="#0085CA" stroke-miterlimit="10" points="13.9,3.8 12.9,3.8 12.9,3.1 13.9,3.1 "/>
<polygon fill="#0085CA" stroke="#0085CA" stroke-miterlimit="10" points="7.2,3.8 6.1,3.8 6.1,3.1 7.2,3.1 "/>
</svg>
