<?xml version="1.0" encoding="utf-8"?>
<!-- Generator: Adobe Illustrator 18.1.1, SVG Export Plug-In . SVG Version: 6.00 Build 0)  -->
<svg version="1.1" id="Layer_3" xmlns="http://www.w3.org/2000/svg" xmlns:xlink="http://www.w3.org/1999/xlink" x="0px" y="0px"
	 viewBox="0 0 20 20" enable-background="new 0 0 20 20" xml:space="preserve">
<circle fill="#ffffff" cx="10" cy="10" r="10"/>
<polygon fill="#0085CA" points="4.9,11.5 3.5,16.4 8.4,15 13.8,9.5 13.1,8.7 7.6,14.2 4.9,15 5.8,12.1 11,6.8 10.4,6.2 "/>
<polygon fill="#0085CA" points="11.6,7.3 12.5,8.3 7.2,13.6 7.2,12.6 6.2,12.7 "/>
<path fill="#0085CA" d="M12.3,4.4l3.3,3.3L16.2,7c0,0,0.4-0.8,0-1.2c-0.4-0.4-2-2-2-2s-0.8-0.5-1.3,0C12.3,4.3,12.3,4.4,12.3,4.4z"
	/>
<polygon fill="#0085CA" points="11,5.6 11.7,4.9 15.1,8.2 14.3,9 "/>
</svg>
