<?xml version="1.0" encoding="utf-8"?>
<!-- Generator: Adobe Illustrator 18.1.1, SVG Export Plug-In . SVG Version: 6.00 Build 0)  -->
<svg version="1.1" id="Ingredients" xmlns="http://www.w3.org/2000/svg" xmlns:xlink="http://www.w3.org/1999/xlink" x="0px"
	 y="0px" viewBox="0 0 20 20" enable-background="new 0 0 20 20" xml:space="preserve">
<g>
	<path fill="#0085CA" d="M14,4.9c2.8,0,5.1,2.3,5.1,5.1s-2.3,5.1-5.1,5.1S8.9,12.8,8.9,10S11.2,4.9,14,4.9 M14,3.9
		c-3.4,0-6.1,2.7-6.1,6.1s2.7,6.1,6.1,6.1s6.1-2.7,6.1-6.1S17.4,3.9,14,3.9L14,3.9z"/>
</g>
<g>
	<path fill="#0085CA" d="M6.2,4.9c2.8,0,5.1,2.3,5.1,5.1S9,15.1,6.2,15.1S1.1,12.8,1.1,10S3.4,4.9,6.2,4.9 M6.2,3.9
		c-3.4,0-6.1,2.7-6.1,6.1s2.7,6.1,6.1,6.1s6.1-2.7,6.1-6.1S9.5,3.9,6.2,3.9L6.2,3.9z"/>
</g>
<g>
	<path fill="#0085CA" d="M10,8.8c2.8,0,5.1,2.3,5.1,5.1S12.8,19,10,19s-5.1-2.3-5.1-5.1S7.2,8.8,10,8.8 M10,7.8
		c-3.4,0-6.1,2.7-6.1,6.1S6.6,20,10,20s6.1-2.7,6.1-6.1S13.4,7.8,10,7.8L10,7.8z"/>
</g>
<g>
	<path fill="#0085CA" d="M10,1c2.8,0,5.1,2.3,5.1,5.1s-2.3,5.1-5.1,5.1S4.9,8.9,4.9,6.1S7.2,1,10,1 M10,0C6.6,0,3.9,2.7,3.9,6.1
		s2.7,6.1,6.1,6.1s6.1-2.7,6.1-6.1S13.4,0,10,0L10,0z"/>
</g>
</svg>
