<svg xmlns="http://www.w3.org/2000/svg" width="7" height="9" viewBox="0 0 7 9">
    <path fill="#000" fill-rule="evenodd" d="M.972.492h3.06c.808 0 1.442.212 1.902.636.46.424.69.976.69 1.656 0 .432-.116.814-.348 1.146a1.736 1.736 0 0 1-.888.678c.432.104.79.338 1.074.702.284.364.426.802.426 1.314 0 .696-.24 1.266-.72 1.71C5.688 8.778 5.052 9 4.26 9H.972V.492zm1.632 3.516H3.78c.376 0 .672-.096.888-.288.216-.192.324-.452.324-.78s-.106-.586-.318-.774c-.212-.188-.514-.282-.906-.282H2.604v2.124zm0 3.612h1.344c.4 0 .714-.098.942-.294.228-.196.342-.466.342-.81 0-.344-.11-.62-.33-.828-.22-.208-.53-.312-.93-.312H2.604V7.62z"/>
</svg>
