<svg id="Layer_2" data-name="Layer 2" xmlns="http://www.w3.org/2000/svg" viewBox="0 0 9.38 15.95"><defs><style>.cls-1{fill:none;stroke:#000;stroke-miterlimit:10;stroke-width:0.6px;}</style></defs><title>Phone-icon</title><circle cx="4.69" cy="13.99" r="0.79"/><circle cx="3.13" cy="2.01" r="0.25"/><path d="M9.62,2a0.23,0.23,0,0,1-.23.23H7.27A0.24,0.24,0,0,1,7,2H7a0.24,0.24,0,0,1,.23-0.23H9.39A0.23,0.23,0,0,1,9.62,2h0Z" transform="translate(-3.12 0)"/><path d="M11,0.8a0.68,0.68,0,0,1,.68.68v13a0.68,0.68,0,0,1-.68.68H4.6a0.68,0.68,0,0,1-.68-0.68v-13A0.68,0.68,0,0,1,4.6.8H11M11,0H4.6A1.48,1.48,0,0,0,3.12,1.48v13A1.48,1.48,0,0,0,4.6,16H11a1.48,1.48,0,0,0,1.48-1.48v-13A1.48,1.48,0,0,0,11,0h0Z" transform="translate(-3.12 0)"/><line class="cls-1" x1="0.19" y1="3.35" x2="9.16" y2="3.35"/><line class="cls-1" x1="0.19" y1="12.36" x2="9.16" y2="12.36"/></svg>