<?xml version="1.0" encoding="utf-8"?>
<!-- Generator: Adobe Illustrator 21.1.0, SVG Export Plug-In . SVG Version: 6.00 Build 0)  -->
<svg version="1.1" id="Layer_1" xmlns="http://www.w3.org/2000/svg" xmlns:xlink="http://www.w3.org/1999/xlink" x="0px" y="0px"
	 viewBox="0 0 24 24" style="enable-background:new 0 0 24 24;" xml:space="preserve">
<style type="text/css">
	.st0{fill:#72819B;}
</style>
<path class="st0" d="M12,24C5.4,24,0,18.6,0,12S5.4,0,12,0s12,5.4,12,12S18.6,24,12,24z M12,1C5.9,1,1,5.9,1,12s4.9,11,11,11
	s11-4.9,11-11S18.1,1,12,1z"/>
<g>
	<path class="st0" d="M15.8,9.8l-0.7,0.7l-1.6-1.6l0.7-0.7C14.4,8,14.8,8,15,8.1L15.9,9C16,9.2,16,9.6,15.8,9.8z"/>
	<path class="st0" d="M8.6,13.8c0.7,0.3,1.2,0.9,1.6,1.6l0,0L8,16L8.6,13.8z M10.5,15.1c-0.4-0.7-0.9-1.3-1.6-1.6l4.3-4.3l1.6,1.6
		L10.5,15.1z"/>
</g>
</svg>
