<?xml version="1.0" encoding="utf-8"?>
<!-- Generator: Adobe Illustrator 21.1.0, SVG Export Plug-In . SVG Version: 6.00 Build 0)  -->
<svg version="1.1"
	 id="Layer_1" xmlns:cc="http://creativecommons.org/ns#" xmlns:dc="http://purl.org/dc/elements/1.1/" xmlns:inkscape="http://www.inkscape.org/namespaces/inkscape" xmlns:rdf="http://www.w3.org/1999/02/22-rdf-syntax-ns#" xmlns:sodipodi="http://sodipodi.sourceforge.net/DTD/sodipodi-0.dtd" xmlns:svg="http://www.w3.org/2000/svg"
	 xmlns="http://www.w3.org/2000/svg" xmlns:xlink="http://www.w3.org/1999/xlink" x="0px" y="0px" viewBox="0 0 70 70"
	 style="enable-background:new 0 0 70 70;" xml:space="preserve">
<style type="text/css">
	.st0{fill:#CD1600;}
</style>
<path class="st0" d="M34.5,0c-8.9,0.1-17.1,3.6-23.2,9.3c-6.5,6-10.7,14.5-11.2,24.1c0,0.1,0,0.1,0,0.2l0,0c0,0,0,0,0,0.1
	s0,0.2,0,0.2c-0.6,19.2,14.5,35.3,33.7,36C53,70.7,69.3,55.6,70,36.3S55.6,0.7,36.3,0C35.7,0,35.1,0,34.5,0L34.5,0z M34.5,2
	c0.6,0,1.1,0,1.7,0c18.2,0.7,32.4,16,31.7,34.2c-0.7,18.2-16,32.4-34.2,31.7C15.6,67.3,1.4,52,2,33.9v-0.1c0,0,0,0,0-0.1v-0.1
	c0.4-9,4.4-17.1,10.5-22.8C18.4,5.4,26.1,2.1,34.5,2L34.5,2z M26.6,26.1c-0.3,0.1-0.5,0.3-0.5,0.6c0,0.1,0.1,0.3,0.2,0.3l8,8l-8,8
	c-0.2,0.2-0.2,0.5,0,0.7c0.2,0.2,0.5,0.2,0.7,0l8-8l8,8c0.2,0.2,0.5,0.2,0.7,0c0.2-0.2,0.2-0.5,0-0.7l-8-8l8-8
	c0.2-0.2,0.2-0.5,0-0.7c-0.1-0.1-0.3-0.2-0.4-0.2c-0.2,0-0.3,0.1-0.4,0.2l-8,8l-8-8C26.9,26.1,26.8,26,26.6,26.1L26.6,26.1z"/>
</svg>
