<?xml version="1.0" encoding="utf-8"?>
<!-- Generator: Adobe Illustrator 18.1.1, SVG Export Plug-In . SVG Version: 6.00 Build 0)  -->
<svg version="1.1" id="Layer_6" xmlns="http://www.w3.org/2000/svg" xmlns:xlink="http://www.w3.org/1999/xlink" x="0px" y="0px"
	 viewBox="0 0 20 20" enable-background="new 0 0 20 20" xml:space="preserve">
<polygon fill="none" stroke="#0085CA" stroke-width="0.5" stroke-miterlimit="10" points="16.2,2.3 10.7,7 10.4,12.5 9.4,12 9,7 
	3.8,2.1 10.1,2.1 "/>
<polygon fill="#0085CA" stroke="#0085CA" stroke-width="0.5" stroke-miterlimit="10" points="7.5,4.6 9.8,6.7 12.8,4.2 "/>
<g>
	<path fill="#0085CA" d="M4,15.1v0.9h1.4v0.6H4V18H3.3v-3.6h2.3v0.6H4z"/>
	<path fill="#0085CA" d="M6,18v-3.6h0.7V18H6z"/>
	<path fill="#0085CA" d="M7.2,18v-3.6h0.7v2.9h1.6V18H7.2z"/>
	<path fill="#0085CA" d="M10.8,15.1V18h-0.7v-2.9H9.2v-0.6h2.6v0.6H10.8z"/>
	<path fill="#0085CA" d="M12,18v-3.6h2.3v0.6h-1.7v0.8h1.4v0.6h-1.4v0.9h1.7V18H12z"/>
	<path fill="#0085CA" d="M16.7,18L16,16.6h-0.5V18h-0.7v-3.6h1.4c0.7,0,1.2,0.5,1.2,1.1c0,0.5-0.3,0.8-0.7,0.9l0.8,1.5H16.7z
		 M16.1,15.1h-0.7V16h0.7c0.3,0,0.5-0.2,0.5-0.5S16.4,15.1,16.1,15.1z"/>
</g>
</svg>
