<?xml version="1.0" encoding="utf-8"?>
<!-- Generator: Adobe Illustrator 18.1.1, SVG Export Plug-In . SVG Version: 6.00 Build 0)  -->
<svg version="1.1" id="Digital_Marketing" xmlns="http://www.w3.org/2000/svg" xmlns:xlink="http://www.w3.org/1999/xlink" x="0px"
	 y="0px" viewBox="0 0 20 20" enable-background="new 0 0 20 20" xml:space="preserve">
<g>
	<path fill="#0085CA" d="M5,1c2.2,0,4,1.8,4,4S7.2,9,5,9S1,7.2,1,5S2.8,1,5,1 M5,0C2.2,0,0,2.2,0,5c0,2.8,2.2,5,5,5s5-2.2,5-5
		C10,2.2,7.8,0,5,0L5,0z"/>
</g>
<g>
	<path fill="#0085CA" d="M15,11c2.2,0,4,1.8,4,4s-1.8,4-4,4s-4-1.8-4-4S12.8,11,15,11 M15,10c-2.8,0-5,2.2-5,5s2.2,5,5,5s5-2.2,5-5
		S17.8,10,15,10L15,10z"/>
</g>
<g>
	<polygon fill="#0085CA" points="15.6,0.8 14.4,0.8 14.4,9.2 15.6,9.2 15.6,0.8 	"/>
</g>
<g>
	<polygon fill="#0085CA" points="5.6,10.8 4.4,10.8 4.4,19.2 5.6,19.2 5.6,10.8 	"/>
</g>
</svg>
