<?xml version="1.0" encoding="utf-8"?>
<!-- Generator: Adobe Illustrator 19.0.0, SVG Export Plug-In . SVG Version: 6.00 Build 0)  -->
<svg version="1.1" id="Layer_1" xmlns="http://www.w3.org/2000/svg" xmlns:xlink="http://www.w3.org/1999/xlink" x="0px" y="0px"
	 viewBox="129 -121 358 342" style="enable-background:new 129 -121 358 342;" xml:space="preserve">
<style type="text/css">
	.st0{fill:#005EB8;}
	.st1{fill:#FFFFFF;}
</style>
<g id="How">
	<g>
		<g>
			<rect x="129" y="-121" class="st0" width="358" height="342"/>
		</g>
	</g>
	<g>
		<path class="st1" d="M257,124.6V96.1c0-0.2,0.1-0.4,0.3-0.6s0.4-0.3,0.6-0.3h5.1c0.2,0,0.4,0.1,0.6,0.2c0.2,0.2,0.2,0.4,0.2,0.6
			v10.8H276V96.1c0-0.2,0.1-0.4,0.2-0.6c0.2-0.2,0.3-0.2,0.6-0.2h5.1c0.2,0,0.4,0.1,0.6,0.3s0.3,0.4,0.3,0.6v28.5
			c0,0.2-0.1,0.4-0.3,0.6s-0.4,0.3-0.6,0.3h-5.1c-0.2,0-0.4-0.1-0.6-0.2c-0.2-0.2-0.2-0.4-0.2-0.6v-11.3h-12.3v11.3
			c0,0.2-0.1,0.4-0.2,0.6c-0.2,0.2-0.4,0.2-0.6,0.2h-5.1c-0.2,0-0.4-0.1-0.6-0.3S257,124.8,257,124.6z"/>
		<path class="st1" d="M288,110.4c0-1.4,0.2-2.8,0.5-4.1c0.4-1.3,0.9-2.6,1.5-3.7c0.7-1.1,1.5-2.2,2.4-3.1c0.9-1,2-1.8,3.1-2.4
			c1.1-0.7,2.4-1.2,3.7-1.6c1.3-0.4,2.7-0.6,4.1-0.6c2.1,0,4.1,0.4,6,1.2c1.9,0.8,3.6,1.9,4.9,3.3c1.4,1.4,2.5,3,3.3,4.9
			c0.8,1.9,1.2,3.9,1.2,6s-0.4,4.1-1.2,6c-0.8,1.9-1.9,3.6-3.3,4.9c-1.4,1.4-3,2.5-4.9,3.3c-1.9,0.8-3.9,1.2-6,1.2
			c-2.1,0-4.1-0.4-6-1.2c-1.9-0.8-3.6-1.9-4.9-3.3c-1.4-1.4-2.5-3-3.3-4.9C288.4,114.5,288,112.5,288,110.4z M294.9,110.4
			c0,2.3,0.8,4.4,2.5,6c1.7,1.7,3.7,2.5,6,2.5c2.4,0,4.4-0.8,6.1-2.5c1.7-1.7,2.5-3.7,2.5-6c0-2.4-0.8-4.4-2.5-6.1
			c-1.7-1.7-3.7-2.5-6.1-2.5c-2.3,0-4.3,0.8-6,2.5C295.7,106,294.9,108,294.9,110.4z"/>
		<path class="st1" d="M321.2,96.3c-0.1-0.3-0.1-0.6,0.1-0.8c0.1-0.2,0.4-0.3,0.7-0.3h5c0.2,0,0.3,0.1,0.5,0.2
			c0.1,0.1,0.2,0.3,0.3,0.4l3.7,14.6h0.2l6.7-15.1c0.2-0.3,0.4-0.5,0.7-0.5h0.8c0.4,0,0.6,0.2,0.7,0.5l6.7,15.1h0.2l3.7-14.6
			c0-0.2,0.1-0.3,0.3-0.4c0.1-0.1,0.3-0.2,0.5-0.2h5c0.3,0,0.5,0.1,0.7,0.3c0.1,0.2,0.2,0.4,0.1,0.8l-8.1,28.9
			c0,0.2-0.1,0.3-0.3,0.4c-0.2,0.1-0.3,0.2-0.5,0.2h-0.7c-0.3,0-0.6-0.2-0.7-0.5l-7.9-17.6h-0.1l-7.8,17.6c-0.2,0.3-0.4,0.5-0.7,0.5
			h-0.7c-0.2,0-0.3-0.1-0.5-0.2c-0.2-0.1-0.3-0.3-0.3-0.4L321.2,96.3z"/>
	</g>
	<path class="st1" d="M324.2,152h-35.8c-2.6,0-4.7-2.1-4.7-4.7l0,0c0-2.6,2.1-4.7,4.7-4.7h35.8c2.6,0,4.7,2.1,4.7,4.7l0,0
		C328.8,149.9,326.7,152,324.2,152z"/>
	<g>
		<path class="st1" d="M340.3-6.7c0-5.2-3.7-9.5-8.7-10.3l-0.9-2.2c2.9-4.1,2.5-9.8-1.2-13.4c-3.5-3.5-9.4-4-13.4-1.2l-2.2-0.9
			c-0.9-4.9-5.2-8.7-10.3-8.7s-9.5,3.7-10.3,8.7l-2.2,0.9c-4.1-2.9-9.8-2.5-13.4,1.2c-2,2-3.1,4.6-3.1,7.4c0,2.2,0.7,4.3,1.9,6
			l-0.9,2.2c-4.9,0.9-8.7,5.2-8.7,10.3l0,0l0,0c0,5.2,3.7,9.5,8.7,10.3l0.9,2.2c-2.9,4.1-2.5,9.8,1.2,13.4c3.5,3.5,9.4,4,13.4,1.2
			l2.2,0.9c0.9,4.9,5.2,8.7,10.3,8.7c5.2,0,9.5-3.7,10.3-8.7l2.2-0.9c4.1,2.9,9.8,2.5,13.4-1.2c2-2,3.1-4.6,3.1-7.4
			c0-2.2-0.7-4.3-1.9-6l0.9-2.2C336.6,2.8,340.3-1.5,340.3-6.7C340.3-6.7,340.3-6.7,340.3-6.7L340.3-6.7z M329.8-1.4
			c-1.1,0-2,0.6-2.4,1.6l-2.1,5.1c-0.4,1-0.2,2.1,0.6,2.9c1,1,1.5,2.3,1.5,3.7c0,1.4-0.5,2.7-1.5,3.7c-2,2-5.4,2-7.4,0
			c-0.7-0.7-1.9-1-2.9-0.6l-5.1,2.1c-1,0.4-1.6,1.4-1.6,2.4c0,2.9-2.3,5.2-5.2,5.2c-2.9,0-5.2-2.3-5.2-5.2c0-1.1-0.6-2-1.6-2.4
			l-5.1-2.1c-1-0.4-2.1-0.2-2.9,0.6c-2,2-5.4,2-7.4,0c-2-2-2-5.4,0-7.4c0.7-0.7,1-1.9,0.6-2.9l-2.1-5.1c-0.4-1-1.4-1.6-2.4-1.6
			c-2.9,0-5.2-2.3-5.2-5.2l0,0l0,0c0-2.9,2.3-5.2,5.2-5.2c1.1,0,2-0.6,2.4-1.6l2.1-5.1c0.4-1,0.2-2.1-0.6-2.9c-1-1-1.5-2.3-1.5-3.7
			c0-1.4,0.5-2.7,1.5-3.7c2-2,5.4-2,7.4,0c0.7,0.7,1.9,1,2.9,0.6l5.1-2.1c1-0.4,1.6-1.4,1.6-2.4c0-2.9,2.3-5.2,5.2-5.2
			c2.9,0,5.2,2.3,5.2,5.2c0,1.1,0.6,2,1.6,2.4l5.1,2.1c1,0.4,2.1,0.2,2.9-0.6c2-2,5.4-2,7.4,0c2,2,2,5.4,0,7.4
			c-0.7,0.7-1,1.9-0.6,2.9l2.1,5.1c0.4,1,1.4,1.6,2.4,1.6c2.9,0,5.2,2.3,5.2,5.2l0,0l0,0C335.1-3.8,332.7-1.4,329.8-1.4z"/>
		<path class="st1" d="M303.7-19.8c-7.2,0-13.1,5.9-13.1,13.1s5.9,13.1,13.1,13.1c1.4,0,2.6-1.2,2.6-2.6s-1.2-2.6-2.6-2.6
			c-4.3,0-7.9-3.5-7.9-7.9s3.5-7.9,7.9-7.9c4.3,0,7.9,3.5,7.9,7.9c0,1.5-0.4,3-1.3,4.3c-0.8,1.2-0.4,2.8,0.8,3.6
			c1.2,0.8,2.8,0.4,3.6-0.8c1.4-2.1,2.1-4.6,2.1-7.1C316.8-13.9,310.9-19.8,303.7-19.8z"/>
	</g>
</g>
</svg>
