<svg id="Layer_2" data-name="Layer 2" xmlns="http://www.w3.org/2000/svg" viewBox="0 0 84.46 84.46"><defs><style>.cls-1,.cls-2{fill:#005eb8;}.cls-2{stroke:#005eb8;stroke-miterlimit:10;stroke-width:2px;}</style></defs><title>Back</title><path class="cls-1" d="M42.36,0.8A41.43,41.43,0,1,1,.93,42.23,41.48,41.48,0,0,1,42.36.8m0-.8A42.23,42.23,0,1,0,84.59,42.23,42.23,42.23,0,0,0,42.36,0h0Z" transform="translate(-0.13)"/><g id="Layer_3" data-name="Layer 3"><path class="cls-2" d="M30.15,24.95a0.64,0.64,0,0,0-.29.14l-8.16,8.26a0.49,0.49,0,0,0,0,.66l8.16,8.24a0.48,0.48,0,1,0,.69-0.68l-7.38-7.43H51.28a12.09,12.09,0,1,1,0,24.18H36a0.49,0.49,0,0,0-.49.47,0.5,0.5,0,0,0,.49.47H51.28a13,13,0,1,0,0-26.07H23.17l7.38-7.41a0.51,0.51,0,0,0-.4-0.83h0Z" transform="translate(-0.13)"/></g></svg>