<svg xmlns="http://www.w3.org/2000/svg" width="18" height="15" viewBox="0 0 18 15">
    <g fill="none" fill-rule="evenodd">
        <g stroke="#95A5A6" stroke-width=".8">
            <path d="M14.333 1v9.556c0 1.104-.9 2-2 2H9.888"/>
            <path d="M11.667 3.667L14.333 1 17 3.667"/>
        </g>
        <g stroke="#95A5A6" stroke-width=".8">
            <path d="M3.667 14.333V4.777c0-1.104.9-2 2-2h2.444"/>
            <path d="M6.333 11.667l-2.666 2.666L1 11.667"/>
        </g>
        <path stroke="#95A5A6" stroke-width=".8" d="M9 11.267a3.6 3.6 0 1 1 0-7.2 3.6 3.6 0 0 1 0 7.2z"/>
        <path fill="#95A5A6" d="M9.442 10.442V9.91c.734-.113 1.22-.533 1.22-1.287 0-.706-.373-1.106-1.366-1.386-.714-.2-.874-.334-.874-.62 0-.207.127-.46.554-.46.506 0 .593.3.64.486h.946c-.046-.52-.34-1.033-1.173-1.16v-.426h-.787v.433c-.633.12-1.126.547-1.126 1.22 0 .62.326 1.04 1.453 1.36.613.18.787.34.787.667 0 .266-.154.5-.647.5-.4 0-.667-.214-.74-.56h-.947c.054.646.5 1.113 1.267 1.233v.533h.793z"/>
    </g>
</svg>
