<svg xmlns="http://www.w3.org/2000/svg" width="18" height="12" viewBox="0 0 18 12">
    <path fill="#95A5A6" fill-rule="nonzero" stroke="#95A5A6" stroke-width=".2" d="M16.877 4.564L9.082 1.015c-.061-.02-.123-.02-.164 0l-7.795 3.55c-.082.04-.123.102-.123.184s.041.143.123.184l2.133.985v3.959c0 .04.02.082.041.102.041.062.903 1.334 5.662 1.334h.103c1.312 0 2.44-.103 3.364-.287l-.082.553c0 .062 0 .124.04.165a.233.233 0 0 0 .165.061h.923c.061 0 .123-.02.164-.061.04-.041.061-.103.04-.165l-.122-.861c.882-.328 1.149-.697 1.17-.739.02-.04.04-.061.04-.102v-3.98l2.113-.964c.082-.04.123-.102.123-.184s-.041-.144-.123-.185zm-7.795 6.339H8.98c-4 0-5.107-.924-5.292-1.108V6.103l5.23 2.4c.021.02.062.02.083.02.02 0 .062 0 .082-.02l3.692-1.682v1.702c-.369.103-.656.43-.656.82a.88.88 0 0 0 .43.74l-.06.532c-.903.185-2.052.288-3.406.288zM13 9.774a.455.455 0 0 1-.451-.45c0-.247.205-.452.451-.452.246 0 .451.205.451.451a.455.455 0 0 1-.451.451zm-.185 1.62l.164-1.23h.124l.04.37v.101l.103.76h-.43zm1.56-1.6c-.083.083-.308.288-.842.493l-.04-.266a.856.856 0 0 0 .369-.698.838.838 0 0 0-.657-.82V6.615l1.17-.533v3.713zM13.04 6.247L9.267 4.421c-.103-.042-.226 0-.267.102-.041.103 0 .226.103.267l3.466 1.661-3.548 1.62L1.697 4.75 9 1.426l7.303 3.323-3.262 1.497z"/>
</svg>
