<svg xmlns="http://www.w3.org/2000/svg" width="13" height="16" viewBox="0 0 13 16">
    <g fill="#95A5A6" fill-rule="nonzero" stroke="#95A5A6" stroke-width=".2">
        <path d="M7.991 15.81a.203.203 0 0 1-.083-.018.19.19 0 0 1-.114-.173V5.206c0-.06.03-.117.079-.153l4.664-3.348c.06-.044.14-.05.206-.018a.19.19 0 0 1 .11.17v9.857a.188.188 0 0 1-.07.145L8.12 15.764a.201.201 0 0 1-.128.046zM8.188 5.3v9.905l4.268-3.587V2.236L8.188 5.301z"/>
        <path d="M9.161 6.994a.197.197 0 0 1-.187-.13.187.187 0 0 1 .069-.213l2.663-1.904a.202.202 0 0 1 .276.04.187.187 0 0 1-.042.266L9.277 6.958a.202.202 0 0 1-.116.036zM9.161 8.381a.197.197 0 0 1-.187-.13.187.187 0 0 1 .069-.213l2.663-1.905a.202.202 0 0 1 .276.04.187.187 0 0 1-.042.267L9.277 8.345a.202.202 0 0 1-.116.036zM7.991 15.81a.204.204 0 0 1-.051 0L.295 13.804a.191.191 0 0 1-.145-.19V3.21a.188.188 0 0 1 .074-.155.202.202 0 0 1 .174-.035l7.644 2c.07.016.126.067.145.134.02.067 0 .14-.052.188a.202.202 0 0 1-.195.046L.544 3.459v10.015l7.498 1.955c.11.013.186.11.172.215a.197.197 0 0 1-.223.166z"/>
        <path d="M5.251 15.093a.194.194 0 0 1-.197-.19V4.49c0-.062.03-.12.083-.157l4.65-3.173a.202.202 0 0 1 .204-.027.19.19 0 0 1 .118.162.189.189 0 0 1-.095.175L5.448 4.59v10.314c0 .105-.088.19-.197.19z"/>
        <path d="M2.655 14.413a.194.194 0 0 1-.197-.19V3.81c0-.065.034-.126.09-.16L7.303.667a.201.201 0 0 1 .272.056.187.187 0 0 1-.058.264l-4.664 2.93v10.306c0 .105-.088.19-.197.19z"/>
        <path d="M.347 3.402a.196.196 0 0 1-.192-.14.188.188 0 0 1 .09-.214L5.037.219A.202.202 0 0 1 5.18.19l7.515 1.477c.108.02.179.123.157.228a.2.2 0 0 1-.236.153L5.176.583.45 3.373a.202.202 0 0 1-.102.029zM7.991 7.048h-.047L.3 5.227a.19.19 0 0 1-.145-.23.198.198 0 0 1 .238-.142l7.644 1.812c.07.008.131.052.16.115a.187.187 0 0 1-.025.19.201.201 0 0 1-.182.076zM7.99 8.429a.204.204 0 0 1-.048 0L.299 6.608a.192.192 0 0 1-.145-.233.2.2 0 0 1 .24-.14l7.642 1.82a.193.193 0 0 1 .174.214.197.197 0 0 1-.22.167V8.43z"/>
    </g>
</svg>
