<svg xmlns="http://www.w3.org/2000/svg" width="12" height="13" viewBox="0 0 12 13">
    <path fill="#95A5A6" fill-rule="evenodd" d="M6.022 0C4.232 0 2.4 1.495 2.4 2.837v2.026c0 .886.375 2.677 1.509 3.587l-3.1 1.682s-.81.36-.81.81v1.216c0 .448.363.812.81.812h10.38c.447 0 .81-.364.81-.812v-1.216c0-.477-.81-.81-.81-.81L8.168 8.457c1.123-.884 1.427-2.62 1.427-3.594V2.837C9.595 1.495 7.813 0 6.022 0m0 .96c1.386 0 2.614 1.171 2.614 1.877v2.026c0 .753-.234 2.188-1.062 2.84A.96.96 0 0 0 7.708 9.3l3.021 1.674c.027.015.06.03.09.043.07.03.157.08.22.125v.867H.96v-.859a1.682 1.682 0 0 1 .308-.175l3.1-1.682a.957.957 0 0 0 .143-1.592c-.804-.645-1.15-2.074-1.15-2.838V2.837c0-.69 1.3-1.877 2.662-1.877"/>
</svg>
