<svg xmlns="http://www.w3.org/2000/svg" width="16" height="10" viewBox="0 0 16 10">
    <path fill="#95A5A6" fill-rule="evenodd" d="M12.292 8.52l-.114-.524a4.092 4.092 0 0 0-.5-1.249 2.862 2.862 0 0 0 1.926-.46 3.012 3.012 0 0 1 1.444 1.952l.062.281h-2.818zm-7.99 0l.084-.386A3.492 3.492 0 0 1 5.47 6.286c.125-.084.243-.178.353-.28l.065-.043a3.491 3.491 0 0 0 2.056.663c.77 0 1.481-.247 2.055-.662.023.015.046.03.069.047.106.098.22.189.342.27.55.492.933 1.142 1.088 1.853l.085.386h-7.28zM.836 8.24a3.01 3.01 0 0 1 1.446-1.952 2.864 2.864 0 0 0 1.925.46 4.102 4.102 0 0 0-.5 1.249l-.115.524H.775l.061-.281zm3.04-6.234c.3 0 .587.06.846.17a3.19 3.19 0 0 0-.208 1.138c0 .836.323 1.6.854 2.184a3.492 3.492 0 0 0-.331.262 2.158 2.158 0 0 1-1.162.337c-1.168 0-2.118-.918-2.118-2.046 0-1.128.95-2.045 2.118-2.045zM7.943.67c1.508 0 2.735 1.185 2.735 2.642 0 1.457-1.227 2.642-2.735 2.642-1.509 0-2.736-1.185-2.736-2.642C5.208 1.856 6.435.67 7.944.67zm4.068 1.334c1.167 0 2.117.917 2.117 2.045s-.95 2.046-2.117 2.046c-.433 0-.835-.127-1.17-.343a4.498 4.498 0 0 0-.324-.255 3.234 3.234 0 0 0 .855-2.185c0-.4-.073-.782-.208-1.137.26-.11.546-.171.847-.171zm3.866 6.781l-.15-.685a3.664 3.664 0 0 0-1.585-2.281 2.65 2.65 0 0 0 .681-1.77c0-1.498-1.262-2.716-2.812-2.716-.41 0-.8.085-1.151.239A3.458 3.458 0 0 0 7.944 0C6.713 0 5.632.63 5.027 1.573a2.874 2.874 0 0 0-1.152-.24c-1.55 0-2.812 1.22-2.812 2.717 0 .675.257 1.294.681 1.77A3.663 3.663 0 0 0 .157 8.1l-.15.686c-.021.1.005.202.07.281a.352.352 0 0 0 .27.124H15.537a.352.352 0 0 0 .27-.124.329.329 0 0 0 .07-.28z"/>
</svg>
