<svg xmlns="http://www.w3.org/2000/svg" width="11" height="19" viewBox="0 0 11 19">
    <g fill="#005EB8" fill-rule="evenodd" stroke="#005EB8" stroke-width=".2">
        <path d="M5.455 1.086C2.533 1.086.162 3.42.162 6.29c0 .546.267 1.262.666 2.106.398.844.937 1.803 1.508 2.763 1.14 1.92 2.414 3.848 2.925 4.791a.22.22 0 0 0 .194.115.22.22 0 0 0 .194-.115c.51-.942 1.782-2.872 2.923-4.79.57-.96 1.11-1.92 1.508-2.764.399-.844.666-1.56.666-2.106 0-2.87-2.372-5.204-5.291-5.204zm0 .432c2.681 0 4.85 2.135 4.85 4.772 0 .394-.235 1.101-.624 1.924-.389.822-.922 1.773-1.489 2.727-1.014 1.706-2.13 3.412-2.737 4.461-.609-1.049-1.725-2.755-2.74-4.461-.566-.954-1.1-1.905-1.488-2.727C.837 7.39.602 6.684.602 6.29c0-2.637 2.169-4.772 4.853-4.772z"/>
        <path d="M1.325 14.96a.223.223 0 0 0-.117.039c-.563.376-.93.858-.93 1.407 0 .373.174.722.458 1.017.283.296.677.549 1.154.759.954.42 2.244.672 3.67.672 1.423 0 2.713-.251 3.667-.672.477-.21.87-.463 1.154-.759.283-.295.457-.644.457-1.017 0-.538-.353-1.013-.896-1.384a.223.223 0 0 0-.22-.02.215.215 0 0 0-.03.375c.472.323.706.679.706 1.03 0 .242-.109.481-.337.72-.229.238-.576.467-1.014.66-.877.387-2.117.635-3.488.635s-2.611-.248-3.489-.635c-.439-.193-.786-.422-1.014-.66-.229-.239-.338-.478-.338-.72 0-.358.244-.72.738-1.051a.214.214 0 0 0 .088-.247.22.22 0 0 0-.22-.15z"/>
        <path d="M3.796 15.251a.222.222 0 0 0-.117.04c-.254.17-.444.404-.444.689 0 .193.091.37.225.51.134.139.312.25.521.343.42.185.971.291 1.578.291.608 0 1.159-.106 1.577-.29.21-.093.387-.205.521-.345a.745.745 0 0 0 .225-.51c0-.278-.183-.51-.428-.678a.223.223 0 0 0-.221-.022.215.215 0 1 0-.032.375c.177.123.241.238.241.326 0 .063-.026.13-.105.213-.08.082-.21.17-.38.246-.343.15-.844.252-1.398.252-.554 0-1.055-.101-1.398-.252a1.223 1.223 0 0 1-.38-.247c-.08-.082-.106-.15-.106-.212 0-.092.066-.207.252-.332a.214.214 0 0 0 .088-.248.22.22 0 0 0-.22-.149zM5.455 2.875c-1.828 0-3.316 1.46-3.316 3.257 0 1.796 1.488 3.258 3.316 3.258 1.826 0 3.313-1.462 3.313-3.258 0-1.797-1.487-3.257-3.313-3.257zm0 .432c1.588 0 2.873 1.261 2.873 2.825 0 1.562-1.285 2.825-2.873 2.825-1.59 0-2.876-1.263-2.876-2.825 0-1.564 1.285-2.825 2.876-2.825z"/>
    </g>
</svg>
