<svg xmlns="http://www.w3.org/2000/svg" width="23" height="20" viewBox="0 0 23 20">
    <path fill="#005EB8" fill-rule="nonzero" stroke="#005EB8" stroke-width=".1" d="M1.144 8.11L3.47 9.604v3.878c0 .086.057.201.143.23l7.728 4.97c.057.029.115.057.144.057a.303.303 0 0 0 .143-.057l4.913-3.16v.977a1.261 1.261 0 0 0-.977 1.235v1.752c0 .173.115.288.287.288h1.982c.173 0 .288-.115.288-.288v-1.752c0-.603-.431-1.12-.977-1.235v-1.35l2.24-1.437c.087-.057.144-.144.144-.23V9.604l2.327-1.494c.087-.057.144-.144.144-.23 0-.086-.057-.2-.144-.23L11.658 1.043a.311.311 0 0 0-.316 0L1.144 7.622c-.087.057-.144.143-.144.23 0 .086.057.2.144.258zm16.432 9.624v1.465h-1.408v-1.465a.7.7 0 0 1 .69-.69c.373 0 .718.288.718.69zm-6.09.373l-7.44-4.797V9.977l7.296 4.712a.485.485 0 0 0 .144.057.303.303 0 0 0 .143-.057l4.913-3.16v3.332l-5.056 3.246zm7.469-4.797l-1.81 1.149v-3.332l1.81-1.15v3.333zm-7.47-11.692l9.653 6.234-4.309 2.757-5.171-3.39c-.144-.086-.316-.057-.402.087-.086.143-.058.316.086.402l4.999 3.275-4.855 3.102-9.653-6.233 9.653-6.234z"/>
</svg>
