<svg xmlns="http://www.w3.org/2000/svg" width="12" height="21" viewBox="0 0 12 21">
    <g fill="#95A5A6" fill-rule="nonzero">
        <path d="M4.593 15.114l-.342 2.048a.236.236 0 0 0 .098.247.26.26 0 0 0 .269.025l1.833-.963 1.833.963c.025.024.074.024.123.024s.097-.024.146-.049a.236.236 0 0 0 .098-.247l-.342-2.048 1.467-1.456c.073-.074.097-.172.073-.246-.025-.099-.098-.148-.196-.173l-2.029-.296-.904-1.875c-.049-.074-.122-.149-.22-.149s-.171.05-.22.149l-.904 1.875-2.03.296c-.097.025-.17.074-.195.173-.024.098 0 .197.073.246l1.37 1.456zm.905-1.678c.073 0 .146-.074.195-.123l.758-1.53.758 1.53c.024.074.098.123.195.123l1.687.247-1.222 1.185c-.049.049-.073.148-.073.222l.293 1.678-1.491-.79c-.025-.025-.074-.025-.122-.025-.05 0-.074 0-.123.025l-1.49.79.293-1.678c.024-.074-.025-.173-.074-.222L3.86 13.683l1.638-.247z"/>
        <path stroke="#95A5A6" stroke-width=".2" d="M1 14.423c0 3.01 2.42 5.478 5.427 5.478 3.006 0 5.426-2.443 5.426-5.478 0-2.739-2.004-5.009-4.595-5.404a.995.995 0 0 0 .195-.567c0-.32-.17-.617-.415-.814l4.278-2.37a.26.26 0 0 0 .122-.221v-3.8c0-.148-.098-.247-.245-.247H1.66c-.147 0-.244.099-.244.247v3.8a.26.26 0 0 0 .122.222l4.278 2.369a.995.995 0 0 0-.416.814c0 .222.073.42.196.567C3.004 9.414 1 11.684 1 14.423zm3.3-12.93h4.327V6.208l-2.2 1.209L4.276 6.23c0-.025.024-.05.024-.074V1.494zM10.924 4.9L9.091 5.91V1.494h1.833v3.405zm-9.02-3.405h1.907v4.441L1.93 4.9V1.494h-.025zm4.01 6.933c0-.296.22-.518.513-.518.293 0 .513.222.513.518 0 .296-.22.518-.513.518a.504.504 0 0 1-.514-.518zm.513 1.012c2.713 0 4.937 2.22 4.937 4.984s-2.2 4.985-4.937 4.985c-2.738 0-4.938-2.221-4.938-4.985 0-2.763 2.224-4.984 4.938-4.984z"/>
    </g>
</svg>
