<svg xmlns="http://www.w3.org/2000/svg" width="17" height="19" viewBox="0 0 17 19">
    <path fill="#FFF" fill-rule="evenodd" d="M16.64 15.53c-2.01-.911-2.086-4.825-2.088-4.924V7.98c0-2.527-1.537-4.7-3.722-5.625A2.36 2.36 0 0 0 8.477 0a2.36 2.36 0 0 0-2.353 2.355A6.112 6.112 0 0 0 2.402 7.98v2.626c-.001.099-.078 4.013-2.088 4.925a.536.536 0 0 0 .22 1.024H5.63c.104.577.376 1.114.792 1.55A2.827 2.827 0 0 0 8.477 19c.774 0 1.504-.318 2.056-.896.415-.435.687-.972.792-1.55h5.096a.536.536 0 0 0 .22-1.024zm-2.648-1.874c.212.643.511 1.29.935 1.827h-12.9c.424-.537.724-1.184.935-1.827h11.03zM8.477 1.072c.586 0 1.08.395 1.236.933a6.053 6.053 0 0 0-2.471 0 1.29 1.29 0 0 1 1.235-.933zM3.47 10.609V7.98c0-2.773 2.247-5.03 5.008-5.03 2.762 0 5.008 2.257 5.008 5.03v2.634c.001.08.014.927.226 1.97H3.243c.213-1.044.225-1.892.226-1.975zm5.008 7.32c-.814 0-1.525-.59-1.753-1.374h3.506c-.228.784-.939 1.373-1.753 1.373z"/>
</svg>
