<svg xmlns="http://www.w3.org/2000/svg" width="41" height="41" viewBox="0 0 41 41">
    <g fill="none" fill-rule="evenodd">
        <path stroke="#005DB8" d="M20.871 1.31a18.84 18.84 0 0 0-13.83 5.714c-.367.367-.72.739-1.054 1.12A18.737 18.737 0 0 0 1.31 20.85c-.08 4.67 1.588 9.201 4.676 12.706.334.386.687.753 1.054 1.125a18.84 18.84 0 0 0 13.83 5.756 18.84 18.84 0 0 0 13.834-5.751 18.818 18.818 0 0 0 5.731-13.826 18.818 18.818 0 0 0-5.73-13.836A18.84 18.84 0 0 0 20.87 1.311z"/>
        <path fill="#005DB8" d="M31.395 14.146L10.19 14.06l-.448.447L9.716 27.6l.432.617 21.176.122.491-.43s.105-11.79-.003-13.345l-.417-.417zm-.435 12.516l-5.198-5.841 5.22-5.12-.022 10.961zm-.539-11.664l-9.496 9.39-9.684-9.435 19.18.045zm-19.776.633l4.635 4.734-4.673 5.993.038-10.727zm.344 11.712s4.832-6.243 4.939-6.36c2.51 2.39 4.714 4.355 4.717 4.357.177.159.447.15.615-.018l3.863-3.865 5.284 5.935-19.418-.049z"/>
    </g>
</svg>
