<svg xmlns="http://www.w3.org/2000/svg" width="14" height="13" viewBox="0 0 14 13">
    <g fill="#95A5A6" fill-rule="evenodd">
        <path d="M11.495 11.564a.284.284 0 0 1-.097-.017L2.408 8.32a.295.295 0 0 1-.195-.279V4.96c0-.125.078-.237.194-.278l8.99-3.227a.288.288 0 0 1 .266.037.297.297 0 0 1 .124.241v9.536a.295.295 0 0 1-.292.296zM2.796 7.832l8.408 3.018v-8.7L2.796 5.168v2.664z"/>
        <path d="M13.708 12.82h-2.213a.293.293 0 0 1-.291-.295V.475c0-.163.13-.295.291-.295h2.213c.162 0 .292.132.292.295v12.05c0 .163-.13.295-.292.295zm-1.921-.59h1.63V.77h-1.63v11.46zM2.505 9.486H.292A.293.293 0 0 1 0 9.19V3.81c0-.163.13-.296.292-.296h2.213c.16 0 .291.133.291.296v5.38c0 .164-.13.296-.291.296zM.583 8.895h1.63v-4.79H.583v4.79zM6.998 12.588c-.278 0-.56-.042-.837-.13-1.475-.468-2.299-2.066-1.836-3.56a.29.29 0 0 1 .365-.194c.154.05.24.215.191.37-.366 1.184.286 2.45 1.454 2.82a2.219 2.219 0 0 0 2.784-1.473.29.29 0 0 1 .366-.193.296.296 0 0 1 .19.37 2.814 2.814 0 0 1-2.677 1.99z"/>
    </g>
</svg>
