<svg xmlns="http://www.w3.org/2000/svg" width="17" height="11" viewBox="0 0 17 11">
    <path fill="#95A5A6" fill-rule="evenodd" d="M13.06 9.372l-.121-.577a4.593 4.593 0 0 0-.532-1.373 2.984 2.984 0 0 0 2.047-.506 3.306 3.306 0 0 1 1.535 2.147l.065.31H13.06zm-8.489 0l.09-.425c.164-.78.57-1.492 1.15-2.032.134-.093.26-.196.376-.308l.069-.048c.61.458 1.365.73 2.184.73.818 0 1.575-.272 2.183-.729l.074.052c.113.108.235.208.363.297a3.873 3.873 0 0 1 1.157 2.038l.09.425H4.57zm-3.682-.31a3.303 3.303 0 0 1 1.536-2.146 2.97 2.97 0 0 0 2.045.506c-.248.424-.429.887-.531 1.373l-.122.577H.824l.065-.31zm3.228-6.857c.32 0 .624.067.9.188a3.628 3.628 0 0 0 .686 3.654 3.722 3.722 0 0 0-.351.288c-.355.233-.779.37-1.235.37-1.24 0-2.25-1.01-2.25-2.25s1.01-2.25 2.25-2.25zM8.44.738a2.91 2.91 0 0 1 2.907 2.906A2.91 2.91 0 0 1 8.44 6.551a2.91 2.91 0 0 1-2.906-2.907A2.91 2.91 0 0 1 8.44.738zm4.322 1.467c1.241 0 2.25 1.01 2.25 2.25s-1.009 2.25-2.25 2.25c-.459 0-.886-.139-1.243-.376a4.822 4.822 0 0 0-.343-.281 3.627 3.627 0 0 0 .687-3.655c.276-.12.58-.188.9-.188zm4.108 7.46l-.16-.754a4.05 4.05 0 0 0-1.684-2.509c.451-.524.725-1.204.725-1.947a2.991 2.991 0 0 0-2.989-2.988c-.435 0-.85.094-1.223.263A3.644 3.644 0 0 0 8.44 0a3.644 3.644 0 0 0-3.1 1.73 2.965 2.965 0 0 0-1.223-.263A2.991 2.991 0 0 0 1.13 4.455c0 .743.273 1.423.723 1.947A4.048 4.048 0 0 0 .167 8.91l-.159.754a.368.368 0 0 0 .361.445h16.14a.37.37 0 0 0 .36-.445z"/>
</svg>
