<svg xmlns="http://www.w3.org/2000/svg" width="15" height="13" viewBox="0 0 15 13">
    <path fill="#005EB8" fill-rule="nonzero" d="M14.597 1.744l-4.333-.018V0H4.682v1.726L.35 1.708a.35.35 0 0 0-.239.091.296.296 0 0 0-.11.24v9.143C0 12.174.808 13 1.818 13h11.31c.992 0 1.818-.808 1.818-1.818V2.093a.361.361 0 0 0-.349-.349zM9.585.698v1.028H5.362V.698h4.223zm3.544 11.604H1.818c-.624 0-1.12-.496-1.12-1.12V6.63a2.543 2.543 0 0 0 1.854.807h.992V8.3h1.248v-.863l5.38.019v.844h1.249v-.844h.991c.68 0 1.304-.257 1.8-.735l.055-.055v4.499c-.018.642-.514 1.138-1.138 1.138zm-.735-5.508h-.991V5.71h-1.249v1.084l-5.38-.019V5.71H3.525v1.065h-.991A1.865 1.865 0 0 1 .679 4.903V2.387l13.551.037V4.92c0 .496-.202.955-.55 1.304-.331.367-.79.569-1.286.569z"/>
</svg>
