<svg xmlns="http://www.w3.org/2000/svg" width="22" height="18" viewBox="0 0 22 18">
    <path fill="#FFF" fill-rule="nonzero" stroke="#FFF" stroke-width=".2" d="M2.255 1.001a.248.248 0 0 0-.197.25v1.745h-1.7a.232.232 0 0 0-.046 0 .256.256 0 0 0-.197.25v12.468c0 .13.116.25.243.25h7.528c1.183 0 2.007.443 2.451 1.356.078.17.363.17.44 0 .445-.913 1.27-1.356 2.452-1.356h7.528a.256.256 0 0 0 .243-.25V3.245c0-.13-.116-.249-.243-.249h-1.7V1.25a.246.246 0 0 0-.243-.249H13.23c-1.128 0-2.204.712-2.672 1.691-.467-.979-1.543-1.69-2.67-1.69H2.3a.237.237 0 0 0-.046 0zm.288.499h5.343c1.23 0 2.429 1.109 2.429 2.244v11.783c-.667-1.316-1.918-2.057-3.4-2.057H2.543V1.5zm10.686 0h5.342v11.97h-4.37c-1.484 0-2.734.741-3.4 2.057V3.744c0-1.135 1.198-2.244 2.428-2.244zM4.198 3.245a.249.249 0 0 0-.22.273.246.246 0 0 0 .265.226H8.13a.242.242 0 0 0 .213-.123.255.255 0 0 0 0-.252.242.242 0 0 0-.213-.124H4.243a.237.237 0 0 0-.045 0zm8.742 0a.249.249 0 0 0-.22.273.246.246 0 0 0 .266.226h3.886a.242.242 0 0 0 .213-.123.255.255 0 0 0 0-.252.242.242 0 0 0-.213-.124h-3.886a.237.237 0 0 0-.046 0zM.6 3.495h1.458v10.224c0 .138.108.25.243.25h4.614c1.513 0 2.698.778 3.187 2.275-.563-.51-1.325-.78-2.216-.78H.601V3.495zm18.457 0h1.457v11.97H13.23c-.89 0-1.653.27-2.216.78.49-1.498 1.674-2.276 3.187-2.276h4.614a.246.246 0 0 0 .243-.25V3.495zM4.197 5.24a.249.249 0 0 0-.22.273.246.246 0 0 0 .266.226h4.372a.242.242 0 0 0 .213-.123.255.255 0 0 0 0-.252.242.242 0 0 0-.213-.124H4.243a.237.237 0 0 0-.045 0zm8.258 0a.249.249 0 0 0-.22.273.246.246 0 0 0 .265.226h4.372a.242.242 0 0 0 .213-.123.255.255 0 0 0 0-.252.242.242 0 0 0-.213-.124H12.5a.237.237 0 0 0-.045 0zM4.198 7.235a.249.249 0 0 0-.22.273.246.246 0 0 0 .265.226h4.372a.242.242 0 0 0 .213-.123.255.255 0 0 0 0-.252.242.242 0 0 0-.213-.124H4.243a.237.237 0 0 0-.045 0zm8.257 0a.249.249 0 0 0-.22.273.246.246 0 0 0 .265.226h4.372a.242.242 0 0 0 .213-.123.255.255 0 0 0 0-.252.242.242 0 0 0-.213-.124H12.5a.237.237 0 0 0-.045 0zM4.198 9.23a.249.249 0 0 0-.22.273.246.246 0 0 0 .265.226h4.372a.242.242 0 0 0 .213-.123.255.255 0 0 0 0-.252.242.242 0 0 0-.213-.124H4.243a.237.237 0 0 0-.045 0zm8.257 0a.249.249 0 0 0-.22.273.246.246 0 0 0 .265.226h4.372a.242.242 0 0 0 .213-.123.255.255 0 0 0 0-.252.242.242 0 0 0-.213-.124H12.5a.237.237 0 0 0-.045 0zm-8.257 1.995a.249.249 0 0 0-.22.273.246.246 0 0 0 .265.226h4.372a.242.242 0 0 0 .213-.123.255.255 0 0 0 0-.252.242.242 0 0 0-.213-.124H4.243a.237.237 0 0 0-.045 0zm8.257 0a.249.249 0 0 0-.22.273.246.246 0 0 0 .265.226h4.372a.242.242 0 0 0 .213-.123.255.255 0 0 0 0-.252.242.242 0 0 0-.213-.124H12.5a.237.237 0 0 0-.045 0z"/>
</svg>
