<svg xmlns="http://www.w3.org/2000/svg" width="13" height="10" viewBox="0 0 13 10">
    <path fill="#95A5A6" fill-rule="evenodd" d="M3.891 1.5h8.218c.216 0 .39-.224.39-.5s-.174-.5-.39-.5H3.89C3.675.5 3.5.724 3.5 1s.175.5.391.5M1.5 0h-1a.5.5 0 0 0-.5.5v1a.5.5 0 0 0 .5.5h1a.5.5 0 0 0 .5-.5v-1a.5.5 0 0 0-.5-.5m10.609 8.5H3.89c-.216 0-.391.224-.391.5s.175.5.391.5h8.218c.216 0 .39-.224.39-.5s-.174-.5-.39-.5M1.499 8h-1A.5.5 0 0 0 0 8.5v1a.5.5 0 0 0 .5.5h1a.5.5 0 0 0 .5-.5v-1a.5.5 0 0 0-.5-.5m10.609-3.5H3.89c-.216 0-.391.224-.391.5s.175.5.391.5h8.218c.216 0 .39-.224.39-.5s-.174-.5-.39-.5M1.499 4h-1A.5.5 0 0 0 0 4.5v1a.5.5 0 0 0 .5.5h1a.5.5 0 0 0 .5-.5v-1a.5.5 0 0 0-.5-.5"/>
</svg>
