<svg xmlns="http://www.w3.org/2000/svg" width="16" height="14" viewBox="0 0 16 14">
    <g fill="none" fill-rule="evenodd">
        <path d="M14.842 2.547H6.496c-.424 0-.62-.29-.812-.572-.207-.305-.421-.62-.945-.62h-3.58c-.548 0-.993.587-.993 1.31v1.612c.19-.368.561-.622.992-.622h13.684c.43 0 .802.254.992.622v-.42c0-.722-.445-1.31-.992-1.31z"/>
        <path fill="#000" fill-rule="nonzero" stroke="#95A5A6" stroke-width=".6" d="M14.036 2.334H6.708c-.308 0-.45-.222-.613-.48-.19-.298-.406-.638-.93-.638H2.02c-.547 0-.992.609-.992 1.357v9.548c0 .604.445 1.095.992 1.095h12.016c.547 0 .992-.491.992-1.095V3.69c0-.748-.445-1.357-.992-1.357zm.87 2.471v7.316c0 .533-.39.967-.87.967H2.02c-.48 0-.871-.434-.871-.967V4.597c0-.533.39-.966.871-.966h12.016c.48 0 .87.433.87.966v.208zm0-.721c-.167-.345-.492-.582-.87-.582H2.02c-.378 0-.704.237-.871.582v-1.51c0-.677.39-1.228.871-1.228h3.144c.46 0 .649.296.83.582.168.263.341.535.713.535h7.329c.48 0 .87.55.87 1.228v.393z"/>
        <path stroke="#95A5A6" stroke-width=".8" d="M4.307 9h7.276M4.307 7h7.276M4.307 10.4h5.518"/>
    </g>
</svg>
