<svg xmlns="http://www.w3.org/2000/svg" width="20" height="21" viewBox="0 0 20 21">
    <path fill="#0E89FF" fill-rule="evenodd" d="M10 1.5c-.677 0-1.36.17-2.05.508-.69.338-1.25.752-1.68 1.24-.43.488-.645.947-.645 1.377V7.75c0 .716.166 1.533.498 2.451.332.918.798 1.618 1.397 2.1.364.286.517.66.459 1.123-.06.462-.297.79-.713.986l-5.489 2.598c-.351.156-.527.397-.527.722V19l17.48-.02v-1.21c0-.092-.006-.176-.02-.254a.53.53 0 0 0-.067-.196.717.717 0 0 0-.098-.127.955.955 0 0 0-.205-.146.382.382 0 0 0-.078-.03l-.04-.01-5.449-2.577c-.416-.196-.657-.528-.722-.996a1.295 1.295 0 0 1 .195-.811c.078-.124.17-.231.274-.322.612-.469 1.074-1.16 1.386-2.07.313-.912.469-1.739.469-2.481V4.625c0-.326-.13-.674-.39-1.045a4.587 4.587 0 0 0-.997-1.016 5.53 5.53 0 0 0-1.416-.761A4.481 4.481 0 0 0 10 1.5zm0-1.25c.664 0 1.341.13 2.031.39.69.261 1.296.6 1.817 1.016.52.417.947.889 1.279 1.416.332.528.498 1.045.498 1.553V7.75c0 .911-.192 1.908-.576 2.988-.384 1.081-.967 1.927-1.748 2.54l5.449 2.597.117.04c.091.038.195.097.313.175.117.078.237.166.361.264.124.097.228.214.313.351a.76.76 0 0 1 .126.4V19c0 .339-.12.628-.36.87-.242.24-.531.36-.87.36H1.25c-.352 0-.648-.12-.889-.36C.121 19.627 0 19.338 0 19v-1.895c0-.117.046-.244.137-.38.09-.137.192-.251.302-.342.111-.091.238-.182.381-.274.144-.09.241-.15.293-.175.052-.026.098-.046.137-.059l5.488-2.598c-.781-.638-1.37-1.507-1.767-2.607-.397-1.1-.596-2.074-.596-2.92V4.625c0-.677.273-1.357.82-2.041.547-.684 1.26-1.244 2.139-1.68C8.213.468 9.102.25 10 .25z"/>
</svg>
