<svg xmlns="http://www.w3.org/2000/svg" width="18" height="18" viewBox="0 0 18 18">
    <path fill="#95A5A6" fill-rule="nonzero" stroke="#95A5A6" stroke-width=".3" d="M9 1.062a1.56 1.56 0 0 0-1.565 1.549c0 .794.611 1.45 1.391 1.537v2.775c-.443.036-.847.21-1.168.478L5.75 5.514c.181-.233.293-.523.293-.839 0-.758-.624-1.376-1.39-1.376-.767 0-1.392.618-1.392 1.376 0 .758.625 1.377 1.391 1.377.32 0 .618-.11.853-.29l1.903 1.88a2.046 2.046 0 0 0-.484 1.162H4.12a1.564 1.564 0 0 0-1.555-1.376A1.56 1.56 0 0 0 1 8.976a1.56 1.56 0 0 0 1.565 1.549c.803 0 1.467-.605 1.555-1.377h2.804c.037.439.212.838.484 1.156L5.5 12.191a1.387 1.387 0 0 0-2.24 1.086c0 .758.626 1.377 1.392 1.377.767 0 1.391-.619 1.391-1.377 0-.317-.11-.61-.293-.844l1.902-1.881c.322.27.73.441 1.174.478v2.774a1.56 1.56 0 0 0-1.391 1.538A1.56 1.56 0 0 0 9 16.89a1.56 1.56 0 0 0 1.565-1.548 1.56 1.56 0 0 0-1.391-1.538V11.03a2.091 2.091 0 0 0 1.174-.478l1.902 1.881a1.365 1.365 0 0 0-.293.844c0 .758.624 1.377 1.39 1.377.767 0 1.392-.619 1.392-1.377a1.387 1.387 0 0 0-2.239-1.086l-1.908-1.887c.272-.318.447-.717.484-1.156h2.804a1.564 1.564 0 0 0 1.555 1.377A1.56 1.56 0 0 0 17 8.976a1.56 1.56 0 0 0-1.565-1.548c-.803 0-1.467.605-1.555 1.376h-2.804a2.046 2.046 0 0 0-.484-1.161l1.903-1.882a1.4 1.4 0 0 0 .853.29c.766 0 1.391-.618 1.391-1.376 0-.758-.625-1.376-1.391-1.376-.767 0-1.391.618-1.391 1.376 0 .316.112.606.293.839L10.342 7.4a2.087 2.087 0 0 0-1.168-.478V4.148a1.56 1.56 0 0 0 1.391-1.537A1.56 1.56 0 0 0 9 1.062zm0 .344c.674 0 1.217.538 1.217 1.205S9.674 3.815 9 3.815a1.208 1.208 0 0 1-1.217-1.204c0-.667.543-1.205 1.217-1.205zM4.652 3.643c.579 0 1.044.46 1.044 1.032 0 .572-.465 1.032-1.044 1.032-.578 0-1.043-.46-1.043-1.032 0-.572.465-1.032 1.043-1.032zm8.696 0c.578 0 1.043.46 1.043 1.032 0 .572-.465 1.032-1.043 1.032-.579 0-1.044-.46-1.044-1.032 0-.572.465-1.032 1.044-1.032zM9 7.256c.963 0 1.74.768 1.74 1.72s-.777 1.72-1.74 1.72-1.74-.768-1.74-1.72.777-1.72 1.74-1.72zm-6.435.516c.675 0 1.218.537 1.218 1.204 0 .667-.543 1.205-1.218 1.205a1.208 1.208 0 0 1-1.217-1.205c0-.667.543-1.204 1.217-1.204zm12.87 0c.674 0 1.217.537 1.217 1.204 0 .667-.543 1.205-1.217 1.205a1.208 1.208 0 0 1-1.218-1.205c0-.667.543-1.204 1.218-1.204zM4.652 12.245c.579 0 1.044.46 1.044 1.032 0 .572-.465 1.033-1.044 1.033-.578 0-1.043-.46-1.043-1.033 0-.572.465-1.032 1.043-1.032zm8.696 0c.578 0 1.043.46 1.043 1.032 0 .573-.465 1.033-1.043 1.033-.579 0-1.044-.46-1.044-1.033 0-.572.465-1.032 1.044-1.032zM9 14.138c.674 0 1.217.537 1.217 1.204 0 .667-.543 1.204-1.217 1.204a1.208 1.208 0 0 1-1.217-1.204c0-.667.543-1.204 1.217-1.204z"/>
</svg>
