<svg id="Layer_2" data-name="Layer 2" xmlns="http://www.w3.org/2000/svg" viewBox="0 0 84.59 84.59"><defs><style>.cls-1{fill:none;stroke:#1d92a8;stroke-linecap:round;stroke-linejoin:round;stroke-width:1.5px;}.cls-2{fill:#fff;}.cls-3{fill:#1e92a8;}</style></defs><title>CrunchBase</title><path class="cls-1" d="M71.7,13A40,40,0,0,0,42.33.87a39.64,39.64,0,0,0-26.49,9.54A33.27,33.27,0,0,0,13,13,40,40,0,0,0,.79,42.42,40,40,0,0,0,13,71.79a33.81,33.81,0,0,0,2.88,2.67A39.79,39.79,0,0,0,42.33,84,40.75,40.75,0,0,0,59.71,80.3,44,44,0,0,0,63.91,78a43.73,43.73,0,0,0,7.8-6.23c0.78-.78,1.53-1.57,2.24-2.39a39.83,39.83,0,0,0,9.93-27c0-.71,0-1.42,0-2.1s-0.07-1.1-.11-1.64a39.54,39.54,0,0,0-9.79-23.25c-0.71-.82-1.46-1.6-2.24-2.39h0Z" transform="translate(-0.04 -0.12)"/><path class="cls-2" d="M38.34,36.23A10.05,10.05,0,0,0,37,33a8.87,8.87,0,0,0-2.2-2.4A9.84,9.84,0,0,0,32,29.11a10.58,10.58,0,0,0-3.28-.51,11.35,11.35,0,0,0-5.38,1.19,10.66,10.66,0,0,0-3.68,3.15,13.56,13.56,0,0,0-2.11,4.43,19.06,19.06,0,0,0,0,10.11,13.53,13.53,0,0,0,2.11,4.45,10.65,10.65,0,0,0,3.68,3.15,11.35,11.35,0,0,0,5.38,1.19,9.56,9.56,0,0,0,4-.79,9.41,9.41,0,0,0,3-2.16,11.1,11.1,0,0,0,2.07-3.19,13.31,13.31,0,0,0,1-3.94h3a17,17,0,0,1-1.37,5.24,12.88,12.88,0,0,1-2.73,4,11.61,11.61,0,0,1-3.94,2.51,13.83,13.83,0,0,1-5,.88,14.85,14.85,0,0,1-6.5-1.34,13.48,13.48,0,0,1-4.65-3.59,15.27,15.27,0,0,1-2.78-5.2,21.33,21.33,0,0,1,0-12.43A15.51,15.51,0,0,1,17.54,31a13.38,13.38,0,0,1,4.65-3.61A14.85,14.85,0,0,1,28.69,26a14.75,14.75,0,0,1,4.39.66,12.69,12.69,0,0,1,3.88,2,11.45,11.45,0,0,1,2.91,3.2,10.73,10.73,0,0,1,1.48,4.36h-3Z" transform="translate(-0.04 -0.12)"/><path class="cls-3" d="M45.64,58.17V26.71H60.93a11,11,0,0,1,6.79,1.94,6.89,6.89,0,0,1,2.56,5.86,7,7,0,0,1-1.17,4.08,7.51,7.51,0,0,1-3.33,2.62v0.09A6.87,6.87,0,0,1,70.19,44a9.1,9.1,0,0,1,1.5,5.35A9,9,0,0,1,71,52.86,7.05,7.05,0,0,1,69,55.64a10.44,10.44,0,0,1-3.61,1.85,17.83,17.83,0,0,1-5.24.68H45.64Zm5.51-4.5h9.74a5.48,5.48,0,0,0,3.9-1.3,4.8,4.8,0,0,0,1.39-3.68,4.6,4.6,0,0,0-1.39-3.59,5.61,5.61,0,0,0-3.9-1.26H51.15v9.83Zm0-13.79h9a4.93,4.93,0,0,0,3.31-1.12,4,4,0,0,0,1.32-3.24,4.1,4.1,0,0,0-1.19-3.35,5.33,5.33,0,0,0-3.44-1h-9v8.68Z" transform="translate(-0.04 -0.12)"/></svg>