<svg id="Layer_1" data-name="Layer 1" xmlns="http://www.w3.org/2000/svg" viewBox="0 0 84.59 84.59"><defs><style>.cls-1{fill:none;stroke:#2fa8df;stroke-linecap:round;stroke-linejoin:round;stroke-width:1.5px;opacity:0.7;}.cls-2{fill:#2fa8df;}</style></defs><title>Twitter</title><path class="cls-1" d="M42.29,0.86A40,40,0,0,0,12.92,13c-0.78.78-1.53,1.57-2.24,2.38a39.83,39.83,0,0,0-9.93,27,39.83,39.83,0,0,0,9.93,27c0.71,0.82,1.46,1.6,2.24,2.39A40,40,0,0,0,42.29,84,40,40,0,0,0,71.67,71.78,40,40,0,0,0,83.84,42.4,40,40,0,0,0,71.67,13,40,40,0,0,0,42.29.86h0Z" transform="translate(0 -0.11)"/><path class="cls-2" d="M62.66,30.26a33.8,33.8,0,0,0,3.74-4.41c-1.46.46-3,.89-4.52,1.35-0.53.11-1.1,0.21-1.64,0.28l-0.43-.43a9.49,9.49,0,0,0-7.16-3,9.49,9.49,0,0,0-7.16,3,9.49,9.49,0,0,0-3,7.16,11,11,0,0,0,.21,2.17q-12.39.16-20.93-10.15c-2.17,4.84-1.25,9.33,2.71,13.49a7.23,7.23,0,0,1-4.06-1.07s-0.07,0-.11-0.07a12.5,12.5,0,0,0,.21,1.71c0.75,3.81,3.35,6.59,7.83,8.33a6.47,6.47,0,0,1-5.95-.11c2,4,5.52,6.44,10.64,7.3a18.63,18.63,0,0,1-12.28,4.24,26.92,26.92,0,0,0,14.35,3.88l1.35,0a27.24,27.24,0,0,0,18.41-8.19,26.91,26.91,0,0,0,8.22-19.79c0-.82,0-1.6-0.07-2.39a13.69,13.69,0,0,0,4.63-4.45,12.12,12.12,0,0,1-5.06,1.17h0Z" transform="translate(0 -0.11)"/></svg>