<?xml version="1.0" encoding="utf-8"?>
<!-- Generator: Adobe Illustrator 19.2.0, SVG Export Plug-In . SVG Version: 6.00 Build 0)  -->
<svg version="1.1" id="Layer_3" xmlns="http://www.w3.org/2000/svg" xmlns:xlink="http://www.w3.org/1999/xlink" x="0px" y="0px"
	 viewBox="0 0 84.6 84.6" style="enable-background:new 0 0 84.6 84.6;" xml:space="preserve">
<style type="text/css">
	.st0{fill:none;stroke:#4076CC;stroke-width:1.5;stroke-linecap:round;stroke-linejoin:round;}
	.st1{fill:#4076CC;}
</style>
<title>Facebook</title>
<path class="st0" d="M71.7,12.9C64,5,53.3,0.6,42.3,0.8C31.3,0.6,20.6,5,13,12.9C5,20.6,0.6,31.2,0.8,42.3C0.6,53.4,5,64,13,71.7
	c7.7,7.9,18.3,12.4,29.3,12.2c6,0.1,11.9-1.2,17.4-3.7c4.5-2.1,8.5-5,12-8.5C79.6,64,84,53.4,83.8,42.3C84,31.2,79.6,20.6,71.7,12.9
	L71.7,12.9z"/>
<g id="Layer_2">
	<path id="f" class="st1" d="M45.7,64.1V44.2h6.7l1-7.8h-7.7v-5c0-2.2,0.6-3.8,3.8-3.8h4.1v-7c-2-0.2-4-0.3-6-0.3
		c-5.9,0-10,3.6-10,10.3v5.7H31v7.8h6.7v20H45.7L45.7,64.1z"/>
</g>
</svg>
