<?xml version="1.0" encoding="utf-8"?>
<!-- Generator: Adobe Illustrator 18.1.1, SVG Export Plug-In . SVG Version: 6.00 Build 0)  -->
<!DOCTYPE svg PUBLIC "-//W3C//DTD SVG 1.1//EN" "http://www.w3.org/Graphics/SVG/1.1/DTD/svg11.dtd">
<svg version="1.1" id="Layer_1" xmlns="http://www.w3.org/2000/svg" xmlns:xlink="http://www.w3.org/1999/xlink" x="0px" y="0px"
	 viewBox="0 0 85 85" enable-background="new 0 0 85 85" xml:space="preserve">
<g>
	<path fill="#FFFFFF" d="M21.2,74L21.2,74c-2.2,0-4.5-0.8-5.9-2.2L4.6,61.7c-2.1-2-2.7-5.8-1.4-8.4L27.9,4.9
		c0.9-1.8,2.7-2.9,4.6-2.9c0.9,0,1.9,0.3,2.7,0.8L58.9,17c2.3,1.4,5.1,4.6,6.1,7.1l10.1,23.8c0.6,1.4,0.6,2.8,0,4.2
		c-0.6,1.3-1.6,2.4-3,2.9L23.9,73.5C23.1,73.9,22.2,74,21.2,74 M32.5,3.9c-1.3,0-2.4,0.7-3,1.9L4.8,54.1c-1,1.9-0.5,4.8,1.1,6.3
		l10.7,10.2c1.1,1,2.9,1.7,4.7,1.7c0.7,0,1.5-0.1,2-0.3l48.2-18.6c0.9-0.4,1.6-1,2-1.9c0.4-0.9,0.4-1.9,0-2.8L63.4,24.7
		c-0.9-2.2-3.4-5-5.4-6.2L34.3,4.4C33.8,4,33.2,3.9,32.5,3.9"/>
	<path fill="#FFFFFF" d="M44.9,80.9L44.9,80.9c-1.6,0-3.2-0.7-4.2-2L8.6,38.4c-1.8-2.3-2.2-6.1-0.9-8.7l6.5-13.2
		c1.1-2.3,3.9-3.9,6.5-3.9c0.3,0,0.7,0,1,0.1l53.5,9.2c1.5,0.2,2.7,1.1,3.5,2.3c0.8,1.2,1,2.7,0.7,4.1L73,54.9
		c-0.6,2.6-2.8,6.2-4.9,8L48.4,79.6C47.4,80.4,46.2,80.9,44.9,80.9 M20.7,14.3c-2,0-4.1,1.3-4.9,3L9.2,30.4c-1,2-0.6,5.1,0.7,6.8
		l32.2,40.5c0.7,0.9,1.7,1.4,2.8,1.4c0.8,0,1.7-0.3,2.3-0.9L67,61.5c1.8-1.5,3.8-4.7,4.3-7l6.4-26.8c0.2-1,0.1-1.9-0.5-2.7
		c-0.5-0.8-1.3-1.3-2.3-1.5l-53.5-9.2C21.2,14.3,20.9,14.3,20.7,14.3"/>
	<path fill="#FFFFFF" d="M65.7,82.9L65.7,82.9c-0.9,0-1.8-0.2-2.6-0.5l-50-21.3c-1.4-0.6-2.4-1.6-2.9-3c-0.5-1.4-0.4-2.8,0.3-4.2
		L23,29.4c1.2-2.4,4.2-5.4,6.6-6.6L52.6,11c0.8-0.4,1.6-0.6,2.4-0.6c2.1,0,4,1.2,4.8,3.1l21.9,46.8c1.2,2.6,0.7,6.5-1.1,8.7
		l-9.4,11.3C70,82,67.9,82.9,65.7,82.9 M55.1,12.2c-0.6,0-1.1,0.1-1.6,0.4L30.4,24.4c-2.1,1.1-4.8,3.7-5.8,5.8L12.1,54.7
		c-0.4,0.9-0.5,1.9-0.2,2.7c0.3,0.9,1,1.6,1.9,2l50,21.3c0.6,0.2,1.2,0.4,1.9,0.4c1.7,0,3.4-0.7,4.3-1.9l9.4-11.3
		c1.4-1.7,1.8-4.8,0.9-6.8L58.3,14.3C57.7,13,56.5,12.2,55.1,12.2"/>
	<polygon fill="#FFFFFF" points="27.2,32.9 27.2,37.6 26.7,37.6 26.7,32.9 25.2,32.9 25.2,32.4 28.7,32.4 28.7,32.9 	"/>
	<polygon fill="#FFFFFF" points="33.2,37.6 33.2,35.2 30.7,35.2 30.7,37.6 30.2,37.6 30.2,32.4 30.7,32.4 30.7,34.7 33.2,34.7 
		33.2,32.4 33.7,32.4 33.7,37.6 	"/>
	<polygon fill="#FFFFFF" points="35.1,37.6 35.1,32.4 38.3,32.4 38.3,32.9 35.7,32.9 35.7,34.7 37.9,34.7 37.9,35.2 35.7,35.2 
		35.7,37.1 38.3,37.1 38.3,37.6 	"/>
	<path fill="#FFFFFF" d="M27.4,45c-1,0-1.8-0.7-1.8-1.8v-3.5h0.6v3.4c0,0.8,0.5,1.3,1.2,1.3c0.8,0,1.3-0.5,1.3-1.3v-3.4h0.6v3.5
		C29.2,44.3,28.5,45,27.4,45"/>
	<polygon fill="#FFFFFF" points="34.2,45 31.4,40.8 31.4,45 30.9,45 30.9,39.8 31.4,39.8 34.1,44 34.1,39.8 34.7,39.8 34.7,45 	"/>
	<rect x="36.4" y="39.8" fill="#FFFFFF" width="0.6" height="5.2"/>
	<polygon fill="#FFFFFF" points="38.6,45 38.6,39.8 39.1,39.8 39.1,44.5 41.8,44.5 41.8,45 	"/>
	<polygon fill="#FFFFFF" points="42.9,45 42.9,39.8 46.1,39.8 46.1,40.3 43.5,40.3 43.5,42.1 45.8,42.1 45.8,42.6 43.5,42.6 
		43.5,44.5 46.1,44.5 46.1,45 	"/>
	<polygon fill="#FFFFFF" points="49.2,45 48.8,45 47.1,39.8 47.7,39.8 49,44 50.4,39.8 50.9,39.8 	"/>
	<polygon fill="#FFFFFF" points="51.9,45 51.9,39.8 55.1,39.8 55.1,40.3 52.5,40.3 52.5,42.1 54.7,42.1 54.7,42.6 52.5,42.6 
		52.5,44.5 55.1,44.5 55.1,45 	"/>
	<path fill="#FFFFFF" d="M59.1,45L58,42.7h-1.2V45h-0.6v-5.2h2c0.9,0,1.5,0.5,1.5,1.4c0,0.8-0.5,1.2-1.1,1.4l1.2,2.3H59.1z
		 M58.1,40.3h-1.4v1.9h1.4c0.6,0,1-0.3,1-0.9C59.1,40.6,58.7,40.3,58.1,40.3"/>
	<polygon fill="#FFFFFF" points="26.6,48.1 26.6,49.5 28.7,49.5 28.7,50.4 26.6,50.4 26.6,52.6 25.6,52.6 25.6,47.2 29.1,47.2 
		29.1,48.1 	"/>
	<path fill="#FFFFFF" d="M33.3,52c-0.4,0.4-0.8,0.6-1.4,0.6c-0.6,0-1.1-0.2-1.5-0.6c-0.5-0.5-0.5-1.2-0.5-2.1c0-0.9,0-1.6,0.5-2.1
		c0.4-0.4,0.8-0.6,1.5-0.6c0.6,0,1.1,0.2,1.4,0.6c0.5,0.5,0.5,1.2,0.5,2.1C33.8,50.8,33.8,51.5,33.3,52 M32.5,48.4
		c-0.2-0.2-0.4-0.3-0.7-0.3c-0.3,0-0.5,0.1-0.7,0.3c-0.2,0.2-0.3,0.5-0.3,1.5c0,1,0.1,1.3,0.3,1.5c0.2,0.2,0.4,0.3,0.7,0.3
		c0.3,0,0.5-0.1,0.7-0.3c0.2-0.2,0.3-0.5,0.3-1.5C32.8,48.9,32.7,48.6,32.5,48.4"/>
	<path fill="#FFFFFF" d="M37,52.6c-1.1,0-2-0.7-2-1.9v-3.5h1v3.5c0,0.6,0.4,1,0.9,1c0.6,0,0.9-0.4,0.9-1v-3.5h1v3.5
		C39,51.9,38.1,52.6,37,52.6"/>
	<polygon fill="#FFFFFF" points="43.5,52.6 41.4,49.3 41.4,52.6 40.3,52.6 40.3,47.2 41.3,47.2 43.4,50.5 43.4,47.2 44.4,47.2 
		44.4,52.6 	"/>
	<path fill="#FFFFFF" d="M49.2,52.1c-0.4,0.4-0.9,0.5-1.4,0.5h-1.9v-5.4h1.9c0.6,0,1.1,0.2,1.4,0.5c0.6,0.6,0.5,1.3,0.5,2.1
		C49.8,50.7,49.8,51.5,49.2,52.1 M48.5,48.5c-0.2-0.2-0.4-0.3-0.8-0.3h-0.8v3.5h0.8c0.4,0,0.6-0.1,0.8-0.3c0.2-0.2,0.2-0.6,0.2-1.4
		C48.7,49,48.7,48.7,48.5,48.5"/>
	<path fill="#FFFFFF" d="M53.9,52.6l-1-2.1h-0.8v2.1h-1v-5.4h2.1c1.1,0,1.7,0.7,1.7,1.6c0,0.8-0.5,1.2-1,1.4l1.2,2.3H53.9z
		 M53.1,48.1h-1v1.4h1c0.5,0,0.8-0.3,0.8-0.7C53.8,48.4,53.5,48.1,53.1,48.1"/>
	<polygon fill="#FFFFFF" points="58.2,50.4 58.2,52.6 57.2,52.6 57.2,50.4 55.6,47.2 56.7,47.2 57.7,49.4 58.7,47.2 59.8,47.2 	"/>
</g>
</svg>
