<svg xmlns="http://www.w3.org/2000/svg" viewBox="0 0 279.36386 121.00911"><defs><style>.a{fill:#fff;}</style></defs><title>Unilever-Foundry-02@1x</title><path class="a" d="M141.53 19.83V39.6h-2.33V19.84h-6.33v-2.08h15v2.08h-6.34M166.7 39.6v-9.97h-10.37v9.98H154V17.8h2.33v9.8h10.38v-9.8h2.4v21.8h-2.3m8.2 0V17.75h13.6v2.1h-11.3v7.7h9.6v2.1h-9.6v7.88h11.27v2.1h-13.6m-32.5 31.57c-4.42 0-7.6-3.04-7.6-7.4V49.15h2.4v14.47c0 3.32 2.1 5.5 5.3 5.5 3.2 0 5.3-2.18 5.3-5.5V49.15h2.4V63.8c0 4.36-3.23 7.4-7.65 7.4m28.36-.18l-11.6-17.54v17.54H157V49.15h2.2l11.62 17.48V49.15h2.3v21.87h-2.2m9.3-21.87h2.36v21.87h-2.34zm9.45 21.87V49.15H192v19.78h11.17v2.1h-13.5m18.37 0v-21.9h13.58v2.1h-11.3v7.7h9.6v2.1h-9.6v7.9h11.25v2.1h-13.6m26.66 0h-1.9l-7.2-21.9h2.5l5.7 17.7 5.7-17.7h2.5L234.57 71m11.36 0V49.17h13.57v2.08h-11.2v7.72h9.6v2.08h-9.6v7.9h11.27v2.1H246m30.5 0l-5-9.7h-5.26V71h-2.34V49.15h8.4c3.8 0 6.45 2.3 6.45 6.08A5.67 5.67 0 0 1 274 61.1l5.2 9.9zm-4.4-19.8h-5.86v8.02h5.83c2.55 0 4.36-1.32 4.36-4 0-2.67-1.8-4.02-4.34-4.02M139 84.35v5.58h8.95v3.98H139v9.3h-4.45V80.4h14.94v3.94h-10.6m28.2 16.44a8.2 8.2 0 0 1-6.1 2.5 8.3 8.3 0 0 1-6.17-2.5c-2.3-2.3-2.24-5.13-2.24-9.05 0-3.92-.04-6.76 2.26-9.06A8.3 8.3 0 0 1 161 80.2a8.2 8.2 0 0 1 6.1 2.4c2.3 2.3 2.3 5.1 2.3 9s0 6.72-2.3 9m-3.2-15.4a3.7 3.7 0 0 0-2.83-1.2 3.76 3.76 0 0 0-2.85 1.2c-.87.96-1.1 2-1.1 6.38s.23 5.44 1.1 6.4a3.7 3.7 0 0 0 2.86 1.2A3.65 3.65 0 0 0 164 98c.86-.96 1.1-2 1.1-6.4s-.24-5.4-1.1-6.36m18.87 17.94c-4.64 0-8.34-3.16-8.34-7.97V80.4h4.42v14.75c0 2.62 1.54 4.18 3.93 4.18 2.4 0 3.98-1.56 3.98-4.18V80.37h4.4V95.3c0 4.8-3.7 7.97-8.34 7.97m27.5-.2l-9-13.93v13.94H197v-22.7h3.95l9 13.9v-13.9h4.42v22.7h-3.97m24.24-2.18a8.28 8.28 0 0 1-6 2.18h-8.2v-22.7h8.2a8.27 8.27 0 0 1 6 2.16c2.53 2.56 2.3 5.68 2.3 9.1 0 3.4.23 6.7-2.3 9.27m-3.1-15.1a3.97 3.97 0 0 0-3.3-1.4h-3.38v14.8h3.36a3.96 3.96 0 0 0 3.3-1.4c.83-1 .96-2.6.96-6.1 0-3.4-.13-4.9-.95-5.9m22.77 17.4l-4.43-9h-3.2v9.06h-4.4V80.4h8.9c4.6 0 7.35 3.15 7.35 6.94a6.1 6.1 0 0 1-4.17 5.96l5.06 9.77zm-3.44-18.7h-4.2v6h4.2a3 3 0 1 0 0-6m21.7 9.45v9.3h-4.4v-9.3l-6.82-13.4h4.8l4.28 9.16 4.17-9.17h4.8l-6.9 13.4M28 107.7a13.25 13.25 0 0 1-8.85-3.3L3.2 89.2a11.3 11.3 0 0 1-2.13-12.52L38.1 4.3A7.75 7.75 0 0 1 45.03.02a7.93 7.93 0 0 1 4.06 1.13l35.3 21.17a26.42 26.42 0 0 1 9.2 10.56l15.1 35.64a8 8 0 0 1-4.5 10.63L32 106.97a11.15 11.15 0 0 1-4.02.7m17-105a5.1 5.1 0 0 0-4.54 2.84l-37 72.4a8.58 8.58 0 0 0 1.6 9.4L21 102.5a10.66 10.66 0 0 0 7 2.52 8.6 8.6 0 0 0 3.06-.5l72.2-27.83a5.34 5.34 0 0 0 3.02-7.1l-15.1-35.7a23.73 23.73 0 0 0-8.1-9.3L47.7 3.4a5.25 5.25 0 0 0-2.68-.76"/><path class="a" d="M63.55 117.94a8 8 0 0 1-6.3-3.06L9.15 54.3a13.2 13.2 0 0 1-1.4-13.06l9.74-19.77a11.36 11.36 0 0 1 9.8-5.9 9.2 9.2 0 0 1 1.5.13l80.1 13.7a7.74 7.74 0 0 1 6.3 9.52L105.6 79a26.4 26.4 0 0 1-7.33 11.93L68.75 116a8.05 8.05 0 0 1-5.2 1.94m-36.28-99.7a8.7 8.7 0 0 0-7.4 4.4l-9.75 19.78a10.65 10.65 0 0 0 1.1 10.22l48.13 60.6a5.34 5.34 0 0 0 4.2 2.03 5.4 5.4 0 0 0 3.48-1.3l29.5-25.07A23.68 23.68 0 0 0 103 78.38l9.62-40.07a5.08 5.08 0 0 0-4.14-6.2L28.35 18.4a6.5 6.5 0 0 0-1.08-.1"/><path class="a" d="M94.56 121a9.85 9.85 0 0 1-3.87-.76l-74.8-31.9a7.74 7.74 0 0 1-3.9-10.7l18.6-36.77a26.4 26.4 0 0 1 9.9-9.9L75 13.4a8 8 0 0 1 10.92 3.75l32.8 70.1a13.2 13.2 0 0 1-1.68 13.02L103 117.24a11.18 11.18 0 0 1-8.46 3.75M78.7 15.1a5.35 5.35 0 0 0-2.45.6l-34.5 17.6a23.72 23.72 0 0 0-8.73 8.75L14.38 78.83a5.08 5.08 0 0 0 2.58 7.07l74.77 31.9a7.28 7.28 0 0 0 2.83.53 8.58 8.58 0 0 0 6.42-2.8l14.06-16.96a10.65 10.65 0 0 0 1.3-10.2l-32.8-70.1a5.3 5.3 0 0 0-4.83-3.1"/></svg>