<svg xmlns="http://www.w3.org/2000/svg" width="44" height="44" viewBox="0 0 44 44">
  <g fill="#92A1B7">
    <path d="M41.8,0 L2.2,0 C1,0 0,1 0,2.2 L0,32.6666667 C0,33.8666667 1,34.8666667 2.2,34.8666667 L16.9333333,34.8666667 L15.0666667,38.7333333 L14.2666667,38.7333333 C11.7333333,38.7333333 9.66666667,40.8 9.66666667,43.3333333 C9.66666667,43.7333333 9.93333333,44 10.3333333,44 L33.6666667,44 L33.6666667,44 C34.0666667,44 34.3333333,43.7333333 34.3333333,43.3333333 L34.3333333,43.2 C34.2666667,40.7333333 32.2,38.7333333 29.7333333,38.7333333 L28.9333333,38.7333333 L27.0666667,34.8666667 L41.8,34.8666667 C43,34.8666667 44,33.8666667 44,32.6666667 L44,2.2 C44,1 43,0 41.8,0 Z M2.2,1.33333333 L41.8,1.33333333 C42.2666667,1.33333333 42.6666667,1.73333333 42.6666667,2.2 L42.6666667,26.5333333 L1.33333333,26.5333333 L1.33333333,2.2 C1.33333333,1.73333333 1.73333333,1.33333333 2.2,1.33333333 Z M32.9333333,42.6666667 L11.0666667,42.6666667 C11.4,41.2 12.6666667,40.0666667 14.2666667,40.0666667 L29.8,40.0666667 C31.3333333,40.0666667 32.6666667,41.2 32.9333333,42.6666667 Z M27.4666667,38.7333333 L16.5333333,38.7333333 L18.4,34.8666667 L25.5333333,34.8666667 L27.4666667,38.7333333 Z M41.8,33.5333333 L2.2,33.5333333 C1.73333333,33.5333333 1.33333333,33.2 1.33333333,32.6666667 L1.33333333,27.8 L42.6666667,27.8 L42.6666667,32.6666667 C42.6666667,33.2 42.2666667,33.5333333 41.8,33.5333333 Z"/>
    <path d="M22 28.4C20.8 28.4 19.8 29.4 19.8 30.6 19.8 31.8 20.8 32.8 22 32.8 23.2 32.8 24.2 31.8 24.2 30.6 24.2 29.4 23.2 28.4 22 28.4zM22 31.4666667C21.5333333 31.4666667 21.1333333 31.0666667 21.1333333 30.6 21.1333333 30.1333333 21.5333333 29.7333333 22 29.7333333 22.4666667 29.7333333 22.8666667 30.1333333 22.8666667 30.6 22.8666667 31.1333333 22.4666667 31.4666667 22 31.4666667zM28.8133333 15.4C28.88 15.6666667 29.08 15.8666667 29.3466667 15.8666667 29.6133333 15.9333333 29.88 15.8 30.0133333 15.6L31.3466667 13.6 34.08 16.3333333C34.2133333 16.4666667 34.4133333 16.5333333 34.5466667 16.5333333 34.7466667 16.5333333 34.88 16.4666667 35.0133333 16.3333333L37.28 14.0666667C37.4133333 13.9333333 37.48 13.8 37.48 13.6 37.48 13.4 37.4133333 13.2666667 37.28 13.1333333L34.48 10.3333333 36.48 9C36.68 8.86666667 36.8133333 8.6 36.7466667 8.33333333 36.68 8.06666667 36.5466667 7.86666667 36.28 7.8L26.88 5.13333333C26.6133333 5.06666667 26.4133333 5.13333333 26.2133333 5.33333333 26.0133333 5.53333333 25.9466667 5.73333333 26.0133333 6L28.8133333 15.4zM34.6133333 8.73333333L33.1466667 9.73333333C32.9466667 9.86666667 32.88 10 32.88 10.2 32.88 10.4 32.9466667 10.6 33.08 10.7333333L35.9466667 13.6 34.68 14.8666667 31.8133333 12C31.68 11.8666667 31.5466667 11.8 31.3466667 11.8L31.28 11.8C31.08 11.8 30.88 11.9333333 30.8133333 12.0666667L29.8133333 13.5333333 27.88 6.66666667 34.6133333 8.73333333zM3.06666667 10.9333333L11.6666667 10.9333333C12.0666667 10.9333333 12.3333333 10.6666667 12.3333333 10.2666667 12.3333333 9.86666667 12.0666667 9.6 11.6666667 9.6L3.06666667 9.6C2.66666667 9.6 2.4 9.86666667 2.4 10.2666667 2.4 10.6666667 2.66666667 10.9333333 3.06666667 10.9333333zM3.06666667 15.2666667L11.6666667 15.2666667C12.0666667 15.2666667 12.3333333 15 12.3333333 14.6 12.3333333 14.2 12.0666667 13.9333333 11.6666667 13.9333333L3.06666667 13.9333333C2.66666667 13.9333333 2.4 14.2 2.4 14.6 2.4 15 2.66666667 15.2666667 3.06666667 15.2666667zM3.35314861 19.6L39.2868514 19.6C39.8587406 19.6 40.24 19.3333333 40.24 18.9333333 40.24 18.5333333 39.8587406 18.2666667 39.2868514 18.2666667L3.35314861 18.2666667C2.78125945 18.2666667 2.4 18.5333333 2.4 18.9333333 2.4 19.3333333 2.78125945 19.6 3.35314861 19.6zM3.35314861 23.9333333L39.2868514 23.9333333C39.8587406 23.9333333 40.24 23.6666667 40.24 23.2666667 40.24 22.8666667 39.8587406 22.6 39.2868514 22.6L3.35314861 22.6C2.78125945 22.6 2.4 22.8666667 2.4 23.2666667 2.4 23.6666667 2.78125945 23.9333333 3.35314861 23.9333333z"/>
  </g>
</svg>
