<svg xmlns="http://www.w3.org/2000/svg" viewBox="0 0 312.89011 424.5851"><defs><style>.a{isolation:isolate;}.b{fill:#82b874;}.c{fill:#afd1a8;}.d{fill:#90c084;}.e{fill:#bfd9bc;}.f{opacity:0.28;mix-blend-mode:overlay;}.g{fill:#c57745;}.h{fill:#bc6f3f;}.i{fill:#498937;}</style></defs><title>Icon-PDF</title><g class="a"><rect class="b" x="1.07623" y="28.61582" width="290.27109" height="395.64324"/><rect class="c" x="22.62204" y="6.17508" width="290.27109" height="395.64324"/><rect class="d" x="65.90846" y="71.2892" width="113.54313" height="23.7477"/><rect class="e" x="65.90846" y="125.01185" width="205.56492" height="23.74747"/><rect class="e" x="65.90846" y="272.45692" width="205.56492" height="23.74747"/><rect class="d" x="65.90846" y="326.17934" width="205.56492" height="23.7477"/><polygon class="f" points="289.011 147.807 246.036 133.537 203.059 147.807 203.059 6.816 289.011 6.816 289.011 147.807"/><polygon class="g" points="283.303 142.099 240.327 127.829 197.351 142.099 197.351 1.108 283.303 1.108 283.303 142.099"/><rect class="h" x="197.35137" y="1.10845" width="85.95208" height="39.93627"/><path class="i" d="M127.57891,195.4567a21.725,21.725,0,0,1-2.2998,10.4502,18.89294,18.89294,0,0,1-6.2002,6.84961,27.3512,27.3512,0,0,1-9,3.80029,46.15047,46.15047,0,0,1-10.60009,1.19971h-8.5v26.70068H73.87872V173.6569h26a48.86914,48.86914,0,0,1,10.8501,1.1499,25.61014,25.61014,0,0,1,8.80029,3.69971,17.9485,17.9485,0,0,1,5.8999,6.70019A22.1198,22.1198,0,0,1,127.57891,195.4567Zm-17.10009.1001a7.63817,7.63817,0,0,0-1-4.1001,6.98242,6.98242,0,0,0-2.69971-2.5,11.60146,11.60146,0,0,0-3.8501-1.20019,32.24584,32.24584,0,0,0-4.45019-.29981h-7.5v16.7002H98.179a25.60106,25.60106,0,0,0,4.6001-.40039,12.31565,12.31565,0,0,0,3.94971-1.39991,7.50138,7.50138,0,0,0,2.75-2.6499A7.89906,7.89906,0,0,0,110.47882,195.5568Z"/><path class="i" d="M203.97882,208.8566a34.87181,34.87181,0,0,1-3.4502,16.05079A32.36721,32.36721,0,0,1,191.429,236.007a37.94225,37.94225,0,0,1-12.75,6.40039,51.66005,51.66005,0,0,1-14.40039,2.0498h-26.3999V173.6569h25.6001a63.30409,63.30409,0,0,1,14.7998,1.75,37.15623,37.15623,0,0,1,13,5.7998,29.71371,29.71371,0,0,1,9.2002,10.8501Q203.97832,198.85807,203.97882,208.8566Zm-17.79981,0a22.42407,22.42407,0,0,0-1.95019-9.9497,16.76646,16.76646,0,0,0-5.2002-6.3003,20.85,20.85,0,0,0-7.40039-3.35009,36.432,36.432,0,0,0-8.5498-1h-8.49952v41.40088h8.1001a36.76571,36.76571,0,0,0,8.84961-1.05079,20.91674,20.91674,0,0,0,7.5-3.44921,17.09683,17.09683,0,0,0,5.2002-6.40088A22.48511,22.48511,0,0,0,186.179,208.8566Z"/><path class="i" d="M232.17706,188.25651V202.8566h27.40039v14.1001H232.17706v27.50049H215.27667V173.6569h46.60058v14.59961Z"/></g></svg>