<svg xmlns="http://www.w3.org/2000/svg" width="40" height="54" viewBox="0 0 40 54">
  <path fill="#92A1B7" d="M3.03030303,0.21950303 C1.362,0.21950303 0,1.58151515 0,3.24980606 L0,50.5225455 C0,52.1908485 1.362,53.5528485 3.03030303,53.5528485 L36.969697,53.5528485 C38.638,53.5528485 40,52.1908485 40,50.5225455 L40,3.24980606 C40,1.58151515 38.638,0.21950303 36.969697,0.21950303 L3.03030303,0.21950303 L3.03030303,0.21950303 Z M3.03030303,1.43162424 L36.969697,1.43162424 C37.9874545,1.43162424 38.7878788,2.23206667 38.7878788,3.24980606 L38.7878788,50.5225455 C38.7878788,51.540303 37.9874545,52.3407273 36.969697,52.3407273 L3.03030303,52.3407273 C2.01254545,52.3407273 1.21212121,51.540303 1.21212121,50.5225455 L1.21212121,3.24980606 C1.21212121,2.23206667 2.01254545,1.43162424 3.03030303,1.43162424 L3.03030303,1.43162424 Z M6.66666667,10.5225333 L6.66666667,14.158897 L10.3030303,14.158897 L10.3030303,10.5225333 L6.66666667,10.5225333 Z M16.3636364,11.7346545 C16.0289091,11.7346545 15.7575758,12.0060485 15.7575758,12.3407152 C15.7575758,12.6754424 16.0289091,12.9467758 16.3636364,12.9467758 L32.7272727,12.9467758 C33.062,12.9467758 33.3333333,12.6754424 33.3333333,12.3407152 C33.3333333,12.0060485 33.062,11.7346545 32.7272727,11.7346545 L16.3636364,11.7346545 Z M6.66666667,20.219503 L6.66666667,23.8558667 L10.3030303,23.8558667 L10.3030303,20.219503 L6.66666667,20.219503 Z M16.3636364,21.4316242 C16.0289091,21.4316242 15.7575758,21.7030182 15.7575758,22.0376848 C15.7575758,22.3724121 16.0289091,22.6437455 16.3636364,22.6437455 L32.7272727,22.6437455 C33.062,22.6437455 33.3333333,22.3724121 33.3333333,22.0376848 C33.3333333,21.7030182 33.062,21.4316242 32.7272727,21.4316242 L16.3636364,21.4316242 Z M6.66666667,29.9164848 L6.66666667,33.5528485 L10.3030303,33.5528485 L10.3030303,29.9164848 L6.66666667,29.9164848 Z M16.3636364,31.1286061 C16.0289091,31.1286061 15.7575758,31.3999394 15.7575758,31.7346667 C15.7575758,32.0693939 16.0289091,32.3407273 16.3636364,32.3407273 L32.7272727,32.3407273 C33.062,32.3407273 33.3333333,32.0693939 33.3333333,31.7346667 C33.3333333,31.3999394 33.062,31.1286061 32.7272727,31.1286061 L16.3636364,31.1286061 Z M6.66666667,39.6134545 L6.66666667,43.2498182 L10.3030303,43.2498182 L10.3030303,39.6134545 L6.66666667,39.6134545 L6.66666667,39.6134545 Z M16.3636364,40.8255758 C16.0289091,40.8255758 15.7575758,41.0969091 15.7575758,41.4316364 C15.7575758,41.7663636 16.0289091,42.037697 16.3636364,42.037697 L32.7272727,42.037697 C33.062,42.037697 33.3333333,41.7663636 33.3333333,41.4316364 C33.3333333,41.0969091 33.062,40.8255758 32.7272727,40.8255758 L16.3636364,40.8255758 Z"/>
</svg>
