<svg xmlns="http://www.w3.org/2000/svg" width="37" height="35" viewBox="0 0 37 35">
  <path fill="#92A1B7" d="M32.5,4 L29,4 L29,0.5 C29,0.224 28.776,0 28.5,0 C28.224,0 28,0.224 28,0.5 L28,4 L9,4 L9,0.5 C9,0.224 8.776,0 8.5,0 C8.224,0 8,0.224 8,0.5 L8,4 L4.5,4 C2.019,4 0,6.019 0,8.5 L0,30.5 C0,33.4628906 1.05322266,35 4.5,35 L32.5,35 C35.7596436,35 37,33.2943115 37,30.5 L37,8.5 C37,6.019 34.981,4 32.5,4 Z M18,14 L18,20 L10,20 L10,14 L18,14 Z M27,14 L27,20 L19,20 L19,14 L27,14 Z M36,14 L36,20 L28,20 L28,14 L36,14 Z M9,20 L1,20 L1,14 L9,14 L9,20 Z M4.5,5 L8,5 L8,8.5 C8,8.776 8.224,9 8.5,9 C8.776,9 9,8.776 9,8.5 L9,5 L28,5 L28,8.5 C28,8.776 28.224,9 28.5,9 C28.776,9 29,8.776 29,8.5 L29,5 L32.5,5 C34.43,5 36,6.57 36,8.5 L36,13 L1,13 L1,8.5 C1,6.57 2.57,5 4.5,5 Z M1,21 L9,21 L9,27 L1,27 L1,21 Z M10,21 L18,21 L18,27 L10,27 L10,21 Z M19,27 L19,21 L27,21 L27,27 L19,27 Z M28,21 L36,21 L36,27 L28,27 L28,21 Z M1,31.6666667 L1,28 L9,28 L9,34 L3.54545455,34 C2.14181818,34 1,32.9533333 1,31.6666667 Z M33.4545455,34 L28,34 L28,28 L36,28 L36,31.6666667 C36,32.9533333 34.8581818,34 33.4545455,34 Z M18,28 L18,34 L10,34 L10,28 L18,28 Z M19,28 L27,28 L27,34 L19,34 L19,28 Z"/>
</svg>
