<svg xmlns="http://www.w3.org/2000/svg" width="30" height="40" viewBox="0 0 30 40">
  <g fill="#92A1B7">
    <path d="M8.125 6.25L7.5 6.25C7.125 6.25 6.875 6.5 6.875 6.875 6.875 7.25 7.125 7.5 7.5 7.5L8.125 7.5C8.5 7.5 8.75 7.25 8.75 6.875 8.75 6.5 8.5 6.25 8.125 6.25zM10 7.5L10.625 7.5C11 7.5 11.25 7.25 11.25 6.875 11.25 6.5 11 6.25 10.625 6.25L10 6.25C9.625 6.25 9.375 6.5 9.375 6.875 9.375 7.25 9.625 7.5 10 7.5zM5 7.5L5.625 7.5C6 7.5 6.25 7.25 6.25 6.875 6.25 6.5 6 6.25 5.625 6.25L5 6.25C4.625 6.25 4.375 6.5 4.375 6.875 4.375 7.25 4.625 7.5 5 7.5zM20 27.5C20.375 27.5 20.625 27.25 20.625 26.875 20.625 26.5 20.375 26.25 20 26.25L19.375 26.25C19 26.25 18.75 26.5 18.75 26.875 18.75 27.25 19 27.5 19.375 27.5L20 27.5zM22.5 27.5C22.875 27.5 23.125 27.25 23.125 26.875 23.125 26.5 22.875 26.25 22.5 26.25L21.875 26.25C21.5 26.25 21.25 26.5 21.25 26.875 21.25 27.25 21.5 27.5 21.875 27.5L22.5 27.5zM17.5 27.5C17.875 27.5 18.125 27.25 18.125 26.875 18.125 26.5 17.875 26.25 17.5 26.25L16.875 26.25C16.5 26.25 16.25 26.5 16.25 26.875 16.25 27.25 16.5 27.5 16.875 27.5L17.5 27.5z"/>
    <path d="M23.5625,0.1875 C23.4375,0.0625 23.3125,0 23.125,0 L0.625,0 C0.25,0 0,0.3125 0,0.625 L0,39.375 C0,39.75 0.25,40 0.625,40 L29.375,40 C29.75,40 30,39.75 30,39.375 L30,31.875 C30,31.5 29.75,31.25 29.375,31.25 C29,31.25 28.75,31.5625 28.75,31.875 L28.75,38.75 L1.25,38.75 L1.25,1.25 L22.5,1.25 L22.5,6.875 C22.5,7.25 22.75,7.5 23.125,7.5 L28.75,7.5 L28.75,27.5 C28.75,27.875 29,28.125 29.375,28.125 C29.75,28.125 30,27.8125 30,27.5 L30,6.875 C30,6.6875 29.9375,6.5625 29.8125,6.4375 L23.5625,0.1875 Z M23.75,2.1875 L27.8125,6.25 L23.75,6.25 L23.75,2.1875 Z"/>
    <path d="M29.375 28.75C29 28.75 28.75 29 28.75 29.375L28.75 30C28.75 30.375 29 30.625 29.375 30.625 29.75 30.625 30 30.375 30 30L30 29.375C30 29 29.75 28.75 29.375 28.75zM13.75 4.375C13.75 4 13.5 3.75 13.125 3.75L5 3.75C4.625 3.75 4.375 4 4.375 4.375 4.375 4.75 4.625 5 5 5L13.125 5C13.5 5 13.75 4.75 13.75 4.375zM25 23.75L11.875 23.75C11.5 23.75 11.25 24 11.25 24.375 11.25 24.75 11.5 25 11.875 25L25 25C25.375 25 25.625 24.75 25.625 24.375 25.625 24 25.375 23.75 25 23.75zM11.875 27.5L15 27.5C15.375 27.5 15.625 27.25 15.625 26.875 15.625 26.5 15.375 26.25 15 26.25L11.875 26.25C11.5 26.25 11.25 26.5 11.25 26.875 11.25 27.25 11.5 27.5 11.875 27.5zM25 29.375L11.875 29.375C11.5 29.375 11.25 29.625 11.25 30 11.25 30.375 11.5 30.625 11.875 30.625L25 30.625C25.375 30.625 25.625 30.375 25.625 30 25.625 29.625 25.375 29.375 25 29.375zM25 31.875L11.875 31.875C11.5 31.875 11.25 32.125 11.25 32.5 11.25 32.875 11.5 33.125 11.875 33.125L25 33.125C25.375 33.125 25.625 32.875 25.625 32.5 25.625 32.125 25.375 31.875 25 31.875zM20 15C20.375 15 20.625 14.75 20.625 14.375 20.625 14 20.375 13.75 20 13.75L19.375 13.75C19 13.75 18.75 14 18.75 14.375 18.75 14.75 19 15 19.375 15L20 15zM22.5 15C22.875 15 23.125 14.75 23.125 14.375 23.125 14 22.875 13.75 22.5 13.75L21.875 13.75C21.5 13.75 21.25 14 21.25 14.375 21.25 14.75 21.5 15 21.875 15L22.5 15zM17.5 15C17.875 15 18.125 14.75 18.125 14.375 18.125 14 17.875 13.75 17.5 13.75L16.875 13.75C16.5 13.75 16.25 14 16.25 14.375 16.25 14.75 16.5 15 16.875 15L17.5 15zM25 11.25L11.875 11.25C11.5 11.25 11.25 11.5 11.25 11.875 11.25 12.25 11.5 12.5 11.875 12.5L25 12.5C25.375 12.5 25.625 12.25 25.625 11.875 25.625 11.5 25.375 11.25 25 11.25zM11.875 15L15 15C15.375 15 15.625 14.75 15.625 14.375 15.625 14 15.375 13.75 15 13.75L11.875 13.75C11.5 13.75 11.25 14 11.25 14.375 11.25 14.75 11.5 15 11.875 15zM25 17.5L11.875 17.5C11.5 17.5 11.25 17.75 11.25 18.125 11.25 18.5 11.5 18.75 11.875 18.75L25 18.75C25.375 18.75 25.625 18.5 25.625 18.125 25.625 17.75 25.375 17.5 25 17.5zM25 20L11.875 20C11.5 20 11.25 20.25 11.25 20.625 11.25 21 11.5 21.25 11.875 21.25L25 21.25C25.375 21.25 25.625 21 25.625 20.625 25.625 20.25 25.375 20 25 20zM8.75 11.25C8.75 10.875 8.5 10.625 8.125 10.625L5 10.625C4.625 10.625 4.375 10.875 4.375 11.25L4.375 14.375C4.375 14.75 4.625 15 5 15L8.125 15C8.5 15 8.75 14.75 8.75 14.375L8.75 11.25zM7.5 13.75L5.625 13.75 5.625 11.875 7.5 11.875 7.5 13.75zM8.75 17.5C8.75 17.125 8.5 16.875 8.125 16.875L5 16.875C4.625 16.875 4.375 17.125 4.375 17.5L4.375 20.625C4.375 21 4.625 21.25 5 21.25L8.125 21.25C8.5 21.25 8.75 21 8.75 20.625L8.75 17.5zM7.5 20L5.625 20 5.625 18.125 7.5 18.125 7.5 20zM8.75 23.75C8.75 23.375 8.5 23.125 8.125 23.125L5 23.125C4.625 23.125 4.375 23.375 4.375 23.75L4.375 26.875C4.375 27.25 4.625 27.5 5 27.5L8.125 27.5C8.5 27.5 8.75 27.25 8.75 26.875L8.75 23.75zM7.5 26.25L5.625 26.25 5.625 24.375 7.5 24.375 7.5 26.25zM8.125 29.375L5 29.375C4.625 29.375 4.375 29.625 4.375 30L4.375 33.125C4.375 33.5 4.625 33.75 5 33.75L8.125 33.75C8.5 33.75 8.75 33.5 8.75 33.125L8.75 30C8.75 29.625 8.5 29.375 8.125 29.375zM7.5 32.5L5.625 32.5 5.625 30.625 7.5 30.625 7.5 32.5z"/>
  </g>
</svg>
