<svg width="18" height="17" viewBox="0 0 18 17" xmlns="http://www.w3.org/2000/svg"><title>Icon dark / Schedule</title><g fill="none" fill-rule="evenodd"><path d="M13.94 2h.77C16 2 17 3.04 17 4.33V14c0 1.28-1.03 2.32-2.3 2.32H3.3C2.02 16.32 1 15.28 1 14V4.33C1 3.03 2.03 2 3.3 2h.62m2.12 0H12M5 3.6V1m8 2.6V1" stroke="#7D3680" stroke-width=".5" stroke-linecap="round"/><path d="M15 6H3" stroke="#7D3680" stroke-width=".4" stroke-linecap="round"/><path d="M6 4c0 .55-.46 1-1 1-.55 0-1-.45-1-1s.45-1 1-1c.54 0 1 .45 1 1zm7.98 0c0 .55-.44 1-1 1-.54 0-.98-.45-.98-1s.44-1 1-1c.54 0 .98.45.98 1z" stroke="#7D3680" stroke-width=".5" stroke-linecap="round"/><path d="M14 1.94h.76c1.27 0 2.3 1.05 2.3 2.33v9.67c0 1.28-1.03 2.32-2.3 2.32H3.3c-1.27 0-2.3-1.04-2.3-2.32V4.27C1 3 2.03 1.94 3.3 1.94h.63M6 2h6M5 3.6V1m8 2.6V1" stroke="#7D3680" stroke-width=".5" stroke-linecap="round"/><path d="M16 6H2" stroke="#7D3680" stroke-width=".4" stroke-linecap="round"/><path d="M6 4c0 .55-.45 1-1 1s-1-.45-1-1 .45-1 1-1 1 .45 1 1zm8 0c0 .55-.45 1-1 1s-1-.45-1-1 .45-1 1-1 1 .45 1 1z" stroke="#7D3680" stroke-width=".5" stroke-linecap="round"/><path d="M6.35 10.1H4.83c-.32 0-.6-.27-.6-.6V7.9c0-.33.28-.6.6-.6h1.52c.32 0 .6.27.6.6v1.6c0 .33-.28.6-.6.6" fill="#7D3680"/><path d="M9.78 10.04H8.34c-.3 0-.56-.26-.56-.6v-1.5c0-.32.25-.58.56-.58h1.44c.32 0 .57.26.57.6v1.5c0 .32-.25.58-.57.58zm3.48 0H11.8c-.3 0-.55-.26-.55-.6v-1.5c0-.32.25-.58.56-.58h1.5c.3 0 .56.26.56.6v1.5c0 .32-.25.58-.56.58zM6.3 13.3H4.88c-.3 0-.56-.25-.56-.57v-1.5c0-.33.26-.6.57-.6h1.4c.3 0 .55.27.55.6v1.5c0 .32-.26.58-.57.58zm3.48 0H8.34c-.3 0-.56-.25-.56-.57v-1.5c0-.33.25-.6.56-.6h1.44c.32 0 .57.27.57.6v1.5c0 .32-.25.58-.57.58zm3.48 0H11.8c-.3 0-.55-.25-.55-.57v-1.5c0-.33.25-.6.56-.6h1.5c.3 0 .56.27.56.6v1.5c0 .32-.25.58-.56.58z" stroke="#7D3680" stroke-width=".4" stroke-linecap="round" stroke-linejoin="round"/></g></svg>