<svg xmlns="http://www.w3.org/2000/svg" width="50" height="57" viewBox="0 0 50 57">
  <g fill="#92A1B7">
    <path d="M40.0574713,8.3908046 L31.8390805,0.172413793 C31.7241379,0.0574712644 31.5517241,0 31.3218391,0 L0.862068966,0 C0.459770115,0 0.172413793,0.287356322 0.172413793,0.632183908 L0.172413793,49.8275862 C0.172413793,50.1724138 0.459770115,50.5172414 0.862068966,50.5172414 L23.3333333,50.5172414 C23.6781609,50.5172414 24.0229885,50.2298851 24.0229885,49.8275862 C24.0229885,49.4827586 23.7356322,49.137931 23.3333333,49.137931 L1.49425287,49.137931 L1.49425287,1.32183908 L30.6321839,1.32183908 L30.6321839,9.54022989 L38.8505747,9.54022989 L38.8505747,29.9425287 C38.8505747,30.2873563 39.137931,30.6321839 39.5402299,30.6321839 C39.9425287,30.6321839 40.2298851,30.3448276 40.2298851,29.9425287 L40.2298851,8.85057471 C40.2298851,8.67816092 40.1724138,8.50574713 40.0574713,8.3908046 Z M32.0114943,2.29885057 L37.9310345,8.2183908 L32.0114943,8.2183908 L32.0114943,2.29885057 Z"/>
    <path d="M37.3563218 56.2643678C30.6896552 56.2643678 25.2873563 50.8045977 25.2873563 44.137931 25.2873563 37.4712644 30.6896552 32.0689655 37.3563218 32.0689655 44.0229885 32.0689655 49.4827586 37.4712644 49.4827586 44.1954023 49.4827586 50.9195402 44.0229885 56.2643678 37.3563218 56.2643678zM37.3563218 33.3908046C31.4367816 33.3908046 26.6091954 38.2183908 26.6091954 44.137931 26.6091954 50.0574713 31.4367816 54.8850575 37.3563218 54.8850575 43.2758621 54.8850575 48.1034483 50.0574713 48.1034483 44.137931 48.1034483 38.2183908 43.2758621 33.3908046 37.3563218 33.3908046zM33.8505747 14.9425287L6.6091954 14.9425287C6.26436782 14.9425287 5.91954023 14.6551724 5.91954023 14.2528736 5.91954023 13.8505747 6.20689655 13.5632184 6.6091954 13.5632184L33.8505747 13.5632184C34.1954023 13.5632184 34.5402299 13.8505747 34.5402299 14.2528736 34.5402299 14.6551724 34.1954023 14.9425287 33.8505747 14.9425287zM33.8505747 25.0574713L6.6091954 25.0574713C6.26436782 25.0574713 5.91954023 24.7701149 5.91954023 24.3678161 5.91954023 23.9655172 6.20689655 23.6781609 6.6091954 23.6781609L33.8505747 23.6781609C34.1954023 23.6781609 34.5402299 23.9655172 34.5402299 24.3678161 34.5402299 24.7701149 34.1954023 25.0574713 33.8505747 25.0574713zM33.8505747 30.1149425L6.6091954 30.1149425C6.26436782 30.1149425 5.91954023 29.8275862 5.91954023 29.4252874 5.91954023 29.0804598 6.20689655 28.7356322 6.6091954 28.7356322L33.8505747 28.7356322C34.1954023 28.7356322 34.5402299 29.0229885 34.5402299 29.4252874 34.4827586 29.8275862 34.1954023 30.1149425 33.8505747 30.1149425zM33.8505747 20L6.6091954 20C6.26436782 20 5.91954023 19.7126437 5.91954023 19.3103448 5.91954023 18.9655172 6.20689655 18.6206897 6.6091954 18.6206897L33.8505747 18.6206897C34.1954023 18.6206897 34.5402299 18.908046 34.5402299 19.3103448 34.4827586 19.7126437 34.1954023 20 33.8505747 20zM25.4022989 35.2298851L6.6091954 35.2298851C6.26436782 35.2298851 5.91954023 34.9425287 5.91954023 34.5402299 5.91954023 34.1954023 6.20689655 33.8505747 6.6091954 33.8505747L25.4022989 33.8505747C25.7471264 33.8505747 26.091954 34.137931 26.091954 34.5402299 26.0344828 34.8850575 25.7471264 35.2298851 25.4022989 35.2298851zM20.2298851 40.2873563L6.6091954 40.2873563C6.26436782 40.2873563 5.91954023 40 5.91954023 39.5977011 5.91954023 39.2528736 6.20689655 38.908046 6.6091954 38.908046L20.2298851 38.908046C20.5747126 38.908046 20.9195402 39.1954023 20.9195402 39.5977011 20.862069 39.9425287 20.5747126 40.2873563 20.2298851 40.2873563z"/>
    <path d="M42.1264368,43.6781609 L39.3678161,40.9195402 C39.0804598,40.6321839 38.6781609,40.6321839 38.3908046,40.9195402 C38.1034483,41.2068966 38.1034483,41.6091954 38.3908046,41.8965517 L40,43.5057471 L33.4482759,43.5057471 C33.045977,43.5057471 32.7586207,43.7931034 32.7586207,44.1954023 C32.7586207,44.5977011 33.045977,44.8850575 33.4482759,44.8850575 L39.9425287,44.8850575 L38.3333333,46.4942529 C38.045977,46.7816092 38.045977,47.183908 38.3333333,47.4712644 C38.4482759,47.5862069 38.6206897,47.6436782 38.7931034,47.6436782 C38.9655172,47.6436782 39.137931,47.5862069 39.2528736,47.4712644 L42.0114943,44.7126437 C42.3563218,44.3678161 42.3563218,43.9655172 42.1264368,43.6781609 Z"/>
  </g>
</svg>
