<svg xmlns="http://www.w3.org/2000/svg" width="40" height="38" viewBox="0 0 40 38">
  <g fill="#92A1B7">
    <rect width="15.799" height="1.333" x="7.531" y="6.8" transform="rotate(23.886 15.43 7.467)"/>
    <polygon points="15.333 34.067 0 27.8 0 6.867 15.333 .6 30.667 7.6 30.667 18 29.333 18 29.333 8.4 15.333 2.067 1.333 7.8 1.333 26.867 15.333 32.6 21.267 30.467 21.667 31.733"/>
    <rect width="15.866" height="1.333" x=".067" y="9.665" transform="rotate(22.248 8 10.332)"/>
    <polygon points="16 33.333 14.667 33.333 14.667 12.867 29.8 7.4 30.2 8.6 16 13.8"/>
    <path d="M30,37.3333333 C24.4666667,37.3333333 20,32.8666667 20,27.3333333 C20,21.8 24.4666667,17.3333333 30,17.3333333 C35.5333333,17.3333333 40,21.8 40,27.3333333 C40,32.8666667 35.5333333,37.3333333 30,37.3333333 Z M30,18.6666667 C25.2,18.6666667 21.3333333,22.5333333 21.3333333,27.3333333 C21.3333333,32.1333333 25.2,36 30,36 C34.8,36 38.6666667,32.1333333 38.6666667,27.3333333 C38.6666667,22.5333333 34.8,18.6666667 30,18.6666667 Z"/>
    <polygon points="24.643 28.057 29.357 28.057 29.357 29.943 24.643 29.943" transform="rotate(45 27 29)"/>
    <polygon points="30.724 22.481 32.609 22.481 32.609 32.852 30.724 32.852" transform="rotate(45 31.667 27.667)"/>
  </g>
</svg>
