<?xml version="1.0" encoding="UTF-8" standalone="no"?>
<svg width="17px" height="17px" viewBox="0 0 17 17" version="1.1" xmlns="http://www.w3.org/2000/svg" xmlns:xlink="http://www.w3.org/1999/xlink" xmlns:sketch="http://www.bohemiancoding.com/sketch/ns">
    <!-- Generator: sketchtool 3.5.2 (25235) - http://www.bohemiancoding.com/sketch -->
    <title>list</title>
    <desc>Created with sketchtool.</desc>
    <defs></defs>
    <g id="Lithan---Product-(Desktop)" stroke="none" stroke-width="1" fill="none" fill-rule="evenodd" sketch:type="MSPage">
        <g id="03---Product-Desktop---Course-Structure---Outline" sketch:type="MSArtboardGroup" transform="translate(-1276.000000, -82.000000)" stroke="#7D3680" stroke-width="0.5">
            <g id="Content-/-Basic-Outline-" sketch:type="MSLayerGroup" transform="translate(120.000000, 71.000000)">
                <g id="list" transform="translate(1157.000000, 12.000000)" sketch:type="MSShapeGroup">
                    <path d="M3.03571429,3.92857143 L0.892857143,3.92857143 C0.357142857,3.92857143 0,3.57142857 0,3.03571429 L0,0.892857143 C0,0.357142857 0.357142857,0 0.892857143,0 L3.03571429,0 C3.57142857,0 3.92857143,0.357142857 3.92857143,0.892857143 L3.92857143,3.03571429 C3.92857143,3.57142857 3.57142857,3.92857143 3.03571429,3.92857143 M3.03571429,9.46428571 L0.892857143,9.46428571 C0.357142857,9.46428571 0,9.10714286 0,8.57142857 L0,6.42857143 C0,5.89285714 0.357142857,5.53571429 0.892857143,5.53571429 L3.03571429,5.53571429 C3.57142857,5.53571429 3.92857143,5.89285714 3.92857143,6.42857143 L3.92857143,8.57142857 C3.92857143,9.10714286 3.57142857,9.46428571 3.03571429,9.46428571 M3.03571429,15 L0.892857143,15 C0.357142857,15 0,14.6428571 0,14.1071429 L0,11.9642857 C0,11.4285714 0.357142857,11.0714286 0.892857143,11.0714286 L3.03571429,11.0714286 C3.57142857,11.0714286 3.92857143,11.4285714 3.92857143,11.9642857 L3.92857143,14.1071429 C3.92857143,14.6428571 3.57142857,15 3.03571429,15 M8.57142857,3.92857143 L6.42857143,3.92857143 C5.89285714,3.92857143 5.53571429,3.57142857 5.53571429,3.03571429 L5.53571429,0.892857143 C5.53571429,0.357142857 5.89285714,0 6.42857143,0 L8.57142857,0 C9.10714286,0 9.46428571,0.357142857 9.46428571,0.892857143 L9.46428571,3.03571429 C9.46428571,3.57142857 9.10714286,3.92857143 8.57142857,3.92857143 M8.57142857,9.46428571 L6.42857143,9.46428571 C5.89285714,9.46428571 5.53571429,9.10714286 5.53571429,8.57142857 L5.53571429,6.42857143 C5.53571429,5.89285714 5.89285714,5.53571429 6.42857143,5.53571429 L8.57142857,5.53571429 C9.10714286,5.53571429 9.46428571,5.89285714 9.46428571,6.42857143 L9.46428571,8.57142857 C9.46428571,9.10714286 9.10714286,9.46428571 8.57142857,9.46428571 M8.57142857,15 L6.42857143,15 C5.89285714,15 5.53571429,14.6428571 5.53571429,14.1071429 L5.53571429,11.9642857 C5.53571429,11.4285714 5.89285714,11.0714286 6.42857143,11.0714286 L8.57142857,11.0714286 C9.10714286,11.0714286 9.46428571,11.4285714 9.46428571,11.9642857 L9.46428571,14.1071429 C9.46428571,14.6428571 9.10714286,15 8.57142857,15 M14.1071429,3.92857143 L11.9642857,3.92857143 C11.4285714,3.92857143 11.0714286,3.57142857 11.0714286,3.03571429 L11.0714286,0.892857143 C11.0714286,0.357142857 11.4285714,0 11.9642857,0 L14.1071429,0 C14.6428571,0 15,0.357142857 15,0.892857143 L15,3.03571429 C15,3.57142857 14.6428571,3.92857143 14.1071429,3.92857143 M14.1071429,9.46428571 L11.9642857,9.46428571 C11.4285714,9.46428571 11.0714286,9.10714286 11.0714286,8.57142857 L11.0714286,6.42857143 C11.0714286,5.89285714 11.4285714,5.53571429 11.9642857,5.53571429 L14.1071429,5.53571429 C14.6428571,5.53571429 15,5.89285714 15,6.42857143 L15,8.57142857 C15,9.10714286 14.6428571,9.46428571 14.1071429,9.46428571 M14.1071429,15 L11.9642857,15 C11.4285714,15 11.0714286,14.6428571 11.0714286,14.1071429 L11.0714286,11.9642857 C11.0714286,11.4285714 11.4285714,11.0714286 11.9642857,11.0714286 L14.1071429,11.0714286 C14.6428571,11.0714286 15,11.4285714 15,11.9642857 L15,14.1071429 C15,14.6428571 14.6428571,15 14.1071429,15" id="List"></path>
                </g>
            </g>
        </g>
    </g>
</svg>