<svg xmlns="http://www.w3.org/2000/svg" width="50" height="50" viewBox="0 0 50 50">
  <g fill="#92A1B7">
    <path d="M25 24.875C27.6233526 24.875 29.75 22.7483526 29.75 20.125 29.75 17.5016474 27.6233526 15.375 25 15.375 22.3766474 15.375 20.25 17.5016474 20.25 20.125 20.2527559 22.7472102 22.3777898 24.8722441 25 24.875L25 24.875zM25 16.375C27.0710678 16.375 28.75 18.0539322 28.75 20.125 28.75 22.1960678 27.0710678 23.875 25 23.875 22.9289322 23.875 21.25 22.1960678 21.25 20.125 21.2527544 18.0550742 22.9300742 16.3777544 25 16.375zM18 34.625C18.2761424 34.625 18.5 34.4011424 18.5 34.125L18.5 33.125C18.5 30.6397186 20.5147186 28.625 23 28.625L27 28.625C29.4852814 28.625 31.5 30.6397186 31.5 33.125L31.5 34.125C31.5 34.4011424 31.7238576 34.625 32 34.625 32.2761424 34.625 32.5 34.4011424 32.5 34.125L32.5 33.125C32.5 30.0874339 30.0375661 27.625 27 27.625L23 27.625C19.9624339 27.625 17.5 30.0874339 17.5 33.125L17.5 34.125C17.5 34.4011424 17.7238576 34.625 18 34.625zM4 29C6.209139 29 8 27.209139 8 25 8 22.790861 6.209139 21 4 21 1.790861 21 .705415e-16 22.790861 0 25 .705415e-16 27.209139 1.790861 29 4 29zM4 22C5.65685425 22 7 23.3431458 7 25 7 26.6568542 5.65685425 28 4 28 2.34314575 28 1 26.6568542 1 25 1 23.3431458 2.34314575 22 4 22L4 22zM29 4C29 1.790861 27.209139.3527075e-16 25 0 22.790861-.3527075e-16 21 1.790861 21 4 21 6.209139 22.790861 8 25 8 27.209139 8 29 6.209139 29 4zM22 4C22 2.34314575 23.3431458 1 25 1 26.6568542 1 28 2.34314575 28 4 28 5.65685425 26.6568542 7 25 7 23.3431458 7 22 5.65685425 22 4L22 4z"/>
    <path d="M9.54 8.83C9.34161986 8.6601116 9.04590291 8.67153387 8.86121839 8.85621839 8.67653387 9.04090291 8.6651116 9.33661986 8.835 9.535L13.705 14.405C8.10635836 20.3569857 8.10635836 29.6380143 13.705 35.59L8.74 40.555C8.59731192 40.6771949 8.53515903 40.8690592 8.57909493 41.0517095 8.62303084 41.2343598 8.76564023 41.3769692 8.94829051 41.4209051 9.1309408 41.464841 9.32280506 41.4026881 9.445 41.26L14.41 36.295C20.3619857 41.8936416 29.6430143 41.8936416 35.595 36.295L40.465 41.165C40.6633801 41.3348884 40.9590971 41.3234661 41.1437816 41.1387816 41.3284661 40.9540971 41.3398884 40.6583801 41.17 40.46L36.3 35.595C41.8986416 29.6430143 41.8986416 20.3619857 36.3 14.41L41.265 9.445C41.4348884 9.24661986 41.4234661 8.95090291 41.2387816 8.76621839 41.0540971 8.58153387 40.7583801 8.5701116 40.56 8.74L35.595 13.7C29.6430143 8.10135836 20.3619857 8.10135836 14.41 13.7L9.54 8.83zM25 10.5C33.0081289 10.5 39.5 16.9918711 39.5 25 39.5 33.0081289 33.0081289 39.5 25 39.5 16.9918711 39.5 10.5 33.0081289 10.5 25 10.5 16.9918711 16.9918711 10.5 25 10.5L25 10.5zM25 50C27.209139 50 29 48.209139 29 46 29 43.790861 27.209139 42 25 42 22.790861 42 21 43.790861 21 46 21 48.209139 22.790861 50 25 50zM25 43C26.6568542 43 28 44.3431458 28 46 28 47.6568542 26.6568542 49 25 49 23.3431458 49 22 47.6568542 22 46 22 44.3431458 23.3431458 43 25 43L25 43zM46 21C43.790861 21 42 22.790861 42 25 42 27.209139 43.790861 29 46 29 48.209139 29 50 27.209139 50 25 50 22.790861 48.209139 21 46 21zM46 28C44.3431458 28 43 26.6568542 43 25 43 23.3431458 44.3431458 22 46 22 47.6568542 22 49 23.3431458 49 25 49 26.6568542 47.6568542 28 46 28L46 28z"/>
  </g>
</svg>
