<svg xmlns="http://www.w3.org/2000/svg" width="41" height="56" viewBox="0 0 41 56">
  <path fill="#92A1B7" d="M39.4231759,43.8558375 C38.8788459,40.3186584 36.8645026,38.0279629 33.4477847,37.0507456 C31.0707694,36.3144506 28.4831081,35.4892591 27.1097215,35.020942 L32.5549546,31.879288 C32.8255092,32.1988001 33.1437329,32.4809498 33.5186442,32.6941726 C34.0661952,33.0085313 34.6865382,33.1740849 35.3152555,33.1740849 C36.611985,33.1740849 37.8172412,32.4764406 38.4588421,31.3536391 C39.4521639,29.6220897 38.8498579,27.4022538 37.1150876,26.4069995 C36.753704,26.2008626 36.358179,26.0849107 35.9529913,26.0114744 L35.9529913,16.1491157 C36.3066448,16.0705261 36.6506356,15.9545741 36.9669268,15.7735602 C37.8069344,15.2936479 38.4098846,14.5135488 38.6649789,13.5788472 C38.9187849,12.6441455 38.7951028,11.6682165 38.3151905,10.8301415 C37.6703687,9.70411906 36.4631799,9.00518639 35.1664505,9.00518639 C34.5383773,9.00518639 33.9161018,9.17074002 33.3679067,9.48509868 C33.1141007,9.63003864 32.8912153,9.81105254 32.6837901,10.0075267 L23.8869011,4.92625397 C23.9558281,4.64603672 24.0047856,4.35744517 24.0047856,4.05532588 C24.0047856,2.05644286 22.3801697,0.430538657 20.3812867,0.430538657 C18.3836921,0.430538657 16.7590762,2.05708704 16.7590762,4.05532588 C16.7590762,4.34907086 16.8035245,4.63122064 16.8698748,4.90499611 L8.16252644,9.93537881 C7.97249406,9.76660428 7.76893395,9.61329002 7.54411597,9.4844545 C6.99527668,9.17074002 6.37493367,9.00518639 5.74557218,9.00518639 C4.44755436,9.00518639 3.24036558,9.70411906 2.59683218,10.8301415 C2.11691988,11.6682165 1.99259361,12.6447897 2.24704375,13.5788472 C2.50213807,14.514193 3.10508829,15.2936479 3.94380749,15.772916 C4.19954599,15.9197885 4.47525399,16.0280103 4.75740377,16.1078884 L4.75740377,26.0378857 C4.42178725,26.1184079 4.09712176,26.235004 3.79500247,26.4076436 C2.06409732,27.4009655 1.46114711,29.6188689 2.4525364,31.3529949 C3.09413727,32.4764406 4.29939351,33.1740849 5.59741133,33.1740849 C6.22677283,33.1740849 6.84776001,33.0085313 7.3940226,32.6948168 C7.73930178,32.4976984 8.03240257,32.2400274 8.29071778,31.9514359 L13.7088954,35.086004 C12.2910605,35.5659162 9.83223472,36.3492362 7.57503649,37.0475247 C4.14543507,38.0286071 2.13109179,40.3205909 1.60608706,43.777892 L0.538684819,47.3086293 L0.516138604,47.4303789 C0.447855781,48.3141905 0.73258227,49.1496888 1.31813969,49.781627 C1.90434128,50.4154978 2.71664921,50.7639978 3.60368173,50.7639978 L17.5423961,50.7639978 L17.4219349,51.8107864 L20.5146315,55.1837002 L23.505548,51.8049888 L23.3857309,50.7639978 L37.4081884,50.7639978 C38.2965093,50.7639978 39.1088173,50.4142094 39.695663,49.781627 C40.2805763,49.1484005 40.5659469,48.3129021 40.4957316,47.4290905 L39.4231759,43.8558375 Z M8.39507455,27.2592464 C7.78052914,26.5081353 6.8825456,26.0327323 5.90597239,25.9477008 L5.90597239,16.2399448 C6.88705484,16.1942081 7.80049865,15.751014 8.4453204,15.0282467 L10.3952459,16.135588 C9.19771981,19.8698854 10.6445426,23.4682613 10.9762941,24.2097097 C10.8674281,24.6554806 10.888686,25.1920805 11.0497303,25.7563801 L8.39507455,27.2592464 Z M23.2955461,10.4571626 C25.4516084,11.0736406 27.1206725,12.428346 27.992889,14.2713381 L28.0689019,14.4323825 L28.2235046,14.5219232 C29.8384577,15.4611341 30.4903654,19.4969066 29.117623,23.1281356 C28.8966701,23.0772456 28.6654104,23.0708038 28.4335064,23.1461726 C28.602281,22.2726678 29.0705981,19.342304 28.1520008,17.9373527 C27.876937,17.5167047 27.4904305,17.2448618 27.031776,17.1508118 L26.4951761,17.0406575 L26.3598988,17.5701715 C25.9985152,18.9789878 24.7500991,19.077547 20.861199,19.1773945 L19.9934918,19.2005849 C17.081165,19.2804629 12.6794996,19.3996358 12.6794996,22.7313222 L12.6794996,23.1564794 C12.3773803,23.0501901 12.0623775,23.0546993 11.7840928,23.1674304 C11.0420002,21.2233025 9.49597403,15.4521156 15.4526841,11.6211915 C17.7491771,10.1447365 20.6814735,9.70991666 23.2955461,10.4571626 Z M32.4428677,14.9999029 C33.0438854,15.6891729 33.8871138,16.1317229 34.8044227,16.226417 L34.8044227,25.9657378 C33.8974207,26.0958617 33.0722292,26.5699764 32.4963344,27.2817926 L30.0033672,25.8446324 C30.2243201,25.1302395 30.2281852,24.4486996 30.0259134,23.9397993 C31.1377639,21.2890086 31.2781946,18.2336744 30.5773294,16.0531333 L32.4428677,14.9999029 Z M12.2266428,24.2258142 C12.3206927,24.2258142 12.5500199,24.3436987 12.7948074,24.66772 L13.8280682,26.0391741 L13.8280682,22.7313222 C13.8280682,20.8793117 16.1000826,20.4554428 20.0250565,20.3485093 L20.890187,20.3253189 C24.2998189,20.2370666 26.3553896,20.1848882 27.1999064,18.5795977 C27.7642059,19.4724278 27.5419647,21.834627 27.2669009,23.1210496 L27.2540173,26.0346648 L28.2872781,24.6670758 C28.5320656,24.3424103 28.7214538,24.2155073 28.8696147,24.2271025 C28.9913642,24.2792809 29.1710898,24.8712801 28.8399825,25.7132202 C28.5546118,26.4462943 28.1043317,26.7638738 27.9213853,26.7638738 L27.9200969,26.7638738 L27.2836495,26.6234431 L27.223741,27.2721299 C26.9068056,30.7300752 23.7065314,33.9992764 20.6389578,33.9992764 L20.443772,33.9992764 C17.3742658,33.9992764 14.1733474,30.7300752 13.8577004,27.2727741 L13.7829758,26.6253757 L13.1471725,26.7658064 C12.9790422,26.7658064 12.5268295,26.4482268 12.2401705,25.7119318 C11.9097074,24.8719243 12.0900771,24.2805693 12.2266428,24.2258142 Z M15.1963014,35.7649671 L18.7721311,39.6989596 L16.3706371,41.5728722 L14.1842984,36.1321483 C14.6191183,35.9833433 14.9682625,35.8570845 15.1963014,35.7649671 Z M19.8678772,39.1977894 L16.0028117,34.9442849 C16.1773839,34.5397414 16.2630595,34.0469455 16.3004218,33.5779842 C17.5572122,34.5468273 19.011121,35.147845 20.4444161,35.147845 L20.6396019,35.147845 C22.0464858,35.147845 23.4726949,34.567441 24.7140251,33.6288743 C24.7539641,34.0823753 24.8409281,34.5552016 25.0077701,34.9449291 L21.1446372,39.1984336 L19.8678772,39.1984336 L19.8678772,39.1977894 Z M25.8142804,35.7649671 C26.0429635,35.8570845 26.3914635,35.9833433 26.8256392,36.1321483 L24.6418772,41.5728722 L22.2390949,39.6989596 L25.8142804,35.7649671 Z M25.9985152,34.3355371 C25.8883608,33.9413004 25.8239431,33.2752208 25.8413359,32.6252456 C27.0974821,31.3149884 28.0263862,29.626599 28.3078918,27.8602641 C28.7465767,27.7320727 29.1665805,27.3758425 29.5041296,26.8836909 L31.9313907,28.2822004 C31.6653453,28.988219 31.6176762,29.7541461 31.8193038,30.4975271 C31.8560219,30.6347369 31.9165746,30.7603515 31.9681088,30.8898312 L25.9985152,34.3355371 Z M37.4629435,30.7822536 C37.0242586,31.5481807 36.2009997,32.0255163 35.3152555,32.0255163 C34.8868774,32.0255163 34.4636527,31.912141 34.0893856,31.6969857 C33.5134908,31.3684552 33.1012172,30.8357203 32.9272892,30.1973403 C32.7540055,29.5596045 32.8396811,28.8948133 33.1675675,28.3227836 C33.6081849,27.5536355 34.4314439,27.0763 35.317188,27.0763 C35.7455661,27.0763 36.1707233,27.1896752 36.5443463,27.402898 C37.7296331,28.0831495 38.1412625,29.5982552 37.4629435,30.7822536 Z M33.9392922,10.480353 C34.3148477,10.2658419 34.7387166,10.1524667 35.1670947,10.1524667 C36.053483,10.1524667 36.8773861,10.6310906 37.3199361,11.4002386 C37.64589,11.9716241 37.7315656,12.6377037 37.5569935,13.2767279 C37.3824213,13.9157521 36.9707919,14.4478427 36.3961855,14.7770175 C35.2547028,15.4327903 33.673891,14.9960379 33.0219833,13.8564877 C32.6928086,13.2838139 32.6077771,12.6170901 32.7817051,11.9787101 C32.955633,11.3409743 33.3672625,10.8088836 33.9392922,10.480353 Z M31.979704,10.9254797 C31.8534452,11.1631813 31.7458675,11.4105455 31.6737197,11.677235 C31.4579202,12.4663525 31.5300681,13.2799488 31.84185,14.0201088 L30.1257609,14.9889519 C29.8146232,14.4137013 29.4261841,13.9428075 28.9565786,13.6271605 C27.9226736,11.5593505 26.0307241,10.0442448 23.6111931,9.35304228 C22.7396208,9.10374556 21.8358397,8.98650524 20.9307702,8.96717991 L20.9307702,7.6202046 C21.9827122,7.45851602 22.8832724,6.85170075 23.4334001,5.98914697 L31.979704,10.9254797 Z M20.3812867,1.57781892 C21.7456548,1.57781892 22.8555728,2.68838106 22.8555728,4.05403753 C22.8555728,5.41776146 21.7450107,6.52703525 20.3812867,6.52703525 C19.0175628,6.52703525 17.9070007,5.41776146 17.9070007,4.05403753 C17.9070007,2.68838106 19.0175628,1.57781892 20.3812867,1.57781892 Z M17.3195107,5.97046582 C17.8606199,6.82851035 18.7437873,7.44047905 19.7815574,7.61505117 L19.7815574,9.00325385 C18.0306827,9.15077052 16.3107286,9.70154235 14.8304085,10.654281 C12.7890098,11.9671149 11.5451029,13.4996133 10.819759,15.054658 L9.05471239,14.0523177 C9.37873371,13.3031392 9.45732337,12.4766593 9.238303,11.6765908 C9.1577808,11.3796249 9.02958946,11.1052053 8.88271698,10.8443134 L17.3195107,5.97046582 Z M3.35567336,13.2767279 C3.18174542,12.6383479 3.26677686,11.9716241 3.59337489,11.4002386 C4.03463653,10.6304464 4.85853965,10.1524667 5.74621635,10.1524667 C6.17459444,10.1524667 6.59910747,10.2658419 6.97401882,10.480353 C7.54733686,10.8082394 7.95832215,11.3403301 8.13160592,11.9787101 C8.30553387,12.6164459 8.21985825,13.2838139 7.89132768,13.8571319 C7.23941998,14.9960379 5.66504998,15.435367 4.51583718,14.7763733 C3.94123078,14.4478427 3.52960131,13.9157521 3.35567336,13.2767279 Z M6.82328126,31.6982741 C5.67922189,32.3553352 4.09905429,31.9205153 3.44972329,30.7822536 C2.77204848,29.597611 3.18432213,28.081217 4.36638798,27.4035422 C4.74065516,27.189031 5.16581236,27.0763 5.59419044,27.0763 C6.48251132,27.0763 7.30512609,27.5536355 7.74381102,28.3234277 C8.07298576,28.8948133 8.1580172,29.5608929 7.98408926,30.1986287 C7.81144967,30.8363645 7.39853184,31.3690993 6.82328126,31.6982741 Z M8.96774842,28.2551449 L11.5212683,26.8083221 C11.8665475,27.3442778 12.3129626,27.7249868 12.7748379,27.8596199 C13.0511901,29.5924576 13.9491736,31.2512148 15.1686018,32.5518094 C15.1975898,33.3222457 15.1054724,34.1287561 14.9669742,34.4869188 L8.90848408,30.983237 C8.9767669,30.8254135 9.04633808,30.6682341 9.09207469,30.4994596 C9.29756734,29.7451277 9.24345642,28.9682495 8.96774842,28.2551449 Z M3.60303755,49.6160734 C3.03938217,49.6160734 2.52790518,49.3983414 2.16136814,49.001528 C1.80771465,48.6195307 1.62992164,48.1151396 1.65633292,47.5766072 L2.72309098,44.0304096 C3.19849404,40.9325596 4.88946018,39.0103338 7.9022787,38.1464916 C8.89688888,37.8392189 11.2648857,37.1016356 13.09435,36.4986854 L15.8726879,43.4165084 L18.6329888,41.2643111 L17.6744525,49.6154292 L3.60303755,49.6154292 L3.60303755,49.6160734 Z M20.498527,53.4688995 L18.6220378,51.4217031 L19.896221,40.3470022 L21.0319061,40.3470022 L22.3060893,51.4275007 L20.498527,53.4688995 Z M38.8517904,49.001528 C38.4852534,49.3983414 37.972488,49.6160734 37.4081884,49.6160734 L23.2530304,49.6160734 L22.2841873,41.1908749 L25.1411148,43.4171526 L27.916876,36.4986854 C29.7476287,37.1022798 32.1194905,37.8411514 33.1211867,38.1503567 C36.1217658,39.0090454 37.8133761,40.9325596 38.3068162,44.1089993 L39.3555373,47.5766072 C39.3819485,48.1151396 39.2041555,48.6195307 38.8517904,49.001528 Z"/>
</svg>
