<?xml version="1.0" encoding="UTF-8" standalone="no"?>
<svg width="16px" height="21px" viewBox="0 0 16 21" version="1.1" xmlns="http://www.w3.org/2000/svg" xmlns:xlink="http://www.w3.org/1999/xlink" xmlns:sketch="http://www.bohemiancoding.com/sketch/ns">
    <!-- Generator: sketchtool 3.5.2 (25235) - http://www.bohemiancoding.com/sketch -->
    <title>Icon / PDF</title>
    <desc>Created with sketchtool.</desc>
    <defs></defs>
    <g id="Lithan---Product-(Desktop)" stroke="none" stroke-width="1" fill="none" fill-rule="evenodd" sketch:type="MSPage">
        <g id="01---Product-Desktop---Course-Outcome" sketch:type="MSArtboardGroup" transform="translate(-1051.000000, -575.000000)" fill="#961F63">
            <g id="Content-/-OUTCOME" sketch:type="MSLayerGroup" transform="translate(371.000000, 246.000000)">
                <g id="Brochures" transform="translate(642.000000, 275.000000)" sketch:type="MSShapeGroup">
                    <g id="Brochure-Link-1" transform="translate(2.000000, 32.000000)">
                        <g id="Icon-/-PDF" transform="translate(36.000000, 22.000000)">
                            <path d="M0.711111111,14.1206897 L0.711111111,1.06086207 C0.711111111,0.981206897 0.721777778,0.724137931 0.874666667,0.724137931 L11.0471111,0.709655172 C11.0328889,0.760344828 11.0222222,0.811034483 11.0222222,0.865344828 L11.0222222,5.06896552 L15.1502222,5.06896552 C15.1964444,5.06896552 15.2426667,5.06172414 15.2888889,5.04724138 L15.2888889,5.06172414 L15.2888889,14.1206897 L0.711111111,14.1206897 Z M0.874666667,20.2758621 C0.849777778,20.2758621 0.828444444,20.265 0.803555556,20.2577586 C0.750222222,20.2324138 0.711111111,20.1744828 0.711111111,20.1093103 L0.711111111,14.8448276 L15.2888889,14.8448276 L15.2888889,20.1093103 C15.2888889,20.1744828 15.2497778,20.2324138 15.1964444,20.2577586 C15.1751111,20.265 15.1502222,20.2758621 15.1253333,20.2758621 L0.874666667,20.2758621 Z M14.7342222,4.34482759 L11.7333333,4.34482759 L11.7333333,1.28896552 L14.7342222,4.34482759 Z M15.8044444,4.41362069 L15.5306667,4.13482759 L11.9395556,0.477931034 L11.6657778,0.199137931 C11.5413333,0.0724137931 11.3706667,0 11.1964444,0 L0.874666667,0 C0.455111111,0 0,0.333103448 0,1.06086207 L0,14.1206897 L0,20.1093103 L0,20.2758621 C0,20.58 0.298666667,20.8732759 0.654222222,20.9674138 C0.672,20.9710345 0.689777778,20.9782759 0.707555556,20.9818966 C0.760888889,20.9927586 0.817777778,21 0.874666667,21 L15.1217778,21 C15.1786667,21 15.2355556,20.9927586 15.2924444,20.9818966 C15.3102222,20.9782759 15.328,20.9710345 15.3457778,20.9674138 C15.7013333,20.8732759 16,20.58 16,20.2758621 L16,20.1093103 L16,14.1206897 L16,5.06172414 C16,4.78293103 15.968,4.57655172 15.8044444,4.41362069 L15.8044444,4.41362069 Z" id="Fill-1"></path>
                            <path d="M5.30488889,17.4046552 C5.26933333,17.5060345 5.22311111,17.582069 5.16266667,17.64 C5.10222222,17.697931 5.04177778,17.7377586 4.97066667,17.7594828 C4.89955556,17.7848276 4.832,17.7956897 4.76088889,17.7956897 L4.22755556,17.7956897 L4.22755556,16.3510345 L4.66488889,16.3510345 C4.81422222,16.3510345 4.93511111,16.3763793 5.024,16.4234483 C5.11288889,16.4705172 5.184,16.532069 5.23377778,16.6008621 C5.28355556,16.6732759 5.31555556,16.7456897 5.33333333,16.8253448 C5.35111111,16.9013793 5.35822222,16.9701724 5.35822222,17.0317241 C5.35822222,17.1801724 5.34044444,17.3032759 5.30488889,17.4046552 M5.52533333,16.1989655 C5.408,16.1012069 5.27288889,16.0251724 5.12355556,15.9744828 C4.97422222,15.9237931 4.82488889,15.8984483 4.672,15.8984483 L3.64088889,15.8984483 L3.64088889,19.5517241 L4.224,19.5517241 L4.224,18.2337931 L4.65777778,18.2337931 C4.84622222,18.2337931 5.01688889,18.2048276 5.17333333,18.1505172 C5.32977778,18.0962069 5.46133333,18.0165517 5.57155556,17.9115517 C5.68177778,17.8101724 5.76711111,17.6834483 5.82755556,17.5313793 C5.888,17.3793103 5.92,17.2127586 5.92,17.0281034 C5.92,16.8543103 5.88444444,16.695 5.80977778,16.5537931 C5.73511111,16.4125862 5.64266667,16.3003448 5.52533333,16.1989655" id="Fill-3"></path>
                            <path d="M8.62577778,18.7298276 C8.45155556,18.9868966 8.16711111,19.1172414 7.76888889,19.1172414 L7.18933333,19.1172414 L7.18933333,16.3546552 L7.53066667,16.3546552 C7.808,16.3546552 8.03555556,16.3908621 8.20977778,16.4668966 C8.384,16.542931 8.52266667,16.637069 8.62577778,16.7601724 C8.72888889,16.8832759 8.79644444,17.0136207 8.832,17.162069 C8.86755556,17.3105172 8.88533333,17.4625862 8.88533333,17.6110345 C8.88888889,18.0998276 8.8,18.4727586 8.62577778,18.7298276 M9.04888889,16.437931 C8.89955556,16.275 8.70755556,16.1482759 8.48,16.0505172 C8.25244444,15.9527586 7.98577778,15.9056897 7.68355556,15.9056897 L6.60266667,15.9056897 L6.60266667,19.5517241 L7.95733333,19.5517241 C8.00355556,19.5517241 8.07111111,19.5444828 8.16711111,19.5336207 C8.25955556,19.5227586 8.36622222,19.4974138 8.48,19.4539655 C8.59377778,19.4141379 8.71111111,19.3489655 8.832,19.2693103 C8.95288889,19.1896552 9.06311111,19.0737931 9.15911111,18.9289655 C9.25511111,18.7841379 9.33688889,18.6067241 9.40088889,18.3931034 C9.46488889,18.1794828 9.49688889,17.9224138 9.49688889,17.6218966 C9.49688889,17.4046552 9.46133333,17.1910345 9.38666667,16.9846552 C9.312,16.7855172 9.20177778,16.6008621 9.04888889,16.437931" id="Fill-5"></path>
                            <path d="M10.3466667,19.5517241 L10.9404444,19.5517241 L10.9404444,17.907931 L12.4373333,17.907931 L12.4373333,17.5024138 L10.9404444,17.5024138 L10.9404444,16.3546552 L12.5866667,16.3546552 L12.5866667,15.902069 L10.3466667,15.902069 L10.3466667,19.5517241 Z" id="Fill-7"></path>
                            <path d="M11.7582222,9.14586207 C11.648,9.30155172 11.4097778,9.30517241 11.328,9.30517241 C11.1395556,9.30517241 11.0684444,9.18931034 10.7768889,8.96482759 C11.0151111,8.93224138 11.2426667,8.925 11.4204444,8.925 C11.7368889,8.925 11.7937778,8.97206897 11.8364444,8.99741379 C11.8328889,9.02275862 11.8115556,9.06982759 11.7582222,9.14586207 M7.17155556,9.31965517 C7.53066667,8.44344828 7.86844444,7.47672414 8.12088889,6.58241379 C8.51911111,7.3137931 8.99911111,8.02344828 9.47911111,8.58827586 C8.72177778,8.76931034 7.91466667,9.02637931 7.17155556,9.31965517 M7.90755556,3.51568966 C7.92177778,3.51206897 8.28088889,3.91396552 7.94311111,4.68155172 C7.43466667,4.15293103 7.872,3.52655172 7.90755556,3.51568966 M4.992,11.8143103 C4.82488889,11.6839655 4.83555556,11.597069 4.83911111,11.5644828 C4.86044444,11.3617241 5.16977778,11.0068966 5.93066667,10.5724138 C5.35466667,11.655 5.04177778,11.7998276 4.992,11.8143103 M11.3528889,8.31310345 C11.0257778,8.31310345 10.624,8.35655172 10.1582222,8.44344828 C9.50755556,7.74103448 8.82844444,6.71275862 8.34844444,5.7062069 C8.82488889,3.66775862 8.58666667,3.37810345 8.48,3.24413793 C8.36977778,3.09931034 8.20977778,2.86396552 8.032,2.86396552 C7.95733333,2.86396552 7.75111111,2.90017241 7.66933333,2.92551724 C7.46666667,2.99431034 7.35644444,3.15362069 7.26755556,3.36362069 C7.01511111,3.96103448 7.36,4.98206897 7.71555556,5.76775862 C7.41333333,6.99517241 6.90488889,8.46517241 6.368,9.66 C5.02044444,10.29 4.30577778,10.9055172 4.24177778,11.4956897 C4.21688889,11.7093103 4.26666667,12.0243103 4.64,12.3067241 C4.73955556,12.3827586 4.86044444,12.4262069 4.98488889,12.4262069 C5.29422222,12.4262069 5.61066667,12.1836207 5.97333333,11.6622414 C6.24,11.282069 6.52444444,10.7643103 6.81955556,10.1234483 C7.77244444,9.69982759 8.94933333,9.31603448 9.95911111,9.10241379 C10.5208889,9.65275862 11.0257778,9.92793103 11.456,9.92793103 C11.776,9.92793103 12.0462222,9.77948276 12.2453333,9.49706897 C12.4515556,9.2037931 12.4977778,8.93948276 12.384,8.715 C12.2453333,8.44706897 11.9075556,8.31310345 11.3528889,8.31310345" id="Fill-9"></path>
                        </g>
                    </g>
                </g>
            </g>
        </g>
    </g>
</svg>