<svg xmlns="http://www.w3.org/2000/svg" width="50" height="51" viewBox="0 0 50 51">
  <path fill="#92A1B7" d="M43.9587795,0.350441507 L38.8451432,4.93294867 C38.7236091,5.03950914 38.6505409,5.20017757 38.6498023,5.36255871 L38.6498023,10.8400868 L36.4480977,13.0597387 C32.5769045,9.35791496 27.3566773,7.0809989 21.6043477,7.0809989 C9.68679091,7.0809989 0.0134385795,16.8331584 0.0134385795,28.8479136 C0.0134385795,40.86256 9.68679091,50.6147654 21.6043477,50.6147654 C33.5219045,50.6147654 43.1952568,40.86256 43.1952568,28.8479136 C43.1952568,23.0439965 40.9420182,17.7689522 37.2648591,13.8652575 L39.4487795,11.6635061 L44.8998023,11.6635061 C45.0608818,11.6629332 45.2202568,11.5891205 45.3259386,11.4666015 L49.8713932,6.3112809 C50.1549159,5.98246883 49.8776432,5.3646323 49.4452568,5.36255871 L44.8998023,5.36255871 L44.8998023,0.780051553 C44.8605977,0.148364397 44.2453705,0.0961925534 43.9587795,0.350441507 L43.9587795,0.350441507 Z M43.7634386,2.05098127 L43.7634386,5.93537211 C43.7634955,6.23528575 44.0341205,6.50815686 44.3316205,6.5081855 L48.1668477,6.5081855 L44.6334386,10.5178793 L39.7861659,10.5178793 L39.7861659,5.61316457 L43.7634386,2.05098127 Z M21.6043477,8.22662569 C27.0476432,8.22662569 31.9856545,10.3743036 35.6491205,13.8652575 L32.0269614,17.5169429 C29.2894045,14.9582428 25.6273591,13.3819462 21.6043477,13.3819462 C13.1386091,13.3819462 6.26343864,20.3130112 6.26343864,28.8479136 C6.26343864,37.3826041 13.1386091,44.313818 21.6043477,44.313818 C30.0701432,44.313818 36.9452568,37.3826041 36.9452568,28.8479136 C36.9452568,24.7872968 35.3870182,21.0833135 32.8436659,18.3224618 L36.465825,14.6707764 C39.9338364,18.365039 42.0588932,23.3555382 42.0588932,28.8479136 C42.0588932,40.243406 32.9078136,49.4691386 21.6043477,49.4691386 C10.3008818,49.4691386 1.14980222,40.243406 1.14980222,28.8479136 C1.14980222,17.4523009 10.3008818,8.22662569 21.6043477,8.22662569 L21.6043477,8.22662569 Z M21.6043477,14.527573 C25.3211091,14.527573 28.6977568,15.9712232 31.2279273,18.3224618 L27.6057682,21.9741472 C26.0037227,20.5520978 23.9024727,19.6828936 21.6043477,19.6828936 C16.5902568,19.6828936 12.5134386,23.79295 12.5134386,28.8479136 C12.5134386,33.9027627 16.5903136,38.0128707 21.6043477,38.0128707 C26.6183818,38.0128707 30.6952568,33.9027627 30.6952568,28.8479136 C30.6952568,26.5263009 29.8382682,24.3960079 28.4225295,22.779666 L32.0446886,19.1279806 C34.3821886,21.6798185 35.8088932,25.0960432 35.8088932,28.8479136 C35.8088932,36.7634501 29.4560523,43.1681912 21.6043477,43.1681912 C13.7527,43.1681912 7.39980227,36.7634501 7.39980227,28.8479136 C7.39980227,20.9321538 13.7527,14.527573 21.6043477,14.527573 L21.6043477,14.527573 Z M21.6043477,20.8285204 C23.5969614,20.8285204 25.4125295,21.563377 26.8067341,22.779666 L22.7407114,26.8788676 C22.4040068,26.6792994 22.0204841,26.5566601 21.6043477,26.5566601 C20.3558818,26.5566601 19.3316205,27.5892708 19.3316205,28.8479136 C19.3316205,30.1064992 20.3558818,31.1391099 21.6043477,31.1391099 C22.8528136,31.1391099 23.877075,30.1064992 23.877075,28.8479136 C23.877075,28.4227143 23.7604273,28.0269002 23.5574727,27.6844151 L27.6057682,23.6030853 C28.8168477,25.0098348 29.5588932,26.8347037 29.5588932,28.8479136 C29.5588932,33.2836087 26.0042909,36.8672439 21.6043477,36.8672439 C17.2044045,36.8672439 13.6498023,33.2836087 13.6498023,28.8479136 C13.6498023,24.412104 17.2044614,20.8285204 21.6043477,20.8285204 Z M21.6043477,27.7022868 C21.7034386,27.7022868 21.7971886,27.7148887 21.8884386,27.7378013 L21.1959386,28.4359462 C20.9867341,28.6514959 20.9909955,29.039577 21.2050295,29.2504296 C21.4188364,29.4613395 21.8037227,29.4570434 22.0129273,29.2412646 L22.7053705,28.5431769 C22.7309386,28.6400397 22.7405977,28.7415422 22.7405977,28.8474554 C22.7405977,29.4869443 22.2384955,29.9930249 21.6042341,29.9930249 C20.9698591,29.9930249 20.4678705,29.4869443 20.4678705,28.8474554 C20.4678705,28.2079092 20.9698591,27.7018286 21.6042341,27.7018286 L21.6043477,27.7022868 Z"/>
</svg>
