<svg xmlns="http://www.w3.org/2000/svg" width="44" height="44" viewBox="0 0 44 44">
  <g fill="#92A1B7">
    <path d="M35.9613421,0.461639344 L8.42816614,0.461639344 C4.08016289,0.461639344 0.555409836,4.09143869 0.555409836,8.56902309 L0.555409836,35.6329441 C0.555409836,40.1105285 4.08016289,43.7403279 8.42816614,43.7403279 L35.9613421,43.7403279 C40.3093453,43.7403279 43.8340984,40.1105285 43.8340984,35.6329441 L43.8340984,8.56902309 C43.8340984,4.09143869 40.3093453,0.461639344 35.9613421,0.461639344 Z M35.9613421,42.2662581 L8.42816614,42.2662581 C4.87070894,42.2662581 1.98682007,39.2964223 1.98682007,35.6329441 L1.98682007,16.6542958 L2.07270469,16.6542958 L42.3096465,16.6542958 L42.3955311,16.6542958 L42.3955311,35.6329441 C42.3955333,39.2935459 39.5160039,42.2621908 35.9613421,42.2662581 L35.9613421,42.2662581 Z M42.4026881,15.2170778 L42.3168035,15.2170778 L2.07270469,15.2170778 L1.98682007,15.2170778 L1.98682007,8.58376379 C1.98682007,4.92028564 4.87070894,1.95044981 8.42816614,1.95044981 L35.9613421,1.95044981 C39.5187993,1.95044981 42.4026881,4.92028564 42.4026881,8.58376379 L42.4026881,15.2170778 Z"/>
    <path d="M32.6321311 23.3488525L12.0891803 23.3488525C11.690811 23.3488525 11.3678689 23.6717946 11.3678689 24.0701639 11.3678689 24.4685333 11.690811 24.7914754 12.0891803 24.7914754L32.6321311 24.7914754C33.0305005 24.7914754 33.3534426 24.4685333 33.3534426 24.0701639 33.3534426 23.6717946 33.0305005 23.3488525 32.6321311 23.3488525zM11.9088525 6.77311475C11.3112985 6.77311475 10.8268852 7.25752798 10.8268852 7.85508197L10.8268852 8.20852459C10.8268852 8.80607858 11.3112985 9.2904918 11.9088525 9.2904918 12.5064065 9.2904918 12.9908197 8.80607858 12.9908197 8.20852459L12.9908197 7.85508197C12.9908197 7.25752798 12.5064065 6.77311475 11.9088525 6.77311475zM32.812459 6.77311475C32.214905 6.77311475 31.7304918 7.25752798 31.7304918 7.85508197L31.7304918 8.20852459C31.7304919 8.80607855 32.2149051 9.29049171 32.812459 9.29049171 33.410013 9.29049171 33.8944262 8.80607855 33.8944262 8.20852459L33.8944262 7.85508197C33.8944262 7.25752798 33.410013 6.77311475 32.812459 6.77311475L32.812459 6.77311475zM32.6321311 32.7259016L12.0891803 32.7259016C11.690811 32.7259016 11.3678689 33.0488438 11.3678689 33.4472131 11.3678689 33.8455824 11.690811 34.1685246 12.0891803 34.1685246L32.6321311 34.1685246C33.0305005 34.1685246 33.3534426 33.8455824 33.3534426 33.4472131 33.3534426 33.0488438 33.0305005 32.7259016 32.6321311 32.7259016z"/>
  </g>
</svg>
