<svg xmlns="http://www.w3.org/2000/svg" width="45" height="45" viewBox="0 0 45 45">
  <g fill="#92A1B7">
    <path d="M35.25,28.2272727 C33.6818182,28.2272727 32.3863636,29.5227273 32.3863636,31.0909091 C32.3863636,32.6590909 33.6818182,33.9545455 35.25,33.9545455 C36.8181818,33.9545455 38.1136364,32.6590909 38.1136364,31.0909091 C38.1136364,29.5227273 36.8863636,28.2272727 35.25,28.2272727 Z M35.25,32.5909091 C34.4318182,32.5909091 33.75,31.9090909 33.75,31.0909091 C33.75,30.2727273 34.4318182,29.5909091 35.25,29.5909091 C36.0681818,29.5909091 36.75,30.2727273 36.75,31.0909091 C36.75,31.9090909 36.1363636,32.5909091 35.25,32.5909091 Z"/>
    <path d="M44.3181818,11.1136364 L39.6818182,11.1136364 C39.2727273,11.1136364 39,11.3863636 39,11.7954545 C39,12.2045455 39.2727273,12.4772727 39.6818182,12.4772727 L43.6363636,12.4772727 L43.6363636,25.9772727 L42,25.9772727 L42,16.6363636 C42,16.2272727 41.7272727,15.9545455 41.3181818,15.9545455 L37.8409091,15.9545455 L37.8409091,0.681818182 C37.8409091,0.272727273 37.5681818,0 37.1590909,0 L7.90909091,0 C7.5,0 7.22727273,0.272727273 7.22727273,0.681818182 L7.22727273,15.9545455 L1.36363636,15.9545455 L1.36363636,12.4772727 L5.59090909,12.4772727 C6,12.4772727 6.27272727,12.2045455 6.27272727,11.7954545 C6.27272727,11.3863636 6,11.1136364 5.59090909,11.1136364 L0.681818182,11.1136364 C0.272727273,11.1136364 0,11.3863636 0,11.7954545 L0,44.3181818 C0,44.7272727 0.272727273,45 0.681818182,45 L0.681818182,45 L44.3181818,45 C44.7272727,45 45,44.7272727 45,44.3181818 L45,35.5909091 L45,11.8636364 C45,11.4545455 44.7272727,11.1136364 44.3181818,11.1136364 Z M43.6363636,34.9090909 L34.6363636,34.9090909 C32.5909091,34.9090909 30.8863636,33.2045455 30.8863636,31.1590909 C30.8863636,29.0454545 32.5909091,27.4090909 34.6363636,27.4090909 L43.6363636,27.4090909 L43.6363636,34.9090909 Z M8.52272727,5.72727273 C10.7727273,5.45454545 12.5454545,3.61363636 12.8181818,1.36363636 L32.1136364,1.36363636 C32.3863636,3.61363636 34.1590909,5.38636364 36.4090909,5.72727273 L36.4090909,11.5909091 C34.1590909,11.9318182 32.4545455,13.7045455 32.1136364,15.9545455 L12.8181818,15.9545455 C12.4772727,13.7045455 10.7727273,11.9318182 8.52272727,11.5909091 L8.52272727,5.72727273 Z M33.5454545,15.9545455 C33.8181818,14.4545455 34.9772727,13.2954545 36.4772727,12.9545455 L36.4772727,15.9545455 L33.5454545,15.9545455 Z M36.4772727,4.36363636 C34.9772727,4.09090909 33.8181818,2.86363636 33.5454545,1.36363636 L36.4772727,1.36363636 L36.4772727,4.36363636 Z M11.4545455,1.36363636 C11.1818182,2.86363636 10.0227273,4.09090909 8.52272727,4.36363636 L8.52272727,1.36363636 L11.4545455,1.36363636 Z M8.52272727,12.9545455 C9.95454545,13.2272727 11.1136364,14.3863636 11.4545455,15.8863636 L8.52272727,15.8863636 L8.52272727,12.9545455 Z M1.36363636,17.3181818 L40.6363636,17.3181818 L40.6363636,25.9772727 L34.6363636,25.9772727 C31.7727273,25.9772727 29.5227273,28.2954545 29.5227273,31.0909091 C29.5227273,33.9545455 31.8409091,36.2045455 34.6363636,36.2045455 L40.6363636,36.2045455 L40.6363636,43.6363636 L1.36363636,43.6363636 L1.36363636,17.3181818 Z M42,43.6363636 L42,36.2727273 L43.6363636,36.2727273 L43.6363636,43.6363636 L42,43.6363636 Z"/>
    <path d="M22.5,15.2045455 C26.0454545,15.2045455 28.9772727,12.2727273 28.9772727,8.65909091 C28.9772727,5.04545455 26.1136364,2.11363636 22.5,2.11363636 C18.9545455,2.11363636 16.0227273,5.04545455 16.0227273,8.65909091 C16.0227273,12.2727273 18.9545455,15.2045455 22.5,15.2045455 Z M22.5,3.47727273 C25.2954545,3.47727273 27.6136364,5.79545455 27.6136364,8.65909091 C27.6136364,11.5227273 25.3636364,13.8409091 22.5,13.8409091 C19.7045455,13.8409091 17.3863636,11.5227273 17.3863636,8.65909091 C17.3863636,5.79545455 19.7045455,3.47727273 22.5,3.47727273 Z"/>
    <path d="M20.6590909 10.0227273L19.9772727 10.8409091C20.6590909 11.4545455 21.4090909 11.7954545 22.2954545 11.8636364L22.2954545 12.5454545 22.9090909 12.5454545 22.9090909 11.8636364C23.5227273 11.8636364 24.0681818 11.6590909 24.4090909 11.3181818 24.8181818 10.9772727 24.9545455 10.5 24.9545455 9.95454545 24.9545455 9.40909091 24.8181818 9 24.4772727 8.65909091 24.1363636 8.38636364 23.5909091 8.11363636 22.9090909 7.97727273L22.9090909 7.97727273 22.9090909 6.27272727C23.3863636 6.34090909 23.8636364 6.54545455 24.2727273 6.81818182L24.8863636 5.93181818C24.2727273 5.52272727 23.6590909 5.25 22.9772727 5.25L22.9772727 4.70454545 22.3636364 4.70454545 22.3636364 5.18181818C21.75 5.18181818 21.2727273 5.38636364 20.8636364 5.72727273 20.4545455 6.06818182 20.3181818 6.54545455 20.3181818 7.09090909 20.3181818 7.63636364 20.4545455 8.04545455 20.7954545 8.31818182 21.1363636 8.59090909 21.6136364 8.79545455 22.3636364 9L22.3636364 10.9090909C21.75 10.7727273 21.2045455 10.5 20.6590909 10.0227273zM22.9090909 9.20454545C23.25 9.34090909 23.5227273 9.40909091 23.6590909 9.54545455 23.7954545 9.68181818 23.8636364 9.88636364 23.8636364 10.0909091 23.8636364 10.2954545 23.7954545 10.5 23.5909091 10.6363636 23.3863636 10.7727273 23.1818182 10.8409091 22.9090909 10.9090909L22.9090909 9.20454545zM21.6136364 7.5C21.4772727 7.36363636 21.4090909 7.22727273 21.4090909 7.02272727 21.4090909 6.81818182 21.4772727 6.61363636 21.6136364 6.47727273 21.75 6.34090909 22.0227273 6.27272727 22.2954545 6.20454545L22.2954545 7.84090909C21.9545455 7.77272727 21.6818182 7.63636364 21.6136364 7.5zM16.7045455 20.5909091C11.3181818 20.5909091 6.88636364 25.0909091 6.88636364 30.5454545 6.88636364 36.0681818 11.25 40.5 16.7045455 40.5 22.0909091 40.5 26.5227273 36 26.5227273 30.5454545 26.5227273 25.0909091 22.1590909 20.5909091 16.7045455 20.5909091zM16.7045455 39.1363636C12.0681818 39.1363636 8.25 35.25 8.25 30.5454545 8.25 25.7727273 12 21.9545455 16.7045455 21.9545455 21.3409091 21.9545455 25.1590909 25.8409091 25.1590909 30.5454545 25.1590909 35.3181818 21.4090909 39.1363636 16.7045455 39.1363636z"/>
    <path d="M17.5227273,29.3181818 L17.5227273,29.3181818 L17.4545455,25.7727273 C18.4090909,25.9090909 19.2954545,26.25 20.0454545,26.8636364 L21.2045455,25.1590909 C19.9772727,24.3409091 18.75,23.8636364 17.3863636,23.7272727 L17.3863636,22.7727273 L16.2272727,22.7727273 L16.2272727,23.7272727 C15.0681818,23.7954545 14.1136364,24.1363636 13.3636364,24.8181818 C12.6136364,25.5 12.2727273,26.3863636 12.2727273,27.4772727 C12.2727273,28.5681818 12.6136364,29.3863636 13.2272727,29.9318182 C13.8409091,30.4772727 14.8636364,30.9545455 16.2272727,31.2272727 L16.2272727,34.8409091 C15.1363636,34.6363636 14.1136364,34.0909091 13.0909091,33.2045455 L11.7272727,34.8409091 C13.0909091,36 14.5909091,36.6818182 16.2272727,36.8863636 L16.2272727,38.25 L17.3863636,38.25 L17.3863636,36.8863636 C18.6136364,36.8181818 19.6363636,36.4772727 20.3863636,35.7954545 C21.1363636,35.1136364 21.5454545,34.2272727 21.5454545,33.1363636 C21.5454545,32.0454545 21.2045455,31.2272727 20.5227273,30.6136364 C19.9772727,30.1363636 18.9545455,29.6590909 17.5227273,29.3181818 Z M16.2954545,28.9772727 C15.6136364,28.7727273 15.1363636,28.5 14.9318182,28.2954545 C14.6590909,28.0227273 14.5909091,27.75 14.5909091,27.2727273 C14.5909091,26.8636364 14.7272727,26.5227273 15.0681818,26.25 C15.4090909,25.9772727 15.8181818,25.7727273 16.3636364,25.7727273 L16.3636364,28.9772727 L16.2954545,28.9772727 Z M18.8863636,34.4318182 C18.5454545,34.7045455 18.0681818,34.9090909 17.5227273,34.9772727 L17.5227273,31.6363636 C18.2727273,31.8409091 18.75,32.1136364 19.0227273,32.3863636 C19.2954545,32.6590909 19.4318182,33 19.4318182,33.4090909 C19.4318182,33.8181818 19.2272727,34.1590909 18.8863636,34.4318182 Z"/>
  </g>
</svg>
