<?xml version="1.0" encoding="UTF-8" standalone="no"?>
<svg width="27px" height="26px" viewBox="0 0 27 26" version="1.1" xmlns="http://www.w3.org/2000/svg" xmlns:xlink="http://www.w3.org/1999/xlink" xmlns:sketch="http://www.bohemiancoding.com/sketch/ns">
    <!-- Generator: sketchtool 3.5.2 (25235) - http://www.bohemiancoding.com/sketch -->
    <title>Icon / Download</title>
    <desc>Created with sketchtool.</desc>
    <defs></defs>
    <g id="Lithan---Product-(Desktop)" stroke="none" stroke-width="1" fill="none" fill-rule="evenodd" sketch:type="MSPage">
        <g id="01---Product-Desktop---Course-Outcome" sketch:type="MSArtboardGroup" transform="translate(-1273.000000, -569.000000)" fill="#E9D8E5">
            <g id="Content-/-OUTCOME" sketch:type="MSLayerGroup" transform="translate(371.000000, 246.000000)">
                <g id="Brochures" transform="translate(642.000000, 275.000000)" sketch:type="MSShapeGroup">
                    <g id="Brochure-Link-1" transform="translate(2.000000, 32.000000)">
                        <g id="Icon-/-Download" transform="translate(258.000000, 16.000000)">
                            <path d="M25.0434783,26 L2.34782609,26 C1.17391304,26 0,24.7393939 0,23.5575758 L0,5.83030303 C0,4.72727273 0.97826087,3.93939394 2.34782609,3.93939394 L7.43478261,3.93939394 C7.74782609,3.93939394 8.02173913,4.21515152 8.02173913,4.53030303 C8.02173913,4.84545455 7.74782609,5.12121212 7.43478261,5.12121212 L2.34782609,5.12121212 C1.87826087,5.12121212 1.17391304,5.31818182 1.17391304,5.83030303 L1.17391304,23.5575758 C1.17391304,24.1090909 1.83913043,24.8181818 2.34782609,24.8181818 L25.0434783,24.8181818 C25.473913,24.8181818 25.826087,24.1484848 25.826087,23.5575758 L25.826087,5.83030303 C25.826087,5.3969697 25.7086957,5.12121212 25.0434783,5.12121212 L19.5652174,5.12121212 C19.2521739,5.12121212 18.9782609,4.84545455 18.9782609,4.53030303 C18.9782609,4.21515152 19.2521739,3.93939394 19.5652174,3.93939394 L25.0434783,3.93939394 C26.2565217,3.93939394 27,4.64848485 27,5.83030303 L27,23.5575758 C27,24.7393939 26.2565217,26 25.0434783,26" id="Fill-1"></path>
                            <path d="M13.5391304,16.8606061 C13.3826087,16.8606061 13.226087,16.8212121 13.1086957,16.7030303 L8.76521739,12.2909091 C8.53043478,12.0545455 8.53043478,11.7 8.76521739,11.4636364 C9,11.2272727 9.35217391,11.2272727 9.58695652,11.4636364 L13.9304348,15.8757576 C14.1652174,16.1121212 14.1652174,16.4666667 13.9304348,16.7030303 C13.8130435,16.8212121 13.6565217,16.8606061 13.5391304,16.8606061" id="Fill-3"></path>
                            <path d="M13.5391304,16.8606061 C13.3826087,16.8606061 13.226087,16.8212121 13.1086957,16.7030303 C12.873913,16.4666667 12.873913,16.1121212 13.1086957,15.8757576 L17.4913043,11.5030303 C17.726087,11.2666667 18.0782609,11.2666667 18.3130435,11.5030303 C18.5478261,11.7393939 18.5478261,12.0939394 18.3130435,12.330303 L13.9304348,16.7030303 C13.8130435,16.8212121 13.6565217,16.8606061 13.5391304,16.8606061" id="Fill-5"></path>
                            <path d="M13.5,16.3484848 C13.1869565,16.3484848 12.9130435,16.0727273 12.9130435,15.7575758 L12.9130435,0.787878788 C12.9130435,0.472727273 13.1869565,0.196969697 13.5,0.196969697 C13.8130435,0.196969697 14.0869565,0.472727273 14.0869565,0.787878788 L14.0869565,15.7575758 C14.0869565,16.0727273 13.8130435,16.3484848 13.5,16.3484848" id="Fill-7"></path>
                            <path d="M19.173913,20.8787879 L8.2173913,20.8787879 C7.90434783,20.8787879 7.63043478,20.6030303 7.63043478,20.2878788 C7.63043478,19.9727273 7.90434783,19.6969697 8.2173913,19.6969697 L19.173913,19.6969697 C19.4869565,19.6969697 19.7608696,19.9727273 19.7608696,20.2878788 C19.7608696,20.6030303 19.4869565,20.8787879 19.173913,20.8787879" id="Fill-9"></path>
                        </g>
                    </g>
                </g>
            </g>
        </g>
    </g>
</svg>