<svg xmlns="http://www.w3.org/2000/svg" width="56" height="80" viewBox="0 0 56 80">
    <g fill="none" fill-rule="nonzero">
        <path fill="#002F76" d="M54.3 10.9h-8V6.6c0-3.4-2.8-6.2-6.2-6.2-3.4 0-6.2 2.8-6.2 6.2v4.3H1.7c-.6 0-1 .4-1 1v66.7c0 .6.4 1 1 1h38.4c.6 0 1-.4 1-1s-.4-1-1-1H2.7V12.9h31.2v3.2c0 2 1.6 3.6 3.6 3.6s3.6-1.6 3.6-3.6V7.8c0-.6-.4-1-1-1s-1 .4-1 1v8.3c0 .9-.7 1.6-1.6 1.6-.9 0-1.6-.7-1.6-1.6V6.7c0-2.3 1.9-4.2 4.2-4.2 2.3 0 4.2 1.9 4.2 4.2V12c0 .6.4 1 1 1 .2 0 .3 0 .4-.1.1.1.3.1.4.1h7.1v64.7h-3c-.6 0-1 .4-1 1s.4 1 1 1h4c.6 0 1-.4 1-1V11.9c.1-.6-.4-1-.9-1z"/>
        <path fill="#002F76" d="M7.9 35.1c0 .6.4 1 1 1H21c.6 0 1-.4 1-1 0-3.2-2.1-5.8-5-6.7 1.1-.7 1.8-2 1.8-3.4 0-2.2-1.8-4-4-4s-4 1.8-4 4c0 1.4.8 2.7 1.9 3.4-2.8 1-4.8 3.6-4.8 6.7zm7-12.1c1.1 0 2 .9 2 2s-.9 2-2 2-2-.9-2-2c-.1-1.1.8-2 2-2zm.1 7.1c2.4 0 4.5 1.7 5 4.1H10c.5-2.4 2.5-4.1 5-4.1zM30 29.1h14.1c.6 0 1-.4 1-1s-.4-1-1-1H30c-.6 0-1 .4-1 1s.5 1 1 1zM30 35.1h12.1c.6 0 1-.4 1-1s-.4-1-1-1H30c-.6 0-1 .4-1 1s.5 1 1 1zM43.1 52.3c0-.6-.4-1-1-1H9.8c-.6 0-1 .4-1 1s.4 1 1 1h32.3c.6 0 1-.4 1-1zM9.8 47.2h10.1c.6 0 1-.4 1-1s-.4-1-1-1H9.8c-.6 0-1 .4-1 1s.5 1 1 1zM46.2 45.2H26c-.6 0-1 .4-1 1s.4 1 1 1h20.2c.6 0 1-.4 1-1s-.5-1-1-1zM9.8 57.4c-.6 0-1 .4-1 1s.4 1 1 1h28.3c.6 0 1-.4 1-1s-.4-1-1-1H9.8zM27 64.4c0-.6-.4-1-1-1H9.8c-.6 0-1 .4-1 1s.4 1 1 1H26c.5 0 1-.4 1-1z"/>
        <path fill="#EF3024" d="M38.795 69.5a1.993 1.993 0 0 0-1.995 2 2 2 0 0 0 1.995 2h6.11a1.993 1.993 0 0 0 1.995-2 2 2 0 0 0-1.995-2h-6.11z"/>
        <path fill="#002F76" d="M30.1 69.5H9.9c-.6 0-1 .4-1 1s.4 1 1 1h20.2c.6 0 1-.4 1-1s-.4-1-1-1zM46.2 63.4H32c-.6 0-1 .4-1 1s.4 1 1 1h14.1c.6 0 1-.4 1-1s-.4-1-.9-1z"/>
    </g>
</svg>
