<svg xmlns="http://www.w3.org/2000/svg" width="41" height="41" viewBox="0 0 41 41">
    <g fill="none" fill-rule="evenodd">
        <path stroke="#005DB8" stroke-linecap="round" stroke-linejoin="round" d="M34.723 7.082c-3.82-3.82-8.426-5.73-13.82-5.73-5.395 0-10.002 1.91-13.821 5.73-3.82 3.82-5.73 8.426-5.73 13.82 0 5.395 1.91 10.002 5.73 13.821 3.82 3.82 8.426 5.73 13.82 5.73 2.966 0 5.68-.57 8.176-1.726.67-.318 1.323-.67 1.976-1.072a20.618 20.618 0 0 0 3.67-2.932c3.819-3.82 5.729-8.426 5.729-13.82 0-5.395-1.91-10.001-5.73-13.82z"/>
        <path fill="#005DB8" d="M14.04 28.795h3.023v-10.72H14.04zM21.913 19.757v-1.683l-2.904-.103v10.824h2.904v-5.801c0-.323-.016-.645.083-.876.26-.645.822-1.314 1.832-1.314 1.32 0 1.92.991 1.92 2.443v5.548h3.307v-5.961c0-3.32-2.031-4.863-3.765-4.863-1.938 0-3.153 1.05-3.377 1.786zM15.51 14c-.913 0-1.51.647-1.51 1.501 0 .838.58 1.499 1.475 1.499h.017c.93 0 1.508-.663 1.508-1.501-.018-.853-.578-1.499-1.49-1.499"/>
    </g>
</svg>
