<svg xmlns="http://www.w3.org/2000/svg" width="41" height="41" viewBox="0 0 41 41">
    <g fill="none" fill-rule="evenodd">
        <path stroke="#005DB8" d="M20.871 1.31a18.84 18.84 0 0 0-13.83 5.714c-.367.367-.72.739-1.054 1.12A18.737 18.737 0 0 0 1.31 20.85c-.08 4.67 1.588 9.201 4.676 12.706.334.386.687.753 1.054 1.125a18.84 18.84 0 0 0 13.83 5.756 18.84 18.84 0 0 0 13.834-5.751 18.818 18.818 0 0 0 5.731-13.826 18.818 18.818 0 0 0-5.73-13.836A18.84 18.84 0 0 0 20.87 1.311z"/>
        <path fill="#005EB8" d="M20.35 23.899c.154.97-.17 1.955-.87 2.646l-1.702 1.701a3.095 3.095 0 0 1-4.376-4.376l1.706-1.706a3.072 3.072 0 0 1 2.646-.87l.633-.634a3.86 3.86 0 0 0-1.089-.157 3.818 3.818 0 0 0-2.716 1.126l-1.706 1.706a3.844 3.844 0 0 0 5.432 5.441l1.706-1.706a3.818 3.818 0 0 0 1.127-2.716c0-.369-.054-.735-.158-1.089l-.633.634zm7.557-10.158a3.843 3.843 0 0 0-5.437 0l-1.706 1.706c-.724.72-1.13 1.7-1.126 2.72 0 .37.053.736.157 1.09l.634-.634a3.072 3.072 0 0 1 .87-2.646l1.705-1.706a3.093 3.093 0 0 1 4.373 4.377l-1.706 1.706a3.072 3.072 0 0 1-2.642.87l-.634.633c.354.104.72.157 1.09.157 1.02.004 2-.402 2.72-1.126l1.706-1.706a3.843 3.843 0 0 0 0-5.437l-.004-.004zM17.646 24.532l6.017-6.016-.53-.53-6.017 6.012.53.534z"/>
    </g>
</svg>
