<svg xmlns="http://www.w3.org/2000/svg" width="23" height="22" viewBox="0 0 23 22">
    <path fill="#FFF" fill-rule="evenodd" d="M11.585 20.9c-3.767 0-7.05-2.116-8.723-5.222.289-.549.823-1.763.574-2.826.017-.106.199-.364.308-.519.298-.423.668-.95.393-1.507-.192-.391-.708-.655-1.722-.884a14.312 14.312 0 0 0-.66-.13c.59-4.9 4.773-8.71 9.83-8.71 1.735 0 3.368.449 4.787 1.237a2.236 2.236 0 0 0-.924-.177c-.14 0-.279.007-.413.016-.13.008-.266.015-.4.015-.313 0-.702-.037-1.224-.315-.796-.424-1.392-.605-1.993-.605-.743 0-1.498.288-2.522.963a4.693 4.693 0 0 0-1.878 2.517c-.318 1.013-.284 2.05.096 2.92.448 1.025 1.038 1.482 1.916 1.482.217 0 .428-.025.651-.051.226-.027.458-.054.699-.054.298 0 .56.041.826.13.483.161.84.702 1.09 1.654.25.951.345 2.163.43 3.23.07.89.137 1.73.283 2.366.089.385.203.677.352.894.22.323.538.502.892.502.972 0 1.749-.314 2.309-.932.465-.514.703-1.149.894-1.659.112-.3.229-.612.342-.74 1.25-1.404 1.122-2.561 1.028-3.407-.07-.62-.07-.84.18-1.07.233-.212.446-.402.633-.569.399-.356.687-.614.89-.834.138-.152.464-.507.373-.951l-.002-.012A9.85 9.85 0 0 1 21.483 11c0 5.46-4.44 9.9-9.9 9.9h.002zm-9.898-9.985c.118.021.246.047.378.074.618.132.907.25 1.034.318-.058.113-.176.28-.254.39-.272.387-.61.867-.482 1.396.087.358.013.796-.113 1.2a9.857 9.857 0 0 1-.565-3.295l.002-.085v.002zm16.049.295c.083.745.169 1.516-.756 2.554-.25.28-.396.671-.551 1.085-.359.958-.698 1.863-2.14 1.877-.042-.049-.156-.232-.258-.807-.094-.53-.148-1.216-.206-1.941-.088-1.114-.188-2.376-.463-3.423-.352-1.34-.943-2.13-1.805-2.418a3.66 3.66 0 0 0-1.175-.187c-.306 0-.583.033-.827.061-.19.022-.37.044-.523.044-.257 0-.549 0-.908-.822-.516-1.183-.136-3.078 1.38-4.078.83-.548 1.403-.782 1.915-.782.41 0 .85.142 1.477.476.739.394 1.318.444 1.74.444.168 0 .32-.008.466-.017.123-.008.239-.014.347-.014.242 0 .437.031.667.188.424.289.644.928.876 1.603.352 1.026.751 2.187 2.018 2.618.17.059.464.158.671.245-.179.184-.478.452-.772.713-.189.17-.403.361-.641.578-.686.626-.605 1.358-.532 2.004zm3.086-3.773c-.214-.386-.753-.57-1.457-.81-.756-.257-1.023-1.034-1.332-1.933-.269-.781-.546-1.588-1.205-2.09a9.957 9.957 0 0 1 3.994 4.833zm-1.458-4.215A10.927 10.927 0 0 0 11.585 0c-2.938 0-5.7 1.144-7.778 3.222A10.927 10.927 0 0 0 .585 11c0 2.938 1.144 5.7 3.222 7.778A10.927 10.927 0 0 0 11.585 22c2.939 0 5.7-1.144 7.779-3.222A10.927 10.927 0 0 0 22.585 11c0-2.938-1.144-5.7-3.221-7.778z"/>
</svg>
