<svg xmlns="http://www.w3.org/2000/svg" width="16" height="17" viewBox="0 0 16 17">
    <g fill="none" fill-rule="nonzero">
        <path stroke="#FFF" stroke-width=".8" d="M7.162 12.371h7.524V.744H1.314v11.627h3.211v2.999l.7-.796 1.937-2.203z"/>
        <path fill="#FFF" d="M3.78 4.189h8.382c.171 0 .31-.149.31-.333 0-.184-.139-.332-.309-.332H3.78c-.17 0-.308.149-.308.332 0 .183.139.333.308.333zM3.78 6.892h8.382c.171 0 .31-.149.31-.332 0-.184-.139-.333-.31-.333H3.78c-.17 0-.308.15-.308.333 0 .183.139.332.308.332zM3.78 9.595h8.382c.171 0 .31-.149.31-.333 0-.183-.139-.332-.31-.332H3.78c-.17 0-.308.149-.308.332 0 .184.139.333.308.333z"/>
    </g>
</svg>
