<svg xmlns="http://www.w3.org/2000/svg" width="15" height="15" viewBox="0 0 15 15">
    <path fill="#FFF" fill-rule="evenodd" d="M4.301 9.302h-.93a.465.465 0 0 0-.465.465v.93c0 .257.208.466.465.466h.93a.465.465 0 0 0 .465-.465v-.93a.465.465 0 0 0-.465-.466zm0-3.722h-.93a.465.465 0 0 0-.465.465v.93c0 .257.208.466.465.466h.93a.465.465 0 0 0 .465-.465v-.93a.465.465 0 0 0-.465-.466zm3.722 0h-.93a.465.465 0 0 0-.466.465v.93c0 .257.209.466.465.466h.93a.465.465 0 0 0 .466-.465v-.93a.465.465 0 0 0-.465-.466zm0 3.722h-.93a.465.465 0 0 0-.466.465v.93c0 .257.209.466.465.466h.93a.465.465 0 0 0 .466-.465v-.93a.465.465 0 0 0-.465-.466zm2.79 1.861h.93a.465.465 0 0 0 .466-.465v-.93a.465.465 0 0 0-.465-.466h-.93a.465.465 0 0 0-.466.465v.93c0 .257.209.466.466.466zm0-3.722h.93a.465.465 0 0 0 .466-.465v-.93a.465.465 0 0 0-.465-.466h-.93a.465.465 0 0 0-.466.465v.93c0 .257.209.466.466.466zm3.257 6.514H1.045V2.323h3.718v.469a.465.465 0 1 0 .93 0v-.469h3.722v.469a.465.465 0 1 0 .93 0v-.469h3.725v11.632zm0-12.563h-3.725V.465a.465.465 0 1 0-.93 0v.927H5.693V.465a.465.465 0 1 0-.93 0v.927H1.045a.93.93 0 0 0-.93.931v11.632c0 .513.416.93.93.93H14.07a.93.93 0 0 0 .93-.93V2.323a.93.93 0 0 0-.93-.93z"/>
</svg>
