<svg xmlns="http://www.w3.org/2000/svg" width="42" height="42" viewBox="0 0 42 42">
    <g fill="none" fill-rule="evenodd">
        <path stroke="#005DB8" stroke-linecap="round" stroke-linejoin="round" d="M35.127 7.155C31.262 3.29 26.6 1.357 21.141 1.357c-4.832 0-9.036 1.509-12.613 4.544-.474.39-.932.796-1.373 1.254-3.865 3.865-5.798 8.528-5.798 13.986 0 5.46 1.933 10.121 5.798 13.986.44.458.899.882 1.373 1.272 3.577 3.018 7.781 4.526 12.613 4.526 3 0 5.747-.576 8.273-1.746.678-.322 1.34-.678 2-1.084a20.822 20.822 0 0 0 3.713-2.968c.373-.372.729-.745 1.069-1.135 3.152-3.628 4.73-7.917 4.73-12.85 0-.34 0-.679-.018-1l-.05-.78c-.34-4.188-1.9-7.884-4.662-11.071-.34-.39-.696-.763-1.069-1.136z"/>
        <path fill="#005DB8" d="M10.019 21.695c.06-3.63 3.395-6.81 7.022-6.69 1.737-.08 3.371.677 4.702 1.74a25.03 25.03 0 0 1-1.785 1.851c-1.6-1.107-3.875-1.423-5.475-.144-2.29 1.584-2.394 5.326-.192 7.032 2.141 1.945 6.188.98 6.78-1.999-1.341-.02-2.686 0-4.027-.043-.003-.801-.007-1.602-.003-2.403 2.242-.007 4.484-.01 6.73.007.134 1.884-.115 3.89-1.271 5.448-1.752 2.466-5.268 3.186-8.01 2.13-2.754-1.05-4.703-3.96-4.471-6.929M28.663 19.313h2c.003.67.006 1.342.013 2.012.67.007 1.341.007 2.01.014v2.002c-.669.006-1.337.01-2.01.017-.007.673-.01 1.342-.013 2.012h-2.004c-.006-.67-.006-1.34-.013-2.01l-2.01-.02V21.34c.669-.007 1.338-.01 2.01-.014.003-.673.01-1.342.017-2.012"/>
    </g>
</svg>
