<svg xmlns="http://www.w3.org/2000/svg" width="42" height="42" viewBox="0 0 42 42">
    <g fill="none" fill-rule="evenodd">
        <path stroke="#005DB8" stroke-linecap="round" stroke-linejoin="round" d="M35.127 7.155C31.262 3.29 26.6 1.357 21.141 1.357c-4.832 0-9.036 1.509-12.613 4.544-.474.39-.932.796-1.373 1.254-3.865 3.865-5.798 8.528-5.798 13.986 0 5.46 1.933 10.121 5.798 13.986.44.458.899.882 1.373 1.272 3.577 3.018 7.781 4.526 12.613 4.526 3 0 5.747-.576 8.273-1.746.678-.322 1.34-.678 2-1.084a20.822 20.822 0 0 0 3.713-2.968c.373-.372.729-.745 1.069-1.135 3.152-3.628 4.73-7.917 4.73-12.85 0-.34 0-.679-.018-1l-.05-.78c-.34-4.188-1.9-7.884-4.662-11.071-.34-.39-.696-.763-1.069-1.136z"/>
        <path fill="#005DB8" d="M18.668 30.33h3.335v-9.16h2.502L25 18.306h-2.997v-2.074c0-.669.433-1.37 1.05-1.37h1.704V12h-2.088c-3.265.131-3.936 2.023-3.995 4.01l-.006 2.297H17v2.862h1.668v9.16z"/>
    </g>
</svg>
