<svg xmlns="http://www.w3.org/2000/svg" width="14" height="14" viewBox="0 0 14 14">
    <g fill="none" fill-rule="evenodd" transform="translate(1 1)">
        <circle cx="6" cy="6" r="6" stroke="#95A5A6"/>
        <path fill="#95A5A6" d="M7.575 6.774c.091.21.133.441.133.686 0 .259-.056.49-.168.7a1.464 1.464 0 0 1-.476.497c-.357.224-.84.343-1.428.343H4.488V3.806h1.148c.574 0 .994.105 1.288.322.161.119.28.273.357.448.07.161.105.343.105.546 0 .28-.091.623-.406.952.084.056.161.119.238.189.154.154.273.322.357.511zm-1.939-2.24H5.3v1.575c.161-.035.35-.091.532-.168.259-.105.462-.224.602-.364.147-.14.217-.287.217-.455 0-.252-.091-.35-.168-.406-.196-.147-.574-.182-.847-.182zm1.029 3.507a.635.635 0 0 0 .315-.581.876.876 0 0 0-.273-.665 1.27 1.27 0 0 0-.399-.259c-.07.028-.14.063-.217.091a4.832 4.832 0 0 1-.791.238v1.4h.336c.441 0 .798-.077 1.029-.224z"/>
    </g>
</svg>
