<svg xmlns="http://www.w3.org/2000/svg" width="42" height="42" viewBox="0 0 42 42">
  <g fill="none" fill-rule="evenodd" transform="translate(1 1)">
    <path stroke="#005DB8" d="M19.9997593,0 C14.4811236,0 9.76833187,1.95393169 5.86042146,5.86131369 C5.48397579,6.23823621 5.12389732,6.61515874 4.78114883,7.00941103 C1.59339535,10.6770645 0,15.012877 0,19.9995186 C0,24.987123 1.59339535,29.3229355 4.78114883,32.9901076 C5.12389732,33.3848413 5.48397579,33.7617638 5.86042146,34.1386863 C9.76833187,38.0460683 14.4811236,40 19.9997593,40 C25.5179137,40 30.2311867,38.0460683 34.1386158,34.1386863 C38.0460448,30.2313043 40,25.5180879 40,19.9995186 C40,14.4814307 38.0460448,9.76869569 34.1386158,5.86131369 C30.2311867,1.95393169 25.5179137,0 19.9997593,0 L19.9997593,0 Z" stroke-linecap="round" stroke-linejoin="round"/>
    <path fill="#005DB8" d="M28.5688889,14.1629166 C29.2321693,13.4848213 29.7595767,12.8668319 30.1511111,12.2941335 C29.533545,12.4901124 28.9007407,12.6708531 28.2374603,12.8668319 C28.0114286,12.9121229 27.7701587,12.9574139 27.5445503,12.9874669 C27.4840212,12.927361 27.4234921,12.8668319 27.3633862,12.8067261 C26.5346032,11.9631282 25.5250794,11.5411176 24.3343915,11.5559325 C23.144127,11.5411176 22.1341799,11.9631282 21.3053968,12.8067261 C20.4617989,13.6355092 20.0397884,14.6454563 20.0546032,15.8357208 C20.0546032,16.1523346 20.0850794,16.4537102 20.1451852,16.7550859 C16.6488889,16.7999536 13.6952381,15.3684192 11.2842328,12.4604827 C10.365291,14.5095833 10.7568254,16.4084192 12.4300529,18.1713822 C11.7964021,18.186197 11.224127,18.0355092 10.7119577,17.7193187 C10.6967196,17.7040806 10.6819048,17.7040806 10.6666667,17.6892658 C10.6819048,17.9457737 10.7119577,18.186197 10.7568254,18.412652 C11.0730159,20.0253504 12.173545,21.2003769 14.072381,21.9390012 C13.1830688,22.3305356 12.3390476,22.3152975 11.5559788,21.893287 C12.3843386,23.5961441 13.8912169,24.620906 16.0613757,24.9828108 C14.5392593,26.2031282 12.8063492,26.8063028 10.8626455,26.7758266 C12.6556614,27.8759325 14.6899471,28.418578 16.9354497,28.418578 L17.5081481,28.4033399 C20.5519577,28.2378372 23.144127,27.0924404 25.2986243,24.9375198 C27.6194709,22.6319113 28.7796825,19.8289483 28.7796825,16.5591071 C28.7796825,16.2124404 28.7648677,15.8810118 28.7496296,15.54916 C29.488254,15.1423875 30.1362963,14.5095833 30.7089947,13.6659854 C30.0457143,13.9821758 29.3371429,14.1481018 28.5688889,14.1629166"/>
  </g>
</svg>
