<?xml version="1.0" encoding="UTF-8" standalone="no"?>
<svg width="22px" height="14px" viewBox="0 0 22 14" version="1.1" xmlns="http://www.w3.org/2000/svg" xmlns:xlink="http://www.w3.org/1999/xlink" xmlns:sketch="http://www.bohemiancoding.com/sketch/ns">
    <!-- Generator: Sketch 3.5.2 (25235) - http://www.bohemiancoding.com/sketch -->
    <title>Icon Flag / Singapore</title>
    <desc>Created with Sketch.</desc>
    <defs></defs>
    <g id="Lithan---Header-NEW-(Mobile)" stroke="none" stroke-width="1" fill="none" fill-rule="evenodd" sketch:type="MSPage">
        <g id="Mobile-Portrait---Countries" sketch:type="MSArtboardGroup" transform="translate(-123.000000, -86.000000)">
            <g id="Countries-Sub-Menu" sketch:type="MSLayerGroup" transform="translate(123.000000, 82.000000)">
                <g id="SINGAPORE" sketch:type="MSShapeGroup">
                    <g id="Icon-Flag-/-Singapore" transform="translate(0.000000, 4.000000)">
                        <path d="M0,14 L22,14 L22,0 L0,0 L0,14 Z" id="Fill-15" fill="#494949"></path>
                        <path d="M1,6.98533172 L21.043335,6.98533172 L21.043335,1 L1,1 L1,6.98533172 Z" id="Fill-1" fill="#DA1841"></path>
                        <path d="M1,13.0273438 L21.043335,13.0273438 L21.043335,7.04445677 L1,7.04445677 L1,13.0273438 Z" id="Fill-2" fill="#F8F8F8"></path>
                        <path d="M7.11015149,4.22303772 C7.11015149,5.45765076 6.11032727,6.45808167 4.87692761,6.45808167 C3.64413464,6.45808167 2.64370374,5.45765076 2.64370374,4.22303772 C2.64370374,2.99085144 3.64413464,1.99042053 4.87692761,1.99042053 C6.11032727,1.99042053 7.11015149,2.99085144 7.11015149,4.22303772" id="Fill-3" fill="#FFFFFF"></path>
                        <path d="M7.81221252,4.22303772 C7.81221252,5.39152161 6.86820374,6.33431702 5.70153992,6.33431702 C4.53730286,6.33431702 3.59086731,5.39152161 3.59086731,4.22303772 C3.59086731,3.05940735 4.53730286,2.11357849 5.70153992,2.11357849 C6.86820374,2.11357849 7.81221252,3.05940735 7.81221252,4.22303772" id="Fill-5" fill="#DA1841"></path>
                        <path d="M5.15321399,4.27751843 L4.85047595,4.04515637 L4.54591785,4.27751843 L4.66300891,3.90319104 L4.3590575,3.67082898 L4.73520496,3.67325574 L4.85047595,3.29650159 L4.96635364,3.67325574 L5.34128772,3.67082898 L5.03672961,3.90319104 L5.15321399,4.27751843 Z" id="Fill-7" fill="#FFFFFF"></path>
                        <path d="M7.53434875,4.27751843 L7.23039734,4.04515637 L6.9276593,4.27751843 L7.04414368,3.90319104 L6.73897888,3.67082898 L7.11573303,3.67325574 L7.23039734,3.29650159 L7.34566833,3.67325574 L7.7218158,3.67082898 L7.41786438,3.90319104 L7.53434875,4.27751843 Z" id="Fill-9" fill="#FFFFFF"></path>
                        <path d="M6.34408472,3.39593799 L6.04134668,3.16114917 L5.73860864,3.39593799 L5.85387964,3.01918384 L5.54992822,2.78924854 L5.92607568,2.78924854 L6.04134668,2.41249438 L6.15722437,2.78924854 L6.53337183,2.78682178 L6.22881372,3.01918384 L6.34408472,3.39593799 Z" id="Fill-11" fill="#FFFFFF"></path>
                        <path d="M5.59931274,5.69237891 L5.29475464,5.46001685 L4.9920166,5.69237891 L5.10910767,5.31562476 L4.80394287,5.08568945 L5.18009033,5.08568945 L5.29475464,4.7089353 L5.41063232,5.08568945 L5.7861731,5.08568945 L5.48222168,5.31562476 L5.59931274,5.69237891 Z" id="Fill-13" fill="#FFFFFF"></path>
                        <path d="M7.08879602,5.69237891 L6.78423792,5.46001685 L6.48149988,5.69237891 L6.59859094,5.31562476 L6.29463953,5.08568945 L6.67078699,5.08568945 L6.78423792,4.7089353 L6.9001156,5.08568945 L7.27565637,5.08568945 L6.97170496,5.31562476 L7.08879602,5.69237891 Z" id="Fill-15" fill="#FFFFFF"></path>
                    </g>
                </g>
            </g>
        </g>
    </g>
</svg>