<?xml version="1.0" encoding="utf-8"?>
<!-- Generator: Adobe Illustrator 21.0.2, SVG Export Plug-In . SVG Version: 6.00 Build 0)  -->
<svg version="1.1" id="Layer_2" xmlns="http://www.w3.org/2000/svg" xmlns:xlink="http://www.w3.org/1999/xlink" x="0px" y="0px"
	 viewBox="0 0 84.5 84.5" style="enable-background:new 0 0 84.5 84.5;" xml:space="preserve">
<style type="text/css">
	.st0{fill:#72819B;}
	.st1{fill:#72819B;stroke:#72819B;stroke-width:2;stroke-miterlimit:10;}
</style>
<title>Back</title>
<path class="st0" d="M42.2,0.8c22.9,0,41.4,18.5,41.4,41.4S65.1,83.7,42.2,83.7S0.8,65.1,0.8,42.2c0,0,0,0,0,0
	C0.8,19.4,19.4,0.8,42.2,0.8 M42.2,0C18.9,0,0,18.9,0,42.2s18.9,42.2,42.2,42.2s42.2-18.9,42.2-42.2l0,0C84.5,18.9,65.6,0,42.2,0
	L42.2,0z"/>
<g id="Layer_3">
	<path class="st1" d="M30,25c-0.1,0-0.2,0.1-0.3,0.1l-8.2,8.3c-0.2,0.2-0.2,0.5,0,0.7l8.2,8.2c0.2,0.2,0.5,0.2,0.7,0
		c0.2-0.2,0.2-0.5,0-0.7L23,34.1h28.1c6.7,0,12.1,5.4,12.1,12.1s-5.4,12.1-12.1,12.1c0,0,0,0,0,0H35.9c-0.3,0-0.5,0.2-0.5,0.5
		c0,0.3,0.2,0.5,0.5,0.5h15.3c7.2,0,13-5.8,13-13s-5.8-13-13-13H23l7.4-7.4c0.2-0.2,0.1-0.5-0.1-0.7C30.3,25,30.1,24.9,30,25
		C30,25,30,25,30,25z"/>
</g>
</svg>
