<?xml version="1.0" encoding="utf-8"?>
<!-- Generator: Adobe Illustrator 21.0.2, SVG Export Plug-In . SVG Version: 6.00 Build 0)  -->
<svg version="1.1" id="Layer_2" xmlns="http://www.w3.org/2000/svg" xmlns:xlink="http://www.w3.org/1999/xlink" x="0px" y="0px"
	 viewBox="0 0 84.5 84.5" style="enable-background:new 0 0 84.5 84.5;" xml:space="preserve">
<style type="text/css">
	.st0{fill:#72819B;}
</style>
<title>Next</title>
<path class="st0" d="M42.2,0.8c22.9,0,41.4,18.5,41.4,41.4S65.1,83.7,42.2,83.7S0.8,65.1,0.8,42.2c0,0,0,0,0,0
	C0.8,19.4,19.4,0.8,42.2,0.8 M42.2,0C18.9,0,0,18.9,0,42.2s18.9,42.2,42.2,42.2s42.2-18.9,42.2-42.2l0,0C84.5,18.9,65.6,0,42.2,0
	L42.2,0z"/>
<path class="st0" d="M32.5,24c0.6-0.7,1.7-0.7,2.4,0c0,0,0,0,0,0L52,41c0.7,0.6,0.7,1.7,0,2.4c0,0,0,0,0,0L34.9,60.5
	c-0.6,0.7-1.7,0.7-2.4,0c0,0,0,0,0,0c-0.7-0.6-0.7-1.7,0-2.4c0,0,0,0,0,0l15.9-15.9L32.5,26.4C31.8,25.7,31.8,24.7,32.5,24
	C32.5,24,32.5,24,32.5,24z"/>
</svg>
