<?xml version="1.0" encoding="UTF-8" standalone="no"?>
<svg width="22px" height="14px" viewBox="0 0 22 14" version="1.1" xmlns="http://www.w3.org/2000/svg" xmlns:xlink="http://www.w3.org/1999/xlink" xmlns:sketch="http://www.bohemiancoding.com/sketch/ns">
    <!-- Generator: Sketch 3.5.2 (25235) - http://www.bohemiancoding.com/sketch -->
    <title>Icon Flag / Malaysia</title>
    <desc>Created with Sketch.</desc>
    <defs></defs>
    <g id="Lithan---Header-NEW-(Mobile)" stroke="none" stroke-width="1" fill="none" fill-rule="evenodd" sketch:type="MSPage">
        <g id="Mobile-Portrait---Countries" sketch:type="MSArtboardGroup" transform="translate(-123.000000, -214.000000)">
            <g id="Countries-Sub-Menu" sketch:type="MSLayerGroup" transform="translate(123.000000, 82.000000)">
                <g id="Malaysia" transform="translate(0.000000, 124.000000)" sketch:type="MSShapeGroup">
                    <g id="Icon-Flag-/-Malaysia" transform="translate(0.000000, 8.000000)">
                        <path d="M0,14 L22,14 L22,0 L0,0 L0,14 Z" id="Fill-15" fill="#494949"></path>
                        <path d="M1,1.86413481 L21.0554199,1.86413481 L21.0554199,1.0078125 L1,1.0078125 L1,1.86413481 Z" id="Fill-1" fill="#D80031"></path>
                        <path d="M1,2.72106965 L21.0554199,2.72106965 L21.0554199,1.86413481 L1,1.86413481 L1,2.72106965 Z" id="Fill-2" fill="#FFFFFF"></path>
                        <path d="M1,3.57739195 L21.0554199,3.57739195 L21.0554199,2.72045711 L1,2.72045711 L1,3.57739195 Z" id="Fill-3" fill="#D80031"></path>
                        <path d="M1,4.4343268 L21.0554199,4.4343268 L21.0554199,3.57739195 L1,3.57739195 L1,4.4343268 Z" id="Fill-4" fill="#FFFFFF"></path>
                        <path d="M1,5.2906491 L21.0554199,5.2906491 L21.0554199,4.43371426 L1,4.43371426 L1,5.2906491 Z" id="Fill-5" fill="#D80031"></path>
                        <path d="M1,6.14697141 L21.0554199,6.14697141 L21.0554199,5.2906491 L1,5.2906491 L1,6.14697141 Z" id="Fill-6" fill="#FFFFFF"></path>
                        <path d="M1,7.00390625 L21.0554199,7.00390625 L21.0554199,6.14697141 L1,6.14697141 L1,7.00390625 Z" id="Fill-7" fill="#D80031"></path>
                        <path d="M1,7.86022856 L21.0554199,7.86022856 L21.0554199,7.00329372 L1,7.00329372 L1,7.86022856 Z" id="Fill-8" fill="#FFFFFF"></path>
                        <path d="M1,8.7171634 L21.0554199,8.7171634 L21.0554199,7.86022856 L1,7.86022856 L1,8.7171634 Z" id="Fill-9" fill="#D80031"></path>
                        <path d="M1,9.5734857 L21.0554199,9.5734857 L21.0554199,8.71655086 L1,8.71655086 L1,9.5734857 Z" id="Fill-10" fill="#FFFFFF"></path>
                        <path d="M1,10.4304205 L21.0554199,10.4304205 L21.0554199,9.5734857 L1,9.5734857 L1,10.4304205 Z" id="Fill-11" fill="#D80031"></path>
                        <path d="M1,11.2867429 L21.0554199,11.2867429 L21.0554199,10.4304205 L1,10.4304205 L1,11.2867429 Z" id="Fill-12" fill="#FFFFFF"></path>
                        <path d="M1,12.1430652 L21.0554199,12.1430652 L21.0554199,11.2861303 L1,11.2861303 L1,12.1430652 Z" id="Fill-13" fill="#D80031"></path>
                        <path d="M1,13 L21.0554199,13 L21.0554199,12.1430652 L1,12.1430652 L1,13 Z" id="Fill-14" fill="#FFFFFF"></path>
                        <path d="M1,7.86022856 L12,7.86022856 L12,1.0078125 L1,1.0078125 L1,7.86022856 Z" id="Fill-15" fill="#2530A9"></path>
                        <path d="M3.86347059,4.56957945 C3.86347059,3.32797336 4.88011765,2.3203552 6.13085294,2.3203552 C6.56567647,2.3203552 6.97085294,2.44224943 7.31735294,2.65296107 C6.85782353,2.2462386 6.25314706,2 5.59164706,2 C4.16117647,2 3,3.15095108 3,4.56957945 C3,5.99065796 4.16117647,7.13915891 5.59164706,7.13915891 C6.25314706,7.13915891 6.85782353,6.89047017 7.31735294,6.48619784 C6.97085294,6.69690948 6.56567647,6.81880371 6.13085294,6.81880371 C4.88011765,6.81880371 3.86347059,5.81118555 3.86347059,4.56957945" id="Fill-16" fill="#F6D028"></path>
                        <path d="M8.96902941,5.1414183 L10.2098824,4.66547951 L8.88379412,4.77083533 L9.79358824,3.80609453 L8.64414706,4.47130628 L9.04067647,3.21316178 L8.29641176,4.30653468 L8.10555882,3 L7.96720588,3.93533917 L7.92767647,4.20607913 L7.91285294,4.30653468 L7.16797059,3.21316178 L7.56697059,4.47130628 L6.41691176,3.80609453 L7.32670588,4.77083533 L6,4.66547951 L7.24208824,5.1414183 L6,5.61735709 L7.32670588,5.51200127 L6.41691176,6.47919221 L7.56697059,5.81153032 L7.16797059,7.06967483 L7.91285294,5.97630192 L7.92767647,6.07920761 L7.96720588,6.34749743 L8.10555882,7.28528674 L8.29641176,5.97630192 L9.04067647,7.06967483 L8.64414706,5.81153032 L9.79358824,6.47919221 L8.88379412,5.51200127 L10.2098824,5.61735709 L8.96902941,5.1414183 Z" id="Fill-18" fill="#F6D028"></path>
                    </g>
                </g>
            </g>
        </g>
    </g>
</svg>