<svg xmlns="http://www.w3.org/2000/svg" width="19" height="19" viewBox="0 0 19 19">
  <g fill="none" fill-rule="evenodd" transform="translate(1 1)">
    <path stroke="#002F76" d="M3.6640625,0 C2.75,0 2,1.0859375 2,2 L12.9972399,2 C14.1033337,2 15,2.89354265 15,4.00276013 L15,15 C15.9140625,15 17,14.25 17,13.3359375 L17,2.99284468 C17,1.33994221 15.6478893,0 14.0071553,0 L3.6640625,0 Z"/>
    <path stroke="#002F76" d="M13.3359375,2 L1.6640625,2 C0.75,2 0,2.75 0,3.6640625 L0,15.3359375 C0,16.25 0.75,17 1.6640625,17 L13.3359375,17 C14.25,17 15,16.25 15,15.3359375 L15,3.6640625 C15,2.75 14.25,2 13.3359375,2 L13.3359375,2 Z"/>
    <path stroke="#002F76" stroke-linecap="square" d="M6.5,5.5 L12.5,5.5"/>
    <circle cx="3.5" cy="6.5" r="1.5" fill="#002F76"/>
    <path stroke="#002F76" stroke-linecap="square" d="M6.5 7.5L12.5 7.5M2.5 9.5L12.5 9.5M2.5 11.5L12.5 11.5M2.5 13.5L12.5 13.5"/>
  </g>
</svg>
