<svg xmlns="http://www.w3.org/2000/svg" width="16" height="15"><rect id="backgroundrect" width="100%" height="100%" x="0" y="0" fill="none" stroke="none"/>
  
<g class="currentLayer" style=""><title>Layer 1</title><path fill="#536270" d="M16,7 L8.74343873,0.489266315 C8.37721588,0.119349825 7.78165931,0.119349825 7.41721424,0.489266315 L0,7 C0,8 1,8 1,8 L2,8 L2,13 C2,13.3880036 2.28533211,14.0659696 3,14.0659696 L7,14.0659696 L7,9 L9,9 L9,14.0659696 L13,14.0659696 C13.5457787,14.0659696 14,13.3880036 14,13 L14,8 L15,8 C16,8 16,7 16,7 Z" id="svg_1" class="" fill-opacity="1"/></g></svg>