<?xml version="1.0" encoding="UTF-8" standalone="no"?>
<svg width="22px" height="14px" viewBox="0 0 22 14" version="1.1" xmlns="http://www.w3.org/2000/svg" xmlns:xlink="http://www.w3.org/1999/xlink">
    <!-- Generator: Sketch 3.8.3 (29802) - http://www.bohemiancoding.com/sketch -->
    <title>Page 1</title>
    <desc>Created with Sketch.</desc>
    <defs></defs>
    <g id="Lithan---Header-NEW-(Mobile)" stroke="none" stroke-width="1" fill="none" fill-rule="evenodd">
        <g id="Mobile-Portrait---Countries" transform="translate(-89.000000, -130.000000)">
            <g id="Countries-Sub-Menu" transform="translate(89.000000, 82.000000)">
                <g id="Malaysia" transform="translate(0.000000, 48.000000)">
                    <g id="Page-1">
                        <polygon id="Fill-1" fill="#494949" points="0 14 22 14 22 0 0 0"></polygon>
                        <polygon id="Fill-2" fill="#CD1627" points="1 13.022 21.033 13.022 21.033 1.001 1 1.001"></polygon>
                        <polygon id="Fill-3" fill="#FFD900" points="3.8866 5.752 5.1676 6.728 4.6876 5.199 5.9396 4.223 4.3676 4.223 3.8866 2.723 3.4056 4.223 1.8336 4.223 3.0856 5.199 2.6056 6.728"></polygon>
                        <polygon id="Fill-4" fill="#FFD900" points="9.129 6.6794 9.551 7.0004 9.392 6.4974 9.805 6.1764 9.287 6.1764 9.129 5.6834 8.971 6.1764 8.454 6.1764 8.866 6.4974 8.707 7.0004"></polygon>
                        <polygon id="Fill-5" fill="#FFD900" points="7.5111 8.1681 7.7851 8.6211 7.8231 8.0951 8.3241 7.9481 7.8431 7.7581 7.8771 7.2411 7.5491 7.6421 7.0671 7.4521 7.3331 7.9021 7.0011 8.3121"></polygon>
                        <polygon id="Fill-6" fill="#FFD900" points="9.2839 4.4113 9.8059 4.5013 9.4329 4.1283 9.6509 3.6533 9.1919 3.8923 8.8229 3.5273 8.9109 4.0383 8.4529 4.2773 8.9659 4.3713 9.0589 4.8903"></polygon>
                        <polygon id="Fill-7" fill="#FFD900" points="7.8535 2.8602 8.3725 2.7552 7.8905 2.5422 7.9215 2.0212 7.5805 2.4092 7.1045 2.2022 7.3715 2.6472 7.0295 3.0362 7.5425 2.9382 7.8165 3.3882"></polygon>
                    </g>
                </g>
            </g>
        </g>
    </g>
</svg>