<?xml version="1.0" encoding="UTF-8" standalone="no"?>
<svg width="22px" height="22px" viewBox="0 0 22 22" version="1.1" xmlns="http://www.w3.org/2000/svg" xmlns:xlink="http://www.w3.org/1999/xlink" xmlns:sketch="http://www.bohemiancoding.com/sketch/ns">
    <!-- Generator: sketchtool 3.5.2 (25235) - http://www.bohemiancoding.com/sketch -->
    <title>Icon / Globe</title>
    <desc>Created with sketchtool.</desc>
    <defs></defs>
    <g id="Lithan---Header-NEW-(Desktop)" stroke="none" stroke-width="1" fill="none" fill-rule="evenodd" sketch:type="MSPage">
        <g id="Desktop-Menu---Countries---Option-02" sketch:type="MSArtboardGroup" transform="translate(-1140.000000, -22.000000)" fill="#F5BF07">
            <g id="Nav-/-Desktop-03" sketch:type="MSLayerGroup">
                <path d="M1151,42.9 C1147.2325,42.9 1143.949,40.7836 1142.277,37.6783 C1142.5652,37.1294 1143.0998,35.915 1142.8501,34.8524 C1142.8677,34.7457 1143.0492,34.4883 1143.1581,34.3332 C1143.4562,33.9097 1143.8269,33.3839 1143.5519,32.8262 C1143.3594,32.4346 1142.8435,32.1706 1141.8293,31.9418 C1141.5939,31.889 1141.3651,31.8461 1141.1704,31.812 C1141.76,26.9115 1145.9422,23.1011 1150.9989,23.1011 C1152.7347,23.1011 1154.3671,23.551 1155.7861,24.3386 C1155.4352,24.1857 1155.1173,24.1615 1154.8621,24.1615 C1154.7224,24.1615 1154.5838,24.1692 1154.4496,24.178 C1154.3187,24.1857 1154.1834,24.1934 1154.0492,24.1934 C1153.7368,24.1934 1153.3474,24.156 1152.826,23.8777 C1152.0296,23.4542 1151.4334,23.2727 1150.8328,23.2727 C1150.0892,23.2727 1149.3346,23.5609 1148.3105,24.2363 C1147.425,24.8204 1146.7584,25.7136 1146.4328,26.7531 C1146.1149,27.7662 1146.149,28.8035 1146.5285,29.6725 C1146.9762,30.6977 1147.5669,31.1553 1148.4447,31.1553 C1148.6614,31.1553 1148.8726,31.13 1149.0959,31.1036 C1149.3214,31.0772 1149.5535,31.0497 1149.7944,31.0497 C1150.0925,31.0497 1150.3554,31.0915 1150.6205,31.1795 C1151.1034,31.3412 1151.4598,31.8824 1151.7106,32.8339 C1151.9614,33.7854 1152.056,34.9965 1152.1407,36.0635 C1152.2111,36.9545 1152.2771,37.7949 1152.4234,38.4296 C1152.5125,38.8146 1152.6269,39.1072 1152.7754,39.3239 C1152.9965,39.6473 1153.3133,39.8255 1153.6675,39.8255 C1154.6399,39.8255 1155.4165,39.512 1155.9764,38.8938 C1156.4417,38.3801 1156.6793,37.7454 1156.8707,37.235 C1156.9829,36.9347 1157.0995,36.6234 1157.2128,36.4958 C1158.4635,35.0911 1158.3348,33.9339 1158.2402,33.088 C1158.1709,32.4676 1158.1698,32.2476 1158.4206,32.0188 C1158.6538,31.8065 1158.8661,31.6162 1159.0531,31.449 C1159.4524,31.0926 1159.7406,30.8352 1159.943,30.6152 C1160.0816,30.4634 1160.4072,30.1081 1160.317,29.6637 C1160.3159,29.6593 1160.3148,29.656 1160.3148,29.6516 C1160.6921,30.6977 1160.8978,31.8252 1160.8978,33 C1160.8978,38.4593 1156.4571,42.9 1150.9978,42.9 L1151,42.9 Z M1141.1011,32.9153 C1141.2199,32.9362 1141.3475,32.9615 1141.4795,32.989 C1142.0977,33.121 1142.387,33.2398 1142.5135,33.3069 C1142.4552,33.4202 1142.3375,33.5874 1142.2594,33.6974 C1141.9877,34.0835 1141.6489,34.5642 1141.7776,35.0933 C1141.8645,35.4508 1141.7908,35.8886 1141.6643,36.2934 C1141.2991,35.2616 1141.1,34.1528 1141.1,32.9978 C1141.1,32.9692 1141.1011,32.9417 1141.1011,32.9131 L1141.1011,32.9153 Z M1157.1501,33.2101 C1157.2337,33.9548 1157.3195,34.7259 1156.3944,35.7643 C1156.1447,36.0448 1155.9984,36.4353 1155.8433,36.8489 C1155.4847,37.807 1155.1459,38.7123 1153.7027,38.7255 C1153.662,38.6771 1153.5476,38.4945 1153.4453,37.9192 C1153.3518,37.389 1153.2979,36.7026 1153.2396,35.9777 C1153.1516,34.8645 1153.0515,33.6017 1152.7765,32.5545 C1152.4245,31.2158 1151.8338,30.4249 1150.9714,30.1367 C1150.5952,30.0113 1150.2102,29.9497 1149.7966,29.9497 C1149.4908,29.9497 1149.2136,29.9827 1148.9694,30.0113 C1148.7791,30.0333 1148.5987,30.0553 1148.4469,30.0553 C1148.1895,30.0553 1147.898,30.0553 1147.5383,29.2325 C1147.0224,28.05 1147.403,26.1547 1148.9177,25.1548 C1149.7482,24.607 1150.3213,24.3727 1150.8339,24.3727 C1151.2431,24.3727 1151.6842,24.5146 1152.3101,24.849 C1153.0493,25.2428 1153.629,25.2934 1154.0514,25.2934 C1154.2186,25.2934 1154.3704,25.2846 1154.5167,25.2758 C1154.6399,25.2681 1154.7554,25.2615 1154.8632,25.2615 C1155.1052,25.2615 1155.301,25.2934 1155.5309,25.4496 C1155.9544,25.7389 1156.1744,26.378 1156.4065,27.0534 C1156.7585,28.0786 1157.1578,29.2402 1158.425,29.6714 C1158.5955,29.7297 1158.8881,29.8287 1159.096,29.9156 C1158.9167,30.1004 1158.6175,30.3677 1158.3238,30.6295 C1158.1346,30.7989 1157.9201,30.9903 1157.6825,31.207 C1156.9961,31.8329 1157.0775,32.5655 1157.1501,33.2112 L1157.1501,33.2101 Z M1160.2367,29.4371 C1160.0222,29.051 1159.4832,28.8673 1158.7792,28.6275 C1158.0235,28.3701 1157.7562,27.5935 1157.4471,26.6937 C1157.1787,25.9127 1156.9015,25.1064 1156.2426,24.6048 C1158.0455,25.7345 1159.459,27.4285 1160.2367,29.4371 L1160.2367,29.4371 Z M1158.7781,25.2219 C1156.7002,23.144 1153.9381,22 1151,22 C1148.0619,22 1145.2998,23.144 1143.2219,25.2219 C1141.144,27.2998 1140,30.0619 1140,33 C1140,35.9381 1141.144,38.7002 1143.2219,40.7781 C1145.2998,42.856 1148.0619,44 1151,44 C1153.9381,44 1156.7002,42.856 1158.7781,40.7781 C1160.856,38.7002 1162,35.9381 1162,33 C1162,30.0619 1160.856,27.2998 1158.7781,25.2219 L1158.7781,25.2219 Z" id="Icon-/-Globe" sketch:type="MSShapeGroup"></path>
            </g>
        </g>
    </g>
</svg>