<?xml version="1.0" encoding="UTF-8" standalone="no"?>
<svg width="13px" height="17px" viewBox="0 0 13 17" version="1.1" xmlns="http://www.w3.org/2000/svg" xmlns:xlink="http://www.w3.org/1999/xlink">
    <!-- Generator: sketchtool 3.6.1 (26313) - http://www.bohemiancoding.com/sketch -->
    <title>Icon / Profile</title>
    <desc>Created with sketchtool.</desc>
    <defs></defs>
    <g id="Lithan---Header-NEW-(Mobile)" stroke="none" stroke-width="1" fill="none" fill-rule="evenodd">
        <g id="Mobile-Portrait---Login-n-SignUp" transform="translate(-142.000000, -208.000000)" stroke="#961F63">
            <g id="Group" transform="translate(139.000000, 82.000000)">
                <g id="My-Profile" transform="translate(3.000000, 124.000000)">
                    <g id="Icon-/-Profile" transform="translate(0.000000, 2.000000)">
                        <path d="M11.1018625,0.4 L1.6978,0.4 C0.98155,0.4 0.4003,0.990195145 0.4003,1.7184198 L0.4003,15.0815802 C0.4003,15.8098049 0.98155,16.4 1.6978,16.4 L11.1018625,16.4 C11.81905,16.4 12.4003,15.8098049 12.4003,15.0815802 L12.4003,1.7184198 C12.4003,0.990195145 11.81905,0.4 11.1018625,0.4" id="Fill-4" stroke-width="0.8"></path>
                        <path d="M2.669,10.0586 L10.169,10.0586" id="Stroke-6" stroke-width="0.6"></path>
                        <path d="M2.669,12.1083 L10.169,12.1083" id="Stroke-8" stroke-width="0.6"></path>
                        <path d="M2.669,14.1581 L10.169,14.1581" id="Stroke-10" stroke-width="0.6"></path>
                        <path d="M4,5.6984494 L4,7.6034494 L9,7.6034494 L9,5.6984494" id="Stroke-1" stroke-width="0.6"></path>
                        <path d="M6.5,3 C5.67508611,3 5,3.67669173 5,4.50086755 C5,5.32504338 5.67508611,6 6.5,6 C7.32491389,6 8,5.32504338 8,4.50086755 C8,3.67669173 7.32491389,3 6.5,3 L6.5,3 Z" id="Stroke-2" stroke-width="0.6"></path>
                    </g>
                </g>
            </g>
        </g>
    </g>
</svg>