<?xml version="1.0" encoding="UTF-8" standalone="no"?>
<svg width="22px" height="22px" viewBox="0 0 22 22" version="1.1" xmlns="http://www.w3.org/2000/svg" xmlns:xlink="http://www.w3.org/1999/xlink" xmlns:sketch="http://www.bohemiancoding.com/sketch/ns">
    <!-- Generator: sketchtool 3.5.2 (25235) - http://www.bohemiancoding.com/sketch -->
    <title>Icon Selected / User 02</title>
    <desc>Created with sketchtool.</desc>
    <defs></defs>
    <g id="Lithan---Header-NEW-(Desktop)" stroke="none" stroke-width="1" fill="none" fill-rule="evenodd" sketch:type="MSPage">
        <g id="Desktop-Menu---SignIn-n-SignUp---Option-02" sketch:type="MSArtboardGroup" transform="translate(-1080.000000, -22.000000)" stroke-linecap="round" stroke="#F5BF07" stroke-linejoin="round">
            <g id="Nav-/-Desktop-03" sketch:type="MSLayerGroup">
                <path d="M1090.98023,42.522625 C1086.87977,42.522625 1083.22639,41.96575 1081.44512,41.0699375 C1081.41248,41.05275 1081.41461,40.6601875 1081.41461,40.566 C1081.41461,39.329875 1084.65513,37.1399883 1088.82373,36.4614258 C1089.50217,36.7708008 1090.16482,36.8928223 1090.98023,36.8928223 C1091.85597,36.8928223 1092.66641,36.6906973 1093.38104,36.3352598 C1097.80157,36.9175723 1100.54586,39.2673125 1100.54586,40.5419375 C1100.54586,40.6340625 1100.57354,41.040375 1100.51606,41.06925 C1098.73479,41.96575 1095.0807,42.522625 1090.98023,42.522625 Z M1087.09622,31.52325 L1087.09622,27.511 C1087.09622,25.1631875 1088.76962,23.392875 1090.9994,23.392875 C1093.22847,23.392875 1094.90258,25.1631875 1094.90258,27.511 L1094.90258,31.52325 C1094.90258,33.870375 1093.22847,35.6406875 1090.9994,35.6406875 C1088.76962,35.6406875 1087.09622,33.870375 1087.09622,31.52325" id="Icon-Selected-/-User-02" sketch:type="MSShapeGroup"></path>
            </g>
        </g>
    </g>
</svg>