<svg xmlns="http://www.w3.org/2000/svg" width="16" height="24" viewBox="0 0 16 24">
    <g fill="none" fill-rule="evenodd">
        <path fill="#95A5A6" fill-rule="nonzero" d="M6.644 3.408v-.306h-.833v.306a2.287 2.287 0 0 0-1.858 2.248 2.286 2.286 0 0 0 2.275 2.292 2.287 2.287 0 0 0 2.276-2.292c0-1.12-.803-2.05-1.86-2.248zM6.227 7.11a1.449 1.449 0 0 1-.416-2.836v2.05h.833v-2.05a1.45 1.45 0 0 1-.417 2.836z"/>
        <path d="M10.857 5.656c0-2.569-2.077-4.66-4.63-4.66s-4.63 2.09-4.63 4.66a4.663 4.663 0 0 0 3.148 4.412v-.322c0-.876.708-1.59 1.58-1.59.868 0 1.577.713 1.577 1.59v.25a4.663 4.663 0 0 0 2.955-4.34z"/>
        <path d="M7.068 10.236v-.49a.748.748 0 0 0-.744-.75.75.75 0 0 0-.746.75v.52c.213.03.428.051.648.051.289 0 .569-.03.842-.08zM13.297 14.484a.75.75 0 0 0-.746.75v2.052h-.834V13.987a.75.75 0 0 0-.745-.75.748.748 0 0 0-.745.75v3.3h-.833v-3.715a.75.75 0 0 0-.746-.75.75.75 0 0 0-.746.75v3.715h-.834V11.084a5.462 5.462 0 0 1-.841.073 5.5 5.5 0 0 1-.648-.042v11.782l-2.03-5.833a.748.748 0 0 0-.95-.46.756.756 0 0 0-.458.957l2.262 6.349c.312.9.42.9.777.9h8.103c.416 0 .755-.34.755-.758l.005-8.817a.748.748 0 0 0-.745-.751z"/>
        <path fill="#95A5A6" fill-rule="nonzero" d="M1.598 5.656c0-2.569 2.077-4.66 4.63-4.66s4.63 2.09 4.63 4.66a4.665 4.665 0 0 1-2.956 4.34v.893a5.504 5.504 0 0 0 3.79-5.233c0-3.032-2.451-5.498-5.465-5.498C3.216.158.766 2.624.766 5.656a5.5 5.5 0 0 0 3.98 5.288v-.876a4.663 4.663 0 0 1-3.147-4.412z"/>
        <path stroke="#95A5A6" d="M12.22 14.608a1.247 1.247 0 0 0-.168.625V17.284l.084-.083.083-.084.334-.333H11.719l.334.333.083.084.083.083V13.985a1.243 1.243 0 1 0-2.49 0v3.3l.084-.083.083-.084.333-.333h-.833l.333.333.084.084.083.083V13.57a1.249 1.249 0 0 0-1.247-1.25 1.245 1.245 0 0 0-1.246 1.25v3.715l.084-.083.083-.084.333-.333H7.07l.333.333.084.084.083.083V9.746c0-.69-.557-1.25-1.244-1.25a1.25 1.25 0 0 0-1.246 1.25V18.34l-1.088-1.517a1.246 1.246 0 0 0-1.557-.693c-.65.23-.992.943-.766 1.593l2.292 4.416c.227.417.5.715.819.909.405.246.755.293 1.266.266a2.62 2.62 0 0 1 .135-.006h7.102c.693 0 1.255-.564 1.255-1.258l.007-6.817a1.246 1.246 0 1 0-2.326-.625z"/>
    </g>
</svg>
