<?xml version="1.0" encoding="utf-8"?>
<!-- Generator: Adobe Illustrator 21.1.0, SVG Export Plug-In . SVG Version: 6.00 Build 0)  -->
<svg version="1.1" id="Layer_1" xmlns="http://www.w3.org/2000/svg" xmlns:xlink="http://www.w3.org/1999/xlink" x="0px" y="0px"
	 viewBox="0 0 163 36" style="enable-background:new 0 0 163 36;" xml:space="preserve">
<style type="text/css">
	.st0{fill:#C0D0D8;}
</style>
<title>Group 23</title>
<desc>Created with Sketch.</desc>
<g>
	<g transform="translate(-5442.000000, -2365.000000)">
		<g transform="translate(5442.000000, 2365.000000)">
			<path class="st0" d="M17.7,0C8.1,0,0.3,7.8,0.3,17.4c0,9.6,7.8,17.4,17.4,17.4S35.1,27,35.1,17.4C35.1,7.8,27.3,0,17.7,0"/>
			<path class="st0" d="M81.5,0c-9.6,0-17.4,7.8-17.4,17.4c0,9.6,7.8,17.4,17.4,17.4S98.9,27,98.9,17.4C98.9,7.8,91.1,0,81.5,0"/>
			<path class="st0" d="M145.3,0C135.7,0,128,7.8,128,17.4c0,9.6,7.8,17.4,17.4,17.4s17.4-7.8,17.4-17.4C162.7,7.8,154.9,0,145.3,0"
				/>
		</g>
	</g>
</g>
</svg>
