<svg xmlns="http://www.w3.org/2000/svg" width="14" height="14" viewBox="0 0 14 14">
    <g fill="none" fill-rule="evenodd">
        <path fill="#95A5A6" fill-rule="nonzero" d="M10.482 3.152H3.065c-.16 0-.291.183-.291.41 0 .226.13.41.291.41h7.418c.16 0 .291-.184.291-.41 0-.227-.13-.41-.292-.41z"/>
        <rect width="13" height="13" x=".5" y=".5" stroke="#95A5A6" rx="3"/>
        <path fill="#95A5A6" fill-rule="nonzero" d="M10.482 5.179H3.065c-.16 0-.291.184-.291.41 0 .226.13.41.291.41h7.418c.16 0 .291-.184.291-.41 0-.226-.13-.41-.292-.41zM10.482 7.206H3.065c-.16 0-.291.184-.291.41 0 .227.13.41.291.41h7.418c.16 0 .291-.183.291-.41 0-.226-.13-.41-.292-.41zM10.236 9.26H6.83c-.164 0-.297.185-.297.41 0 .227.133.411.297.411h3.406c.164 0 .297-.184.297-.41 0-.226-.133-.41-.297-.41z"/>
    </g>
</svg>
