<svg xmlns="http://www.w3.org/2000/svg" width="14" height="14" viewBox="0 0 14 14">
    <g fill="none" fill-rule="evenodd" transform="translate(1 1)">
        <circle cx="6" cy="6" r="6" stroke="#95A5A6"/>
        <path fill="#95A5A6" d="M7.435 7.229a1.555 1.555 0 0 0-.455-.679 18.29 18.29 0 0 1-.392-.378l-.868-.833c-.217-.21-.224-.371-.196-.469.042-.147.196-.266.378-.301.147-.028.42-.028.686.294l.637-.511a1.75 1.75 0 0 0-.707-.525 1.382 1.382 0 0 0-.77-.056 1.353 1.353 0 0 0-.623.294 1.184 1.184 0 0 0-.385.581c-.063.21-.056.441.014.658.07.224.203.434.399.623l.637.602c.028.028.406.399.637.616.147.14.308.35.238.588-.063.21-.28.385-.546.434a.798.798 0 0 1-.476-.042 1.158 1.158 0 0 1-.511-.406l-.644.504c.245.315.532.532.861.665.196.077.406.112.616.112.105 0 .21-.007.315-.028.567-.112 1.022-.511 1.169-1.015a1.23 1.23 0 0 0-.014-.728z"/>
    </g>
</svg>
