<svg xmlns="http://www.w3.org/2000/svg" width="14" height="14" viewBox="0 0 14 14">
    <g fill="none" fill-rule="evenodd" transform="translate(1 1)">
        <circle cx="6" cy="6" r="6" stroke="#95A5A6"/>
        <path fill="#95A5A6" d="M7.868 5.92H5.82v.84h1.12v1.096h-.008a1.64 1.64 0 0 1-.328.128s-.008.008-.016.008-.024 0-.032.008c-.008 0-.016 0-.024.008h-.024c-.008.008-.024.008-.032.008-.008.008-.008.008-.016.008-.056.008-.12.024-.176.032h-.048c-.008 0-.016 0-.016.008H6.1c-.008.008-.016.008-.024.008H6.02a2.043 2.043 0 0 1-2.032-1.936c-.008-.04-.008-.072-.008-.104 0-.04 0-.072.008-.112v-.088c.008-.08.024-.16.04-.24 0-.008 0-.008.008-.016.048-.216.128-.416.248-.608a.06.06 0 0 1 .016-.032l.048-.072.016-.016c.032-.048.064-.096.104-.144.008 0 .008-.008.008-.008.032-.04.072-.072.104-.104.104-.112.224-.208.352-.288.016-.008.032-.016.04-.024a1.986 1.986 0 0 1 1.048-.288h.128c.008 0 .016.008.024.008h.072c.008.008.024.008.032.008h.016c.008 0 .024.008.032.008h.016c.032.008.072.008.104.016a.025.025 0 0 0 .016.008c.016 0 .024 0 .032.008h.024c.008.008.016.008.024.008.12.032.248.08.368.136.144.072.28.152.4.256V3.352H7.3l-.048-.024c-.008 0-.008-.008-.008-.008a2.917 2.917 0 0 0-1-.248c-.024-.008-.048-.008-.072-.008H6.02c-.4 0-.792.072-1.152.232-.36.144-.672.36-.944.632a3.033 3.033 0 0 0-.64.944c-.136.32-.208.664-.232 1.008v.152c0 .096.008.2.016.296.024.296.104.584.216.856.152.36.368.672.64.944.192.2.416.368.656.496.088.056.184.104.288.144l.12.048c.032.008.056.024.088.032h.008C5.38 8.952 5.7 9 6.02 9h.152a3.008 3.008 0 0 0 1.064-.256l.008-.008c.016-.008.04-.016.056-.024a.175.175 0 0 0 .04-.024h.016l.016-.016a.061.061 0 0 0 .04-.016c.008-.008.016-.008.024-.016.016-.008.024-.008.04-.016.008-.008.016-.008.024-.016s.016-.008.024-.016a.11.11 0 0 0 .032-.024c.016 0 .024-.008.032-.016.008 0 .016-.008.024-.016a.06.06 0 0 0 .032-.016c.008-.008.008-.008.016-.008l.208-.144V5.92z"/>
    </g>
</svg>
