<svg xmlns="http://www.w3.org/2000/svg" width="14" height="20" viewBox="0 0 14 20">
  <g fill="none" fill-rule="evenodd" transform="translate(0 1)">
    <path fill="#95A5A6" fill-rule="nonzero" d="M0.35,2.12566122 C0.156708343,2.12568038 1.93262669e-05,2.28099894 -8.8817842e-16,2.4726 L-8.8817842e-16,18.4317837 C1.93262669e-05,18.6233847 0.156708343,18.7787033 0.35,18.7787224 L13.65,18.7787224 C13.8432917,18.7787033 13.9999807,18.6233847 14,18.4317837 L14,2.4726 C13.9999807,2.28099894 13.8432917,2.12568038 13.65,2.12566122 L0.35,2.12566122 Z M0.7,2.81953878 L13.3,2.81953878 L13.3,18.0848449 L0.7,18.0848449 L0.7,2.81953878 Z"/>
    <path stroke="#95A5A6" d="M7,3 C8.65685425,3 9,3 10,3 C10,1.34314575 8.65685425,0 7,0 C5.34314575,0 4,1.34314575 4,3 C5,3 5.34314575,3 7,3 Z"/>
    <path fill="#95A5A6" d="M2.45496825 11.1463469C2.32875134 11.1445783 2.21135109 11.210315 2.14772199 11.3183852 2.08409288 11.4264554 2.08409288 11.560116 2.14772199 11.6681862 2.21135109 11.7762565 2.32875134 11.8419931 2.45496825 11.8402245L11.5450321 11.8402245C11.671249 11.8419931 11.7886493 11.7762565 11.8522784 11.6681862 11.9159075 11.560116 11.9159075 11.4264554 11.8522784 11.3183852 11.7886493 11.210315 11.671249 11.1445783 11.5450321 11.1463469L2.45496825 11.1463469 2.45496825 11.1463469zM2.45496825 13.2279796C2.32875134 13.226211 2.21135109 13.2919476 2.14772199 13.4000178 2.08409288 13.508088 2.08409288 13.6417487 2.14772199 13.7498189 2.21135109 13.8578891 2.32875134 13.9236257 2.45496825 13.9218571L11.5450321 13.9218571C11.671249 13.9236257 11.7886493 13.8578891 11.8522784 13.7498189 11.9159075 13.6417487 11.9159075 13.508088 11.8522784 13.4000178 11.7886493 13.2919476 11.671249 13.226211 11.5450321 13.2279796L2.45496825 13.2279796 2.45496825 13.2279796zM2.45496825 15.3096122C2.32875134 15.3078436 2.21135109 15.3735803 2.14772199 15.4816505 2.08409288 15.5897207 2.08409288 15.7233813 2.14772199 15.8314516 2.21135109 15.9395218 2.32875134 16.0052584 2.45496825 16.0034898L11.5450321 16.0034898C11.671249 16.0052584 11.7886493 15.9395218 11.8522784 15.8314516 11.9159075 15.7233813 11.9159075 15.5897207 11.8522784 15.4816505 11.7886493 15.3735803 11.671249 15.3078436 11.5450321 15.3096122L2.45496825 15.3096122 2.45496825 15.3096122z"/>
    <polyline stroke="#95A5A6" points="4 7 6 9 10 5"/>
  </g>
</svg>
