<svg xmlns="http://www.w3.org/2000/svg" width="15" height="14" viewBox="0 0 15 14">
    <g fill="none" fill-rule="evenodd">
        <path stroke="#95A5A6" d="M10.1.202l-1.86 3.34 2.219 2.218 3.34-1.86z"/>
        <path stroke="#95A5A6" d="M3.802 5.38L8.24 3.54l2.219 2.22-1.838 4.437-7.42 2.6zM1.202 12.798L6.2 7.8"/>
        <path fill="#95A5A6" fill-rule="nonzero" d="M6.02 7.842c.043 0 .085 0 .085.043.043.042.043.127 0 .211-.042.043-.084.043-.084.043-.043 0-.085 0-.085-.043-.042-.042-.042-.084-.042-.084 0-.043 0-.085.042-.085 0-.085.042-.085.085-.085zm0-.847a.997.997 0 1 0 0 1.99.997.997 0 1 0 0-1.99z"/>
    </g>
</svg>
