<svg xmlns="http://www.w3.org/2000/svg" width="14" height="14" viewBox="0 0 14 14">
  <g fill="none" fill-rule="evenodd" transform="translate(1 1)">
    <path fill="#95A5A6" fill-rule="nonzero" d="M6.0168836 4.35686451C5.01005134 4.35686451 4.19091393 3.53212616 4.19091393 2.51840958 4.19091393 1.50488742 5.01005134.679954647 6.0168836.679954647 7.02371586.679954647 7.84285327 1.504693 7.84285327 2.51840958 7.84285327 3.53193174 7.02371586 4.35686451 6.0168836 4.35686451zM6.0168836 1.19167349C5.29043501 1.19167349 4.69935071 1.78679939 4.69935071 2.51821516 4.69935071 3.24982534 5.29043501 3.84475683 6.0168836 3.84475683 6.7435253 3.84475683 7.3346096 3.24963092 7.3346096 2.51821516 7.3344165 1.78679939 6.7433322 1.19167349 6.0168836 1.19167349zM7.58853834 10.9468L4.44503577 10.9468C4.30465083 10.9468 4.19091393 10.8322854 4.19091393 10.691135L4.19091393 5.90640828C4.19091393 5.76506344 4.30465083 5.65054885 4.44503577 5.65054885 4.5854207 5.65054885 4.69915761 5.76525787 4.69915761 5.90640828L4.69915761 10.4352756 7.3344165 10.4352756 7.3344165 5.87432864C7.3344165 5.7329838 7.4481534 5.61846922 7.58853834 5.61846922 7.72892327 5.61846922 7.84266017 5.73317823 7.84266017 5.87432864L7.84266017 10.6909406C7.84285327 10.8322854 7.72892327 10.9468 7.58853834 10.9468z"/>
    <path fill="#95A5A6" fill-rule="nonzero" d="M6.0168836,5.22379245 C5.27093174,5.22379245 4.38111911,4.83689256 4.34346428,4.82036669 C4.21485854,4.76398429 4.15615563,4.6133072 4.21215512,4.48382211 C4.26834771,4.35433703 4.41780843,4.29464946 4.54660726,4.3514207 C4.55471753,4.35492029 5.37791008,4.7120736 6.0168836,4.7120736 C6.65817435,4.7120736 7.47885657,4.35492029 7.48715994,4.3514207 C7.61615188,4.2950383 7.76561259,4.3541426 7.82161209,4.48362769 C7.87761158,4.61311278 7.81890866,4.76398429 7.69030293,4.82036669 C7.6526481,4.83689256 6.76283547,5.22379245 6.0168836,5.22379245 Z"/>
    <path fill="#95A5A6" fill-rule="nonzero" d="M3.35497668 10.9468C3.21459174 10.9468 3.10085484 10.8322854 3.10085484 10.691135L3.10085484 5.18140844C3.10085484 4.77001138 3.277736 4.55284194 3.4260381 4.44279906 3.83657231 4.13911181 4.45218053 4.32011875 4.52092474 4.34169959 4.65493732 4.38388918 4.72966767 4.52717823 4.68776461 4.66210714 4.64605464 4.7966472 4.50354558 4.87188853 4.37011231 4.83008779 4.25811332 4.79567509 3.89952347 4.72626641 3.72650435 4.85536266 3.69753909 4.87694351 3.60929161 4.94265816 3.60929161 5.18121402L3.60929161 10.6909406C3.60909851 10.8322854 3.49536161 10.9468 3.35497668 10.9468zM8.67879053 10.9468C8.53840559 10.9468 8.42466869 10.8322854 8.42466869 10.691135L8.42466869 5.18140844C8.42466869 4.94285258 8.33622812 4.87733235 8.30745596 4.85555708 8.13443684 4.72646084 7.77584698 4.79606393 7.663848 4.83028221 7.52983542 4.87169411 7.38771257 4.79586951 7.3463888 4.66132945 7.30506504 4.52678939 7.37921609 4.38369476 7.51303557 4.34169959 7.58197288 4.32031317 8.19738799 4.13891739 8.60792221 4.44279906 8.75622431 4.55264752 8.93310547 4.77001138 8.93310547 5.18140844L8.93310547 10.691135C8.93291237 10.8322854 8.81898236 10.9468 8.67879053 10.9468z"/>
    <circle cx="6" cy="6" r="6" stroke="#95A5A6"/>
    <path stroke="#95A5A6" d="M10,2 L2,10"/>
  </g>
</svg>
