<svg xmlns="http://www.w3.org/2000/svg" width="17" height="17" viewBox="0 0 17 17">
    <path fill="#95A5A6" fill-rule="nonzero" stroke="#95A5A6" stroke-width=".2" d="M14.5 6.098h-3.6v-2.7c0-2.683-3.9-3.3-3.9-.9v1.8c0 .99-.81 1.8-1.8 1.8H1.3c-.18 0-.3.12-.3.3v9.3c0 .18.12.3.3.3h13.2c.84 0 1.5-.66 1.5-1.5v-6.9c0-.84-.66-1.5-1.5-1.5zm-12.9.6h3.3v8.7H1.6v-8.7zm13.8 7.8c0 .51-.39.9-.9.9h-9v-8.73c1.17-.15 2.1-1.17 2.1-2.37v-1.8c0-1.54 2.7-1.006 2.7.9v3c0 .18.12.3.3.3h3.9c.51 0 .9.39.9.9v6.9z"/>
</svg>
