<svg xmlns="http://www.w3.org/2000/svg" width="12" height="16" viewBox="0 0 12 16">
    <g fill="#95A5A6" fill-rule="evenodd">
        <path d="M6 11.612c-.388 0-.706-.247-.706-.565a.43.43 0 0 0-.423-.423.455.455 0 0 0-.424.423c0 .67.494 1.2 1.165 1.377v.67a.43.43 0 0 0 .423.424.455.455 0 0 0 .424-.424v-.67c.67-.177 1.165-.706 1.165-1.377 0-.988-.777-1.412-1.377-1.73-.6-.317-.882-.493-.882-.846 0-.142.106-.283.176-.318A.671.671 0 0 1 6 7.976c.353 0 .635.212.635.495a.43.43 0 0 0 .424.423.455.455 0 0 0 .423-.423c0-.6-.458-1.13-1.058-1.306v-.67A.43.43 0 0 0 6 6.07a.455.455 0 0 0-.424.423v.67c-.211.071-.423.177-.6.318-.317.247-.458.6-.458.989 0 .917.74 1.305 1.306 1.623.6.318.917.53.917.953-.035.318-.353.565-.741.565z"/>
        <path d="M.141 11.365c0 3.211 2.33 3.882 5.859 3.882 3.53 0 5.859-.67 5.859-3.882 0-2.824-1.553-5.506-4.235-7.483l1.87-1.906c.035-.035.07-.105.106-.14a.318.318 0 0 0 .035-.177v-.035c0-.036 0-.071-.035-.106-.035-.07-.07-.106-.07-.142l-.036-.035C9.46 1.306 8.364.282 6 .282c-2.365 0-3.424.989-3.494 1.06a.447.447 0 0 0-.141.317c0 .106.035.247.14.317l1.871 1.906C1.66 5.86.141 8.542.141 11.365zm5.153-7.06a.37.37 0 0 0 .177-.317.596.596 0 0 0-.106-.353L3.495 1.73c.423-.247 1.234-.564 2.505-.564 1.235 0 2.047.317 2.506.564l-.953.989-1.87 1.906a.447.447 0 0 0 0 .635c.07.07.211.141.317.141.106 0 .247-.035.318-.141l.706-.706c2.54 1.8 3.988 4.27 3.988 6.847 0 1.941-.812 3-4.977 3-4.164 0-4.976-1.059-4.976-3-.035-2.718 1.517-5.259 4.235-7.094z"/>
    </g>
</svg>
