<svg xmlns="http://www.w3.org/2000/svg" width="16" height="16" viewBox="0 0 16 16">
    <path fill="#95A5A6" fill-rule="nonzero" stroke="#95A5A6" stroke-width=".4" d="M14.419 1H1.58A.581.581 0 0 0 1 1.581v9.274c0 .321.26.582.581.582h6.224v1.585h-.57c-.503 0-1.44 0-1.668.916l-.22.872a.194.194 0 0 0 .193.24h4.924a.194.194 0 0 0 .194-.24l-.22-.88c-.228-.916-1.162-.916-1.668-.916h-.577v-1.577h6.226c.32 0 .581-.26.581-.582V1.581A.581.581 0 0 0 14.419 1zM8.764 13.401c.721 0 1.163.103 1.293.622l.159.638H5.782l.16-.626c.129-.521.58-.622 1.292-.622h1.528l.002-.012zm5.848-2.546a.194.194 0 0 1-.193.194H1.58a.194.194 0 0 1-.193-.194V1.581c0-.107.086-.193.193-.193H14.42c.107 0 .193.086.193.193v9.274zm-3.43-1.436a.194.194 0 0 1-.193.194h-5.98a.194.194 0 1 1 0-.387h5.98c.107 0 .194.086.194.193zM8 8.082a2.606 2.606 0 1 0 0-5.212 2.606 2.606 0 0 0 0 5.212zm0-4.825a2.219 2.219 0 1 1 0 4.438 2.219 2.219 0 0 1 0-4.438zm-.874 2.425a.194.194 0 0 1 .273-.274l.308.308.892-.89a.194.194 0 0 1 .273.272l-1.027 1.03a.194.194 0 0 1-.273 0l-.446-.446z"/>
</svg>
