<svg xmlns="http://www.w3.org/2000/svg" width="14" height="19" viewBox="0 0 14 19">
  <g fill="none" fill-rule="evenodd">
    <path fill="#95A5A6" fill-rule="nonzero" d="M0.373161765,0.0772058824 C0.16095652,0.0972056074 -0.000919072478,0.275826951 7.31439208e-16,0.488970588 L7.31439208e-16,17.7830882 C2.27254183e-05,18.0104902 0.184362752,18.1948302 0.411764706,18.1948529 L13.5882353,18.1948529 C13.8156372,18.1948302 13.9999773,18.0104902 14,17.7830882 L14,4.60661765 C14.0008458,4.49551442 13.9567613,4.38878356 13.8777574,4.31066176 L9.76011029,0.193014706 C9.68251428,0.117953267 9.57854496,0.0763655367 9.47058824,0.0772058824 L0.411764706,0.0772058824 C0.398904134,0.0766024401 0.386022337,0.0766024401 0.373161765,0.0772058824 L0.373161765,0.0772058824 Z M0.823529412,0.900735294 L9.30330882,0.900735294 L13.1764706,4.77389706 L13.1764706,17.3713235 L0.823529412,17.3713235 L0.823529412,0.900735294 Z"/>
    <path fill="#95A5A6" fill-rule="nonzero" d="M9.42555147,0.276654412 C9.21341187,0.299966448 9.05423348,0.481485673 9.05882353,0.694852941 L9.05882353,4.60661765 C9.05884621,4.83401962 9.24318626,5.01835967 9.47058824,5.01838235 L13.3823529,5.01838235 C13.5308483,5.02047982 13.6689702,4.94245987 13.74383,4.81419727 C13.8186898,4.68593466 13.8186898,4.52730064 13.74383,4.39903803 C13.6689702,4.27077542 13.5308483,4.19275547 13.3823529,4.19485294 L9.88235294,4.19485294 L9.88235294,0.694852941 C9.88490748,0.57626627 9.83620427,0.462336943 9.7487162,0.382242234 C9.66122814,0.302147525 9.54345245,0.263666599 9.42555147,0.276654412 L9.42555147,0.276654412 Z"/>
    <polyline stroke="#95A5A6" points="8 14 9 15 12 12"/>
    <path stroke="#95A5A6" stroke-linecap="square" d="M3,13 L5.04950976,15.0495098"/>
    <path stroke="#95A5A6" stroke-linecap="square" d="M3,13 L5.04950976,15.0495098" transform="matrix(-1 0 0 1 8.05 0)"/>
    <path stroke="#95A5A6" stroke-linecap="square" d="M3.5 6.5L10.5 6.5M3.5 8.5L10.5 8.5M3.5 10.5L10.5 10.5"/>
  </g>
</svg>
