<svg xmlns="http://www.w3.org/2000/svg" width="14" height="14" viewBox="0 0 14 14">
    <g fill="none" fill-rule="evenodd" transform="translate(1 1)">
        <circle cx="6" cy="6" r="6" stroke="#95A5A6"/>
        <path fill="#95A5A6" d="M6.509 2.22v.785c.315.05.573.155.774.312.2.158.391.4.573.726l-.782.437c-.235-.428-.542-.642-.922-.642-.235 0-.43.07-.585.209a.67.67 0 0 0-.232.521c0 .19.062.347.188.473.123.123.371.268.746.437.323.147.59.285.801.415.211.13.37.254.477.374.302.326.453.72.453 1.183 0 .454-.136.855-.409 1.202-.27.345-.63.577-1.082.698v.83h-.701v-.806c-.524-.086-.924-.266-1.199-.542-.275-.275-.478-.7-.609-1.274l.882-.184c.12.406.267.696.44.87.182.165.424.248.726.248.294 0 .54-.095.738-.285a.96.96 0 0 0 .292-.725c0-.265-.081-.477-.244-.637a2.261 2.261 0 0 0-.367-.263 6.285 6.285 0 0 0-.62-.319c-.518-.232-.858-.446-1.021-.64a1.52 1.52 0 0 1-.39-1.047 1.468 1.468 0 0 1 .359-.988c.117-.135.26-.252.431-.35.171-.1.365-.177.582-.233v-.786h.701z"/>
    </g>
</svg>
