<svg xmlns="http://www.w3.org/2000/svg" width="13" height="17" viewBox="0 0 13 17">
    <g fill="#95A5A6" fill-rule="nonzero">
        <path d="M3.267 9.791a1.992 1.992 0 0 1-1.983-1.996c0-1.1.89-1.996 1.983-1.996s1.983.895 1.983 1.996c0 1.1-.89 1.996-1.983 1.996zm0-3.437c-.789 0-1.43.647-1.43 1.44 0 .795.641 1.441 1.43 1.441.79 0 1.431-.646 1.431-1.44 0-.794-.642-1.44-1.43-1.44zM6.5 6.918a1.992 1.992 0 0 1-1.983-1.996c0-1.1.89-1.996 1.983-1.996s1.983.895 1.983 1.996c0 1.1-.89 1.996-1.983 1.996zm0-3.437c-.789 0-1.43.647-1.43 1.441s.641 1.44 1.43 1.44c.789 0 1.43-.646 1.43-1.44 0-.794-.641-1.44-1.43-1.44zM9.733 4.046A1.992 1.992 0 0 1 7.75 2.049c0-1.1.89-1.996 1.983-1.996s1.983.896 1.983 1.996c0 1.101-.89 1.997-1.983 1.997zm0-3.437c-.79 0-1.43.646-1.43 1.44 0 .795.641 1.44 1.43 1.44.789 0 1.43-.645 1.43-1.44 0-.794-.641-1.44-1.43-1.44zM4.974 16.947H1.56a.277.277 0 0 1-.276-.278v-5.195c0-.154.124-.278.276-.278.153 0 .276.124.276.278v4.917h2.862V11.44c0-.154.123-.278.276-.278.152 0 .276.125.276.278v5.23a.277.277 0 0 1-.276.278z"/>
        <path d="M3.267 10.733c-.81 0-1.776-.42-1.817-.439a.278.278 0 0 1-.142-.365.275.275 0 0 1 .363-.144c.009.004.902.392 1.596.392.697 0 1.588-.388 1.597-.392a.275.275 0 0 1 .363.144.279.279 0 0 1-.143.365c-.04.018-1.007.439-1.817.439z"/>
        <path d="M.377 16.947a.277.277 0 0 1-.276-.278v-5.982c0-.447.192-.683.353-.803.446-.33 1.114-.133 1.189-.11a.278.278 0 0 1-.164.531c-.122-.037-.51-.113-.699.027-.031.024-.127.095-.127.354v5.983a.277.277 0 0 1-.276.278zM6.158 16.947a.277.277 0 0 1-.276-.278v-5.982c0-.26-.096-.33-.128-.354-.187-.14-.577-.065-.698-.028a.278.278 0 0 1-.164-.53c.075-.024.743-.22 1.189.11.16.119.353.355.353.802v5.982a.277.277 0 0 1-.276.278zM11.44 11.198h-1.186a.277.277 0 0 1-.276-.277c0-.153.123-.278.276-.278h.91V5.69c0-.153.123-.277.276-.277.152 0 .276.124.276.277v5.23a.277.277 0 0 1-.276.278zM9.733 4.984c-.81 0-1.43-.388-1.47-.406a.278.278 0 0 1-.144-.365.275.275 0 0 1 .364-.144c.008.004.556.36 1.25.36.696 0 1.587-.388 1.596-.392a.275.275 0 0 1 .363.144.279.279 0 0 1-.143.365c-.04.018-1.006.438-1.816.438z"/>
        <path d="M12.623 11.198a.277.277 0 0 1-.276-.277V4.938c0-.259-.096-.33-.127-.354-.188-.14-.577-.064-.699-.027a.278.278 0 0 1-.164-.53c.075-.024.743-.22 1.19.11.16.118.352.354.352.801v5.983a.277.277 0 0 1-.276.277zM8.182 14.042H6.996a.277.277 0 0 1-.276-.278c0-.153.124-.278.276-.278h.91V8.534c0-.154.124-.278.276-.278.152 0 .276.124.276.278v5.23a.277.277 0 0 1-.276.278zM6.475 7.828c-.81 0-1.43-.389-1.47-.407a.278.278 0 0 1-.143-.365.275.275 0 0 1 .363-.144c.009.004.556.36 1.25.36.696 0 1.587-.388 1.596-.392a.275.275 0 0 1 .363.144.279.279 0 0 1-.142.366c-.04.018-1.007.438-1.817.438z"/>
        <path d="M9.365 14.042a.277.277 0 0 1-.275-.278V7.781c0-.258-.097-.33-.128-.353-.188-.14-.577-.065-.698-.028a.278.278 0 0 1-.164-.53c.074-.024.743-.22 1.189.11.16.119.352.355.352.801v5.983a.277.277 0 0 1-.276.278z"/>
    </g>
</svg>
