<svg xmlns="http://www.w3.org/2000/svg" width="13" height="16" viewBox="0 0 13 16">
  <g fill="none" fill-rule="evenodd" stroke="#95A5A6" stroke-width=".8">
    <path d="M8.76303897,0.85951414 C7.0279908,0.85951414 5.59883662,2.27617888 5.59883662,3.99604125 C5.59883662,5.71590361 7.0279908,7.13256836 8.76303897,7.13256836 C10.4980871,7.13256836 11.9272413,5.71590361 11.9272413,3.99604125 C11.9272413,2.27617888 10.4980871,0.85951414 8.76303897,0.85951414 Z"/>
    <polyline points="8.763 .99 8.763 3.781 11.554 4.712" stroke-linecap="square"/>
    <path d="M.45496825 2.0034898L4.5450321 2.0034898.45496825 2.0034898zM.45496825 4.0034898L4.5450321 4.0034898.45496825 4.0034898zM.45496825 6.0034898L4.5450321 6.0034898.45496825 6.0034898z"/>
    <path d="M8.76303897,8.85951414 C7.0279908,8.85951414 5.59883662,10.2761789 5.59883662,11.9960412 C5.59883662,13.7159036 7.0279908,15.1325684 8.76303897,15.1325684 C10.4980871,15.1325684 11.9272413,13.7159036 11.9272413,11.9960412 C11.9272413,10.2761789 10.4980871,8.85951414 8.76303897,8.85951414 Z"/>
    <polyline points="8.763 8.99 8.763 11.781 7 10" stroke-linecap="square"/>
    <path d="M.45496825 10.0034898L4.5450321 10.0034898.45496825 10.0034898zM.45496825 12.0034898L4.5450321 12.0034898.45496825 12.0034898zM.45496825 14.0034898L4.5450321 14.0034898.45496825 14.0034898z"/>
  </g>
</svg>
