<svg xmlns="http://www.w3.org/2000/svg" width="13" height="9" viewBox="0 0 13 9">
  <g fill="#95A5A6" fill-rule="evenodd">
    <path fill-rule="nonzero" d="M12.7084928 1L5.2913003 1C5.13054722 1 5 1.18377205 5 1.41006505 5 1.63635806 5.13054722 1.82013011 5.2913003 1.82013011L12.7086997 1.82013011C12.8694528 1.82013011 13 1.63635806 13 1.41006505 13 1.18377205 12.8694528 1 12.7084928 1zM12.7084928 3L5.2913003 3C5.13054722 3 5 3.18377205 5 3.41006505 5 3.63635806 5.13054722 3.82013011 5.2913003 3.82013011L12.7086997 3.82013011C12.8694528 3.82013011 13 3.63635806 13 3.41006505 13 3.18377205 12.8694528 3 12.7084928 3zM12.7084928 5L5.2913003 5C5.13054722 5 5 5.18377205 5 5.41006505 5 5.63635806 5.13054722 5.82013011 5.2913003 5.82013011L12.7086997 5.82013011C12.8694528 5.82013011 13 5.63635806 13 5.41006505 13 5.18377205 12.8694528 5 12.7084928 5zM8.70336037 7L5.29663963 7C5.13294006 7 5 7.18377205 5 7.41006505 5 7.63635806 5.13294006 7.82013011 5.29663963 7.82013011L8.70336037 7.82013011C8.86705994 7.82013011 9 7.63635806 9 7.41006505 9 7.18377205 8.86727062 7 8.70336037 7z"/>
    <path d="M2.50901804,0.219252959 L2.50901804,1.0048241 C2.82431687,1.05559256 3.08216333,1.15979993 3.28256513,1.31744935 C3.48296693,1.47509877 3.67401379,1.71691332 3.85571142,2.04290025 L3.0741483,2.479774 C2.83901018,2.05225015 2.53173202,1.83849144 2.15230461,1.83849144 C1.91716649,1.83849144 1.72211166,1.90796302 1.56713427,2.04690827 C1.41215687,2.18585352 1.33466934,2.35953248 1.33466934,2.56795035 C1.33466934,2.75766406 1.39746096,2.91531112 1.52304609,3.04089625 C1.6459592,3.16380935 1.89445371,3.30943248 2.26853707,3.47776999 C2.59185198,3.62473132 2.85905038,3.76300649 3.07014028,3.89259965 C3.28123018,4.02219282 3.44021323,4.14710807 3.54709419,4.26734915 C3.84903291,4.59333609 4,4.98745372 4,5.44971388 C4,5.90395797 3.86372882,6.30475556 3.59118236,6.65211869 C3.32130794,6.99680979 2.9605901,7.2292724 2.50901804,7.34951348 L2.50901804,8.1791728 L1.80761523,8.1791728 L1.80761523,7.37356158 C1.28389852,7.28805681 0.884436914,7.10769789 0.609218437,6.83247941 C0.33399996,6.55726093 0.130929178,6.13241548 0,5.55793031 L0.881763527,5.37356158 C1.00200461,5.77970923 1.14896373,6.06961949 1.32264529,6.24330106 C1.50434293,6.40896655 1.74615747,6.49179805 2.04809619,6.49179805 C2.34201884,6.49179805 2.58784136,6.39694262 2.78557114,6.20722891 C2.9806289,6.02018723 3.07815631,5.77837268 3.07815631,5.48177801 C3.07815631,5.21724763 2.9966608,5.0048249 2.83366733,4.84450346 C2.75083459,4.76701476 2.62859132,4.67950729 2.46693387,4.58197841 C2.30527641,4.48444953 2.09886565,4.37823817 1.84769539,4.26334114 C1.32932273,4.03087504 0.98864477,3.81711633 0.825651303,3.62205857 C0.56646497,3.33080795 0.436873747,2.98211404 0.436873747,2.57596639 C0.436873747,2.38358065 0.467601563,2.20455773 0.529058116,2.03889224 C0.590514669,1.87322675 0.679358136,1.72292765 0.795591182,1.58799043 C0.911824228,1.45305322 1.05544337,1.33615392 1.22645291,1.23728903 C1.39746244,1.13842414 1.59118128,1.06093661 1.80761523,1.0048241 L1.80761523,0.219252959 L2.50901804,0.219252959 Z"/>
  </g>
</svg>
