<svg xmlns="http://www.w3.org/2000/svg" width="14" height="17" viewBox="0 0 14 17">
  <g fill="none" fill-rule="evenodd" stroke="#95A5A6" transform="translate(1 1)">
    <polygon points="0 0 9 0 12 3 12 15.085 0 15.085"/>
    <path stroke-width=".8" d="M6,3.85951414 C4.13501741,3.85951414 2.59883662,5.38227018 2.59883662,7.23092974 C2.59883662,9.07958929 4.13501741,10.6023453 6,10.6023453 C7.86498259,10.6023453 9.40116338,9.07958929 9.40116338,7.23092974 C9.40116338,5.38227018 7.86498259,3.85951414 6,3.85951414 Z"/>
    <polyline stroke-width=".8" points="6 4 6 7 9 8" stroke-linecap="square"/>
    <polyline stroke-width=".8" points="6.239 5.476 6.239 8.476 9.239 9.476" stroke-linecap="square" transform="rotate(49 7.739 7.476)"/>
    <polyline points="9 0 9 3 12 3"/>
  </g>
</svg>
