<svg xmlns="http://www.w3.org/2000/svg" width="20" height="18" viewBox="0 0 20 18">
  <g fill="none" fill-rule="evenodd" transform="translate(1)">
    <circle cx="9" cy="9" r="6" stroke="#95A5A6"/>
    <path stroke="#95A5A6" stroke-linecap="square" d="M9,1 L9,3"/>
    <polygon stroke="#95A5A6" points="9 0 10 1 8 1"/>
    <path stroke="#95A5A6" stroke-linecap="square" d="M9,15 L9,17" transform="matrix(1 0 0 -1 0 32)"/>
    <polygon stroke="#95A5A6" points="9 17 10 18 8 18" transform="matrix(1 0 0 -1 0 35)"/>
    <path stroke="#95A5A6" stroke-linecap="square" d="M17,9 L15,9"/>
    <polygon stroke="#95A5A6" points="18 9 17 10 17 8"/>
    <path stroke="#95A5A6" stroke-linecap="square" d="M3,9 L1,9" transform="matrix(-1 0 0 1 4 0)"/>
    <polygon stroke="#95A5A6" points="1 9 0 10 0 8" transform="matrix(-1 0 0 1 1 0)"/>
    <path fill="#95A5A6" d="M9.50901804,5.21925296 L9.50901804,6.0048241 C9.82431687,6.05559256 10.0821633,6.15979993 10.2825651,6.31744935 C10.4829669,6.47509877 10.6740138,6.71691332 10.8557114,7.04290025 L10.0741483,7.479774 C9.83901018,7.05225015 9.53173202,6.83849144 9.15230461,6.83849144 C8.91716649,6.83849144 8.72211166,6.90796302 8.56713427,7.04690827 C8.41215687,7.18585352 8.33466934,7.35953248 8.33466934,7.56795035 C8.33466934,7.75766406 8.39746096,7.91531112 8.52304609,8.04089625 C8.6459592,8.16380935 8.89445371,8.30943248 9.26853707,8.47776999 C9.59185198,8.62473132 9.85905038,8.76300649 10.0701403,8.89259965 C10.2812302,9.02219282 10.4402132,9.14710807 10.5470942,9.26734915 C10.8490329,9.59333609 11,9.98745372 11,10.4497139 C11,10.903958 10.8637288,11.3047556 10.5911824,11.6521187 C10.3213079,11.9968098 9.9605901,12.2292724 9.50901804,12.3495135 L9.50901804,13.1791728 L8.80761523,13.1791728 L8.80761523,12.3735616 C8.28389852,12.2880568 7.88443691,12.1076979 7.60921844,11.8324794 C7.33399996,11.5572609 7.13092918,11.1324155 7,10.5579303 L7.88176353,10.3735616 C8.00200461,10.7797092 8.14896373,11.0696195 8.32264529,11.2433011 C8.50434293,11.4089665 8.74615747,11.491798 9.04809619,11.491798 C9.34201884,11.491798 9.58784136,11.3969426 9.78557114,11.2072289 C9.9806289,11.0201872 10.0781563,10.7783727 10.0781563,10.481778 C10.0781563,10.2172476 9.9966608,10.0048249 9.83366733,9.84450346 C9.75083459,9.76701476 9.62859132,9.67950729 9.46693387,9.58197841 C9.30527641,9.48444953 9.09886565,9.37823817 8.84769539,9.26334114 C8.32932273,9.03087504 7.98864477,8.81711633 7.8256513,8.62205857 C7.56646497,8.33080795 7.43687375,7.98211404 7.43687375,7.57596639 C7.43687375,7.38358065 7.46760156,7.20455773 7.52905812,7.03889224 C7.59051467,6.87322675 7.67935814,6.72292765 7.79559118,6.58799043 C7.91182423,6.45305322 8.05544337,6.33615392 8.22645291,6.23728903 C8.39746244,6.13842414 8.59118128,6.06093661 8.80761523,6.0048241 L8.80761523,5.21925296 L9.50901804,5.21925296 Z"/>
  </g>
</svg>
