<svg xmlns="http://www.w3.org/2000/svg" width="12" height="15" viewBox="0 0 12 15">
  <g fill="none" fill-rule="evenodd">
    <path fill="#95A5A6" fill-rule="nonzero" d="M12,2.98123053 L10.8535826,4.12764798 C8.17445483,1.44852025 3.82554517,1.44852025 1.14641745,4.12764798 L0,2.98123053 C3.31464174,-0.320950156 8.69781931,-0.320950156 12,2.98123053 Z M6.00623053,5.13699377 C7.02803738,5.13699377 7.98753894,5.53574766 8.72274143,6.2584891 L9.86915888,5.11207165 C7.73831776,2.99369159 4.2741433,2.99369159 2.15576324,5.12453271 L3.30218069,6.27095016 C4.02492212,5.53574766 4.98442368,5.13699377 6.00623053,5.13699377 Z M7.65109034,7.33014019 C7.25233645,6.85661994 6.66666667,6.55755452 6.00623053,6.55755452 C5.34579439,6.55755452 4.76012461,6.85661994 4.36137072,7.33014019 L6.00623053,8.975 L7.65109034,7.33014019 Z"/>
    <path stroke="#95A5A6" stroke-linecap="square" d="M4,10 L8.04950976,14.0495098"/>
    <path stroke="#95A5A6" stroke-linecap="square" d="M4,10 L8.04950976,14.0495098" transform="matrix(-1 0 0 1 12.05 0)"/>
  </g>
</svg>
