<svg xmlns="http://www.w3.org/2000/svg" width="15" height="13" viewBox="0 0 15 13">
  <path fill="none" stroke="#95A5A6" d="M11,10 L11,0 L2,3 L-1.27897692e-13,2 L-1.27897692e-13,8 L2,6.94736842 L11,10 Z M12.2903226,3.55 C12.7419355,3.95 13,4.45 13,5 C13,6 12.1612903,6.8 11,7 L11,3 C11.516129,3.1 11.9032258,3.25 12.2903226,3.55 Z M2,3 L2,7 L2,3 Z M9,1 L9,9 L9,1 Z M8,9 L7.54681396,9.90637207 C7.24481695,10.5103661 6.50952148,10.7547607 5.90698242,10.4534912 L4.09301758,9.54650879 C3.48936064,9.24468032 3.0251766,8.45159043 3.05587933,7.78280782 L3.07688981,7.32514684 L8,9 Z" transform="translate(1 1)"/>
</svg>
