<svg xmlns="http://www.w3.org/2000/svg" width="21" height="21" viewBox="0 0 21 21">
    <path fill="none" fill-rule="evenodd" stroke="#FFF" stroke-linecap="round" stroke-linejoin="round" d="M10.566 20.13c-4.1 0-7.754-.557-9.535-1.453-.033-.017-.031-.41-.031-.504 0-1.236 3.24-3.426 7.41-4.104.678.309 1.34.43 2.156.43a5.36 5.36 0 0 0 2.4-.557c4.421.583 7.165 2.932 7.165 4.207 0 .092.028.498-.03.527-1.78.897-5.435 1.454-9.535 1.454zm-3.884-11V5.118C6.682 2.77 8.355 1 10.585 1c2.229 0 3.903 1.77 3.903 4.118V9.13c0 2.347-1.674 4.118-3.903 4.118-2.23 0-3.903-1.77-3.903-4.118"/>
</svg>
