<?xml version="1.0" encoding="utf-8"?>
<!-- Generator: Adobe Illustrator 18.1.1, SVG Export Plug-In . SVG Version: 6.00 Build 0)  -->
<svg version="1.1" id="Layer_2" xmlns="http://www.w3.org/2000/svg" xmlns:xlink="http://www.w3.org/1999/xlink" x="0px" y="0px"
	 viewBox="0 0 20 20" enable-background="new 0 0 20 20" xml:space="preserve">
<line fill="none" stroke="#0085CA" stroke-linecap="round" stroke-linejoin="round" stroke-miterlimit="10" x1="5.1" y1="6.7" x2="11.5" y2="6.7"/>
<line fill="none" stroke="#0085CA" stroke-linecap="round" stroke-linejoin="round" stroke-miterlimit="10" x1="5.1" y1="8.9" x2="9.5" y2="8.9"/>
<line fill="none" stroke="#0085CA" stroke-linecap="round" stroke-linejoin="round" stroke-miterlimit="10" x1="5.1" y1="10.9" x2="7.5" y2="10.9"/>
<path fill="none" stroke="#0085CA" stroke-width="0.3" stroke-linecap="round" stroke-linejoin="round" stroke-miterlimit="10" d="
	M13.4,17.5H6.6c-2.2,0-4-1.8-4-4V6.6c0-2.2,1.8-4,4-4h6.9c2.2,0,4,1.8,4,4v6.9C17.4,15.7,15.6,17.5,13.4,17.5z"/>
<g id="Layer_1">
	<polygon fill="#0085CA" points="7.8,12.1 6.8,15.7 10.5,14.7 14.5,10.6 14,10 9.9,14.1 7.8,14.7 8.5,12.5 12.4,8.6 12,8.1 	"/>
	<polygon fill="#0085CA" points="12.9,8.9 13.5,9.7 9.6,13.6 9.6,12.9 8.8,13 	"/>
	<path fill="#0085CA" d="M13.4,6.8l2.5,2.5l0.4-0.5c0,0,0.3-0.6,0-0.9c-0.3-0.3-1.5-1.5-1.5-1.5s-0.6-0.4-1,0
		C13.4,6.7,13.4,6.8,13.4,6.8z"/>
	<polygon fill="#0085CA" points="12.4,7.7 12.9,7.1 15.5,9.6 14.9,10.2 	"/>
</g>
</svg>
