<?xml version="1.0" encoding="utf-8"?>
<!-- Generator: Adobe Illustrator 19.0.0, SVG Export Plug-In . SVG Version: 6.00 Build 0)  -->
<svg version="1.1" id="Layer_1" xmlns="http://www.w3.org/2000/svg" xmlns:xlink="http://www.w3.org/1999/xlink" x="0px" y="0px"
	 viewBox="129 -121 358 342" style="enable-background:new 129 -121 358 342;" xml:space="preserve">
<style type="text/css">
	.st0{fill:#0085CA;}
	.st1{fill:#FFFFFF;}
</style>
<g id="FAQ">
	<g>
		<g>
			<rect x="129" y="-121" class="st0" width="358" height="342"/>
		</g>
	</g>
	<g>
		<path class="st1" d="M267,124.6V96.1c0-0.2,0.1-0.4,0.2-0.6c0.2-0.2,0.3-0.2,0.6-0.2h17.8c0.2,0,0.4,0.1,0.6,0.2
			c0.2,0.2,0.2,0.4,0.2,0.6v4.7c0,0.2-0.1,0.4-0.2,0.6c-0.2,0.2-0.3,0.2-0.6,0.2h-11.9v6.2h9.8c0.2,0,0.4,0.1,0.6,0.3
			c0.2,0.2,0.2,0.4,0.2,0.6v4.7c0,0.2-0.1,0.4-0.2,0.6c-0.2,0.2-0.3,0.2-0.6,0.2h-9.8v10.5c0,0.2-0.1,0.4-0.3,0.6
			c-0.2,0.2-0.4,0.3-0.6,0.3h-5.1c-0.2,0-0.4-0.1-0.6-0.2C267.1,125,267,124.8,267,124.6z"/>
		<path class="st1" d="M286.3,124.3l13.5-29c0.2-0.3,0.4-0.5,0.7-0.5h0.4c0.3,0,0.6,0.2,0.7,0.5l13.5,29c0.1,0.3,0.1,0.5,0,0.8
			c-0.1,0.2-0.4,0.3-0.7,0.3h-4.8c-0.4,0-0.7-0.1-0.9-0.2c-0.2-0.2-0.4-0.5-0.6-0.9l-1.6-3.6h-11.7l-1.5,3.7
			c-0.3,0.7-0.8,1.1-1.6,1.1H287c-0.3,0-0.6-0.1-0.7-0.3C286.1,124.8,286.1,124.6,286.3,124.3z M297.4,115.1h6.6l-3.3-7.1h0
			L297.4,115.1z"/>
		<path class="st1" d="M316.1,110.4c0-1.4,0.2-2.8,0.5-4.1c0.4-1.3,0.9-2.6,1.5-3.7c0.7-1.1,1.5-2.2,2.4-3.1s2-1.8,3.1-2.4
			c1.1-0.7,2.4-1.2,3.7-1.6c1.3-0.4,2.7-0.6,4.1-0.6c2.1,0,4.1,0.4,6,1.2c1.9,0.8,3.6,1.9,4.9,3.3s2.5,3,3.3,5
			c0.8,1.9,1.2,3.9,1.2,6c0,2.7-0.7,5.3-2.2,7.7s-3.4,4.3-5.8,5.8l5.6,8.7c0.2,0.3,0.2,0.6,0,0.9c-0.1,0.3-0.4,0.4-0.7,0.4h-5.8
			c-0.3,0-0.5-0.1-0.7-0.4l-4.6-7.7c-0.3,0-0.8,0-1.3,0c-2.1,0-4.1-0.4-6-1.2c-1.9-0.8-3.6-1.9-4.9-3.3c-1.4-1.4-2.5-3-3.3-4.9
			S316.1,112.5,316.1,110.4z M323,110.4c0,2.3,0.8,4.4,2.5,6c1.7,1.7,3.7,2.5,6,2.5c2.4,0,4.4-0.8,6.1-2.5c1.7-1.7,2.5-3.7,2.5-6
			c0-2.4-0.8-4.4-2.5-6.1c-1.7-1.7-3.7-2.5-6.1-2.5c-2.3,0-4.3,0.8-6,2.5C323.8,106,323,108,323,110.4z"/>
	</g>
	<path class="st1" d="M324.2,152h-35.8c-2.6,0-4.7-2.1-4.7-4.7l0,0c0-2.6,2.1-4.7,4.7-4.7h35.8c2.6,0,4.7,2.1,4.7,4.7l0,0
		C328.8,149.9,326.7,152,324.2,152z"/>
	<g>
		<path class="st1" d="M305.6-47.9c-21.8,0-39.4,17.7-39.4,39.4S283.8,31,305.6,31S345,13.4,345-8.4S327.3-47.9,305.6-47.9z
			 M305.6,24.6c-18.2,0-32.9-14.7-32.9-32.9s14.7-32.9,32.9-32.9s32.9,14.7,32.9,32.9S323.7,24.6,305.6,24.6z"/>
		<g>
			<path class="st1" d="M303.6,4.6c-2.8,0-4.2,1.5-4.2,4.4c0,1.4,0.4,2.5,1.1,3.3c0.7,0.8,1.8,1.2,3.1,1.2c1.4,0,2.4-0.4,3.2-1.2
				c0.7-0.8,1.1-1.9,1.1-3.2c0-1.4-0.4-2.5-1.1-3.2S304.9,4.6,303.6,4.6z"/>
			<path class="st1" d="M314.3-27.5c-2.2-1.8-5.2-2.8-9-2.8c-3.8,0-7.3,0.8-10.7,2.3c-1.9,0.8-1,2.8-1,2.8l0.8,1.6
				c0,0,0.9,1.5,2.8,0.8c0,0,0,0,0,0c0.8-0.3,1.7-0.7,2.5-1c1.6-0.5,3.3-0.8,5.1-0.8c2,0,3.6,0.4,4.7,1.3c1.1,0.9,1.6,2.1,1.6,3.7
				c0,1.4-0.3,2.6-1,3.6c-0.7,1-2.1,2.4-4.4,4.2c-1.9,1.5-3.3,3-4,4.4c-0.8,1.4-1.2,3.2-1.2,5.3c-0.1,1.5,1.9,1.8,1.9,1.8h1.2
				c0,0,2.3,0,2.6-1.9c0,0,0,0,0-0.1c0.1-1.2,0.4-2.3,0.9-3c0.6-0.9,1.8-2.1,3.6-3.5c2.1-1.6,3.6-3,4.4-4c0.9-1,1.5-2.1,1.9-3.2
				c0.4-1.1,0.6-2.4,0.6-3.9C317.7-23.1,316.5-25.6,314.3-27.5z"/>
		</g>
	</g>
</g>
</svg>
