<?xml version="1.0" encoding="utf-8"?>
<!-- Generator: Adobe Illustrator 18.1.1, SVG Export Plug-In . SVG Version: 6.00 Build 0)  -->
<svg version="1.1" id="Hackathon" xmlns="http://www.w3.org/2000/svg" xmlns:xlink="http://www.w3.org/1999/xlink" x="0px" y="0px"
	 viewBox="0 0 20 20" enable-background="new 0 0 20 20" xml:space="preserve">
<path fill="none" stroke="#0085CA" stroke-linecap="round" stroke-linejoin="round" stroke-miterlimit="10" d="M2,2.8v10.5
	c0,2.2,1.8,4,4,4h9.2c1.5,0,2.7-1.2,2.7-2.7V5.6c0-1.6-1.3-2.8-2.8-2.8H6.5C5,2.8,3.8,4,3.8,5.5v2.1c0,0.4,0.3,0.7,0.7,0.7h3.4
	c0.4,0,0.8-0.4,0.8-0.8V7.4c0-0.4-0.4-0.8-0.8-0.8H6.1C5.8,6.6,5.5,6.3,5.5,6V5.4c0-0.3,0.3-0.6,0.6-0.6h3.7c0.4,0,0.7,0.3,0.7,0.7
	v3.8c0,0.4-0.3,0.7-0.7,0.7H6.3c-1.4,0-2.6,1.2-2.6,2.6V13c0,1.4,1.1,2.5,2.5,2.5h9.4c0.3,0,0.6-0.2,0.6-0.6V5.6
	c0-0.5-0.4-0.9-0.9-0.9h-2.4c-0.5,0-0.9,0.4-0.9,0.9v0.6c0,0.3,0.3,0.6,0.6,0.6h1.3c0.3,0,0.6,0.3,0.6,0.6v0.7
	c0,0.3-0.2,0.5-0.5,0.5h-1.4C12.2,8.6,12,8.8,12,9v0.7c0,0.3,0.2,0.5,0.5,0.5h1.1c0.5,0,0.9,0.4,0.9,0.9V13c0,0.3-0.3,0.6-0.6,0.6
	H6.2c-0.3,0-0.6-0.3-0.6-0.6v-0.5c0-0.4,0.3-0.7,0.7-0.7h6.3"/>
</svg>
