<?xml version="1.0" encoding="utf-8"?>
<!-- Generator: Adobe Illustrator 18.1.1, SVG Export Plug-In . SVG Version: 6.00 Build 0)  -->
<svg version="1.1" id="Layer_2" xmlns="http://www.w3.org/2000/svg" xmlns:xlink="http://www.w3.org/1999/xlink" x="0px" y="0px"
	 viewBox="0 0 20 20" enable-background="new 0 0 20 20" xml:space="preserve">
<path fill="none" stroke="#0085CA" stroke-width="0.3" stroke-linecap="round" stroke-linejoin="round" stroke-miterlimit="10" d="
	M13.4,17.8H6.6c-2.2,0-4-1.8-4-4V6.9c0-2.2,1.8-4,4-4h6.9c2.2,0,4,1.8,4,4v6.9C17.4,16,15.6,17.8,13.4,17.8z"/>
<path fill="#0085CA" d="M10.6,11.7v-0.5c0.6-0.4,1.2-1.3,1.2-2.2c0-1.4,0-2.6-1.7-2.6S8.3,7.6,8.3,9c0,0.9,0.5,1.8,1.2,2.2v0.5
	C7.5,11.8,6,12.8,6,14h8.2C14.1,12.8,12.6,11.8,10.6,11.7z"/>
<path fill="#0085CA" d="M14,11.5v-0.4c0.5-0.3,0.9-0.9,0.9-1.6c0-1.1,0-1.9-1.3-1.9s-1.3,0.9-1.3,1.9c0,0.7,0.4,1.3,0.9,1.6v0.4
	c-1.4,0.1-2.6,0.8-2.6,1.7h6C16.6,12.3,15.4,11.6,14,11.5z"/>
<path fill="#0085CA" d="M6.8,11.5v-0.4c0.5-0.3,0.9-0.9,0.9-1.6c0-1.1,0-1.9-1.3-1.9S5.2,8.4,5.2,9.5c0,0.7,0.4,1.3,0.9,1.6v0.4
	c-1.4,0.1-2.6,0.8-2.6,1.7h6C9.4,12.3,8.3,11.6,6.8,11.5z"/>
</svg>
