<?xml version="1.0" encoding="utf-8"?>
<!-- Generator: Adobe Illustrator 19.0.0, SVG Export Plug-In . SVG Version: 6.00 Build 0)  -->
<svg version="1.1" id="Layer_1" xmlns="http://www.w3.org/2000/svg" xmlns:xlink="http://www.w3.org/1999/xlink" x="0px" y="0px"
	 viewBox="129 -121 358 342" style="enable-background:new 129 -121 358 342;" xml:space="preserve">
<style type="text/css">
	.st0{fill:#004976;}
	.st1{fill:#FFFFFF;}
</style>
<g id="What">
	<g>
		<g>
			<rect x="129" y="-121" class="st0" width="358" height="342"/>
		</g>
	</g>
	<g>
		<path class="st1" d="M245.8,93.3c-0.1-0.3-0.1-0.6,0.1-0.8c0.1-0.2,0.4-0.3,0.7-0.3h5c0.2,0,0.3,0.1,0.5,0.2
			c0.1,0.1,0.2,0.3,0.3,0.4l3.7,14.6h0.2l6.7-15.1c0.2-0.3,0.4-0.5,0.7-0.5h0.8c0.4,0,0.6,0.2,0.7,0.5l6.7,15.1h0.2l3.7-14.6
			c0-0.2,0.1-0.3,0.3-0.4c0.1-0.1,0.3-0.2,0.5-0.2h5c0.3,0,0.5,0.1,0.7,0.3c0.1,0.2,0.2,0.4,0.1,0.8l-8.1,28.9
			c0,0.2-0.1,0.3-0.3,0.4c-0.2,0.1-0.3,0.2-0.5,0.2h-0.7c-0.3,0-0.6-0.2-0.7-0.5l-7.9-17.6H264l-7.8,17.6c-0.2,0.3-0.4,0.5-0.7,0.5
			h-0.7c-0.2,0-0.3-0.1-0.5-0.2c-0.2-0.1-0.3-0.3-0.3-0.4L245.8,93.3z"/>
		<path class="st1" d="M286.9,121.6V93.1c0-0.2,0.1-0.4,0.3-0.6s0.4-0.3,0.6-0.3h5.1c0.2,0,0.4,0.1,0.6,0.2c0.2,0.2,0.2,0.4,0.2,0.6
			v10.8h12.3V93.1c0-0.2,0.1-0.4,0.2-0.6c0.2-0.2,0.3-0.2,0.6-0.2h5.1c0.2,0,0.4,0.1,0.6,0.3s0.3,0.4,0.3,0.6v28.5
			c0,0.2-0.1,0.4-0.3,0.6s-0.4,0.3-0.6,0.3h-5.1c-0.2,0-0.4-0.1-0.6-0.2c-0.2-0.2-0.2-0.4-0.2-0.6v-11.3h-12.3v11.3
			c0,0.2-0.1,0.4-0.2,0.6c-0.2,0.2-0.4,0.2-0.6,0.2h-5.1c-0.2,0-0.4-0.1-0.6-0.3S286.9,121.8,286.9,121.6z"/>
		<path class="st1" d="M316.2,121.3l13.5-29c0.2-0.3,0.4-0.5,0.7-0.5h0.4c0.3,0,0.6,0.2,0.7,0.5l13.5,29c0.1,0.3,0.1,0.5,0,0.8
			c-0.1,0.2-0.4,0.3-0.7,0.3h-4.8c-0.4,0-0.7-0.1-0.9-0.2s-0.4-0.5-0.6-0.9l-1.6-3.6h-11.7l-1.5,3.7c-0.3,0.7-0.8,1.1-1.6,1.1H317
			c-0.3,0-0.6-0.1-0.7-0.3C316.1,121.8,316.1,121.6,316.2,121.3z M327.4,112.1h6.6l-3.3-7.1h0L327.4,112.1z"/>
		<path class="st1" d="M343.9,97.8v-4.7c0-0.2,0.1-0.4,0.2-0.6c0.2-0.2,0.4-0.2,0.6-0.2h19.1c0.2,0,0.4,0.1,0.6,0.2s0.2,0.4,0.2,0.6
			v4.7c0,0.2-0.1,0.4-0.2,0.6c-0.2,0.2-0.4,0.2-0.6,0.2h-6.2v23c0,0.2-0.1,0.4-0.2,0.6s-0.4,0.3-0.6,0.3h-5.1
			c-0.2,0-0.4-0.1-0.6-0.3s-0.2-0.4-0.2-0.6v-23h-6.2c-0.2,0-0.4-0.1-0.6-0.2S343.9,98,343.9,97.8z"/>
	</g>
	<path class="st1" d="M323.6,153h-40.3c-2.6,0-4.7-2.1-4.7-4.7l0,0c0-2.6,2.1-4.7,4.7-4.7h40.3c2.6,0,4.7,2.1,4.7,4.7l0,0
		C328.3,150.9,326.2,153,323.6,153z"/>
	<g>
		<g>
			<g>
				<path class="st1" d="M281.5,25.9L281.5,25.9c-2.3,0-4.7-0.9-6.2-2.3L264.2,13c-2.2-2.1-2.9-6-1.5-8.7L288.5-46
					c0.9-1.8,2.8-3,4.8-3c1,0,2,0.3,2.8,0.8l24.6,14.7c2.4,1.4,5.3,4.7,6.4,7.3l10.5,24.8c0.6,1.4,0.6,3,0,4.4
					c-0.6,1.4-1.7,2.5-3.1,3l-50.2,19.3C283.4,25.7,282.5,25.9,281.5,25.9z M293.3-47.1c-1.3,0-2.5,0.8-3.2,2L264.4,5.2
					c-1,2-0.5,5,1.1,6.5l11.1,10.6c1.1,1.1,3,1.8,4.9,1.8c0.8,0,1.5-0.1,2.1-0.4l50.2-19.3c1-0.4,1.7-1.1,2.1-2c0.4-0.9,0.4-2,0-2.9
					l-10.5-24.8c-1-2.3-3.5-5.2-5.6-6.5l-24.6-14.7C294.6-47,293.9-47.1,293.3-47.1z"/>
			</g>
			<g>
				<path class="st1" d="M306.2,33L306.2,33c-1.7,0-3.3-0.8-4.4-2.1l-33.5-42.1c-1.9-2.4-2.3-6.4-1-9.1l6.8-13.8
					c1.2-2.4,4-4.1,6.8-4.1c0.4,0,0.7,0,1.1,0.1l55.8,9.5c1.5,0.3,2.8,1.1,3.6,2.3c0.8,1.3,1.1,2.8,0.7,4.3L335.4,6
					c-0.7,2.7-2.9,6.5-5.1,8.3l-20.5,17.4C308.8,32.6,307.5,33,306.2,33z M280.9-36.3c-2.1,0-4.3,1.3-5.2,3.1L269-19.5
					c-1,2.1-0.7,5.3,0.8,7.1l33.5,42.2c0.7,0.9,1.8,1.4,2.9,1.4c0.9,0,1.7-0.3,2.4-0.9l20.5-17.4c1.9-1.6,3.9-4.9,4.5-7.3l6.7-27.9
					c0.2-1,0.1-2-0.5-2.8c-0.5-0.8-1.4-1.4-2.4-1.6l-55.8-9.5C281.5-36.3,281.2-36.3,280.9-36.3z"/>
			</g>
			<g>
				<path class="st1" d="M327.8,35.2L327.8,35.2c-1,0-1.9-0.2-2.7-0.5l-52-22.2c-1.4-0.6-2.5-1.7-3-3.1c-0.5-1.4-0.4-3,0.3-4.3
					l13-25.6c1.3-2.5,4.4-5.6,6.9-6.9l24-12.2c0.8-0.4,1.7-0.6,2.6-0.6c2.2,0,4.1,1.3,5.1,3.2l22.8,48.8c1.3,2.7,0.8,6.7-1.2,9.1
					l-9.8,11.8C332.3,34.2,330.1,35.2,327.8,35.2z M316.7-38.4c-0.6,0-1.2,0.1-1.7,0.4l-24,12.2c-2.2,1.1-5,3.9-6.1,6.1L272,5.9
					c-0.5,0.9-0.5,1.9-0.2,2.9c0.3,0.9,1,1.7,2,2.1l52,22.2c0.6,0.3,1.3,0.4,2,0.4c1.7,0,3.5-0.8,4.5-1.9l9.8-11.8
					c1.5-1.8,1.9-5,0.9-7.1l-22.8-48.8C319.5-37.6,318.2-38.4,316.7-38.4z"/>
			</g>
		</g>
		<g>
			<path class="st1" d="M287.7-16.9v4.9h-0.6v-4.9h-1.6v-0.5h3.7v0.5H287.7z"/>
			<path class="st1" d="M293.9-12.1v-2.5h-2.6v2.5h-0.6v-5.4h0.6v2.4h2.6v-2.4h0.6v5.4L293.9-12.1L293.9-12.1z"/>
			<path class="st1" d="M296-12.1v-5.4h3.3v0.5h-2.8v1.9h2.4v0.5h-2.4v1.9h2.8v0.5L296-12.1L296-12.1z"/>
			<path class="st1" d="M288-4.3c-1.1,0-1.9-0.8-1.9-1.8v-3.6h0.6v3.6c0,0.8,0.5,1.4,1.3,1.4s1.3-0.5,1.3-1.4v-3.6h0.6v3.6
				C289.9-5,289.1-4.3,288-4.3z"/>
			<path class="st1" d="M295-4.3l-2.9-4.3v4.3h-0.6v-5.4h0.5l2.9,4.3v-4.3h0.6v5.4H295z"/>
			<path class="st1" d="M297.3-4.3v-5.4h0.6v5.4H297.3z"/>
			<path class="st1" d="M299.6-4.3v-5.4h0.6v4.9h2.7v0.5H299.6z"/>
			<path class="st1" d="M304.1-4.3v-5.4h3.3v0.5h-2.8v1.9h2.4v0.5h-2.4v1.9h2.8v0.5H304.1z"/>
			<path class="st1" d="M310.7-4.3h-0.5l-1.8-5.4h0.6l1.4,4.4l1.4-4.4h0.6L310.7-4.3z"/>
			<path class="st1" d="M313.5-4.3v-5.4h3.3v0.5H314v1.9h2.4v0.5H314v1.9h2.8v0.5H313.5z"/>
			<path class="st1" d="M321-4.3l-1.2-2.4h-1.3v2.4h-0.6v-5.4h2.1c0.9,0,1.6,0.6,1.6,1.5c0,0.8-0.5,1.3-1.2,1.4l1.3,2.5H321z
				 M319.9-9.2h-1.4v2h1.4c0.6,0,1.1-0.3,1.1-1C321-8.9,320.5-9.2,319.9-9.2z"/>
			<path class="st1" d="M287.1-1v1.4h2.2v1h-2.2v2.3H286V-2h3.7v1H287.1z"/>
			<path class="st1" d="M294.1,3c-0.4,0.4-0.9,0.6-1.5,0.6c-0.6,0-1.1-0.2-1.5-0.6c-0.6-0.6-0.5-1.3-0.5-2.2s0-1.7,0.5-2.2
				c0.4-0.4,0.9-0.6,1.5-0.6s1.1,0.2,1.5,0.6c0.6,0.6,0.6,1.3,0.6,2.2S294.6,2.4,294.1,3z M293.3-0.8c-0.2-0.2-0.4-0.3-0.7-0.3
				S292-1,291.9-0.8c-0.2,0.2-0.3,0.5-0.3,1.6c0,1.1,0.1,1.3,0.3,1.6c0.2,0.2,0.4,0.3,0.7,0.3s0.5-0.1,0.7-0.3
				c0.2-0.2,0.3-0.5,0.3-1.6C293.5-0.3,293.5-0.6,293.3-0.8z"/>
			<path class="st1" d="M297.9,3.6c-1.2,0-2.1-0.8-2.1-2V-2h1.1v3.6c0,0.6,0.4,1,1,1c0.6,0,1-0.4,1-1V-2h1.1v3.7
				C300,2.9,299.1,3.6,297.9,3.6z"/>
			<path class="st1" d="M304.7,3.6l-2.2-3.4v3.4h-1.1V-2h1l2.2,3.4V-2h1.1v5.6H304.7z"/>
			<path class="st1" d="M310.7,3c-0.4,0.4-0.9,0.5-1.5,0.5h-2V-2h2c0.6,0,1.1,0.2,1.5,0.5c0.6,0.6,0.6,1.4,0.6,2.2
				C311.2,1.6,311.3,2.4,310.7,3z M309.9-0.7c-0.2-0.2-0.4-0.3-0.8-0.3h-0.8v3.6h0.8c0.4,0,0.6-0.1,0.8-0.3c0.2-0.3,0.2-0.6,0.2-1.5
				S310.1-0.4,309.9-0.7z"/>
			<path class="st1" d="M315.5,3.6l-1.1-2.2h-0.8v2.2h-1.1V-2h2.2c1.1,0,1.8,0.8,1.8,1.7c0,0.8-0.5,1.3-1,1.5l1.3,2.4L315.5,3.6
				L315.5,3.6z M314.7-1h-1v1.5h1c0.5,0,0.8-0.3,0.8-0.7C315.5-0.7,315.1-1,314.7-1z"/>
			<path class="st1" d="M320,1.3v2.3h-1.1V1.3L317.2-2h1.2l1,2.3l1-2.3h1.2L320,1.3z"/>
		</g>
	</g>
</g>
</svg>
