<?xml version="1.0" encoding="utf-8"?>
<!-- Generator: Adobe Illustrator 18.1.1, SVG Export Plug-In . SVG Version: 6.00 Build 0)  -->
<svg version="1.1" id="Layer_6" xmlns="http://www.w3.org/2000/svg" xmlns:xlink="http://www.w3.org/1999/xlink" x="0px" y="0px"
	 viewBox="0 0 358 342" enable-background="new 0 0 358 342" xml:space="preserve">
<g>
	<g>
		<defs>
			<rect id="SVGID_1_" x="-70.9" y="-67.8" width="502" height="479.6"/>
		</defs>
		<clipPath id="SVGID_2_">
			<use xlink:href="#SVGID_1_"  overflow="visible"/>
		</clipPath>
		<g clip-path="url(#SVGID_2_)">
			
			<linearGradient id="SVGID_3_" gradientUnits="userSpaceOnUse" x1="0" y1="171" x2="358" y2="171">
	       <animate attributeName="y2" values="0%;150%;100%;0%" dur="5s" repeatCount="indefinite" />
			<stop  offset="0%" style="stop-color:#DF0557">
			<animate attributeName="stop-color" values="#DF0557;#941B7F;#941B7F;#DF0557" dur="5s" repeatCount="indefinite" />
			</stop>
			<stop  offset="100%" style="stop-color:#941B7F"/>
		</linearGradient>
				
			<path fill="url(#SVGID_3_)" d="M349,9v324H9V9H349 M358,0H0v342h358V0L358,0z"/>
		</g>
	</g>
</g>
<rect x="18" y="117" fill="none" width="322.7" height="159.3"/>
<g enable-background="new    ">
	<path fill="#FFFFFF" d="M149.4,134.7c-0.7-1.6-1-3.3-1-5.1s0.3-3.5,1-5.1c0.7-1.6,1.6-3,2.7-4.1c1.1-1.2,2.5-2.1,4-2.8
		c1.6-0.7,3.2-1,4.9-1c1.6,0,3.1,0.3,4.7,0.9s2.9,1.4,4.1,2.5c0.1,0.1,0.2,0.3,0.2,0.5c0,0.2-0.1,0.4-0.2,0.5l-2.2,2.4
		c-0.3,0.3-0.6,0.3-0.9,0c-1.6-1.4-3.4-2.1-5.4-2.1c-1.5,0-2.8,0.4-4.1,1.1c-1.2,0.8-2.2,1.8-2.9,3s-1.1,2.6-1.1,4.1
		c0,1.5,0.4,2.8,1.1,4.1c0.7,1.3,1.7,2.3,3,3s2.6,1.1,4.1,1.1c1.3,0,2.7-0.3,4.3-0.9v-3h-2.9c-0.2,0-0.4-0.1-0.5-0.2
		c-0.1-0.1-0.2-0.3-0.2-0.5v-2.9c0-0.2,0.1-0.4,0.2-0.5c0.1-0.1,0.3-0.2,0.5-0.2h6.9c0.2,0,0.3,0.1,0.4,0.2s0.2,0.3,0.2,0.5v9.2
		c0,0.2-0.1,0.4-0.3,0.6c-0.1,0.1-0.3,0.1-0.4,0.2s-0.6,0.3-1.2,0.6c-0.6,0.3-1.2,0.5-1.9,0.7s-1.5,0.4-2.5,0.6
		c-1,0.2-2,0.3-2.9,0.3c-1.7,0-3.4-0.3-4.9-1c-1.6-0.7-2.9-1.6-4-2.7C150.9,137.7,150.1,136.3,149.4,134.7z"/>
	<path fill="#FFFFFF" d="M175.8,141.5v-23.8c0-0.2,0.1-0.3,0.2-0.5s0.3-0.2,0.5-0.2h14.7c0.2,0,0.4,0.1,0.5,0.2s0.2,0.3,0.2,0.5v3
		c0,0.2-0.1,0.3-0.2,0.5s-0.3,0.2-0.5,0.2h-10.7v5.9h8.9c0.2,0,0.3,0.1,0.5,0.2s0.2,0.3,0.2,0.5v3c0,0.2-0.1,0.4-0.2,0.5
		s-0.3,0.2-0.5,0.2h-8.9v6.3h10.7c0.2,0,0.4,0.1,0.5,0.2s0.2,0.3,0.2,0.5v3c0,0.2-0.1,0.3-0.2,0.5s-0.3,0.2-0.5,0.2h-14.7
		c-0.2,0-0.4-0.1-0.5-0.2S175.8,141.7,175.8,141.5z"/>
	<path fill="#FFFFFF" d="M194.2,120.6v-3c0-0.2,0.1-0.3,0.2-0.5s0.3-0.2,0.5-0.2h15.7c0.2,0,0.4,0.1,0.5,0.2s0.2,0.3,0.2,0.5v3
		c0,0.2-0.1,0.3-0.2,0.5s-0.3,0.2-0.5,0.2h-5.5v20.2c0,0.2-0.1,0.3-0.2,0.5c-0.1,0.1-0.3,0.2-0.5,0.2h-3.3c-0.2,0-0.3-0.1-0.5-0.2
		c-0.1-0.1-0.2-0.3-0.2-0.5v-20.2h-5.5c-0.2,0-0.4-0.1-0.5-0.2C194.2,121,194.2,120.8,194.2,120.6z"/>
</g>
<g enable-background="new    ">
	<path fill="#FFFFFF" d="M79.7,206v-35.8c0-0.3,0.1-0.5,0.3-0.7c0.2-0.2,0.4-0.3,0.7-0.3h22c0.3,0,0.5,0.1,0.7,0.3
		c0.2,0.2,0.3,0.4,0.3,0.7v4.4c0,0.3-0.1,0.5-0.3,0.7c-0.2,0.2-0.4,0.3-0.7,0.3h-16v10.2h13.3c0.3,0,0.5,0.1,0.7,0.3
		s0.3,0.4,0.3,0.7v4.4c0,0.3-0.1,0.5-0.3,0.7s-0.4,0.3-0.7,0.3H86.8V206c0,0.3-0.1,0.5-0.3,0.7S86,207,85.7,207h-5
		c-0.3,0-0.5-0.1-0.7-0.3C79.8,206.5,79.7,206.3,79.7,206z"/>
	<path fill="#FFFFFF" d="M107.7,192.7v-22.5c0-0.3,0.1-0.5,0.3-0.7c0.2-0.2,0.4-0.3,0.7-0.3h5.1c0.3,0,0.5,0.1,0.7,0.3
		c0.2,0.2,0.3,0.4,0.3,0.7v22.1c0,2.3,0.7,4.3,2.2,5.9c1.5,1.6,3.3,2.3,5.7,2.3c2.3,0,4.2-0.8,5.7-2.3s2.2-3.5,2.2-5.8v-22.1
		c0-0.3,0.1-0.5,0.3-0.7c0.2-0.2,0.4-0.3,0.7-0.3h5.1c0.3,0,0.5,0.1,0.7,0.3c0.2,0.2,0.3,0.4,0.3,0.7v22.5c0,2-0.4,3.9-1.2,5.8
		c-0.8,1.8-1.8,3.4-3.2,4.7c-1.3,1.3-2.9,2.4-4.8,3.2c-1.9,0.8-3.8,1.2-5.9,1.2c-2.8,0-5.3-0.7-7.6-2c-2.3-1.3-4.1-3.1-5.4-5.4
		C108.3,197.9,107.7,195.4,107.7,192.7z"/>
	<path fill="#FFFFFF" d="M145,206v-36.3c0-0.3,0.1-0.5,0.3-0.7c0.2-0.2,0.5-0.3,0.7-0.3h1.4l22.5,23.9h0.1v-22.3
		c0-0.3,0.1-0.5,0.3-0.7c0.2-0.2,0.4-0.3,0.7-0.3h5c0.3,0,0.5,0.1,0.7,0.3s0.3,0.4,0.3,0.7v36.4c0,0.3-0.1,0.5-0.3,0.7
		c-0.2,0.2-0.4,0.3-0.7,0.3h-1.3l-22.5-24.8H152V206c0,0.3-0.1,0.5-0.3,0.7s-0.4,0.3-0.7,0.3h-5c-0.3,0-0.5-0.1-0.7-0.3
		S145,206.2,145,206z"/>
	<path fill="#FFFFFF" d="M184.7,206v-35.8c0-0.3,0.1-0.5,0.3-0.7c0.2-0.2,0.4-0.3,0.7-0.3h12.7c2.5,0,5,0.5,7.3,1.5
		c2.3,1,4.3,2.3,6,4c1.7,1.7,3,3.7,4,6c1,2.3,1.5,4.7,1.5,7.3c0,2.6-0.5,5-1.5,7.4c-1,2.3-2.3,4.4-4,6.1c-1.7,1.7-3.7,3-6,4
		c-2.3,1-4.7,1.5-7.3,1.5h-12.7c-0.3,0-0.5-0.1-0.7-0.3C184.8,206.5,184.7,206.2,184.7,206z M191.8,200.4h6.1c3.5,0,6.4-1.2,8.7-3.5
		c2.3-2.4,3.4-5.3,3.4-8.9c0-3.5-1.1-6.5-3.4-8.8c-2.3-2.4-5.2-3.5-8.7-3.5h-6.1V200.4z"/>
	<path fill="#FFFFFF" d="M222.6,206v-35.8c0-0.3,0.1-0.5,0.3-0.7c0.2-0.2,0.4-0.3,0.7-0.3h22c0.3,0,0.5,0.1,0.7,0.3
		c0.2,0.2,0.3,0.4,0.3,0.7v4.4c0,0.3-0.1,0.5-0.3,0.7s-0.4,0.3-0.7,0.3h-16v8.9h13.3c0.3,0,0.5,0.1,0.7,0.3c0.2,0.2,0.3,0.4,0.3,0.7
		v4.4c0,0.3-0.1,0.5-0.3,0.7c-0.2,0.2-0.4,0.3-0.7,0.3h-13.3v9.4h16c0.3,0,0.5,0.1,0.7,0.3c0.2,0.2,0.3,0.4,0.3,0.7v4.4
		c0,0.3-0.1,0.5-0.3,0.7s-0.4,0.3-0.7,0.3h-22c-0.3,0-0.5-0.1-0.7-0.3S222.6,206.3,222.6,206z"/>
	<path fill="#FFFFFF" d="M252.3,206v-35.8c0-0.3,0.1-0.5,0.3-0.7c0.2-0.2,0.4-0.3,0.7-0.3H266c2.5,0,5,0.5,7.3,1.5
		c2.3,1,4.3,2.3,6,4c1.7,1.7,3,3.7,4,6c1,2.3,1.5,4.7,1.5,7.3c0,2.6-0.5,5-1.5,7.4c-1,2.3-2.3,4.4-4,6.1c-1.7,1.7-3.7,3-6,4
		c-2.3,1-4.7,1.5-7.3,1.5h-12.7c-0.3,0-0.5-0.1-0.7-0.3C252.4,206.5,252.3,206.2,252.3,206z M259.4,200.4h6.1c3.5,0,6.4-1.2,8.7-3.5
		c2.3-2.4,3.4-5.3,3.4-8.9c0-3.5-1.1-6.5-3.4-8.8c-2.3-2.4-5.2-3.5-8.7-3.5h-6.1V200.4z"/>
</g>
<path fill="#FFFFFF" d="M205.7,240h-53.3c-2.6,0-4.7-2.1-4.7-4.7l0,0c0-2.6,2.1-4.7,4.7-4.7h53.3c2.6,0,4.7,2.1,4.7,4.7l0,0
	C210.3,237.9,208.2,240,205.7,240z"/>
</svg>
