<?xml version="1.0" encoding="utf-8"?>
<!-- Generator: Adobe Illustrator 18.1.1, SVG Export Plug-In . SVG Version: 6.00 Build 0)  -->
<svg version="1.1" id="Layer_5" xmlns="http://www.w3.org/2000/svg" xmlns:xlink="http://www.w3.org/1999/xlink" x="0px" y="0px"
	 viewBox="0 0 358 342" enable-background="new 0 0 358 342" xml:space="preserve">
<g>
	<g>
		<defs>
			<rect id="SVGID_1_" x="-70.9" y="-67.8" width="502" height="479.6"/>
		</defs>
		<clipPath id="SVGID_2_">
			<use xlink:href="#SVGID_1_"  overflow="visible"/>
		</clipPath>
		<g clip-path="url(#SVGID_2_)">
			
				
			
			
			<linearGradient id="SVGID_3_" gradientUnits="userSpaceOnUse" x1="0" y1="171" x2="358" y2="171">
	       <animate attributeName="y2" values="0%;150%;100%;0%" dur="5s" repeatCount="indefinite" />
			<stop  offset="0%" style="stop-color:#FAD655">
			<animate attributeName="stop-color" values="#FAD655;#ED8711;#ED8711;#FAD655" dur="5s" repeatCount="indefinite" />
			</stop>
			<stop  offset="100%" style="stop-color:#ED8711"/>
		</linearGradient>
			
			
			<path fill="url(#SVGID_3_)" d="M349,9v324H9V9H349 M358,0H0v342h358V0L358,0z"/>
		</g>
	</g>
</g>
<rect x="18" y="117" fill="none" width="322.7" height="159.3"/>
<g enable-background="new    ">
	<path fill="#FFFFFF" d="M139.6,141.5v-23.8c0-0.2,0.1-0.3,0.2-0.5s0.3-0.2,0.5-0.2H155c0.2,0,0.4,0.1,0.5,0.2s0.2,0.3,0.2,0.5v3
		c0,0.2-0.1,0.3-0.2,0.5s-0.3,0.2-0.5,0.2h-10.7v6.8h8.9c0.2,0,0.3,0.1,0.5,0.2s0.2,0.3,0.2,0.5v3c0,0.2-0.1,0.3-0.2,0.5
		s-0.3,0.2-0.5,0.2h-8.9v9.1c0,0.2-0.1,0.3-0.2,0.5s-0.3,0.2-0.5,0.2h-3.3c-0.2,0-0.4-0.1-0.5-0.2S139.6,141.7,139.6,141.5z"/>
	<path fill="#FFFFFF" d="M159.9,141.5v-23.8c0-0.2,0.1-0.3,0.2-0.5c0.1-0.1,0.3-0.2,0.5-0.2h3.3c0.2,0,0.3,0.1,0.5,0.2
		s0.2,0.3,0.2,0.5v23.8c0,0.2-0.1,0.3-0.2,0.5s-0.3,0.2-0.5,0.2h-3.3c-0.2,0-0.3-0.1-0.5-0.2C160,141.8,159.9,141.7,159.9,141.5z"/>
	<path fill="#FFFFFF" d="M171.2,141.5v-24.2c0-0.2,0.1-0.3,0.2-0.5s0.3-0.2,0.5-0.2h0.9l15,15.9h0v-14.9c0-0.2,0.1-0.3,0.2-0.5
		s0.3-0.2,0.5-0.2h3.3c0.2,0,0.3,0.1,0.5,0.2s0.2,0.3,0.2,0.5v24.2c0,0.2-0.1,0.3-0.2,0.4s-0.3,0.2-0.5,0.2H191l-15-16.5h0v15.5
		c0,0.2-0.1,0.3-0.2,0.5s-0.3,0.2-0.5,0.2h-3.3c-0.2,0-0.3-0.1-0.5-0.2C171.3,141.8,171.2,141.7,171.2,141.5z"/>
	<path fill="#FFFFFF" d="M199,141.5v-23.8c0-0.2,0.1-0.3,0.2-0.5s0.3-0.2,0.5-0.2h8.5c1.7,0,3.3,0.3,4.8,1c1.5,0.7,2.9,1.6,4,2.7
		c1.1,1.1,2,2.5,2.7,4s1,3.2,1,4.9c0,1.7-0.3,3.4-1,4.9s-1.6,2.9-2.7,4c-1.1,1.1-2.5,2-4,2.7c-1.5,0.7-3.2,1-4.9,1h-8.5
		c-0.2,0-0.3-0.1-0.5-0.2S199,141.7,199,141.5z M203.7,137.8h4.1c2.3,0,4.3-0.8,5.8-2.4c1.5-1.6,2.3-3.5,2.3-5.9
		c0-2.3-0.8-4.3-2.3-5.9c-1.5-1.6-3.5-2.4-5.8-2.4h-4.1V137.8z"/>
</g>
<g enable-background="new    ">
	<path fill="#FFFFFF" d="M61.9,205.8l6.4-36.3c0.1-0.5,0.4-0.8,1-0.8h0.9c0.4,0,0.7,0.2,0.9,0.5l11.9,25.5h0.2L95,169.2
		c0.2-0.4,0.5-0.5,0.9-0.5h0.9c0.6,0,0.9,0.3,1,0.8l6.4,36.3c0,0.1,0,0.2,0,0.3c0,0.2-0.1,0.4-0.2,0.6c-0.2,0.2-0.4,0.3-0.8,0.3
		h-4.9c-0.2,0-0.4-0.1-0.6-0.3c-0.2-0.2-0.3-0.4-0.4-0.6L94,185.7h-0.2l-9.5,21.2c-0.1,0.4-0.4,0.6-0.9,0.6h-1
		c-0.4,0-0.7-0.2-0.9-0.6L72,185.7h-0.2l-3.1,20.5c0,0.2-0.1,0.4-0.3,0.6c-0.2,0.2-0.4,0.3-0.6,0.3h-4.9c-0.4,0-0.6-0.1-0.8-0.3
		c-0.2-0.2-0.2-0.4-0.2-0.7C61.9,205.9,61.9,205.8,61.9,205.8z"/>
	<path fill="#FFFFFF" d="M109.5,206v-35.8c0-0.3,0.1-0.5,0.3-0.7c0.2-0.2,0.4-0.3,0.7-0.3h22c0.3,0,0.5,0.1,0.7,0.3
		c0.2,0.2,0.3,0.4,0.3,0.7v4.4c0,0.3-0.1,0.5-0.3,0.7c-0.2,0.2-0.4,0.3-0.7,0.3h-16v8.9h13.3c0.3,0,0.5,0.1,0.7,0.3
		c0.2,0.2,0.3,0.4,0.3,0.7v4.4c0,0.3-0.1,0.5-0.3,0.7c-0.2,0.2-0.4,0.3-0.7,0.3h-13.3v9.4h16c0.3,0,0.5,0.1,0.7,0.3
		c0.2,0.2,0.3,0.4,0.3,0.7v4.4c0,0.3-0.1,0.5-0.3,0.7c-0.2,0.2-0.4,0.3-0.7,0.3h-22c-0.3,0-0.5-0.1-0.7-0.3
		C109.6,206.5,109.5,206.3,109.5,206z"/>
	<path fill="#FFFFFF" d="M139.2,206v-36.3c0-0.3,0.1-0.5,0.3-0.7c0.2-0.2,0.5-0.3,0.7-0.3h1.4l22.5,23.9h0.1v-22.3
		c0-0.3,0.1-0.5,0.3-0.7c0.2-0.2,0.4-0.3,0.7-0.3h5c0.3,0,0.5,0.1,0.7,0.3s0.3,0.4,0.3,0.7v36.4c0,0.3-0.1,0.5-0.3,0.7
		c-0.2,0.2-0.4,0.3-0.7,0.3h-1.3l-22.5-24.8h-0.1V206c0,0.3-0.1,0.5-0.3,0.7s-0.4,0.3-0.7,0.3h-5c-0.3,0-0.5-0.1-0.7-0.3
		S139.2,206.2,139.2,206z"/>
	<path fill="#FFFFFF" d="M174.8,174.6v-4.4c0-0.3,0.1-0.5,0.3-0.7c0.2-0.2,0.4-0.3,0.7-0.3h23.6c0.3,0,0.5,0.1,0.7,0.3
		c0.2,0.2,0.3,0.4,0.3,0.7v4.4c0,0.3-0.1,0.5-0.3,0.7c-0.2,0.2-0.4,0.3-0.7,0.3h-8.3V206c0,0.3-0.1,0.5-0.3,0.7
		c-0.2,0.2-0.4,0.3-0.7,0.3h-5c-0.3,0-0.5-0.1-0.7-0.3s-0.3-0.4-0.3-0.7v-30.3h-8.3c-0.3,0-0.5-0.1-0.7-0.3
		C174.8,175.2,174.8,174.9,174.8,174.6z"/>
	<path fill="#FFFFFF" d="M201,188.1c0-1.8,0.2-3.5,0.7-5.2c0.5-1.7,1.1-3.2,1.9-4.7c0.8-1.4,1.8-2.7,3-3.9c1.2-1.2,2.5-2.2,3.9-3
		c1.4-0.8,3-1.5,4.7-2c1.7-0.5,3.4-0.7,5.2-0.7c2.7,0,5.2,0.5,7.6,1.5c2.4,1,4.5,2.4,6.2,4.1c1.7,1.7,3.1,3.8,4.1,6.2
		c1,2.4,1.5,4.9,1.5,7.6s-0.5,5.2-1.5,7.6c-1,2.4-2.4,4.5-4.1,6.2s-3.8,3.1-6.2,4.1c-2.4,1-4.9,1.5-7.6,1.5s-5.2-0.5-7.6-1.5
		c-2.4-1-4.5-2.4-6.2-4.1s-3.1-3.8-4.1-6.2C201.5,193.3,201,190.8,201,188.1z M208,188.1c0,3.4,1.2,6.3,3.6,8.7s5.3,3.6,8.7,3.6
		c2.2,0,4.3-0.6,6.2-1.7s3.4-2.6,4.5-4.5c1.1-1.9,1.7-4,1.7-6.2s-0.6-4.3-1.7-6.2c-1.1-1.9-2.6-3.4-4.5-4.6s-4-1.7-6.2-1.7
		c-2.2,0-4.3,0.6-6.2,1.7s-3.4,2.6-4.5,4.6S208,185.9,208,188.1z"/>
	<path fill="#FFFFFF" d="M244.8,206v-35.8c0-0.3,0.1-0.5,0.3-0.7c0.2-0.2,0.4-0.3,0.7-0.3h15.5c3.3,0,6,1.1,8.3,3.4
		c2.3,2.3,3.4,5,3.4,8.2c0,2.4-0.7,4.6-2.2,6.6c-1.5,1.9-3.4,3.4-5.8,4.4l7.4,13.7c0.2,0.3,0.2,0.7,0,1c-0.2,0.3-0.5,0.5-0.9,0.5
		h-5.7c-0.4,0-0.7-0.2-0.9-0.5l-7.2-14.2h-6V206c0,0.3-0.1,0.5-0.3,0.7s-0.4,0.3-0.7,0.3h-5c-0.3,0-0.5-0.1-0.7-0.3
		S244.8,206.3,244.8,206z M251.9,186.4h8.8c1.4,0,2.7-0.5,3.8-1.6c1.1-1.1,1.6-2.4,1.6-3.9c0-1.4-0.5-2.7-1.6-3.7
		c-1.1-1-2.3-1.6-3.8-1.6h-8.8V186.4z"/>
	<path fill="#FFFFFF" d="M276.4,202.4c0,0,0-0.1,0-0.1c0-0.2,0.1-0.5,0.2-0.9l1.9-3.4c0.2-0.4,0.5-0.6,0.9-0.6s0.7,0,0.9,0.2
		l0.3,0.2c0.2,0.1,0.4,0.3,0.6,0.4c0.2,0.2,0.5,0.3,0.9,0.5s0.7,0.4,1.1,0.6s0.8,0.4,1.2,0.6c0.5,0.2,0.9,0.4,1.3,0.5
		s0.9,0.3,1.4,0.4s0.9,0.1,1.3,0.1c1.4,0,2.6-0.4,3.5-1.2c0.9-0.8,1.4-1.8,1.4-3c0-1.3-0.6-2.5-1.7-3.5s-2.9-2-5.2-2.9
		c-1.4-0.6-2.7-1.2-3.8-1.8c-1.1-0.6-2.1-1.4-3.2-2.4s-1.8-2-2.4-3.3s-0.8-2.7-0.8-4.2c0-1.2,0.2-2.4,0.7-3.5
		c0.5-1.2,1.2-2.2,2.1-3.2c0.9-1,2.2-1.8,3.8-2.4c1.6-0.6,3.4-0.9,5.5-0.9c1.2,0,2.4,0.1,3.6,0.4s2.3,0.6,3.2,1.1
		c0.9,0.4,1.6,0.8,2.2,1.1c0.5,0.3,1,0.6,1.4,0.9c0.3,0.2,0.4,0.4,0.5,0.8c0.1,0.4,0,0.7-0.2,0.9l-1.9,3c-0.2,0.3-0.5,0.6-0.8,0.7
		c-0.3,0.1-0.6,0.1-1-0.1c-3.1-2-5.6-3-7.3-3c-1.4,0-2.6,0.4-3.5,1.2c-0.9,0.8-1.3,1.7-1.3,2.6c0,1.2,0.5,2.3,1.5,3.3
		c1,0.9,2.6,1.9,4.9,2.8c0.8,0.3,1.6,0.7,2.2,1c0.6,0.3,1.3,0.7,2.1,1.1c0.8,0.4,1.4,0.9,2,1.4c0.6,0.5,1.2,1,1.7,1.6s1,1.3,1.4,2
		s0.7,1.5,0.9,2.3c0.2,0.9,0.3,1.8,0.3,2.8c0,3-1.1,5.6-3.3,7.7c-2.2,2.2-5,3.2-8.6,3.2c-1.6,0-3.1-0.2-4.5-0.5
		c-1.4-0.3-2.6-0.8-3.6-1.3c-1-0.5-1.8-1-2.3-1.4c-0.6-0.4-1-0.8-1.4-1.2C276.6,202.9,276.4,202.6,276.4,202.4z"/>
</g>
<path fill="#FFFFFF" d="M205.7,240h-53.3c-2.6,0-4.7-2.1-4.7-4.7l0,0c0-2.6,2.1-4.7,4.7-4.7h53.3c2.6,0,4.7,2.1,4.7,4.7l0,0
	C210.3,237.9,208.2,240,205.7,240z"/>
</svg>
