<?xml version="1.0" encoding="utf-8"?>
<!-- Generator: Adobe Illustrator 18.1.1, SVG Export Plug-In . SVG Version: 6.00 Build 0)  -->
<svg version="1.1" id="Layer_1" xmlns="http://www.w3.org/2000/svg" xmlns:xlink="http://www.w3.org/1999/xlink" x="0px" y="0px"
	 viewBox="0 0 358 342" enable-background="new 0 0 358 342" xml:space="preserve">
<g id="Layer_3" display="none">
	<rect x="-11.3" y="-14.3" display="inline" fill="#0C0C0C" width="386" height="372.7"/>
</g>
<g id="Layer_2">
	<g>
		<g>
			<defs>
				<rect id="SVGID_1_" x="-70.9" y="-67.8" width="502" height="479.6"/>
			</defs>
			<clipPath id="SVGID_2_">
				<use xlink:href="#SVGID_1_"  overflow="visible"/>
			</clipPath>
			<g clip-path="url(#SVGID_2_)">
				
					
				
				
				<linearGradient id="SVGID_3_" gradientUnits="userSpaceOnUse" x1="0" y1="171" x2="358" y2="171">
	       <animate attributeName="y2" values="0%;150%;100%;0%" dur="5s" repeatCount="indefinite" />
			<stop  offset="0%" style="stop-color:#D1D41D">
			<animate attributeName="stop-color" values="#D1D41D;#79B834;#79B834;#D1D41D" dur="5s" repeatCount="indefinite" />
			</stop>
			<stop  offset="100%" style="stop-color:#79B834"/>
			
		</linearGradient>
				
				
				
				<path fill="url(#SVGID_3_)" d="M349,9v324H9V9H349 M358,0H0v342h358V0L358,0z"/>
			</g>
		</g>
	</g>
	<rect x="18" y="117" fill="none" width="322.7" height="159.3"/>
	<g enable-background="new    ">
		<path fill="#FFFFFF" d="M103.9,141.5v-23.8c0-0.2,0.1-0.3,0.2-0.5s0.3-0.2,0.5-0.2h14.7c0.2,0,0.4,0.1,0.5,0.2s0.2,0.3,0.2,0.5v3
			c0,0.2-0.1,0.3-0.2,0.5s-0.3,0.2-0.5,0.2h-10.7v5.9h8.9c0.2,0,0.3,0.1,0.5,0.2s0.2,0.3,0.2,0.5v3c0,0.2-0.1,0.4-0.2,0.5
			s-0.3,0.2-0.5,0.2h-8.9v6.3h10.7c0.2,0,0.4,0.1,0.5,0.2s0.2,0.3,0.2,0.5v3c0,0.2-0.1,0.3-0.2,0.5s-0.3,0.2-0.5,0.2h-14.7
			c-0.2,0-0.4-0.1-0.5-0.2S103.9,141.7,103.9,141.5z"/>
		<path fill="#FFFFFF" d="M122.9,141.9c-0.1-0.1-0.1-0.2-0.1-0.3c0-0.1,0-0.2,0.1-0.4l7.5-11.9l-7.2-11.3c-0.1-0.2-0.1-0.5,0-0.7
			s0.3-0.3,0.6-0.3h4.2c0.2,0,0.4,0.1,0.6,0.3l4.6,7.6h0l4.7-7.6c0.1-0.2,0.3-0.3,0.6-0.3h4.2c0.3,0,0.5,0.1,0.6,0.3s0.1,0.5,0,0.7
			l-7.2,11.3l7.5,11.9c0.1,0.1,0.1,0.3,0.1,0.4c0,0.1,0,0.2-0.1,0.3c-0.1,0.2-0.3,0.3-0.6,0.3H139c-0.3,0-0.5-0.1-0.6-0.3l-5.2-8.2
			h-0.1l-5.1,8.2c-0.2,0.2-0.4,0.3-0.6,0.3h-3.9C123.3,142.2,123,142.1,122.9,141.9z"/>
		<path fill="#FFFFFF" d="M147.9,141.5v-23.8c0-0.2,0.1-0.3,0.2-0.5s0.3-0.2,0.5-0.2h8.5c2.2,0,4.1,0.8,5.7,2.3
			c1.6,1.6,2.4,3.4,2.4,5.6c0,1.5-0.4,2.8-1.1,4.1c-0.7,1.2-1.7,2.2-2.9,3c-1.2,0.7-2.6,1.1-4,1.1h-4.5v8.5c0,0.2-0.1,0.3-0.2,0.5
			s-0.3,0.2-0.5,0.2h-3.3c-0.2,0-0.4-0.1-0.5-0.2S147.9,141.7,147.9,141.5z M152.6,128.7h4.2c1,0,1.9-0.4,2.6-1.1
			c0.7-0.7,1.1-1.6,1.1-2.7c0-1-0.4-1.8-1.1-2.5c-0.7-0.7-1.6-1-2.6-1h-4.2V128.7z"/>
		<path fill="#FFFFFF" d="M169.2,141.5v-23.8c0-0.2,0.1-0.3,0.2-0.5s0.3-0.2,0.5-0.2h3.3c0.2,0,0.3,0.1,0.5,0.2s0.2,0.3,0.2,0.5
			v20.2h9.2c0.2,0,0.4,0.1,0.5,0.2s0.2,0.3,0.2,0.5v3c0,0.2-0.1,0.3-0.2,0.5s-0.3,0.2-0.5,0.2h-13.2c-0.2,0-0.4-0.1-0.5-0.2
			S169.2,141.7,169.2,141.5z"/>
		<path fill="#FFFFFF" d="M185.3,129.6c0-1.2,0.2-2.3,0.5-3.5s0.7-2.2,1.3-3.1c0.6-0.9,1.2-1.8,2-2.6c0.8-0.8,1.7-1.5,2.6-2
			s2-1,3.1-1.3s2.3-0.5,3.5-0.5c1.8,0,3.5,0.3,5.1,1s3,1.6,4.1,2.8s2.1,2.5,2.8,4.1s1,3.3,1,5.1s-0.3,3.5-1,5.1
			c-0.7,1.6-1.6,3-2.8,4.1c-1.2,1.1-2.5,2.1-4.1,2.7c-1.6,0.7-3.3,1-5.1,1s-3.5-0.3-5.1-1c-1.6-0.7-3-1.6-4.1-2.7s-2.1-2.5-2.7-4.1
			S185.3,131.4,185.3,129.6z M190,129.6c0,2.3,0.8,4.2,2.4,5.8s3.6,2.4,5.8,2.4c1.5,0,2.9-0.4,4.1-1.1s2.3-1.7,3-3s1.1-2.6,1.1-4.1
			s-0.4-2.9-1.1-4.1s-1.8-2.3-3-3s-2.6-1.1-4.1-1.1c-1.5,0-2.9,0.4-4.1,1.1s-2.3,1.8-3,3C190.4,126.8,190,128.1,190,129.6z"/>
		<path fill="#FFFFFF" d="M215.9,141.5v-23.8c0-0.2,0.1-0.3,0.2-0.5s0.3-0.2,0.5-0.2h10.3c2.2,0,4,0.8,5.6,2.3
			c1.5,1.5,2.3,3.3,2.3,5.5c0,1.6-0.5,3.1-1.5,4.4c-1,1.3-2.3,2.3-3.9,2.9l5,9.1c0.1,0.2,0.1,0.5,0,0.7c-0.1,0.2-0.3,0.3-0.6,0.3
			h-3.8c-0.3,0-0.5-0.1-0.6-0.3l-4.8-9.5h-4v9.1c0,0.2-0.1,0.3-0.2,0.5c-0.1,0.1-0.3,0.2-0.5,0.2h-3.3c-0.2,0-0.4-0.1-0.5-0.2
			S215.9,141.7,215.9,141.5z M220.6,128.5h5.9c1,0,1.8-0.4,2.5-1.1s1.1-1.6,1.1-2.6c0-0.9-0.4-1.8-1.1-2.5s-1.5-1-2.5-1h-5.9V128.5z
			"/>
		<path fill="#FFFFFF" d="M239.8,141.5v-23.8c0-0.2,0.1-0.3,0.2-0.5s0.3-0.2,0.5-0.2h14.7c0.2,0,0.4,0.1,0.5,0.2s0.2,0.3,0.2,0.5v3
			c0,0.2-0.1,0.3-0.2,0.5s-0.3,0.2-0.5,0.2h-10.7v5.9h8.9c0.2,0,0.3,0.1,0.5,0.2s0.2,0.3,0.2,0.5v3c0,0.2-0.1,0.4-0.2,0.5
			s-0.3,0.2-0.5,0.2h-8.9v6.3h10.7c0.2,0,0.4,0.1,0.5,0.2s0.2,0.3,0.2,0.5v3c0,0.2-0.1,0.3-0.2,0.5s-0.3,0.2-0.5,0.2h-14.7
			c-0.2,0-0.4-0.1-0.5-0.2S239.8,141.7,239.8,141.5z"/>
	</g>
	<g enable-background="new    ">
		<path fill="#FFFFFF" d="M22.8,188.1c0-2.6,0.5-5.2,1.5-7.6c1-2.4,2.4-4.5,4.1-6.2c1.7-1.7,3.8-3.1,6.2-4.1c2.4-1,4.9-1.5,7.6-1.5
			c2.7,0,5,0.4,7.1,1.2s4.1,2.1,5.9,3.8c0.2,0.2,0.3,0.5,0.4,0.8c0,0.3-0.1,0.6-0.3,0.8l-3.4,3.4c-0.2,0.2-0.4,0.3-0.7,0.3
			c-0.3,0-0.5-0.1-0.7-0.3c-1.2-1-2.5-1.9-4-2.5s-3-0.9-4.5-0.9c-2.3,0-4.4,0.6-6.3,1.7c-1.9,1.2-3.4,2.7-4.4,4.6
			c-1,1.9-1.6,4-1.6,6.3c0,2.3,0.5,4.3,1.6,6.3c1.1,1.9,2.5,3.5,4.4,4.6c1.9,1.1,4,1.7,6.3,1.7c3,0,5.9-1,8.4-3.1
			c0.2-0.2,0.5-0.3,0.7-0.3s0.5,0.1,0.6,0.3l3.4,3.5c0.2,0.2,0.3,0.4,0.3,0.7c0,0.3-0.1,0.6-0.3,0.8c-3.6,3.5-8,5.2-13.1,5.2
			c-1.8,0-3.5-0.2-5.2-0.7s-3.2-1.1-4.7-1.9s-2.7-1.8-3.9-3c-1.2-1.2-2.2-2.5-3-3.9c-0.8-1.4-1.5-3-2-4.7
			C23.1,191.6,22.8,189.9,22.8,188.1z"/>
		<path fill="#FFFFFF" d="M60.5,206v-35.8c0-0.3,0.1-0.5,0.3-0.7s0.4-0.3,0.7-0.3h5c0.3,0,0.5,0.1,0.7,0.3c0.2,0.2,0.3,0.4,0.3,0.7
			v14.4h17.6v-14.4c0-0.3,0.1-0.5,0.3-0.7c0.2-0.2,0.4-0.3,0.7-0.3h5c0.3,0,0.5,0.1,0.7,0.3s0.3,0.4,0.3,0.7V206
			c0,0.3-0.1,0.5-0.3,0.7s-0.4,0.3-0.7,0.3h-5c-0.3,0-0.5-0.1-0.7-0.3c-0.2-0.2-0.3-0.4-0.3-0.7v-14.9H67.5V206
			c0,0.3-0.1,0.5-0.3,0.7s-0.4,0.3-0.7,0.3h-5c-0.3,0-0.5-0.1-0.7-0.3S60.5,206.2,60.5,206z"/>
		<path fill="#FFFFFF" d="M95.1,205.6l16.8-36.3c0.2-0.4,0.5-0.6,0.9-0.6h0.5c0.4,0,0.7,0.2,0.9,0.6l16.6,36.3
			c0.1,0.2,0.1,0.3,0.1,0.5c0,0.2-0.1,0.4-0.2,0.5c-0.2,0.3-0.5,0.4-0.9,0.4h-4.7c-0.4,0-0.7-0.1-0.9-0.3c-0.2-0.2-0.4-0.5-0.6-0.8
			l-2.6-5.9h-16.1l-2.7,5.9c-0.3,0.7-0.8,1.1-1.6,1.1H96c-0.4,0-0.7-0.1-0.9-0.4c-0.1-0.2-0.2-0.3-0.2-0.5
			C95,205.9,95,205.7,95.1,205.6z M107.6,194.1h10.9l-5.4-11.9h-0.2L107.6,194.1z"/>
		<path fill="#FFFFFF" d="M133.8,206v-35.8c0-0.3,0.1-0.5,0.3-0.7c0.2-0.2,0.4-0.3,0.7-0.3h5c0.3,0,0.5,0.1,0.7,0.3s0.3,0.4,0.3,0.7
			v30.3h13.8c0.3,0,0.5,0.1,0.7,0.3c0.2,0.2,0.3,0.4,0.3,0.7v4.4c0,0.3-0.1,0.5-0.3,0.7c-0.2,0.2-0.4,0.3-0.7,0.3h-19.8
			c-0.3,0-0.5-0.1-0.7-0.3C133.9,206.5,133.8,206.3,133.8,206z"/>
		<path fill="#FFFFFF" d="M159.1,206v-35.8c0-0.3,0.1-0.5,0.3-0.7c0.2-0.2,0.4-0.3,0.7-0.3h5c0.3,0,0.5,0.1,0.7,0.3s0.3,0.4,0.3,0.7
			v30.3h13.8c0.3,0,0.5,0.1,0.7,0.3c0.2,0.2,0.3,0.4,0.3,0.7v4.4c0,0.3-0.1,0.5-0.3,0.7c-0.2,0.2-0.4,0.3-0.7,0.3h-19.8
			c-0.3,0-0.5-0.1-0.7-0.3C159.1,206.5,159.1,206.3,159.1,206z"/>
		<path fill="#FFFFFF" d="M184.3,206v-35.8c0-0.3,0.1-0.5,0.3-0.7c0.2-0.2,0.4-0.3,0.7-0.3h22c0.3,0,0.5,0.1,0.7,0.3
			c0.2,0.2,0.3,0.4,0.3,0.7v4.4c0,0.3-0.1,0.5-0.3,0.7s-0.4,0.3-0.7,0.3h-16v8.9h13.3c0.3,0,0.5,0.1,0.7,0.3
			c0.2,0.2,0.3,0.4,0.3,0.7v4.4c0,0.3-0.1,0.5-0.3,0.7c-0.2,0.2-0.4,0.3-0.7,0.3h-13.3v9.4h16c0.3,0,0.5,0.1,0.7,0.3
			c0.2,0.2,0.3,0.4,0.3,0.7v4.4c0,0.3-0.1,0.5-0.3,0.7s-0.4,0.3-0.7,0.3h-22c-0.3,0-0.5-0.1-0.7-0.3
			C184.4,206.5,184.3,206.3,184.3,206z"/>
		<path fill="#FFFFFF" d="M214.1,206v-36.3c0-0.3,0.1-0.5,0.3-0.7s0.5-0.3,0.7-0.3h1.4l22.5,23.9h0.1v-22.3c0-0.3,0.1-0.5,0.3-0.7
			c0.2-0.2,0.4-0.3,0.7-0.3h5c0.3,0,0.5,0.1,0.7,0.3s0.3,0.4,0.3,0.7v36.4c0,0.3-0.1,0.5-0.3,0.7c-0.2,0.2-0.4,0.3-0.7,0.3h-1.3
			l-22.5-24.8h-0.1V206c0,0.3-0.1,0.5-0.3,0.7c-0.2,0.2-0.4,0.3-0.7,0.3h-5c-0.3,0-0.5-0.1-0.7-0.3
			C214.2,206.5,214.1,206.2,214.1,206z"/>
		<path fill="#FFFFFF" d="M252.6,195.8c-1-2.4-1.5-4.9-1.5-7.6s0.5-5.2,1.5-7.6c1-2.4,2.3-4.5,4-6.2s3.7-3.1,6-4.1
			c2.3-1,4.8-1.5,7.4-1.5c2.4,0,4.7,0.4,7,1.3c2.3,0.9,4.3,2.1,6.2,3.7c0.2,0.2,0.3,0.5,0.3,0.8s-0.1,0.6-0.3,0.8l-3.4,3.5
			c-0.4,0.4-0.9,0.4-1.4,0c-2.3-2.1-5.1-3.1-8.2-3.1c-2.2,0-4.2,0.6-6.1,1.7c-1.9,1.1-3.3,2.7-4.4,4.6c-1.1,1.9-1.6,4-1.6,6.2
			c0,2.2,0.5,4.2,1.6,6.1c1.1,1.9,2.5,3.4,4.4,4.5c1.9,1.1,3.9,1.7,6.1,1.7c2,0,4.1-0.4,6.4-1.3v-4.4h-4.3c-0.3,0-0.5-0.1-0.7-0.3
			c-0.2-0.2-0.3-0.4-0.3-0.7v-4.4c0-0.3,0.1-0.6,0.3-0.8c0.2-0.2,0.4-0.3,0.7-0.3h10.4c0.3,0,0.5,0.1,0.7,0.3
			c0.2,0.2,0.3,0.4,0.3,0.7v13.8c0,0.4-0.1,0.6-0.4,0.8c-0.2,0.1-0.4,0.2-0.7,0.4c-0.3,0.2-0.9,0.4-1.8,0.8
			c-0.9,0.4-1.9,0.8-2.8,1.1c-1,0.3-2.2,0.6-3.7,0.8c-1.5,0.3-2.9,0.4-4.4,0.4c-2.6,0-5-0.5-7.4-1.5c-2.3-1-4.4-2.4-6-4.1
			S253.6,198.2,252.6,195.8z"/>
		<path fill="#FFFFFF" d="M290.3,206v-35.8c0-0.3,0.1-0.5,0.3-0.7c0.2-0.2,0.4-0.3,0.7-0.3h22c0.3,0,0.5,0.1,0.7,0.3
			c0.2,0.2,0.3,0.4,0.3,0.7v4.4c0,0.3-0.1,0.5-0.3,0.7s-0.4,0.3-0.7,0.3h-16v8.9h13.3c0.3,0,0.5,0.1,0.7,0.3
			c0.2,0.2,0.3,0.4,0.3,0.7v4.4c0,0.3-0.1,0.5-0.3,0.7c-0.2,0.2-0.4,0.3-0.7,0.3h-13.3v9.4h16c0.3,0,0.5,0.1,0.7,0.3
			c0.2,0.2,0.3,0.4,0.3,0.7v4.4c0,0.3-0.1,0.5-0.3,0.7s-0.4,0.3-0.7,0.3h-22c-0.3,0-0.5-0.1-0.7-0.3S290.3,206.3,290.3,206z"/>
		<path fill="#FFFFFF" d="M317.6,202.4c0,0,0-0.1,0-0.1c0-0.2,0.1-0.5,0.2-0.9l1.9-3.4c0.2-0.4,0.5-0.6,0.9-0.6s0.7,0,0.9,0.2
			l0.3,0.2c0.2,0.1,0.4,0.3,0.6,0.4c0.2,0.2,0.5,0.3,0.9,0.5s0.7,0.4,1.1,0.6s0.8,0.4,1.2,0.6c0.5,0.2,0.9,0.4,1.3,0.5
			s0.9,0.3,1.4,0.4s0.9,0.1,1.3,0.1c1.4,0,2.6-0.4,3.5-1.2c0.9-0.8,1.4-1.8,1.4-3c0-1.3-0.6-2.5-1.7-3.5s-2.9-2-5.2-2.9
			c-1.4-0.6-2.7-1.2-3.8-1.8c-1.1-0.6-2.1-1.4-3.2-2.4s-1.8-2-2.4-3.3s-0.8-2.7-0.8-4.2c0-1.2,0.2-2.4,0.7-3.5
			c0.5-1.2,1.2-2.2,2.1-3.2c0.9-1,2.2-1.8,3.8-2.4c1.6-0.6,3.4-0.9,5.5-0.9c1.2,0,2.4,0.1,3.6,0.4s2.3,0.6,3.2,1.1
			c0.9,0.4,1.6,0.8,2.2,1.1c0.5,0.3,1,0.6,1.4,0.9c0.3,0.2,0.4,0.4,0.5,0.8c0.1,0.4,0,0.7-0.2,0.9l-1.9,3c-0.2,0.3-0.5,0.6-0.8,0.7
			c-0.3,0.1-0.6,0.1-1-0.1c-3.1-2-5.6-3-7.3-3c-1.4,0-2.6,0.4-3.5,1.2c-0.9,0.8-1.3,1.7-1.3,2.6c0,1.2,0.5,2.3,1.5,3.3
			c1,0.9,2.6,1.9,4.9,2.8c0.8,0.3,1.6,0.7,2.2,1c0.6,0.3,1.3,0.7,2.1,1.1c0.8,0.4,1.4,0.9,2,1.4c0.6,0.5,1.2,1,1.7,1.6s1,1.3,1.4,2
			s0.7,1.5,0.9,2.3c0.2,0.9,0.3,1.8,0.3,2.8c0,3-1.1,5.6-3.3,7.7c-2.2,2.2-5,3.2-8.6,3.2c-1.6,0-3.1-0.2-4.5-0.5
			c-1.4-0.3-2.6-0.8-3.6-1.3c-1-0.5-1.8-1-2.3-1.4c-0.6-0.4-1-0.8-1.4-1.2C317.8,202.9,317.6,202.6,317.6,202.4z"/>
	</g>
	<path fill="#FFFFFF" d="M205.7,240h-53.3c-2.6,0-4.7-2.1-4.7-4.7l0,0c0-2.6,2.1-4.7,4.7-4.7h53.3c2.6,0,4.7,2.1,4.7,4.7l0,0
		C210.3,237.9,208.2,240,205.7,240z"/>
</g>
</svg>
