<?xml version="1.0" encoding="utf-8"?>
<!-- Generator: Adobe Illustrator 18.1.1, SVG Export Plug-In . SVG Version: 6.00 Build 0)  -->
<svg version="1.1" xmlns="http://www.w3.org/2000/svg" xmlns:xlink="http://www.w3.org/1999/xlink" x="0px" y="0px"
	 viewBox="0 0 358 342" enable-background="new 0 0 358 342" xml:space="preserve">
<g id="Layer_3" display="none">
	<rect x="-11.3" y="-14.3" display="inline" fill="#0C0C0C" width="386" height="372.7"/>
</g>
<g id="Layer_2" display="none">
	<g display="inline">
		<defs>
			<rect id="SVGID_1_" x="-70.9" y="-67.8" width="502" height="479.6"/>
		</defs>
		<clipPath id="SVGID_2_">
			<use xlink:href="#SVGID_1_"  overflow="visible"/>
		</clipPath>
		<g clip-path="url(#SVGID_2_)">
			<linearGradient id="SVGID_3_" gradientUnits="userSpaceOnUse" x1="0" y1="171" x2="358" y2="171">
				<stop  offset="0" style="stop-color:#D1D41D"/>
				<stop  offset="1" style="stop-color:#79B834"/>
			</linearGradient>
			<path fill="url(#SVGID_3_)" d="M349,9v324H9V9H349 M358,0H0v342h358V0L358,0z"/>
		</g>
	</g>
	<g display="inline">
		<rect x="18" y="117" fill="none" width="322.7" height="159.3"/>
		<path fill="#FFFFFF" d="M104.1,141.5v-23.8c0-0.2,0.1-0.3,0.2-0.5s0.3-0.2,0.5-0.2h14.7c0.2,0,0.4,0.1,0.5,0.2s0.2,0.3,0.2,0.5v3
			c0,0.2-0.1,0.3-0.2,0.5s-0.3,0.2-0.5,0.2h-10.7v5.9h8.9c0.2,0,0.3,0.1,0.5,0.2c0.1,0.1,0.2,0.3,0.2,0.5v3c0,0.2-0.1,0.4-0.2,0.5
			c-0.1,0.1-0.3,0.2-0.5,0.2h-8.9v6.3h10.7c0.2,0,0.4,0.1,0.5,0.2s0.2,0.3,0.2,0.5v3c0,0.2-0.1,0.3-0.2,0.5s-0.3,0.2-0.5,0.2h-14.7
			c-0.2,0-0.4-0.1-0.5-0.2S104.1,141.7,104.1,141.5z"/>
		<path fill="#FFFFFF" d="M123,141.9c-0.1-0.1-0.1-0.2-0.1-0.3c0-0.1,0-0.2,0.1-0.4l7.5-11.9l-7.2-11.3c-0.1-0.2-0.1-0.5,0-0.7
			s0.3-0.3,0.6-0.3h4.2c0.2,0,0.4,0.1,0.6,0.3l4.6,7.6h0l4.7-7.6c0.1-0.2,0.3-0.3,0.6-0.3h4.2c0.3,0,0.5,0.1,0.6,0.3s0.1,0.5,0,0.7
			l-7.2,11.3l7.5,11.9c0.1,0.1,0.1,0.3,0.1,0.4c0,0.1,0,0.2-0.1,0.3c-0.1,0.2-0.3,0.3-0.6,0.3h-3.9c-0.3,0-0.5-0.1-0.6-0.3l-5.2-8.2
			h-0.1l-5.1,8.2c-0.2,0.2-0.4,0.3-0.6,0.3h-3.9C123.4,142.2,123.2,142.1,123,141.9z"/>
		<path fill="#FFFFFF" d="M148,141.5v-23.8c0-0.2,0.1-0.3,0.2-0.5s0.3-0.2,0.5-0.2h8.5c2.2,0,4.1,0.8,5.7,2.3
			c1.6,1.6,2.4,3.4,2.4,5.6c0,1.5-0.4,2.8-1.1,4.1c-0.7,1.2-1.7,2.2-2.9,3c-1.2,0.7-2.6,1.1-4,1.1h-4.5v8.5c0,0.2-0.1,0.3-0.2,0.5
			s-0.3,0.2-0.5,0.2h-3.3c-0.2,0-0.4-0.1-0.5-0.2S148,141.7,148,141.5z M152.7,128.7h4.2c1,0,1.9-0.4,2.6-1.1
			c0.7-0.7,1.1-1.6,1.1-2.7c0-1-0.4-1.8-1.1-2.5c-0.7-0.7-1.6-1-2.6-1h-4.2V128.7z"/>
		<path fill="#FFFFFF" d="M169.3,141.5v-23.8c0-0.2,0.1-0.3,0.2-0.5s0.3-0.2,0.5-0.2h3.3c0.2,0,0.3,0.1,0.5,0.2s0.2,0.3,0.2,0.5
			v20.2h9.2c0.2,0,0.4,0.1,0.5,0.2s0.2,0.3,0.2,0.5v3c0,0.2-0.1,0.3-0.2,0.5s-0.3,0.2-0.5,0.2H170c-0.2,0-0.4-0.1-0.5-0.2
			S169.3,141.7,169.3,141.5z"/>
		<path fill="#FFFFFF" d="M185.4,129.6c0-1.2,0.2-2.3,0.5-3.5s0.7-2.2,1.3-3.1c0.6-0.9,1.2-1.8,2-2.6c0.8-0.8,1.7-1.5,2.6-2
			s2-1,3.1-1.3s2.3-0.5,3.5-0.5c1.8,0,3.5,0.3,5.1,1s3,1.6,4.1,2.8s2.1,2.5,2.8,4.1c0.7,1.6,1,3.3,1,5.1s-0.3,3.5-1,5.1
			s-1.6,3-2.8,4.1c-1.2,1.1-2.5,2.1-4.1,2.7s-3.3,1-5.1,1s-3.5-0.3-5.1-1s-3-1.6-4.1-2.7s-2.1-2.5-2.7-4.1S185.4,131.4,185.4,129.6z
			 M190.1,129.6c0,2.3,0.8,4.2,2.4,5.8c1.6,1.6,3.6,2.4,5.8,2.4c1.5,0,2.9-0.4,4.1-1.1c1.3-0.7,2.3-1.7,3-3s1.1-2.6,1.1-4.1
			s-0.4-2.9-1.1-4.1s-1.8-2.3-3-3c-1.3-0.8-2.6-1.1-4.1-1.1s-2.9,0.4-4.1,1.1c-1.3,0.8-2.3,1.8-3,3
			C190.5,126.8,190.1,128.1,190.1,129.6z"/>
		<path fill="#FFFFFF" d="M216,141.5v-23.8c0-0.2,0.1-0.3,0.2-0.5s0.3-0.2,0.5-0.2H227c2.2,0,4,0.8,5.6,2.3c1.5,1.5,2.3,3.3,2.3,5.5
			c0,1.6-0.5,3.1-1.5,4.4c-1,1.3-2.3,2.3-3.9,2.9l5,9.1c0.1,0.2,0.1,0.5,0,0.7c-0.1,0.2-0.3,0.3-0.6,0.3h-3.8
			c-0.3,0-0.5-0.1-0.6-0.3l-4.8-9.5h-4v9.1c0,0.2-0.1,0.3-0.2,0.5c-0.1,0.1-0.3,0.2-0.5,0.2h-3.3c-0.2,0-0.4-0.1-0.5-0.2
			S216,141.7,216,141.5z M220.7,128.5h5.9c1,0,1.8-0.4,2.5-1.1s1.1-1.6,1.1-2.6c0-0.9-0.4-1.8-1.1-2.5s-1.5-1-2.5-1h-5.9V128.5z"/>
		<path fill="#FFFFFF" d="M240,141.5v-23.8c0-0.2,0.1-0.3,0.2-0.5s0.3-0.2,0.5-0.2h14.7c0.2,0,0.4,0.1,0.5,0.2s0.2,0.3,0.2,0.5v3
			c0,0.2-0.1,0.3-0.2,0.5s-0.3,0.2-0.5,0.2h-10.7v5.9h8.9c0.2,0,0.3,0.1,0.5,0.2c0.1,0.1,0.2,0.3,0.2,0.5v3c0,0.2-0.1,0.4-0.2,0.5
			c-0.1,0.1-0.3,0.2-0.5,0.2h-8.9v6.3h10.7c0.2,0,0.4,0.1,0.5,0.2s0.2,0.3,0.2,0.5v3c0,0.2-0.1,0.3-0.2,0.5s-0.3,0.2-0.5,0.2h-14.7
			c-0.2,0-0.4-0.1-0.5-0.2S240,141.7,240,141.5z"/>
		<path fill="#FFFFFF" d="M22.8,188.1c0-2.6,0.5-5.2,1.5-7.6s2.4-4.5,4.1-6.2c1.7-1.7,3.8-3.1,6.2-4.1c2.4-1,4.9-1.5,7.6-1.5
			c2.7,0,5,0.4,7.1,1.2c2.1,0.8,4.1,2.1,5.9,3.8c0.2,0.2,0.3,0.5,0.4,0.8c0,0.3-0.1,0.6-0.3,0.8l-3.4,3.4c-0.2,0.2-0.4,0.3-0.7,0.3
			c-0.3,0-0.5-0.1-0.7-0.3c-1.2-1-2.5-1.9-4-2.5s-3-0.9-4.5-0.9c-2.3,0-4.4,0.6-6.3,1.7c-1.9,1.2-3.4,2.7-4.4,4.6s-1.6,4-1.6,6.3
			c0,2.3,0.5,4.3,1.6,6.3c1.1,1.9,2.5,3.5,4.4,4.6c1.9,1.1,4,1.7,6.3,1.7c3,0,5.9-1,8.4-3.1c0.2-0.2,0.5-0.3,0.7-0.3
			s0.5,0.1,0.6,0.3l3.4,3.5c0.2,0.2,0.3,0.4,0.3,0.7c0,0.3-0.1,0.6-0.3,0.8c-3.6,3.5-8,5.2-13.1,5.2c-1.8,0-3.5-0.2-5.2-0.7
			s-3.2-1.1-4.7-1.9s-2.7-1.8-3.9-3c-1.2-1.2-2.2-2.5-3-3.9c-0.8-1.4-1.5-3-2-4.7C23,191.6,22.8,189.9,22.8,188.1z"/>
		<path fill="#FFFFFF" d="M59.8,206v-35.8c0-0.3,0.1-0.5,0.3-0.7s0.4-0.3,0.7-0.3h5c0.3,0,0.5,0.1,0.7,0.3c0.2,0.2,0.3,0.4,0.3,0.7
			v14.4h17.6v-14.4c0-0.3,0.1-0.5,0.3-0.7c0.2-0.2,0.4-0.3,0.7-0.3h5c0.3,0,0.5,0.1,0.7,0.3s0.3,0.4,0.3,0.7V206
			c0,0.3-0.1,0.5-0.3,0.7s-0.4,0.3-0.7,0.3h-5c-0.3,0-0.5-0.1-0.7-0.3c-0.2-0.2-0.3-0.4-0.3-0.7v-14.9H66.8V206
			c0,0.3-0.1,0.5-0.3,0.7c-0.2,0.2-0.4,0.3-0.7,0.3h-5c-0.3,0-0.5-0.1-0.7-0.3S59.8,206.2,59.8,206z"/>
		<path fill="#FFFFFF" d="M93.7,205.6l16.8-36.3c0.2-0.4,0.5-0.6,0.9-0.6h0.5c0.4,0,0.7,0.2,0.9,0.6l16.6,36.3
			c0.1,0.2,0.1,0.3,0.1,0.5c0,0.2-0.1,0.4-0.2,0.5c-0.2,0.3-0.5,0.4-0.9,0.4h-4.7c-0.4,0-0.7-0.1-0.9-0.3c-0.2-0.2-0.4-0.5-0.6-0.8
			l-2.6-5.9h-16.1l-2.7,5.9c-0.3,0.7-0.8,1.1-1.6,1.1h-4.7c-0.4,0-0.7-0.1-0.9-0.4c-0.1-0.2-0.2-0.3-0.2-0.5
			C93.6,205.9,93.6,205.7,93.7,205.6z M106.1,194.1H117l-5.4-11.9h-0.2L106.1,194.1z"/>
		<path fill="#FFFFFF" d="M131.7,206v-35.8c0-0.3,0.1-0.5,0.3-0.7c0.2-0.2,0.4-0.3,0.7-0.3h5c0.3,0,0.5,0.1,0.7,0.3s0.3,0.4,0.3,0.7
			v30.3h13.8c0.3,0,0.5,0.1,0.7,0.3c0.2,0.2,0.3,0.4,0.3,0.7v4.4c0,0.3-0.1,0.5-0.3,0.7c-0.2,0.2-0.4,0.3-0.7,0.3h-19.8
			c-0.3,0-0.5-0.1-0.7-0.3C131.7,206.5,131.7,206.3,131.7,206z"/>
		<path fill="#FFFFFF" d="M156.2,206v-35.8c0-0.3,0.1-0.5,0.3-0.7c0.2-0.2,0.4-0.3,0.7-0.3h5c0.3,0,0.5,0.1,0.7,0.3s0.3,0.4,0.3,0.7
			v30.3H177c0.3,0,0.5,0.1,0.7,0.3c0.2,0.2,0.3,0.4,0.3,0.7v4.4c0,0.3-0.1,0.5-0.3,0.7c-0.2,0.2-0.4,0.3-0.7,0.3h-19.8
			c-0.3,0-0.5-0.1-0.7-0.3C156.3,206.5,156.2,206.3,156.2,206z"/>
		<path fill="#FFFFFF" d="M180.8,206v-35.8c0-0.3,0.1-0.5,0.3-0.7c0.2-0.2,0.4-0.3,0.7-0.3h22c0.3,0,0.5,0.1,0.7,0.3
			c0.2,0.2,0.3,0.4,0.3,0.7v4.4c0,0.3-0.1,0.5-0.3,0.7c-0.2,0.2-0.4,0.3-0.7,0.3h-16v8.9h13.3c0.3,0,0.5,0.1,0.7,0.3
			c0.2,0.2,0.3,0.4,0.3,0.7v4.4c0,0.3-0.1,0.5-0.3,0.7c-0.2,0.2-0.4,0.3-0.7,0.3h-13.3v9.4h16c0.3,0,0.5,0.1,0.7,0.3
			c0.2,0.2,0.3,0.4,0.3,0.7v4.4c0,0.3-0.1,0.5-0.3,0.7c-0.2,0.2-0.4,0.3-0.7,0.3h-22c-0.3,0-0.5-0.1-0.7-0.3
			C180.9,206.5,180.8,206.3,180.8,206z"/>
		<path fill="#FFFFFF" d="M209.8,206v-36.3c0-0.3,0.1-0.5,0.3-0.7c0.2-0.2,0.5-0.3,0.7-0.3h1.4l22.5,23.9h0.1v-22.3
			c0-0.3,0.1-0.5,0.3-0.7c0.2-0.2,0.4-0.3,0.7-0.3h5c0.3,0,0.5,0.1,0.7,0.3s0.3,0.4,0.3,0.7v36.4c0,0.3-0.1,0.5-0.3,0.7
			c-0.2,0.2-0.4,0.3-0.7,0.3h-1.3l-22.5-24.8h-0.1V206c0,0.3-0.1,0.5-0.3,0.7c-0.2,0.2-0.4,0.3-0.7,0.3h-5c-0.3,0-0.5-0.1-0.7-0.3
			C209.9,206.5,209.8,206.2,209.8,206z"/>
		<path fill="#FFFFFF" d="M247.7,195.8c-1-2.4-1.5-4.9-1.5-7.6s0.5-5.2,1.5-7.6c1-2.4,2.3-4.5,4-6.2s3.7-3.1,6-4.1
			c2.3-1,4.8-1.5,7.4-1.5c2.4,0,4.7,0.4,7,1.3c2.3,0.9,4.3,2.1,6.2,3.7c0.2,0.2,0.3,0.5,0.3,0.8s-0.1,0.6-0.3,0.8l-3.4,3.5
			c-0.4,0.4-0.9,0.4-1.4,0c-2.3-2.1-5.1-3.1-8.2-3.1c-2.2,0-4.2,0.6-6.1,1.7c-1.9,1.1-3.3,2.7-4.4,4.6c-1.1,1.9-1.6,4-1.6,6.2
			c0,2.2,0.5,4.2,1.6,6.1c1.1,1.9,2.5,3.4,4.4,4.5s3.9,1.7,6.1,1.7c2,0,4.1-0.4,6.4-1.3v-4.4h-4.3c-0.3,0-0.5-0.1-0.7-0.3
			c-0.2-0.2-0.3-0.4-0.3-0.7v-4.4c0-0.3,0.1-0.6,0.3-0.8s0.4-0.3,0.7-0.3H278c0.3,0,0.5,0.1,0.7,0.3c0.2,0.2,0.3,0.4,0.3,0.7v13.8
			c0,0.4-0.1,0.6-0.4,0.8c-0.2,0.1-0.4,0.2-0.7,0.4c-0.3,0.2-0.9,0.4-1.8,0.8c-0.9,0.4-1.9,0.8-2.8,1.1c-1,0.3-2.2,0.6-3.7,0.8
			c-1.5,0.3-2.9,0.4-4.4,0.4c-2.6,0-5-0.5-7.4-1.5c-2.3-1-4.4-2.4-6-4.1S248.7,198.2,247.7,195.8z"/>
		<path fill="#FFFFFF" d="M284.6,206v-35.8c0-0.3,0.1-0.5,0.3-0.7c0.2-0.2,0.4-0.3,0.7-0.3h22c0.3,0,0.5,0.1,0.7,0.3
			c0.2,0.2,0.3,0.4,0.3,0.7v4.4c0,0.3-0.1,0.5-0.3,0.7c-0.2,0.2-0.4,0.3-0.7,0.3h-16v8.9H305c0.3,0,0.5,0.1,0.7,0.3
			c0.2,0.2,0.3,0.4,0.3,0.7v4.4c0,0.3-0.1,0.5-0.3,0.7c-0.2,0.2-0.4,0.3-0.7,0.3h-13.3v9.4h16c0.3,0,0.5,0.1,0.7,0.3
			c0.2,0.2,0.3,0.4,0.3,0.7v4.4c0,0.3-0.1,0.5-0.3,0.7c-0.2,0.2-0.4,0.3-0.7,0.3h-22c-0.3,0-0.5-0.1-0.7-0.3
			C284.7,206.5,284.6,206.3,284.6,206z"/>
		<path fill="#FFFFFF" d="M311.2,202.4c0,0,0-0.1,0-0.1c0-0.2,0.1-0.5,0.2-0.9l1.9-3.4c0.2-0.4,0.5-0.6,0.9-0.6s0.7,0,0.9,0.2
			l0.3,0.2c0.2,0.1,0.4,0.3,0.6,0.4c0.2,0.2,0.5,0.3,0.9,0.5s0.7,0.4,1.1,0.6c0.4,0.2,0.8,0.4,1.2,0.6c0.5,0.2,0.9,0.4,1.3,0.5
			c0.4,0.1,0.9,0.3,1.4,0.4c0.5,0.1,0.9,0.1,1.3,0.1c1.4,0,2.6-0.4,3.5-1.2c0.9-0.8,1.4-1.8,1.4-3c0-1.3-0.6-2.5-1.7-3.5
			c-1.1-1-2.9-2-5.2-2.9c-1.4-0.6-2.7-1.2-3.8-1.8c-1.1-0.6-2.1-1.4-3.2-2.4s-1.8-2-2.4-3.3s-0.8-2.7-0.8-4.2c0-1.2,0.2-2.4,0.7-3.5
			c0.5-1.2,1.2-2.2,2.1-3.2s2.2-1.8,3.8-2.4c1.6-0.6,3.4-0.9,5.5-0.9c1.2,0,2.4,0.1,3.6,0.4c1.2,0.3,2.3,0.6,3.2,1.1
			c0.9,0.4,1.6,0.8,2.2,1.1c0.5,0.3,1,0.6,1.4,0.9c0.3,0.2,0.4,0.4,0.5,0.8c0.1,0.4,0,0.7-0.2,0.9l-1.9,3c-0.2,0.3-0.5,0.6-0.8,0.7
			c-0.3,0.1-0.6,0.1-1-0.1c-3.1-2-5.6-3-7.3-3c-1.4,0-2.6,0.4-3.5,1.2c-0.9,0.8-1.3,1.7-1.3,2.6c0,1.2,0.5,2.3,1.5,3.3
			c1,0.9,2.6,1.9,4.9,2.8c0.8,0.3,1.6,0.7,2.2,1c0.6,0.3,1.3,0.7,2.1,1.1c0.8,0.4,1.4,0.9,2,1.4c0.6,0.5,1.2,1,1.7,1.6s1,1.3,1.4,2
			s0.7,1.5,0.9,2.3c0.2,0.9,0.3,1.8,0.3,2.8c0,3-1.1,5.6-3.3,7.7c-2.2,2.2-5,3.2-8.6,3.2c-1.6,0-3.1-0.2-4.5-0.5
			c-1.4-0.3-2.6-0.8-3.6-1.3c-1-0.5-1.8-1-2.3-1.4c-0.6-0.4-1-0.8-1.4-1.2C311.4,202.9,311.3,202.6,311.2,202.4z"/>
	</g>
	<path display="inline" fill="#FFFFFF" d="M205.7,240h-53.3c-2.6,0-4.7-2.1-4.7-4.7v0c0-2.6,2.1-4.7,4.7-4.7h53.3
		c2.6,0,4.7,2.1,4.7,4.7v0C210.3,237.9,208.2,240,205.7,240z"/>
</g>
<g id="Layer_4" display="none">
	<g display="inline">
		<defs>
			<rect id="SVGID_4_" x="-70.9" y="-67.8" width="502" height="479.6"/>
		</defs>
		<clipPath id="SVGID_5_">
			<use xlink:href="#SVGID_4_"  overflow="visible"/>
		</clipPath>
		<g clip-path="url(#SVGID_5_)">
			<linearGradient id="SVGID_6_" gradientUnits="userSpaceOnUse" x1="0" y1="171" x2="358" y2="171">
				<stop  offset="0" style="stop-color:#22B79E"/>
				<stop  offset="1" style="stop-color:#0E82D8"/>
			</linearGradient>
			<path fill="url(#SVGID_6_)" d="M349,9v324H9V9H349 M358,0H0v342h358V0L358,0z"/>
		</g>
	</g>
	<g display="inline">
		<rect x="18" y="117" fill="none" width="322.7" height="159.3"/>
		<path fill="#FFFFFF" d="M94,139.9c-0.1-0.1-0.1-0.3-0.1-0.4c0-0.2,0.1-0.3,0.2-0.5l1.9-1.9c0.2-0.2,0.4-0.2,0.5-0.2
			c0.2,0,0.4,0.1,0.5,0.2c0.7,0.7,1.5,1.1,2.4,1.1c0.8,0,1.4-0.3,2-0.9c0.6-0.6,0.9-1.5,0.9-2.7v-16.9c0-0.2,0.1-0.3,0.2-0.5
			c0.1-0.1,0.3-0.2,0.5-0.2h3.4c0.2,0,0.4,0.1,0.5,0.2s0.2,0.3,0.2,0.5v17c0,2.4-0.7,4.4-2.1,5.8s-3.2,2.1-5.4,2.1
			C97.2,142.6,95.4,141.7,94,139.9z"/>
		<path fill="#FFFFFF" d="M111.1,129.6c0-1.2,0.2-2.3,0.5-3.5c0.3-1.1,0.7-2.2,1.3-3.1s1.2-1.8,2-2.6s1.7-1.5,2.6-2
			c1-0.6,2-1,3.1-1.3s2.3-0.5,3.5-0.5c1.8,0,3.5,0.3,5.1,1c1.6,0.7,3,1.6,4.1,2.8s2.1,2.5,2.8,4.1c0.7,1.6,1,3.3,1,5.1
			s-0.3,3.5-1,5.1c-0.7,1.6-1.6,3-2.8,4.1c-1.2,1.1-2.5,2.1-4.1,2.7c-1.6,0.7-3.3,1-5.1,1s-3.5-0.3-5.1-1c-1.6-0.7-3-1.6-4.1-2.7
			c-1.1-1.1-2.1-2.5-2.7-4.1C111.4,133.1,111.1,131.4,111.1,129.6z M115.8,129.6c0,2.3,0.8,4.2,2.4,5.8c1.6,1.6,3.6,2.4,5.8,2.4
			c1.5,0,2.9-0.4,4.1-1.1c1.3-0.7,2.3-1.7,3-3s1.1-2.6,1.1-4.1s-0.4-2.9-1.1-4.1s-1.8-2.3-3-3c-1.3-0.8-2.6-1.1-4.1-1.1
			c-1.5,0-2.9,0.4-4.1,1.1c-1.3,0.8-2.3,1.8-3,3C116.2,126.8,115.8,128.1,115.8,129.6z"/>
		<path fill="#FFFFFF" d="M141.7,141.5v-23.8c0-0.2,0.1-0.3,0.2-0.5c0.1-0.1,0.3-0.2,0.5-0.2h3.3c0.2,0,0.3,0.1,0.5,0.2
			s0.2,0.3,0.2,0.5v23.8c0,0.2-0.1,0.3-0.2,0.5s-0.3,0.2-0.5,0.2h-3.3c-0.2,0-0.3-0.1-0.5-0.2C141.8,141.8,141.7,141.7,141.7,141.5z
			"/>
		<path fill="#FFFFFF" d="M153,141.5v-24.2c0-0.2,0.1-0.3,0.2-0.5s0.3-0.2,0.5-0.2h0.9l15,15.9h0v-14.9c0-0.2,0.1-0.3,0.2-0.5
			s0.3-0.2,0.5-0.2h3.3c0.2,0,0.3,0.1,0.5,0.2s0.2,0.3,0.2,0.5v24.2c0,0.2-0.1,0.3-0.2,0.4s-0.3,0.2-0.5,0.2h-0.9l-15-16.5h0v15.5
			c0,0.2-0.1,0.3-0.2,0.5s-0.3,0.2-0.5,0.2h-3.3c-0.2,0-0.3-0.1-0.5-0.2C153,141.8,153,141.7,153,141.5z"/>
		<path fill="#FFFFFF" d="M186.9,129.6c0-1.2,0.2-2.3,0.5-3.5s0.7-2.2,1.3-3.1c0.6-0.9,1.2-1.8,2-2.6c0.8-0.8,1.7-1.5,2.6-2
			s2-1,3.1-1.3c1.1-0.3,2.3-0.5,3.5-0.5c1.8,0,3.5,0.3,5.1,1s3,1.6,4.1,2.8s2.1,2.5,2.8,4.1c0.7,1.6,1,3.3,1,5.1s-0.3,3.5-1,5.1
			s-1.6,3-2.8,4.1c-1.2,1.1-2.5,2.1-4.1,2.7s-3.3,1-5.1,1s-3.5-0.3-5.1-1s-3-1.6-4.1-2.7s-2.1-2.5-2.7-4.1S186.9,131.4,186.9,129.6z
			 M191.6,129.6c0,2.3,0.8,4.2,2.4,5.8c1.6,1.6,3.6,2.4,5.8,2.4c1.5,0,2.9-0.4,4.1-1.1c1.3-0.7,2.3-1.7,3-3s1.1-2.6,1.1-4.1
			s-0.4-2.9-1.1-4.1s-1.8-2.3-3-3c-1.3-0.8-2.6-1.1-4.1-1.1s-2.9,0.4-4.1,1.1c-1.3,0.8-2.3,1.8-3,3
			C192,126.8,191.6,128.1,191.6,129.6z"/>
		<path fill="#FFFFFF" d="M217.2,132.7v-15c0-0.2,0.1-0.3,0.2-0.5c0.1-0.1,0.3-0.2,0.5-0.2h3.4c0.2,0,0.4,0.1,0.5,0.2
			c0.1,0.1,0.2,0.3,0.2,0.5v14.7c0,1.6,0.5,2.9,1.5,3.9c1,1,2.2,1.6,3.8,1.6c1.5,0,2.8-0.5,3.8-1.6c1-1,1.5-2.3,1.5-3.9v-14.8
			c0-0.2,0.1-0.3,0.2-0.5s0.3-0.2,0.5-0.2h3.4c0.2,0,0.3,0.1,0.5,0.2c0.1,0.1,0.2,0.3,0.2,0.5v15c0,1.3-0.3,2.6-0.8,3.8
			c-0.5,1.2-1.2,2.3-2.1,3.2c-0.9,0.9-2,1.6-3.2,2.1c-1.2,0.5-2.6,0.8-4,0.8c-1.9,0-3.5-0.4-5.1-1.3c-1.5-0.9-2.7-2.1-3.6-3.6
			S217.2,134.5,217.2,132.7z"/>
		<path fill="#FFFFFF" d="M243.4,141.5v-23.8c0-0.2,0.1-0.3,0.2-0.5s0.3-0.2,0.5-0.2h10.3c2.2,0,4,0.8,5.6,2.3
			c1.5,1.5,2.3,3.3,2.3,5.5c0,1.6-0.5,3.1-1.5,4.4c-1,1.3-2.3,2.3-3.9,2.9l5,9.1c0.1,0.2,0.1,0.5,0,0.7c-0.1,0.2-0.3,0.3-0.6,0.3
			h-3.8c-0.3,0-0.5-0.1-0.6-0.3l-4.8-9.5h-4v9.1c0,0.2-0.1,0.3-0.2,0.5c-0.1,0.1-0.3,0.2-0.5,0.2h-3.3c-0.2,0-0.4-0.1-0.5-0.2
			S243.4,141.7,243.4,141.5z M248.1,128.5h5.9c1,0,1.8-0.4,2.5-1.1s1.1-1.6,1.1-2.6c0-0.9-0.4-1.8-1.1-2.5s-1.5-1-2.5-1h-5.9V128.5z
			"/>
		<path fill="#FFFFFF" d="M92.3,206v-35.8c0-0.3,0.1-0.5,0.3-0.7c0.2-0.2,0.4-0.3,0.7-0.3h22c0.3,0,0.5,0.1,0.7,0.3
			c0.2,0.2,0.3,0.4,0.3,0.7v4.4c0,0.3-0.1,0.5-0.3,0.7c-0.2,0.2-0.4,0.3-0.7,0.3h-16v8.9h13.3c0.3,0,0.5,0.1,0.7,0.3
			c0.2,0.2,0.3,0.4,0.3,0.7v4.4c0,0.3-0.1,0.5-0.3,0.7c-0.2,0.2-0.4,0.3-0.7,0.3H99.4v9.4h16c0.3,0,0.5,0.1,0.7,0.3
			c0.2,0.2,0.3,0.4,0.3,0.7v4.4c0,0.3-0.1,0.5-0.3,0.7c-0.2,0.2-0.4,0.3-0.7,0.3h-22c-0.3,0-0.5-0.1-0.7-0.3
			C92.4,206.5,92.3,206.3,92.3,206z"/>
		<path fill="#FFFFFF" d="M116.5,170.6c-0.1-0.2-0.1-0.3-0.1-0.5c0-0.2,0.1-0.3,0.2-0.5c0.2-0.3,0.5-0.4,0.9-0.4h5.5
			c0.5,0,0.8,0.2,0.9,0.6l10.4,23.2h0.4l10.4-23.2c0.2-0.4,0.5-0.6,0.9-0.6h5.5c0.4,0,0.7,0.1,0.9,0.4c0.1,0.2,0.2,0.3,0.2,0.5
			c0,0.2,0,0.3-0.1,0.5l-16.7,36.3c-0.2,0.4-0.5,0.6-0.9,0.6h-0.5c-0.4,0-0.7-0.2-0.9-0.6L116.5,170.6z"/>
		<path fill="#FFFFFF" d="M154.4,206v-35.8c0-0.3,0.1-0.5,0.3-0.7c0.2-0.2,0.4-0.3,0.7-0.3h22c0.3,0,0.5,0.1,0.7,0.3
			c0.2,0.2,0.3,0.4,0.3,0.7v4.4c0,0.3-0.1,0.5-0.3,0.7c-0.2,0.2-0.4,0.3-0.7,0.3h-16v8.9h13.3c0.3,0,0.5,0.1,0.7,0.3
			c0.2,0.2,0.3,0.4,0.3,0.7v4.4c0,0.3-0.1,0.5-0.3,0.7c-0.2,0.2-0.4,0.3-0.7,0.3h-13.3v9.4h16c0.3,0,0.5,0.1,0.7,0.3
			c0.2,0.2,0.3,0.4,0.3,0.7v4.4c0,0.3-0.1,0.5-0.3,0.7c-0.2,0.2-0.4,0.3-0.7,0.3h-22c-0.3,0-0.5-0.1-0.7-0.3
			C154.5,206.5,154.4,206.3,154.4,206z"/>
		<path fill="#FFFFFF" d="M183.5,206v-36.3c0-0.3,0.1-0.5,0.3-0.7c0.2-0.2,0.5-0.3,0.7-0.3h1.4l22.5,23.9h0.1v-22.3
			c0-0.3,0.1-0.5,0.3-0.7c0.2-0.2,0.4-0.3,0.7-0.3h5c0.3,0,0.5,0.1,0.7,0.3s0.3,0.4,0.3,0.7v36.4c0,0.3-0.1,0.5-0.3,0.7
			c-0.2,0.2-0.4,0.3-0.7,0.3h-1.3l-22.5-24.8h-0.1V206c0,0.3-0.1,0.5-0.3,0.7c-0.2,0.2-0.4,0.3-0.7,0.3h-5c-0.3,0-0.5-0.1-0.7-0.3
			C183.6,206.5,183.5,206.2,183.5,206z"/>
		<path fill="#FFFFFF" d="M218.3,174.6v-4.4c0-0.3,0.1-0.5,0.3-0.7c0.2-0.2,0.4-0.3,0.7-0.3H243c0.3,0,0.5,0.1,0.7,0.3
			c0.2,0.2,0.3,0.4,0.3,0.7v4.4c0,0.3-0.1,0.5-0.3,0.7c-0.2,0.2-0.4,0.3-0.7,0.3h-8.3V206c0,0.3-0.1,0.5-0.3,0.7s-0.4,0.3-0.7,0.3
			h-5c-0.3,0-0.5-0.1-0.7-0.3s-0.3-0.4-0.3-0.7v-30.3h-8.3c-0.3,0-0.5-0.1-0.7-0.3C218.4,175.2,218.3,174.9,218.3,174.6z"/>
		<path fill="#FFFFFF" d="M244.5,202.4c0,0,0-0.1,0-0.1c0-0.2,0.1-0.5,0.2-0.9l1.9-3.4c0.2-0.4,0.5-0.6,0.9-0.6s0.7,0,0.9,0.2
			l0.3,0.2c0.2,0.1,0.4,0.3,0.6,0.4c0.2,0.2,0.5,0.3,0.9,0.5s0.7,0.4,1.1,0.6c0.4,0.2,0.8,0.4,1.2,0.6c0.5,0.2,0.9,0.4,1.3,0.5
			c0.4,0.1,0.9,0.3,1.4,0.4c0.5,0.1,0.9,0.1,1.3,0.1c1.4,0,2.6-0.4,3.5-1.2c0.9-0.8,1.4-1.8,1.4-3c0-1.3-0.6-2.5-1.7-3.5
			c-1.1-1-2.9-2-5.2-2.9c-1.4-0.6-2.7-1.2-3.8-1.8c-1.1-0.6-2.1-1.4-3.2-2.4s-1.8-2-2.4-3.3s-0.8-2.7-0.8-4.2c0-1.2,0.2-2.4,0.7-3.5
			c0.5-1.2,1.2-2.2,2.1-3.2s2.2-1.8,3.8-2.4c1.6-0.6,3.4-0.9,5.5-0.9c1.2,0,2.4,0.1,3.6,0.4c1.2,0.3,2.3,0.6,3.2,1.1
			c0.9,0.4,1.6,0.8,2.2,1.1c0.5,0.3,1,0.6,1.4,0.9c0.3,0.2,0.4,0.4,0.5,0.8c0.1,0.4,0,0.7-0.2,0.9l-1.9,3c-0.2,0.3-0.5,0.6-0.8,0.7
			c-0.3,0.1-0.6,0.1-1-0.1c-3.1-2-5.6-3-7.3-3c-1.4,0-2.6,0.4-3.5,1.2c-0.9,0.8-1.3,1.7-1.3,2.6c0,1.2,0.5,2.3,1.5,3.3
			c1,0.9,2.6,1.9,4.9,2.8c0.8,0.3,1.6,0.7,2.2,1c0.6,0.3,1.3,0.7,2.1,1.1c0.8,0.4,1.4,0.9,2,1.4c0.6,0.5,1.2,1,1.7,1.6s1,1.3,1.4,2
			s0.7,1.5,0.9,2.3c0.2,0.9,0.3,1.8,0.3,2.8c0,3-1.1,5.6-3.3,7.7c-2.2,2.2-5,3.2-8.6,3.2c-1.6,0-3.1-0.2-4.5-0.5
			c-1.4-0.3-2.6-0.8-3.6-1.3c-1-0.5-1.8-1-2.3-1.4c-0.6-0.4-1-0.8-1.4-1.2C244.7,202.9,244.5,202.6,244.5,202.4z"/>
	</g>
	<path display="inline" fill="#FFFFFF" d="M205.7,240h-53.3c-2.6,0-4.7-2.1-4.7-4.7v0c0-2.6,2.1-4.7,4.7-4.7h53.3
		c2.6,0,4.7,2.1,4.7,4.7v0C210.3,237.9,208.2,240,205.7,240z"/>
</g>
<g id="Layer_5" display="none">
	<g display="inline">
		<defs>
			<rect id="SVGID_7_" x="-70.9" y="-67.8" width="502" height="479.6"/>
		</defs>
		<clipPath id="SVGID_8_">
			<use xlink:href="#SVGID_7_"  overflow="visible"/>
		</clipPath>
		<g clip-path="url(#SVGID_8_)">
			<linearGradient id="SVGID_9_" gradientUnits="userSpaceOnUse" x1="0" y1="171" x2="358" y2="171">
				<stop  offset="0" style="stop-color:#FAD655"/>
				<stop  offset="1" style="stop-color:#ED8711"/>
			</linearGradient>
			<path fill="url(#SVGID_9_)" d="M349,9v324H9V9H349 M358,0H0v342h358V0L358,0z"/>
		</g>
	</g>
	<g display="inline">
		<rect x="18" y="117" fill="none" width="322.7" height="159.3"/>
		<path fill="#FFFFFF" d="M139.6,141.5v-23.8c0-0.2,0.1-0.3,0.2-0.5s0.3-0.2,0.5-0.2H155c0.2,0,0.4,0.1,0.5,0.2s0.2,0.3,0.2,0.5v3
			c0,0.2-0.1,0.3-0.2,0.5s-0.3,0.2-0.5,0.2h-10.7v6.8h8.9c0.2,0,0.3,0.1,0.5,0.2s0.2,0.3,0.2,0.5v3c0,0.2-0.1,0.3-0.2,0.5
			s-0.3,0.2-0.5,0.2h-8.9v9.1c0,0.2-0.1,0.3-0.2,0.5s-0.3,0.2-0.5,0.2h-3.3c-0.2,0-0.4-0.1-0.5-0.2S139.6,141.7,139.6,141.5z"/>
		<path fill="#FFFFFF" d="M159.9,141.5v-23.8c0-0.2,0.1-0.3,0.2-0.5c0.1-0.1,0.3-0.2,0.5-0.2h3.3c0.2,0,0.3,0.1,0.5,0.2
			s0.2,0.3,0.2,0.5v23.8c0,0.2-0.1,0.3-0.2,0.5s-0.3,0.2-0.5,0.2h-3.3c-0.2,0-0.3-0.1-0.5-0.2C160,141.8,159.9,141.7,159.9,141.5z"
			/>
		<path fill="#FFFFFF" d="M171.2,141.5v-24.2c0-0.2,0.1-0.3,0.2-0.5s0.3-0.2,0.5-0.2h0.9l15,15.9h0v-14.9c0-0.2,0.1-0.3,0.2-0.5
			s0.3-0.2,0.5-0.2h3.3c0.2,0,0.3,0.1,0.5,0.2s0.2,0.3,0.2,0.5v24.2c0,0.2-0.1,0.3-0.2,0.4s-0.3,0.2-0.5,0.2H191l-15-16.5h0v15.5
			c0,0.2-0.1,0.3-0.2,0.5s-0.3,0.2-0.5,0.2h-3.3c-0.2,0-0.3-0.1-0.5-0.2C171.3,141.8,171.2,141.7,171.2,141.5z"/>
		<path fill="#FFFFFF" d="M199,141.5v-23.8c0-0.2,0.1-0.3,0.2-0.5s0.3-0.2,0.5-0.2h8.5c1.7,0,3.3,0.3,4.8,1c1.5,0.7,2.9,1.6,4,2.7
			c1.1,1.1,2,2.5,2.7,4c0.7,1.5,1,3.2,1,4.9c0,1.7-0.3,3.4-1,4.9c-0.7,1.6-1.6,2.9-2.7,4c-1.1,1.1-2.5,2-4,2.7c-1.5,0.7-3.2,1-4.9,1
			h-8.5c-0.2,0-0.3-0.1-0.5-0.2S199,141.7,199,141.5z M203.7,137.8h4.1c2.3,0,4.3-0.8,5.8-2.4s2.3-3.5,2.3-5.9
			c0-2.3-0.8-4.3-2.3-5.9c-1.5-1.6-3.5-2.4-5.8-2.4h-4.1V137.8z"/>
		<path fill="#FFFFFF" d="M62,205.8l6.4-36.3c0.1-0.5,0.4-0.8,1-0.8h0.9c0.4,0,0.7,0.2,0.9,0.5l11.9,25.5h0.2l11.9-25.5
			c0.2-0.4,0.5-0.5,0.9-0.5h0.9c0.6,0,0.9,0.3,1,0.8l6.4,36.3c0,0.1,0,0.2,0,0.3c0,0.2-0.1,0.4-0.2,0.6c-0.2,0.2-0.4,0.3-0.8,0.3
			h-4.9c-0.2,0-0.4-0.1-0.6-0.3c-0.2-0.2-0.3-0.4-0.4-0.6l-3.2-20.5H94l-9.5,21.2c-0.1,0.4-0.4,0.6-0.9,0.6h-1
			c-0.4,0-0.7-0.2-0.9-0.6l-9.6-21.2H72l-3.1,20.5c0,0.2-0.1,0.4-0.3,0.6c-0.2,0.2-0.4,0.3-0.6,0.3H63c-0.4,0-0.6-0.1-0.8-0.3
			c-0.2-0.2-0.2-0.4-0.2-0.7C62,205.9,62,205.8,62,205.8z"/>
		<path fill="#FFFFFF" d="M108.9,206v-35.8c0-0.3,0.1-0.5,0.3-0.7c0.2-0.2,0.4-0.3,0.7-0.3h22c0.3,0,0.5,0.1,0.7,0.3
			c0.2,0.2,0.3,0.4,0.3,0.7v4.4c0,0.3-0.1,0.5-0.3,0.7c-0.2,0.2-0.4,0.3-0.7,0.3h-16v8.9h13.3c0.3,0,0.5,0.1,0.7,0.3
			c0.2,0.2,0.3,0.4,0.3,0.7v4.4c0,0.3-0.1,0.5-0.3,0.7c-0.2,0.2-0.4,0.3-0.7,0.3H116v9.4h16c0.3,0,0.5,0.1,0.7,0.3
			c0.2,0.2,0.3,0.4,0.3,0.7v4.4c0,0.3-0.1,0.5-0.3,0.7c-0.2,0.2-0.4,0.3-0.7,0.3h-22c-0.3,0-0.5-0.1-0.7-0.3
			C109,206.5,108.9,206.3,108.9,206z"/>
		<path fill="#FFFFFF" d="M138,206v-36.3c0-0.3,0.1-0.5,0.3-0.7c0.2-0.2,0.5-0.3,0.7-0.3h1.4l22.5,23.9h0.1v-22.3
			c0-0.3,0.1-0.5,0.3-0.7c0.2-0.2,0.4-0.3,0.7-0.3h5c0.3,0,0.5,0.1,0.7,0.3s0.3,0.4,0.3,0.7v36.4c0,0.3-0.1,0.5-0.3,0.7
			c-0.2,0.2-0.4,0.3-0.7,0.3h-1.3l-22.5-24.8H145V206c0,0.3-0.1,0.5-0.3,0.7c-0.2,0.2-0.4,0.3-0.7,0.3h-5c-0.3,0-0.5-0.1-0.7-0.3
			S138,206.2,138,206z"/>
		<path fill="#FFFFFF" d="M172.8,174.6v-4.4c0-0.3,0.1-0.5,0.3-0.7c0.2-0.2,0.4-0.3,0.7-0.3h23.6c0.3,0,0.5,0.1,0.7,0.3
			c0.2,0.2,0.3,0.4,0.3,0.7v4.4c0,0.3-0.1,0.5-0.3,0.7c-0.2,0.2-0.4,0.3-0.7,0.3h-8.3V206c0,0.3-0.1,0.5-0.3,0.7s-0.4,0.3-0.7,0.3
			h-5c-0.3,0-0.5-0.1-0.7-0.3c-0.2-0.2-0.3-0.4-0.3-0.7v-30.3h-8.3c-0.3,0-0.5-0.1-0.7-0.3C172.9,175.2,172.8,174.9,172.8,174.6z"/>
		<path fill="#FFFFFF" d="M198.3,188.1c0-1.8,0.2-3.5,0.7-5.2c0.5-1.7,1.1-3.2,1.9-4.7c0.8-1.4,1.8-2.7,3-3.9s2.5-2.2,3.9-3
			s3-1.5,4.7-2c1.7-0.5,3.4-0.7,5.2-0.7c2.7,0,5.2,0.5,7.6,1.5c2.4,1,4.5,2.4,6.2,4.1c1.7,1.7,3.1,3.8,4.1,6.2
			c1,2.4,1.5,4.9,1.5,7.6c0,2.7-0.5,5.2-1.5,7.6c-1,2.4-2.4,4.5-4.1,6.2c-1.7,1.7-3.8,3.1-6.2,4.1c-2.4,1-4.9,1.5-7.6,1.5
			c-2.7,0-5.2-0.5-7.6-1.5c-2.4-1-4.5-2.4-6.2-4.1c-1.7-1.7-3.1-3.8-4.1-6.2C198.8,193.3,198.3,190.8,198.3,188.1z M205.3,188.1
			c0,3.4,1.2,6.3,3.6,8.7c2.4,2.4,5.3,3.6,8.7,3.6c2.2,0,4.3-0.6,6.2-1.7s3.4-2.6,4.5-4.5c1.1-1.9,1.7-4,1.7-6.2
			c0-2.2-0.6-4.3-1.7-6.2c-1.1-1.9-2.6-3.4-4.5-4.6s-4-1.7-6.2-1.7c-2.2,0-4.3,0.6-6.2,1.7s-3.4,2.6-4.5,4.6
			C205.9,183.8,205.3,185.9,205.3,188.1z"/>
		<path fill="#FFFFFF" d="M241.5,206v-35.8c0-0.3,0.1-0.5,0.3-0.7c0.2-0.2,0.4-0.3,0.7-0.3H258c3.3,0,6,1.1,8.3,3.4s3.4,5,3.4,8.2
			c0,2.4-0.7,4.6-2.2,6.6c-1.5,1.9-3.4,3.4-5.8,4.4l7.4,13.7c0.2,0.4,0.2,0.7,0,1c-0.2,0.3-0.5,0.5-0.9,0.5h-5.7
			c-0.4,0-0.7-0.2-0.9-0.5l-7.2-14.2h-6V206c0,0.3-0.1,0.5-0.3,0.7s-0.4,0.3-0.7,0.3h-5c-0.3,0-0.5-0.1-0.7-0.3
			C241.6,206.5,241.5,206.3,241.5,206z M248.6,186.4h8.8c1.4,0,2.7-0.5,3.8-1.6c1.1-1.1,1.6-2.4,1.6-3.9c0-1.4-0.5-2.7-1.6-3.7
			c-1.1-1-2.3-1.6-3.8-1.6h-8.8V186.4z"/>
		<path fill="#FFFFFF" d="M272.3,202.4c0,0,0-0.1,0-0.1c0-0.2,0.1-0.5,0.2-0.9l1.9-3.4c0.2-0.4,0.5-0.6,0.9-0.6s0.7,0,0.9,0.2
			l0.3,0.2c0.2,0.1,0.4,0.3,0.6,0.4c0.2,0.2,0.5,0.3,0.9,0.5s0.7,0.4,1.1,0.6c0.4,0.2,0.8,0.4,1.2,0.6c0.5,0.2,0.9,0.4,1.3,0.5
			c0.4,0.1,0.9,0.3,1.4,0.4c0.5,0.1,0.9,0.1,1.3,0.1c1.4,0,2.6-0.4,3.5-1.2c0.9-0.8,1.4-1.8,1.4-3c0-1.3-0.6-2.5-1.7-3.5
			c-1.1-1-2.9-2-5.2-2.9c-1.4-0.6-2.7-1.2-3.8-1.8c-1.1-0.6-2.1-1.4-3.2-2.4s-1.8-2-2.4-3.3s-0.8-2.7-0.8-4.2c0-1.2,0.2-2.4,0.7-3.5
			c0.5-1.2,1.2-2.2,2.1-3.2s2.2-1.8,3.8-2.4c1.6-0.6,3.4-0.9,5.5-0.9c1.2,0,2.4,0.1,3.6,0.4c1.2,0.3,2.3,0.6,3.2,1.1
			c0.9,0.4,1.6,0.8,2.2,1.1c0.5,0.3,1,0.6,1.4,0.9c0.3,0.2,0.4,0.4,0.5,0.8c0.1,0.4,0,0.7-0.2,0.9l-1.9,3c-0.2,0.3-0.5,0.6-0.8,0.7
			c-0.3,0.1-0.6,0.1-1-0.1c-3.1-2-5.6-3-7.3-3c-1.4,0-2.6,0.4-3.5,1.2c-0.9,0.8-1.3,1.7-1.3,2.6c0,1.2,0.5,2.3,1.5,3.3
			c1,0.9,2.6,1.9,4.9,2.8c0.8,0.3,1.6,0.7,2.2,1c0.6,0.3,1.3,0.7,2.1,1.1c0.8,0.4,1.4,0.9,2,1.4c0.6,0.5,1.2,1,1.7,1.6s1,1.3,1.4,2
			s0.7,1.5,0.9,2.3c0.2,0.9,0.3,1.8,0.3,2.8c0,3-1.1,5.6-3.3,7.7c-2.2,2.2-5,3.2-8.6,3.2c-1.6,0-3.1-0.2-4.5-0.5
			c-1.4-0.3-2.6-0.8-3.6-1.3c-1-0.5-1.8-1-2.3-1.4c-0.6-0.4-1-0.8-1.4-1.2C272.5,202.9,272.3,202.6,272.3,202.4z"/>
	</g>
	<path display="inline" fill="#FFFFFF" d="M205.7,240h-53.3c-2.6,0-4.7-2.1-4.7-4.7v0c0-2.6,2.1-4.7,4.7-4.7h53.3
		c2.6,0,4.7,2.1,4.7,4.7v0C210.3,237.9,208.2,240,205.7,240z"/>
</g>
<g id="Layer_6" display="none">
	<g display="inline">
		<defs>
			<rect id="SVGID_10_" x="-70.9" y="-67.8" width="502" height="479.6"/>
		</defs>
		<clipPath id="SVGID_11_">
			<use xlink:href="#SVGID_10_"  overflow="visible"/>
		</clipPath>
		<g clip-path="url(#SVGID_11_)">
			<linearGradient id="SVGID_12_" gradientUnits="userSpaceOnUse" x1="0" y1="171" x2="358" y2="171">
				<stop  offset="0" style="stop-color:#DF0557"/>
				<stop  offset="1" style="stop-color:#941B7F"/>
			</linearGradient>
			<path fill="url(#SVGID_12_)" d="M349,9v324H9V9H349 M358,0H0v342h358V0L358,0z"/>
		</g>
	</g>
	<g display="inline">
		<rect x="18" y="117" fill="none" width="322.7" height="159.3"/>
		<path fill="#FFFFFF" d="M149.4,134.7c-0.7-1.6-1-3.3-1-5.1s0.3-3.5,1-5.1c0.7-1.6,1.6-3,2.7-4.1c1.1-1.2,2.5-2.1,4-2.8
			c1.6-0.7,3.2-1,4.9-1c1.6,0,3.1,0.3,4.7,0.9c1.5,0.6,2.9,1.4,4.1,2.5c0.1,0.1,0.2,0.3,0.2,0.5c0,0.2-0.1,0.4-0.2,0.5l-2.2,2.4
			c-0.3,0.3-0.6,0.3-0.9,0c-1.6-1.4-3.4-2.1-5.4-2.1c-1.5,0-2.8,0.4-4.1,1.1c-1.2,0.8-2.2,1.8-2.9,3c-0.7,1.3-1.1,2.6-1.1,4.1
			c0,1.5,0.4,2.8,1.1,4.1c0.7,1.3,1.7,2.3,3,3c1.3,0.7,2.6,1.1,4.1,1.1c1.3,0,2.7-0.3,4.3-0.9V134h-2.9c-0.2,0-0.4-0.1-0.5-0.2
			c-0.1-0.1-0.2-0.3-0.2-0.5v-2.9c0-0.2,0.1-0.4,0.2-0.5c0.1-0.1,0.3-0.2,0.5-0.2h6.9c0.2,0,0.3,0.1,0.4,0.2s0.2,0.3,0.2,0.5v9.2
			c0,0.2-0.1,0.4-0.3,0.6c-0.1,0.1-0.3,0.1-0.4,0.2s-0.6,0.3-1.2,0.6c-0.6,0.3-1.2,0.5-1.9,0.7s-1.5,0.4-2.5,0.6
			c-1,0.2-2,0.3-2.9,0.3c-1.7,0-3.4-0.3-4.9-1c-1.6-0.7-2.9-1.6-4-2.7C150.9,137.7,150.1,136.3,149.4,134.7z"/>
		<path fill="#FFFFFF" d="M175.8,141.5v-23.8c0-0.2,0.1-0.3,0.2-0.5s0.3-0.2,0.5-0.2h14.7c0.2,0,0.4,0.1,0.5,0.2s0.2,0.3,0.2,0.5v3
			c0,0.2-0.1,0.3-0.2,0.5s-0.3,0.2-0.5,0.2h-10.7v5.9h8.9c0.2,0,0.3,0.1,0.5,0.2c0.1,0.1,0.2,0.3,0.2,0.5v3c0,0.2-0.1,0.4-0.2,0.5
			c-0.1,0.1-0.3,0.2-0.5,0.2h-8.9v6.3h10.7c0.2,0,0.4,0.1,0.5,0.2s0.2,0.3,0.2,0.5v3c0,0.2-0.1,0.3-0.2,0.5s-0.3,0.2-0.5,0.2h-14.7
			c-0.2,0-0.4-0.1-0.5-0.2S175.8,141.7,175.8,141.5z"/>
		<path fill="#FFFFFF" d="M194.2,120.6v-3c0-0.2,0.1-0.3,0.2-0.5s0.3-0.2,0.5-0.2h15.7c0.2,0,0.4,0.1,0.5,0.2s0.2,0.3,0.2,0.5v3
			c0,0.2-0.1,0.3-0.2,0.5c-0.1,0.1-0.3,0.2-0.5,0.2h-5.5v20.2c0,0.2-0.1,0.3-0.2,0.5c-0.1,0.1-0.3,0.2-0.5,0.2h-3.3
			c-0.2,0-0.3-0.1-0.5-0.2c-0.1-0.1-0.2-0.3-0.2-0.5v-20.2h-5.5c-0.2,0-0.4-0.1-0.5-0.2C194.2,121,194.2,120.8,194.2,120.6z"/>
		<path fill="#FFFFFF" d="M79.8,206v-35.8c0-0.3,0.1-0.5,0.3-0.7c0.2-0.2,0.4-0.3,0.7-0.3h22c0.3,0,0.5,0.1,0.7,0.3
			c0.2,0.2,0.3,0.4,0.3,0.7v4.4c0,0.3-0.1,0.5-0.3,0.7c-0.2,0.2-0.4,0.3-0.7,0.3h-16v10.2h13.3c0.3,0,0.5,0.1,0.7,0.3
			s0.3,0.4,0.3,0.7v4.4c0,0.3-0.1,0.5-0.3,0.7s-0.4,0.3-0.7,0.3H86.8V206c0,0.3-0.1,0.5-0.3,0.7S86,207,85.8,207h-5
			c-0.3,0-0.5-0.1-0.7-0.3C79.9,206.5,79.8,206.3,79.8,206z"/>
		<path fill="#FFFFFF" d="M107,192.7v-22.5c0-0.3,0.1-0.5,0.3-0.7c0.2-0.2,0.4-0.3,0.7-0.3h5.1c0.3,0,0.5,0.1,0.7,0.3
			c0.2,0.2,0.3,0.4,0.3,0.7v22.1c0,2.3,0.7,4.3,2.2,5.9c1.5,1.6,3.3,2.3,5.7,2.3c2.3,0,4.2-0.8,5.7-2.3c1.5-1.6,2.2-3.5,2.2-5.8
			v-22.1c0-0.3,0.1-0.5,0.3-0.7c0.2-0.2,0.4-0.3,0.7-0.3h5.1c0.3,0,0.5,0.1,0.7,0.3c0.2,0.2,0.3,0.4,0.3,0.7v22.5
			c0,2-0.4,3.9-1.2,5.8c-0.8,1.8-1.8,3.4-3.2,4.7c-1.3,1.3-2.9,2.4-4.8,3.2c-1.9,0.8-3.8,1.2-5.9,1.2c-2.8,0-5.3-0.7-7.6-2
			c-2.3-1.3-4.1-3.1-5.4-5.4C107.7,197.9,107,195.4,107,192.7z"/>
		<path fill="#FFFFFF" d="M143.6,206v-36.3c0-0.3,0.1-0.5,0.3-0.7c0.2-0.2,0.5-0.3,0.7-0.3h1.4l22.5,23.9h0.1v-22.3
			c0-0.3,0.1-0.5,0.3-0.7c0.2-0.2,0.4-0.3,0.7-0.3h5c0.3,0,0.5,0.1,0.7,0.3s0.3,0.4,0.3,0.7v36.4c0,0.3-0.1,0.5-0.3,0.7
			c-0.2,0.2-0.4,0.3-0.7,0.3h-1.3l-22.5-24.8h-0.1V206c0,0.3-0.1,0.5-0.3,0.7c-0.2,0.2-0.4,0.3-0.7,0.3h-5c-0.3,0-0.5-0.1-0.7-0.3
			S143.6,206.2,143.6,206z"/>
		<path fill="#FFFFFF" d="M182.7,206v-35.8c0-0.3,0.1-0.5,0.3-0.7c0.2-0.2,0.4-0.3,0.7-0.3h12.7c2.5,0,5,0.5,7.3,1.5
			c2.3,1,4.3,2.3,6,4c1.7,1.7,3,3.7,4,6c1,2.3,1.5,4.7,1.5,7.3c0,2.6-0.5,5-1.5,7.4c-1,2.4-2.3,4.4-4,6.1c-1.7,1.7-3.7,3-6,4
			s-4.7,1.5-7.3,1.5h-12.7c-0.3,0-0.5-0.1-0.7-0.3C182.8,206.5,182.7,206.2,182.7,206z M189.7,200.4h6.1c3.5,0,6.4-1.2,8.7-3.5
			c2.3-2.4,3.4-5.3,3.4-8.9c0-3.5-1.1-6.5-3.4-8.8c-2.3-2.4-5.2-3.5-8.7-3.5h-6.1V200.4z"/>
		<path fill="#FFFFFF" d="M219.8,206v-35.8c0-0.3,0.1-0.5,0.3-0.7c0.2-0.2,0.4-0.3,0.7-0.3h22c0.3,0,0.5,0.1,0.7,0.3
			c0.2,0.2,0.3,0.4,0.3,0.7v4.4c0,0.3-0.1,0.5-0.3,0.7c-0.2,0.2-0.4,0.3-0.7,0.3h-16v8.9h13.3c0.3,0,0.5,0.1,0.7,0.3
			c0.2,0.2,0.3,0.4,0.3,0.7v4.4c0,0.3-0.1,0.5-0.3,0.7c-0.2,0.2-0.4,0.3-0.7,0.3h-13.3v9.4h16c0.3,0,0.5,0.1,0.7,0.3
			c0.2,0.2,0.3,0.4,0.3,0.7v4.4c0,0.3-0.1,0.5-0.3,0.7c-0.2,0.2-0.4,0.3-0.7,0.3h-22c-0.3,0-0.5-0.1-0.7-0.3
			C219.9,206.5,219.8,206.3,219.8,206z"/>
		<path fill="#FFFFFF" d="M248.9,206v-35.8c0-0.3,0.1-0.5,0.3-0.7c0.2-0.2,0.4-0.3,0.7-0.3h12.7c2.5,0,5,0.5,7.3,1.5
			c2.3,1,4.3,2.3,6,4c1.7,1.7,3,3.7,4,6c1,2.3,1.5,4.7,1.5,7.3c0,2.6-0.5,5-1.5,7.4c-1,2.4-2.3,4.4-4,6.1c-1.7,1.7-3.7,3-6,4
			s-4.7,1.5-7.3,1.5h-12.7c-0.3,0-0.5-0.1-0.7-0.3C249,206.5,248.9,206.2,248.9,206z M255.9,200.4h6.1c3.5,0,6.4-1.2,8.7-3.5
			c2.3-2.4,3.4-5.3,3.4-8.9c0-3.5-1.1-6.5-3.4-8.8s-5.2-3.5-8.7-3.5h-6.1V200.4z"/>
	</g>
	<path display="inline" fill="#FFFFFF" d="M205.7,240h-53.3c-2.6,0-4.7-2.1-4.7-4.7v0c0-2.6,2.1-4.7,4.7-4.7h53.3
		c2.6,0,4.7,2.1,4.7,4.7v0C210.3,237.9,208.2,240,205.7,240z"/>
</g>
<g id="Layer_7">
	<g>
		<defs>
			<rect id="SVGID_13_" x="-70.9" y="-67.8" width="502" height="479.6"/>
		</defs>
		<clipPath id="SVGID_14_">
			<use xlink:href="#SVGID_13_"  overflow="visible"/>
		</clipPath>
		<g opacity="0.7" clip-path="url(#SVGID_14_)">
			<rect fill="#1E449F" width="358" height="342"/>
		</g>
		<g clip-path="url(#SVGID_14_)">
			<linearGradient id="SVGID_15_" gradientUnits="userSpaceOnUse" x1="0" y1="171" x2="358" y2="171">
				<stop  offset="0" style="stop-color:#FFFFFF"/>
				<stop  offset="1" style="stop-color:#FFFFFF"/>
			</linearGradient>
			<path fill="url(#SVGID_15_)" d="M349,9v324H9V9H349 M358,0H0v342h358V0L358,0z"/>
		</g>
	</g>
	<g>
		<rect x="18" y="117" fill="none" width="322.7" height="159.3"/>
		<path fill="#FFFFFF" d="M121.7,141.3l11.2-24.2c0.1-0.3,0.3-0.4,0.6-0.4h0.4c0.3,0,0.5,0.1,0.6,0.4l11.1,24.2
			c0,0.1,0.1,0.2,0.1,0.3c0,0.1,0,0.2-0.1,0.3c-0.1,0.2-0.3,0.3-0.6,0.3h-3.1c-0.3,0-0.5-0.1-0.6-0.2s-0.3-0.3-0.4-0.6l-1.8-4h-10.8
			l-1.8,4c-0.2,0.5-0.5,0.7-1,0.7h-3.1c-0.3,0-0.5-0.1-0.6-0.3c-0.1-0.1-0.1-0.2-0.1-0.3C121.6,141.5,121.6,141.4,121.7,141.3z
			 M130,133.6h7.2l-3.6-7.9h-0.1L130,133.6z"/>
		<path fill="#FFFFFF" d="M144.6,120.6v-3c0-0.2,0.1-0.3,0.2-0.5s0.3-0.2,0.5-0.2h15.7c0.2,0,0.4,0.1,0.5,0.2s0.2,0.3,0.2,0.5v3
			c0,0.2-0.1,0.3-0.2,0.5c-0.1,0.1-0.3,0.2-0.5,0.2h-5.5v20.2c0,0.2-0.1,0.3-0.2,0.5s-0.3,0.2-0.5,0.2h-3.3c-0.2,0-0.3-0.1-0.5-0.2
			s-0.2-0.3-0.2-0.5v-20.2h-5.5c-0.2,0-0.4-0.1-0.5-0.2S144.6,120.8,144.6,120.6z"/>
		<path fill="#FFFFFF" d="M170.6,120.6v-3c0-0.2,0.1-0.3,0.2-0.5s0.3-0.2,0.5-0.2H187c0.2,0,0.4,0.1,0.5,0.2s0.2,0.3,0.2,0.5v3
			c0,0.2-0.1,0.3-0.2,0.5s-0.3,0.2-0.5,0.2h-5.5v20.2c0,0.2-0.1,0.3-0.2,0.5c-0.1,0.1-0.3,0.2-0.5,0.2h-3.3c-0.2,0-0.3-0.1-0.5-0.2
			s-0.2-0.3-0.2-0.5v-20.2h-5.5c-0.2,0-0.4-0.1-0.5-0.2S170.6,120.8,170.6,120.6z"/>
		<path fill="#FFFFFF" d="M191.5,141.5v-23.8c0-0.2,0.1-0.3,0.2-0.5s0.3-0.2,0.5-0.2h3.3c0.2,0,0.4,0.1,0.5,0.2
			c0.1,0.1,0.2,0.3,0.2,0.5v9.6h11.7v-9.6c0-0.2,0.1-0.4,0.2-0.5c0.1-0.1,0.3-0.2,0.5-0.2h3.3c0.2,0,0.3,0.1,0.5,0.2
			s0.2,0.3,0.2,0.5v23.8c0,0.2-0.1,0.3-0.2,0.5s-0.3,0.2-0.5,0.2h-3.3c-0.2,0-0.4-0.1-0.5-0.2s-0.2-0.3-0.2-0.5v-9.9h-11.7v9.9
			c0,0.2-0.1,0.3-0.2,0.5s-0.3,0.2-0.5,0.2h-3.3c-0.2,0-0.3-0.1-0.5-0.2S191.5,141.7,191.5,141.5z"/>
		<path fill="#FFFFFF" d="M219.1,141.5v-23.8c0-0.2,0.1-0.3,0.2-0.5s0.3-0.2,0.5-0.2h14.7c0.2,0,0.4,0.1,0.5,0.2s0.2,0.3,0.2,0.5v3
			c0,0.2-0.1,0.3-0.2,0.5s-0.3,0.2-0.5,0.2h-10.7v5.9h8.9c0.2,0,0.3,0.1,0.5,0.2c0.1,0.1,0.2,0.3,0.2,0.5v3c0,0.2-0.1,0.4-0.2,0.5
			c-0.1,0.1-0.3,0.2-0.5,0.2h-8.9v6.3h10.7c0.2,0,0.4,0.1,0.5,0.2s0.2,0.3,0.2,0.5v3c0,0.2-0.1,0.3-0.2,0.5s-0.3,0.2-0.5,0.2h-14.7
			c-0.2,0-0.4-0.1-0.5-0.2S219.1,141.7,219.1,141.5z"/>
		<path fill="#FFFFFF" d="M61.6,206v-35.8c0-0.3,0.1-0.5,0.3-0.7c0.2-0.2,0.4-0.3,0.7-0.3h22c0.3,0,0.5,0.1,0.7,0.3
			c0.2,0.2,0.3,0.4,0.3,0.7v4.4c0,0.3-0.1,0.5-0.3,0.7c-0.2,0.2-0.4,0.3-0.7,0.3h-16v10.2H82c0.3,0,0.5,0.1,0.7,0.3s0.3,0.4,0.3,0.7
			v4.4c0,0.3-0.1,0.5-0.3,0.7s-0.4,0.3-0.7,0.3H68.7V206c0,0.3-0.1,0.5-0.3,0.7s-0.4,0.3-0.7,0.3h-5c-0.3,0-0.5-0.1-0.7-0.3
			C61.7,206.5,61.6,206.3,61.6,206z"/>
		<path fill="#FFFFFF" d="M86.7,188.1c0-1.8,0.2-3.5,0.7-5.2c0.5-1.7,1.1-3.2,1.9-4.7s1.8-2.7,3-3.9c1.2-1.2,2.5-2.2,3.9-3
			c1.4-0.8,3-1.5,4.7-2c1.7-0.5,3.4-0.7,5.2-0.7c2.7,0,5.2,0.5,7.6,1.5c2.4,1,4.5,2.4,6.2,4.1c1.7,1.7,3.1,3.8,4.1,6.2
			c1,2.4,1.5,4.9,1.5,7.6c0,2.7-0.5,5.2-1.5,7.6c-1,2.4-2.4,4.5-4.1,6.2c-1.7,1.7-3.8,3.1-6.2,4.1c-2.4,1-4.9,1.5-7.6,1.5
			s-5.2-0.5-7.6-1.5c-2.4-1-4.5-2.4-6.2-4.1c-1.7-1.7-3.1-3.8-4.1-6.2C87.2,193.3,86.7,190.8,86.7,188.1z M93.7,188.1
			c0,3.4,1.2,6.3,3.6,8.7c2.4,2.4,5.3,3.6,8.7,3.6c2.2,0,4.3-0.6,6.2-1.7s3.4-2.6,4.5-4.5c1.1-1.9,1.7-4,1.7-6.2
			c0-2.2-0.6-4.3-1.7-6.2c-1.1-1.9-2.6-3.4-4.5-4.6s-4-1.7-6.2-1.7c-2.2,0-4.3,0.6-6.2,1.7s-3.4,2.6-4.5,4.6
			C94.3,183.8,93.7,185.9,93.7,188.1z"/>
		<path fill="#FFFFFF" d="M129.3,192.7v-22.5c0-0.3,0.1-0.5,0.3-0.7c0.2-0.2,0.4-0.3,0.7-0.3h5.1c0.3,0,0.5,0.1,0.7,0.3
			c0.2,0.2,0.3,0.4,0.3,0.7v22.1c0,2.3,0.7,4.3,2.2,5.9c1.5,1.6,3.3,2.3,5.7,2.3c2.3,0,4.2-0.8,5.7-2.3c1.5-1.6,2.2-3.5,2.2-5.8
			v-22.1c0-0.3,0.1-0.5,0.3-0.7c0.2-0.2,0.4-0.3,0.7-0.3h5.1c0.3,0,0.5,0.1,0.7,0.3c0.2,0.2,0.3,0.4,0.3,0.7v22.5
			c0,2-0.4,3.9-1.2,5.8c-0.8,1.8-1.8,3.4-3.2,4.7c-1.3,1.3-2.9,2.4-4.8,3.2c-1.9,0.8-3.8,1.2-5.9,1.2c-2.8,0-5.3-0.7-7.6-2
			c-2.3-1.3-4.1-3.1-5.4-5.4C130,197.9,129.3,195.4,129.3,192.7z"/>
		<path fill="#FFFFFF" d="M166,206v-36.3c0-0.3,0.1-0.5,0.3-0.7c0.2-0.2,0.5-0.3,0.7-0.3h1.4l22.5,23.9h0.1v-22.3
			c0-0.3,0.1-0.5,0.3-0.7c0.2-0.2,0.4-0.3,0.7-0.3h5c0.3,0,0.5,0.1,0.7,0.3s0.3,0.4,0.3,0.7v36.4c0,0.3-0.1,0.5-0.3,0.7
			c-0.2,0.2-0.4,0.3-0.7,0.3h-1.3l-22.5-24.8H173V206c0,0.3-0.1,0.5-0.3,0.7c-0.2,0.2-0.4,0.3-0.7,0.3h-5c-0.3,0-0.5-0.1-0.7-0.3
			S166,206.2,166,206z"/>
		<path fill="#FFFFFF" d="M205,206v-35.8c0-0.3,0.1-0.5,0.3-0.7c0.2-0.2,0.4-0.3,0.7-0.3h12.7c2.5,0,5,0.5,7.3,1.5
			c2.3,1,4.3,2.3,6,4c1.7,1.7,3,3.7,4,6c1,2.3,1.5,4.7,1.5,7.3c0,2.6-0.5,5-1.5,7.4c-1,2.4-2.3,4.4-4,6.1c-1.7,1.7-3.7,3-6,4
			s-4.7,1.5-7.3,1.5H206c-0.3,0-0.5-0.1-0.7-0.3C205.1,206.5,205,206.2,205,206z M212.1,200.4h6.1c3.5,0,6.4-1.2,8.7-3.5
			c2.3-2.4,3.4-5.3,3.4-8.9c0-3.5-1.1-6.5-3.4-8.8s-5.2-3.5-8.7-3.5h-6.1V200.4z"/>
		<path fill="#FFFFFF" d="M242.2,206v-35.8c0-0.3,0.1-0.5,0.3-0.7c0.2-0.2,0.4-0.3,0.7-0.3h15.5c3.3,0,6,1.1,8.3,3.4s3.4,5,3.4,8.2
			c0,2.4-0.7,4.6-2.2,6.6c-1.5,1.9-3.4,3.4-5.8,4.4l7.4,13.7c0.2,0.4,0.2,0.7,0,1c-0.2,0.3-0.5,0.5-0.9,0.5h-5.7
			c-0.4,0-0.7-0.2-0.9-0.5l-7.2-14.2h-6V206c0,0.3-0.1,0.5-0.3,0.7s-0.4,0.3-0.7,0.3h-5c-0.3,0-0.5-0.1-0.7-0.3
			C242.3,206.5,242.2,206.3,242.2,206z M249.3,186.4h8.8c1.4,0,2.7-0.5,3.8-1.6c1.1-1.1,1.6-2.4,1.6-3.9c0-1.4-0.5-2.7-1.6-3.7
			c-1.1-1-2.3-1.6-3.8-1.6h-8.8V186.4z"/>
		<path fill="#FFFFFF" d="M270.3,169.7c0.2-0.4,0.5-0.5,0.9-0.5h5.5c0.3,0,0.6,0.2,0.8,0.5l8.6,12.4l8.6-12.4
			c0.2-0.3,0.5-0.5,0.8-0.5h5.6c0.4,0,0.7,0.2,0.9,0.5c0.1,0.2,0.1,0.3,0.1,0.5c0,0.2-0.1,0.4-0.2,0.6l-12.4,18V206
			c0,0.3-0.1,0.5-0.3,0.7s-0.5,0.3-0.7,0.3h-5c-0.3,0-0.5-0.1-0.7-0.3c-0.2-0.2-0.3-0.4-0.3-0.7v-17.2l-12.3-18
			c-0.1-0.2-0.2-0.4-0.2-0.6C270.2,170,270.2,169.9,270.3,169.7z"/>
	</g>
	<path fill="#FFFFFF" d="M205.7,240h-53.3c-2.6,0-4.7-2.1-4.7-4.7v0c0-2.6,2.1-4.7,4.7-4.7h53.3c2.6,0,4.7,2.1,4.7,4.7v0
		C210.3,237.9,208.2,240,205.7,240z"/>
	<g>
	</g>
	<g>
	</g>
	<g>
	</g>
	<g>
	</g>
	<g>
	</g>
	<g>
	</g>
	<g>
	</g>
	<g>
	</g>
	<g>
	</g>
	<g>
	</g>
	<g>
	</g>
	<g>
	</g>
	<g>
	</g>
	<g>
	</g>
	<g>
	</g>
</g>
</svg>
