<?xml version="1.0" encoding="utf-8"?>
<!-- Generator: Adobe Illustrator 18.1.1, SVG Export Plug-In . SVG Version: 6.00 Build 0)  -->
<svg version="1.1" id="Layer_4" xmlns="http://www.w3.org/2000/svg" xmlns:xlink="http://www.w3.org/1999/xlink" x="0px" y="0px"
	 viewBox="0 0 358 342" enable-background="new 0 0 358 342" xml:space="preserve">
<g>
	<g>
		<defs>
			<rect id="SVGID_1_" x="-70.9" y="-67.8" width="502" height="479.6"/>
		</defs>
		<clipPath id="SVGID_2_">
			<use xlink:href="#SVGID_1_"  overflow="visible"/>
		</clipPath>
		<g clip-path="url(#SVGID_2_)">
			
			<linearGradient id="SVGID_3_" gradientUnits="userSpaceOnUse" x1="0" y1="171" x2="358" y2="171">
	       <animate attributeName="y2" values="0%;150%;100%;0%" dur="5s" repeatCount="indefinite" />
			<stop  offset="0%" style="stop-color:#22B79E">
			<animate attributeName="stop-color" values="#22B79E;#0E82D8;#0E82D8;#22B79E" dur="5s" repeatCount="indefinite" />
			</stop>
			<stop  offset="100%" style="stop-color:#0E82D8"/>
			</linearGradient>
			
			
			
			<path fill="url(#SVGID_3_)" d="M349,9v324H9V9H349 M358,0H0v342h358V0L358,0z"/>
		</g>
	</g>
</g>
<rect x="18" y="117" fill="none" width="322.7" height="159.3"/>
<g enable-background="new    ">
	<path fill="#FFFFFF" d="M94,139.9c-0.1-0.1-0.1-0.3-0.1-0.4c0-0.2,0.1-0.3,0.2-0.5l1.9-1.9c0.2-0.2,0.4-0.2,0.5-0.2
		c0.2,0,0.4,0.1,0.5,0.2c0.7,0.7,1.5,1.1,2.4,1.1c0.8,0,1.4-0.3,2-0.9s0.9-1.5,0.9-2.7v-16.9c0-0.2,0.1-0.3,0.2-0.5
		c0.1-0.1,0.3-0.2,0.5-0.2h3.4c0.2,0,0.4,0.1,0.5,0.2s0.2,0.3,0.2,0.5v17c0,2.4-0.7,4.4-2.1,5.8s-3.2,2.1-5.4,2.1
		C97.2,142.6,95.4,141.7,94,139.9z"/>
	<path fill="#FFFFFF" d="M111.1,129.6c0-1.2,0.2-2.3,0.5-3.5c0.3-1.1,0.7-2.2,1.3-3.1s1.2-1.8,2-2.6s1.7-1.5,2.6-2
		c1-0.6,2-1,3.1-1.3s2.3-0.5,3.5-0.5c1.8,0,3.5,0.3,5.1,1c1.6,0.7,3,1.6,4.1,2.8s2.1,2.5,2.8,4.1c0.7,1.6,1,3.3,1,5.1
		s-0.3,3.5-1,5.1c-0.7,1.6-1.6,3-2.8,4.1c-1.2,1.1-2.5,2.1-4.1,2.7c-1.6,0.7-3.3,1-5.1,1s-3.5-0.3-5.1-1c-1.6-0.7-3-1.6-4.1-2.7
		c-1.1-1.1-2.1-2.5-2.7-4.1C111.4,133.1,111.1,131.4,111.1,129.6z M115.8,129.6c0,2.3,0.8,4.2,2.4,5.8c1.6,1.6,3.6,2.4,5.8,2.4
		c1.5,0,2.9-0.4,4.1-1.1c1.3-0.7,2.3-1.7,3-3s1.1-2.6,1.1-4.1s-0.4-2.9-1.1-4.1s-1.8-2.3-3-3c-1.3-0.8-2.6-1.1-4.1-1.1
		c-1.5,0-2.9,0.4-4.1,1.1c-1.3,0.8-2.3,1.8-3,3C116.2,126.8,115.8,128.1,115.8,129.6z"/>
	<path fill="#FFFFFF" d="M141.7,141.5v-23.8c0-0.2,0.1-0.3,0.2-0.5c0.1-0.1,0.3-0.2,0.5-0.2h3.3c0.2,0,0.3,0.1,0.5,0.2
		s0.2,0.3,0.2,0.5v23.8c0,0.2-0.1,0.3-0.2,0.5s-0.3,0.2-0.5,0.2h-3.3c-0.2,0-0.3-0.1-0.5-0.2C141.8,141.8,141.7,141.7,141.7,141.5z"
		/>
	<path fill="#FFFFFF" d="M153,141.5v-24.2c0-0.2,0.1-0.3,0.2-0.5s0.3-0.2,0.5-0.2h0.9l15,15.9h0v-14.9c0-0.2,0.1-0.3,0.2-0.5
		s0.3-0.2,0.5-0.2h3.3c0.2,0,0.3,0.1,0.5,0.2s0.2,0.3,0.2,0.5v24.2c0,0.2-0.1,0.3-0.2,0.4s-0.3,0.2-0.5,0.2h-0.9l-15-16.5h0v15.5
		c0,0.2-0.1,0.3-0.2,0.5s-0.3,0.2-0.5,0.2h-3.3c-0.2,0-0.3-0.1-0.5-0.2C153,141.8,153,141.7,153,141.5z"/>
	<path fill="#FFFFFF" d="M186.9,129.6c0-1.2,0.2-2.3,0.5-3.5s0.7-2.2,1.3-3.1c0.6-0.9,1.2-1.8,2-2.6c0.8-0.8,1.7-1.5,2.6-2
		s2-1,3.1-1.3s2.3-0.5,3.5-0.5c1.8,0,3.5,0.3,5.1,1s3,1.6,4.1,2.8s2.1,2.5,2.8,4.1s1,3.3,1,5.1s-0.3,3.5-1,5.1
		c-0.7,1.6-1.6,3-2.8,4.1c-1.2,1.1-2.5,2.1-4.1,2.7c-1.6,0.7-3.3,1-5.1,1s-3.5-0.3-5.1-1c-1.6-0.7-3-1.6-4.1-2.7s-2.1-2.5-2.7-4.1
		S186.9,131.4,186.9,129.6z M191.6,129.6c0,2.3,0.8,4.2,2.4,5.8s3.6,2.4,5.8,2.4c1.5,0,2.9-0.4,4.1-1.1s2.3-1.7,3-3s1.1-2.6,1.1-4.1
		s-0.4-2.9-1.1-4.1s-1.8-2.3-3-3s-2.6-1.1-4.1-1.1c-1.5,0-2.9,0.4-4.1,1.1s-2.3,1.8-3,3C192,126.8,191.6,128.1,191.6,129.6z"/>
	<path fill="#FFFFFF" d="M217.2,132.7v-15c0-0.2,0.1-0.3,0.2-0.5c0.1-0.1,0.3-0.2,0.5-0.2h3.4c0.2,0,0.4,0.1,0.5,0.2
		c0.1,0.1,0.2,0.3,0.2,0.5v14.7c0,1.6,0.5,2.9,1.5,3.9s2.2,1.6,3.8,1.6c1.5,0,2.8-0.5,3.8-1.6c1-1,1.5-2.3,1.5-3.9v-14.8
		c0-0.2,0.1-0.3,0.2-0.5s0.3-0.2,0.5-0.2h3.4c0.2,0,0.3,0.1,0.5,0.2s0.2,0.3,0.2,0.5v15c0,1.3-0.3,2.6-0.8,3.8
		c-0.5,1.2-1.2,2.3-2.1,3.2c-0.9,0.9-2,1.6-3.2,2.1s-2.6,0.8-4,0.8c-1.9,0-3.5-0.4-5.1-1.3c-1.5-0.9-2.7-2.1-3.6-3.6
		C217.6,136.1,217.2,134.5,217.2,132.7z"/>
	<path fill="#FFFFFF" d="M243.4,141.5v-23.8c0-0.2,0.1-0.3,0.2-0.5s0.3-0.2,0.5-0.2h10.3c2.2,0,4,0.8,5.6,2.3
		c1.5,1.5,2.3,3.3,2.3,5.5c0,1.6-0.5,3.1-1.5,4.4c-1,1.3-2.3,2.3-3.9,2.9l5,9.1c0.1,0.2,0.1,0.5,0,0.7c-0.1,0.2-0.3,0.3-0.6,0.3
		h-3.8c-0.3,0-0.5-0.1-0.6-0.3l-4.8-9.5h-4v9.1c0,0.2-0.1,0.3-0.2,0.5c-0.1,0.1-0.3,0.2-0.5,0.2h-3.3c-0.2,0-0.4-0.1-0.5-0.2
		S243.4,141.7,243.4,141.5z M248.1,128.5h5.9c1,0,1.8-0.4,2.5-1.1s1.1-1.6,1.1-2.6c0-0.9-0.4-1.8-1.1-2.5s-1.5-1-2.5-1h-5.9V128.5z"
		/>
</g>
<g enable-background="new    ">
	<path fill="#FFFFFF" d="M92.3,206v-35.8c0-0.3,0.1-0.5,0.3-0.7c0.2-0.2,0.4-0.3,0.7-0.3h22c0.3,0,0.5,0.1,0.7,0.3
		c0.2,0.2,0.3,0.4,0.3,0.7v4.4c0,0.3-0.1,0.5-0.3,0.7c-0.2,0.2-0.4,0.3-0.7,0.3h-16v8.9h13.3c0.3,0,0.5,0.1,0.7,0.3
		c0.2,0.2,0.3,0.4,0.3,0.7v4.4c0,0.3-0.1,0.5-0.3,0.7c-0.2,0.2-0.4,0.3-0.7,0.3H99.3v9.4h16c0.3,0,0.5,0.1,0.7,0.3
		c0.2,0.2,0.3,0.4,0.3,0.7v4.4c0,0.3-0.1,0.5-0.3,0.7c-0.2,0.2-0.4,0.3-0.7,0.3h-22c-0.3,0-0.5-0.1-0.7-0.3
		C92.4,206.5,92.3,206.3,92.3,206z"/>
	<path fill="#FFFFFF" d="M117.1,170.6c-0.1-0.2-0.1-0.3-0.1-0.5c0-0.2,0.1-0.3,0.2-0.5c0.2-0.3,0.5-0.4,0.9-0.4h5.5
		c0.5,0,0.8,0.2,0.9,0.6l10.4,23.2h0.4l10.4-23.2c0.2-0.4,0.5-0.6,0.9-0.6h5.5c0.4,0,0.7,0.1,0.9,0.4c0.1,0.2,0.2,0.3,0.2,0.5
		c0,0.2,0,0.3-0.1,0.5l-16.7,36.3c-0.2,0.4-0.5,0.6-0.9,0.6h-0.5c-0.4,0-0.7-0.2-0.9-0.6L117.1,170.6z"/>
	<path fill="#FFFFFF" d="M155.8,206v-35.8c0-0.3,0.1-0.5,0.3-0.7c0.2-0.2,0.4-0.3,0.7-0.3h22c0.3,0,0.5,0.1,0.7,0.3
		c0.2,0.2,0.3,0.4,0.3,0.7v4.4c0,0.3-0.1,0.5-0.3,0.7c-0.2,0.2-0.4,0.3-0.7,0.3h-16v8.9h13.3c0.3,0,0.5,0.1,0.7,0.3
		c0.2,0.2,0.3,0.4,0.3,0.7v4.4c0,0.3-0.1,0.5-0.3,0.7c-0.2,0.2-0.4,0.3-0.7,0.3h-13.3v9.4h16c0.3,0,0.5,0.1,0.7,0.3
		c0.2,0.2,0.3,0.4,0.3,0.7v4.4c0,0.3-0.1,0.5-0.3,0.7c-0.2,0.2-0.4,0.3-0.7,0.3h-22c-0.3,0-0.5-0.1-0.7-0.3
		C155.9,206.5,155.8,206.3,155.8,206z"/>
	<path fill="#FFFFFF" d="M185.6,206v-36.3c0-0.3,0.1-0.5,0.3-0.7s0.5-0.3,0.7-0.3h1.4l22.5,23.9h0.1v-22.3c0-0.3,0.1-0.5,0.3-0.7
		c0.2-0.2,0.4-0.3,0.7-0.3h5c0.3,0,0.5,0.1,0.7,0.3s0.3,0.4,0.3,0.7v36.4c0,0.3-0.1,0.5-0.3,0.7c-0.2,0.2-0.4,0.3-0.7,0.3h-1.3
		l-22.5-24.8h-0.1V206c0,0.3-0.1,0.5-0.3,0.7c-0.2,0.2-0.4,0.3-0.7,0.3h-5c-0.3,0-0.5-0.1-0.7-0.3
		C185.7,206.5,185.6,206.2,185.6,206z"/>
	<path fill="#FFFFFF" d="M221.1,174.6v-4.4c0-0.3,0.1-0.5,0.3-0.7c0.2-0.2,0.4-0.3,0.7-0.3h23.6c0.3,0,0.5,0.1,0.7,0.3
		c0.2,0.2,0.3,0.4,0.3,0.7v4.4c0,0.3-0.1,0.5-0.3,0.7c-0.2,0.2-0.4,0.3-0.7,0.3h-8.3V206c0,0.3-0.1,0.5-0.3,0.7s-0.4,0.3-0.7,0.3h-5
		c-0.3,0-0.5-0.1-0.7-0.3c-0.2-0.2-0.3-0.4-0.3-0.7v-30.3h-8.3c-0.3,0-0.5-0.1-0.7-0.3C221.2,175.2,221.1,174.9,221.1,174.6z"/>
	<path fill="#FFFFFF" d="M247.9,202.4c0,0,0-0.1,0-0.1c0-0.2,0.1-0.5,0.2-0.9l1.9-3.4c0.2-0.4,0.5-0.6,0.9-0.6
		c0.4-0.1,0.7,0,0.9,0.2l0.3,0.2c0.2,0.1,0.4,0.3,0.6,0.4c0.2,0.2,0.5,0.3,0.9,0.5s0.7,0.4,1.1,0.6s0.8,0.4,1.2,0.6
		c0.5,0.2,0.9,0.4,1.3,0.5c0.4,0.1,0.9,0.3,1.4,0.4s0.9,0.1,1.3,0.1c1.4,0,2.6-0.4,3.5-1.2c0.9-0.8,1.4-1.8,1.4-3
		c0-1.3-0.6-2.5-1.7-3.5c-1.1-1-2.9-2-5.2-2.9c-1.4-0.6-2.7-1.2-3.8-1.8c-1.1-0.6-2.1-1.4-3.2-2.4c-1-0.9-1.8-2-2.4-3.3
		c-0.6-1.3-0.8-2.7-0.8-4.2c0-1.2,0.2-2.4,0.7-3.5c0.5-1.2,1.2-2.2,2.1-3.2c0.9-1,2.2-1.8,3.8-2.4s3.4-0.9,5.5-0.9
		c1.2,0,2.4,0.1,3.6,0.4c1.2,0.3,2.3,0.6,3.2,1.1c0.9,0.4,1.6,0.8,2.2,1.1c0.5,0.3,1,0.6,1.4,0.9c0.3,0.2,0.4,0.4,0.5,0.8
		c0.1,0.4,0,0.7-0.2,0.9l-1.9,3c-0.2,0.3-0.5,0.6-0.8,0.7c-0.3,0.1-0.6,0.1-1-0.1c-3.1-2-5.6-3-7.3-3c-1.4,0-2.6,0.4-3.5,1.2
		s-1.3,1.7-1.3,2.6c0,1.2,0.5,2.3,1.5,3.3c1,0.9,2.6,1.9,4.9,2.8c0.8,0.3,1.6,0.7,2.2,1c0.6,0.3,1.3,0.7,2.1,1.1
		c0.8,0.4,1.4,0.9,2,1.4c0.6,0.5,1.2,1,1.7,1.6s1,1.3,1.4,2s0.7,1.5,0.9,2.3c0.2,0.9,0.3,1.8,0.3,2.8c0,3-1.1,5.6-3.3,7.7
		c-2.2,2.2-5,3.2-8.6,3.2c-1.6,0-3.1-0.2-4.5-0.5c-1.4-0.3-2.6-0.8-3.6-1.3c-1-0.5-1.8-1-2.3-1.4c-0.6-0.4-1-0.8-1.4-1.2
		C248.2,202.9,248,202.6,247.9,202.4z"/>
</g>
<path fill="#FFFFFF" d="M205.7,240h-53.3c-2.6,0-4.7-2.1-4.7-4.7l0,0c0-2.6,2.1-4.7,4.7-4.7h53.3c2.6,0,4.7,2.1,4.7,4.7l0,0
	C210.3,237.9,208.2,240,205.7,240z"/>
</svg>
