<?xml version="1.0" encoding="utf-8"?>
<!-- Generator: Adobe Illustrator 18.1.1, SVG Export Plug-In . SVG Version: 6.00 Build 0)  -->
<svg version="1.1" id="Layer_1" xmlns="http://www.w3.org/2000/svg" xmlns:xlink="http://www.w3.org/1999/xlink" x="0px" y="0px"
	 viewBox="0 0 358 342" enable-background="new 0 0 358 342" xml:space="preserve">
<g>
	<g opacity="0.7">
		<rect fill="#1E449F" width="358" height="342"/>
	</g>
	<g>
		<path fill="#FFFFFF" d="M349,9v324H9V9H349 M358,0H0v342h358V0L358,0z"/>
	</g>
	<g>
		<g>
			<path fill="#FFFFFF" d="M116.6,268.1L116.6,268.1c-6.7,0-13.5-2.5-17.7-6.5L67,231.1c-6.3-6-8.2-17.3-4.3-25l74-144.7
				c2.7-5.3,8-8.6,13.8-8.6c2.8,0,5.6,0.8,8.1,2.3l70.7,42.3c7,4.2,15.2,13.6,18.4,21.1l30.2,71.3c1.7,4.1,1.7,8.5,0,12.6
				c-1.7,4-4.9,7.1-9,8.7l-144.4,55.6C122.2,267.6,119.5,268.1,116.6,268.1z M150.6,58.2c-3.8,0-7.3,2.2-9.1,5.7l-74,144.7
				c-2.9,5.7-1.5,14.3,3.2,18.8l31.9,30.4c3.2,3.1,8.7,5.1,14.1,5.1c2.2,0,4.3-0.4,6.1-1l144.4-55.6c2.8-1.1,4.9-3.1,6.1-5.8
				c1.1-2.7,1.1-5.7,0-8.4l-30.2-71.3c-2.8-6.5-10.2-15-16.2-18.6L156,59.7C154.3,58.7,152.4,58.2,150.6,58.2z"/>
		</g>
		<g>
			<path fill="#FFFFFF" d="M187.6,288.6L187.6,288.6c-4.9,0-9.5-2.2-12.6-6.1L78.8,161.4c-5.4-6.8-6.6-18.3-2.8-26.1l19.5-39.5
				c3.4-6.8,11.6-11.8,19.6-11.8c1,0,2.1,0.1,3.1,0.3l160.2,27.4c4.4,0.7,8.1,3.1,10.5,6.7c2.4,3.6,3.1,8,2.1,12.3l-19.2,80.1
				c-1.9,7.9-8.5,18.6-14.7,23.8l-59,50.1C195.1,287.3,191.4,288.6,187.6,288.6z M115.1,89.3c-5.9,0-12.3,3.8-14.8,8.8l-19.5,39.5
				c-2.9,5.9-1.9,15.3,2.2,20.4l96.2,121.1c2.1,2.6,5.1,4.1,8.4,4.1c2.5,0,5-0.9,7-2.6l59-50.1c5.4-4.6,11.3-14.2,12.9-21l19.2-80.1
				c0.7-2.9,0.2-5.8-1.4-8.1c-1.6-2.4-4-3.9-6.9-4.4L117.3,89.5C116.6,89.4,115.8,89.3,115.1,89.3z"/>
		</g>
		<g>
			<path fill="#FFFFFF" d="M249.6,294.7L249.6,294.7c-2.8,0-5.4-0.5-7.7-1.5L92.4,229.5c-4.1-1.7-7.1-4.9-8.6-9
				c-1.5-4.1-1.2-8.5,0.8-12.4l37.3-73.5c3.7-7.2,12.5-16.1,19.8-19.8l69-35.1c2.3-1.2,4.8-1.8,7.3-1.8c6.2,0,11.9,3.6,14.5,9.3
				L298,227.3c3.7,7.9,2.2,19.3-3.3,26l-28.1,33.9C262.7,291.9,256.2,294.7,249.6,294.7z M217.9,83.2c-1.7,0-3.4,0.4-4.9,1.2
				l-69,35.1c-6.3,3.2-14.3,11.2-17.4,17.5l-37.3,73.5c-1.3,2.6-1.5,5.5-0.6,8.2c1,2.7,3,4.8,5.7,5.9L244,288.3
				c1.7,0.7,3.6,1.1,5.7,1.1c5,0,10-2.2,12.8-5.6l28.1-33.9c4.2-5.1,5.4-14.4,2.6-20.4L227.6,89.4C225.8,85.6,222.1,83.2,217.9,83.2
				z"/>
		</g>
	</g>
	<g>
		<path fill="#FFFFFF" d="M134.7,145v14H133v-14h-4.5v-1.5h10.6v1.5H134.7z"/>
		<path fill="#FFFFFF" d="M152.5,159V152h-7.3v7.1h-1.7v-15.5h1.7v6.9h7.3v-6.9h1.7V159H152.5z"/>
		<path fill="#FFFFFF" d="M158.2,159v-15.5h9.6v1.5h-8v5.5h6.8v1.5h-6.8v5.6h8v1.5H158.2z"/>
		<path fill="#FFFFFF" d="M135.3,181.4c-3.1,0-5.4-2.2-5.4-5.2v-10.4h1.7V176c0,2.3,1.5,3.9,3.7,3.9c2.3,0,3.8-1.5,3.8-3.9v-10.2
			h1.7v10.4C140.7,179.2,138.4,181.4,135.3,181.4z"/>
		<path fill="#FFFFFF" d="M155.4,181.2l-8.2-12.4v12.4h-1.7v-15.5h1.6l8.2,12.4v-12.4h1.7v15.5H155.4z"/>
		<path fill="#FFFFFF" d="M162,181.2v-15.5h1.7v15.5H162z"/>
		<path fill="#FFFFFF" d="M168.6,181.2v-15.5h1.7v14h7.9v1.5H168.6z"/>
		<path fill="#FFFFFF" d="M181.6,181.2v-15.5h9.6v1.5h-8v5.5h6.8v1.5h-6.8v5.6h8v1.5H181.6z"/>
		<path fill="#FFFFFF" d="M200.5,181.2h-1.3l-5.1-15.5h1.7l4,12.5l4-12.5h1.7L200.5,181.2z"/>
		<path fill="#FFFFFF" d="M208.5,181.2v-15.5h9.6v1.5h-8v5.5h6.8v1.5h-6.8v5.6h8v1.5H208.5z"/>
		<path fill="#FFFFFF" d="M230.1,181.2l-3.5-6.9h-3.7v6.9h-1.7v-15.5h5.9c2.7,0,4.6,1.6,4.6,4.3c0,2.3-1.4,3.7-3.4,4.2l3.7,7H230.1z
			 M227,167.2h-4.1v5.7h4.1c1.8,0,3.1-0.9,3.1-2.8C230.1,168.2,228.8,167.2,227,167.2z"/>
		<path fill="#FFFFFF" d="M132.8,190.7v3.9h6.3v2.8h-6.3v6.5h-3.1v-16.1h10.6v2.8H132.8z"/>
		<path fill="#FFFFFF" d="M152.8,202.3c-1.1,1.1-2.5,1.8-4.3,1.8c-1.8,0-3.2-0.6-4.4-1.8c-1.6-1.6-1.6-3.6-1.6-6.4
			c0-2.8,0-4.8,1.6-6.4c1.1-1.1,2.5-1.8,4.4-1.8c1.8,0,3.2,0.6,4.3,1.8c1.6,1.6,1.6,3.6,1.6,6.4
			C154.4,198.7,154.5,200.7,152.8,202.3z M150.5,191.4c-0.5-0.5-1.2-0.9-2-0.9c-0.9,0-1.6,0.3-2,0.9c-0.6,0.7-0.8,1.4-0.8,4.5
			c0,3.1,0.2,3.8,0.8,4.5c0.5,0.5,1.2,0.9,2,0.9c0.9,0,1.6-0.3,2-0.9c0.6-0.7,0.8-1.4,0.8-4.5C151.3,192.8,151.1,192.1,150.5,191.4z
			"/>
		<path fill="#FFFFFF" d="M163.9,204.1c-3.3,0-5.9-2.2-5.9-5.6v-10.6h3.1v10.4c0,1.9,1.1,3,2.8,3c1.7,0,2.8-1.1,2.8-3v-10.4h3.1
			v10.6C169.8,201.8,167.2,204.1,163.9,204.1z"/>
		<path fill="#FFFFFF" d="M183.3,203.9l-6.4-9.9v9.9h-3.1v-16.1h2.8l6.4,9.8v-9.8h3.1v16.1H183.3z"/>
		<path fill="#FFFFFF" d="M200.5,202.4c-1.1,1.1-2.6,1.5-4.2,1.5h-5.8v-16.1h5.8c1.7,0,3.2,0.5,4.2,1.5c1.8,1.8,1.6,4,1.6,6.4
			C202.1,198.3,202.3,200.6,200.5,202.4z M198.3,191.7c-0.5-0.7-1.3-1-2.3-1h-2.4v10.5h2.4c1.1,0,1.8-0.3,2.3-1
			c0.6-0.7,0.7-1.9,0.7-4.3C199,193.4,198.9,192.4,198.3,191.7z"/>
		<path fill="#FFFFFF" d="M214.4,203.9l-3.1-6.4H209v6.4h-3.1v-16.1h6.3c3.3,0,5.2,2.2,5.2,4.9c0,2.3-1.4,3.7-2.9,4.2l3.6,6.9H214.4
			z M212,190.7h-3v4.2h3c1.4,0,2.3-0.9,2.3-2.1C214.3,191.6,213.4,190.7,212,190.7z"/>
		<path fill="#FFFFFF" d="M227.4,197.4v6.6h-3.1v-6.6l-4.8-9.5h3.4l3,6.5l3-6.5h3.4L227.4,197.4z"/>
	</g>
</g>
</svg>
