<svg id="Layer_1" data-name="Layer 1" xmlns="http://www.w3.org/2000/svg" viewBox="0 0 26 28"><defs><style>.cls-1{fill:#6d6d6d;}</style></defs><title>Notification</title><path class="cls-1" d="M25.2,19C25,19,21,18,21,10a8,8,0,0,0-5-7.43,3,3,0,0,0-5.91,0A8,8,0,0,0,5,10c0,8-4,9-4.21,9A1,1,0,0,0,0,20v2a1,1,0,0,0,.76,1A46,46,0,0,0,9,23.91V24a4,4,0,0,0,8,0V23.91A46,46,0,0,0,25.24,23,1,1,0,0,0,26,22V20A1,1,0,0,0,25.2,19ZM13,1a2,2,0,0,1,1.84,1.22,7.73,7.73,0,0,0-3.69,0A2,2,0,0,1,13,1Zm3,23a3,3,0,0,1-6,0v0c0.93,0,1.93,0,3,0s2.07,0,3,0v0Zm9-2a55,55,0,0,1-12,1A55,55,0,0,1,1,22V20s5-1,5-10a7,7,0,0,1,14,0c0,9,5,10,5,10v2Z"/></svg>