<?xml version="1.0" encoding="utf-8"?>
<!-- Generator: Adobe Illustrator 18.1.1, SVG Export Plug-In . SVG Version: 6.00 Build 0)  -->
<!DOCTYPE svg PUBLIC "-//W3C//DTD SVG 1.1//EN" "http://www.w3.org/Graphics/SVG/1.1/DTD/svg11.dtd">
<svg version="1.1" id="Layer_1" xmlns="http://www.w3.org/2000/svg" xmlns:xlink="http://www.w3.org/1999/xlink" x="0px" y="0px"
	 viewBox="0 0 25 29" enable-background="new 0 0 25 29" xml:space="preserve">
<g>
	<g>
		<path fill="#FFFFFF" d="M10.2,26.6c0.2,0,0.5-0.1,0.8-0.5c-0.2-0.3-0.3-1-0.3-1.3c-0.1-1.3,0.4-2.5,1-2.5c0.4,0,0.7,0.3,0.8,1
			c0.1,1.6-0.4,2.3-0.7,2.8c0,0.2,0.4,0.6,0.8,0.6c0.1,0,0.3-0.1,0.3-0.1c0-0.1-0.1-0.2-0.1-0.4c0-0.9,0.6-1.7,1.1-1.7
			c0.4,0,0.6,0.5,0.6,0.9c0,0.4-0.4,0.8-0.9,1.1c0.1,0.1,0.3,0.2,0.4,0.2c0.8,0,1.2-0.9,1.4-1.7c0.1-0.2,0.1-0.4,0.3-0.4
			c0.3,0,0.5,2.1,1,2.1c0.2,0,0.4-0.5,0.4-0.8c0-0.3-0.1-0.3-0.1-0.7c0-0.4,0.2-0.8,0.5-0.8c0.2,0,0.3,0.2,0.3,0.4
			c0,0.8-0.6,2.4-1.5,2.4c-0.7,0-0.6-1.2-0.9-1.2c-0.3,0-0.6,1.2-2,1.2c-0.2,0-0.4-0.1-0.6-0.3c-0.3,0.2-0.6,0.3-0.9,0.3
			c-0.5,0-0.7-0.5-0.9-0.5c-0.2,0-0.5,0.5-1.3,0.5c-0.6,0-0.7-0.8-1-0.8c-0.2,0-0.5,0.8-0.8,0.8c-0.6,0-0.7-1.5-1.2-1.5
			c-0.4,0-1.6,1.5-1.9,1.5c-0.1,0-0.2-0.1-0.2-0.2c0-0.2,0.2-0.7,0.2-0.9c0.1-0.4,0.2-0.8,0.3-1c0.1-0.1,0.2-0.2,0.3-0.2
			c0.1,0,0.1,0.1,0.1,0.2c0.1,0.3,0.2,0.7,0.3,0.7c0.2,0,0.8-1.2,1.2-1.2c0.4,0,0.5,1.9,1.1,1.9c0.2,0,0.3-0.2,0.5-0.5
			c0-0.5,0.1-1.2,0.5-1.2c0.3,0,0.4,0.6,0.2,1.2C9.6,26.5,10,26.6,10.2,26.6 M20.8,25c0-0.1,0.1-0.4,0.3-0.4c0.2,0,0.1,1.5,0.5,1.5
			c0.2,0,0.5-1.9,1.7-1.9c0.4,0,0.7,0.2,0.7,0.5c0,0.2-0.2,0.4-0.4,0.4c-0.5,0-0.4-0.4-0.6-0.4c-0.5,0-0.9,1-1.3,1.9
			c-0.2,0.4-0.3,0.4-0.4,0.4c-0.3,0-0.4-0.9-0.5-1.3c-0.3,0.6-0.8,1.3-1.7,1.3c-0.5,0-1-0.3-1-1.1c0-0.9,0.6-1.5,1.2-1.5
			c0.5,0,0.8,0.5,0.8,0.8c0,0.9-1.2,0.9-1.2,1.1c0,0.2,0.3,0.2,0.5,0.2C20.2,26.7,20.7,25.7,20.8,25 M12.1,23.6
			c0-0.4-0.1-0.5-0.3-0.5c-0.3,0-0.4,0.9-0.3,1.7c0,0.6,0.1,0.7,0.2,0.6C11.8,25.5,12.1,24.5,12.1,23.6 M9.9,22.8
			c0,0.3-0.2,0.6-0.5,0.6c-0.3,0-0.4-0.2-0.4-0.4c0-0.3,0.2-0.6,0.5-0.6C9.7,22.5,9.9,22.6,9.9,22.8 M14,25.5c0-0.2-0.1-0.4-0.3-0.4
			c-0.1,0-0.4,0.1-0.4,0.6c0,0.3,0.1,0.5,0.2,0.6C13.9,26.1,14,25.8,14,25.5 M19.2,25.1c-0.5,0-0.5,0.8-0.4,1
			c0.4-0.1,0.6-0.3,0.7-0.5C19.5,25.4,19.5,25.1,19.2,25.1 M4,24.2c0-0.1-0.1-0.4-0.2-0.6c-0.1-0.5,0.2-0.7,0.4-0.8
			c0.2-0.1,0.3,0.1,0.4,0.3c0.1,0.4,0.1,1,0.1,1.8c-0.1,1.1-0.6,2.4-1.9,2.4c-1.2,0-1.7-0.8-1.7-1.9c0-0.5,0-1.1,0.2-1.8
			c0.1-0.4,0.2-0.6,0.6-0.6c0.3-0.1,0.3,0.3,0.2,0.6c-0.1,0.8-0.2,1.2-0.2,2.1c0,1,0.5,1.3,1,1.3c0.7,0,1-0.6,1.2-1.4
			C4.1,24.7,4,24.4,4,24.2"/>
	</g>
	<g>
		<polyline fill="#FFFFFF" points="10.2,2.5 10.3,2.5 10.4,2.5 10.4,2.6 10.4,2.7 10.4,2.8 10.4,2.9 10.4,2.9 10.3,3 10.3,3 10.2,3 
			10.1,2.9 10,2.9 9.9,2.8 9.8,2.8 9.7,2.7 9.7,2.6 9.6,2.6 9.7,2.6 9.7,2.5 9.8,2.5 9.9,2.5 10,2.5 10.1,2.5 10.2,2.5 		"/>
	</g>
	<g>
		<polyline fill="#FFFFFF" points="6,1.8 6.1,1.8 6.2,1.9 6.3,1.9 6.3,2 6.4,2 6.5,2.1 6.5,2.2 6.6,2.2 6.7,2.2 6.8,2.2 6.9,2.2 
			7,2.1 7,2 7.1,2 7.2,1.9 7.2,1.9 7.3,1.8 7.5,1.8 7.6,1.8 7.8,1.8 7.9,1.9 7.9,1.9 7.9,1.9 7.9,1.9 7.9,1.9 7.8,2 7.8,2 7.7,2.1 
			7.6,2.1 7.6,2.2 7.6,2.3 7.7,2.4 7.8,2.4 7.9,2.5 8,2.6 8.1,2.6 8.2,2.7 8.2,2.7 8.2,2.8 8.2,2.8 8.2,2.8 8.2,2.8 8.1,2.8 
			7.9,2.8 7.8,2.7 7.7,2.7 7.6,2.7 7.5,2.8 7.5,2.8 7.5,2.9 7.5,3 7.5,3.1 7.6,3.3 7.6,3.4 7.6,3.5 7.7,3.6 7.6,3.6 7.6,3.6 
			7.5,3.6 7.5,3.5 7.4,3.5 7.3,3.4 7.3,3.3 7.2,3.2 7.1,3.1 7,3.1 6.9,3.1 6.9,3.2 6.8,3.3 6.8,3.4 6.7,3.5 6.7,3.6 6.7,3.7 
			6.7,3.8 6.6,3.8 6.6,3.9 6.5,3.8 6.5,3.8 6.5,3.7 6.5,3.6 6.5,3.5 6.5,3.4 6.5,3.3 6.5,3.2 6.4,3.1 6.3,3.1 6.3,3.1 6.1,3.1 
			6,3.1 6,3.2 5.9,3.3 5.8,3.4 5.7,3.4 5.6,3.4 5.6,3.4 5.6,3.4 5.6,3.3 5.7,3.2 5.7,3.1 5.8,3 5.9,2.9 6,2.8 6,2.8 6,2.7 5.9,2.6 
			5.8,2.6 5.8,2.6 5.6,2.6 5.5,2.7 5.3,2.7 5.2,2.7 5.1,2.7 5.1,2.7 5.1,2.6 5.1,2.6 5.1,2.6 5.2,2.5 5.3,2.5 5.4,2.5 5.5,2.4 
			5.6,2.4 5.7,2.3 5.8,2.3 5.8,2.2 5.8,2.1 5.7,2 5.6,2 5.6,2 5.5,1.9 5.5,1.9 5.5,1.9 5.5,1.9 5.5,1.9 5.6,1.8 5.7,1.8 5.8,1.8 
			6,1.8 		"/>
	</g>
	<g>
		<polyline fill="#FFFFFF" points="3.8,3.5 3.9,3.5 3.9,3.6 3.9,3.6 3.9,3.6 3.9,3.7 3.8,3.8 3.7,3.9 3.6,4 3.5,4.1 3.4,4.1 
			3.3,4.2 3.2,4.2 3.2,4.2 3.2,4.1 3.1,4.1 3.1,4 3.1,3.9 3.2,3.8 3.2,3.7 3.3,3.6 3.4,3.6 3.5,3.6 3.6,3.5 3.8,3.5 		"/>
	</g>
	<g>
		<path fill="#FFFFFF" d="M18.2,3.7L18.2,3.7l0.1,0.1l0.1,0.1l0.1,0.1L18.6,4l0.1,0.1l0.2,0h0.1l0.1,0l0.1,0l0.1,0L19.2,4l0-0.1
			l0-0.1v0l0-0.1l-0.1-0.1l-0.1-0.1l-0.1-0.1l-0.1-0.1l-0.2-0.1l-0.2,0l-0.1,0l-0.1,0l-0.1,0l-0.1,0l0,0l0,0l0.1,0l0.1,0l0.1,0
			l0.1,0l0.2,0l0.1,0l0.1,0l0.2,0l-0.2-0.2l-0.2-0.1l-0.2-0.1l-0.2-0.1l-0.2-0.1l-0.1,0l-0.1,0l-0.1,0l-0.1,0l0,0l0,0l0.1,0l0.1,0
			l0.1,0l0.2,0l0.2,0l0.2,0H19l0.2,0l0.1,0l0.1,0l0.1,0L19.6,2l0,0.1l0,0.1l0,0.1l0,0.1l0,0.1l0,0.1l0,0.2l0,0.1l0,0.1l0.1,0.1
			l0.1,0l0.1,0l0.1,0L20,3.1L20.1,3l0-0.1l0-0.1l0-0.1l0-0.2l0-0.2l0-0.1l0-0.2L20.2,2l0.1-0.1l0.1-0.1l0.2,0l0.1,0l0.1,0l0.1,0
			l0.1,0l0.1,0l0.1,0l-0.1,0.1L21,2.1l0,0.1l0,0.1l0,0.1l0,0.1l0,0.1l0,0.1l0,0.2l0,0.2l0,0.2l0,0.2L21,3.8L20.9,4l-0.1,0.2
			l-0.1,0.1l-0.2,0.1l-0.2,0.1l-0.2,0.1l-0.2,0.1l-0.3,0.1l-0.3,0l-0.3,0l-0.3,0l-0.5,0l-0.6-0.1l0,0l0,0l0,0l0,0l0.1,0l0.1,0
			L18,4.6L18,4.5l0.1-0.1l0-0.1l0-0.1l0-0.1l0-0.1l0-0.1L18.2,3.7L18.2,3.7L18.2,3.7 M20.5,2l-0.1,0l-0.1,0.1l0,0.1v0l0,0.1l0.1,0.1
			l0.1,0l0.1,0l0.1-0.1l0-0.1l0-0.1L20.6,2L20.5,2 M20.4,3L20.4,3l0,0.3l-0.1,0.2l-0.1,0.2l-0.1,0.2L19.9,4l-0.2,0.1l-0.3,0.1
			l-0.3,0.1l0,0h0.3l0.3,0l0.2,0l0.2-0.1l0.2-0.1L20.4,4l0.1-0.1l0.1-0.1l0.1-0.1l0-0.1l0-0.1l0-0.1l-0.1-0.1l-0.1-0.1L20.4,3"/>
	</g>
	<g>
		<path fill="#FFFFFF" d="M15.1,3.8L15.1,3.8l0.1,0l0.1,0l0.1,0l0.1,0l0,0l0-0.1l0-0.1l0-0.1l0-0.1l0,0l0,0l0,0l0.1,0l0.1,0l0.1,0
			l0.1,0l0,0l0,0l-0.1,0l-0.1,0l-0.1,0l-0.1,0l0,0l0,0l0,0l0-0.1L15.5,3l0-0.1l0-0.1l0,0l-0.1,0l-0.1,0l-0.1,0l-0.1,0l0,0l0,0l0-0.1
			l0-0.1l0-0.1l0-0.1l0,0l0,0l0,0.1l0,0.1l0,0.1l0,0.1l0,0l0,0l-0.3,0l-0.1,0l0,0.1l0.1,0.1l0.1,0.1l0.1,0.1l0,0.1l0,0l0,0l-0.1,0
			l-0.1,0.1l-0.1,0.1l-0.1,0.1l0,0.1l0,0l0,0l0.3,0l0,0l0,0l0,0.3l0,0.1l0,0l0,0l0,0l0-0.1L15.1,3.8L15.1,3.8L15.1,3.8 M13.8,1.9
			L13.8,1.9L13.9,2L14,2l0.1,0.1l0.1,0.1l0.1,0.1l0.1,0l0.1,0l0.1,0l0,0l0-0.1l0-0.1l0-0.1l0-0.1V1.9l0-0.1l0-0.1l0,0l0,0l0.1,0
			l0.1,0.1l0.1,0.1L15,2l0.1,0l0.1,0l0.1,0l0.2-0.1l0.2-0.1l0.2,0l0.2,0l0.3,0l0.3,0.1l0.2,0.1l0.2,0.1l0.2,0.1l0.2,0.2l0.1,0.2
			l0.1,0.2l0.1,0.3l0,0.3l0,0.3l-0.1,0.3l-0.1,0.2l-0.1,0.2l-0.1,0.2l-0.2,0.2L17,4.8l-0.2,0.1L16.6,5l-0.2,0l-0.2,0l-0.2,0L15.7,5
			l-0.2-0.1l-0.1-0.1l-0.1-0.1l-0.1-0.1l-0.1,0l-0.1,0l-0.1,0.1l-0.1,0.1l-0.1,0.1l0,0.1l0,0l0,0l0,0l0-0.1l0-0.1l0-0.1l0-0.1l0-0.1
			l0-0.1l-0.1,0h0l0,0l-0.1,0.1l-0.1,0.1l-0.1,0.1l-0.1,0.1L14,4.8l-0.1,0l-0.1,0l0,0l0,0l0-0.1l0-0.1L14,4.6L14,4.5l0.1-0.1
			l0.1-0.1l0-0.1l0-0.1l0-0.1l-0.1,0L14,4L14,4l-0.1,0l-0.1,0l0,0l0,0l0,0l0-0.1l0.1-0.1L14,3.7l0.1-0.1l0.1-0.1l0.1-0.1l0-0.1
			l0-0.1l-0.1-0.1l-0.1,0l-0.1,0l-0.1,0l-0.1,0l0,0l0,0l0,0l0.1,0l0.1,0l0.1,0l0.1-0.1l0.1-0.1l0-0.1l0-0.1l0-0.1L14,2.4L14,2.3
			l-0.1-0.1l-0.1-0.1L13.8,1.9L13.8,1.9L13.8,1.9L13.8,1.9 M16.1,2.1l-0.2,0l-0.2,0l-0.1,0.1l-0.1,0.1l-0.1,0.1l0,0.1l0,0.1l0.1,0
			l0,0l0.1,0l0.1,0l0.1,0l0.1,0l0.1,0l0.1,0l0,0l0,0l0,0l0,0l0,0.1l0,0.1l0,0.1l0,0.1l0,0l0.1,0l0.1,0l0.1,0l0.1,0l0.1,0l0.1,0
			l0.1,0l0,0l0,0l0,0l-0.1,0l-0.1,0l-0.1,0l-0.1,0l-0.1,0l-0.1,0l0,0l0,0.1l0.1,0.1l0.1,0.1l0.1,0.1l0.1,0.1l0.1,0.1l0,0.1l0,0.1
			l0,0l0,0l-0.1,0l-0.2,0l-0.2,0l-0.2,0l-0.1,0l0,0l0,0.1l0,0.1l0,0.1l0,0.1l0,0.1l0,0l0,0l-0.1,0l-0.1,0l-0.1-0.1l-0.1-0.1l-0.1,0
			l-0.1,0l-0.1,0l0,0.1l0,0.1l0.1,0.1l0.1,0.1l0.1,0.1l0.2,0.1l0.2,0l0.2,0l0.1,0l0.1,0l0.1,0l0.1-0.1l0.1-0.1l0.1-0.1L17,4.2
			l0.1-0.2l0.1-0.2l0-0.2l0-0.3l0-0.3l-0.1-0.3L17,2.6l-0.1-0.2l-0.2-0.1l-0.2-0.1l-0.2-0.1L16.1,2.1"/>
	</g>
	<g>
		<polyline fill="#FFFFFF" points="9.1,4.3 9.2,4.3 9.3,4.3 9.4,4.4 9.5,4.5 9.7,4.6 9.8,4.7 10,4.8 10.1,4.9 10.2,5 10.3,5.1 
			10.3,5.2 10.4,5.2 10.4,5.3 10.4,5.4 10.3,5.5 10.3,5.6 10.3,5.7 10.2,5.7 10.1,5.7 10.1,5.7 10,5.7 9.9,5.6 9.8,5.5 9.7,5.3 
			9.6,5.2 9.5,5 9.4,4.9 9.3,4.7 9.2,4.6 9.2,4.5 9.1,4.4 9.1,4.3 9.1,4.3 9.1,4.3 		"/>
	</g>
	<g>
		<polyline fill="#FFFFFF" points="19,5.3 19.2,5.3 19.3,5.3 19.5,5.3 19.7,5.3 19.9,5.2 20,5.1 20.2,5.1 20.3,5.1 20.3,5.2 
			20.4,5.2 20.4,5.3 20.3,5.4 20.3,5.5 20.2,5.6 20.1,5.6 20,5.7 19.8,5.8 19.7,5.8 19.6,5.8 19.5,5.8 19.4,5.8 19.3,5.8 19.3,5.8 
			19.2,5.8 19.2,5.7 19.1,5.6 19.1,5.5 19.1,5.4 19.1,5.3 19,5.3 		"/>
	</g>
	<g>
		<polyline fill="#FFFFFF" points="4.3,5.1 4.4,5.1 4.5,5.2 4.6,5.2 4.7,5.3 4.8,5.5 4.8,5.6 4.9,5.7 4.9,5.8 4.9,5.9 4.9,6.2 
			4.8,6.3 4.7,6.3 4.5,6.3 4.4,6.3 4.2,6.2 4.1,6.1 4,6 3.9,5.9 3.8,5.7 3.8,5.6 3.8,5.4 3.9,5.3 4,5.2 4.1,5.1 4.3,5.1 		"/>
	</g>
	<g>
		<polyline fill="#FFFFFF" points="3.9,1.8 4,1.8 4.1,1.8 4.3,1.8 4.4,1.8 4.6,1.8 4.7,1.9 4.8,1.9 4.9,2 5,2 5,2 5,2.1 4.9,2.2 
			4.8,2.2 4.7,2.3 4.6,2.4 4.5,2.4 4.4,2.5 4.3,2.6 4.3,2.6 4.2,2.7 4.2,2.8 4.3,2.8 4.4,2.9 4.5,2.9 4.6,2.9 4.8,2.9 4.9,2.9 5,3 
			5.1,3 5.2,3 5.3,3 5.3,3.1 5.3,3.1 5.2,3.2 5.1,3.3 5,3.4 4.9,3.5 4.8,3.7 4.7,3.8 4.6,3.9 4.5,3.9 4.5,4 4.5,4.1 4.6,4.1 
			4.7,4.1 4.8,4 4.9,4 5,3.9 5.2,3.8 5.3,3.8 5.4,3.7 5.5,3.7 5.5,3.7 5.6,3.8 5.6,3.8 5.6,4 5.5,4.1 5.5,4.3 5.5,4.4 5.4,4.6 
			5.5,4.6 5.5,4.7 5.5,4.7 5.6,4.7 5.7,4.6 5.7,4.5 5.8,4.4 5.9,4.3 5.9,4.2 6,4.1 6.1,4.1 6.1,4 6.2,4 6.2,4.1 6.2,4.2 6.2,4.3 
			6.2,4.4 6.2,4.5 6.2,4.6 6.3,4.8 6.3,4.9 6.3,5 6.3,5 6.4,5 6.4,5 6.5,5 6.5,4.9 6.5,4.8 6.6,4.6 6.6,4.5 6.6,4.4 6.7,4.3 
			6.7,4.2 6.7,4.2 6.8,4.1 6.8,4.2 6.9,4.2 6.9,4.3 7,4.4 7,4.5 7.1,4.6 7.1,4.6 7.2,4.6 7.3,4.6 7.3,4.6 7.3,4.5 7.3,4 7.3,3.9 
			7.4,3.9 7.4,3.9 7.5,3.9 7.5,4 7.6,4 7.8,4.1 7.9,4.2 8,4.3 8.1,4.4 8.2,4.5 8.3,4.6 8.3,4.6 8.4,4.6 8.4,4.5 8.4,4.4 8.3,4.3 
			8.3,4.2 8.2,4.1 8.1,3.9 8.1,3.8 8,3.6 8,3.5 8,3.3 8,3.3 8,3.2 8,3.2 8.1,3.2 8.2,3.2 8.4,3.2 8.5,3.3 8.7,3.4 8.8,3.4 9,3.5 
			9.1,3.5 9.2,3.5 9.2,3.4 9.3,3.3 9.2,3.3 9.2,3.2 9.1,3 9,2.9 8.9,2.8 8.8,2.7 8.6,2.6 8.5,2.5 8.5,2.4 8.4,2.3 8.4,2.2 8.4,2.2 
			8.5,2.1 8.6,2.1 8.7,2 8.9,2 9,1.9 9.2,1.9 9.4,1.8 9.6,1.8 9.8,1.8 10,1.8 10,1.8 10.1,1.8 10.2,1.8 10.2,1.8 10.2,1.9 10.2,1.9 
			10.1,1.9 10.1,2 9.9,2 9.8,2.1 9.7,2.1 9.5,2.2 9.4,2.3 9.3,2.3 9.2,2.4 9.2,2.4 9.2,2.5 9.2,2.6 9.3,2.7 9.4,2.8 9.5,2.9 
			9.6,3.1 9.8,3.2 9.9,3.4 10,3.5 10.2,3.6 10.2,3.8 10.3,3.9 10.3,4 10.3,4.1 10.2,4.1 10.1,4.1 10,4.1 9.8,4.1 9.7,4 9.5,4 
			9.3,3.9 9.1,3.9 8.9,3.8 8.8,3.8 8.7,3.8 8.6,3.8 8.6,3.8 8.6,3.9 8.6,4 8.6,4.1 8.7,4.2 8.8,4.4 8.8,4.6 8.9,4.7 9,4.9 9,5.1 
			9.1,5.2 9.1,5.3 9.1,5.4 9.1,5.5 9,5.5 9,5.5 8.9,5.5 8.8,5.4 8.7,5.4 8.5,5.3 8.4,5.1 8.3,5 8.1,4.9 8,4.8 7.9,4.7 7.8,4.7 
			7.7,4.7 7.6,4.7 7.6,4.7 7.6,4.8 7.5,4.9 7.5,5 7.5,5.1 7.5,5.2 7.5,5.3 7.4,5.4 7.4,5.4 7.3,5.3 7.3,5.3 7.2,5.2 7.1,5.1 7,5.1 
			7,5 6.9,5 6.8,5 6.8,5.1 6.7,5.2 6.7,5.3 6.7,5.4 6.6,5.6 6.6,5.8 6.5,5.9 6.5,6.1 6.4,6.2 6.4,6.3 6.3,6.3 6.3,6.4 6.2,6.3 
			6.2,6.3 6.1,6.2 6.1,6.1 6.1,6 6.1,5.8 6,5.7 6,5.5 6,5.4 6,5.3 6,5.2 5.9,5.1 5.9,5.1 5.8,5.1 5.7,5.2 5.6,5.2 5.5,5.3 5.4,5.4 
			5.3,5.5 5.2,5.5 5.1,5.5 5.1,5.4 5,5.4 5,5.3 5,5.1 5.1,4.9 5.1,4.7 5.1,4.6 5.1,4.5 5.1,4.4 5,4.4 5,4.4 4.9,4.4 4.8,4.4 
			4.6,4.5 4.5,4.6 4.3,4.7 4.1,4.8 4,4.8 3.8,4.9 3.6,5 3.5,5 3.4,5.1 3.3,5 3.3,5 3.3,5 3.3,4.9 3.4,4.8 3.4,4.6 3.5,4.5 3.7,4.4 
			3.8,4.2 3.9,4.1 4.1,3.9 4.2,3.8 4.3,3.6 4.4,3.5 4.5,3.4 4.5,3.3 4.5,3.3 4.4,3.3 4.3,3.2 4.2,3.2 4,3.2 3.9,3.2 3.7,3.2 
			3.5,3.2 3.4,3.2 3.3,3.2 3.2,3.2 3.1,3.1 3.1,3.1 3.1,3 3.2,3 3.3,2.9 3.4,2.8 3.5,2.7 3.7,2.7 3.8,2.6 3.9,2.5 4,2.4 4.1,2.4 
			4.1,2.3 4.1,2.3 4,2.2 3.9,2.2 3.8,2.1 3.7,2.1 3.5,2.1 3.4,2.1 3.3,2 3.2,2 3.2,1.9 3.1,1.9 3.2,1.9 3.2,1.8 3.4,1.8 3.5,1.8 
			3.8,1.8 3.9,1.8 		"/>
	</g>
	<g>
		<polyline fill="#FFFFFF" points="14.8,5.2 15,5.2 15.1,5.2 15.2,5.3 15.3,5.3 15.4,5.4 15.4,5.4 15.5,5.4 15.5,5.4 15.6,5.4 
			15.7,5.4 15.7,5.4 15.7,5.4 15.7,5.5 15.7,5.6 15.7,5.7 15.7,5.8 15.7,6 15.6,6.1 15.5,6.3 15.4,6.4 15.3,6.5 15.2,6.4 15.1,6.2 
			15,6.2 14.9,6.1 14.9,6.1 14.9,6 15,5.9 15.1,5.8 15,5.8 15,5.8 14.9,5.7 14.8,5.7 14.7,5.7 14.5,5.7 14.3,5.8 14.2,5.9 14.1,6 
			14.1,6 14.1,6 14.1,5.9 14.1,5.8 14.1,5.6 14.2,5.5 14.2,5.4 14.3,5.3 14.5,5.3 14.6,5.2 14.8,5.2 		"/>
	</g>
	<g>
		<polyline fill="#FFFFFF" points="20.7,5.1 20.8,5.1 20.9,5.2 20.9,5.3 21,5.4 21,5.6 21,5.7 20.9,5.9 20.8,6.1 20.7,6.2 20.5,6.3 
			20.3,6.5 20.1,6.6 19.9,6.6 19.6,6.6 19.5,6.6 19.3,6.6 19.3,6.5 19.2,6.5 19.2,6.4 19.2,6.3 19.2,6.3 19.3,6.2 19.3,6.2 
			19.5,6.1 19.7,6.1 19.9,6.1 20.1,6 20.2,5.9 20.4,5.8 20.5,5.7 20.6,5.6 20.7,5.4 20.7,5.3 20.7,5.2 20.7,5.1 20.7,5.1 		"/>
	</g>
	<g>
		<polyline fill="#FFFFFF" points="3.4,5.6 3.4,5.7 3.4,5.9 3.5,6.1 3.6,6.2 3.7,6.3 3.9,6.5 4,6.5 4,6.5 3.9,6.6 3.8,6.6 3.7,6.6 
			3.6,6.6 3.5,6.6 3.3,6.6 3.2,6.5 3.2,6.4 3.1,6.3 3.1,6.1 3.1,6 3.1,5.9 3.2,5.8 3.3,5.7 3.4,5.6 		"/>
	</g>
	<g>
		<polyline fill="#FFFFFF" points="5.5,6.2 5.6,6.3 5.7,6.3 5.8,6.4 5.8,6.5 5.8,6.6 5.7,6.7 5.6,6.8 5.5,6.8 5.4,6.8 5.3,6.7 
			5.3,6.6 5.3,6.5 5.3,6.5 5.3,6.4 5.3,6.3 5.4,6.3 5.5,6.2 		"/>
	</g>
	<g>
		<path fill="#FFFFFF" d="M17.4,5.3L17.4,5.3l0.1,0l0,0.1l0,0.1l0,0.1l0.1,0l0.1,0l0.1,0l0.1,0l0.1,0l0.1,0l0.1,0l0.1,0l0.1,0.1
			l0.1,0.1l0.1,0.1l0.1,0.1L18.7,6l0,0.1l0,0.1l0,0.1l0,0.1l-0.1,0.1l-0.1,0.1l-0.1,0.1l-0.2,0.1l-0.2,0l-0.2,0l-0.2,0l-0.2,0
			l-0.2-0.1L17,6.8l-0.2-0.1l-0.2-0.1l-0.1-0.1l-0.1-0.2l-0.1-0.2l-0.1-0.2l0-0.2l0-0.1l0,0l0,0l0.1,0l0.1,0l0.1,0l0.1,0l0.2,0
			L17,5.4l0.2-0.1L17.4,5.3L17.4,5.3 M16.9,5.9L16.9,5.9L16.9,5.9l0,0.1l0.1,0.1L17,6.2l0.1,0.1l0.2,0.1l0.2,0l0.2,0l0.2,0l0.1,0
			l0.1-0.1l0.1-0.1l0-0.1l0,0l-0.1,0l-0.1,0h-0.1l-0.1,0l-0.1,0l-0.1,0l-0.2,0l-0.2,0l-0.1,0l-0.1,0L16.9,5.9L16.9,5.9"/>
	</g>
	<g>
		<polyline fill="#FFFFFF" points="5.9,6.9 6,6.9 6.1,7 6.1,7 6.2,7.1 6.1,7.2 6.1,7.3 6,7.4 5.9,7.4 5.8,7.4 5.7,7.3 5.7,7.2 
			5.6,7.1 5.6,7.1 5.7,7 5.7,7 5.8,6.9 5.9,6.9 		"/>
	</g>
	<g>
		<polyline fill="#FFFFFF" points="16.3,7.1 16.4,7.2 16.5,7.2 16.5,7.3 16.6,7.4 16.5,7.5 16.5,7.6 16.4,7.6 16.3,7.6 16.2,7.6 
			16.1,7.6 16.1,7.5 16.1,7.4 16.1,7.4 16.1,7.3 16.1,7.2 16.2,7.2 16.3,7.1 		"/>
	</g>
	<g>
		<polyline fill="#FFFFFF" points="14,6.4 14.1,6.5 14.3,6.6 14.5,6.6 14.7,6.6 14.8,6.6 14.8,6.7 14.8,6.7 14.7,6.8 14.7,6.9 
			14.8,7 15,7 15.1,7 15.2,7 15.4,6.9 15.5,6.8 15.6,6.7 15.7,6.6 15.8,6.5 15.8,6.3 15.8,6.2 15.9,6.2 15.9,6.3 15.9,6.4 15.9,6.5 
			15.9,6.8 15.9,6.9 15.8,7.1 15.7,7.2 15.6,7.4 15.5,7.4 15.3,7.5 15.2,7.6 15,7.6 14.9,7.6 14.7,7.6 14.5,7.6 14.4,7.5 14.4,7.5 
			14.3,7.5 14.3,7.5 14.2,7.6 14.2,7.6 14.1,7.7 14.1,7.7 14.1,7.7 14,7.7 14,7.6 13.9,7.5 13.9,7.3 13.8,7.2 13.8,7 13.8,6.8 
			13.9,6.5 14,6.4 		"/>
	</g>
	<g>
		<path fill="#FFFFFF" d="M6.7,6.6L6.7,6.6L6.7,6.6l0.1,0.1l0,0.1l0,0.1l0,0.1l0,0.1l0.1,0.1l0.1,0l0.1,0l0.1,0l0.1,0l0.1-0.1L7.3,7
			l0.1-0.1l0.1-0.2l0-0.2l0-0.1l0-0.1L7.4,6.1l-0.1,0l-0.1,0l-0.1,0L7,6.2L7,6.1l0.1-0.2l0.1-0.1l0.2-0.1l0.2-0.1l0.2,0l0.2,0l0.2,0
			l0.2,0.1l0.1,0.1l0.1,0.1L8.7,6l0.1,0.2l0,0.2l0,0.2l0,0.2v0l0,0l0.1-0.2l0.1-0.2l0.1-0.1l0.2-0.1l0.2-0.1l0.2,0l0.2,0L10,6.2
			l0.1,0.1l0.1,0.1l0.1,0.1l0,0.1l0,0.1l0,0.2l0,0.1l0,0.1l0,0.1l0,0.1l0,0.1l0,0l0,0l0,0l0-0.1l0-0.1l0-0.1l0-0.1l0-0.1l0,0l-0.1,0
			l-0.1,0L9.9,6.9l0,0.1l0,0.1l0,0.1l0,0.1l0,0.1l0,0.1l0,0.1l0,0.1l0.1,0l0.1,0l0,0l0,0.1L10.1,8L10,8.1L9.9,8.2L9.7,8.2l-0.2,0
			l-0.2,0L9.3,8.2L9.1,8.1L9,8L8.9,7.8L8.9,7.7L8.8,7.6l0-0.1l0-0.2l0-0.2L8.5,7.3L8.3,7.4L8.2,7.5L8,7.7L7.8,7.7l-0.2,0l-0.2,0
			l-0.2,0L7,7.7L6.8,7.6L6.7,7.5L6.6,7.4L6.6,7.3l0-0.1l0-0.1l0-0.1l0-0.1l0-0.1L6.7,6.6L6.7,6.6L6.7,6.6 M8.5,6.3L8.5,6.3L8.3,6.4
			L8.3,6.5l0,0.1l0,0.1l0,0.1l0,0.1l0,0.1l0,0.1l0,0.1l0,0.1l0.1,0h0l0.1,0l0.1-0.1L8.5,7l0.1-0.1l0-0.1V6.6l0-0.1l0-0.1L8.5,6.3
			L8.5,6.3 M9.1,6.7L9.1,6.7L9,6.8L8.9,6.9L8.9,7l0,0.2l0,0.1l0,0.1l0.1,0l0.1,0l0-0.1l0-0.1l0-0.1l0-0.1l0-0.1L9.1,6.7L9.1,6.7
			L9.1,6.7L9.1,6.7 M8.1,5.8L8.1,5.8L8,5.9L7.9,6L7.8,6.1L7.8,6.3L7.7,6.5l0,0.2l0,0.2l0,0.2l0,0.1l0,0.1l0,0.1l0,0.1l0,0l0.1,0h0
			l0.1,0l0.1-0.1l0.1-0.1l0.1-0.1L7.9,7l0-0.2l0-0.2l0-0.2l0-0.2l0-0.1l0-0.1l0-0.1l0-0.1L8.1,5.8L8.1,5.8L8.1,5.8 M9.7,6.5L9.7,6.5
			L9.6,6.6L9.5,6.7L9.4,6.8L9.4,7l0,0.2l0,0.2l0,0.2l0,0.1l0,0.1l0,0.1l0,0h0l0.1,0l0.1-0.1l0.1-0.1l0.1-0.1l0-0.1l0-0.2l0-0.2
			l0-0.2l0-0.1V6.6L9.7,6.5L9.7,6.5L9.7,6.5"/>
	</g>
	<g>
		<polyline fill="#FFFFFF" points="15.1,7.8 15.1,7.8 15.2,7.9 15.3,8 15.3,8.1 15.3,8.2 15.2,8.2 15.1,8.3 15.1,8.3 15,8.3 
			14.9,8.2 14.8,8.2 14.8,8.1 14.8,8.1 14.8,8 14.9,7.9 15,7.8 15.1,7.8 		"/>
	</g>
	<g>
		<path fill="#FFFFFF" d="M4.7,6.9H4.6L4.5,7l0,0.1l0,0.1l0,0.1l0,0.1l0.1,0.1l0.1,0.1l0.1,0.1l0.1,0.1l0.1,0l0.1,0l0.1-0.1l0-0.1
			l0-0.1l0,0l0,0L5,7.3l0,0l0-0.1l0-0.1l0-0.1L4.7,6.9L4.7,6.9 M3.9,7.2L3.9,7.2L3.8,7.3l0,0.1l0,0.1l0,0.1l0,0.1l0.1,0.1L3.9,8L4,8
			l0.1,0.1l0.1,0l0.1,0l0.1,0l0.1,0l0,0l0,0L4.4,7.9L4.2,7.8L4.1,7.7L4.1,7.5L3.9,7.2L3.9,7.2L3.9,7.2 M4.8,6.7l0.1,0l0.1,0l0,0l0,0
			l0,0.1l0,0.1l0.1,0.1l0.1,0.1l0.1,0l0,0l0,0l0,0.1l0,0.1l0,0.1L5.3,7.6L5.2,7.7L5.1,7.9L5,8L4.9,8.2L4.7,8.3L4.5,8.4L4.3,8.4
			l-0.2,0l-0.2,0l-0.2,0l-0.1,0l-0.1,0l-0.1,0l-0.1,0l0,0l0-0.1l0-0.1l0-0.1l0-0.1l0-0.1l0-0.1l0-0.1l0-0.1l0.1-0.1l0.1-0.1l0.1-0.1
			L3.9,7L4,6.9l0.2-0.1l0.2,0l0.1,0H4.8"/>
	</g>
	<g>
		<polyline fill="#FFFFFF" points="19.6,7 19.7,7 19.8,7 19.9,6.9 20.1,6.9 20.3,6.8 20.4,6.8 20.6,6.7 20.8,6.5 20.9,6.4 21,6.2 
			21.1,6.3 21.1,6.3 21.2,6.5 21.2,6.6 21.2,7.2 21.2,7.4 21.2,7.6 21.1,7.8 21.1,8 21.1,8.1 21.1,8.3 21,8.4 21,8.4 20.9,8.5 
			20.9,8.5 20.8,8.4 20.6,8.3 20.5,8.2 20.3,8.1 20.2,8 20,7.8 19.9,7.6 19.8,7.5 19.7,7.3 19.6,7.1 19.6,7 		"/>
	</g>
	<g>
		<polyline fill="#FFFFFF" points="16,7.8 16.1,7.8 16.2,7.9 16.3,8 16.4,8.1 16.4,8.2 16.4,8.4 16.3,8.5 16.2,8.6 16.1,8.7 16,8.7 
			15.8,8.7 15.7,8.6 15.6,8.5 15.6,8.4 15.5,8.2 15.5,8.2 15.6,8.1 15.6,8 15.7,7.9 15.8,7.8 16,7.8 		"/>
	</g>
	<g>
		<polyline fill="#FFFFFF" points="14.4,8.2 14.5,8.2 14.6,8.2 14.6,8.3 14.6,8.4 14.6,8.5 14.6,8.6 14.5,8.7 14.4,8.7 14.3,8.7 
			14.2,8.6 14.1,8.5 14.1,8.4 14.1,8.4 14.1,8.3 14.2,8.2 14.3,8.2 14.4,8.2 		"/>
	</g>
	<g>
		<polyline fill="#FFFFFF" points="16.7,8.6 16.9,8.6 16.9,8.6 17,8.7 17,8.8 17,8.9 16.9,9 16.9,9.1 16.7,9.1 16.6,9.1 16.5,9 
			16.5,8.9 16.5,8.8 16.5,8.8 16.5,8.7 16.5,8.6 16.6,8.6 16.7,8.6 		"/>
	</g>
	<g>
		<polyline fill="#FFFFFF" points="3.3,8.6 3.4,8.7 3.5,8.8 3.7,8.8 3.8,8.8 4,8.9 4.2,8.8 4.1,9 3.9,9 3.8,9.1 3.7,9.1 3.5,9.1 
			3.4,9.1 3.4,9 3.3,8.8 3.3,8.6 3.3,8.6 		"/>
	</g>
	<g>
		<polyline fill="#FFFFFF" points="5.6,7.9 5.7,7.9 5.9,8 6,8.1 6.1,8.2 6.2,8.4 6.3,8.6 6.3,8.8 6.3,8.9 6.3,9 6.2,9.1 6.2,9.2 
			6.1,9.3 6,9.3 5.9,9.3 5.7,9.3 5.6,9.3 5.5,9.2 5.4,9.1 5.3,9 5.3,8.8 5.3,8.7 5.3,8.4 5.4,8.2 5.5,8 5.6,7.9 		"/>
	</g>
	<g>
		<polyline fill="#FFFFFF" points="15.2,8.6 15.3,8.6 15.4,8.6 15.5,8.7 15.6,8.8 15.6,9 15.6,9.1 15.5,9.2 15.4,9.3 15.3,9.4 
			15.2,9.4 15,9.4 14.9,9.3 14.8,9.2 14.8,9.1 14.8,9 14.8,9 14.8,8.8 14.8,8.7 14.9,8.6 15,8.6 15.2,8.6 		"/>
	</g>
	<g>
		<polyline fill="#FFFFFF" points="5,8.5 5,8.5 4.9,8.6 4.9,8.8 4.9,8.9 5,9.1 5.1,9.2 5.2,9.4 5.1,9.4 4.9,9.4 4.8,9.4 4.7,9.3 
			4.6,9.3 4.5,9.2 4.5,9 4.5,8.9 4.6,8.8 4.7,8.7 4.7,8.6 4.8,8.5 4.9,8.5 5,8.5 		"/>
	</g>
	<g>
		<polyline fill="#FFFFFF" points="16,9.1 16.1,9.1 16.2,9.1 16.2,9.2 16.3,9.3 16.2,9.4 16.2,9.5 16.1,9.6 16,9.6 15.9,9.6 
			15.8,9.5 15.8,9.4 15.7,9.3 15.7,9.3 15.8,9.2 15.8,9.1 15.9,9.1 16,9.1 		"/>
	</g>
	<g>
		<polyline fill="#FFFFFF" points="14.3,9 14.4,9.1 14.5,9.1 14.6,9.2 14.6,9.3 14.6,9.4 14.6,9.5 14.6,9.6 14.5,9.7 14.4,9.8 
			14.3,9.8 14.1,9.8 14,9.7 13.9,9.6 13.9,9.5 13.9,9.4 13.9,9.4 13.9,9.3 13.9,9.2 14,9.1 14.1,9.1 14.3,9 		"/>
	</g>
	<g>
		<polyline fill="#FFFFFF" points="3,9.2 3.1,9.3 3.3,9.5 3.4,9.5 3.5,9.6 3.7,9.6 3.9,9.6 4.1,9.5 4.3,9.5 4.1,9.6 3.9,9.8 
			3.8,9.9 3.6,9.9 3.5,9.9 3.3,9.9 3.2,9.9 3.2,9.7 3.1,9.6 3.1,9.4 3,9.2 		"/>
	</g>
	<g>
		<polyline fill="#FFFFFF" points="16.8,9.4 16.9,9.4 17,9.5 17.1,9.6 17.1,9.7 17.1,9.8 17,9.9 16.9,10 16.8,10 16.7,10 16.6,9.9 
			16.5,9.8 16.5,9.7 16.5,9.7 16.5,9.6 16.6,9.5 16.7,9.4 16.8,9.4 		"/>
	</g>
	<g>
		<polyline fill="#FFFFFF" points="15.1,9.6 15.2,9.7 15.3,9.7 15.3,9.8 15.3,9.9 15.3,10 15.3,10.1 15.2,10.1 15.1,10.2 15,10.1 
			14.9,10.1 14.8,10 14.8,9.9 14.8,9.9 14.8,9.8 14.9,9.7 15,9.7 15.1,9.6 		"/>
	</g>
	<g>
		<polyline fill="#FFFFFF" points="15.9,9.9 16.1,9.9 16.2,9.9 16.3,10.1 16.4,10.2 16.4,10.3 16.4,10.5 16.3,10.6 16.2,10.7 
			16.1,10.8 15.9,10.8 15.8,10.8 15.7,10.7 15.6,10.6 15.5,10.5 15.5,10.3 15.5,10.2 15.6,10.1 15.7,9.9 15.8,9.9 15.9,9.9 		"/>
	</g>
	<g>
		<polyline fill="#FFFFFF" points="16.8,10.4 16.9,10.4 17,10.4 17.1,10.5 17.1,10.6 17.1,10.7 17,10.8 16.9,10.8 16.8,10.8 
			16.7,10.8 16.7,10.8 16.6,10.7 16.6,10.6 16.6,10.5 16.7,10.4 16.7,10.4 16.8,10.4 		"/>
	</g>
	<g>
		<polyline fill="#FFFFFF" points="7.1,9.1 7.4,9.2 7.6,9.2 7.9,9.2 7.7,9 7.6,8.9 7.4,8.8 7.2,8.7 7,8.7 6.9,8.7 6.8,8.7 6.7,8.7 
			6.7,8.8 6.7,8.6 6.7,8.4 6.7,8.3 6.8,8.2 6.8,8.1 6.9,8.1 7.1,8.1 7.2,8.1 7.4,8.2 7.5,8.3 7.6,8.4 7.8,8.5 7.9,8.7 8,8.9 
			8.1,9.1 8.1,9.1 8.1,8.8 8.1,8.6 8.1,8.4 8.2,8.2 8.2,8.1 8.3,8 8.3,8 8.4,8 8.5,8 8.6,8 8.7,8.1 8.8,8.2 8.8,8.3 8.9,8.4 9,8.5 
			8.9,8.5 8.7,8.6 8.6,8.6 8.5,8.8 8.4,8.9 8.3,9.1 8.3,9.2 8.6,9 8.8,8.9 9.1,8.8 9.3,8.7 9.6,8.7 9.7,8.7 9.9,8.7 10,8.8 
			10.1,8.9 10.2,9.1 10.2,9.2 10.2,9.4 10.1,9.5 10.1,9.6 10,9.5 9.9,9.4 9.8,9.3 9.7,9.3 9.5,9.2 9.3,9.2 9,9.2 8.7,9.3 8.5,9.3 
			8.5,9.4 8.7,9.4 8.9,9.5 9,9.5 9.2,9.6 9.2,9.7 9.3,9.8 9.3,9.9 9.4,9.9 9.4,10 9.3,10.2 9.3,10.3 9.2,10.4 9.1,10.5 9,10.6 
			8.9,10.7 8.8,10.8 8.7,10.8 8.7,10.6 8.7,10.4 8.7,10.3 8.7,10.1 8.6,10 8.5,9.9 8.4,9.7 8.2,9.5 8.1,9.7 8.1,9.9 8,10 7.9,10.1 
			7.9,10.3 7.9,10.3 8,10.4 8,10.4 8,10.4 8,10.6 8,10.7 8,10.8 7.9,10.9 7.9,10.9 7.9,11.1 8,11.1 8,11.2 8.1,11.2 8.1,11.3 
			8.1,11.5 8.1,11.6 8.2,11.8 8.2,11.8 8.3,11.9 8.3,11.9 8.3,12 8.4,12.1 8.5,12.2 8.6,12.3 8.6,12.4 8.6,12.4 8.6,12.5 8.5,12.6 
			8.5,12.6 8.4,12.7 8.3,12.7 8.3,12.7 8.3,12.7 8.2,12.6 8.2,12.5 8.1,12.5 8.1,12.4 8,12.3 7.9,12.2 7.8,12.2 7.8,12.1 7.8,12.1 
			7.8,12 7.8,11.9 7.8,11.8 7.7,11.7 7.6,11.5 7.5,11.4 7.5,11.3 7.6,11.2 7.6,11.1 7.6,11 7.5,10.9 7.5,10.8 7.5,10.6 7.4,10.5 
			7.4,10.4 7.5,10.4 7.5,10.4 7.5,10.3 7.5,10.3 7.5,10.1 7.6,9.9 7.6,9.8 7.7,9.6 7.8,9.5 7.6,9.5 7.4,9.5 7.2,9.5 7.1,9.6 
			6.9,9.6 6.7,9.8 6.5,9.9 6.4,10.1 6.3,10.2 6.3,10 6.3,9.8 6.4,9.6 6.4,9.5 6.5,9.3 6.6,9.3 6.7,9.2 6.9,9.1 7.1,9.1 		"/>
	</g>
	<g>
		<path fill="#FFFFFF" d="M17.6,9.5l0.1,0.1l0.1,0.1l0.1,0.1L18,9.8L18,9.9l0,0.1l0,0.1l0,0.1l0.1,0.1l0.1,0.1l0.1,0.1l0.1,0.1
			l0.1,0.1l0.1,0.1l0.1,0.1l0.1,0.1l0.1,0.1l0.1,0.2l0.1,0.2l0.1,0.2l0.1,0.3l0.1,0.3l0,0l0-0.2l0-0.2l-0.1-0.2l-0.1-0.2l-0.1-0.2
			L19.3,11l-0.2-0.2L19,10.6l-0.2-0.2l-0.2-0.2l-0.1-0.2l-0.1-0.1l-0.1-0.1l0-0.1l0.2,0l0.2,0l0.1,0l0.1,0.1L19,10l0.1,0.1l0.1,0.1
			l0.1,0.1l0.1,0.2l0.1,0.2l0.1,0.3l0,0.1l0.1,0.1l0.1,0.2l0.1,0.2l0.1,0.2l0,0.1l0,0.1l0,0l0.1-0.2l0.1-0.2l0.1-0.2l0.2-0.3
			L20.3,11L20.2,11l-0.1-0.1L20,10.8l-0.1-0.1l-0.1-0.1l-0.1-0.1l-0.1-0.1l0-0.1l0-0.1l0.1-0.1l0.1-0.1l0.1-0.1L20,9.7l0.1-0.1
			l0.1-0.1l0.1,0l0.1,0l0,0l0,0l0,0.1l0,0.2l0,0.2l0,0.2l0,0.2l0,0.1l0,0.1l0,0.1l0.1,0.1l0.1,0.1l0.1,0l0.1,0l0.1-0.1l0.1-0.1
			l0.1-0.1l0.1-0.1l0.1-0.1l0-0.2l0-0.2l0-0.2l-0.1-0.2l-0.1-0.2l-0.1-0.1l-0.1-0.1l-0.1-0.1l-0.1-0.1l-0.1,0l-0.1,0l-0.1,0L20,9
			l-0.1,0l-0.1,0l-0.1,0.1l-0.2,0.1l-0.2,0l-0.2,0l-0.3,0l-0.3,0l-0.3-0.1L18,9.2l-0.2-0.1l-0.2-0.1l-0.2-0.2l-0.1-0.2l-0.1-0.2
			l-0.1-0.2L17,8.1L17,7.9l0-0.2l0-0.2l0-0.2l0-0.1l0,0l0,0l0,0l0.1,0l0.1,0l0.1,0l0.1,0l0.2,0l0.2,0l0.2,0l0.2,0l0.2,0l0.2,0l0.2,0
			L19,7.5l0.2,0.1l0.2,0.1l0.2,0.1L19.7,8l0.1,0.2L20,8.4l0.1,0.2l0.1,0.1l0.1,0.1l0.1,0.1l0.1,0.1L20.7,9l0.1,0.1l0.1,0.1L21,9.4
			l0.1,0.2l0,0.2l0,0.2l0,0.2l-0.1,0.2L21,10.6l-0.1,0.2l-0.1,0.2l-0.1,0.2l-0.1,0.2l-0.1,0.2l-0.1,0.2l-0.1,0.2l-0.1,0.3l0.1,0
			l0.1-0.1l0.1-0.1l0.1-0.1l0.1-0.1l0.1-0.1l0.1-0.1l0.1,0l0.1,0l0.1,0l0.1,0l0,0.1l0,0.1l0,0.1l0,0.2l0,0.2l-0.1,0.2L21,12.5
			l-0.1,0.2l-0.1,0.1l0-0.1l0-0.1l0-0.1l0-0.1l-0.1-0.1l-0.1-0.1l-0.1,0l-0.1,0l-0.1,0.1l-0.1,0.1L20,12.6l-0.1,0.1l-0.1,0.1
			l-0.1,0.1l-0.1-0.3l-0.1-0.3L19.4,12l-0.2-0.3L19,11.4l-0.2-0.2l-0.1-0.1l-0.1-0.1l-0.1,0l-0.1,0l-0.1,0l-0.1,0l-0.1,0l-0.1,0
			l-0.1-0.1l-0.1-0.1l-0.1-0.1l0-0.1l0-0.1l0-0.2l0-0.2l0-0.2l0-0.2L17.6,9.5L17.6,9.5 M19.4,8.7l0.1,0l0.1,0l0.1,0l0.1,0l0-0.1v0
			l0-0.1l0,0l-0.1,0l-0.1,0l-0.1-0.1l-0.1-0.1l0-0.1l0-0.1l0-0.1l0-0.1l0-0.1l-0.1,0l0,0l0,0l0,0.1l0,0.1l0,0.1l0,0.1l0,0l0,0
			l-0.1,0l-0.1,0l-0.1-0.1L18.8,8l-0.1-0.1l0-0.1l0-0.1l0-0.1l-0.1,0l0,0l0,0l0,0.1l0,0.2l0,0.1l0,0l-0.1,0l-0.1,0L18.2,8L18.1,8
			l-0.1-0.1L18,7.8l-0.1-0.1l-0.1,0l-0.1,0l0,0.1l0,0.1l0,0.1l0,0.1l0,0.1l0,0l0,0l0,0l-0.1,0l-0.1,0l-0.1,0l-0.1,0l-0.1,0l0,0.1
			l0,0.1l0.1,0l0.1,0l0.1,0l0.1,0l0.1,0l0.1,0l0.1,0l0.1,0l0,0l0,0l0,0l0,0.1l-0.1,0.1l-0.1,0.1L18,8.7l0,0.1l0,0.1l0.1,0l0.1,0
			l0.1,0l0.1-0.1l0.1-0.1l0.1-0.1l0.1,0l0.1,0l0,0l0,0l0,0l0,0l0,0l0,0.1l-0.1,0.1l-0.1,0.1l0,0.1l0,0.1l0,0.1l0.1,0l0.1,0L19,8.9
			l0.1-0.1l0.1-0.1l0.1-0.1L19.4,8.7"/>
	</g>
	<g>
		<polyline fill="#FFFFFF" points="14.1,12 14.2,12 14.3,12 14.3,12.1 14.4,12.2 14.5,12.2 14.6,12.3 14.6,12.3 14.7,12.3 
			14.8,12.3 14.8,12.2 14.8,12.1 14.8,12 14.8,11.9 14.7,11.8 14.6,11.7 14.5,11.7 14.4,11.6 14.3,11.5 14.2,11.5 14,11.4 14,11.3 
			13.9,11.2 13.8,11.1 13.8,10.9 13.8,10.7 13.9,10.6 14,10.3 14.1,10.1 14.1,10.2 14.1,10.3 14.2,10.4 14.3,10.5 14.4,10.5 
			14.5,10.5 14.6,10.6 14.7,10.6 14.7,10.7 14.8,10.8 14.9,10.8 14.9,11 14.9,11.1 14.9,11.2 14.9,11.4 14.9,11.5 14.9,11.6 
			14.9,11.7 14.9,11.7 15,11.8 15.1,11.8 15.1,11.8 15.2,11.7 15.2,11.7 15.2,11.6 15.2,11.5 15.2,11.4 15.2,11.3 15.2,11.2 
			15.2,11.1 15.3,11 15.3,11 15.4,11 15.4,11 15.6,11 15.7,11 15.8,11.1 15.9,11.1 16,11.2 16.2,11.2 16.3,11.2 16.3,11.3 
			16.2,11.4 16.1,11.5 16,11.5 15.9,11.6 15.8,11.6 15.7,11.6 15.5,11.7 15.4,11.8 15.4,11.8 15.3,11.9 15.3,12 15.3,12.2 
			15.4,12.2 15.4,12.3 15.5,12.3 15.6,12.4 15.8,12.4 15.9,12.3 15.9,12.3 15.9,12.2 15.9,12 15.9,12 15.9,12 16,12 16.1,12 
			16.2,12.1 16.3,12.2 16.5,12.3 16.6,12.4 16.7,12.5 16.8,12.6 16.8,12.6 16.8,12.7 16.8,12.7 16.8,12.8 16.7,12.8 16.6,12.9 
			16.4,12.9 16.3,12.9 16.1,13 16,13 15.9,13 15.8,13 15.8,13 15.8,13 15.8,13 15.8,12.9 15.8,12.8 15.9,12.8 15.9,12.7 15.9,12.6 
			15.8,12.6 15.7,12.6 15.6,12.6 15.4,12.6 15.3,12.6 15.2,12.6 15.2,12.7 15.3,12.8 15.3,12.9 15.4,13 15.5,13.1 15.5,13.2 
			15.5,13.3 15.5,13.4 15.5,13.4 15.4,13.5 15.4,13.5 15.2,13.5 15.1,13.5 15,13.4 14.9,13.4 14.9,13.3 14.8,13.2 14.8,13.1 
			14.8,13 14.9,12.9 14.9,12.8 15,12.7 15,12.6 15,12.6 14.9,12.5 14.9,12.5 14.8,12.5 14.7,12.6 14.7,12.6 14.6,12.7 14.5,12.8 
			14.4,12.9 14.3,13 14.2,13.1 14,13.2 13.8,13.2 13.7,13.2 13.7,13.2 13.8,13.1 13.8,13 13.9,12.9 13.9,12.7 13.9,12.6 13.9,12.4 
			13.9,12.3 13.9,12.1 13.9,12 14,12 14.1,12 		"/>
	</g>
	<g>
		<polyline fill="#FFFFFF" points="7.3,13.7 7.3,13.7 7.3,13.8 7.4,13.9 7.5,13.9 7.6,14 7.7,13.9 7.8,13.9 7.8,13.8 7.8,13.7 
			7.8,13.5 7.8,13.4 7.7,13.2 7.6,13 7.4,12.8 7.3,12.6 7.2,12.4 7,12.1 6.9,11.9 6.8,11.6 6.7,11.3 6.7,11 6.6,10.7 6.6,10.7 
			6.6,10.8 6.5,11 6.5,11.1 6.5,11.3 6.5,11.6 6.5,11.9 6.6,12.1 6.7,12.4 6.8,12.6 6.9,12.9 6.9,13.1 7,13.4 6.9,13.5 6.9,13.6 
			6.8,13.7 6.7,13.8 6.5,13.8 6.4,13.8 6.3,13.8 6.2,13.7 6.2,13.6 6.1,13.5 6.1,13.5 6.2,13.4 6.2,13.3 6.2,13.3 6.2,13.3 
			6.2,13.3 6.2,13.4 6.3,13.4 6.4,13.4 6.5,13.4 6.6,13.4 6.6,13.2 6.6,13.1 6.6,12.8 6.6,12.6 6.5,12.4 6.4,12.2 6.4,12 6.3,11.7 
			6.3,11.5 6.3,11.3 6.3,11.2 6.3,11.2 6.3,11.2 6.2,11.3 6.1,11.5 6.1,11.7 6.1,11.8 6.1,12 6.1,12.7 6.1,12.9 6,13.1 6,13.2 
			5.9,13.3 5.8,13.4 5.7,13.4 5.5,13.4 5.4,13.4 5.3,13.3 5.3,13.3 5.2,13.2 5.2,13 5.2,13 5.2,12.9 5.2,12.9 5.2,12.9 5.3,12.9 
			5.3,12.9 5.3,13 5.4,13 5.5,13 5.6,13 5.7,12.9 5.8,12.8 5.8,12.7 5.8,12.5 5.8,12.3 5.8,12.1 5.9,11.9 5.9,11.6 5.9,11.4 6,11.1 
			6.2,10.9 6.3,10.7 6.5,10.4 6.8,10.2 7,10.1 6.9,10.2 6.9,10.4 6.8,10.6 6.8,10.8 6.9,11 6.9,11.3 7,11.6 7.1,11.8 7.3,12 
			7.4,12.3 7.6,12.5 7.7,12.7 7.9,12.9 8,13.1 8.1,13.3 8.2,13.5 8.3,13.7 8.3,13.8 8.3,14 8.2,14.1 8.2,14.2 8.1,14.3 8,14.4 
			7.8,14.4 7.7,14.5 7.5,14.4 7.4,14.4 7.3,14.3 7.2,14.2 7.2,14.1 7.2,14 7.2,13.9 7.2,13.8 7.2,13.7 7.3,13.7 7.3,13.7 		"/>
	</g>
	<g>
		<polyline fill="#FFFFFF" points="9.1,12.5 9.3,12.6 9.4,12.7 9.6,12.8 9.7,12.8 9.8,12.8 9.8,12.7 9.9,12.6 9.8,12.6 9.8,12.5 
			9.7,12.4 9.6,12.4 9.5,12.3 9.3,12.2 9.2,12.1 9.1,12 9,11.9 8.9,11.8 8.8,11.7 8.8,11.6 8.8,11.6 8.8,11.5 8.9,11.4 9,11.3 
			9.1,11.2 9.2,11.1 9.3,11 9.5,10.9 9.6,10.8 9.7,10.7 9.8,10.6 9.9,10.5 9.9,10.3 9.9,10.2 9.8,10.1 9.8,10 9.9,10.1 10.1,10.2 
			10.2,10.4 10.3,10.5 10.4,10.7 10.4,10.8 10.4,11 10.3,11.1 10.2,11.2 10.2,11.4 10.1,11.5 10,11.6 9.9,11.7 9.9,11.8 9.9,11.9 
			10,12 10,12.1 10.1,12.2 10.2,12.3 10.3,12.3 10.4,12.4 10.4,12.5 10.4,12.7 10.4,12.8 10.4,12.9 10.3,13.1 10.2,13.2 10.1,13.4 
			10,13.5 9.9,13.7 9.9,13.9 9.9,14.1 10,14.2 10.1,14.4 10.2,14.5 10.4,14.6 10.5,14.6 10.4,14.6 10.2,14.6 10,14.6 9.8,14.6 
			9.6,14.5 9.4,14.4 9.2,14.2 9.1,14.1 9,13.9 8.9,13.8 8.8,13.6 8.8,13.4 8.8,13.1 8.9,12.9 9,12.7 9.1,12.5 		"/>
	</g>
	<g>
		<polyline fill="#FFFFFF" points="16.8,11.2 16.8,11.2 16.9,11.3 16.9,11.3 17,11.4 17,11.5 17.1,11.5 17.1,11.6 17.2,11.5 
			17.3,11.5 17.3,11.4 17.4,11.3 17.4,11.3 17.5,11.3 17.5,11.3 17.5,11.3 17.5,11.5 17.5,11.7 17.4,11.9 17.4,12.1 17.4,12.2 
			17.4,12.4 17.5,12.5 17.5,12.5 17.6,12.5 17.7,12.5 17.8,12.4 17.9,12.3 17.9,12.2 17.9,12 17.9,11.9 17.9,11.7 17.9,11.5 
			17.9,11.4 17.9,11.4 17.9,11.4 18,11.4 18,11.5 18.1,11.5 18.1,11.6 18.2,11.7 18.2,11.7 18.3,11.7 18.4,11.6 18.5,11.6 
			18.5,11.5 18.6,11.5 18.6,11.4 18.6,11.5 18.6,11.5 18.6,11.5 18.6,11.6 18.5,11.7 18.5,11.8 18.5,11.9 18.5,11.9 18.6,12 
			18.7,12 18.7,12 18.8,12 18.9,12 18.9,12.1 18.9,12.1 18.8,12.1 18.7,12.1 18.6,12.2 18.5,12.2 18.4,12.2 18.3,12.2 18.1,12.3 
			18,12.4 18,12.5 17.9,12.6 18,12.7 18,12.7 18.1,12.8 18.2,12.8 18.3,12.8 18.5,12.8 18.7,12.7 18.9,12.6 19,12.6 19.1,12.5 
			19.2,12.5 19.2,12.5 19.2,12.6 19.2,12.6 19.1,12.7 19,12.8 19,12.9 19,12.9 19,13 19.1,13.1 19.2,13.1 19.2,13.2 19.3,13.2 
			19.4,13.3 19.4,13.3 19.4,13.3 19.3,13.3 19,13.3 19,13.3 18.9,13.3 18.9,13.4 18.9,13.4 18.9,13.5 18.9,13.6 18.9,13.7 
			18.9,13.7 18.8,13.7 18.8,13.7 18.8,13.7 18.7,13.6 18.7,13.4 18.6,13.3 18.5,13.2 18.4,13.1 18.3,13 18.1,12.9 18,12.9 
			17.9,12.9 17.8,13 17.8,13.1 17.8,13.2 17.9,13.4 18,13.5 18.1,13.7 18.2,13.8 18.4,13.9 18.4,13.9 18.5,14 18.6,14 18.7,14 
			18.7,14 18.7,14 18.6,14.1 18.5,14.1 18.5,14.1 18.4,14.1 18.3,14.1 18.2,14.1 18.2,14.2 18.2,14.3 18.3,14.4 18.3,14.5 
			18.3,14.6 18.3,14.6 18.3,14.7 18.2,14.7 18.2,14.7 18.2,14.6 18.1,14.5 18,14.4 18,14.4 17.9,14.3 17.9,14.3 17.8,14.3 
			17.7,14.4 17.7,14.4 17.6,14.5 17.5,14.5 17.5,14.5 17.5,14.5 17.5,14.4 17.6,14.3 17.6,14.1 17.7,14 17.7,13.8 17.8,13.6 
			17.8,13.5 17.7,13.4 17.7,13.3 17.7,13.2 17.7,13.1 17.6,13.1 17.5,13.1 17.4,13.1 17.3,13.1 17.2,13.2 17.2,13.3 17.1,13.5 
			17.1,13.6 17,13.7 17,13.8 17,13.9 17,14 17,14.1 17,14.2 17,14.3 17,14.3 16.9,14.3 16.9,14.3 16.9,14.3 16.9,14.2 16.9,14.1 
			16.8,14 16.8,14 16.7,13.9 16.6,14 16.6,14 16.5,14.1 16.4,14.1 16.3,14.1 16.3,14.1 16.3,14.1 16.3,14.1 16.4,14 16.4,13.9 
			16.5,13.8 16.5,13.8 16.5,13.7 16.5,13.7 16.4,13.6 16.4,13.6 16.3,13.6 16.2,13.6 16.1,13.5 16.1,13.5 16,13.5 16.1,13.5 
			16.1,13.5 16.2,13.5 16.3,13.4 16.4,13.4 16.5,13.4 16.7,13.3 16.8,13.3 17,13.2 17.1,13.1 17.2,13 17.3,12.9 17.3,12.7 
			17.3,12.6 17.2,12.4 17.1,12.3 17,12.2 16.9,12.2 16.8,12.1 16.7,12 16.6,11.9 16.5,11.9 16.4,11.8 16.4,11.8 16.4,11.7 
			16.4,11.7 16.4,11.7 16.5,11.7 16.5,11.7 16.6,11.7 16.7,11.7 16.8,11.7 16.8,11.6 16.8,11.3 16.8,11.3 16.8,11.2 16.8,11.2 		"/>
	</g>
	<g>
		<polyline fill="#FFFFFF" points="19.4,13.8 19.6,13.8 19.8,13.9 19.9,14 20,14 20,14 19.9,13.8 19.8,13.7 19.8,13.5 19.8,13.4 
			19.8,13.3 19.9,13.2 20,13.1 20.1,13.1 20.2,13 20.4,13.1 20.5,13.1 20.6,13.2 20.7,13.3 20.8,13.5 20.8,13.6 20.9,13.8 20.9,14 
			20.8,14.3 20.8,14.6 20.7,14.9 20.5,15.1 20.3,15.4 20.1,15.6 20.1,15.4 20.1,15.3 20,15.2 19.9,15.1 19.8,15 19.7,14.9 
			19.6,14.9 19.5,14.8 19.4,14.8 19.3,14.7 19.2,14.7 19.1,14.6 19,14.5 19,14.4 19,14.3 19,14.1 19.1,14 19.2,13.9 19.3,13.8 
			19.4,13.8 		"/>
	</g>
	<g>
		<path fill="#FFFFFF" d="M15.5,14.2L15.5,14.2L15.5,14.2l-0.1,0.1l0,0.1l0,0.1l0,0.1v0l0,0.1l0.1,0.1l0.1,0l0.1,0l0.1,0l0-0.1
			l0-0.1l0-0.1l0-0.1l-0.1-0.1L15.5,14.2L15.5,14.2 M15.1,13.7l0.2,0.1l0.2,0.1l0.2,0.1l0.2,0.2l0.1,0.2l0.1,0.2l0.1,0.2l0,0.2
			l0,0.1l0,0.1L16,15.3l-0.1,0.1l-0.1,0.1l-0.1,0.1l-0.2,0l-0.2,0l-0.2-0.1l-0.1-0.1L15,15.3L15,15.2l0-0.2l0-0.2l0.1-0.2l0.1-0.2
			l0.1-0.2l0-0.2l0-0.1L15.1,13.7L15.1,13.7"/>
	</g>
	<g>
		<polyline fill="#FFFFFF" points="16.5,14.5 16.6,14.5 16.8,14.6 17,14.7 17.1,14.8 17.2,14.9 17.3,15 17.3,15.2 17.3,15.3 
			17.2,15.4 17.1,15.5 17,15.6 16.9,15.7 16.8,15.7 16.7,15.6 16.5,15.6 16.5,15.5 16.4,15.4 16.4,15.3 16.4,15.1 16.4,15 
			16.5,14.8 16.5,14.7 16.5,14.6 16.5,14.5 		"/>
	</g>
	<g>
		<path fill="#FFFFFF" d="M5.7,13.9l0.1,0L5.9,14L6,14.1l0.1,0.1l0.1-0.1l0.1,0l0.1,0l0.1,0.1l0.1,0.1l0.1,0.1l0,0.1l0,0.1l-0.1,0.1
			l-0.1,0.1L6.5,15l-0.1,0l-0.1,0l0,0.1l0,0.1l0,0.1l0,0.1l-0.1,0.1l-0.1,0.1l-0.1,0H5.8l-0.1,0l-0.1-0.1l-0.1-0.1l-0.1-0.1l-0.1,0
			l-0.1,0l-0.1,0l-0.1,0l-0.1-0.1l-0.1-0.1l0-0.1l0-0.1l0-0.1l0.1-0.1l0.1-0.1l0.1,0l0.1,0l0.1,0l0-0.2l0-0.1l0-0.1L5.3,14l0.1-0.1
			l0.1,0L5.7,13.9 M5.7,14.5l-0.1,0l-0.1,0.1l-0.1,0.1l0,0.1l0,0.1L5.6,15l0.1,0.1l0.1,0l0.1,0L6,15L6,14.9l0-0.1v0l0-0.1L6,14.6
			l-0.1-0.1L5.7,14.5"/>
	</g>
	<g>
		<polyline fill="#FFFFFF" points="14.1,14.9 14.3,14.9 14.4,15 14.6,15.1 14.7,15.2 14.7,15.3 14.8,15.4 14.7,15.5 14.7,15.6 
			14.6,15.7 14.5,15.7 14.4,15.8 14.3,15.7 14.2,15.7 14.2,15.6 14.2,15.5 14.2,15.3 14.2,15.1 14.2,15 14.1,14.9 		"/>
	</g>
	<g>
		<path fill="#FFFFFF" d="M8.9,14.4L8.9,14.4l0.1,0l0,0.1l0.1,0.1l0.2,0.2l0.2,0.1L9.7,15l0.3,0l0.3,0l0.2,0l0.2,0l0.2-0.1l0.1-0.1
			l0.1-0.1l0-0.1v0l0-0.1L11,14.5l-0.1-0.1l-0.1-0.1l-0.1-0.1l-0.1-0.1l-0.1-0.1l-0.1-0.1l0-0.1l0-0.1l0-0.1l0-0.1l0.1-0.1l0.1-0.1
			l0,0.2l0.1,0.2l0.1,0.1l0.1,0.1l0.2,0.1l0.2,0.1l0.2,0.1l0.1,0.1l0.1,0.1l0.1,0.1l0,0.1l0,0.1l0,0.1l0,0.2l0,0.2l-0.1,0.2
			l-0.1,0.2l-0.1,0.2l-0.1,0.2l-0.2,0.1L11,16.2l-0.2,0.1l-0.3,0.1l-0.3,0l-0.3,0l-0.3-0.1l-0.2-0.1L9.3,16l-0.2-0.2L9,15.6
			l-0.1-0.2l-0.1-0.2L8.7,15l0-0.2l0-0.1l0-0.1L8.9,14.4L8.9,14.4L8.9,14.4 M11.3,14.9L11.3,14.9L11.2,15l-0.1,0.1L11,15.1l-0.1,0
			l-0.1,0l-0.1,0l0,0l0,0.1l0,0.1l0,0.3l0,0.1l0,0.1l0.1,0l0.1,0l0.1-0.1l0.1-0.1l0.1-0.1l0.1-0.1l0.1-0.1l0-0.1l0-0.1l0-0.1
			L11.3,14.9L11.3,14.9"/>
	</g>
	<g>
		<polyline fill="#FFFFFF" points="3.6,10.3 3.6,10.4 3.6,10.4 3.6,10.4 3.6,10.5 3.6,10.6 3.6,10.8 3.6,11 3.6,11.1 3.6,11.2 
			3.6,11.3 3.7,11.4 3.7,11.4 3.8,11.4 3.8,11.4 3.8,11.4 3.9,11.3 3.9,11.2 3.9,11.1 4,10.9 4,10.8 4,10.6 4,10.5 4.1,10.3 
			4.1,10.2 4.2,10.1 4.2,10 4.3,9.9 4.3,9.9 4.4,9.9 4.4,10 4.4,10 4.4,10.1 4.4,10.3 4.4,10.5 4.4,10.7 4.3,10.9 4.3,11 4.3,11.2 
			4.3,11.3 4.3,11.3 4.3,11.4 4.4,11.4 4.4,11.4 4.5,11.3 4.5,11.2 4.6,11.1 4.6,10.9 4.7,10.7 4.7,10.6 4.8,10.4 4.9,10.2 
			4.9,10.1 5,10 5,9.9 5.1,9.8 5.1,9.8 5.2,9.8 5.2,9.8 5.3,9.9 5.3,9.9 5.2,10.1 5.2,10.2 5.2,10.4 5.1,10.6 5,10.7 5,10.9 
			4.9,11.1 4.9,11.3 4.8,11.4 4.8,11.5 4.8,11.6 4.9,11.6 5,11.6 5,11.5 5.1,11.4 5.2,11.3 5.3,11.2 5.3,11 5.4,10.9 5.5,10.7 
			5.5,10.6 5.6,10.5 5.6,10.3 5.7,10.2 5.7,10.2 5.8,10.2 5.8,10.2 5.8,10.2 5.9,10.3 5.9,10.4 5.9,10.5 5.8,10.7 5.8,10.9 
			5.7,11.1 5.6,11.4 5.5,11.6 5.4,11.8 5.3,12 5.2,12.3 5.1,12.4 5,12.6 4.9,12.8 4.8,13 4.7,13.2 4.7,13.4 4.6,13.6 4.6,13.8 
			4.6,13.9 4.6,14 4.7,14.1 4.8,14.3 4.9,14.4 4.7,14.4 4.6,14.3 4.4,14.3 4.3,14.2 4.2,14.1 4.1,13.9 4,14.2 4,14.4 4,14.5 4,14.7 
			4,14.8 4.1,15 4.1,15.1 4.2,15.2 4.3,15.3 4.4,15.4 4.5,15.5 4.6,15.6 4.7,15.7 4.8,15.8 4.9,15.9 4.9,16 4.9,16.1 4.9,16.3 
			4.9,16.5 4.8,16.6 4.8,16.6 4.7,16.5 4.6,16.5 4.5,16.4 4.4,16.3 4.3,16.2 4.2,16.1 4,16 3.9,15.9 3.8,15.7 3.7,15.5 3.7,15.3 
			3.6,15 3.6,14.8 3.6,14.5 3.7,14.2 3.8,14 3.9,13.7 4,13.5 4.1,13.3 4.3,13.1 4.4,13 4.5,12.8 4.6,12.6 4.7,12.5 4.7,12.4 
			4.7,12.3 4.6,12.2 4.5,12.1 4.4,12 4.3,11.9 4.3,11.8 4.2,11.7 4.1,11.7 4,11.8 4,11.8 3.9,11.9 3.9,12.1 3.9,12.2 4,12.3 4,12.4 
			4,12.5 4.1,12.6 4.1,12.6 4,12.8 4,12.9 3.9,13 3.8,13.1 3.7,13.2 3.6,13.2 3.6,13.3 3.5,13.2 3.4,13.2 3.4,13.1 3.3,12.9 
			3.3,12.7 3.2,12.5 3.2,12.2 3.2,11.9 3.2,11.6 3.2,11.4 3.2,11.2 3.3,11 3.3,10.8 3.3,10.7 3.4,10.5 3.5,10.4 3.5,10.4 3.6,10.3 
					"/>
	</g>
	<g>
		<path fill="#FFFFFF" d="M9.1,16.5L9.1,16.5l-0.1,0l0,0.1l0,0.1l0,0.1L9,16.9l0.1,0.1L9.2,17l0.1,0l0.1,0h0l0.1,0L9.6,17l0-0.1
			l0-0.1l-0.1-0.1l-0.1-0.1l-0.1-0.1l-0.1,0L9.1,16.5 M7.5,14.9l0.2,0l0.1,0L7.9,15L8.1,15l0.1,0.1l0.1,0.2l0.1,0.1l0.1,0.2l0,0.2
			l0,0.2l0,0.1l0,0.1l0,0.1l0.1,0l0.1,0h0.3l0.2,0l0.1,0.1l0.1,0.1l0.1,0.1l0.1,0.1l0.1,0.1l0.1,0.1l0,0.1l0,0.1l0,0.1l0,0.1
			l-0.1,0.1l-0.1,0l-0.1,0l-0.1,0l-0.2,0l-0.2-0.1l-0.2-0.1l-0.1-0.1L8.7,17l-0.1-0.1l-0.1-0.2l-0.1-0.2l0-0.2l0-0.2l-0.1-0.2
			l-0.1-0.1L8,15.7l-0.2-0.1l-0.3-0.1l-0.2,0l-0.1,0l-0.1,0l-0.1,0l0,0l0,0l0,0l0-0.1l0-0.1l0.1-0.1l0.1,0l0.1,0L7.5,14.9"/>
	</g>
	<g>
		<polyline fill="#FFFFFF" points="14.1,14.5 13.9,14.5 13.8,14.5 13.7,14.6 13.6,14.7 13.7,14.7 13.8,14.8 13.8,14.8 13.8,14.9 
			13.8,15 13.8,15 13.7,15.1 13.6,15.1 13.6,15.1 13.5,15.2 13.3,15.2 13.2,15.2 13.1,15.3 13,15.4 12.9,15.4 12.8,15.5 12.8,15.7 
			12.7,15.8 12.7,16 12.7,16.2 12.8,16.4 12.9,16.6 13,16.8 13.2,16.9 13.4,17 13.6,17.1 13.9,17.2 14.2,17.2 14.4,17.2 14.6,17.2 
			14.7,17.1 14.8,17 14.9,17 14.9,16.9 14.9,16.8 14.9,16.8 14.8,16.8 14.7,16.8 14.7,16.8 14.7,16.7 14.7,16.7 14.7,16.6 
			14.8,16.5 14.8,16.5 14.7,16.4 14.7,16.4 14.6,16.4 14.5,16.4 14.4,16.5 14.2,16.5 14,16.6 13.8,16.6 13.7,16.6 13.5,16.5 
			13.4,16.5 13.3,16.4 13.2,16.3 13.1,16.2 13.1,16.1 13.1,16 13.1,16 13.2,16 13.3,16 13.3,16 13.4,16 13.4,15.9 13.4,15.9 
			13.4,15.8 13.4,15.8 13.4,15.7 13.4,15.7 13.5,15.6 13.5,15.7 13.6,15.7 13.6,15.7 13.7,15.8 13.8,15.9 14,16 14.1,16 14.3,16.1 
			14.5,16.1 14.8,16.1 15,16.1 15.2,16.1 15.4,16.1 15.6,16.1 15.7,16 15.9,15.9 16,15.9 16,16 15.9,16.2 15.9,16.4 15.8,16.6 
			15.7,16.8 15.5,17 15.4,17.2 15.2,17.3 15,17.4 14.7,17.5 14.4,17.6 14.1,17.6 13.8,17.6 13.5,17.5 13.3,17.4 13,17.3 12.8,17.2 
			12.6,17 12.5,16.8 12.4,16.6 12.3,16.3 12.2,16.1 12.1,15.9 12.1,15.6 12.1,15.3 12.2,15 12.3,14.8 12.5,14.5 12.6,14.3 
			12.8,14.1 13,13.9 13.3,13.8 13.6,13.7 13.9,13.6 14.2,13.6 14.3,13.6 14.5,13.6 14.6,13.7 14.7,13.7 14.7,13.7 14.7,13.8 
			14.7,13.8 14.7,13.9 14.6,13.9 14.5,13.9 14.4,13.9 14.4,14 14.3,14 14.2,14.1 14.3,14.1 14.4,14.1 14.5,14.2 14.6,14.2 
			14.6,14.2 14.6,14.3 14.6,14.3 14.6,14.4 14.6,14.5 14.5,14.5 14.5,14.5 14.4,14.5 14.1,14.5 		"/>
	</g>
	<g>
		<polyline fill="#FFFFFF" points="16.8,18 16.6,18.1 16.5,18.1 16.3,18.2 16,18.2 15.9,18.2 15.7,18.1 15.6,18.1 15.5,18 15.4,18 
			15.4,17.9 15.4,17.6 15.4,17.6 15.5,17.5 15.6,17.4 15.7,17.4 15.9,17.3 16.1,17.3 16.3,17.3 16.5,17.3 16.7,17.4 16.8,17.4 
			16.8,17.5 16.9,17.6 16.9,17.8 16.8,17.8 16.8,17.9 16.8,18 16.8,18 		"/>
	</g>
	<g>
		<path fill="#FFFFFF" d="M18.7,15.3L18.7,15.3L18.7,15.3l-0.1,0.1l-0.1,0.1l0,0.1l0,0.1l0,0.1l0.1,0.1l0.1,0.1l0.1,0l0.1,0l0.1,0
			l0.1,0l0.1,0l0.1,0l0.1-0.1l0-0.1l0-0.1l-0.1-0.1l-0.1-0.1L19,15.3l-0.1-0.1L18.7,15.3 M18.5,15l0.2,0l0.2,0l0.2,0.1l0.1,0.1
			l0.2,0.1l0.1,0.1l0.1,0.2l0.1,0.2l0.1,0.2l0,0.2l0,0.2l-0.1,0.2l-0.1,0.2L19.4,17l-0.1,0.2l-0.1,0.2L19,17.6l-0.1,0.2l-0.1,0.2
			l-0.1,0.1l-0.1,0.1l-0.1,0.1l-0.1,0l-0.1,0l-0.1,0L18,18.2l-0.1-0.1l0-0.1l0-0.1l0,0l0,0l0,0l0.1,0l0.2-0.1l0.2-0.2l0.2-0.2
			l0.2-0.2l0.1-0.2l0.1-0.2l0.1-0.2l0-0.1l0-0.1l0-0.1l-0.1,0l0,0l-0.1,0.1l-0.1,0.1l-0.1,0.1l-0.1,0.1L18.5,17l-0.1,0.1l-0.1,0.1
			l-0.1,0.1L18,17.5l-0.1,0.1l-0.1,0l-0.2,0l-0.2-0.1l-0.1-0.1l-0.1-0.1l-0.1-0.1L17,17.1l0-0.1l0-0.1l0.1-0.1l0.1-0.1l0.1-0.1
			l0.1-0.1l0.1-0.1l0.1-0.1l0.1-0.1l0.1-0.1l0.1-0.1l0.1-0.1l0-0.1l0-0.1l0,0l0,0l-0.1,0h0l0,0l-0.1,0.1l-0.1,0.1L17.7,16l-0.1,0.1
			l-0.1,0.1l-0.1,0.1l-0.1,0.1L17,16.5l-0.1,0.1l-0.1,0.1l-0.1,0.1l-0.1,0l-0.1,0l-0.1-0.1l0-0.1l0-0.1l0-0.1l0-0.1l0-0.1l0.1,0
			l0.1,0l0.2-0.1L17,16l0.2-0.1l0.1-0.1l0.1-0.1l0.1-0.1l0.1-0.1l0.1-0.1l0.1-0.1l0.1-0.1l0.1-0.1l0.1-0.1l0.2,0L18.5,15"/>
	</g>
	<g>
		<polyline fill="#FFFFFF" points="9.2,17.8 9.2,17.8 9.3,17.8 9.3,17.8 9.4,17.8 9.5,17.8 9.6,17.8 9.8,17.8 9.9,17.8 10,17.7 
			10.1,17.6 10.2,17.5 10.2,17.4 10.3,17.3 10.3,17.2 10.4,17.1 10.5,17 10.5,16.9 10.6,16.9 10.7,16.8 10.9,16.8 11,16.8 
			11.1,16.9 11.2,16.9 11.3,17 11.3,16.9 11.4,16.8 11.3,16.7 11.3,16.6 11.3,16.5 11.3,16.4 11.4,16.3 11.4,16.3 11.5,16.3 
			11.6,16.4 11.6,16.4 11.6,16.5 11.7,16.5 11.8,16.5 11.9,16.5 12,16.5 12,16.6 12,16.7 12,16.8 11.9,16.9 12,16.9 12,17 12,17.1 
			12,17.2 12,17.2 11.9,17.2 11.8,17.2 11.7,17.2 11.7,17.1 11.6,17.1 11.5,17.1 11.4,17.2 11.5,17.4 11.5,17.5 11.5,17.7 
			11.4,17.8 11.3,18 11.1,18.1 11,18.2 10.8,18.3 10.5,18.4 10.3,18.5 10.1,18.5 9.9,18.5 9.7,18.4 9.5,18.3 9.4,18.3 9.3,18.2 
			9.2,18.1 9.1,18 9.1,17.9 9.1,17.9 9.1,17.8 9.2,17.8 		"/>
	</g>
	<g>
		<polyline fill="#FFFFFF" points="5.7,16.1 5.6,16.3 5.6,16.6 5.6,16.8 5.7,17.1 5.8,17.3 5.9,17.5 6,17.7 6.2,17.8 6.4,18 6.6,18 
			6.9,18.1 7.1,18.1 7.4,18.1 7.5,18.1 7.7,18 7.8,17.9 7.9,17.7 8,17.5 8,17.3 8,17.1 7.9,17 7.9,16.8 7.8,16.6 7.6,16.5 7.5,16.4 
			7.4,16.3 7.2,16.2 7,16.2 6.8,16.2 6.6,16.3 6.5,16.4 6.4,16.5 6.4,16.6 6.4,16.8 6.5,17 6.6,17.1 6.7,17.2 6.8,17.3 7,17.3 
			7.1,17.3 7.3,17.3 7.4,17.3 7.5,17.2 7.5,17.2 7.5,17.1 7.5,17 7.4,17 7.4,17 7.2,17 7,16.9 6.9,16.9 6.9,16.8 6.9,16.7 6.9,16.6 
			6.9,16.5 7,16.5 7,16.5 7.2,16.5 7.3,16.5 7.4,16.6 7.5,16.7 7.6,16.8 7.7,17 7.7,17.1 7.7,17.2 7.7,17.4 7.7,17.5 7.6,17.6 
			7.5,17.7 7.3,17.8 7.1,17.8 6.9,17.8 6.7,17.7 6.5,17.6 6.4,17.5 6.2,17.4 6.1,17.2 6.1,17.1 6,17 6,16.8 6,16.7 6,16.5 6,16.3 
			6.1,16.1 6.3,16 6.5,15.9 6.6,15.9 6.8,15.8 7.1,15.9 7.3,15.9 7.5,16 7.7,16.2 7.9,16.3 8,16.5 8.1,16.8 8.2,17 8.3,17.3 
			8.3,17.6 8.3,17.8 8.3,17.9 8.2,18 8.2,18.2 8.1,18.3 8,18.5 7.9,18.6 7.7,18.7 7.5,18.7 7.3,18.8 7,18.8 6.8,18.8 6.5,18.7 
			6.2,18.6 6,18.5 5.8,18.4 5.6,18.2 5.5,18 5.3,17.8 5.2,17.6 5.2,17.4 5.1,17.2 5.1,17.1 5.1,16.8 5.2,16.6 5.3,16.5 5.4,16.3 
			5.5,16.2 5.6,16.1 5.7,16.1 		"/>
	</g>
	<g>
		<path fill="#FFFFFF" d="M15.2,18.4L15.2,18.4l0.1,0l0.1,0l0.2,0l0.2,0l0.3,0l0.3,0l0.2-0.1l0.2-0.1l0.2-0.1l0.1-0.1l0.1-0.1l0.1,0
			l0.1,0l0.1,0.1l0.1,0.1l0,0.1l0,0.2l0,0.2L17.4,19l-0.1,0.2l-0.1,0.2L17,19.5l-0.2,0.2l-0.2,0.1l-0.3,0.1L15.9,20L15.6,20l-0.3,0
			l-0.2,0L15,20l-0.1-0.1l-0.1-0.1l-0.1-0.1l0-0.1l0-0.1l0-0.2l0.1-0.2l0.1-0.2l0.1-0.2l0.1-0.1l0.1-0.1L15.2,18.4L15.2,18.4
			 M16.7,18.6L16.7,18.6L16.7,18.6L16.7,18.6l-0.2,0.1l-0.1,0l-0.1,0l-0.2,0l-0.2,0h-0.1l0,0.2l0,0.3l-0.1,0.3l0.3,0l0.2,0l0.2-0.1
			l0.1-0.1l0.1-0.1l0.1-0.1l0.1-0.1l0-0.1l0-0.1L16.7,18.6L16.7,18.6L16.7,18.6L16.7,18.6"/>
	</g>
	<g>
		<path fill="#FFFFFF" d="M7.4,19.2l0.1,0l0.2,0l0.3,0l0.2-0.1L8.4,19l0.1-0.1l0.1-0.2l0.1-0.2l0-0.2l0-0.2l0.1,0l0.1,0.1L9,18.4
			l0.1,0.1l0.1,0.2l0.1,0.2l0.1,0.2l0,0l0.1,0l0.1,0l0.1,0l0.1,0H10l0.1,0l0.1,0l0.1-0.1l0.1-0.1l0.1-0.1l0-0.2l0.3,0l0.3-0.1
			l0.2-0.1l0.2-0.1l0.2-0.2l0.1-0.2l0.1-0.2l0.1-0.2l0.1,0.1l0.1,0.1l0.1,0.1l0.1,0.1l0.1,0.1l0.1,0.1l0.2,0l0.2,0l0.2,0l0.3,0
			l0.3,0.1l0-0.1l0-0.1l0,0l0,0l0.1,0l0.1,0l0,0l0,0l0,0.1l0,0.1l0,0.1l0,0.1l0,0l0.1,0l0.1,0l0,0.1l0,0.1l0,0.1l0,0l-0.1,0l0,0
			l-0.1,0l0,0l0,0.1l0,0.1l0,0.1l0,0.1l0,0.1l-0.1,0.1L14,19.5l-0.1,0.1l-0.1,0.1l-0.1,0.1l-0.1,0l-0.2,0l-0.2-0.1l-0.2-0.1L13,19.5
			l-0.1-0.1l-0.1-0.2L12.6,19l-0.1-0.1l-0.1-0.1l-0.1,0l-0.1,0l-0.1,0l-0.1,0.1L12,18.9l-0.2,0.2l-0.2,0.2l-0.2,0.1l-0.3,0.1
			l-0.3,0.1l-0.3,0.1l-0.3,0l-0.2,0l-0.1,0l-0.1,0H9.7l0,0l0,0l0.1,0.1l0.1,0.1l0.1,0l0.2,0l0.2,0l0.3,0l0.3,0l0.2-0.1l0.2-0.1
			l0.2-0.1l0.1-0.1l0.1-0.1l0.1-0.1l0.1-0.1l0.1-0.1l0.1,0l0,0h0l0,0l0,0l0,0.1l0.1,0.2l0.1,0.2l0.1,0.1l0.1,0.1l0.2,0.1l0.2,0.1
			l0.2,0l0.2,0l0.1,0h0.1l0.1,0l0.1,0h0l0,0l0,0h0l0.1,0l0,0l0,0l0,0l0,0.1l-0.1,0.1l-0.1,0.1l-0.1,0.1l-0.2,0l-0.2,0l-0.2,0l-0.2,0
			l-0.2-0.1l-0.1-0.1l-0.1-0.1l-0.1-0.1l-0.2,0.1l-0.3,0.1l-0.3,0.1l-0.3,0.1l-0.3,0l-0.3,0l-0.3,0l-0.3-0.1l-0.2-0.1l-0.2-0.1
			l-0.2-0.1l-0.1-0.1l-0.1-0.1L9.3,20l-0.1-0.1l-0.1-0.1L9,19.8l-0.1,0l-0.1,0l-0.1,0l-0.1,0l-0.1,0l-0.1,0l-0.1,0l-0.1-0.1
			l-0.2-0.1l-0.2-0.1l-0.2-0.1L7.4,19.2 M13.4,18.5l-0.1,0l-0.1,0.1l-0.1,0.1l0,0.1v0l0,0.1l0.1,0.1l0.1,0.1l0.1,0l0.1,0l0.1-0.1
			l0.1-0.1l0-0.1l0-0.1l-0.1-0.1l-0.1-0.1L13.4,18.5"/>
	</g>
</g>
</svg>
