<svg xmlns="http://www.w3.org/2000/svg" width="19" height="19" viewBox="0 0 19 19">
  <g fill="none" fill-rule="evenodd" stroke="#002F76" transform="translate(1 1)">
    <path d="M7.20982143,1.42108547e-14 L9.79017857,1.42108547e-14 L9.79017857,1.47943431 C9.79628036,1.61466771 9.90379382,1.73868528 10.0368304,1.7639409 C10.7910341,1.93582841 11.5066765,2.24424873 12.1618304,2.65539491 C12.2768408,2.73062039 12.4434627,2.71396351 12.5412946,2.61746069 L13.5848214,1.55530273 L15.4252232,3.39511206 L14.3816964,4.43830292 C14.2851625,4.53610357 14.2685001,4.70267161 14.34375,4.81764505 C14.7532144,5.47387658 15.0468202,6.20624967 15.2165179,6.96092808 C15.2506211,7.09319284 15.3835259,7.19284208 15.5200893,7.18853336 L17,7.18853336 L17,9.78702695 L15.5200893,9.78702695 C15.3835259,9.78271762 15.250618,9.88236746 15.2165179,10.0146322 C15.0446545,10.7685823 14.7549988,11.503019 14.34375,12.1579153 C14.2685001,12.2728887 14.2851607,12.4394569 14.3816964,12.5372574 L15.4252232,13.5804482 L13.5848214,15.4202576 L12.5412946,14.3770667 C12.4504995,14.2833468 12.2960666,14.2589705 12.1808036,14.3201654 C11.5243407,14.7294907 10.7916923,15.0419776 10.0368304,15.2116194 C9.90379382,15.2368745 9.79627732,15.3608927 9.79017857,15.496126 L9.79017857,16.9945274 L7.20982143,16.9945274 L7.20982143,15.496126 C7.20372571,15.3608927 7.09620618,15.2368751 6.96316964,15.2116194 C6.20896586,15.0397926 5.49332414,14.7312509 4.83816964,14.3201654 C4.72315918,14.2449397 4.5565375,14.261595 4.45870536,14.3580996 L3.41517857,15.4012905 L1.57477679,13.5804482 L2.61830357,12.5372574 C2.71483752,12.4394569 2.73149971,12.2728887 2.65625,12.1579153 C2.24678539,11.5016837 1.95317966,10.7692499 1.78348214,10.0146322 C1.74938209,9.88236746 1.61647396,9.78271823 1.47991071,9.78702695 L-3.62376795e-13,9.78702695 L-3.62376795e-13,7.18853336 L1.47991071,7.18853336 C1.61647396,7.19284268 1.74938209,7.09319284 1.78348214,6.96092808 C1.9553451,6.20691731 2.245001,5.47260199 2.65625,4.81764505 C2.73149971,4.70267161 2.71483752,4.53610357 2.61830357,4.43830292 L1.57477679,3.39511206 L3.41517857,1.55530273 L4.45870536,2.61746069 C4.55391999,2.70517789 4.7077984,2.72137039 4.81919643,2.65539491 C5.47565993,2.24606958 6.20830771,1.95254981 6.96316964,1.78290801 C7.10232739,1.75636438 7.212318,1.62103514 7.20982143,1.47943431 L7.20982143,1.42108547e-14 Z"/>
    <circle cx="8.5" cy="8.5" r="3.5" stroke-width="2"/>
  </g>
</svg>
