<svg xmlns="http://www.w3.org/2000/svg" xmlns:xlink="http://www.w3.org/1999/xlink" width="36" height="36" viewBox="0 0 36 36">
    <defs>
        <path id="a" d="M11.87 27.904A17.753 17.753 0 0 1 .262 23.608V.116h23.213V23.61a17.758 17.758 0 0 1-11.607 4.295z"/>
    </defs>
    <g fill="none" fill-rule="evenodd">
        <path fill="#E98A30" d="M35.652 17.825c0 9.845-7.982 17.826-17.828 17.826S0 27.67 0 17.825 7.978 0 17.824 0c9.846 0 17.828 7.98 17.828 17.825"/>
        <g transform="translate(5.955 7.747)">
            <mask id="b" fill="#fff">
                <use xlink:href="#a"/>
            </mask>
            <path fill="#FFF" d="M18.504 6.748a6.633 6.633 0 1 1-13.266 0 6.633 6.633 0 0 1 13.266 0" mask="url(#b)"/>
            <path stroke="#0A0A08" d="M18.004 6.748a6.133 6.133 0 1 1-12.266 0 6.133 6.133 0 0 1 12.266 0z" mask="url(#b)"/>
            <path fill="#FFF" d="M23.476 37.518a6.08 6.08 0 0 1-6.08 6.08H6.342a6.08 6.08 0 0 1-6.08-6.08v-18.1a6.08 6.08 0 0 1 6.08-6.081h11.052a6.08 6.08 0 0 1 6.08 6.08v18.101" mask="url(#b)"/>
            <path stroke="#0A0A08" d="M22.976 37.518a5.58 5.58 0 0 1-5.58 5.58H6.342a5.58 5.58 0 0 1-5.58-5.58v-18.1a5.58 5.58 0 0 1 5.58-5.581h11.052a5.58 5.58 0 0 1 5.58 5.58v18.101zM6.36 19.349v20M17.766 19.349v20" mask="url(#b)"/>
        </g>
    </g>
</svg>
