<svg xmlns="http://www.w3.org/2000/svg" width="17" height="17"><rect id="backgroundrect" width="100%" height="100%" x="0" y="0" fill="none" stroke="none"/>
    
<g class="currentLayer" style=""><title>Layer 1</title><g fill="none" fill-rule="nonzero" stroke="#ffffff" id="svg_1" class="" stroke-opacity="1">
        <path d="M14.336 1H2.664A1.67 1.67 0 0 0 1 2.664v11.672C1 15.25 1.75 16 2.664 16h11.672A1.67 1.67 0 0 0 16 14.336V2.664A1.67 1.67 0 0 0 14.336 1z" id="svg_2" stroke="#ffffff"/>
        <path d="M8.5 3.508a2.51 2.51 0 0 0-2.508 2.508A2.49 2.49 0 0 0 8.5 8.5a2.51 2.51 0 0 0 2.508-2.508A2.49 2.49 0 0 0 8.5 3.508zm0 6.586c-1.664 0-4.992.914-4.992 2.578v.844h10.008v-.844c-.024-1.664-3.352-2.578-5.016-2.578z" id="svg_3" stroke="#ffffff"/>
    </g></g></svg>