<?xml version="1.0" encoding="UTF-8"?>
<!DOCTYPE svg PUBLIC "-//W3C//DTD SVG 1.1//EN" "http://www.w3.org/Graphics/SVG/1.1/DTD/svg11.dtd">
<svg version="1.1" id="Play_Hover" xmlns="http://www.w3.org/2000/svg"  x="0px" y="0px"
	 viewBox="0 0 60 60" enable-background="new 0 0 60 60" xml:space="preserve">
<g id="Circle_1_">
	<linearGradient id="SVGID_1_" gradientUnits="userSpaceOnUse" x1="0.5" y1="30" x2="59.5" y2="30">
		<stop  offset="0" style="stop-color:#00B388"/>
		<stop  offset="0.5" style="stop-color:#00A9E0"/>
		<stop  offset="1" style="stop-color:#005EB8"/>
	</linearGradient>
	<path fill="url(#SVGID_1_)" d="M30,59.5C13.7,59.5,0.5,46.3,0.5,30S13.7,0.5,30,0.5S59.5,13.7,59.5,30S46.3,59.5,30,59.5z"/>
	<path fill="#00A9E0" d="M30,1c16,0,29,13,29,29S46,59,30,59S1,46,1,30S14,1,30,1 M30,0C13.4,0,0,13.4,0,30s13.4,30,30,30
		s30-13.4,30-30S46.6,0,30,0L30,0z"/>
</g>
<g id="Circle_2_">
	<linearGradient id="SVGID_2_" gradientUnits="userSpaceOnUse" x1="0" y1="30" x2="60" y2="30">
		<stop  offset="0" style="stop-color:#005EB8"/>
		<stop  offset="0.5" style="stop-color:#00A9E0"/>
		<stop  offset="1" style="stop-color:#00B388"/>
	</linearGradient>
	<path fill="url(#SVGID_2_)" d="M30,1c16,0,29,13,29,29S46,59,30,59S1,46,1,30S14,1,30,1 M30,0C13.4,0,0,13.4,0,30s13.4,30,30,30
		s30-13.4,30-30S46.6,0,30,0L30,0z"/>
</g>
<polygon fill="#FFFFFF" points="24,17.5 24,43.1 40.1,30.7 "/>

</svg>
