<?xml version="1.0" encoding="UTF-8"?>
<svg width="16px" height="14px" viewBox="0 0 16 14" version="1.1" xmlns="http://www.w3.org/2000/svg" xmlns:xlink="http://www.w3.org/1999/xlink">
    <!-- Generator: sketchtool 41.1 (35376) - http://www.bohemiancoding.com/sketch -->
    <title>730B980F-8C8F-4C30-858C-A0B9A52E38FB</title>
    <desc>Created with sketchtool.</desc>
    <defs></defs>
    <g id="Feeds" stroke="none" stroke-width="1" fill="none" fill-rule="evenodd">
        <g id="Feeds---01" transform="translate(-573.000000, -621.000000)" stroke-width="0.8" stroke="#005EB8">
            <g id="Group-5" transform="translate(362.000000, 211.000000)">
                <g id="Group" transform="translate(24.000000, 407.000000)">
                    <g id="chat" transform="translate(195.000000, 10.500000) scale(-1, 1) translate(-195.000000, -10.500000) translate(188.000000, 4.000000)">
                        <g id="Capa_1">
                            <path d="M13.7868205,8.18775856 C13.7868205,8.89546359 13.2081023,9.47090256 12.495455,9.47090256 L6.89209722,9.49376336 C6.79985682,9.49408995 6.71254029,9.53295331 6.6504996,9.60055595 L3.93909157,12.5682143 L3.93909157,9.82034621 C3.93909157,9.64007248 3.79203215,9.49376336 3.61083394,9.49376336 L1.28972423,9.49376336 C0.578718203,9.49376336 0,8.9179978 0,8.21061936 L0,1.30633139 C0,0.598626359 0.578718203,0.0228607993 1.290709,0.0228607993 L4.2673492,0.0166557252 L4.2673492,0.0166557252 L4.26800572,0.0166557252 L12.431773,2.66453526e-15 L12.496768,2.66453526e-15 C12.9412288,2.66453526e-15 13.3341532,0.225015582 13.5662314,0.566294657 C13.7054126,0.771062102 13.7868205,1.01795873 13.7868205,1.28347059 L13.7868205,7.30598487 L13.7868205,8.18775856 Z" id="Shape"></path>
                        </g>
                    </g>
                </g>
            </g>
        </g>
    </g>
</svg>