<?xml version="1.0" encoding="UTF-8"?>
<svg width="15px" height="15px" viewBox="0 0 15 15" version="1.1" xmlns="http://www.w3.org/2000/svg" xmlns:xlink="http://www.w3.org/1999/xlink">
    <!-- Generator: sketchtool 41.1 (35376) - http://www.bohemiancoding.com/sketch -->
    <title>05F0819E-F0AF-499D-A79E-DC156FB082C5</title>
    <desc>Created with sketchtool.</desc>
    <defs></defs>
    <g id="Feeds" stroke="none" stroke-width="1" fill="none" fill-rule="evenodd">
        <g id="Feeds---01" transform="translate(-530.000000, -619.000000)" fill="#005EB8">
            <g id="Group-5" transform="translate(362.000000, 211.000000)">
                <g id="Group" transform="translate(24.000000, 407.000000)">
                    <g id="like" transform="translate(144.000000, 1.000000)">
                        <g id="Capa_1">
                            <path d="M14.535676,10.1805846 C14.8511266,9.78914405 15.0024142,9.36951983 14.9831009,8.93736952 C14.9637876,8.46137787 14.7449034,8.08872651 14.5646459,7.86012526 C14.7738734,7.35281837 14.8543455,6.55427975 14.1558476,5.934238 C13.6440451,5.48016701 12.7749464,5.27661795 11.5710837,5.33298539 C10.7245172,5.37056367 10.0163627,5.52400835 9.9873927,5.5302714 L9.98417382,5.5302714 C9.82322961,5.55845511 9.65262876,5.59290188 9.47880901,5.63048017 C9.46593348,5.43006263 9.5013412,4.93215031 9.88116953,3.81106472 C10.3318133,2.47703549 10.3060622,1.45615866 9.79747854,0.77348643 C9.26314378,0.0563674322 8.41013948,0 8.15906652,0 C7.91765021,0 7.69554721,0.0970772443 7.53782189,0.275574113 C7.18052575,0.67954071 7.22237124,1.42484342 7.26743562,1.76931106 C6.84254292,2.87787056 5.65155579,5.5960334 4.64404506,6.35073069 C4.62473176,6.36325678 4.60863734,6.37891441 4.59254292,6.39457203 C4.29640558,6.69832985 4.09683476,7.02713987 3.96164163,7.31524008 C3.77172747,7.21503132 3.55606223,7.15866388 3.32430258,7.15866388 L1.36078326,7.15866388 C0.620439914,7.15866388 0.0217274678,7.74425887 0.0217274678,8.46137787 L0.0217274678,13.5501044 C0.0217274678,14.2703549 0.623658798,14.8528184 1.36078326,14.8528184 L3.32430258,14.8528184 C3.61078326,14.8528184 3.87795064,14.7651357 4.09683476,14.6148225 L4.85327253,14.7025052 C4.96915236,14.7181628 7.0292382,14.9718163 9.14404506,14.9311065 C9.52709227,14.9592902 9.8876073,14.9749478 10.2223712,14.9749478 C10.7985515,14.9749478 11.3006974,14.9311065 11.7191524,14.8434238 C12.7041309,14.6398747 13.3768777,14.2327766 13.7180794,13.6346555 C13.978809,13.177453 13.978809,12.723382 13.9369635,12.4352818 C14.5775215,11.8716075 14.6901824,11.2484342 14.6676502,10.8100209 C14.6547747,10.5563674 14.5968348,10.3402923 14.535676,10.1805846 Z M1.36078326,14.0073069 C1.10005365,14.0073069 0.89082618,13.8006263 0.89082618,13.5501044 L0.89082618,8.45824635 C0.89082618,8.2045929 1.10327253,8.00104384 1.36078326,8.00104384 L3.32430258,8.00104384 C3.58503219,8.00104384 3.79425966,8.20772443 3.79425966,8.45824635 L3.79425966,13.5469729 C3.79425966,13.8006263 3.5818133,14.0041754 3.32430258,14.0041754 L1.36078326,14.0041754 L1.36078326,14.0073069 L1.36078326,14.0073069 Z M13.7116416,9.81419624 C13.5764485,9.9519833 13.5506974,10.1617954 13.6537017,10.3246347 C13.6537017,10.3277662 13.785676,10.5469729 13.8017704,10.8475992 C13.8243026,11.2578288 13.6215129,11.6210856 13.1966202,11.9311065 C13.0453326,12.0438413 12.9841738,12.2379958 13.0485515,12.4133612 C13.0485515,12.4164927 13.1869635,12.8298539 12.9616416,13.2212944 C12.7459764,13.5970772 12.2663627,13.8663883 11.5388948,14.0167015 C10.9562768,14.1388309 10.1644313,14.1607516 9.19232833,14.085595 L9.14726395,14.085595 C7.07752146,14.1294363 4.98524678,13.8663883 4.96271459,13.8632568 L4.95949571,13.8632568 L4.63438841,13.8256785 C4.65370172,13.7379958 4.66335837,13.6440501 4.66335837,13.5501044 L4.66335837,8.45824635 C4.66335837,8.32359081 4.64082618,8.19206681 4.60219957,8.06993737 C4.66013948,7.86012526 4.82108369,7.39352818 5.20091202,6.99582463 C6.64619099,5.88100209 8.05928112,2.12004175 8.12043991,1.95720251 C8.14619099,1.8914405 8.15262876,1.81941545 8.13975322,1.7473904 C8.08503219,1.39665971 8.10434549,0.967640919 8.18159871,0.839248434 C8.35219957,0.842379958 8.8125,0.889352818 9.08932403,1.26200418 C9.41765021,1.70354906 9.40477468,2.49269311 9.05069742,3.53862213 C8.50992489,5.13256785 8.46486052,5.97181628 8.8929721,6.34133612 C9.10541845,6.52609603 9.38868026,6.53549061 9.59468884,6.46346555 C9.79104077,6.41962422 9.97773605,6.38204593 10.1547747,6.35386221 C10.1676502,6.35073069 10.1837446,6.34759916 10.1966202,6.34446764 C11.1848176,6.13465553 12.9552039,6.00626305 13.5700107,6.55114823 C14.09147,7.01461378 13.7212983,7.62839248 13.6794528,7.69415449 C13.5603541,7.86951983 13.5957618,8.09812109 13.756706,8.23903967 C13.7599249,8.24217119 14.0979077,8.55219207 14.1140021,8.96868476 C14.1268777,9.2473904 13.9916845,9.53235908 13.7116416,9.81419624 Z" id="Shape"></path>
                        </g>
                    </g>
                </g>
            </g>
        </g>
    </g>
</svg>