<svg xmlns="http://www.w3.org/2000/svg" width="45" height="46" viewBox="0 0 45 46">
    <g fill="none" fill-rule="nonzero">
        <path fill="#BD6428" d="M2.818 5.636h39.364A2.818 2.818 0 0 1 45 8.455v33.818a2.818 2.818 0 0 1-2.818 2.818H2.818A2.818 2.818 0 0 1 0 42.273V8.455a2.818 2.818 0 0 1 2.818-2.819z"/>
        <path fill="#F5F6F6" d="M3.523 42.273a.705.705 0 0 1-.705-.705V9.16c0-.389.316-.704.705-.704h37.954c.39 0 .705.315.705.704v25.364l-7.75 7.75H3.522z"/>
        <path fill="#A35623" d="M15.455 8.455h-1.41v-1.41c0-.778.631-1.409 1.41-1.409v2.819z"/>
        <path fill="#CECECE" d="M42.182 34.523h-7.046a.705.705 0 0 0-.704.704v7.046l7.75-7.75z"/>
        <path fill="#D17F4D" d="M.705 7.75c.388 0 .704.316.704.705v23.25a.705.705 0 0 1-1.409 0V8.455c0-.39.316-.705.705-.705z"/>
        <g fill="#E9E9E9">
            <path d="M33.727 35.932v1.409a.705.705 0 0 1-.704.705.705.705 0 0 0-.705.704.705.705 0 0 1-.704.705h-.705a.705.705 0 0 0-.704.704.705.705 0 0 1-.705.705H2.818v.704c0 .39.316.705.705.705h30.909v-7.046a.705.705 0 0 0-.705.705zM41.477 8.455H14.045c.012.211.012.422 0 .634a1.409 1.409 0 0 0 1.337 1.477c.016.001 8.01.002 23.982.002.778 0 1.409.63 1.409 1.41v2.113c0 .779.63 1.41 1.409 1.41V9.158a.705.705 0 0 0-.705-.704z"/>
        </g>
        <path fill="#9BA7AF" d="M27.143 3.974a2.177 2.177 0 0 1-1.261-1.41 3.523 3.523 0 0 0-6.764 0 2.177 2.177 0 0 1-1.261 1.41l-1.515.606a1.409 1.409 0 0 0-.887 1.303v2.572c0 .778.63 1.409 1.409 1.409h11.272c.779 0 1.41-.63 1.41-1.41V5.884a1.409 1.409 0 0 0-.888-1.303l-1.515-.606zm-4.643.958a1.409 1.409 0 1 1 0-2.817 1.409 1.409 0 0 1 0 2.817z"/>
        <path fill="#72818B" d="M27.432 5.636a.705.705 0 0 0-.705.705.705.705 0 0 1-.704.705h-1.41a.705.705 0 0 0-.704.704.705.705 0 0 1-.704.705h-7.75c0 .778.63 1.409 1.409 1.409h11.272c.779 0 1.41-.63 1.41-1.41V5.637h-2.114z"/>
        <path fill="#AFBABF" d="M19.773 3.523a.704.704 0 0 1-.704-.88A3.523 3.523 0 0 1 22.5 0a.705.705 0 0 1 0 1.41 2.114 2.114 0 0 0-2.05 1.584.704.704 0 0 1-.677.529z"/>
        <path fill="#A35623" d="M42.182 7.046h-2.818c-.779 0-1.41-.631-1.41-1.41h-8.409v2.819h11.932c.39 0 .705.315.705.704v25.364l-7.75 7.75H3.522c0 .778.631 1.409 1.41 1.409H36.08c.748 0 1.465-.296 1.994-.824l4.693-4.693c.528-.529.825-1.246.824-1.994V8.455c0-.778-.63-1.41-1.41-1.41z"/>
        <circle cx="22.5" cy="23.25" r="9.159" fill="#3CB54A"/>
        <path fill="#0E9347" d="M30.25 21.841c-.779 0-1.41.63-1.41 1.41a6.34 6.34 0 0 1-6.34 6.34 1.409 1.409 0 1 0 0 2.818c5.059 0 9.16-4.1 9.16-9.159 0-.778-.631-1.409-1.41-1.409z"/>
        <path fill="#89C763" d="M14.75 24.66c.779 0 1.41-.631 1.41-1.41a6.34 6.34 0 0 1 6.34-6.34 1.409 1.409 0 1 0 0-2.819c-5.059 0-9.16 4.1-9.16 9.16 0 .778.631 1.408 1.41 1.408z"/>
        <path fill="#FFF" d="M25.728 19.437l-4.637 4.644-1.677-1.662a1.288 1.288 0 0 0-.134-.162 1.41 1.41 0 0 0-1.995 1.992l2.82 2.82a1.41 1.41 0 0 0 1.992.001l5.638-5.638a1.409 1.409 0 0 0-.013-1.992 1.41 1.41 0 0 0-1.994-.003z"/>
        <path fill="#DDDFE1" d="M27.305 19.157a1.408 1.408 0 0 1-.289 1.57l-5.636 5.637a1.41 1.41 0 0 1-1.993.002l.703.703a1.41 1.41 0 0 0 1.993.001l5.638-5.638a1.41 1.41 0 0 0 .001-1.992 1.406 1.406 0 0 0-.417-.283z"/>
        <path fill="#0E9347" d="M28.01 19.861a1.408 1.408 0 0 1-.29 1.571l-5.636 5.637a1.41 1.41 0 0 1-1.992.001l.703.703a1.41 1.41 0 0 0 1.992.002l5.638-5.638a1.41 1.41 0 0 0 .002-1.993 1.406 1.406 0 0 0-.417-.283z"/>
    </g>
</svg>
