<?xml version="1.0" encoding="UTF-8" standalone="no"?>
<svg width="40px" height="40px" viewBox="0 0 40 40" version="1.1" xmlns="http://www.w3.org/2000/svg" xmlns:xlink="http://www.w3.org/1999/xlink">
    <!-- Generator: sketchtool 39.1 (31720) - http://www.bohemiancoding.com/sketch -->
    <title>F67E329A-16B1-4BB1-9B02-9648787DA4B0</title>
    <desc>Created with sketchtool.</desc>
    <defs></defs>
    <g id="Missing-Screens" stroke="none" stroke-width="1" fill="none" fill-rule="evenodd">
        <g id="03---Startup-details-About" transform="translate(-554.000000, -1108.000000)" stroke="#005EB8">
            <g id="Contact-details" transform="translate(150.000000, 1026.000000)">
                <g id="Icon-Mail" transform="translate(405.000000, 83.000000)">
                    <polyline id="Shape" stroke-width="2" points="38 16.4391304 38 38 0 38 0 16.4391304"></polyline>
                    <polyline id="Shape" stroke-width="2" points="5.86521739 20.4043478 5.86521739 0 32.1347826 0 32.1347826 20.4043478"></polyline>
                    <polyline id="Shape" stroke-width="2" points="0 16.4391304 19 29.1608696 38 16.4391304"></polyline>
                    <path d="M32.1347826,12.7217391 L38,17.2652174" id="Shape" stroke-width="2"></path>
                    <path d="M0,17.2652174 L5.86521739,12.7217391" id="Shape" stroke-width="2"></path>
                    <path d="M22.7173913,20.0913043 C21.3956522,20.8347826 19.9913043,21.0826087 18.4217391,21.0826087 C14.4565217,21.0826087 11.0695652,18.1913043 11.0695652,13.4826087 C11.0695652,8.44347826 14.5391304,4.14782609 19.9086957,4.14782609 C24.1217391,4.14782609 26.9304348,7.12173913 26.9304348,11.1695652 C26.9304348,14.8043478 24.8652174,16.9521739 22.6347826,16.9521739 C21.6434783,16.9521739 20.7347826,16.2913043 20.8173913,14.8043478 L20.7347826,14.8043478 C19.9086957,16.2086957 18.7521739,16.9521739 17.3478261,16.9521739 C15.9434783,16.9521739 14.7043478,15.7956522 14.7043478,13.8956522 C14.7043478,10.9217391 17.1,8.11304348 20.4869565,8.11304348 C21.5608696,8.11304348 22.4695652,8.36086957 23.0478261,8.60869565 L22.2217391,12.9869565 C21.8913043,14.8043478 22.1391304,15.7130435 22.9652174,15.7130435 C24.2043478,15.7130435 25.6086957,14.0608696 25.6086957,11.2521739 C25.6086957,7.7826087 23.4608696,5.30434783 19.7434783,5.30434783 C15.7782609,5.30434783 12.3913043,8.44347826 12.3913043,13.3173913 C12.3913043,17.3652174 15.0347826,19.8434783 18.5869565,19.8434783 C19.9913043,19.8434783 21.2304348,19.5130435 22.2217391,19.0173913 L22.7173913,20.0913043 L22.7173913,20.0913043 Z M21.3956522,9.6 C21.1478261,9.5173913 20.7347826,9.43478261 20.1565217,9.43478261 C18.0086957,9.43478261 16.273913,11.4173913 16.273913,13.8130435 C16.273913,14.8869565 16.7695652,15.6304348 17.8434783,15.6304348 C19.2478261,15.6304348 20.5695652,13.8130435 20.8173913,12.326087 L21.3956522,9.6 L21.3956522,9.6 Z" id="Shape" stroke-width="0.5" fill="#005EB8"></path>
                </g>
            </g>
        </g>
    </g>
</svg>