<?xml version="1.0" encoding="UTF-8" standalone="no"?>
<svg width="48px" height="22px" viewBox="0 0 48 22" version="1.1" xmlns="http://www.w3.org/2000/svg" xmlns:xlink="http://www.w3.org/1999/xlink">
    <!-- Generator: sketchtool 3.8.3 (29802) - http://www.bohemiancoding.com/sketch -->
    <title>B4B8C001-38BE-4442-A6A8-A9BF7050024F</title>
    <desc>Created with sketchtool.</desc>
    <defs></defs>
    <g id="Homepage-v1.04" stroke="none" stroke-width="1" fill="none" fill-rule="evenodd">
        <g id="02-Desktop-Home-Panel-2" transform="translate(-22.000000, -254.000000)" stroke="#FFFFFF">
            <g id="Panel-2">
                <g id="Sustainability-&amp;-Social-Entrepreneurs">
                    <path d="M58.5704533,275.179799 C55.0410893,275.179799 50.6643389,270.529061 46.0298419,265.60504 C41.4504249,260.738218 36.7149477,255.706155 33.0895465,255.706155 C27.9155468,255.706155 23.7061553,259.915547 23.7061553,265.089547 C23.7061553,270.263546 27.9155468,274.472938 33.0895465,274.472938 C36.4776795,274.472938 40.8261837,270.264959 43.1169514,267.756695 L43.638094,268.232644 C40.7442697,271.401162 36.5645366,275.179093 33.0895465,275.179093 C27.5257491,275.179093 23,270.653344 23,265.089547 C23,259.525749 27.5257491,255 33.0895465,255 C37.0200068,255 41.8621135,260.145047 46.5446291,265.120617 C50.8719486,269.718394 55.3461484,274.472938 58.5704533,274.472938 C63.744453,274.472938 67.9538446,270.263546 67.9538446,265.089547 C67.9538446,259.915547 63.744453,255.706155 58.5704533,255.706155 C55.1823203,255.706155 50.8338162,259.914135 48.5430485,262.422398 L48.0219059,261.946449 C50.9157302,258.777931 55.0954632,255 58.5704533,255 C64.1342507,255 68.6599998,259.525749 68.6599998,265.089547 C68.6599998,270.653344 64.1342507,275.179799 58.5704533,275.179799 L58.5704533,275.179799 Z" id="Icon-SnSE"></path>
                </g>
            </g>
        </g>
    </g>
</svg>