<?xml version="1.0" encoding="UTF-8" standalone="no"?>
<svg width="13px" height="32px" viewBox="0 0 13 32" version="1.1" xmlns="http://www.w3.org/2000/svg" xmlns:xlink="http://www.w3.org/1999/xlink">
    <!-- Generator: sketchtool 3.8.3 (29802) - http://www.bohemiancoding.com/sketch -->
    <title>585D30D3-48AE-4344-84B0-C75078735D64</title>
    <desc>Created with sketchtool.</desc>
    <defs>
        <linearGradient x1="50%" y1="0%" x2="50%" y2="100%" id="linearGradient-1">
            <stop stop-color="#FBDA61" offset="0%"></stop>
            <stop stop-color="#F76B1C" offset="100%"></stop>
        </linearGradient>
    </defs>
    <g id="Homepage-v1.04" stroke="none" stroke-width="1" fill="none" fill-rule="evenodd">
        <g id="01-Desktop-Home-Panel-1" transform="translate(-152.000000, -756.000000)" fill="url(#linearGradient-1)">
            <g id="Screen-Shot-2016-04-07-at-16.39.15-+-Rectangle-59-Mask">
                <g id="Hotnews" transform="translate(0.000000, 740.000000)">
                    <g id="Icon-Hot" transform="translate(152.000000, 16.000000)">
                        <path d="M7.20405833,31.6784722 C7.20441944,31.6784722 11.2152806,29.0026389 7.52291944,23.4057778 C5.79933611,20.7931389 2.97436389,17.9995833 3.29755833,15.2338333 C2.93103056,15.5526944 2.59808611,15.9051389 2.43811389,16.1196389 C1.85383611,16.9028889 1.43025278,17.7551111 1.213225,18.6344167 C0.961530556,19.6538333 1.02725278,20.7270556 1.61116944,21.7710278 C2.15319722,22.7398889 3.09425278,23.6137778 3.97933611,24.4927222 C6.09833611,26.5965556 7.96455833,28.8325556 7.39580833,31.2119167 C7.365475,31.33975 7.35066944,31.5806111 7.20405833,31.6784722" id="Fill-1"></path>
                        <path d="M9.84161389,26.403 C9.841975,26.4026389 16.2820306,22.1068611 10.3533083,13.1206111 C7.58611389,8.92594444 3.05055833,4.44058333 3.56983611,0 C3.07691944,0.431166667 2.44678056,1.07791667 2.19003056,1.42241667 C1.25186389,2.67980556 0.571891667,4.04805556 0.223419444,5.46 C-0.181025,7.09691667 -0.0752194444,8.81977778 0.862586111,10.4960556 C1.73286389,12.0517222 3.24375278,13.4546389 4.66508611,14.8662222 C8.06711389,18.2444167 11.0636139,21.8338611 10.1503639,25.6547778 C10.1008917,25.8595278 10.0766972,26.2462778 9.84161389,26.403" id="Fill-3"></path>
                    </g>
                </g>
            </g>
        </g>
    </g>
</svg>