<svg id="Dislike" xmlns="http://www.w3.org/2000/svg" viewBox="0 0 79.14 88.61"><defs><style>.cls-1{fill:none;stroke:#0085ca;stroke-miterlimit:10;stroke-width:3px;}</style></defs><title>Dislike</title><rect class="cls-1" x="3.3" y="42.97" width="33.89" height="14.71" rx="7.35" ry="7.35" transform="translate(40.13 100.22) rotate(180)"/><rect class="cls-1" x="1.86" y="28.98" width="38.69" height="13.99" rx="7" ry="7" transform="translate(42.05 71.52) rotate(-180)"/><rect class="cls-1" x="1.86" y="14.77" width="38.69" height="14.21" rx="7.11" ry="7.11" transform="translate(42.05 43.31) rotate(180)"/><rect class="cls-1" x="6.81" y="1.93" width="30.84" height="12.83" rx="6.42" ry="6.42" transform="translate(44.11 16.27) rotate(180)"/><path class="cls-1" d="M29,1.93H50.13a27.88,27.88,0,0,1,15.59,51l-10.5,8.3L42.15,81l0.23,5.77c-8,3.16-11.9-5-11.9-5-6-15.34,8.43-27.09,8.43-27.09C37.33,30.5,55.67,29,55.67,29" transform="translate(-0.36 -0.43)"/></svg>