<?xml version="1.0" encoding="UTF-8" standalone="no"?>
<svg width="16px" height="16px" viewBox="0 0 16 16" version="1.1" xmlns="http://www.w3.org/2000/svg" xmlns:xlink="http://www.w3.org/1999/xlink">
    <!-- Generator: sketchtool 39.1 (31720) - http://www.bohemiancoding.com/sketch -->
    <title>02C8BE32-5212-45A8-B1BC-4CE7839531F5</title>
    <desc>Created with sketchtool.</desc>
    <defs></defs>
    <g id="Symbols" stroke="none" stroke-width="1" fill="none" fill-rule="evenodd">
        <g id="`Navbar-Green/Nav-1" transform="translate(-209.000000, -16.000000)" fill="#FFFFFF">
            <path d="M225,30.7431111 L221.724148,27.4672593 C222.659852,26.2631111 223.222222,24.7543704 223.222222,23.1111111 C223.222222,19.1834074 220.038222,16 216.111111,16 C212.184,16 209,19.1834074 209,23.1111111 C209,27.0388148 212.184,30.2222222 216.111111,30.2222222 C217.753778,30.2222222 219.262519,29.6598519 220.467259,28.7241481 L223.743111,32 L225,30.7431111 L225,30.7431111 Z M216.111111,28.4444444 C213.170074,28.4444444 210.777778,26.0521481 210.777778,23.1111111 C210.777778,20.1700741 213.170074,17.7777778 216.111111,17.7777778 C219.052148,17.7777778 221.444444,20.1700741 221.444444,23.1111111 C221.444444,26.0521481 219.052148,28.4444444 216.111111,28.4444444 L216.111111,28.4444444 Z" id="Shape"></path>
        </g>
    </g>
</svg>