<svg xmlns="http://www.w3.org/2000/svg" width="19" height="26" viewBox="0 0 19 26" xmlns:xlink="http://www.w3.org/1999/xlink">
  <defs>
    <path id="a" d="M9.72219221,25.3144235 C11.0449142,25.3144235 12.1171922,24.2515329 12.1171922,22.940391 C12.1171922,21.6292491 11.0449142,21.8531307 9.72219221,21.8531307 C8.39947025,21.8531307 7.32719223,21.6292491 7.32719223,22.940391 C7.32719223,24.2515329 8.39947025,25.3144235 9.72219221,25.3144235 Z"/>
    <mask id="d" width="4.79" height="3.476" x="0" y="0" fill="white">
      <use xlink:href="#a"/>
    </mask>
    <path id="b" d="M9.72219221,2.86314935 C10.4926294,2.86314935 11.1171922,2.24405445 11.1171922,1.4803622 C11.1171922,0.716669945 9.72219221,0.847072792 9.72219221,0.847072792 C9.72219221,0.847072792 8.32719223,0.716669945 8.32719223,1.4803622 C8.32719223,2.24405445 8.951755,2.86314935 9.72219221,2.86314935 Z"/>
    <mask id="e" width="2.79" height="2.025" x="0" y="0" fill="white">
      <use xlink:href="#b"/>
    </mask>
    <path id="c" d="M17.6122387,16.6800854 L17.6122387,9.41353497 C17.6122387,5.32748391 14.2939757,2 10.2006909,2 L9.27859009,2 C5.1869541,2 1.86704234,5.31915266 1.86704234,9.41353497 L1.86704234,16.6800854 L0.737415843,19.8971372 C0.189461586,21.4576506 1.08387875,22.7248264 2.73607499,22.7248264 L16.8805069,22.7248264 C18.520193,22.7248264 19.4017355,21.4667395 18.8215449,19.9148107 L17.6122387,16.6800854 Z"/>
    <mask id="f" width="18.424" height="20.725" x="0" y="0" fill="white">
      <use xlink:href="#c"/>
    </mask>
  </defs>
  <g fill="none" fill-rule="evenodd" stroke="#FFFFFF" stroke-width="2">
    <use mask="url(#d)" xlink:href="#a"/>
    <use mask="url(#e)" transform="matrix(1 0 0 -1 0 3.702)" xlink:href="#b"/>
    <use mask="url(#f)" xlink:href="#c"/>
  </g>
</svg>
