<svg id="Menarini_Logo-black" data-name="Menarini Logo-black" xmlns="http://www.w3.org/2000/svg" viewBox="0 0 393.89 104.71"><defs><style>.cls-1,.cls-5{fill:none;stroke:#231f20;}.cls-1{stroke-width:1.76px;}.cls-2{fill:#231f20;}.cls-3{fill:#fff;}.cls-4{fill:#ef4035;}.cls-5{stroke-width:1.76px;}</style></defs><title>Meanrini-Logo-Black</title><path d="M123.47,82.95h1.63l1.38-3.28h4.72l1.48,3.28h1.62l-5-11.14h-1.11l-4.76,11.14h0Zm3.64-4.69,1.66-4,1.79,4h-3.44Zm28.27,2a1.3,1.3,0,0,1-.5,1,1.87,1.87,0,0,1-1.24.41,3.73,3.73,0,0,1-3-1.63v2a4.87,4.87,0,0,0,3,1,3.26,3.26,0,0,0,2.32-.83,2.82,2.82,0,0,0,.89-2.16,3.55,3.55,0,0,0-2-3.08l-1.21-.72a4.62,4.62,0,0,1-1.18-.91,1.41,1.41,0,0,1-.37-0.93,1.09,1.09,0,0,1,.5-0.92,2.13,2.13,0,0,1,1.28-.36,3.67,3.67,0,0,1,2.58,1.15v-1.8a4.46,4.46,0,0,0-2.54-.78,3.39,3.39,0,0,0-2.36.82,2.73,2.73,0,0,0-.91,2.12,2.58,2.58,0,0,0,.48,1.54,5.46,5.46,0,0,0,1.61,1.36l1.2,0.73a2.47,2.47,0,0,1,1.46,1.92h0Zm18.91,2.72h1.58V71.87H174.3V82.95h0Zm18.49,0h1.63l1.38-3.28h4.72L202,82.95h1.62l-5-11.14h-1.11l-4.76,11.14h0Zm3.64-4.69,1.66-4,1.79,4h-3.44Zm23.5,1.87h3.95V78.58h-3.95v1.55h0Zm23,2.82v-4.8h1.17a6.73,6.73,0,0,0,2.41-.34,2.77,2.77,0,0,0,1.32-1.08A3.09,3.09,0,0,0,248.3,75a3,3,0,0,0-.94-2.3,3.62,3.62,0,0,0-2.53-.86h-3.51V82.95h1.59Zm3.75-8a1.64,1.64,0,0,1-.52,1.3,2.2,2.2,0,0,1-1.49.46h-1.74V73.27h1.64q2.11,0,2.11,1.7h0Zm16.16,8h1.63l1.38-3.28h4.72L272,82.95h1.62l-5-11.14h-1.12l-4.76,11.14h0Zm3.64-4.69,1.66-4,1.79,4h-3.44Zm29,3.36a4.41,4.41,0,0,1-3.16-1.17,4.24,4.24,0,0,1,0-6,4.39,4.39,0,0,1,3.16-1.2,7.62,7.62,0,0,1,3.8,1.11v-1.7a10,10,0,0,0-3.87-.91,5.92,5.92,0,0,0-4.25,1.65,5.4,5.4,0,0,0-1.72,4.07,5.58,5.58,0,0,0,.75,2.83,5.49,5.49,0,0,0,2,2.05,6.2,6.2,0,0,0,3.15.75,8.26,8.26,0,0,0,4-1V80.38a7.17,7.17,0,0,1-3.93,1.24h0Zm21.56,1.33h1.58V71.87h-1.58V82.95h0Zm19.72,0h1.59V77.79h4.32V76.37h-4.32V73.28h4.32V71.87h-5.9V82.95h0Zm23.28,0h1.58V71.87h-1.58V82.95h0Zm25.32-1.33a4.41,4.41,0,0,1-3.16-1.17,4.24,4.24,0,0,1,0-6,4.39,4.39,0,0,1,3.16-1.2,7.62,7.62,0,0,1,3.8,1.11v-1.7a10,10,0,0,0-3.87-.91,5.92,5.92,0,0,0-4.25,1.65,5.4,5.4,0,0,0-1.72,4.07,5.58,5.58,0,0,0,.75,2.83,5.48,5.48,0,0,0,2,2.05,6.2,6.2,0,0,0,3.15.75,8.26,8.26,0,0,0,4-1V80.38a7.17,7.17,0,0,1-3.93,1.24h0Z" transform="translate(0.88 0)"/><path d="M168.88,63.08H151.65v-1.3c3.11-.31,4.62-0.47,4.62-3.89V31.73h-0.1l-13,31.35h-1.4l-13-30.57h-0.1V56.65c0,3.63.94,4.88,5.24,5.14v1.3H121.8v-1.3c4-.36,4.72-1.14,4.72-4.15V33c0-2.7-.93-3.43-4.62-3.68V28H135l10.38,24.5L155.8,28h13.08v1.3c-2.91.21-4.57,0.31-4.57,4.77V57c0,4.15,1.14,4.31,4.57,4.78v1.3h0Z" transform="translate(0.88 0)"/><path d="M170.91,28h30V38.43h-1.3c-1.19-7.37-4.88-8.67-11.89-8.67-2.85,0-3.79.21-3.79,2.44v12h0.26c4.83,0,7.37-1.4,8.15-7.73h1.35V54H192.3c-0.62-6.49-3.27-8-8.41-8V58.57c0,2.28,1,2.91,4.36,2.91,5.09,0,10.38-1.35,13.65-9.19h1.45l-2.08,10.8H170.91v-1.3c3-.31,4.57-0.47,4.57-3.69V33c0-3.43-2.18-3.53-4.57-3.68V28h0Z" transform="translate(0.88 0)"/><path d="M205.54,61.79c3.12-.36,4.57-0.73,4.57-4.15V33c-2.91-3.58-3.74-3.74-4.41-3.74V28h11l18,22.17h0.1V34.43c0-3.11-.62-4.83-4.83-5.14V28H241.1v1.3c-3.74.47-4,1.66-4,4.15V64h-1.45l-23.1-28.14h-0.1V56.65c0,3.74,1.09,4.72,4.93,5.14v1.3H205.54v-1.3h0Z" transform="translate(0.88 0)"/><path d="M276.93,63.08H260.11v-1.3c3.22-.26,4.15-0.31,4.15-2,0-1.4-1.66-5.24-2.39-6.91H250.2c-1.45,3.74-2.29,5.87-2.29,6.7,0,2,2.49,2.13,4.26,2.23v1.3H241.63v-1.3c2.8-.42,3.53-2.18,5.09-6.07l11.52-28.45h1.45l11.58,27.3c2.28,5.4,3.11,7.22,5.45,7.22h0.21v1.3h0ZM261.1,50.83l-5.24-12.61L251,50.83H261.1Z" transform="translate(0.88 0)"/><path d="M315.76,63.08H305.12L294.37,46.84H293V57c0,4.15,1.14,4.31,4.57,4.78v1.3H280v-1.3c3.53-.42,4.57-0.57,4.57-4.78V34.06c0-4.46-1.61-4.57-4.57-4.77V28h16.72c3.63,0,14.64.42,14.64,9.14,0,6.39-5.35,8-8.15,8.88L313.63,60.8a2.38,2.38,0,0,0,2.13,1v1.3h0ZM293,45.17c6.8-.05,9.5-1.19,9.5-7.94,0-5.24-2.13-7.48-6.28-7.48-2.85,0-3,.57-3.22,2.18V45.17h0Z" transform="translate(0.88 0)"/><path d="M335.33,63.08H317.16v-1.3c2.8-.26,4.83-0.47,4.83-3.69V33c0-3.43-2.44-3.53-4.83-3.68V28h18.17v1.3c-2.44.1-4.93,0.15-4.93,3.68V58.1c0,3.32,2.08,3.48,4.93,3.69v1.3h0Z" transform="translate(0.88 0)"/><path d="M337.15,61.79c3.11-.36,4.57-0.73,4.57-4.15V33c-2.91-3.58-3.74-3.74-4.41-3.74V28h11l18,22.17h0.1V34.43c0-3.11-.62-4.83-4.83-5.14V28h11.16v1.3c-3.74.47-4.05,1.66-4.05,4.15V64h-1.45l-23.1-28.14H344V56.65c0,3.74,1.09,4.72,4.93,5.14v1.3H337.15v-1.3h0Z" transform="translate(0.88 0)"/><path d="M393,63.08H374.84v-1.3c2.8-.26,4.83-0.47,4.83-3.69V33c0-3.43-2.44-3.53-4.83-3.68V28H393v1.3c-2.44.1-4.93,0.15-4.93,3.68V58.1c0,3.32,2.08,3.48,4.93,3.69v1.3h0Z" transform="translate(0.88 0)"/><polygon class="cls-1" points="103.8 0.88 103.8 103.82 84.53 103.82 20.15 103.82 0.88 103.82 0.88 0.88 103.8 0.88 103.8 0.88"/><polygon class="cls-2" points="103.8 0.51 52.34 71.25 0.88 0.51 103.8 0.51 103.8 0.51"/><path class="cls-3" d="M53.52,53.87l-5.64-1.42V50.08H55v1.53H49l6,1.49V54.7l-6,1.48h6V57.7H47.88V55.3l5.64-1.43h0Z" transform="translate(0.88 0)"/><polygon class="cls-3" points="48.76 42.72 50.03 42.72 50.03 46.89 51.55 46.89 51.55 43.06 52.8 43.06 52.8 46.89 54.64 46.89 54.64 42.53 55.93 42.53 55.93 48.5 48.76 48.5 48.76 42.72 48.76 42.72"/><polygon class="cls-3" points="55.93 41.27 48.76 41.27 48.76 39.55 53.77 36.4 48.76 36.4 48.76 34.87 55.93 34.87 55.93 36.52 50.83 39.74 55.93 39.74 55.93 41.27 55.93 41.27"/><path class="cls-3" d="M52.34,29.18v2l-2.82-1,2.82-1h0Zm2.71,3-1.47-.55v-2.9L55,28.21V26.43l-7.17,2.79v1.86L55,33.89V32.17h0Z" transform="translate(0.88 0)"/><path class="cls-3" d="M49.25,21.06a0.87,0.87,0,0,1,.88-0.47,0.78,0.78,0,0,1,.81.5,2.24,2.24,0,0,1,.12.83v1.86H49.13V21.87a2,2,0,0,1,.13-0.8h0Zm-1.37,4.33H55V23.78H52.24v-1.7a1.58,1.58,0,0,1,.23-1,1.2,1.2,0,0,1,.91-0.27H54a3.35,3.35,0,0,0,.62-0.07L55,20.63V18.82H54.87a0.59,0.59,0,0,1-.41.3,2.84,2.84,0,0,1-.67,0H53.31a2.21,2.21,0,0,0-1.12.22,1.49,1.49,0,0,0-.57.77,1.56,1.56,0,0,0-.7-0.94,2,2,0,0,0-1-.28,1.89,1.89,0,0,0-.75.15,2.3,2.3,0,0,0-.6.41,2,2,0,0,0-.5.76,4,4,0,0,0-.19,1.27v3.87h0Z" transform="translate(0.88 0)"/><polygon class="cls-3" points="48.76 16.01 55.93 16.01 55.93 17.65 48.76 17.65 48.76 16.01 48.76 16.01"/><polygon class="cls-3" points="55.93 14.5 48.76 14.5 48.76 12.78 53.77 9.64 48.76 9.64 48.76 8.1 55.93 8.1 55.93 9.75 50.83 12.97 55.93 12.97 55.93 14.5 55.93 14.5"/><polygon class="cls-3" points="48.76 5.06 55.93 5.06 55.93 6.7 48.76 6.7 48.76 5.06 48.76 5.06"/><polygon class="cls-4" points="20.15 103.82 20.15 57.14 52.34 103.17 84.53 57.14 84.53 103.82 20.15 103.82 20.15 103.82"/><polygon class="cls-5" points="20.15 103.82 20.15 57.14 52.34 103.17 84.53 57.14 84.53 103.82 20.15 103.82 20.15 103.82"/></svg>