<svg id="Menarini_Logo-black" data-name="Menarini Logo-black" xmlns="http://www.w3.org/2000/svg" viewBox="0 0 393.88 104.71"><defs><style>.cls-1{fill:#fff;}.cls-2{fill:none;stroke:#231f20;stroke-width:1.76px;}.cls-3{fill:#231f20;}.cls-4{fill:#ef4035;}</style></defs><title>Meanrini-Logo-White</title><path class="cls-1" d="M124.35,82.95H126l1.38-3.28h4.72l1.48,3.28h1.62l-5-11.14h-1.11l-4.76,11.14h0ZM128,78.26l1.66-4,1.79,4H128Zm28.27,2a1.3,1.3,0,0,1-.5,1,1.87,1.87,0,0,1-1.24.41,3.73,3.73,0,0,1-3-1.63v2a4.87,4.87,0,0,0,3,1,3.26,3.26,0,0,0,2.32-.83,2.82,2.82,0,0,0,.89-2.16,3.55,3.55,0,0,0-2-3.08l-1.21-.72a4.62,4.62,0,0,1-1.18-.91,1.41,1.41,0,0,1-.37-0.93,1.09,1.09,0,0,1,.5-0.92,2.13,2.13,0,0,1,1.28-.36,3.67,3.67,0,0,1,2.58,1.15v-1.8a4.46,4.46,0,0,0-2.54-.78,3.39,3.39,0,0,0-2.36.82,2.73,2.73,0,0,0-.91,2.12,2.58,2.58,0,0,0,.48,1.54,5.46,5.46,0,0,0,1.61,1.36l1.2,0.73a2.47,2.47,0,0,1,1.46,1.92h0v0.07ZM175.17,83h1.58V71.87h-1.57V82.95h0v0Zm18.49,0h1.63l1.38-3.28h4.72l1.49,3.25h1.62l-5-11.14h-1.11l-4.76,11.14h0Zm3.64-4.69,1.66-4,1.79,4H197.3Zm23.5,1.87h3.95V78.58H220.8v1.55h0v0Zm23,2.82v-4.8H245a6.73,6.73,0,0,0,2.41-.34,2.77,2.77,0,0,0,1.32-1.08,3.09,3.09,0,0,0,.48-1.76,3,3,0,0,0-.94-2.3,3.62,3.62,0,0,0-2.53-.86H242.2V82.95h1.59v0Zm3.75-8a1.64,1.64,0,0,1-.52,1.3,2.2,2.2,0,0,1-1.49.46H243.8V73.27h1.64q2.11,0,2.11,1.7h0Zm16.16,8h1.63l1.38-3.28h4.72l1.44,3.25h1.62l-5-11.14h-1.12l-4.76,11.14h0Zm3.64-4.69,1.66-4,1.79,4h-3.45Zm29,3.36a4.41,4.41,0,0,1-3.16-1.17,4.24,4.24,0,0,1,0-6h0a4.39,4.39,0,0,1,3.16-1.2,7.62,7.62,0,0,1,3.8,1.11v-1.7a10,10,0,0,0-3.87-.91A5.92,5.92,0,0,0,292,73.43a5.4,5.4,0,0,0-1.72,4.07,5.58,5.58,0,0,0,.75,2.83,5.49,5.49,0,0,0,2,2.05,6.2,6.2,0,0,0,3.15.75,8.26,8.26,0,0,0,4-1V80.38a7.17,7.17,0,0,1-3.93,1.24h0ZM317.91,83h1.58V71.87h-1.58V82.95h0v0Zm19.72,0h1.59V77.79h4.32V76.37h-4.32V73.28h4.32V71.87h-5.9V82.95h0v0Zm23.28,0h1.58V71.87h-1.58V82.95h0v0Zm25.32-1.33a4.41,4.41,0,0,1-3.16-1.17,4.24,4.24,0,0,1,0-6h0a4.39,4.39,0,0,1,3.16-1.2,7.62,7.62,0,0,1,3.8,1.11v-1.7a10,10,0,0,0-3.87-.91,5.92,5.92,0,0,0-4.25,1.65,5.4,5.4,0,0,0-1.72,4.07,5.58,5.58,0,0,0,.75,2.83,5.48,5.48,0,0,0,2,2.05,6.2,6.2,0,0,0,3.15.75,8.26,8.26,0,0,0,4-1V80.38a7.17,7.17,0,0,1-3.93,1.24h0Z"/><path class="cls-1" d="M169.76,63.08H152.53v-1.3c3.11-.31,4.62-0.47,4.62-3.89V31.73H157L144,63.08h-1.4l-13-30.57h-0.1V56.65c0,3.63.94,4.88,5.24,5.14v1.3H122.68v-1.3c4-.36,4.72-1.14,4.72-4.15V33c0-2.7-.93-3.43-4.62-3.68V28h13.1l10.38,24.5L156.68,28h13.08v1.3c-2.91.21-4.57,0.31-4.57,4.77V57c0,4.15,1.14,4.31,4.57,4.78v1.3h0Z"/><path class="cls-1" d="M171.79,28h30V38.43h-1.3c-1.19-7.37-4.88-8.67-11.89-8.67-2.85,0-3.79.21-3.79,2.44v12h0.26c4.83,0,7.37-1.4,8.15-7.73h1.35V54h-1.39c-0.62-6.49-3.27-8-8.41-8V58.57c0,2.28,1,2.91,4.36,2.91,5.09,0,10.38-1.35,13.65-9.19h1.45l-2.08,10.8H171.79v-1.3c3-.31,4.57-0.47,4.57-3.69V33c0-3.43-2.18-3.53-4.57-3.68V28h0Z"/><path class="cls-1" d="M206.42,61.79c3.12-.36,4.57-0.73,4.57-4.15V33c-2.91-3.58-3.74-3.74-4.41-3.74V28h11l18,22.17h0.1V34.43c0-3.11-.62-4.83-4.83-5.14V28H242v1.3c-3.74.47-4,1.66-4,4.15V64h-1.45l-23.1-28.14h-0.1V56.65c0,3.74,1.09,4.72,4.93,5.14v1.3H206.42v-1.3h0Z"/><path class="cls-1" d="M277.81,63.08H261v-1.3c3.22-.26,4.15-0.31,4.15-2,0-1.4-1.66-5.24-2.39-6.91H251.08c-1.45,3.74-2.29,5.87-2.29,6.7,0,2,2.49,2.13,4.26,2.23v1.3H242.51V61.8c2.8-.42,3.53-2.18,5.09-6.07l11.52-28.45h1.45l11.58,27.3c2.28,5.4,3.11,7.22,5.45,7.22h0.21v1.3h0v0ZM262,50.83l-5.24-12.61-4.86,12.61H262Z"/><path class="cls-1" d="M316.64,63.08H306L295.25,46.84h-1.37V57c0,4.15,1.14,4.31,4.57,4.78v1.3H280.88v-1.3c3.53-.42,4.57-0.57,4.57-4.78V34.06c0-4.46-1.61-4.57-4.57-4.77V28H297.6c3.63,0,14.64.42,14.64,9.14,0,6.39-5.35,8-8.15,8.88L314.51,60.8a2.38,2.38,0,0,0,2.13,1v1.3h0v0ZM293.88,45.17c6.8,0,9.5-1.19,9.5-7.94,0-5.24-2.13-7.48-6.28-7.48-2.85,0-3,.57-3.22,2.18V45.17h0Z"/><path class="cls-1" d="M336.21,63.08H318v-1.3c2.8-.26,4.83-0.47,4.83-3.69V33c0-3.43-2.44-3.53-4.83-3.68V28h18.17v1.3c-2.44.1-4.93,0.15-4.93,3.68V58.1c0,3.32,2.08,3.48,4.93,3.69v1.3h0Z"/><path class="cls-1" d="M338,61.79c3.11-.36,4.57-0.73,4.57-4.15V33c-2.91-3.58-3.74-3.74-4.41-3.74V28h11l18,22.17h0.1V34.43c0-3.11-.62-4.83-4.83-5.14V28h11.16v1.3c-3.74.47-4,1.66-4,4.15V64h-1.45L345,35.86h-0.14V56.65c0,3.74,1.09,4.72,4.93,5.14v1.3H338v-1.3h0Z"/><path class="cls-1" d="M393.88,63.08H375.72v-1.3c2.8-.26,4.83-0.47,4.83-3.69V33c0-3.43-2.44-3.53-4.83-3.68V28h18.16v1.3c-2.44.1-4.93,0.15-4.93,3.68V58.1c0,3.32,2.08,3.48,4.93,3.69v1.3h0Z"/><polygon class="cls-2" points="103.8 0.88 103.8 103.82 84.53 103.82 20.15 103.82 0.88 103.82 0.88 0.88 103.8 0.88 103.8 0.88"/><polygon class="cls-3" points="103.8 0.51 52.34 71.25 0.88 0.51 103.8 0.51 103.8 0.51"/><path class="cls-1" d="M54.4,53.87l-5.64-1.42V50.08h7.12v1.53h-6l6,1.49v1.6l-6,1.48h6V57.7H48.76V55.3l5.64-1.43h0Z"/><polygon class="cls-1" points="48.76 42.72 50.03 42.72 50.03 46.89 51.55 46.89 51.55 43.06 52.8 43.06 52.8 46.89 54.64 46.89 54.64 42.53 55.93 42.53 55.93 48.5 48.76 48.5 48.76 42.72 48.76 42.72"/><polygon class="cls-1" points="55.93 41.27 48.76 41.27 48.76 39.55 53.77 36.4 48.76 36.4 48.76 34.87 55.93 34.87 55.93 36.52 50.83 39.74 55.93 39.74 55.93 41.27 55.93 41.27"/><path class="cls-1" d="M53.22,29.18v2l-2.82-1,2.82-1h0Zm2.71,3-1.47-.55v-2.9l1.42-.52V26.43l-7.17,2.79v1.86l7.17,2.81V32.17h0Z"/><path class="cls-1" d="M50.13,21.06A0.87,0.87,0,0,1,51,20.59a0.78,0.78,0,0,1,.81.5,2.24,2.24,0,0,1,.12.83v1.86H50V21.87a2,2,0,0,1,.13-0.8h0Zm-1.37,4.33h7.12V23.78H53.12v-1.7a1.58,1.58,0,0,1,.23-1,1.2,1.2,0,0,1,.91-0.27h0.62a3.35,3.35,0,0,0,.62-0.07l0.38-.11V18.82H55.75a0.59,0.59,0,0,1-.41.3,2.84,2.84,0,0,1-.67,0H54.19a2.21,2.21,0,0,0-1.12.22,1.49,1.49,0,0,0-.57.77,1.56,1.56,0,0,0-.7-0.94,2,2,0,0,0-1-.28,1.89,1.89,0,0,0-.75.15,2.3,2.3,0,0,0-.6.41,2,2,0,0,0-.5.76,4,4,0,0,0-.19,1.27v3.87h0v0Z"/><polygon class="cls-1" points="48.76 16.01 55.93 16.01 55.93 17.65 48.76 17.65 48.76 16.01 48.76 16.01"/><polygon class="cls-1" points="55.93 14.5 48.76 14.5 48.76 12.78 53.77 9.64 48.76 9.64 48.76 8.1 55.93 8.1 55.93 9.75 50.83 12.97 55.93 12.97 55.93 14.5 55.93 14.5"/><polygon class="cls-1" points="48.76 5.06 55.93 5.06 55.93 6.7 48.76 6.7 48.76 5.06 48.76 5.06"/><polygon class="cls-4" points="20.15 103.82 20.15 57.14 52.34 103.17 84.53 57.14 84.53 103.82 20.15 103.82 20.15 103.82"/><polygon class="cls-2" points="20.15 103.82 20.15 57.14 52.34 103.17 84.53 57.14 84.53 103.82 20.15 103.82 20.15 103.82"/></svg>