<?xml version="1.0" encoding="utf-8"?>
<!-- Generator: Adobe Illustrator 18.1.1, SVG Export Plug-In . SVG Version: 6.00 Build 0)  -->
<svg version="1.1" id="Details" xmlns="http://www.w3.org/2000/svg" xmlns:xlink="http://www.w3.org/1999/xlink" x="0px" y="0px"
	 viewBox="0 0 20 20" enable-background="new 0 0 20 20" xml:space="preserve">
<g>
	<path fill="#0085CA" d="M9,3c3.3,0,5.9,2.7,5.9,5.9s-2.7,5.9-5.9,5.9s-5.9-2.7-5.9-5.9S5.7,3,9,3 M9,1C4.6,1,1.1,4.6,1.1,8.9
		s3.6,7.9,7.9,7.9s7.9-3.6,7.9-7.9S13.4,1,9,1L9,1z"/>
</g>
<path fill="#0085CA" d="M13.3,15.2l3.7,4.6c0,0,2.3,0.1,2.5-2.4l-4.6-3.6C14.9,13.8,14.4,14.5,13.3,15.2z"/>
<polygon fill="#0085CA" points="8,5 10,5 10,8 13,8 13,10 10,10 10,13 8,13 8,10 5,10 5,8 8,8 "/>
<g>
</g>
<g>
</g>
<g>
</g>
<g>
</g>
<g>
</g>
<g>
</g>
<g>
</g>
<g>
</g>
<g>
</g>
<g>
</g>
<g>
</g>
<g>
</g>
<g>
</g>
<g>
</g>
<g>
</g>
</svg>
