<svg xmlns="http://www.w3.org/2000/svg" width="144" height="25" viewBox="0 0 144 25">
  <g fill="#FFFFFF" fill-rule="evenodd">
    <path d="M10.5975291 13.1993007L10.5975291 7.88898601C10.5975291 7.88898601 10.641512 7.40821678 10.1137173 7.40821678L9.14609359 7.40821678C9.14609359 7.40821678 8.77223897 7.45192308 8.70626463 7.84527972 8.64029029 8.23863636 8.13448699 7.95454545 8.13448699 7.95454545 8.13448699 7.95454545 4.76979548 6.49038462 2.37272767 8.15122378-.0243401344 9.81206294-1.343827 13.6582168 2.0648474 16.3243007 5.47352181 18.9903846 8.15858962 18.4553322 7.91457251 21.0664336 7.62868369 24.1258741 3.27437703 22.2465035 2.65861649 20.4108392 2.04285596 18.5751748 2.04285596 17.8103147 1.00925791 17.8103147-.0243401344 17.8103147.0000263897374 18.7062937.0000263897374 19.4493007L.0000263897374 23.8417832C.0000263897374 23.8417832.175957972 24.6928322.856549297 24.6928322 1.53705266 24.6928322 1.69099279 24.5410839 1.93289872 24.2132867 1.93289872 24.2132867 2.0648474 23.7106643 2.92251387 24.3662587 3.63204594 24.9086538 7.95855541 26.0270979 10.8614265 22.5524476 13.2804858 19.2089161 11.2584161 16.2767483 8.33241002 14.9475524 6.79300867 14.2482517 3.69221454 13.5708042 3.36234282 11.4947552 3.16441979 10.3583916 4.0880606 9.68094406 5.12165864 9.76835664 7.89258106 9.81206294 8.64029029 12.7622378 8.72825608 13.4833916 8.81622187 14.2045455 10.5975291 14.2482517 10.5975291 13.1993007M22.4729109 20.4982517C22.4729109 20.4982517 20.6696122 22.1153846 19.2181767 21.5472028 17.6787753 20.9353147 16.53522 17.9851399 22.4729109 15.9527972L22.4729109 20.4982517zM28.6085249 20.1048951C28.0367472 19.9082168 27.6848841 20.541958 27.2450551 21.131993 26.8052261 21.722028 26.6292946 21.131993 26.6292946 21.131993L26.6292946 13.1118881C26.6292946 10.5332168 25.3317991 7.62062937 20.9335096 7.62062937 16.53522 7.62062937 15.1497588 10.2054196 15.1497588 10.2054196 14.2944674 11.191521 14.2920924 14.4449301 16.6891602 14.4449301 19.086228 14.4449301 18.6903819 11.5384615 18.6903819 11.5384615 18.6903819 11.5384615 18.4044931 10.1398601 20.4496977 10.0305944 22.8213434 9.90384615 22.4509195 13.4833916 22.4509195 13.4833916L19.4600826 14.5979021C15.3916648 16.0402098 13.9622206 18.6188811 13.9622206 20.388986 13.9622206 22.1590909 15.2817075 25 17.8327155 25 20.3837234 25 22.0990563 23.4265734 22.282553 23.1643357 22.4661376 22.9020979 22.5608767 23.0769231 22.5608767 23.0769231 22.5608767 23.0769231 23.3305774 25 24.8479873 25 26.3653972 25 28.6744992 22.9458042 29.202294 21.9405594 29.7300887 20.9353147 29.1803025 20.3015734 28.6085249 20.1048951L28.6085249 20.1048951zM31.3134729 11.0795455C31.3134729 11.0795455 30.8516525 10.2491259 32.0171993 9.7465035 33.182746 9.24388112 35.9976513 8.17307692 35.9976513 8.17307692 35.9976513 8.17307692 37.8904992 7.65122378 37.8904992 8.72071678L37.8904992 10.1835664C37.8904992 10.1835664 37.9694045 10.4694056 38.3249622 10.0423951 38.6806079 9.61538462 42.6395963 5.73409091 46.1799555 9.91468531 46.1799555 9.91468531 46.762465 11.013986 47.343655 9.9611014 48.0114033 8.7513986 53.5248352 5.72552448 55.8999115 11.0795455L56.2297833 12.3688811 56.2297833 20.5201049 56.2297833 22.1809441C56.2297833 22.1809441 56.2737662 22.8365385 56.9005224 22.9130245 57.5272787 22.9895105 58.6048596 22.8583916 58.6048596 23.6013986L58.6048596 24.486451C58.6048596 24.486451 58.6378468 24.9672203 57.8021718 24.9672203L50.3250795 24.9672203C50.3250795 24.9672203 49.7313104 24.8688811 49.7313104 24.3771853L49.7313104 23.5576923C49.7313104 23.5576923 49.8192762 23.0113636 50.4350368 23.0113636L51.303699 23.0113636C51.303699 23.0113636 52.1943526 22.9348776 52.1943526 22.1263112L52.1943526 13.2320804C52.1943526 13.2320804 52.1613654 11.3964161 50.86387 11.3964161 49.5663746 11.3964161 48.5217808 11.3527098 47.1033324 13.2102273L47.1033324 22.2465035C47.1033324 22.2465035 47.1473153 22.9785839 47.8400459 22.9785839L49.0495756 22.9785839C49.0495756 22.9785839 49.5773703 23.0878497 49.5773703 23.7543706L49.5773703 24.486451C49.5773703 24.486451 49.4674131 24.9672203 48.9176269 24.9672203L41.06668 24.9672203C41.06668 24.9672203 40.4729109 24.9125874 40.4729109 24.3771853L40.4729109 23.513986C40.4729109 23.513986 40.5168938 22.9676573 41.2975902 22.9676573L42.3531797 22.9676573C42.3531797 22.9676573 43.0513642 22.9020979 43.0513642 22.2738636L43.0513642 13.1228147C43.0513642 13.1228147 43.018377 11.268007 41.184906 11.268007 39.3513471 11.268007 37.8779201 12.9479895 37.8779201 12.9479895L37.8779201 21.9187063 37.8779201 22.3557692C37.8779201 22.3557692 37.8889158 23.0387238 38.5651968 23.0387238L39.8681461 23.0387238C39.8681461 23.0387238 40.3189708 23.0878497 40.3189708 23.6560315L40.3189708 24.5738636C40.3189708 24.5738636 40.2969794 24.9672203 39.6042487 24.9672203L31.9842121 24.9672203C31.9842121 24.9672203 31.4564173 24.9125874 31.4564173 24.3881119L31.4564173 23.4265734C31.4564173 23.4265734 31.5004002 22.9676573 32.1711394 22.9676573L33.1387631 22.9676573C33.1387631 22.9676573 33.7875108 22.923951 33.7875108 22.3229895L33.7875108 12.4562937 33.7875108 11.9973776C33.7875108 11.9973776 33.7545236 11.4729021 33.2597161 11.4729021 32.7649085 11.4729021 32.3800582 11.7460664 32.3800582 11.7460664 32.3800582 11.7460664 31.9023159 12.0443182 31.6103575 11.6149476 31.3354644 11.2106643 31.3134729 11.0795455 31.3134729 11.0795455M71.0594082 17.1037587C70.6195792 22.9895105 67.1595328 22.3776224 65.8987191 21.8823427 64.6378175 21.3870629 64.7258712 20.745979 64.7258712 20.745979L64.7258712 12.704021C66.5731528 9.64458042 71.4992371 11.218007 71.0594082 17.1037587M74.4826849 11.3199301C70.216344 4.41433566 65.6201315 8.69755245 65.1363196 9.13461538 64.6525078 9.57167832 64.7184821 9.0034965 64.7184821 9.0034965L64.7184821.83041958C64.7184821-.371503497 62.8272176.218531469 62.8272176.218531469L58.4949024 2.01048951C58.0990563 2.33828671 57.9451162 2.62237762 58.3189708 3.4527972 58.6928254 4.28321678 59.6824406 3.60576923 59.6824406 3.60576923 60.6720557 3.25611888 60.6060814 4.5236014 60.6060814 4.5236014L60.6060814 22.618007C65.8620374 27.1416084 72.2615487 24.5847902 74.4826849 20.0393357 76.7038211 15.4938811 74.4826849 11.3199301 74.4826849 11.3199301M85.9842121 20.4982517C85.9842121 20.4982517 84.1809134 22.1153846 82.7294778 21.5472028 81.1900765 20.9353147 80.0465212 17.9851399 85.9842121 15.9527972L85.9842121 20.4982517zM92.119826 20.1048951C91.5480484 19.9082168 91.1961852 20.541958 90.7563563 21.131993 90.3165273 21.722028 90.1405957 21.131993 90.1405957 21.131993L90.1405957 13.1118881C90.1405957 10.5332168 88.8431003 7.62062937 84.4448108 7.62062937 80.0465212 7.62062937 78.66106 10.2054196 78.66106 10.2054196 77.8057686 11.191521 77.8033935 14.4449301 80.2004613 14.4449301 82.5975291 14.4449301 82.2016831 11.5384615 82.2016831 11.5384615 82.2016831 11.5384615 81.9157943 10.1398601 83.9609989 10.0305944 86.3326446 9.90384615 85.9622206 13.4833916 85.9622206 13.4833916L82.9713838 14.5979021C78.9029659 16.0402098 77.4735218 18.6188811 77.4735218 20.388986 77.4735218 22.1590909 78.7930087 25 81.3440166 25 83.8950246 25 85.6103575 23.4265734 85.7938541 23.1643357 85.9774387 22.9020979 86.0721779 23.0769231 86.0721779 23.0769231 86.0721779 23.0769231 86.8418786 25 88.3592885 25 89.8766984 25 92.1858004 22.9458042 92.7135951 21.9405594 93.2413899 20.9353147 92.6916037 20.3015734 92.119826 20.1048951L92.119826 20.1048951zM103.398518 20.4982517C103.398518 20.4982517 101.59522 22.1153846 100.143784 21.5472028 98.6043827 20.9353147 97.4608274 17.9851399 103.398518 15.9527972L103.398518 20.4982517zM109.534132 20.1048951C108.962355 19.9082168 108.610491 20.541958 108.170662 21.131993 107.730833 21.722028 107.554902 21.131993 107.554902 21.131993L107.554902 13.1118881C107.554902 10.5332168 106.257406 7.62062937 101.859117 7.62062937 97.4608274 7.62062937 96.0753662 10.2054196 96.0753662 10.2054196 95.2200748 11.191521 95.2176997 14.4449301 97.6147675 14.4449301 100.011835 14.4449301 99.6159892 11.5384615 99.6159892 11.5384615 99.6159892 11.5384615 99.3301004 10.1398601 101.375305 10.0305944 103.746951 9.90384615 103.376527 13.4833916 103.376527 13.4833916L100.38569 14.5979021C96.3172721 16.0402098 94.887828 18.6188811 94.887828 20.388986 94.887828 22.1590909 96.2073148 25 98.7583228 25 101.309331 25 103.024664 23.4265734 103.20816 23.1643357 103.391745 22.9020979 103.486484 23.0769231 103.486484 23.0769231 103.486484 23.0769231 104.256185 25 105.773595 25 107.291005 25 109.600107 22.9458042 110.127901 21.9405594 110.655696 20.9353147 110.10591 20.3015734 109.534132 20.1048951L109.534132 20.1048951zM122.929844 13.1993007L122.929844 7.88898601C122.929844 7.88898601 122.973827 7.40821678 122.446032 7.40821678L121.478409 7.40821678C121.478409 7.40821678 121.104554 7.45192308 121.03858 7.84527972 120.972605 8.23863636 120.466802 7.95454545 120.466802 7.95454545 120.466802 7.95454545 117.102111 6.49038462 114.705043 8.15122378 112.307975 9.81206294 110.988488 13.6582168 114.397163 16.3243007 117.805837 18.9903846 120.490817 18.4553322 120.246888 21.0664336 119.960999 24.1258741 115.606692 22.2465035 114.990932 20.4108392 114.375171 18.5751748 114.375171 17.8103147 113.341573 17.8103147 112.307975 17.8103147 112.332342 18.7062937 112.332342 19.4493007L112.332342 23.8417832C112.332342 23.8417832 112.508273 24.6928322 113.188865 24.6928322 113.869368 24.6928322 114.023308 24.5410839 114.265214 24.2132867 114.265214 24.2132867 114.397163 23.7106643 115.254829 24.3662587 115.964361 24.9086538 120.290871 26.0270979 123.193742 22.5524476 125.612801 19.2089161 123.590731 16.2767483 120.664725 14.9475524 119.125324 14.2482517 116.02453 13.5708042 115.694658 11.4947552 115.496735 10.3583916 116.420376 9.68094406 117.453974 9.76835664 120.224896 9.81206294 120.972605 12.7622378 121.060571 13.4833916 121.148537 14.2045455 122.929844 14.2482517 122.929844 13.1993007M126.36051 1.98133741L130.78818.203977273C130.78818.203977273 132.650064-.415253497 132.650064.874082168L132.650064 9.74645979C132.650064 9.74645979 132.595086 10.3692745 133.023919 9.94313811 133.452752 9.51700175 134.541329 8.05773601 137.158311 8.05773601 139.775293 8.05773601 141.600584 10.1616696 141.600584 12.8496066L141.600584 22.1371941C141.600584 22.1371941 141.622575 22.9894668 142.370284 22.9894668L143.293925 22.9894668C143.293925 22.9894668 143.97566 22.880201 143.97566 23.8198864 143.97566 24.7595717 143.579814 24.9781031 143.161976 24.9781031L135.714265 24.9781031C135.714265 24.9781031 135.168085 24.8983829 135.168085 24.4030157L135.168085 23.4414773C135.168085 23.4414773 135.215762 23.0044143 135.611609 23.0044143L136.813837 23.0044143C136.813837 23.0044143 137.576149 22.9024038 137.576149 22.2031031L137.576149 13.6803759C137.576149 13.6803759 137.605441 11.3785402 135.919489 11.3785402 134.233536 11.3785402 132.650152 12.8353584 132.650152 13.432736 132.650152 14.0301136 132.65024 20.8190997 132.65024 20.8190997L132.65024 22.1886801C132.65024 22.1886801 132.56289 23.048208 133.412728 23.048208L134.395042 23.048208C134.395042 23.048208 134.966819 23.0335227 134.966819 23.6600087L134.966819 24.4904283C134.966819 24.4904283 134.908146 24.9781031 134.351059 24.9781031L126.815645 24.9781031C126.815645 24.9781031 126.243868 24.8982955 126.243868 24.3010052L126.243868 23.4705857C126.243868 23.4705857 126.243868 23.0190122 126.859628 23.0190122L127.827252 23.0190122C127.827252 23.0190122 128.516288 22.9461101 128.516288 22.2905157L128.516288 4.40013112C128.516288 4.40013112 128.560183 3.61341783 127.973803 3.61341783 127.387423 3.61341783 127.211491 3.8465472 127.211491 3.8465472 127.211491 3.8465472 126.610333 4.05048077 126.405109 3.70083042 126.199885 3.35118007 126.053246 2.85590035 126.053246 2.85590035 126.053246 2.85590035 125.84679 2.27233392 126.36051 1.98133741"/>
  </g>
</svg>
