<?xml version="1.0" encoding="utf-8"?>
<!-- Generator: Adobe Illustrator 18.1.1, SVG Export Plug-In . SVG Version: 6.00 Build 0)  -->
<svg version="1.1" id="Layer_1" xmlns="http://www.w3.org/2000/svg" xmlns:xlink="http://www.w3.org/1999/xlink" x="0px" y="0px"
	 viewBox="0 0 600 600" enable-background="new 0 0 358 342" xml:space="preserve" style="width:179px; height:171px; padding:30px;">
<g>
	<g>
		<g>
			<path fill="#1E449F" d="M99.2,300.2L99.2,300.2c-9.2,0-18.4-3.4-23.7-8.7l-43.1-41.1c-8.7-8.2-11.1-23.2-5.8-33.9L126.3,22
				c3.4-7.3,10.6-11.6,18.4-11.6c3.9,0,7.7,1,11.1,2.9l95.3,57.1c9.2,5.8,20.3,18.4,24.7,28.5l40.6,95.8c2.4,5.3,2.4,11.6,0,16.9
				c-2.4,5.3-6.8,9.7-12.1,11.6l-194,75C106.9,299.7,103,300.2,99.2,300.2z M145.1,17.6c-5.3,0-9.7,2.9-12.1,7.7L33.4,219.9
				c-3.9,7.7-1.9,19.4,4.4,25.2l43.1,41.1c4.4,4.4,11.6,6.8,18.9,6.8c2.9,0,5.8-0.5,8.2-1.5l194.5-75c3.9-1.5,6.8-4.4,8.2-7.7
				c1.5-3.4,1.5-7.7,0-11.1L270,101.8c-3.9-8.7-13.5-20.3-21.8-25.2l-95.8-57.1C150,18.1,147.6,17.6,145.1,17.6z">
				<animateTransform attributeName="transform" attributeType="XML" type="rotate" dur="15s" from="0 179 171" to="360 179 171" repeatCount="indefinite"/>
				</path>
		</g>
		<g>
			<path fill="#1E449F" d="M195,327.7L195,327.7c-6.8,0-12.6-2.9-16.9-8.2l-129.7-163c-7.3-9.2-8.7-24.7-3.9-35.3L70.6,68
				c4.4-9.2,15.5-16,26.1-16c1.5,0,2.9,0,3.9,0.5l215.8,36.8c5.8,1,10.6,4.4,14,9.2c3.4,4.8,4.4,10.6,2.9,16.4l-26.1,107.9
				c-2.4,10.6-11.6,25.2-19.8,31.9L208,322.4C205.1,325.8,200.3,327.7,195,327.7z M97.2,59.2c-8.2,0-16.4,5.3-19.8,12.1l-26.1,53.2
				c-3.9,7.7-2.4,20.8,2.9,27.6l129.7,163c2.9,3.4,6.8,5.3,11.1,5.3c3.4,0,6.8-1.5,9.2-3.4l79.3-67.7c7.3-6.3,15-18.9,17.4-28.5
				L327,112.9c1-3.9,0.5-7.7-1.9-11.1c-1.9-3.4-5.3-5.3-9.2-5.8L100.1,59.7C99.2,59.7,98.2,59.2,97.2,59.2z">
				<animateTransform attributeName="transform" attributeType="XML" type="rotate" dur="10s" from="0 179 171" to="-360 179 171" repeatCount="indefinite"/>
				</path>
		</g>
		<g>
			<path fill="#1E449F" d="M278.2,336L278.2,336c-3.9,0-7.3-0.5-10.6-1.9L66.8,247.9c-5.3-2.4-9.7-6.8-11.6-12.1
				c-1.9-5.3-1.5-11.6,1-16.9l50.3-98.7c4.8-9.7,16.9-21.8,26.6-26.6l92.9-47.4c2.9-1.5,6.3-2.4,9.7-2.4c8.2,0,16,4.8,19.4,12.6
				L343,245c4.8,10.6,2.9,26.1-4.4,34.8l-37.3,46C296.1,332.1,287.4,336,278.2,336z M235.6,51c-2.4,0-4.4,0.5-6.8,1.5l-92.9,47.4
				c-8.2,4.4-19.4,15-23.7,23.7l-49.8,98.7c-1.9,3.4-1.9,7.3-1,11.1c1.5,3.4,3.9,6.3,7.7,7.7l201.7,86.1c2.4,1,4.8,1.5,7.7,1.5
				c6.8,0,13.5-2.9,17.4-7.3l37.7-45.5c5.8-6.8,7.3-19.4,3.4-27.6L248.7,59.7C246.2,54.4,241.4,51,235.6,51z">
				<animateTransform attributeName="transform" attributeType="XML" type="rotate" dur="5s" from="0 179 171" to="360 179 171" repeatCount="indefinite"/>
				</path>
		</g>
	</g>
	<g>
		<path fill="#1E449F" d="M123.8,134.2v18.9h-2.4v-18.9h-5.8v-1.9h14.5v1.9H123.8z"/>
		<path fill="#1E449F" d="M147.6,153.1v-9.7h-9.7v9.7h-2.4v-20.8h2.4v9.7h9.7v-9.7h2.4v20.8H147.6z"/>
		<path fill="#1E449F" d="M155.3,153.1v-20.8h13.1v1.9h-10.6v7.7h9.2v1.9h-9.2v7.7h10.6v1.9h-13.1V153.1z"/>
		<path fill="#1E449F" d="M124.3,183.6c-4.4,0-7.3-2.9-7.3-7.3v-14h2.4v13.5c0,3.4,1.9,5.3,4.8,5.3c2.9,0,4.8-1.9,4.8-5.3v-13.5h2.4
			v14C131.6,180.7,128.7,183.6,124.3,183.6z"/>
		<path fill="#1E449F" d="M151.4,183.1l-11.1-16.4v16.9h-2.4v-20.8h2.4l11.1,16.4v-16.4h2.4v20.8h-2.4V183.1z"/>
		<path fill="#1E449F" d="M160.6,183.1v-20.8h2.4v20.8H160.6z"/>
		<path fill="#1E449F" d="M169.3,183.1v-20.8h2.4v18.9h10.6v1.9L169.3,183.1L169.3,183.1z"/>
		<path fill="#1E449F" d="M186.7,183.1v-20.8h13.1v1.9h-10.6v7.3h9.2v1.9h-9.2v7.7h10.6v1.9L186.7,183.1L186.7,183.1z"/>
		<path fill="#1E449F" d="M212.4,183.1h-1.9l-6.8-20.8h2.4l5.3,16.9l5.3-16.9h2.4L212.4,183.1z"/>
		<path fill="#1E449F" d="M223,183.1v-20.8h13.1v1.9h-10.6v7.3h9.2v1.9h-9.2v7.7h10.6v1.9L223,183.1L223,183.1z"/>
		<path fill="#1E449F" d="M252.1,183.1l-4.8-9.2h-4.8v9.2H240v-20.8h8.2c3.9,0,6.3,2.4,6.3,5.8c0,2.9-1.9,4.8-4.4,5.8l4.8,9.7h-2.9
			V183.1z M248.2,164.2h-5.3v7.7h5.3c2.4,0,4.4-1.5,4.4-3.9C252.1,165.7,250.6,164.2,248.2,164.2z"/>
		<path fill="#1E449F" d="M120.9,195.7v5.3h8.7v3.9h-8.7v8.7h-4.4v-21.8h14v3.9H120.9z"/>
		<path fill="#1E449F" d="M148,211.6c-1.5,1.5-3.4,2.4-5.8,2.4c-2.4,0-4.4-1-5.8-2.4c-2.4-2.4-1.9-4.8-1.9-8.7s0-6.3,1.9-8.7
			c1.5-1.5,3.4-2.4,5.8-2.4c2.4,0,4.4,1,5.8,2.4c2.4,2.4,1.9,4.8,1.9,8.7C150.5,206.8,150.5,209.2,148,211.6z M145.1,196.6
			c-0.5-0.5-1.5-1-2.9-1c-1,0-1.9,0.5-2.9,1c-1,1-1,1.9-1,6.3c0,4.4,0,5.3,1,6.3c0.5,0.5,1.5,1,2.9,1c1,0,1.9-0.5,2.9-1
			c1-1,1-1.9,1-6.3C146.1,198.6,145.6,197.6,145.1,196.6z"/>
		<path fill="#1E449F" d="M163,214.1c-4.4,0-7.7-2.9-7.7-7.7v-14h4.4v14c0,2.4,1.5,3.9,3.9,3.9c2.4,0,3.9-1.5,3.9-3.9v-14h4.4v14
			C170.8,211.2,167.4,214.1,163,214.1z"/>
		<path fill="#1E449F" d="M189.2,213.6l-8.7-13.1v13.1h-4.4v-21.8h3.9l8.7,13.1v-13.1h4.4v21.8H189.2z"/>
		<path fill="#1E449F" d="M212.4,211.6c-1.5,1.5-3.4,1.9-5.8,1.9h-7.7v-21.8h7.7c2.4,0,4.4,0.5,5.8,1.9c2.4,2.4,2.4,5.3,2.4,8.7
			C214.3,206.3,214.8,209.2,212.4,211.6z M209.5,197.1c-1-1-1.9-1.5-3.4-1.5h-2.9v14h3.4c1.5,0,2.4-0.5,3.4-1.5c1-1,1-2.4,1-5.8
			C210.4,199.5,210,198.1,209.5,197.1z"/>
		<path fill="#1E449F" d="M231.2,213.6l-4.4-8.7H224v8.7h-4.4v-21.8h8.7c4.4,0,7.3,2.9,7.3,6.8c0,2.9-1.9,4.8-3.9,5.8l4.8,9.2
			L231.2,213.6L231.2,213.6z M227.9,195.7H224v5.8h3.9c1.9,0,2.9-1,2.9-2.9C230.8,197.1,229.8,195.7,227.9,195.7z"/>
		<path fill="#1E449F" d="M248.7,204.9v8.7h-4.4v-8.7l-6.3-12.6h4.4l3.9,8.7l3.9-8.7h4.4L248.7,204.9z"/>
	</g>
</g>
</svg>
