<?xml version="1.0" encoding="UTF-8" standalone="no"?>
<svg width="18px" height="21px" viewBox="0 0 18 21" version="1.1" xmlns="http://www.w3.org/2000/svg" xmlns:xlink="http://www.w3.org/1999/xlink">
    <!-- Generator: sketchtool 39.1 (31720) - http://www.bohemiancoding.com/sketch -->
    <title>71F14E4A-8E0E-46B2-86E5-8268A925BFDE</title>
    <desc>Created with sketchtool.</desc>
    <defs></defs>
    <g id="Missing-Screens" stroke="none" stroke-width="1" fill="none" fill-rule="evenodd">
        <g id="03---Startup-details-About" transform="translate(-1276.000000, -136.000000)" stroke="#7BA2D0">
            <g id="Content01" transform="translate(-177.000000, 98.000000)">
                <g id="Actions" transform="translate(1400.000000, 32.000000)">
                    <g id="Icon-Print" transform="translate(54.000000, 7.000000)">
                        <rect id="Rectangle-path" x="3.0844878" y="9.59882927" width="9.81639024" height="9.39999962"></rect>
                        <rect id="Rectangle-path" x="3.0844878" y="0.0528780488" width="9.944" height="4.77287805"></rect>
                        <path d="M4.57170732,11.7073171 L11.2813847,11.7073171" id="Shape"></path>
                        <path d="M4.57170732,14.2682927 L11.2813847,14.2682927" id="Shape"></path>
                        <path d="M4.57170732,16.6341463 L11.2813847,16.6341463" id="Shape"></path>
                        <path d="M12.9334634,14.0040976 L15.2620488,14.0040976 C15.8907317,14.0040976 15.8759024,13.4649756 15.8759024,13.4649756 L15.8759024,5.376 C15.814439,4.75804878 15.2854634,4.85326829 15.2854634,4.85326829 L0.616585366,4.83004878 C-0.0819512195,4.83004878 0.0109268293,5.376 0.0109268293,5.376 L0.0109268293,13.4649756 C0.0109268293,13.4649756 -0.0353170732,14.0273171 0.663219512,14.0273171 L2.99121951,14.0273171" id="Shape"></path>
                        <ellipse id="Oval" cx="12.8651707" cy="6.73385366" rx="0.656585368" ry="0.656585368"></ellipse>
                        <ellipse id="Oval" cx="9.58556098" cy="6.73385366" rx="0.656585368" ry="0.656585368"></ellipse>
                        <path d="" id="Shape"></path>
                    </g>
                </g>
            </g>
        </g>
    </g>
</svg>