<?xml version="1.0" encoding="UTF-8" standalone="no"?>
<svg width="40px" height="42px" viewBox="0 0 40 42" version="1.1" xmlns="http://www.w3.org/2000/svg" xmlns:xlink="http://www.w3.org/1999/xlink">
    <!-- Generator: sketchtool 39.1 (31720) - http://www.bohemiancoding.com/sketch -->
    <title>879D93E3-A7D7-4BA7-9173-0F016E242E76</title>
    <desc>Created with sketchtool.</desc>
    <defs></defs>
    <g id="Event-Details" stroke="none" stroke-width="1" fill="none" fill-rule="evenodd">
        <g id="01---Event-Details-Option-03" transform="translate(-273.000000, -706.000000)" fill="#005EB8">
            <g id="Contact-details" transform="translate(150.000000, 619.000000)">
                <g id="Email" transform="translate(27.000000, 87.000000)">
                    <g id="Icon-Calendar" transform="translate(96.000000, 0.000000)">
                        <path d="M33.6363636,3.63636364 L32.7272727,3.63636364 L32.7272727,2.72727273 C32.7272727,1.18181818 31.5454545,0 30,0 C28.4545455,0 27.2727273,1.18181818 27.2727273,2.72727273 L27.2727273,3.63636364 L12.7272727,3.63636364 L12.7272727,2.72727273 C12.7272727,1.18181818 11.5454545,0 10,0 C8.45454545,0 7.27272727,1.18181818 7.27272727,2.72727273 L7.27272727,3.63636364 L6.36363636,3.63636364 C2.81818182,3.63636364 0,6.45454545 0,10 L0,35.4545455 C0,39 2.81818182,41.8181818 6.36363636,41.8181818 L33.6363636,41.8181818 C37.1818182,41.8181818 40,39 40,35.4545455 L40,10 C40,6.45454545 37.1818182,3.63636364 33.6363636,3.63636364 L33.6363636,3.63636364 Z M29.0909091,2.72727273 C29.0909091,2.18181818 29.4545455,1.81818182 30,1.81818182 C30.5454545,1.81818182 30.9090909,2.18181818 30.9090909,2.72727273 L30.9090909,6.36363636 C30.9090909,6.90909091 30.5454545,7.27272727 30,7.27272727 C29.4545455,7.27272727 29.0909091,6.90909091 29.0909091,6.36363636 L29.0909091,2.72727273 L29.0909091,2.72727273 Z M10,1.81818182 C10.5454545,1.81818182 10.9090909,2.18181818 10.9090909,2.72727273 L10.9090909,6.36363636 C10.9090909,6.90909091 10.5454545,7.27272727 10,7.27272727 C9.45454545,7.27272727 9.09090909,6.90909091 9.09090909,6.36363636 L9.09090909,4.54545455 L9.09090909,4.54545455 L9.09090909,4.54545455 L9.09090909,2.72727273 C9.09090909,2.18181818 9.45454545,1.81818182 10,1.81818182 L10,1.81818182 Z M6.36363636,5.45454545 L7.27272727,5.45454545 L7.27272727,6.36363636 C7.27272727,7.90909091 8.45454545,9.09090909 10,9.09090909 C11.5454545,9.09090909 12.7272727,7.90909091 12.7272727,6.36363636 L12.7272727,5.45454545 L27.2727273,5.45454545 L27.2727273,6.36363636 C27.2727273,7.90909091 28.4545455,9.09090909 30,9.09090909 C31.5454545,9.09090909 32.7272727,7.90909091 32.7272727,6.36363636 L32.7272727,5.45454545 L33.6363636,5.45454545 C36.1818182,5.45454545 38.1818182,7.45454545 38.1818182,10 L38.1818182,12.7272727 L1.81818182,12.7272727 L1.81818182,10 C1.81818182,7.45454545 3.81818182,5.45454545 6.36363636,5.45454545 L6.36363636,5.45454545 Z M38.1818182,35.4545455 C38.1818182,38 36.1818182,40 33.6363636,40 L6.36363636,40 C3.81818182,40 1.81818182,38 1.81818182,35.4545455 L1.81818182,14.5454545 L38.1818182,14.5454545 L38.1818182,35.4545455 L38.1818182,35.4545455 Z" id="Shape"></path>
                        <path d="M9.09090909,21.8181818 L30.9090909,21.8181818 C31.4545455,21.8181818 31.8181818,21.4545455 31.8181818,20.9090909 C31.8181818,20.3636364 31.4545455,20 30.9090909,20 L9.09090909,20 C8.54545455,20 8.18181818,20.3636364 8.18181818,20.9090909 C8.18181818,21.4545455 8.54545455,21.8181818 9.09090909,21.8181818 L9.09090909,21.8181818 Z" id="Shape"></path>
                        <path d="M9.09090909,28.1818182 L30.9090909,28.1818182 C31.4545455,28.1818182 31.8181818,27.8181818 31.8181818,27.2727273 C31.8181818,26.7272727 31.4545455,26.3636364 30.9090909,26.3636364 L9.09090909,26.3636364 C8.54545455,26.3636364 8.18181818,26.7272727 8.18181818,27.2727273 C8.18181818,27.8181818 8.54545455,28.1818182 9.09090909,28.1818182 L9.09090909,28.1818182 Z" id="Shape"></path>
                        <path d="M9.09090909,34.5454545 L30.9090909,34.5454545 C31.4545455,34.5454545 31.8181818,34.1818182 31.8181818,33.6363636 C31.8181818,33.0909091 31.4545455,32.7272727 30.9090909,32.7272727 L9.09090909,32.7272727 C8.54545455,32.7272727 8.18181818,33.0909091 8.18181818,33.6363636 C8.18181818,34.1818182 8.54545455,34.5454545 9.09090909,34.5454545 L9.09090909,34.5454545 Z" id="Shape"></path>
                    </g>
                </g>
            </g>
        </g>
    </g>
</svg>