<?xml version="1.0" encoding="UTF-8" standalone="no"?>
<svg width="40px" height="45px" viewBox="0 0 40 45" version="1.1" xmlns="http://www.w3.org/2000/svg" xmlns:xlink="http://www.w3.org/1999/xlink">
    <!-- Generator: sketchtool 39.1 (31720) - http://www.bohemiancoding.com/sketch -->
    <title>BBCD3ABA-BDDE-455A-AF9C-0EA6982F35BC</title>
    <desc>Created with sketchtool.</desc>
    <defs></defs>
    <g id="Event-Details" stroke="none" stroke-width="1" fill="none" fill-rule="evenodd">
        <g id="11---Event-Details" transform="translate(-505.000000, -745.000000)">
            <g id="Contact-details" transform="translate(150.000000, 659.000000)">
                <g id="Location" transform="translate(259.000000, 87.000000)">
                    <g id="Icon-Location" transform="translate(96.000000, 0.000000)">
                        <path d="M37.5611818,32.3993977 C36.5480493,31.4684255 35.1182468,30.6398869 33.3112538,29.9372563 C31.6803185,29.3034483 29.809838,28.7982159 27.7819725,28.4348966 C27.5349581,28.8328939 27.2799411,29.2362263 27.016388,29.6475613 C26.9715732,29.7163839 26.9278256,29.7862735 26.8830108,29.855096 C29.0522561,30.2061446 31.041709,30.7220472 32.7484024,31.3846647 C35.9131743,32.6154686 37.72817,34.2239965 37.72817,35.7989133 C37.72817,37.3738302 35.9131743,38.9828916 32.7484024,40.2126285 C29.3056726,41.5517346 24.7116316,42.2890432 19.8118903,42.2890432 C14.9126825,42.2890432 10.3186415,41.5517346 6.87537815,40.213162 C3.7100727,38.9828916 1.89561057,37.3743637 1.89561057,35.7994468 C1.89561057,34.22453 3.71060621,32.6154686 6.87537815,31.3851982 C8.68717274,30.6815006 10.8185389,30.1431906 13.1441021,29.7921421 C13.1131586,29.7441263 13.0822151,29.6961105 13.0518051,29.6480948 C12.7733137,29.2127519 12.503892,28.7854117 12.2430063,28.3655405 C10.0604234,28.7331278 8.05016368,29.2629017 6.31252677,29.9377898 C4.50553375,30.6404204 3.07519769,31.468959 2.06259871,32.3999312 C0.921424201,33.4482752 0.342567568,34.5921173 0.342567568,35.7994468 C0.342567568,37.0067764 0.920890693,38.1506184 2.06259871,39.1989625 C3.07519769,40.1299347 4.50553375,40.9579397 6.31252677,41.6611038 C9.93024735,43.0668985 14.7248875,43.8415527 19.8113568,43.8415527 C24.8983595,43.8415527 29.6924662,43.0668985 33.3107203,41.6611038 C35.1177133,40.9579397 36.5469823,40.1299347 37.5606483,39.1989625 C38.7023563,38.1506184 39.2806795,37.0067764 39.2806795,35.7994468 C39.2806795,34.5921173 38.7023563,33.4477417 37.5611818,32.3993977 L37.5611818,32.3993977 Z" id="Shape" fill="#005EB8"></path>
                        <path d="M19.9463935,34.8214025 L19.2966217,33.9854157 C19.2683215,33.9497574 16.4337769,30.2984701 13.6382865,25.9340185 C9.82625423,19.9841917 7.89391892,15.5812519 7.89391892,12.84972 C7.89391892,11.2224604 8.21257878,9.6444432 8.84140846,8.1581185 C9.44816402,6.7227341 10.3169791,5.43394456 11.4240816,4.32740808 C12.5306181,3.2203056 13.8199736,2.35149052 15.255358,1.74473497 C16.7416827,1.11590528 18.3202659,0.79724542 19.9469595,0.79724542 C21.573653,0.79724542 23.1522362,1.11590528 24.6385609,1.74473497 C26.0739453,2.35149052 27.3627349,3.2203056 28.4698373,4.32740808 C29.5763738,5.43394456 30.4451889,6.7227341 31.0525105,8.1581185 C31.6813401,9.6444432 32,11.2230264 32,12.84972 C32,15.5812519 30.0670987,19.9836257 26.2556324,25.9340185 C23.460708,30.2984701 20.6261634,33.9491914 20.5972973,33.9854157 L19.9463935,34.8214025 L19.9463935,34.8214025 Z M19.9458275,16.8762675 C17.5244653,16.8762675 15.5542078,14.906576 15.5542078,12.4852138 C15.5542078,10.0638517 17.5238993,8.09359412 19.9458275,8.09359412 C22.3671896,8.09359412 24.3368812,10.0632856 24.3368812,12.4852138 C24.3368812,14.906576 22.3666236,16.8762675 19.9458275,16.8762675 L19.9458275,16.8762675 Z" id="Shape" stroke="#005EB8" stroke-width="2"></path>
                        <path d="M28.479268,35.6143194 C28.479268,34.2432028 26.8077862,33.3335709 24.5707854,32.8390086 C24.2330745,33.3261018 23.9071009,33.7907876 23.596599,34.2282645 C24.1866593,34.3328322 24.7329719,34.4630083 25.2200651,34.6193262 C26.6301279,35.0706743 26.9267585,35.5406953 26.9267585,35.6143194 C26.9267585,35.6879436 26.6295943,36.1590315 25.2200651,36.6093126 C24.167453,36.9459564 22.8400841,37.1668289 21.3905417,37.2511232 C21.3889412,37.2543243 21.3873406,37.2564583 21.3852066,37.2591259 C20.9445286,37.2847343 20.492647,37.298072 20.0343633,37.298072 C19.5494041,37.298072 19.0724476,37.2831337 18.6077618,37.2543243 C18.6061612,37.2521903 18.6045607,37.2500562 18.6024267,37.2468552 C17.1822273,37.1593598 15.8826008,36.9400878 14.8481279,36.6093126 C13.4385987,36.158498 13.141968,35.6879436 13.141968,35.6143194 C13.141968,35.5406953 13.4385987,35.0701408 14.8481279,34.6193262 C15.3176154,34.4694104 15.8425876,34.3419018 16.4075731,34.2394682 C16.0976047,33.8025248 15.7721645,33.338906 15.4355207,32.8523463 C13.2299969,33.3506432 11.5894585,34.256007 11.5894585,35.6143194 L11.5894585,35.6217885 L11.5894585,35.6217885 C11.5894585,37.8401165 15.9668951,38.851115 20.0343633,38.851115 C24.1018315,38.851115 28.479268,37.8401165 28.479268,35.6217885 L28.479268,35.6217885 C28.479268,35.6185875 28.479268,35.6164535 28.479268,35.6143194 L28.479268,35.6143194 Z" id="Shape" fill="#005EB8"></path>
                    </g>
                </g>
            </g>
        </g>
    </g>
</svg>