<?xml version="1.0" encoding="UTF-8" standalone="no"?>
<svg width="42px" height="42px" viewBox="0 0 42 42" version="1.1" xmlns="http://www.w3.org/2000/svg" xmlns:xlink="http://www.w3.org/1999/xlink">
    <!-- Generator: sketchtool 39.1 (31720) - http://www.bohemiancoding.com/sketch -->
    <title>1125F9D5-0B1C-4C7F-892C-62DCDF69FA8B</title>
    <desc>Created with sketchtool.</desc>
    <defs></defs>
    <g id="Event-Details" stroke="none" stroke-width="1" fill="none" fill-rule="evenodd">
        <g id="11---Event-Details" transform="translate(-729.000000, -359.000000)">
            <g id="Social-links" transform="translate(610.000000, 360.000000)">
                <g id="Icon-Instagram" transform="translate(120.000000, 0.000000)">
                    <path d="M33.7233646,6.08213979 C29.9038988,2.26267404 25.29673,0.352705882 19.9023287,0.352705882 C14.5083979,0.352705882 9.90122912,2.26267404 6.08176336,6.08213979 C2.26276815,9.90160555 0.3528,14.5083038 0.3528,19.9027051 C0.3528,25.2971064 2.26276815,29.9038047 6.08176336,33.7232704 C9.90122912,37.5427362 14.5083979,39.4527044 19.9023287,39.4527044 C22.8677436,39.4527044 25.5814136,38.8833372 28.0776888,37.7271924 C28.747754,37.4086291 29.4008794,37.0571272 30.0544753,36.6552763 C31.3442567,35.8506333 32.5672198,34.8789447 33.7233646,33.7232704 C37.5428303,29.9038047 39.4527985,25.2971064 39.4527985,19.9027051 C39.4527985,14.5083038 37.5428303,9.90160555 33.7233646,6.08213979 L33.7233646,6.08213979 Z" id="Stroke-1" stroke="#996130" stroke-width="1.499" stroke-linecap="round" stroke-linejoin="round"></path>
                    <g id="Group-6" transform="translate(10.000000, 12.000000)">
                        <path d="M17.3124,3.37848873 C17.3124,4.00053107 16.8088,4.50465164 16.1874,4.50465164 L15.0624,4.50465164 C14.4412,4.50465164 13.9374,4.00053107 13.9374,3.37848873 L13.9374,2.81530717 C13.9374,2.19346504 14.4412,1.68934447 15.0624,1.68934447 L16.1874,1.68934447 C16.8088,1.68934447 17.3124,2.19346504 17.3124,2.81530717 L17.3124,3.37848873 Z M5.4998,0 L5.4998,5.63081455 L6.8952,5.63081455 C7.7128,4.87743659 8.801,4.41355758 9.9998,4.41355758 C11.1988,4.41355758 12.287,4.87743659 13.1048,5.63081455 L17.875,5.63081455 L17.875,14.6401178 C17.875,15.8842025 16.8676,16.8924437 15.6248,16.8924437 L4.26267842,16.8924435 C3.02007842,16.8924435 2.01287842,15.8842023 2.01287842,14.6401176 L2.01287842,6.19399592 L2.01287842,5.63081436 L2.01287842,1.03948975 C1.59960937,1.48852539 0.887878418,2.73571777 0.887878418,3.37848854 L0.887878418,14.6401176 C0.887878418,16.5060445 2.39887842,18.0186064 4.26267842,18.0186064 L15.6248,18.0186066 C17.4888,18.0186066 19,16.5060447 19,14.6401178 L19,5.63081455 L19,3.94167029 L19,3.37848873 C19,1.51256192 17.4888,0 15.6248,0 L5.4998,0 Z" id="Fill-33" fill="#C18653"></path>
                        <path d="M4.00384522,5.63081455 L4.00384522,0.0148925781 C3.43414307,0.0816040039 2.99310303,0.295166016 2.99310303,0.295166016 L2.99310303,5.63081455 L4.00384522,5.63081455 Z" id="Fill-35" fill="#FFBC34"></path>
                        <path d="M3.00384522,5.63081455 L3.00384522,0.307128906 C2.34411621,0.579467773 1.99310303,1.02813721 1.99310303,1.02813721 L1.99310303,5.63081455 L3.00384522,5.63081455 Z" id="Fill-35" fill="#E81C3F"></path>
                        <polygon id="Fill-35" fill="#1D88CF" points="6.02716064 5.63081455 6.02716064 3.24185123e-14 4.99450684 3.24185123e-14 4.99450684 5.63081455"></polygon>
                        <polygon id="Fill-35" fill="#1DCF8E" points="5.02716064 5.63081455 5.02716064 3.24185123e-14 3.99450684 3.24185123e-14 3.99450684 5.63081455"></polygon>
                        <path d="M7.79834286,9.60117023 C7.79834286,8.33806591 8.82134286,7.31400843 10.0831429,7.31400843 C11.3449429,7.31400843 12.3679429,8.33806591 12.3679429,9.60117023 C12.3679429,10.8642746 11.3449429,11.888332 10.0831429,11.888332 C8.82134286,11.888332 7.79834286,10.8642746 7.79834286,9.60117023 M13.5091429,9.60117023 C13.5091429,7.70701427 11.9753429,6.17142857 10.0831429,6.17142857 C8.19094286,6.17142857 6.65714286,7.70701427 6.65714286,9.60117023 C6.65714286,11.4953262 8.19094286,13.0307117 10.0831429,13.0307117 C11.9753429,13.0307117 13.5091429,11.4953262 13.5091429,9.60117023" id="Fill-37" fill="#C18653"></path>
                    </g>
                </g>
            </g>
        </g>
    </g>
</svg>