<?xml version="1.0" encoding="UTF-8" standalone="no"?>
<svg width="495px" height="155px" viewBox="0 0 495 155" version="1.1" xmlns="http://www.w3.org/2000/svg" xmlns:xlink="http://www.w3.org/1999/xlink">
    <!-- Generator: sketchtool 39.1 (31720) - http://www.bohemiancoding.com/sketch -->
    <title>42A72DE0-3736-4B07-901F-B09C76F0D8C2</title>
    <desc>Created with sketchtool.</desc>
    <defs>
        <rect id="path-1" x="0" y="0" width="497" height="155"></rect>
    </defs>
    <g id="Missing-Screens" stroke="none" stroke-width="1" fill="none" fill-rule="evenodd">
        <g id="01---Briefs-:-Signup-Callout" transform="translate(-456.000000, -44.000000)">
            <g id="Callout-style-03" transform="translate(-436.000000, -115.000000)">
                <g id="Login-box" transform="translate(892.000000, 159.000000)">
                    <g id="Shape" transform="translate(-1.000000, 0.000000)">
                        <mask id="mask-2" fill="white">
                            <use xlink:href="#path-1"></use>
                        </mask>
                        <use id="Mask" fill="#005EB8" xlink:href="#path-1"></use>
                        <path d="M428.533197,183.691822 C426.362037,183.691822 421.930303,185.80296 418.685359,188.381859 L313.86115,271.722135 C310.616621,274.301035 310.984621,277.952062 314.679941,279.831389 L344.520255,295.010885 C348.215988,296.886072 354.263777,299.96585 357.959511,301.841037 L391.093614,318.697025 C394.78852,320.576352 400.499355,320.038218 403.777828,317.500713 L416.302671,307.822595 C419.581144,305.289229 423.670957,300.119011 425.380151,296.33966 L442.947302,257.573371 C444.65898,253.794021 446.341681,247.319864 446.688984,243.184517 L449.283614,212.113534 C449.630089,207.978187 447.737516,201.988351 445.082035,198.800946 L437.310978,189.482963 C434.654669,186.299698 430.704772,183.691822 428.533197,183.691822 L428.533197,183.691822 Z M319.636147,176.427023 C316.063357,178.534022 312.895408,183.642148 312.599021,187.781634 L307.010714,265.260397 C306.713499,269.395744 309.124336,270.670706 312.372177,268.087666 L415.817937,185.852633 C419.062881,183.269594 420.614774,177.946215 419.264888,174.021982 L405.626522,134.357425 C404.277464,130.433192 400.250986,128.947116 396.677781,131.049975 L319.636147,176.427023 Z M272.594198,120.866839 C270.490097,117.290323 267.947625,117.658738 266.947525,121.686458 L251.679858,183.178525 C250.680172,187.206245 251.673649,193.36994 253.88786,196.880225 L296.311384,264.072365 C298.52601,267.582649 300.580437,267.065213 300.881377,262.929867 L306.030484,191.482335 C306.327285,187.342848 306.651407,182.876343 306.747443,181.547568 C306.843479,180.218793 305.199275,176.21177 303.095174,172.635254 L297.605802,163.32141 C295.501701,159.749033 292.054751,153.899939 289.95065,150.323423 L272.594198,120.866839 Z M447.918411,196.313115 C450.574719,199.49638 456.141086,202.162209 460.284298,202.23258 L527.628771,203.383357 C531.844724,203.389134 535.374893,200.190478 535.783559,195.994375 L542.548722,113.908363 C542.889401,109.773016 540.399086,108.349033 537.016712,110.745796 L442.275877,177.813751 C440.666163,178.918409 439.602319,180.655636 439.35004,182.591561 C439.097762,184.527486 439.680867,186.479334 440.953726,187.959632 L447.918411,196.313115 Z M585.177979,233.419469 C582.433085,236.528224 580.593498,242.443549 581.086924,246.562338 L586.319235,290.126291 C586.815973,294.24508 590.496804,296.737051 594.499688,295.664924 L611.47986,291.09907 C615.482743,290.026943 622.03555,288.271801 626.042572,287.195535 L687.865799,270.600335 C691.872822,269.524068 693.690056,265.579138 691.901798,261.837042 L674.532514,225.393006 L668.045939,211.774096 L648.904955,171.637638 C647.120836,167.891403 643.415996,167.373967 640.675656,170.486861 L585.177979,233.419469 Z M557.551875,94.0057134 C553.424394,94.3824066 549.415715,96.5473579 548.639976,98.8033779 C547.864236,101.059398 546.956033,106.291708 546.615767,110.422916 L539.476395,197.062362 C539.135715,201.197709 541.504743,206.699086 544.744719,209.286265 L572.100928,231.151031 C575.413007,233.73516 580.158402,233.323318 582.975772,230.207228 L638.908096,166.78202 C641.652575,163.673266 642.439077,158.064262 640.654959,154.318027 L612.858309,96.0092247 C611.070051,92.2629897 606.235131,89.5143708 602.108063,89.8952036 L557.551875,94.0057134 Z M-0.599887198,97.9630622 C-1.76556652,97.9589227 -6.1083015,97.9382253 -10.2539969,97.9216673 L-42.9224082,97.7685063 C-47.0656199,97.7478089 -53.5977291,99.0186312 -57.4350329,100.587496 L-74.2318261,107.450765 C-78.0683019,109.01963 -79.1578147,113.005955 -76.6513558,116.313405 L-14.8177805,197.873701 C-12.3125634,201.181151 -7.19657242,202.431276 -3.4519932,200.651297 L34.5070954,182.615555 C36.3049791,181.758242 37.6857809,180.218096 38.3424309,178.337622 C38.9990808,176.457149 38.8771375,174.392253 38.0037194,172.602138 L4.82946292,104.75182 C3.00684714,101.026282 0.56537817,97.9713411 -0.599887198,97.9630622 L-0.599887198,97.9630622 Z M13.2620103,98.029294 C9.11548694,98.0085965 7.21422092,101.04284 9.03559485,104.768378 L41.8940085,171.977076 C43.7153824,175.702613 48.3896903,179.92075 52.2816352,181.353012 L80.6954825,191.796936 C84.6056057,193.217227 88.9289504,191.214755 90.3744291,187.313872 L101.068792,158.217423 C102.501054,154.322167 101.313849,148.692466 98.4340088,145.712036 L57.7987424,103.638298 C54.9189019,100.653728 49.1687416,98.1990129 45.0222182,98.174176 L13.2620103,98.029294 Z M101.060513,143.000672 C103.940353,145.985242 109.408615,147.069787 113.211561,145.413993 L132.440716,137.039812 C137.002051,134.963019 141.391042,132.526844 145.566199,129.754316 L184.275776,103.125001 C187.692508,100.773773 187.097664,98.8364938 182.951141,98.8157963 L65.3624116,98.2693842 C61.2163022,98.2528262 60.1822586,100.678565 63.0620991,103.663135 L101.060513,143.000672 Z M170.983058,192.927015 C172.838376,196.640134 175.050103,196.35037 175.902423,192.293674 L193.610732,107.599786 C194.463052,103.534811 192.358951,102.135664 188.942633,104.486892 L148.902211,132.035173 C145.485893,134.382262 144.209689,139.341366 146.062109,143.054485 L170.983058,192.927015 Z M206.816106,98.923423 C202.672481,98.906865 198.585152,102.214315 197.732004,106.27515 L178.452347,198.308347 C177.511654,203.230719 176.994534,208.224653 176.906663,213.235335 L176.937295,254.791637 C176.937295,258.939402 179.283142,259.879065 182.14808,256.882077 L240.923817,195.332057 C243.787928,192.335069 246.949667,186.585322 247.949767,182.557602 L264.213394,117.054373 C265.21308,113.026652 264.630241,107.359696 262.918977,104.449637 C261.207713,101.547857 256.4175,99.1552342 252.270977,99.1386763 L206.816106,98.923423 Z M542.11449,212.014186 C538.876169,209.422868 532.833761,207.245498 528.690964,207.175127 L461.119233,206.02021 C456.902846,206.017674 453.371931,209.213436 452.955338,213.409193 L450.495655,242.874056 C450.14918,247.009403 452.421758,252.626685 455.545828,255.354607 L517.841784,309.755735 C520.964199,312.483656 526.797149,313.837268 530.802516,312.761002 L576.265665,300.557796 C580.270618,299.48153 583.141351,295.234417 582.644199,291.115628 L577.339033,246.939031 C576.842295,242.816103 573.787768,237.327144 570.550276,234.735826 L542.11449,212.014186 Z M114.253055,149.073298 C110.450109,150.724953 106.169053,155.270109 104.73679,159.161226 L93.4595882,189.851377 C92.027326,193.742494 91.6626373,200.22493 92.6441094,204.260929 L108.214787,268.046272 C109.291374,272.139759 113.255751,274.784218 117.448739,274.205827 L165.732948,266.597451 C169.831039,265.951692 173.179055,262.027459 173.179055,257.879693 L173.179055,213.289148 C173.179055,209.145522 171.661106,202.712761 169.805788,198.999642 L142.756729,144.87172 C140.830492,141.134014 136.352683,139.507622 132.476729,141.137903 L114.253055,149.073298 Z M429.364406,296.687377 C427.678592,300.537555 429.242224,305.036515 432.952513,307.011255 L467.114037,324.604072 C470.800663,326.504096 477.090198,327.178832 481.095565,326.102566 L511.856087,317.844291 C515.861454,316.772164 516.579241,313.66341 513.45724,310.931349 L454.262588,259.237445 C451.140587,256.509524 447.181169,257.370537 445.469905,261.149888 L429.364406,296.687377 Z M407.494672,319.388319 C404.216199,321.925824 404.553567,325.539596 408.249301,327.418922 L425.000146,335.942124 C428.695879,337.817312 434.994935,338.47549 439.000302,337.403363 L461.121716,331.4632 C465.127083,330.391073 465.387457,327.957056 461.701244,326.057031 L430.696493,310.086894 C427.01235,308.186869 421.30938,308.708445 418.029665,311.24595 L407.494672,319.388319 Z M183.354741,261.083656 C180.49063,264.080644 181.143841,268.124922 184.803561,270.07048 L248.989192,304.142591 C252.650982,306.08401 258.39783,305.690759 261.761991,303.26502 L293.325987,280.501986 C296.706236,277.984955 297.611706,273.306871 295.414772,269.710345 L251.561883,200.249766 C249.347672,196.743622 245.192041,196.325534 242.327517,199.3308 L183.354741,261.083656 Z M117.081566,278.080386 C112.983475,278.726146 107.61125,281.975643 105.135837,285.307929 L83.0665802,315.000464 C80.5911674,318.33275 80.6155904,323.759616 83.124533,327.062926 L109.989798,362.501068 C112.498327,365.808517 116.595591,371.214686 119.104533,374.522136 L130.052646,388.964803 C132.602344,392.277625 137.314298,392.983249 140.722586,390.562645 L246.120942,314.54512 C249.485516,312.119381 249.240045,308.542865 245.578255,306.601446 L181.391382,272.529335 C177.729593,270.587916 171.381691,269.524068 167.286911,270.169828 L117.081566,278.080386 Z M102.044469,283.151257 C104.519881,279.81897 105.740202,273.800157 104.755832,269.764158 L89.0874629,205.573146 C88.1059907,201.541286 84.1163539,197.074781 80.223995,195.642518 L51.0124687,184.908831 C47.1213517,183.476568 40.8736251,183.762193 37.1290459,185.542172 L-1.1235322,203.722795 C-4.86811143,205.502774 -5.88062976,209.662958 -3.37458481,212.970408 L71.6366309,311.916546 C74.1430898,315.219856 78.2184139,315.203298 80.6934127,311.871012 L102.044469,283.151257 Z M358.704204,-237.769967 C357.410615,-236.228836 354.165672,-232.372905 351.497773,-229.198747 L288.774208,-154.588233 C286.110263,-151.372875 286.476564,-146.62415 289.602105,-143.855374 L326.870727,-111.341779 C329.992314,-108.61303 335.484584,-108.085245 339.069793,-110.166165 L373.117895,-129.918137 C376.706002,-131.999471 380.634788,-136.948227 381.846416,-140.914269 L411.882942,-239.114886 C413.094569,-243.080514 412.122204,-248.201472 409.71799,-250.49185 C407.313777,-252.782228 402.111685,-253.622957 398.161787,-252.367451 L368.239511,-242.85367 C364.289199,-241.598164 359.998622,-239.311098 358.704204,-237.769967 L358.704204,-237.769967 Z M-1.94025283,-225.318806 C-3.1667826,-221.352351 -0.808517303,-217.660757 3.30116461,-217.10648 L158.838633,-196.226083 C162.948315,-195.673462 168.413265,-197.881878 170.98637,-201.137584 L179.021526,-211.298367 C181.595045,-214.552003 181.398419,-219.706905 178.583155,-222.75812 L123.845901,-282.086892 C121.03105,-285.138522 115.347949,-287.367635 111.216742,-287.048067 L22.352322,-280.128501 C18.2207008,-279.808933 13.8357431,-276.303202 12.6087994,-272.337574 L-1.94025283,-225.318806 Z M563.687836,-384.595887 C563.67644,-382.673238 564.522918,-380.845635 565.99671,-379.610871 C567.470503,-378.376107 569.418107,-377.862788 571.309044,-378.21073 L610.035179,-384.227473 C614.133271,-384.863298 619.411116,-388.178198 621.766483,-391.595758 L649.99364,-432.542314 C652.349007,-435.95946 650.883629,-438.756097 646.735864,-438.756097 L581.172198,-438.799975 C577.0294,-438.802873 571.162092,-437.012959 568.138197,-434.821515 C565.114303,-432.630071 562.715471,-427.438327 562.811093,-423.290562 L563.687836,-384.595887 Z M252.904732,-298.078142 C248.773939,-297.755676 247.210041,-294.624982 249.433359,-291.123805 L308.156938,-198.58559 C310.38067,-195.07986 314.382725,-194.812863 317.050624,-197.990332 L349.608511,-236.714398 C352.27641,-239.89104 351.54993,-244.232533 347.994112,-246.359401 L267.06757,-294.802566 C263.510096,-296.933574 257.215593,-298.413026 253.085628,-298.090974 L252.904732,-298.078142 Z M965.803322,-341.351502 C965.347978,-337.225677 967.711625,-331.843931 971.05633,-329.391285 L984.513799,-319.515299 C987.858504,-317.062239 993.053559,-317.390914 996.058826,-320.245918 L1039.95808,-361.901568 C1041.39413,-363.213064 1042.19488,-365.080118 1042.15524,-367.024517 C1042.1156,-368.968916 1041.23941,-370.801782 1039.7511,-372.053658 L981.036631,-423.321194 C977.911319,-426.04746 974.984702,-424.90579 974.533498,-420.77955 L965.803322,-341.351502 Z M893.436824,-390.172603 C889.789936,-388.201793 889.620217,-384.689853 893.055991,-382.374639 L955.197958,-340.495457 C958.637871,-338.174033 961.783881,-339.660522 962.197829,-343.785934 L970.228432,-424.598226 C970.638242,-428.724466 967.98897,-430.489957 964.342083,-428.518733 L893.436824,-390.172603 Z M849.23539,-471.501916 C845.116601,-471.983752 840.720467,-469.142409 839.466202,-465.18713 L831.791595,-440.981071 C830.537331,-437.027033 831.493552,-431.037611 833.915151,-427.669725 L857.584734,-394.769502 C860.010473,-391.404514 865.383526,-388.648444 869.527151,-388.648444 L875.152713,-388.648444 C879.296339,-388.648444 885.671148,-390.262844 889.318035,-392.234067 L961.311979,-431.166763 C964.958866,-433.137158 965.389373,-436.983983 962.264061,-439.712732 L943.359027,-456.21645 C940.233715,-458.942715 934.31425,-461.567563 930.195461,-462.049813 L849.23539,-471.501916 Z M740.213742,-431.155586 C740.022866,-435.340941 736.588011,-438.643897 732.398392,-438.670823 L701.041784,-438.572717 C696.817577,-438.483012 693.335996,-435.23211 692.957367,-431.02395 L689.115924,-378.626334 C688.813741,-374.486848 691.632731,-369.656067 695.383106,-367.888093 L736.51718,-348.492116 C740.267555,-346.724142 743.21073,-348.670528 743.057569,-352.817465 L742.598086,-365.45987 C742.449064,-369.606807 742.200695,-376.391425 742.051673,-380.539191 L740.213742,-431.155586 Z M882.843878,-287.61352 C879.196991,-285.645609 876.14619,-280.638486 876.071679,-276.490721 L874.920902,-212.704136 C874.842252,-208.556785 877.243154,-207.497904 880.25256,-210.352908 L982.340569,-307.22682 C985.349976,-310.083065 985.076769,-314.4258 981.732065,-316.878032 L968.907936,-326.28874 C965.567371,-328.7418 959.846601,-329.137534 956.199714,-327.170037 L882.843878,-287.61352 Z M6.76011928,-212.836186 C2.65043737,-213.385909 1.75879204,-211.51155 4.77606354,-208.663998 L88.1287579,-130.105242 C91.1468573,-127.259759 96.5778632,-126.583781 100.199914,-128.607162 L168.996105,-167.001311 C172.647815,-169.121301 174.110193,-173.655799 172.385102,-177.50981 L169.047848,-184.65001 C167.290636,-188.407836 162.494628,-191.935506 158.384946,-192.484402 L6.76011928,-212.836186 Z M666.387247,-438.74285 C662.243621,-438.746162 656.924381,-435.955734 654.569014,-432.538588 L624.93733,-389.540089 C622.581962,-386.123771 621.683693,-380.094196 622.942097,-376.140159 L638.94949,-325.792002 C639.544446,-323.901143 640.881723,-322.332932 642.654859,-321.446754 C644.427994,-320.560577 646.484975,-320.432406 648.354403,-321.091615 L662.205124,-325.934814 C666.116938,-327.304156 670.492375,-331.611291 671.924638,-335.506962 L682.128471,-363.271324 C683.739586,-368.001283 684.798053,-372.901762 685.28276,-377.875017 L689.190435,-431.20526 C689.360385,-433.154226 688.698527,-435.084215 687.368275,-436.518712 C686.038022,-437.953209 684.163352,-438.75852 682.207121,-438.735813 L666.387247,-438.74285 Z M570.739037,-374.30678 C566.644257,-373.670955 561.863564,-370.07043 560.115459,-366.306395 L540.425993,-323.90067 C538.678302,-320.13705 540.640832,-317.149996 544.784458,-317.266316 L629.36244,-319.612163 C633.506066,-319.728482 635.869713,-323.056215 634.611309,-327.010252 L619.560137,-374.34238 C618.301733,-378.296417 613.922157,-381.00985 609.828205,-380.374439 L570.739037,-374.30678 Z M694.480698,-364.176215 C692.726016,-365.028868 690.69054,-365.090797 688.887268,-364.346393 C687.083995,-363.60199 685.684928,-362.122258 685.042669,-360.280131 L675.675012,-334.799938 C674.24275,-330.908821 675.944079,-325.912461 679.450224,-323.699491 L739.25752,-286.0074 C742.763665,-283.793602 745.512284,-285.378198 745.359123,-289.525963 L743.753002,-333.78121 C743.599841,-337.928975 740.404158,-342.754374 736.641365,-344.507447 L694.480698,-364.176215 Z M751.237193,-482.949251 C747.118405,-483.430674 743.873047,-480.43203 744.026208,-476.284679 L745.375681,-439.074837 C745.528842,-434.927072 748.832152,-430.350042 752.719129,-428.907017 L777.738184,-419.593173 C781.629301,-418.150148 787.913041,-418.319039 791.717229,-419.974006 L818.975746,-431.836118 C822.779934,-433.491912 826.91528,-438.080533 828.169545,-442.03457 L835.653736,-465.63585 C836.908,-469.589888 834.56919,-473.218147 830.446262,-473.700397 L751.237193,-482.949251 Z M793.066702,-416.448405 C789.262514,-414.792611 784.37792,-410.54881 782.208829,-407.010377 L765.464607,-379.727851 C764.414266,-378.108287 764.130469,-376.108349 764.688776,-374.260512 C765.247083,-372.412675 766.590829,-370.904485 768.362248,-370.13749 L836.328472,-338.748594 C838.049778,-337.892456 840.063444,-337.849572 841.819639,-338.631651 C843.575833,-339.41373 844.891122,-340.939084 845.406365,-342.791216 L856.711302,-379.222006 C857.940729,-383.184736 856.96795,-389.180368 854.546351,-392.548254 L831.18723,-425.001826 C828.765631,-428.368884 823.674063,-429.769272 819.869875,-428.114306 L793.066702,-416.448405 Z M869.953518,-384.88027 C865.809893,-384.88027 861.409619,-381.63781 860.180191,-377.67508 L848.622746,-340.445783 C847.393319,-336.482225 848.1881,-330.366962 850.398586,-326.852124 L870.98839,-294.052905 C873.285429,-290.515965 877.892186,-289.300512 881.635149,-291.24385 L952.705987,-329.571767 C956.357014,-331.539678 956.530873,-335.048721 953.095099,-337.362694 L888.841994,-380.667929 C885.40622,-382.982729 879.201131,-384.88027 875.057505,-384.88027 L869.953518,-384.88027 L869.953518,-384.88027 Z M403.112198,-96.6834445 C405.118193,-93.0518732 410.149325,-90.1749303 414.293779,-90.2916638 L449.654512,-91.2925916 C453.798137,-91.4122227 457.536507,-94.8844238 457.96246,-99.0102497 L467.414563,-190.468886 C467.84093,-194.594712 465.66977,-200.243869 462.59082,-203.021878 L433.191775,-229.536115 C430.112825,-232.314538 425.272938,-236.680454 422.436562,-239.237415 C419.600186,-241.794375 416.287355,-240.64484 415.07283,-236.674245 L385.468052,-139.861597 C384.256425,-135.89183 384.903426,-129.67515 386.909421,-126.043578 L403.112198,-96.6834445 Z M176.264215,-178.103413 C178.021426,-174.345587 182.477997,-169.719711 186.16421,-167.825068 L187.556733,-167.112663 C191.242945,-165.219262 197.149578,-165.449417 200.676834,-167.625959 L230.075052,-185.76229 C233.601894,-187.939246 234.024949,-192.049756 231.010989,-194.898964 L209.015416,-215.681668 C206.000628,-218.531291 200.302625,-219.832745 196.352727,-218.573928 L194.481679,-217.975358 C190.531782,-216.71654 185.19557,-213.026602 182.619568,-209.772552 L174.001157,-198.871215 C171.424741,-195.617165 170.759526,-189.879423 172.517152,-186.121597 L176.264215,-178.103413 Z M-20.1573037,-172.448875 C-21.4976694,-168.51926 -22.2643022,-161.927956 -21.8623581,-157.798819 L-14.6857309,-84.4185608 C-14.2837868,-80.2898372 -10.7635677,-75.7521324 -6.86872512,-74.337256 L71.3911593,-45.9279622 C75.2860019,-44.5126719 80.8399506,-45.7901173 83.7268282,-48.7676497 L117.431353,-83.4888322 C118.817812,-84.9158181 119.573835,-86.8393739 119.530027,-88.8285041 C119.486218,-90.8176343 118.64624,-92.7060397 117.1983,-94.0706008 L-1.47414669,-205.912481 C-4.49224608,-208.758792 -8.05841345,-207.874184 -9.39877909,-203.944569 L-20.1573037,-172.448875 Z M181.631058,-225.011243 C184.445909,-221.965823 189.97916,-220.499203 193.929058,-221.757192 L195.401473,-222.227438 C199.351371,-223.485428 203.786003,-227.686179 205.258832,-231.569017 L227.132705,-289.22792 C228.604292,-293.105377 226.424439,-296.016677 222.293231,-295.69297 L131.030393,-288.589197 C126.899186,-288.269629 125.81464,-285.513559 128.632389,-282.462758 L181.631058,-225.011243 Z M245.164307,-290.781469 C242.949682,-294.290512 239.520945,-297.034577 237.547652,-296.881416 C235.574359,-296.728255 232.751229,-293.427843 231.282126,-289.547074 L208.904891,-230.556084 C207.435788,-226.67573 208.697917,-221.171041 211.711049,-218.322661 L234.865265,-196.446304 C237.880053,-193.597096 243.734528,-191.150659 247.878154,-191.0124 L301.900519,-189.179436 C306.043316,-189.037866 307.620047,-191.795177 305.409147,-195.305876 L245.164307,-290.781469 Z M247.606604,-187.24878 C243.463806,-187.386624 237.185861,-185.722965 233.656535,-183.546423 L203.910187,-165.194425 C200.383345,-163.017883 200.033558,-158.985196 203.140657,-156.23906 L242.678131,-121.230184 C244.160187,-119.912165 246.112877,-119.2506 248.090859,-119.396369 C250.068842,-119.542138 251.903453,-120.482811 253.176282,-122.003854 L301.496919,-179.484759 C304.164818,-182.659331 302.959399,-185.372764 298.816601,-185.511023 L247.606604,-187.24878 Z M40.8632764,13.3664522 C36.7813291,12.6424561 31.7121143,13.8329723 29.5960089,16.0099281 C27.4799036,18.1868839 27.041118,23.1103888 28.6145367,26.9514181 L52.3888479,84.9567965 C53.9618526,88.7982397 58.6419558,91.9525282 62.7855814,91.9732256 L101.378425,92.1512235 C105.524535,92.1677815 107.785108,88.9845166 106.402106,85.0685626 L86.242808,28.0964 C84.8593917,24.1849994 80.3883326,20.3907464 76.3080411,19.6663363 L40.8632764,13.3664522 Z M43.6367322,91.8821569 C47.7832555,91.9028544 49.8873564,88.7775423 48.3143516,84.9360991 L25.7541518,29.901216 C24.181147,26.0610146 20.5280504,25.3548183 17.6407588,28.3282112 L-38.4153356,86.0703183 C-41.304697,89.0424694 -40.2781044,91.4930452 -36.1311671,91.5096032 L43.6367322,91.8821569 Z M444.67471,90.673427 C444.248343,94.8004947 447.275549,97.8637145 451.403445,97.4828818 L489.953652,93.9270631 C494.081547,93.5462304 495.047289,90.8472854 492.103701,87.9206686 L454.697234,50.8383233 C451.753231,47.915432 448.993022,48.9043553 448.566241,53.0297673 L444.67471,90.673427 Z M123.740344,2.49616145 C119.677438,1.68275241 113.515813,2.88610105 110.053133,5.16695795 L93.7042319,15.9362453 C90.2419656,18.2171022 88.5398089,23.2825915 89.9228112,27.193578 L110.409128,85.0933995 C111.792545,89.005214 116.315761,92.2174553 120.462285,92.2340133 L162.379964,92.4327086 C166.52359,92.4492665 170.853492,89.2039094 171.99806,85.2134446 L184.152419,42.9356301 C185.29616,38.948477 184.308892,32.8915808 181.953524,29.4773326 L173.955209,17.8797341 C171.599842,14.4654858 166.346006,11.0081869 162.281858,10.1951919 L123.740344,2.49616145 Z M412.981147,121.446367 C409.408771,123.549226 407.589881,128.483494 408.939353,132.403587 L422.819464,172.788415 C424.169351,176.708508 426.958951,179.92075 429.020829,179.92075 C431.082707,179.92075 435.537622,177.962773 438.92041,175.56601 L537.635565,105.683204 C541.021665,103.290581 544.27199,99.9210392 544.861039,98.1990129 C545.450088,96.4769866 542.557829,95.3883018 538.429933,95.7691345 L453.514996,103.605182 C449.387101,103.986015 444.964888,104.391684 443.689098,104.511729 C442.413308,104.631774 438.444783,106.444869 434.871992,108.551868 L412.981147,121.446367 Z M175.914842,85.2341421 C174.76779,89.2204673 177.221264,92.4989404 181.367373,92.5196378 L249.935893,92.8383782 C254.082416,92.8590757 256.566522,89.6054395 255.455897,85.6066958 L239.462992,28.0285124 C238.955129,26.1280229 237.679304,24.5245901 235.941488,23.6027545 C234.203672,22.6809189 232.160622,22.523833 230.302309,23.1691695 L196.97158,34.4078746 C193.042794,35.7325102 188.890475,40.0789707 187.746735,44.0686075 L175.914842,85.2341421 Z M258.980256,74.8150553 C260.090052,78.8096595 264.359104,81.6203706 268.465475,81.053261 L351.954358,69.5661868 C356.060728,69.0023888 356.661782,66.5650593 353.288514,64.1525667 L238.036525,-18.2898546 C234.663258,-20.7027611 232.810838,-19.4075159 233.920634,-15.4071164 L258.980256,74.8150553 Z M831.770898,-23.4480684 C827.631411,-23.6256523 821.165534,-22.339514 817.40688,-20.5918229 L771.711092,0.70707551 C767.948299,2.45766423 763.858487,7.12948837 762.612501,11.0868372 L724.92248,130.894745 C723.676494,134.852094 726.002885,137.526202 730.092698,136.834907 L760.012904,131.801292 C764.098577,131.109998 770.382317,128.858118 773.979531,126.792514 L938.192949,32.3186759 C941.786023,30.2526583 942.133739,26.372304 938.967033,23.6948843 L891.652705,-16.2598506 C888.485998,-18.9368563 882.504441,-21.2686289 878.364954,-21.4482826 L831.770898,-23.4480684 Z M520.669881,-95.1327929 C516.870247,-93.4695474 515.622192,-89.2696247 517.894356,-85.7970097 L555.736297,-27.9729407 C558.009289,-24.5003258 562.96177,-23.0469522 566.743605,-24.7495228 L590.343643,-35.3432959 C594.122994,-37.0404853 599.115215,-41.2470312 601.429187,-44.6886 L639.201999,-100.793954 C641.515972,-104.235523 643.829945,-110.41826 644.339101,-114.537048 L644.67026,-117.230198 C645.179417,-121.346089 642.455635,-126.000528 638.622471,-127.566081 L622.900702,-133.988494 C619.059259,-135.556946 612.812775,-135.478709 609.012726,-133.816292 L520.669881,-95.1327929 Z M761.532096,-113.668584 C757.462981,-114.457984 752.640479,-114.584239 750.819105,-113.951725 C748.997731,-113.319212 749.780094,-110.28621 752.561829,-107.209744 L819.66704,-33.1174942 C822.452914,-30.041856 828.119871,-27.383064 832.259357,-27.2050661 L873.654219,-25.425087 C877.793705,-25.2470891 878.592626,-27.2915813 875.42178,-29.9685871 L786.468361,-105.088671 C783.297514,-107.765677 777.373909,-110.599155 773.304794,-111.388555 L761.532096,-113.668584 Z M648.110173,-114.31393 C647.601017,-110.196797 649.045697,-103.989638 651.322415,-100.520334 L676.573281,-62.027252 C678.849998,-58.5612602 682.260935,-58.7388441 684.156819,-62.4287821 L700.474674,-94.1840227 C701.393949,-95.9020416 701.533306,-97.9315349 700.857492,-99.7590824 C700.181678,-101.58663 698.755427,-103.037172 696.939553,-103.743752 L656.19459,-120.390696 C652.353147,-121.959561 648.797328,-119.87533 648.288171,-115.754471 L648.110173,-114.31393 Z M601.992158,83.5866266 C606.123365,83.2057938 611.049353,79.8735074 612.945238,76.1810857 L647.787294,8.36885054 C649.643946,4.5215111 648.481461,-0.103157414 645.026256,-2.61527612 L604.500686,-30.5021668 C601.081471,-32.853395 595.195121,-33.3878027 591.411631,-31.6873017 L567.857954,-21.11464 C564.076948,-19.4141391 560.776949,-14.637172 560.525268,-10.495616 L559.508611,6.2775821 C559.257344,10.4170683 560.088139,17.0402463 561.355235,20.9913858 L579.725447,78.2458615 C580.994614,82.1949313 585.408548,85.1174086 589.53603,84.7365758 L601.992158,83.5866266 Z M763.436259,-7.64061238 C764.160669,-3.55452554 767.828254,-1.6453945 771.586908,-3.39474138 L813.917294,-23.1222908 C817.675947,-24.8720516 818.470728,-28.8194657 815.688994,-31.8980016 L750.438273,-103.934169 C747.652398,-107.010635 745.967627,-106.181496 746.692038,-102.095409 L763.436259,-7.64061238 Z M459.238664,22.0974566 C455.099178,22.3553465 451.365361,25.9471787 450.939822,30.0730046 L450.614458,33.204526 C450.187677,37.3332495 452.249142,43.097898 455.193144,46.0183055 L497.001955,87.4694646 C499.945957,90.3919419 505.732959,92.4658245 509.860855,92.0849918 L570.682326,86.4801274 C574.810221,86.0992947 577.150687,82.551755 575.88359,78.6026852 L558.110292,23.2080807 C556.840298,19.2565272 552.418085,16.236358 548.280668,16.4971457 L459.238664,22.0974566 Z M717.620426,-102.425326 C713.704472,-101.068816 708.948202,-96.9359531 707.052318,-93.2460151 L637.165372,42.7948876 L630.268988,56.2163437 L618.454894,79.2111896 C616.55901,82.8994719 616.467941,88.9845166 618.252059,92.7307516 L650.06815,159.471688 C651.922094,163.242158 656.370306,164.944538 660.267844,163.375223 L711.448452,141.96994 C715.273337,140.367959 719.421102,135.822803 720.667088,131.865454 L759.127054,9.60324533 C760.373039,5.64589651 760.799407,-0.935886566 760.074996,-5.0219734 L742.668457,-103.234595 C741.939907,-107.320682 738.143999,-109.552693 734.228045,-108.18956 L717.620426,-102.425326 Z M504.201763,-98.2775606 C507.943031,-96.4876468 514.10714,-96.3804341 517.907188,-98.0445075 L604.14883,-135.804487 C607.948878,-137.468146 607.915762,-140.109552 604.074319,-141.676762 L565.875554,-157.282625 C562.039079,-158.848179 555.758236,-161.41466 551.921346,-162.980214 L481.15683,-191.892455 C477.317456,-193.458423 473.827041,-191.364671 473.400674,-187.238431 L466.868565,-124.035514 C466.442198,-119.909274 469.153561,-115.064833 472.891931,-113.272849 L504.201763,-98.2775606 Z M474.37304,-209.953447 C470.51835,-208.433842 468.668828,-206.008931 470.269567,-204.56632 C471.870306,-203.123709 476.31777,-200.658231 480.157144,-199.089366 L605.519,-147.883921 C609.356304,-146.315056 614.551359,-147.733658 617.064027,-151.033657 L696.666347,-255.674901 C699.179015,-258.974899 697.995122,-262.686362 694.037773,-263.920343 L654.936186,-276.104921 C650.978837,-277.338902 644.587471,-277.102537 640.72947,-275.582932 L474.37304,-209.953447 Z M405.059827,-47.6967646 C404.805248,-43.5572784 407.859775,-41.0901447 411.848584,-42.2169128 L446.050261,-51.899171 C450.039898,-53.0259392 453.652841,-57.3268654 454.080864,-61.4531052 L456.022283,-80.2223636 C456.275696,-82.1282116 455.665479,-84.0477316 454.358064,-85.4573917 C453.05065,-86.8670519 451.182419,-87.6198045 449.262916,-87.510343 L414.969343,-86.5400474 C410.736757,-86.3342373 407.314478,-83.0189826 406.974339,-78.7950687 L405.059827,-47.6967646 Z M712.839319,-260.790892 C708.691554,-260.790892 703.24399,-258.089877 700.735462,-254.788637 L620.677798,-149.555446 C618.16513,-146.255034 619.249676,-142.26995 623.091119,-140.704397 L676.457375,-118.902137 C680.294679,-117.336169 686.578419,-114.769688 690.411583,-113.200822 L701.39364,-108.719001 C705.230944,-107.150135 711.576776,-106.980416 715.49273,-108.341479 L743.554307,-118.085416 C747.470261,-119.44234 750.554178,-123.948998 750.401017,-128.096763 L745.851722,-253.251645 C745.657367,-257.43765 742.230773,-260.744939 738.040511,-260.790892 L712.839319,-260.790892 L712.839319,-260.790892 Z M452.883725,11.2611096 C452.457772,15.3898331 455.494085,18.5548843 459.631087,18.2940966 L547.848506,12.7434596 C552.099558,12.3685196 555.466,8.99229919 555.828607,4.74017693 L556.794349,-11.2382398 C557.045616,-15.3777261 555.392719,-21.6084807 553.123453,-25.0802678 L513.807027,-85.1591148 C511.536933,-88.6309019 506.617981,-92.9380373 502.878783,-94.7279512 L472.480053,-109.293975 C468.740855,-111.087201 465.33116,-109.174758 464.904793,-105.046034 L452.883725,11.2611096 Z M757.483678,-309.142574 C753.460097,-308.129228 750.29753,-303.908608 750.450691,-299.760843 L756.676478,-128.504089 C756.8255,-124.356738 760.277831,-120.319911 764.346946,-119.530925 L773.714604,-117.713276 C777.783718,-116.92429 783.578999,-118.616098 786.584266,-121.471102 L795.931226,-130.339951 C798.940632,-133.196197 803.862482,-137.867607 806.871888,-140.72261 L865.482873,-196.332468 C868.48814,-199.188714 871.009087,-204.919004 871.087738,-209.066356 L872.313026,-277.098811 C872.387536,-281.246163 870.644813,-287.514587 868.438466,-291.029838 L847.476108,-324.421004 C845.269762,-327.936256 840.174055,-329.980748 836.154614,-328.967816 L757.483678,-309.142574 Z M752.868151,-424.825898 C748.977034,-426.27182 745.922093,-424.061335 746.075254,-419.913569 L748.020813,-366.497225 C748.169834,-362.350288 750.069858,-361.849824 752.243089,-365.386187 L778.106598,-407.536092 C780.275689,-411.072455 778.872403,-415.146123 774.989565,-416.592046 L752.868151,-424.825898 Z M752.487318,-358.589151 C750.318227,-355.052788 748.666572,-348.768634 748.815594,-344.620869 L749.759397,-318.69568 C749.908418,-314.547915 753.319355,-311.984745 757.342936,-312.998092 L831.385925,-331.656412 C835.409506,-332.669758 835.61648,-334.919983 831.849548,-336.660223 L766.371155,-366.902895 C762.460325,-368.596358 757.89838,-367.215171 755.583654,-363.63684 L752.487318,-358.589151 Z M668.977756,-313.027555 C665.869512,-310.279895 651.542994,-286.44921 651.542994,-286.44921 C650.472814,-282.439113 652.985311,-278.99068 657.129354,-278.783367 L739.246866,-263.894605 C743.390909,-263.687291 745.223721,-270.559965 742.130183,-273.325509 L684.685638,-316.918787 C681.440814,-319.68167 676.674384,-319.694617 673.414598,-316.949403 L668.977756,-313.027555 Z M213.949683,-61.8889931 C212.815464,-65.8798718 210.453887,-66.0698742 208.705782,-62.3062533 L176.5279,3.25575717 C174.632843,6.94900677 175.006639,12.7600175 177.362006,16.1771634 L184.756371,26.8984327 C187.111738,30.311439 192.252152,32.0218747 196.181352,30.6955834 L229.294345,19.5305612 C233.258089,18.1377476 235.474105,13.9210132 234.37308,9.86651665 L213.949683,-61.8889931 Z M132.163784,-6.56310412 C129.630005,-3.27800786 130.887167,0.0741480689 134.9509,0.887971058 L162.733062,6.43819417 C166.800107,7.25160321 171.654897,4.88464499 173.52553,1.18104668 L204.887106,-63.0637793 C206.644318,-66.8216049 204.752159,-70.5521099 200.682216,-71.3497888 L191.917268,-73.0718151 C187.85105,-73.870322 182.45316,-71.8353506 179.920209,-68.5502543 L132.163784,-6.56310412 Z M115.997849,-9.97362681 C116.847685,-5.91237689 118.87148,-2.32675393 120.491261,-2.00097637 C122.111042,-1.6751988 125.505421,-4.10093772 128.038372,-7.38603398 L175.783206,-69.3611797 C178.316158,-72.645448 177.058996,-75.989325 172.989467,-76.787004 L171.142842,-77.1521067 C167.073313,-77.9506136 160.418261,-79.2582773 156.348319,-80.0567841 L135.622325,-84.1287967 C131.556108,-84.9273036 125.8639,-83.1464967 122.975367,-80.1714479 L110.379738,-67.1925028 C107.490377,-64.2174541 105.826303,-58.4614985 106.675312,-54.4014905 L115.997849,-9.97362681 Z M103.07727,-125.896213 C99.4585316,-123.876143 98.9646909,-119.893958 101.98279,-117.048475 L123.174476,-97.0791793 C126.192161,-94.2328686 131.98827,-91.2520246 136.058213,-90.451034 L185.066418,-80.8238309 C189.133463,-80.0228404 192.460782,-82.7640081 192.460782,-86.9150849 L192.460782,-152.813222 C192.460782,-156.960987 189.442683,-161.906431 185.754815,-163.797762 L184.772928,-164.301124 C181.083404,-166.192455 175.103503,-166.08814 171.481452,-164.068071 L103.07727,-125.896213 Z M41.8666879,3.37166278 C38.9773265,6.34919522 39.9525895,9.37640148 44.0345368,10.1008116 L77.3102107,16.0132397 C81.392158,16.7405474 87.5653738,15.4668275 91.0276401,13.1859706 L107.554953,2.29415452 C111.017633,0.0132976216 113.155264,-5.17513439 112.302115,-9.23638432 L103.509433,-51.1404032 C102.660424,-55.2020671 99.5967905,-56.089159 96.7074291,-53.1145242 L41.8666879,3.37166278 Z M316.687177,-47.5953472 C313.224497,-49.8720646 307.142764,-50.7570868 303.177964,-49.5537382 L238.482762,-29.9491315 C234.514651,-28.7457828 234.029503,-25.7893618 237.403184,-23.3764553 L359.041572,63.6276799 C362.411942,66.0397585 368.469252,68.8061771 372.502354,69.7731611 L399.039358,76.1355514 C403.069148,77.1041912 405.421618,74.6370574 404.262148,70.6507322 L384.582202,2.94446781 C383.423146,-1.04020162 379.641726,-6.16240186 376.179045,-8.44491455 L316.687177,-47.5953472 Z M389.880331,-11.7887915 C387.813485,-8.19364774 387.070861,-1.98938581 388.230332,1.99569757 L408.69057,72.3727584 C409.849626,76.3590836 412.855721,82.3158043 415.367147,85.6149748 L425.064308,98.3397554 C427.576148,101.643065 431.385303,103.307139 433.525831,102.048735 C435.66636,100.790331 437.767563,96.377639 438.19393,92.2505712 L452.111297,-42.4139523 C452.537664,-46.5393643 449.623879,-48.9920099 445.633415,-47.862758 L411.05877,-38.0757708 C407.068305,-36.9456911 402.11541,-33.0777551 400.047737,-29.4830253 L389.880331,-11.7887915 Z M201.872732,-152.324762 C198.768117,-155.073381 196.226887,-153.927985 196.226887,-149.778564 L196.226887,-86.1770145 C196.226887,-82.0271796 199.555034,-77.9779342 203.622493,-77.1781854 L206.412921,-76.6297035 C210.48038,-75.8299548 215.99252,-77.7734436 218.661246,-80.9484295 L241.04469,-107.574019 C243.710092,-110.796615 243.360054,-115.547782 240.251151,-118.344962 L201.872732,-152.324762 Z M-20.1817267,51.114013 C-20.388701,55.2588806 -18.1947733,56.2163437 -15.305412,53.2383974 L70.3405577,-34.9777793 C73.2299191,-37.9528281 72.4045056,-41.5446602 68.509663,-42.9599506 L-6.87327855,-70.3248521 C-10.7681211,-71.7401424 -14.12897,-69.5081314 -14.3342885,-65.3636778 L-20.1817267,51.114013 Z M371.606569,73.4366064 C367.573467,72.4679666 360.915932,72.1368077 356.809561,72.7039173 L269.483788,84.7249853 C265.377418,85.2962344 262.580367,87.7923446 263.270833,90.2760363 C263.9613,92.759728 266.251263,97.722972 268.355778,101.299488 L307.408519,167.585081 C309.531783,171.162337 314.140668,172.361057 317.737779,170.271607 L420.145356,110.203523 C421.831699,109.274792 423.018824,107.645467 423.386076,105.755646 C423.753328,103.865826 423.262817,101.910483 422.047036,100.417777 L412.594933,88.1442009 C410.064879,84.8574488 404.694724,81.3761409 400.664934,80.4075012 L371.606569,73.4366064 Z M605.800485,-43.6280636 C603.514755,-40.1312501 604.409776,-35.4522484 607.824694,-33.0458811 L646.777259,-6.02207327 C648.324502,-4.88137824 650.300127,-4.49079416 652.165037,-4.95690152 C654.029947,-5.42300887 655.589496,-6.69715885 656.418122,-8.4316682 L675.2859,-45.1600875 C677.181785,-48.8500255 676.871324,-54.7073985 674.594606,-58.1733903 L649.34374,-96.6610912 C647.071162,-100.129567 643.333206,-100.13826 641.035792,-96.6822026 L605.800485,-43.6280636 Z M340.335234,-106.538319 C336.748369,-104.4574 332.47021,-99.6377958 330.830974,-95.8269848 L316.028171,-61.4373752 C314.387693,-57.6269781 315.879564,-52.6434507 319.343486,-50.3646635 L377.15555,-12.316576 C378.784734,-11.2205792 380.798056,-10.8559232 382.708152,-11.3108801 C384.618247,-11.765837 386.251007,-12.9989365 387.21119,-14.7116827 L396.943536,-31.6496324 C399.010795,-35.246432 400.909992,-41.5781901 401.165812,-45.719746 L403.287299,-80.1983546 C403.542705,-84.3378408 402.110443,-90.6998171 400.10569,-94.3318023 L384.148798,-123.234523 C383.192203,-124.975213 381.573575,-126.256161 379.659644,-126.787146 C377.745714,-127.318131 375.698489,-127.054206 373.981806,-126.055169 L340.335234,-106.538319 Z M223.341349,-76.7518184 C220.672623,-73.5768324 219.396833,-67.7078689 220.507457,-63.7124368 L227.523058,-38.4541198 C228.049691,-36.5407645 229.327361,-34.9215192 231.065758,-33.96431 C232.804154,-33.0071008 234.855653,-32.7932124 236.754113,-33.3712447 L302.093419,-53.1654399 C306.061116,-54.3658909 310.649323,-58.4689496 312.289387,-62.2801746 L327.071906,-96.6288032 C328.711971,-100.440028 327.497032,-105.788658 324.372547,-108.515338 L287.175124,-140.96891 C285.678639,-142.277131 283.718565,-142.927935 281.736798,-142.774599 C279.75503,-142.621263 277.918396,-141.676694 276.64096,-140.153845 L223.341349,-76.7518184 Z" fill-opacity="0.219999999" fill="#FFFFFF" style="mix-blend-mode: soft-light;" opacity="0.65" mask="url(#mask-2)"></path>
                    </g>
                </g>
            </g>
        </g>
    </g>
</svg>