<?xml version="1.0" encoding="UTF-8" standalone="no"?>
<svg width="42px" height="42px" viewBox="0 0 42 42" version="1.1" xmlns="http://www.w3.org/2000/svg" xmlns:xlink="http://www.w3.org/1999/xlink">
    <!-- Generator: sketchtool 39.1 (31720) - http://www.bohemiancoding.com/sketch -->
    <title>6DDF9ABE-6598-4738-9E0D-CA02A22F6698</title>
    <desc>Created with sketchtool.</desc>
    <defs></defs>
    <g id="Event-Details" stroke="none" stroke-width="1" fill="none" fill-rule="evenodd">
        <g id="11---Event-Details" transform="translate(-609.000000, -360.000000)">
            <g id="Social-links" transform="translate(610.000000, 360.000000)">
                <g id="Tw" transform="translate(0.000000, 1.000000)">
                    <path d="M20.1409524,0.357 C14.6819048,0.357 10.02,2.28985714 6.15428571,6.15509524 C5.78190476,6.52795238 5.42571429,6.90080952 5.08666667,7.29080952 C1.93333333,10.9189048 0.357142857,15.2079524 0.357142857,20.1408095 C0.357142857,25.074619 1.93333333,29.3636667 5.08666667,32.9912857 C5.42571429,33.3817619 5.78190476,33.754619 6.15428571,34.1274762 C10.02,37.9927143 14.6819048,39.9255714 20.1409524,39.9255714 C25.5995238,39.9255714 30.2619048,37.9927143 34.1271429,34.1274762 C37.992381,30.2622381 39.9252381,25.5998571 39.9252381,20.1408095 C39.9252381,14.6822381 37.992381,10.0203333 34.1271429,6.15509524 C30.2619048,2.28985714 25.5995238,0.357 20.1409524,0.357 L20.1409524,0.357 Z" id="Stroke-1" stroke="#2FA7DF" stroke-width="1.499" stroke-linecap="round" stroke-linejoin="round"></path>
                    <path d="M29.838,14.3602381 C30.5841905,13.597381 31.1775238,12.9021429 31.618,12.2578571 C30.9232381,12.4783333 30.2113333,12.6816667 29.4651429,12.9021429 C29.2108571,12.9530952 28.9394286,13.0040476 28.685619,13.0378571 C28.6175238,12.9702381 28.5494286,12.9021429 28.4818095,12.8345238 C27.5494286,11.8854762 26.4137143,11.4107143 25.0741905,11.427381 C23.7351429,11.4107143 22.5989524,11.8854762 21.6665714,12.8345238 C20.7175238,13.7669048 20.2427619,14.9030952 20.2594286,16.2421429 C20.2594286,16.5983333 20.2937143,16.937381 20.3613333,17.2764286 C16.428,17.3269048 13.1051429,15.7164286 10.3927619,12.445 C9.35895238,14.7502381 9.79942857,16.8864286 11.6818095,18.8697619 C10.9689524,18.8864286 10.3251429,18.7169048 9.74895238,18.3611905 C9.73180952,18.3440476 9.71514286,18.3440476 9.698,18.327381 C9.71514286,18.6159524 9.74895238,18.8864286 9.79942857,19.1411905 C10.1551429,20.9554762 11.3932381,22.277381 13.5294286,23.1083333 C12.5289524,23.5488095 11.5794286,23.5316667 10.6984762,23.0569048 C11.630381,24.972619 13.325619,26.1254762 15.7670476,26.532619 C14.0546667,27.9054762 12.1051429,28.5840476 9.91847619,28.5497619 C11.935619,29.787381 14.2241905,30.3978571 16.750381,30.3978571 L17.3946667,30.3807143 C20.8189524,30.1945238 23.7351429,28.9059524 26.1589524,26.4816667 C28.7699048,23.8878571 30.0751429,20.7345238 30.0751429,17.0559524 C30.0751429,16.6659524 30.0584762,16.2930952 30.0413333,15.9197619 C30.8722857,15.4621429 31.6013333,14.7502381 32.245619,13.8011905 C31.4994286,14.1569048 30.7022857,14.3435714 29.838,14.3602381" id="Fill-3" fill="#2FA7DF"></path>
                </g>
            </g>
        </g>
    </g>
</svg>