<?xml version="1.0" encoding="utf-8"?>
<!-- Generator: Adobe Illustrator 16.0.3, SVG Export Plug-In . SVG Version: 6.00 Build 0)  -->
<!DOCTYPE svg PUBLIC "-//W3C//DTD SVG 1.1//EN" "http://www.w3.org/Graphics/SVG/1.1/DTD/svg11.dtd">
<svg version="1.1" id="Layer_1" xmlns="http://www.w3.org/2000/svg" xmlns:xlink="http://www.w3.org/1999/xlink" x="0px" y="0px"
	 width="245px" height="246px" viewBox="0 0 245 246" enable-background="new 0 0 245 246" xml:space="preserve">
<g>
	<path fill="#26A6D1" stroke="#FFFFFF" stroke-width="5" stroke-miterlimit="10" d="M123.527,6
		c64.36,0,116.528,52.176,116.528,116.527c0,64.36-52.168,116.527-116.528,116.527C59.168,239.054,7,186.887,7,122.527
		C7,58.176,59.168,6,123.527,6L123.527,6z M123.527,6"/>
	<path fill="#FFFFFF" stroke="#FFFFFF" stroke-width="5" stroke-miterlimit="10" d="M196.379,84.504
		c-5.09,2.199-10.566,3.675-16.313,4.347c5.871-3.418,10.371-8.812,12.488-15.257c-5.488,3.168-11.563,5.46-18.039,6.691
		c-5.18-5.352-12.555-8.695-20.727-8.695c-15.672,0-28.391,12.332-28.391,27.55c0,2.164,0.25,4.27,0.738,6.286
		c-23.598-1.149-44.532-12.125-58.528-28.797c-2.445,4.074-3.843,8.8-3.843,13.851c0,9.559,5.007,18.004,12.629,22.938
		c-4.665-0.149-9.032-1.379-12.872-3.453v0.347c0,13.36,9.789,24.496,22.782,27.028c-2.383,0.629-4.887,0.968-7.481,0.968
		c-1.828,0-3.604-0.164-5.336-0.491c3.61,10.952,14.098,18.918,26.532,19.141c-9.723,7.397-21.965,11.797-35.274,11.797
		c-2.293,0-4.551-0.133-6.781-0.387c12.578,7.824,27.496,12.391,43.539,12.391c52.234,0,80.797-42.012,80.797-78.426l-0.078-3.567
		C187.758,94.89,192.57,90.039,196.379,84.504L196.379,84.504z M196.379,84.504"/>
</g>
</svg>
