<?xml version="1.0" encoding="utf-8"?>
<!-- Generator: Adobe Illustrator 21.1.0, SVG Export Plug-In . SVG Version: 6.00 Build 0)  -->
<svg version="1.1" id="Layer_1" xmlns="http://www.w3.org/2000/svg" xmlns:xlink="http://www.w3.org/1999/xlink" x="0px" y="0px"
	 viewBox="0 0 24 24" style="enable-background:new 0 0 24 24;" xml:space="preserve">
<polygon points="10.8,16.4 7.3,12.8 7.7,12.5 11.1,15.9 16.3,9.1 16.7,9.4 11.5,16.3 "/>
<path d="M11.8,0.1c-3.1,0-5.9,1.2-8,3.2c-2.2,2.1-3.7,5-3.8,8.3c0,0,0,0,0,0.1l0,0c0,0,0,0,0,0s0,0.1,0,0.1
	c-0.2,6.6,5,12.1,11.6,12.4c6.6,0.3,12.2-4.9,12.4-11.5C24.2,6,19.1,0.4,12.4,0.1C12.2,0.1,12,0.1,11.8,0.1L11.8,0.1z M11.8,0.5
	c0.2,0,0.4,0,0.6,0c6.4,0.2,11.4,5.6,11.2,12.1C23.4,19,18,24,11.5,23.8c-6.4-0.2-11.4-5.6-11.2-12v0c0,0,0,0,0,0v0
	c0.1-3.2,1.6-6,3.7-8.1C6.1,1.7,8.9,0.5,11.8,0.5L11.8,0.5z"/>
</svg>
