<svg xmlns="http://www.w3.org/2000/svg" width="30" height="31" viewBox="0 0 30 31">
    <g fill="none" fill-rule="nonzero">
        <path fill="#4C80C4" d="M1.879 3.798H28.12A1.89 1.89 0 0 1 30 5.698v22.79a1.89 1.89 0 0 1-1.879 1.9H1.88A1.89 1.89 0 0 1 0 28.487V5.698c0-1.05.841-1.9 1.879-1.9z"/>
        <path fill="#F5F6F6" d="M2.348 28.488a.472.472 0 0 1-.47-.475V6.173c0-.263.211-.475.47-.475h25.304c.259 0 .47.212.47.474v17.093l-5.167 5.223H2.348z"/>
        <path fill="#3B70B3" d="M10.303 5.698h-.94v-.95c0-.525.421-.95.94-.95v1.9z"/>
        <path fill="#CECECE" d="M28.121 23.265h-4.697c-.259 0-.47.213-.47.475v4.748l5.167-5.223z"/>
        <path fill="#659BDE" d="M.47 5.223c.259 0 .47.213.47.475v15.668c0 .262-.211.475-.47.475a.472.472 0 0 1-.47-.475V5.698c0-.262.21-.475.47-.475z"/>
        <g fill="#E9E9E9">
            <path d="M22.485 24.215v.95c0 .262-.21.474-.47.474s-.47.213-.47.475-.21.475-.47.475h-.469c-.26 0-.47.213-.47.475s-.21.475-.47.475H1.88v.474c0 .262.21.475.47.475h20.606V23.74c-.26 0-.47.213-.47.475zM27.652 5.698H9.364c.007.142.007.285 0 .427a.945.945 0 0 0 .89.996l15.988.001c.52 0 .94.425.94.95v1.424c0 .525.42.95.94.95V6.172a.472.472 0 0 0-.47-.474z"/>
        </g>
        <path fill="#78ACF0" d="M18.095 2.678a1.461 1.461 0 0 1-.84-.95A2.345 2.345 0 0 0 14.342.114a2.36 2.36 0 0 0-1.597 1.614c-.122.43-.432.78-.84.95l-1.01.408a.95.95 0 0 0-.592.879v1.733c0 .524.42.95.94.95h7.515c.519 0 .939-.426.939-.95V3.965a.95.95 0 0 0-.592-.879l-1.01-.408zM15 3.324a.944.944 0 0 1-.94-.95c0-.525.421-.95.94-.95.519 0 .94.425.94.95 0 .525-.421.95-.94.95z"/>
        <path fill="#3068AF" d="M18.288 3.798c-.26 0-.47.213-.47.475s-.21.475-.47.475h-.939c-.26 0-.47.213-.47.475s-.21.475-.47.475h-5.166c0 .524.42.95.94.95h7.515c.519 0 .939-.426.939-.95v-1.9h-1.41z"/>
        <path fill="#8DBFFF" d="M13.182 2.374a.472.472 0 0 1-.47-.593A2.353 2.353 0 0 1 15 0c.26 0 .47.212.47.474S15.26.95 15 .95c-.643-.001-1.206.438-1.367 1.068a.47.47 0 0 1-.45.356z"/>
        <path fill="#3C70B4" d="M28.121 4.748h-1.879a.944.944 0 0 1-.939-.95h-5.606v1.9h7.955c.259 0 .47.212.47.474v17.093l-5.167 5.223H2.348c0 .525.42.95.94.95h20.766c.498 0 .976-.2 1.329-.556l3.128-3.162c.352-.356.55-.84.55-1.344V5.698c0-.524-.42-.95-.94-.95z"/>
        <ellipse cx="15" cy="15.669" fill="#598DD1" rx="6.106" ry="6.172"/>
        <path fill="#376BAF" d="M20.167 14.719a.944.944 0 0 0-.94.95c0 2.36-1.892 4.273-4.227 4.273a.944.944 0 0 0-.94.95c0 .524.421.949.94.949 3.372 0 6.106-2.763 6.106-6.172 0-.525-.42-.95-.94-.95z"/>
        <path fill="#7DB2F5" d="M9.833 16.618c.52 0 .94-.425.94-.95 0-2.36 1.892-4.273 4.227-4.273.519 0 .94-.425.94-.95 0-.524-.421-.949-.94-.949-3.372 0-6.106 2.763-6.106 6.173 0 .524.42.95.94.95z"/>
        <path fill="#FFF" d="M17.152 13.099l-3.091 3.13-1.118-1.12a.932.932 0 0 0-1.418-.11.957.957 0 0 0-.002 1.343l1.88 1.9a.932.932 0 0 0 1.328 0l3.759-3.798a.957.957 0 0 0-.009-1.343.933.933 0 0 0-1.329-.002z"/>
        <path fill="#DDDFE1" d="M18.203 12.91c.16.359.083.78-.192 1.059l-3.758 3.798a.932.932 0 0 1-1.328.001l.469.474a.932.932 0 0 0 1.328 0l3.758-3.798a.957.957 0 0 0 .001-1.343.937.937 0 0 0-.278-.191z"/>
        <path fill="#0E9347" d="M18.673 13.385c.16.359.083.78-.193 1.059l-3.757 3.798a.932.932 0 0 1-1.328 0l.468.475a.932.932 0 0 0 1.329 0l3.758-3.799a.957.957 0 0 0 .001-1.342.937.937 0 0 0-.278-.191z"/>
    </g>
</svg>
