<svg xmlns="http://www.w3.org/2000/svg" width="45" height="45" viewBox="0 0 45 45">
    <g fill="none" fill-rule="nonzero">
        <path fill="#FE9923" d="M9.092 24.924L7.097 37.517c-.182 1.148 1.208 1.869 2.041 1.06l7.45-7.226 2.028-.664L43.468 5.194l.73-2.172-3.587 1.3L9.25 23.89l-.157 1.034z"/>
        <path fill="#FEDB41" d="M42.999 2.635c-.057.013-41.56 13.226-41.616 13.244a1.213 1.213 0 0 0-.424 2.076l8.131 6.972L44.197 3.025A1.173 1.173 0 0 0 43 2.635z"/>
        <path fill="#FC3" d="M44.23 3.087c-.014-.02-.015-.047-.031-.065l-.287.295L16.589 31.35l12.469 10.69c.649.556 1.647.282 1.93-.513l13.44-37.311c.142-.394.04-.813-.197-1.13z"/>
    </g>
</svg>
