<svg xmlns="http://www.w3.org/2000/svg" width="54" height="54" viewBox="0 0 54 54">
    <defs>
        <filter id="a" width="107.3%" height="104.6%" x="-3.7%" y="-2.3%" filterUnits="objectBoundingBox">
            <feOffset in="SourceAlpha" result="shadowOffsetOuter1"/>
            <feGaussianBlur in="shadowOffsetOuter1" result="shadowBlurOuter1" stdDeviation="7.5"/>
            <feColorMatrix in="shadowBlurOuter1" result="shadowMatrixOuter1" values="0 0 0 0 0.882352941 0 0 0 0 0.901960784 0 0 0 0 0.921568627 0 0 0 1 0"/>
            <feMerge>
                <feMergeNode in="shadowMatrixOuter1"/>
                <feMergeNode in="SourceGraphic"/>
            </feMerge>
        </filter>
    </defs>
    <g fill="none" fill-rule="evenodd" filter="url(#a)" transform="translate(15 15)">
        <circle cx="12" cy="12" r="12" fill="#74849A"/>
        <path fill="#FFF" d="M7 6h6.426a1 1 0 0 1 .7.287l3.575 3.51a1 1 0 0 1 .299.713V17a1 1 0 0 1-1 1H7a1 1 0 0 1-1-1V7a1 1 0 0 1 1-1z"/>
        <path fill="#6A80BD" d="M8 11h7v1H8zM8 14h4v1H8z"/>
    </g>
</svg>
