<svg xmlns="http://www.w3.org/2000/svg" width="30" height="30" viewBox="0 0 30 30">
    <g fill="none" fill-rule="evenodd">
        <circle cx="15" cy="15" r="15" fill="#F0485D"/>
        <path fill="#FFF" fill-rule="nonzero" d="M7.983 10.143l.582-.582-.583-.583a1.103 1.103 0 0 1-.002-1.556 1.125 1.125 0 0 1 1.561-.003l.583.582.582-.583a1.128 1.128 0 0 1 1.559 0c.208.209.323.486.323.78 0 .294-.114.571-.323.78l-.582.582.582.582c.208.208.323.485.323.779 0 .294-.115.571-.323.78a1.128 1.128 0 0 1-1.56 0l-.58-.582-.583.582a1.096 1.096 0 0 1-.78.323 1.103 1.103 0 0 1-.78-1.881zm9.303-.005l.582-.582-.582-.583a1.103 1.103 0 0 1-.002-1.555 1.125 1.125 0 0 1 1.56-.004l.583.582.583-.582a1.127 1.127 0 0 1 1.559 0c.208.208.323.485.323.779 0 .294-.115.571-.323.78l-.583.582.582.582a1.097 1.097 0 0 1 0 1.56 1.128 1.128 0 0 1-1.559-.001l-.581-.582-.582.582a1.096 1.096 0 0 1-1.559 0 1.101 1.101 0 0 1 0-1.558zM7.06 21.146v-1.358c0-.183.148-.331.33-.331.42 0 1.261-.323 1.623-.829a.33.33 0 0 1 .538 0c.371.52.976.83 1.62.83.645 0 1.25-.31 1.62-.829a.331.331 0 0 1 .538 0c.373.519.98.828 1.623.828.644 0 1.25-.31 1.621-.828.124-.174.414-.174.538 0 .371.519.977.828 1.62.828.646 0 1.251-.31 1.622-.828a.331.331 0 0 1 .538 0c.362.506 1.202.828 1.621.828.183 0 .33.149.33.331v1.358c0 .183-.147.331-.33.331-.551 0-1.356-.309-1.882-.794a2.662 2.662 0 0 1-3.789.008 2.663 2.663 0 0 1-3.78 0 2.662 2.662 0 0 1-3.788-.008c-.527.485-1.332.794-1.883.794a.33.33 0 0 1-.33-.33z"/>
    </g>
</svg>
