<svg xmlns="http://www.w3.org/2000/svg" width="264" height="268" viewBox="0 0 264 268">
    <defs>
        <linearGradient id="a" x1="96.213%" x2="0%" y1="100%" y2="0%">
            <stop offset="0%" stop-color="#FFF"/>
            <stop offset="100%" stop-color="#E7EDF6"/>
        </linearGradient>
    </defs>
    <g fill="none" fill-rule="evenodd">
        <path fill="url(#a)" d="M181.627 268H264V163.932L176.68 74 73 153.352z"/>
        <g transform="translate(48 39)">
            <path fill="#ADCAE0" d="M116.674 114.12c-.905 4.41-5.297 7.75-9.758 7.423l-2.126-.155c-4.463-.328-11.222 2.426-15.022 4.8l-9.909 6.194c-3.801 2.376-6.498.657-5.995-3.82l.017-.16c.504-4.477-2.735-9.486-7.195-9.814l-36.98-2.717c-4.463-.33-8.468-4.266-8.901-8.75l-6.237-62.903c-.435-4.484 2.866-8.301 7.336-8.486l101.382-4.15c4.469-.182 7.385 3.277 6.477 7.688l-13.089 74.85"/>
            <path fill="#F0F7FF" d="M95.273 100.23c-1.908-4.693-1.157-11.972 1.667-16.168 0 0 10.393-15.454 10.393-30.233C107.333 24.183 83.469.15 54.03.15 24.595.15.73 24.183.73 53.83c0 29.647 23.865 53.677 53.301 53.677 5.723 0 7.497-.43 7.497-.43 4.895-1.193 12.85-.987 17.677.457l12.89 3.856c4.828 1.443 7.216-1.216 5.311-5.91l-2.133-5.25"/>
            <ellipse cx="34.412" cy="46.207" fill="#87B8DD" rx="3.824" ry="3.851"/>
            <ellipse cx="72.647" cy="46.207" fill="#87B8DD" rx="3.824" ry="3.851"/>
            <path fill="#87B8DD" d="M53.53 65.32c3.8 0 6.882 3.198 6.882-.63s-3.082-6.931-6.883-6.931c-3.8 0-6.882 3.103-6.882 6.93 0 3.829 3.081.63 6.882.63z"/>
        </g>
        <path fill="#FF8500" d="M40 19.44c-.206 0-.373-.77-.373-1.72S39.794 16 40 16s.373.77.373 1.72-.167 1.72-.373 1.72zm.493.174c-.13-.128.394-.66 1.168-1.189.775-.529 1.507-.854 1.636-.726.13.127-.394.66-1.169 1.188-.774.529-1.506.854-1.635.727zm.217.838c.052-.188.834-.203 1.747-.034.913.17 1.61.459 1.559.647-.052.188-.834.203-1.747.034-.913-.17-1.61-.459-1.56-.647zm-.505.502c.174-.066.695.548 1.163 1.37.468.824.705 1.545.53 1.61-.174.067-.695-.547-1.163-1.37-.468-.823-.705-1.544-.53-1.61zm-.41 0c.175.066-.062.787-.53 1.61-.468.823-.989 1.437-1.164 1.37-.174-.065.063-.786.531-1.61.468-.822.989-1.436 1.163-1.37zm-.505-.502c.052.188-.646.478-1.56.647-.912.169-1.694.154-1.746-.034-.052-.188.646-.478 1.56-.647.912-.169 1.694-.154 1.746.034zm.217-.838c-.129.127-.86-.198-1.635-.727-.775-.529-1.298-1.06-1.17-1.188.13-.128.862.197 1.637.726.774.529 1.297 1.06 1.168 1.189z"/>
        <path fill="#16D121" fill-rule="nonzero" d="M180 38a5 5 0 1 0-10 0 5 5 0 0 0 10 0zm-8.571 0a3.571 3.571 0 1 1 7.142 0 3.571 3.571 0 0 1-7.142 0z"/>
        <path fill="#FFC72C" fill-rule="nonzero" d="M7 36.5a3.5 3.5 0 1 0-7 0 3.5 3.5 0 0 0 7 0zm-6 0a2.5 2.5 0 1 1 5 0 2.5 2.5 0 0 1-5 0zM199 90.5a3.5 3.5 0 1 0-7 0 3.5 3.5 0 0 0 7 0zm-6 0a2.5 2.5 0 1 1 5 0 2.5 2.5 0 0 1-5 0z"/>
        <path fill="#16D1C4" fill-rule="nonzero" d="M192 2.5a2.5 2.5 0 1 0-5 0 2.5 2.5 0 0 0 5 0zm-4.286 0a1.786 1.786 0 1 1 3.572 0 1.786 1.786 0 0 1-3.572 0zM238 86.5a2.5 2.5 0 1 0-5 0 2.5 2.5 0 0 0 5 0zm-4.286 0a1.786 1.786 0 1 1 3.572 0 1.786 1.786 0 0 1-3.572 0z"/>
        <path fill="#FF8500" d="M210.4 55.4v-1.803c0-.33.278-.597.6-.597.331 0 .6.273.6.597V55.4h1.803c.33 0 .597.278.597.6 0 .331-.273.6-.597.6H211.6v1.803c0 .33-.278.597-.6.597a.603.603 0 0 1-.6-.597V56.6h-1.803A.605.605 0 0 1 208 56c0-.331.273-.6.597-.6h1.803zM41.4 55.4v-1.803c0-.33.278-.597.6-.597.331 0 .6.273.6.597V55.4h1.803c.33 0 .597.278.597.6 0 .331-.273.6-.597.6H42.6v1.803c0 .33-.278.597-.6.597a.603.603 0 0 1-.6-.597V56.6h-1.803A.605.605 0 0 1 39 56c0-.331.273-.6.597-.6H41.4z"/>
        <path fill="#DEA1F8" d="M24.871 93.884V91.63a.629.629 0 1 1 1.258 0v2.253l1.449-1.682a.65.65 0 0 1 .89-.086l-.022-.018a.595.595 0 0 1 .072.864l-1.502 1.743 2.251-.381c.34-.058.666.18.725.51a.618.618 0 0 1-.503.719l-2.281.386 2.023 1.13a.604.604 0 0 1 .227.839l.014-.025a.639.639 0 0 1-.862.23l-1.97-1.1.799 2.146a.613.613 0 0 1-.36.792.632.632 0 0 1-.798-.388l-.78-2.096-.781 2.096a.644.644 0 0 1-.8.388.602.602 0 0 1-.359-.792l.8-2.147-1.97 1.1a.646.646 0 0 1-.863-.229l.014.025a.598.598 0 0 1 .228-.838l2.023-1.13-2.282-.387a.622.622 0 0 1-.503-.719.635.635 0 0 1 .725-.51l2.251.381-1.502-1.743a.602.602 0 0 1 .072-.864l-.022.018a.642.642 0 0 1 .89.086l1.45 1.682zm.32.86a.593.593 0 0 1-.181.248l.022-.018a.632.632 0 0 1-.345.139.612.612 0 0 1-.143.693.63.63 0 0 1 .299.258l-.015-.024a.61.61 0 0 1 .088.322.603.603 0 0 1 .586.183.581.581 0 0 1 .247-.167.615.615 0 0 1 .338-.02.601.601 0 0 1 .085-.318l-.015.024a.636.636 0 0 1 .299-.26.613.613 0 0 1-.142-.693.625.625 0 0 1-.346-.137l.022.018a.604.604 0 0 1-.183-.248.626.626 0 0 1-.616 0z"/>
    </g>
</svg>
