<svg xmlns="http://www.w3.org/2000/svg" width="19" height="19" viewBox="0 0 19 19">
    <path fill="none" fill-rule="evenodd" stroke="#74849A" stroke-linecap="round" stroke-linejoin="round" d="M15.466 10.877c-.154.596-.303 1.064-.476 1.439l1.691 1.69-2.674 2.675-1.692-1.69c-.374.172-.843.32-1.438.475v2.367H7.79v-2.367c-.596-.154-1.065-.304-1.44-.476L4.66 16.68l-2.675-2.674 1.691-1.692c-.172-.374-.321-.842-.475-1.438H.833V7.79h2.368c.154-.595.303-1.064.475-1.439l-1.691-1.69L4.66 1.986l1.691 1.69c.376-.172.846-.321 1.439-.474V.833h3.087v2.369c.592.153 1.062.302 1.437.474l1.692-1.69 2.675 2.675-1.69 1.69c.172.376.321.846.474 1.439h2.368v3.087h-2.367zm-3.502-1.544a2.63 2.63 0 1 0-5.262 0 2.63 2.63 0 0 0 5.262 0z"/>
</svg>
