<?xml version="1.0" encoding="UTF-8" standalone="no"?>
<svg width="42px" height="42px" viewBox="0 0 42 42" version="1.1" xmlns="http://www.w3.org/2000/svg" xmlns:xlink="http://www.w3.org/1999/xlink">
    <!-- Generator: sketchtool 39.1 (31720) - http://www.bohemiancoding.com/sketch -->
    <title>E6CC1C08-7366-4F8D-AA06-61309726B1BC</title>
    <desc>Created with sketchtool.</desc>
    <defs></defs>
    <g id="Missing-Screens" stroke="none" stroke-width="1" fill="none" fill-rule="evenodd">
        <g id="03---Startup-details-About" transform="translate(-822.000000, -1107.000000)" stroke="#005EB8">
            <g id="Contact-details" transform="translate(150.000000, 1026.000000)">
                <g id="icon-website" transform="translate(673.000000, 82.000000)">
                    <path d="M20.1380952,0.357142857 C14.8778905,0.270021241 9.8158946,2.36238182 6.15238095,6.13809524 C5.78095238,6.50952381 5.42380952,6.88571429 5.08571429,7.27142857 C1.96279051,10.8183797 0.276512971,15.4034244 0.357142857,20.1285714 C0.276512971,24.8537184 1.96279051,29.4387631 5.08571429,32.9857143 C5.42380952,33.3761905 5.78095238,33.747619 6.15238095,34.1238095 C9.80855136,37.9152828 14.8714942,40.0235494 20.1380952,39.947619 C25.4056314,40.0261149 30.4704462,37.9195105 34.1285714,34.1285714 C37.9107544,30.4663642 40.0085211,25.402076 39.9238095,20.1380952 C40.0111677,14.8708231 37.9131907,9.80257942 34.1285714,6.13809524 C30.4639184,2.36116436 25.3999453,0.268698945 20.1380952,0.357142857 L20.1380952,0.357142857 Z" id="Shape" stroke-width="2"></path>
                    <path d="M20.252381,23.3333333 C20.4291202,24.4495226 20.0567977,25.5824469 19.252381,26.3761905 L17.2952381,28.3333333 C16.3961197,29.2324518 15.0856261,29.5835975 13.8574075,29.2544973 C12.6291889,28.9253971 11.669841,27.9660492 11.3407408,26.7378306 C11.0116406,25.509612 11.3627863,24.1991184 12.2619048,23.3 L14.2238095,21.3380952 C14.8890019,20.6686486 15.7943605,20.2931306 16.7380952,20.2952381 C16.915099,20.2965269 17.0917674,20.3108514 17.2666667,20.3380952 L17.9952381,19.6095238 C17.5885636,19.4896975 17.1668176,19.4287608 16.7428571,19.4285714 C15.5704136,19.4259028 14.4456067,19.8922862 13.6190476,20.7238095 L11.6571429,22.6857143 C9.92928057,24.4109466 9.92714859,27.2102329 11.652381,28.9380952 C13.3776133,30.6659575 16.1768996,30.6680895 17.9047619,28.9428571 L19.8666667,26.9809524 C20.69819,26.1543933 21.1645734,25.0295864 21.1619048,23.8571429 C21.1614545,23.4332013 21.1005231,23.0114922 20.9809524,22.6047619 L20.252381,23.3333333 Z M28.9428571,11.652381 C28.1140072,10.8227602 26.9893827,10.3566193 25.8166667,10.3566193 C24.6439507,10.3566193 23.5193261,10.8227602 22.6904762,11.652381 L20.7285714,13.6142857 C19.8958722,14.4420066 19.4293911,15.5687641 19.4333333,16.7428571 C19.4335227,17.1668176 19.4944594,17.5885636 19.6142857,17.9952381 L20.3428571,17.2666667 C20.3156133,17.0917674 20.3012888,16.915099 20.3,16.7380952 C20.2978925,15.7943605 20.6734105,14.8890019 21.3428571,14.2238095 L23.3047619,12.2619048 C24.6946785,10.8733031 26.9471126,10.8743691 28.3357143,12.2642857 C29.7243159,13.6542023 29.72325,15.9066364 28.3333333,17.2952381 L26.3714286,19.2571429 C25.7062362,19.9265895 24.8008776,20.3021075 23.8571429,20.3 C23.6817295,20.2984785 23.5066611,20.2841547 23.3333333,20.2571429 L22.6047619,20.9857143 C23.0114364,21.1055406 23.4331824,21.1664773 23.8571429,21.1666667 C25.0312359,21.1706089 26.1579934,20.7041278 26.9857143,19.8714286 L28.947619,17.9095238 C29.7772398,17.0806739 30.2433807,15.9560493 30.2433807,14.7833333 C30.2433807,13.6106173 29.7772398,12.4859928 28.947619,11.6571429 L28.9428571,11.652381 Z M17.1428571,24.0619048 L24.0619048,17.1428571 L23.452381,16.5333333 L16.5333333,23.447619 L17.1428571,24.0619048 Z" id="Shape" fill="#005EB8"></path>
                </g>
            </g>
        </g>
    </g>
</svg>