<?xml version="1.0" encoding="UTF-8" standalone="no"?>
<svg width="51px" height="37px" viewBox="0 0 51 37" version="1.1" xmlns="http://www.w3.org/2000/svg" xmlns:xlink="http://www.w3.org/1999/xlink">
    <!-- Generator: sketchtool 39.1 (31720) - http://www.bohemiancoding.com/sketch -->
    <title>B284FB5D-9721-4564-81F8-0F4398C10453</title>
    <desc>Created with sketchtool.</desc>
    <defs></defs>
    <g id="Missing-Screens" stroke="none" stroke-width="1" fill="none" fill-rule="evenodd">
        <g id="03---Startup-details-About" transform="translate(-280.000000, -1110.000000)" fill="#005EB8">
            <g id="Contact-details" transform="translate(150.000000, 1026.000000)">
                <g id="Icon-Phone" transform="translate(130.000000, 84.000000)">
                    <path d="M45.673,20 L47.55,20 C49.319,20 51,18.441 51,16.672 L51,12.971 C51,11.203 49.318,10 47.55,10 L43.615,10 C43.593,9.908 43.575,9.826 43.55,9.723 C43.277,8.641 42.774,7.218 41.884,5.649 C39.737,1.865 36.396,0 32.221,0 L12.1,0 C7.925,0 4.584,1.885 2.437,5.67 C0.861,8.448 0.496,10.978 0.481,11.094 L0.337,12 L8.07,12 L8.28,11.443 C8.283,11.432 8.613,10.178 9.249,9.084 C9.766,8.196 10.591,7 11.588,7 L32.732,7 C33.729,7 34.554,8.277 35.07,9.165 C35.706,10.259 36.036,11.322 36.039,11.333 L36.25,12 L43.911,12 L43.983,12 L47.549,12 C48.215,12 48.999,12.306 48.999,12.971 L48.999,16.672 C49,17.338 48.215,18 47.55,18 L45.673,18 C43.905,18 42.466,19.232 42.466,21 C42.466,22.769 43.904,24 45.673,24 L47.55,24 C48.216,24 48.757,24.835 48.757,25.5 C48.757,26.165 48.215,27 47.55,27 L46,27 L46,29 L47.55,29 C49.319,29 50.757,27.268 50.757,25.5 C50.757,23.731 49.319,22 47.55,22 L45.673,22 C45.007,22 44.466,21.665 44.466,21 C44.466,20.335 45.007,20 45.673,20 L45.673,20 Z M37.714,10 C37.523,10 37.219,8.718 36.799,7.997 C35.385,5.565 33.807,5 32.732,5 L11.588,5 C10.513,5 8.934,5.565 7.52,7.997 C7.102,8.719 6.798,10 6.606,10 L2.694,10 C2.929,9 3.376,7.903 4.176,6.493 C5.972,3.328 8.638,2 12.1,2 L32.221,2 C35.683,2 38.348,3.327 40.144,6.494 C40.944,7.904 41.392,9 41.626,10 L37.714,10 L37.714,10 Z" id="Shape"></path>
                    <rect id="Rectangle-path" x="0" y="14" width="8" height="2"></rect>
                    <rect id="Rectangle-path" x="36" y="14" width="8" height="2"></rect>
                    <path d="M41.094,24.191 C40.408,21.283 37.418,19 34.432,19 L32.689,19 C32.684,18.946 32.667,18.89 32.662,18.836 C32.147,13.566 27.683,9.433 22.279,9.433 C16.876,9.433 12.416,13.566 11.901,18.836 C11.896,18.89 11.895,18.945 11.89,19 C11.889,19.008 11.927,19.016 11.927,19.024 C11.918,19.138 11.918,19.253 11.919,19.368 C11.916,19.208 11.914,19.073 11.926,19.024 C11.927,19.016 11.887,19.008 11.888,19 L10.106,19 C7.119,19 4.13,21.283 3.443,24.191 L1.82,31.018 C1.465,32.519 1.748,34.075 2.617,35.173 C3.485,36.271 4.813,37 6.355,37 L38.181,37 C39.723,37 41.051,36.25 41.92,35.153 C42.789,34.056 43.071,32.479 42.717,30.977 L41.094,24.191 L41.094,24.191 Z M33,19.876 L33,20.022 C33,20.157 32.945,20.344 32.878,20.52 C32.933,20.306 33,20.092 33,19.876 L33,19.876 Z M32.813,19.567 C32.831,19.654 32.844,19.741 32.845,19.823 C32.845,19.737 32.826,19.652 32.813,19.567 L32.813,19.567 Z M22.268,11.433 C26.914,11.433 30.693,15.212 30.693,19.858 C30.693,24.504 26.913,28.283 22.268,28.283 C17.623,28.283 13.843,24.503 13.843,19.858 C13.843,15.213 17.623,11.433 22.268,11.433 L22.268,11.433 Z M40.767,33.003 C40.684,33.351 40.554,33.676 40.352,33.932 C39.871,34.54 39.1,35 38.182,35 L6.355,35 C5.437,35 4.666,34.52 4.185,33.912 C3.982,33.656 3.853,33.341 3.77,33.004 C3.705,32.738 3.664,32.461 3.676,32.169 C3.685,31.952 3.714,31.73 3.766,31.509 L5.389,24.686 C5.867,22.664 8.026,21 10.105,21 L11.893,21 C11.871,21 11.937,20.658 11.975,20.344 C11.963,20.509 11.955,20.673 11.971,20.836 C12.466,26.127 16.89,30.283 22.307,30.283 C27.669,30.283 32.219,26.212 32.794,21 L34.432,21 C36.511,21 38.67,22.627 39.148,24.651 L40.771,31.478 C40.825,31.707 40.854,31.939 40.861,32.169 C40.87,32.458 40.831,32.736 40.767,33.003 L40.767,33.003 Z" id="Shape"></path>
                    <circle id="Oval" cx="22.268" cy="14.112" r="1.288"></circle>
                    <circle id="Oval" cx="22.268" cy="25.604" r="1.288"></circle>
                    <circle id="Oval" cx="28.014" cy="19.858" r="1.288"></circle>
                    <circle id="Oval" cx="16.523" cy="19.858" r="1.288"></circle>
                    <circle id="Oval" cx="26.331" cy="23.921" r="1.288"></circle>
                    <circle id="Oval" cx="18.205" cy="15.795" r="1.288"></circle>
                    <circle id="Oval" cx="18.205" cy="23.921" r="1.288"></circle>
                    <circle id="Oval" cx="26.331" cy="15.795" r="1.288"></circle>
                </g>
            </g>
        </g>
    </g>
</svg>