<?xml version="1.0" encoding="iso-8859-1"?>
<!-- Generator: Adobe Illustrator 18.0.0, SVG Export Plug-In . SVG Version: 6.00 Build 0)  -->
<!DOCTYPE svg PUBLIC "-//W3C//DTD SVG 1.1//EN" "http://www.w3.org/Graphics/SVG/1.1/DTD/svg11.dtd">
<svg xmlns="http://www.w3.org/2000/svg" xmlns:xlink="http://www.w3.org/1999/xlink" version="1.1" id="Capa_1" x="0px" y="0px" viewBox="0 0 388.923 388.923" style="enable-background:new 0 0 388.923 388.923;" xml:space="preserve" width="512px" height="512px">
<g>
	<path d="M194.461,199.269c31.61,0,57.328-25.718,57.328-57.329c0-31.602-25.717-57.312-57.328-57.312   c-31.61,0-57.327,25.71-57.327,57.312C137.135,173.551,162.851,199.269,194.461,199.269z" fill="#95a5a6"/>
	<path d="M114.461,284.294h160c1.657,0,3-1.343,3-3c0-37.121-18.449-71.521-47.001-87.638c-1.192-0.675-2.692-0.454-3.64,0.536   l-32.36,33.74l-32.359-33.74c-0.948-0.989-2.447-1.211-3.64-0.536c-28.552,16.119-47.001,50.519-47.001,87.638   C111.461,282.951,112.805,284.294,114.461,284.294z" fill="#95a5a6"/>
	<path d="M388.674,127.633c-0.413-1.26-1.31-2.304-2.493-2.903l-8.923-4.516c-1.184-0.599-2.556-0.704-3.816-0.29   c-1.26,0.413-2.304,1.31-2.903,2.493l-17.236,34.059c-12.68-58.21-55.268-105.856-113.035-124.471   c-16.904-5.448-34.364-8.21-51.896-8.21c-26.398,0-52.927,6.445-76.719,18.64c-40.076,20.541-69.754,55.458-83.568,98.321   c-0.407,1.262-0.296,2.634,0.309,3.814c0.605,1.18,1.654,2.071,2.916,2.478l9.517,3.067c2.627,0.849,5.445-0.597,6.292-3.225   c12.176-37.778,38.334-68.553,73.656-86.657C142.049,49.329,164.796,43.8,188.382,43.8c15.45,0,30.842,2.436,45.75,7.241   c52.677,16.976,91.014,61.345,100.675,115.071l-38.338-19.402c-2.464-1.246-5.472-0.26-6.719,2.204l-4.516,8.923   c-0.599,1.183-0.703,2.556-0.289,3.816c0.413,1.26,1.31,2.304,2.493,2.903l62.565,31.661c0.724,0.366,1.495,0.54,2.254,0.54   c1.825,0,3.585-1.003,4.465-2.743l31.662-62.563C388.983,130.266,389.087,128.893,388.674,127.633z" fill="#95a5a6"/>
	<path d="M357.614,241.875l-9.517-3.067c-2.629-0.851-5.446,0.596-6.293,3.225c-12.176,37.778-38.334,68.553-73.655,86.657   c-21.276,10.904-44.023,16.433-67.61,16.433c-15.449,0-30.841-2.436-45.749-7.24c-52.677-16.976-91.014-61.344-100.675-115.071   l38.338,19.402c2.465,1.247,5.473,0.26,6.719-2.204l4.516-8.923c0.599-1.183,0.703-2.556,0.289-3.816   c-0.413-1.26-1.31-2.304-2.493-2.903L38.92,192.707c-2.465-1.247-5.472-0.26-6.719,2.204L0.538,257.474   c-0.599,1.183-0.703,2.556-0.289,3.816c0.413,1.26,1.31,2.304,2.493,2.903l8.923,4.516c0.707,0.357,1.481,0.539,2.258,0.539   c0.524,0,1.05-0.082,1.558-0.249c1.26-0.413,2.304-1.31,2.903-2.493l17.236-34.059c12.68,58.21,55.269,105.856,113.035,124.471   c16.903,5.448,34.363,8.21,51.895,8.21c26.398,0,52.928-6.445,76.72-18.64c40.076-20.54,69.754-55.458,83.568-98.321   c0.407-1.262,0.296-2.634-0.309-3.814C359.925,243.173,358.876,242.282,357.614,241.875z" fill="#95a5a6"/>
</g>
<g>
</g>
<g>
</g>
<g>
</g>
<g>
</g>
<g>
</g>
<g>
</g>
<g>
</g>
<g>
</g>
<g>
</g>
<g>
</g>
<g>
</g>
<g>
</g>
<g>
</g>
<g>
</g>
<g>
</g>
</svg>
