<?xml version="1.0" encoding="UTF-8" standalone="no"?>
<svg width="19px" height="19px" viewBox="0 0 19 19" version="1.1" xmlns="http://www.w3.org/2000/svg" xmlns:xlink="http://www.w3.org/1999/xlink" xmlns:sketch="http://www.bohemiancoding.com/sketch/ns">
    <!-- Generator: sketchtool 3.5.2 (25235) - http://www.bohemiancoding.com/sketch -->
    <title>SignIn</title>
    <desc>Created with sketchtool.</desc>
    <defs></defs>
    <g id="Lithan---Header-NEW-(Desktop)" stroke="none" stroke-width="1" fill="none" fill-rule="evenodd" sketch:type="MSPage">
        <g id="Desktop-Menu---SignIn-n-SignUp---Option-02" sketch:type="MSArtboardGroup" transform="translate(-999.000000, -150.000000)" stroke="#961F63" stroke-width="0.5" fill="#961F63">
            <g id="Nav-/-Desktop-03" sketch:type="MSLayerGroup">
                <g id="Login-+-Signup-Menu" transform="translate(981.000000, 62.000000)" sketch:type="MSShapeGroup">
                    <g id="SignIn" transform="translate(18.000000, 88.000000)">
                        <path d="M12.328172,14.0098581 L12.3091616,13.9908477 C12.2901511,13.9718373 12.2711407,13.9528268 12.2521302,13.9528268 L6.28285184,7.96453796 L7.95577063,6.29161917 L13.925049,12.2608976 L14.7995293,14.7892862 L12.328172,14.0098581 Z M4.4958704,6.17755653 C4.03961982,5.72130595 4.03961982,4.97989876 4.4958704,4.50463774 C4.72399569,4.27651245 5.02816274,4.1624498 5.33232979,4.1624498 C5.63649685,4.1624498 5.9406639,4.27651245 6.16878919,4.50463774 L7.78467666,6.1205252 L6.11175787,7.793444 L4.4958704,6.17755653 Z M14.1151534,12.1468349 L14.096143,12.1278245 L14.0771326,12.1088141 L6.32087272,4.35255421 C5.76956993,3.80125143 4.87607922,3.80125143 4.32477643,4.35255421 C3.77347365,4.90385699 3.77347365,5.79734771 4.32477643,6.34865049 L12.0810363,14.1049103 C12.1000467,14.1239208 12.1380676,14.1429312 12.157078,14.1809521 C12.1760885,14.1809521 12.1760885,14.1999625 12.1950989,14.1999625 L12.2141094,14.218973 L15.1607277,15.1885055 L14.1341639,12.1848558 L14.1151534,12.1468349 Z" id="Fill-1"></path>
                        <path d="M17.803179,16.8614243 C17.803179,17.412727 17.3659388,17.8499672 16.814636,17.8499672 L2.15758618,17.8499672 C1.6062834,17.8499672 1.16904326,17.412727 1.16904326,16.8614243 L1.16904326,2.18536396 C1.16904326,1.63406117 1.6062834,1.19682104 2.15758618,1.19682104 L14.4573414,1.19682104 L14.4573414,2.8127085 C14.4573414,3.68718878 15.2367695,4.42859597 16.1492706,4.42859597 L17.7841685,4.42859597 L17.7841685,16.8614243 L17.803179,16.8614243 Z M17.5940641,4.20047068 L16.1682811,4.20047068 C15.388853,4.20047068 14.7044771,3.5541157 14.7044771,2.8127085 L14.7044771,1.367915 L17.5940641,4.20047068 Z M14.6474458,0.968695747 L2.15758618,0.968695747 C1.49222075,0.968695747 0.940917969,1.51999853 0.940917969,2.18536396 L0.940917969,16.8424138 C0.940917969,17.5077792 1.49222075,18.059082 2.15758618,18.059082 L16.814636,18.059082 C17.4800015,18.059082 18.0313043,17.5077792 18.0313043,16.8424138 L18.0313043,4.29552289 L14.6474458,0.968695747 Z" id="Fill-3"></path>
                    </g>
                </g>
            </g>
        </g>
    </g>
</svg>