<?xml version="1.0" encoding="utf-8"?>
<!-- Generator: Adobe Illustrator 18.0.0, SVG Export Plug-In . SVG Version: 6.00 Build 0)  -->
<!DOCTYPE svg PUBLIC "-//W3C//DTD SVG 1.1//EN" "http://www.w3.org/Graphics/SVG/1.1/DTD/svg11.dtd">
<svg version="1.1" id="Layer_1" xmlns="http://www.w3.org/2000/svg" xmlns:xlink="http://www.w3.org/1999/xlink" x="0px" y="0px"
	 viewBox="0 0 32 32" enable-background="new 0 0 32 32" xml:space="preserve">
<g display="none">
	<line display="inline" opacity="0.3" fill="none" stroke="#449FDB" enable-background="new    " x1="16" y1="0" x2="16" y2="512"/>
	<line display="inline" fill="none" stroke="#449FDB" x1="32" y1="0" x2="32" y2="512"/>
	<line display="inline" opacity="0.3" fill="none" stroke="#449FDB" enable-background="new    " x1="48" y1="0" x2="48" y2="512"/>
	<line display="inline" fill="none" stroke="#449FDB" x1="64" y1="0" x2="64" y2="512"/>
	<line display="inline" opacity="0.3" fill="none" stroke="#449FDB" enable-background="new    " x1="80" y1="0" x2="80" y2="512"/>
	<line display="inline" fill="none" stroke="#449FDB" x1="96" y1="0" x2="96" y2="512"/>
	
		<line display="inline" opacity="0.3" fill="none" stroke="#449FDB" enable-background="new    " x1="112" y1="0" x2="112" y2="512"/>
	<line display="inline" fill="none" stroke="#449FDB" x1="128" y1="0" x2="128" y2="512"/>
	
		<line display="inline" opacity="0.3" fill="none" stroke="#449FDB" enable-background="new    " x1="144" y1="0" x2="144" y2="512"/>
	<line display="inline" fill="none" stroke="#449FDB" x1="160" y1="0" x2="160" y2="512"/>
	
		<line display="inline" opacity="0.3" fill="none" stroke="#449FDB" enable-background="new    " x1="176" y1="0" x2="176" y2="512"/>
	<line display="inline" fill="none" stroke="#449FDB" x1="192" y1="0" x2="192" y2="512"/>
	
		<line display="inline" opacity="0.3" fill="none" stroke="#449FDB" enable-background="new    " x1="208" y1="0" x2="208" y2="512"/>
	<line display="inline" fill="none" stroke="#449FDB" x1="224" y1="0" x2="224" y2="512"/>
	
		<line display="inline" opacity="0.3" fill="none" stroke="#449FDB" enable-background="new    " x1="240" y1="0" x2="240" y2="512"/>
	<line display="inline" fill="none" stroke="#449FDB" x1="256" y1="0" x2="256" y2="512"/>
	
		<line display="inline" opacity="0.3" fill="none" stroke="#449FDB" enable-background="new    " x1="272" y1="0" x2="272" y2="512"/>
	<line display="inline" fill="none" stroke="#449FDB" x1="288" y1="0" x2="288" y2="512"/>
	
		<line display="inline" opacity="0.3" fill="none" stroke="#449FDB" enable-background="new    " x1="304" y1="0" x2="304" y2="512"/>
	<line display="inline" fill="none" stroke="#449FDB" x1="320" y1="0" x2="320" y2="512"/>
	
		<line display="inline" opacity="0.3" fill="none" stroke="#449FDB" enable-background="new    " x1="336" y1="0" x2="336" y2="512"/>
	<line display="inline" fill="none" stroke="#449FDB" x1="352" y1="0" x2="352" y2="512"/>
	
		<line display="inline" opacity="0.3" fill="none" stroke="#449FDB" enable-background="new    " x1="368" y1="0" x2="368" y2="512"/>
	<line display="inline" fill="none" stroke="#449FDB" x1="384" y1="0" x2="384" y2="512"/>
	
		<line display="inline" opacity="0.3" fill="none" stroke="#449FDB" enable-background="new    " x1="400" y1="0" x2="400" y2="512"/>
	<line display="inline" fill="none" stroke="#449FDB" x1="416" y1="0" x2="416" y2="512"/>
	
		<line display="inline" opacity="0.3" fill="none" stroke="#449FDB" enable-background="new    " x1="432" y1="0" x2="432" y2="512"/>
	<line display="inline" fill="none" stroke="#449FDB" x1="448" y1="0" x2="448" y2="512"/>
	
		<line display="inline" opacity="0.3" fill="none" stroke="#449FDB" enable-background="new    " x1="464" y1="0" x2="464" y2="512"/>
	<line display="inline" fill="none" stroke="#449FDB" x1="480" y1="0" x2="480" y2="512"/>
	
		<line display="inline" opacity="0.3" fill="none" stroke="#449FDB" enable-background="new    " x1="496" y1="0" x2="496" y2="512"/>
	<line display="inline" opacity="0.3" fill="none" stroke="#449FDB" enable-background="new    " x1="0" y1="16" x2="512" y2="16"/>
	<line display="inline" fill="none" stroke="#449FDB" x1="0" y1="32" x2="512" y2="32"/>
	<line display="inline" opacity="0.3" fill="none" stroke="#449FDB" enable-background="new    " x1="0" y1="48" x2="512" y2="48"/>
	<line display="inline" fill="none" stroke="#449FDB" x1="0" y1="64" x2="512" y2="64"/>
	<line display="inline" opacity="0.3" fill="none" stroke="#449FDB" enable-background="new    " x1="0" y1="80" x2="512" y2="80"/>
	<line display="inline" fill="none" stroke="#449FDB" x1="0" y1="96" x2="512" y2="96"/>
	
		<line display="inline" opacity="0.3" fill="none" stroke="#449FDB" enable-background="new    " x1="0" y1="112" x2="512" y2="112"/>
	<line display="inline" fill="none" stroke="#449FDB" x1="0" y1="128" x2="512" y2="128"/>
	
		<line display="inline" opacity="0.3" fill="none" stroke="#449FDB" enable-background="new    " x1="0" y1="144" x2="512" y2="144"/>
	<line display="inline" fill="none" stroke="#449FDB" x1="0" y1="160" x2="512" y2="160"/>
	
		<line display="inline" opacity="0.3" fill="none" stroke="#449FDB" enable-background="new    " x1="0" y1="176" x2="512" y2="176"/>
	<line display="inline" fill="none" stroke="#449FDB" x1="0" y1="192" x2="512" y2="192"/>
	
		<line display="inline" opacity="0.3" fill="none" stroke="#449FDB" enable-background="new    " x1="0" y1="208" x2="512" y2="208"/>
	<line display="inline" fill="none" stroke="#449FDB" x1="0" y1="224" x2="512" y2="224"/>
	
		<line display="inline" opacity="0.3" fill="none" stroke="#449FDB" enable-background="new    " x1="0" y1="240" x2="512" y2="240"/>
	<line display="inline" fill="none" stroke="#449FDB" x1="0" y1="256" x2="512" y2="256"/>
	
		<line display="inline" opacity="0.3" fill="none" stroke="#449FDB" enable-background="new    " x1="0" y1="272" x2="512" y2="272"/>
	<line display="inline" fill="none" stroke="#449FDB" x1="0" y1="288" x2="512" y2="288"/>
	
		<line display="inline" opacity="0.3" fill="none" stroke="#449FDB" enable-background="new    " x1="0" y1="304" x2="512" y2="304"/>
	<line display="inline" fill="none" stroke="#449FDB" x1="0" y1="320" x2="512" y2="320"/>
	
		<line display="inline" opacity="0.3" fill="none" stroke="#449FDB" enable-background="new    " x1="0" y1="336" x2="512" y2="336"/>
	<line display="inline" fill="none" stroke="#449FDB" x1="0" y1="352" x2="512" y2="352"/>
	
		<line display="inline" opacity="0.3" fill="none" stroke="#449FDB" enable-background="new    " x1="0" y1="368" x2="512" y2="368"/>
	<line display="inline" fill="none" stroke="#449FDB" x1="0" y1="384" x2="512" y2="384"/>
	
		<line display="inline" opacity="0.3" fill="none" stroke="#449FDB" enable-background="new    " x1="0" y1="400" x2="512" y2="400"/>
	<line display="inline" fill="none" stroke="#449FDB" x1="0" y1="416" x2="512" y2="416"/>
	
		<line display="inline" opacity="0.3" fill="none" stroke="#449FDB" enable-background="new    " x1="0" y1="432" x2="512" y2="432"/>
	<line display="inline" fill="none" stroke="#449FDB" x1="0" y1="448" x2="512" y2="448"/>
	
		<line display="inline" opacity="0.3" fill="none" stroke="#449FDB" enable-background="new    " x1="0" y1="464" x2="512" y2="464"/>
	<line display="inline" fill="none" stroke="#449FDB" x1="0" y1="480" x2="512" y2="480"/>
	
		<line display="inline" opacity="0.3" fill="none" stroke="#449FDB" enable-background="new    " x1="0" y1="496" x2="512" y2="496"/>
</g>
<path d="M16,0c8.8,0,16,7.2,16,16s-7.2,16-16,16S0,24.8,0,16S7.2,0,16,0z M16,29c7.2,0,13-5.8,13-13S23.2,3,16,3S3,8.8,3,16
	S8.8,29,16,29z M6.6,14.6l8-8c0.8-0.8,2-0.8,2.8,0s0.8,2,0,2.8L12.8,14H24c1.1,0,2,0.9,2,2s-0.9,2-2,2H12.8l4.6,4.6
	c0.8,0.8,0.8,2,0,2.8C17,25.8,16.5,26,16,26s-1-0.2-1.4-0.6l-8-8C5.8,16.6,5.8,15.4,6.6,14.6L6.6,14.6z"/>
</svg>
