<?xml version="1.0" encoding="UTF-8" standalone="no"?>
<svg width="13px" height="13px" viewBox="0 0 13 13" version="1.1" xmlns="http://www.w3.org/2000/svg" xmlns:xlink="http://www.w3.org/1999/xlink">
    <!-- Generator: sketchtool 39.1 (31720) - http://www.bohemiancoding.com/sketch -->
    <title>8C493A0E-BE61-4A09-BA24-C8C2BDA9B62C</title>
    <desc>Created with sketchtool.</desc>
    <defs></defs>
    <g id="Symbols" stroke="none" stroke-width="1" fill="none" fill-rule="evenodd">
        <g id="Nav-/-Desktop" transform="translate(-802.000000, -19.000000)" fill="#C688AC">
            <g id="Search" transform="translate(792.000000, 10.000000)">
                <path d="M23,20.9787778 L20.3383704,18.3171481 C21.0986296,17.3387778 21.5555556,16.1129259 21.5555556,14.7777778 C21.5555556,11.5865185 18.9685556,9 15.7777778,9 C12.587,9 10,11.5865185 10,14.7777778 C10,17.969037 12.587,20.5555556 15.7777778,20.5555556 C17.1124444,20.5555556 18.3382963,20.0986296 19.3171481,19.3383704 L21.9787778,22 L23,20.9787778 L23,20.9787778 Z M15.7777778,19.1111111 C13.3881852,19.1111111 11.4444444,17.1673704 11.4444444,14.7777778 C11.4444444,12.3881852 13.3881852,10.4444444 15.7777778,10.4444444 C18.1673704,10.4444444 20.1111111,12.3881852 20.1111111,14.7777778 C20.1111111,17.1673704 18.1673704,19.1111111 15.7777778,19.1111111 L15.7777778,19.1111111 Z" id="Shape"></path>
            </g>
        </g>
    </g>
</svg>